<svg viewBox="0 0 800 320" xmlns="http://www.w3.org/2000/svg" style="width:100%;max-width:800px;height:auto;font-family:Arial,sans-serif;">
<rect width="800" height="320" fill="white"/>

<g transform="translate(70,30)">
<line x1="0" y1="180.0" x2="710" y2="180.0" stroke="#eee" stroke-width="1"/>
<text x="-8" y="184.0" text-anchor="end" font-size="10" fill="#666">0.00</text>
<line x1="0" y1="144.0" x2="710" y2="144.0" stroke="#eee" stroke-width="1"/>
<text x="-8" y="148.0" text-anchor="end" font-size="10" fill="#666">2.24</text>
<line x1="0" y1="108.0" x2="710" y2="108.0" stroke="#eee" stroke-width="1"/>
<text x="-8" y="112.0" text-anchor="end" font-size="10" fill="#666">4.47</text>
<line x1="0" y1="72.0" x2="710" y2="72.0" stroke="#eee" stroke-width="1"/>
<text x="-8" y="76.0" text-anchor="end" font-size="10" fill="#666">6.71</text>
<line x1="0" y1="36.0" x2="710" y2="36.0" stroke="#eee" stroke-width="1"/>
<text x="-8" y="40.0" text-anchor="end" font-size="10" fill="#666">8.94</text>
<line x1="0" y1="0.0" x2="710" y2="0.0" stroke="#eee" stroke-width="1"/>
<text x="-8" y="4.0" text-anchor="end" font-size="10" fill="#666">11.18</text>
<text x="-50" y="90.0" text-anchor="middle" font-size="11" fill="#333" transform="rotate(-90,-50,90.0)">Mean R² (×10⁻³)</text>
<rect x="21.30" y="170.50" width="49.70" height="9.50" fill="#81C784" opacity="0.85"><title>Partner Identity — Expertise: 0.590 ×10⁻³</title></rect>
<line x1="46.15" y1="172.65" x2="46.15" y2="168.25" stroke="#333" stroke-width="1"/>
<line x1="44.15" y1="172.65" x2="48.15" y2="172.65" stroke="#333" stroke-width="1"/>
<line x1="44.15" y1="168.25" x2="48.15" y2="168.25" stroke="#333" stroke-width="1"/>
<rect x="73.00" y="176.58" width="49.70" height="3.42" fill="#BDBDBD" opacity="0.85"><title>Control — Expertise: 0.213 ×10⁻³</title></rect>
<line x1="97.85" y1="177.03" x2="97.85" y2="175.92" stroke="#333" stroke-width="1"/>
<line x1="95.85" y1="177.03" x2="99.85" y2="177.03" stroke="#333" stroke-width="1"/>
<line x1="95.85" y1="175.92" x2="99.85" y2="175.92" stroke="#333" stroke-width="1"/>
<text x="73.0" y="194" text-anchor="end" font-size="10" fill="#FF9800" transform="rotate(-30,73.0,194)">Expertise</text>
<rect x="163.30" y="172.53" width="49.70" height="7.47" fill="#81C784" opacity="0.85"><title>Partner Identity — Formality: 0.464 ×10⁻³</title></rect>
<line x1="188.15" y1="175.14" x2="188.15" y2="171.18" stroke="#333" stroke-width="1"/>
<line x1="186.15" y1="175.14" x2="190.15" y2="175.14" stroke="#333" stroke-width="1"/>
<line x1="186.15" y1="171.18" x2="190.15" y2="171.18" stroke="#333" stroke-width="1"/>
<rect x="215.00" y="173.16" width="49.70" height="6.84" fill="#BDBDBD" opacity="0.85"><title>Control — Formality: 0.425 ×10⁻³</title></rect>
<line x1="239.85" y1="175.72" x2="239.85" y2="170.79" stroke="#333" stroke-width="1"/>
<line x1="237.85" y1="175.72" x2="241.85" y2="175.72" stroke="#333" stroke-width="1"/>
<line x1="237.85" y1="170.79" x2="241.85" y2="170.79" stroke="#333" stroke-width="1"/>
<text x="215.0" y="194" text-anchor="end" font-size="10" fill="#FF9800" transform="rotate(-30,215.0,194)">Formality</text>
<rect x="305.30" y="174.42" width="49.70" height="5.58" fill="#81C784" opacity="0.85"><title>Partner Identity — Helpfulness: 0.346 ×10⁻³</title></rect>
<line x1="330.15" y1="177.00" x2="330.15" y2="171.81" stroke="#333" stroke-width="1"/>
<line x1="328.15" y1="177.00" x2="332.15" y2="177.00" stroke="#333" stroke-width="1"/>
<line x1="328.15" y1="171.81" x2="332.15" y2="171.81" stroke="#333" stroke-width="1"/>
<rect x="357.00" y="176.00" width="49.70" height="4.00" fill="#BDBDBD" opacity="0.85"><title>Control — Helpfulness: 0.249 ×10⁻³</title></rect>
<line x1="381.85" y1="177.38" x2="381.85" y2="174.05" stroke="#333" stroke-width="1"/>
<line x1="379.85" y1="177.38" x2="383.85" y2="177.38" stroke="#333" stroke-width="1"/>
<line x1="379.85" y1="174.05" x2="383.85" y2="174.05" stroke="#333" stroke-width="1"/>
<text x="357.0" y="194" text-anchor="end" font-size="10" fill="#FF9800" transform="rotate(-30,357.0,194)">Helpfulness</text>
<line x1="426.0" y1="0" x2="426.0" y2="180" stroke="#ccc" stroke-width="1" stroke-dasharray="4,3"/>
<rect x="447.30" y="176.64" width="49.70" height="3.36" fill="#81C784" opacity="0.5"><title>Partner Identity — Biological: 0.209 ×10⁻³</title></rect>
<line x1="472.15" y1="177.12" x2="472.15" y2="176.01" stroke="#333" stroke-width="1"/>
<line x1="470.15" y1="177.12" x2="474.15" y2="177.12" stroke="#333" stroke-width="1"/>
<line x1="470.15" y1="176.01" x2="474.15" y2="176.01" stroke="#333" stroke-width="1"/>
<rect x="499.00" y="173.47" width="49.70" height="6.53" fill="#BDBDBD" opacity="0.5"><title>Control — Biological: 0.405 ×10⁻³</title></rect>
<line x1="523.85" y1="174.67" x2="523.85" y2="172.22" stroke="#333" stroke-width="1"/>
<line x1="521.85" y1="174.67" x2="525.85" y2="174.67" stroke="#333" stroke-width="1"/>
<line x1="521.85" y1="172.22" x2="525.85" y2="172.22" stroke="#333" stroke-width="1"/>
<text x="499.0" y="194" text-anchor="end" font-size="10" fill="#9E9E9E" transform="rotate(-30,499.0,194)">Biological</text>
<rect x="589.30" y="169.48" width="49.70" height="10.52" fill="#81C784" opacity="0.5"><title>Partner Identity — Shapes: 0.653 ×10⁻³</title></rect>
<line x1="614.15" y1="173.89" x2="614.15" y2="166.99" stroke="#333" stroke-width="1"/>
<line x1="612.15" y1="173.89" x2="616.15" y2="173.89" stroke="#333" stroke-width="1"/>
<line x1="612.15" y1="166.99" x2="616.15" y2="166.99" stroke="#333" stroke-width="1"/>
<rect x="641.00" y="174.40" width="49.70" height="5.60" fill="#BDBDBD" opacity="0.5"><title>Control — Shapes: 0.348 ×10⁻³</title></rect>
<line x1="665.85" y1="176.55" x2="665.85" y2="172.83" stroke="#333" stroke-width="1"/>
<line x1="663.85" y1="176.55" x2="667.85" y2="176.55" stroke="#333" stroke-width="1"/>
<line x1="663.85" y1="172.83" x2="667.85" y2="172.83" stroke="#333" stroke-width="1"/>
<text x="641.0" y="194" text-anchor="end" font-size="10" fill="#9E9E9E" transform="rotate(-30,641.0,194)">Shapes</text>
<line x1="0" y1="180" x2="710" y2="180" stroke="#333"/>
<line x1="0" y1="0" x2="0" y2="180" stroke="#333"/>
</g>
<rect x="70" y="300" width="10" height="10" fill="#81C784"/>
<text x="84" y="308" font-size="9" fill="#333">Partner Identity</text>
<rect x="210" y="300" width="10" height="10" fill="#BDBDBD"/>
<text x="224" y="308" font-size="9" fill="#333">Control</text>
</svg>