<svg viewBox="0 0 800 320" xmlns="http://www.w3.org/2000/svg" style="width:100%;max-width:800px;height:auto;font-family:Arial,sans-serif;">
<rect width="800" height="320" fill="white"/>

<g transform="translate(70,30)">
<line x1="0" y1="180.0" x2="710" y2="180.0" stroke="#eee" stroke-width="1"/>
<text x="-8" y="184.0" text-anchor="end" font-size="10" fill="#666">0.00</text>
<line x1="0" y1="144.0" x2="710" y2="144.0" stroke="#eee" stroke-width="1"/>
<text x="-8" y="148.0" text-anchor="end" font-size="10" fill="#666">2.24</text>
<line x1="0" y1="108.0" x2="710" y2="108.0" stroke="#eee" stroke-width="1"/>
<text x="-8" y="112.0" text-anchor="end" font-size="10" fill="#666">4.47</text>
<line x1="0" y1="72.0" x2="710" y2="72.0" stroke="#eee" stroke-width="1"/>
<text x="-8" y="76.0" text-anchor="end" font-size="10" fill="#666">6.71</text>
<line x1="0" y1="36.0" x2="710" y2="36.0" stroke="#eee" stroke-width="1"/>
<text x="-8" y="40.0" text-anchor="end" font-size="10" fill="#666">8.94</text>
<line x1="0" y1="0.0" x2="710" y2="0.0" stroke="#eee" stroke-width="1"/>
<text x="-8" y="4.0" text-anchor="end" font-size="10" fill="#666">11.18</text>
<text x="-50" y="90.0" text-anchor="middle" font-size="11" fill="#333" transform="rotate(-90,-50,90.0)">Mean R² (×10⁻³)</text>
<rect x="8.19" y="172.25" width="19.12" height="7.75" fill="#81C784" opacity="0.85"><title>Partner Identity — Social: 0.481 ×10⁻³</title></rect>
<line x1="17.75" y1="174.90" x2="17.75" y2="168.00" stroke="#333" stroke-width="1"/>
<line x1="15.75" y1="174.90" x2="19.75" y2="174.90" stroke="#333" stroke-width="1"/>
<line x1="15.75" y1="168.00" x2="19.75" y2="168.00" stroke="#333" stroke-width="1"/>
<rect x="29.31" y="169.45" width="19.12" height="10.55" fill="#BDBDBD" opacity="0.85"><title>Control — Social: 0.655 ×10⁻³</title></rect>
<line x1="38.87" y1="172.20" x2="38.87" y2="167.28" stroke="#333" stroke-width="1"/>
<line x1="36.87" y1="172.20" x2="40.87" y2="172.20" stroke="#333" stroke-width="1"/>
<line x1="36.87" y1="167.28" x2="40.87" y2="167.28" stroke="#333" stroke-width="1"/>
<text x="29.3" y="194" text-anchor="end" font-size="10" fill="#2196F3" transform="rotate(-30,29.3,194)">Social</text>
<rect x="62.81" y="170.50" width="19.12" height="9.50" fill="#81C784" opacity="0.85"><title>Partner Identity — Attention: 0.590 ×10⁻³</title></rect>
<line x1="72.37" y1="173.42" x2="72.37" y2="168.25" stroke="#333" stroke-width="1"/>
<line x1="70.37" y1="173.42" x2="74.37" y2="173.42" stroke="#333" stroke-width="1"/>
<line x1="70.37" y1="168.25" x2="74.37" y2="168.25" stroke="#333" stroke-width="1"/>
<rect x="83.92" y="168.62" width="19.12" height="11.38" fill="#BDBDBD" opacity="0.85"><title>Control — Attention: 0.707 ×10⁻³</title></rect>
<line x1="93.48" y1="171.10" x2="93.48" y2="166.82" stroke="#333" stroke-width="1"/>
<line x1="91.48" y1="171.10" x2="95.48" y2="171.10" stroke="#333" stroke-width="1"/>
<line x1="91.48" y1="166.82" x2="95.48" y2="166.82" stroke="#333" stroke-width="1"/>
<text x="83.9" y="194" text-anchor="end" font-size="10" fill="#2196F3" transform="rotate(-30,83.9,194)">Attention</text>
<rect x="117.42" y="174.12" width="19.12" height="5.88" fill="#81C784" opacity="0.85"><title>Partner Identity — Prediction: 0.365 ×10⁻³</title></rect>
<line x1="126.98" y1="176.23" x2="126.98" y2="170.06" stroke="#333" stroke-width="1"/>
<line x1="124.98" y1="176.23" x2="128.98" y2="176.23" stroke="#333" stroke-width="1"/>
<line x1="124.98" y1="170.06" x2="128.98" y2="170.06" stroke="#333" stroke-width="1"/>
<rect x="138.54" y="169.80" width="19.12" height="10.20" fill="#BDBDBD" opacity="0.85"><title>Control — Prediction: 0.633 ×10⁻³</title></rect>
<line x1="148.10" y1="172.64" x2="148.10" y2="166.83" stroke="#333" stroke-width="1"/>
<line x1="146.10" y1="172.64" x2="150.10" y2="172.64" stroke="#333" stroke-width="1"/>
<line x1="146.10" y1="166.83" x2="150.10" y2="166.83" stroke="#333" stroke-width="1"/>
<text x="138.5" y="194" text-anchor="end" font-size="10" fill="#2196F3" transform="rotate(-30,138.5,194)">Prediction</text>
<rect x="172.04" y="174.45" width="19.12" height="5.55" fill="#81C784" opacity="0.85"><title>Partner Identity — Agency: 0.344 ×10⁻³</title></rect>
<line x1="181.60" y1="175.97" x2="181.60" y2="171.75" stroke="#333" stroke-width="1"/>
<line x1="179.60" y1="175.97" x2="183.60" y2="175.97" stroke="#333" stroke-width="1"/>
<line x1="179.60" y1="171.75" x2="183.60" y2="171.75" stroke="#333" stroke-width="1"/>
<rect x="193.15" y="170.23" width="19.12" height="9.77" fill="#BDBDBD" opacity="0.85"><title>Control — Agency: 0.607 ×10⁻³</title></rect>
<line x1="202.71" y1="172.76" x2="202.71" y2="168.14" stroke="#333" stroke-width="1"/>
<line x1="200.71" y1="172.76" x2="204.71" y2="172.76" stroke="#333" stroke-width="1"/>
<line x1="200.71" y1="168.14" x2="204.71" y2="168.14" stroke="#333" stroke-width="1"/>
<text x="193.2" y="194" text-anchor="end" font-size="10" fill="#2196F3" transform="rotate(-30,193.2,194)">Agency</text>
<rect x="226.65" y="171.47" width="19.12" height="8.53" fill="#81C784" opacity="0.85"><title>Partner Identity — Cognitive: 0.529 ×10⁻³</title></rect>
<line x1="236.21" y1="173.85" x2="236.21" y2="169.35" stroke="#333" stroke-width="1"/>
<line x1="234.21" y1="173.85" x2="238.21" y2="173.85" stroke="#333" stroke-width="1"/>
<line x1="234.21" y1="169.35" x2="238.21" y2="169.35" stroke="#333" stroke-width="1"/>
<rect x="247.77" y="169.83" width="19.12" height="10.17" fill="#BDBDBD" opacity="0.85"><title>Control — Cognitive: 0.632 ×10⁻³</title></rect>
<line x1="257.33" y1="172.49" x2="257.33" y2="167.30" stroke="#333" stroke-width="1"/>
<line x1="255.33" y1="172.49" x2="259.33" y2="172.49" stroke="#333" stroke-width="1"/>
<line x1="255.33" y1="167.30" x2="259.33" y2="167.30" stroke="#333" stroke-width="1"/>
<text x="247.8" y="194" text-anchor="end" font-size="10" fill="#2196F3" transform="rotate(-30,247.8,194)">Cognitive</text>
<rect x="281.27" y="175.30" width="19.12" height="4.70" fill="#81C784" opacity="0.85"><title>Partner Identity — Roles: 0.292 ×10⁻³</title></rect>
<line x1="290.83" y1="176.47" x2="290.83" y2="172.93" stroke="#333" stroke-width="1"/>
<line x1="288.83" y1="176.47" x2="292.83" y2="176.47" stroke="#333" stroke-width="1"/>
<line x1="288.83" y1="172.93" x2="292.83" y2="172.93" stroke="#333" stroke-width="1"/>
<rect x="302.38" y="170.77" width="19.12" height="9.23" fill="#BDBDBD" opacity="0.85"><title>Control — Roles: 0.573 ×10⁻³</title></rect>
<line x1="311.94" y1="173.85" x2="311.94" y2="167.05" stroke="#333" stroke-width="1"/>
<line x1="309.94" y1="173.85" x2="313.94" y2="173.85" stroke="#333" stroke-width="1"/>
<line x1="309.94" y1="167.05" x2="313.94" y2="167.05" stroke="#333" stroke-width="1"/>
<text x="302.4" y="194" text-anchor="end" font-size="10" fill="#2196F3" transform="rotate(-30,302.4,194)">Roles</text>
<rect x="335.88" y="172.71" width="19.12" height="7.29" fill="#81C784" opacity="0.85"><title>Partner Identity — Intentions: 0.453 ×10⁻³</title></rect>
<line x1="345.44" y1="175.52" x2="345.44" y2="170.14" stroke="#333" stroke-width="1"/>
<line x1="343.44" y1="175.52" x2="347.44" y2="175.52" stroke="#333" stroke-width="1"/>
<line x1="343.44" y1="170.14" x2="347.44" y2="170.14" stroke="#333" stroke-width="1"/>
<rect x="357.00" y="167.29" width="19.12" height="12.71" fill="#BDBDBD" opacity="0.85"><title>Control — Intentions: 0.789 ×10⁻³</title></rect>
<line x1="366.56" y1="170.30" x2="366.56" y2="165.33" stroke="#333" stroke-width="1"/>
<line x1="364.56" y1="170.30" x2="368.56" y2="170.30" stroke="#333" stroke-width="1"/>
<line x1="364.56" y1="165.33" x2="368.56" y2="165.33" stroke="#333" stroke-width="1"/>
<text x="357.0" y="194" text-anchor="end" font-size="10" fill="#2196F3" transform="rotate(-30,357.0,194)">Intentions</text>
<rect x="390.50" y="175.86" width="19.12" height="4.14" fill="#81C784" opacity="0.85"><title>Partner Identity — Emotions: 0.257 ×10⁻³</title></rect>
<line x1="400.06" y1="176.96" x2="400.06" y2="174.09" stroke="#333" stroke-width="1"/>
<line x1="398.06" y1="176.96" x2="402.06" y2="176.96" stroke="#333" stroke-width="1"/>
<line x1="398.06" y1="174.09" x2="402.06" y2="174.09" stroke="#333" stroke-width="1"/>
<rect x="411.62" y="171.50" width="19.12" height="8.50" fill="#BDBDBD" opacity="0.85"><title>Control — Emotions: 0.528 ×10⁻³</title></rect>
<line x1="421.17" y1="173.55" x2="421.17" y2="169.69" stroke="#333" stroke-width="1"/>
<line x1="419.17" y1="173.55" x2="423.17" y2="173.55" stroke="#333" stroke-width="1"/>
<line x1="419.17" y1="169.69" x2="423.17" y2="169.69" stroke="#333" stroke-width="1"/>
<text x="411.6" y="194" text-anchor="end" font-size="10" fill="#2196F3" transform="rotate(-30,411.6,194)">Emotions</text>
<rect x="445.12" y="176.92" width="19.12" height="3.08" fill="#81C784" opacity="0.85"><title>Partner Identity — Embodiment: 0.191 ×10⁻³</title></rect>
<line x1="454.67" y1="177.43" x2="454.67" y2="176.16" stroke="#333" stroke-width="1"/>
<line x1="452.67" y1="177.43" x2="456.67" y2="177.43" stroke="#333" stroke-width="1"/>
<line x1="452.67" y1="176.16" x2="456.67" y2="176.16" stroke="#333" stroke-width="1"/>
<rect x="466.23" y="172.45" width="19.12" height="7.55" fill="#BDBDBD" opacity="0.85"><title>Control — Embodiment: 0.469 ×10⁻³</title></rect>
<line x1="475.79" y1="174.40" x2="475.79" y2="170.56" stroke="#333" stroke-width="1"/>
<line x1="473.79" y1="174.40" x2="477.79" y2="174.40" stroke="#333" stroke-width="1"/>
<line x1="473.79" y1="170.56" x2="477.79" y2="170.56" stroke="#333" stroke-width="1"/>
<text x="466.2" y="194" text-anchor="end" font-size="10" fill="#2196F3" transform="rotate(-30,466.2,194)">Embodiment</text>
<rect x="499.73" y="175.56" width="19.12" height="4.44" fill="#81C784" opacity="0.85"><title>Partner Identity — Phenomenology: 0.276 ×10⁻³</title></rect>
<line x1="509.29" y1="176.49" x2="509.29" y2="174.26" stroke="#333" stroke-width="1"/>
<line x1="507.29" y1="176.49" x2="511.29" y2="176.49" stroke="#333" stroke-width="1"/>
<line x1="507.29" y1="174.26" x2="511.29" y2="174.26" stroke="#333" stroke-width="1"/>
<rect x="520.85" y="169.81" width="19.12" height="10.19" fill="#BDBDBD" opacity="0.85"><title>Control — Phenomenology: 0.633 ×10⁻³</title></rect>
<line x1="530.40" y1="173.11" x2="530.40" y2="166.71" stroke="#333" stroke-width="1"/>
<line x1="528.40" y1="173.11" x2="532.40" y2="173.11" stroke="#333" stroke-width="1"/>
<line x1="528.40" y1="166.71" x2="532.40" y2="166.71" stroke="#333" stroke-width="1"/>
<text x="520.8" y="194" text-anchor="end" font-size="10" fill="#2196F3" transform="rotate(-30,520.8,194)">Phenomenology</text>
<rect x="554.35" y="175.01" width="19.12" height="4.99" fill="#81C784" opacity="0.85"><title>Partner Identity — Animacy: 0.310 ×10⁻³</title></rect>
<line x1="563.90" y1="176.12" x2="563.90" y2="173.81" stroke="#333" stroke-width="1"/>
<line x1="561.90" y1="176.12" x2="565.90" y2="176.12" stroke="#333" stroke-width="1"/>
<line x1="561.90" y1="173.81" x2="565.90" y2="173.81" stroke="#333" stroke-width="1"/>
<rect x="575.46" y="175.87" width="19.12" height="4.13" fill="#BDBDBD" opacity="0.85"><title>Control — Animacy: 0.256 ×10⁻³</title></rect>
<line x1="585.02" y1="176.72" x2="585.02" y2="174.62" stroke="#333" stroke-width="1"/>
<line x1="583.02" y1="176.72" x2="587.02" y2="176.72" stroke="#333" stroke-width="1"/>
<line x1="583.02" y1="174.62" x2="587.02" y2="174.62" stroke="#333" stroke-width="1"/>
<text x="575.5" y="194" text-anchor="end" font-size="10" fill="#2196F3" transform="rotate(-30,575.5,194)">Animacy</text>
<line x1="600.7692307692307" y1="0" x2="600.7692307692307" y2="180" stroke="#ccc" stroke-width="1" stroke-dasharray="4,3"/>
<rect x="608.96" y="176.64" width="19.12" height="3.36" fill="#81C784" opacity="0.5"><title>Partner Identity — Biological: 0.209 ×10⁻³</title></rect>
<line x1="618.52" y1="177.12" x2="618.52" y2="176.01" stroke="#333" stroke-width="1"/>
<line x1="616.52" y1="177.12" x2="620.52" y2="177.12" stroke="#333" stroke-width="1"/>
<line x1="616.52" y1="176.01" x2="620.52" y2="176.01" stroke="#333" stroke-width="1"/>
<rect x="630.08" y="173.47" width="19.12" height="6.53" fill="#BDBDBD" opacity="0.5"><title>Control — Biological: 0.405 ×10⁻³</title></rect>
<line x1="639.63" y1="174.67" x2="639.63" y2="172.22" stroke="#333" stroke-width="1"/>
<line x1="637.63" y1="174.67" x2="641.63" y2="174.67" stroke="#333" stroke-width="1"/>
<line x1="637.63" y1="172.22" x2="641.63" y2="172.22" stroke="#333" stroke-width="1"/>
<text x="630.1" y="194" text-anchor="end" font-size="10" fill="#9E9E9E" transform="rotate(-30,630.1,194)">Biological</text>
<rect x="663.58" y="169.48" width="19.12" height="10.52" fill="#81C784" opacity="0.5"><title>Partner Identity — Shapes: 0.653 ×10⁻³</title></rect>
<line x1="673.13" y1="173.89" x2="673.13" y2="166.99" stroke="#333" stroke-width="1"/>
<line x1="671.13" y1="173.89" x2="675.13" y2="173.89" stroke="#333" stroke-width="1"/>
<line x1="671.13" y1="166.99" x2="675.13" y2="166.99" stroke="#333" stroke-width="1"/>
<rect x="684.69" y="174.40" width="19.12" height="5.60" fill="#BDBDBD" opacity="0.5"><title>Control — Shapes: 0.348 ×10⁻³</title></rect>
<line x1="694.25" y1="176.55" x2="694.25" y2="172.83" stroke="#333" stroke-width="1"/>
<line x1="692.25" y1="176.55" x2="696.25" y2="176.55" stroke="#333" stroke-width="1"/>
<line x1="692.25" y1="172.83" x2="696.25" y2="172.83" stroke="#333" stroke-width="1"/>
<text x="684.7" y="194" text-anchor="end" font-size="10" fill="#9E9E9E" transform="rotate(-30,684.7,194)">Shapes</text>
<line x1="0" y1="180" x2="710" y2="180" stroke="#333"/>
<line x1="0" y1="0" x2="0" y2="180" stroke="#333"/>
</g>
<rect x="70" y="300" width="10" height="10" fill="#81C784"/>
<text x="84" y="308" font-size="9" fill="#333">Partner Identity</text>
<rect x="210" y="300" width="10" height="10" fill="#BDBDBD"/>
<text x="224" y="308" font-size="9" fill="#333">Control</text>
</svg>