<svg viewBox="0 0 800 340" xmlns="http://www.w3.org/2000/svg" style="width:100%;max-width:800px;height:auto;font-family:Arial,sans-serif;">
<rect width="800" height="340" fill="white"/>

<g transform="translate(70,30)">
<line x1="0" y1="190.0" x2="710" y2="190.0" stroke="#eee" stroke-width="1"/>
<text x="-8" y="194.0" text-anchor="end" font-size="10" fill="#666">0.00</text>
<line x1="0" y1="152.0" x2="710" y2="152.0" stroke="#eee" stroke-width="1"/>
<text x="-8" y="156.0" text-anchor="end" font-size="10" fill="#666">1.67</text>
<line x1="0" y1="114.0" x2="710" y2="114.0" stroke="#eee" stroke-width="1"/>
<text x="-8" y="118.0" text-anchor="end" font-size="10" fill="#666">3.34</text>
<line x1="0" y1="76.0" x2="710" y2="76.0" stroke="#eee" stroke-width="1"/>
<text x="-8" y="80.0" text-anchor="end" font-size="10" fill="#666">5.01</text>
<line x1="0" y1="38.0" x2="710" y2="38.0" stroke="#eee" stroke-width="1"/>
<text x="-8" y="42.0" text-anchor="end" font-size="10" fill="#666">6.67</text>
<line x1="0" y1="0.0" x2="710" y2="0.0" stroke="#eee" stroke-width="1"/>
<text x="-8" y="4.0" text-anchor="end" font-size="10" fill="#666">8.34</text>
<text x="-50" y="95.0" text-anchor="middle" font-size="11" fill="#333" transform="rotate(-90,-50,95.0)">Mean R² (×10⁻³)</text>
<line x1="88.75" y1="0" x2="88.75" y2="190" stroke="#ddd" stroke-width="1" stroke-dasharray="4,3"/>
<rect x="6.66" y="185.63" width="15.53" height="4.37" fill="#81C784" opacity="0.85"><title>Partner Identity: 0.192 ×10⁻³</title></rect>
<line x1="14.42" y1="186.44" x2="14.42" y2="184.20" stroke="#333" stroke-width="1"/>
<line x1="12.42" y1="186.44" x2="16.42" y2="186.44" stroke="#333" stroke-width="1"/>
<line x1="12.42" y1="184.20" x2="16.42" y2="184.20" stroke="#333" stroke-width="1"/>
<rect x="24.19" y="184.25" width="15.53" height="5.75" fill="#BDBDBD" opacity="0.85"><title>Control: 0.253 ×10⁻³</title></rect>
<line x1="31.95" y1="184.85" x2="31.95" y2="183.71" stroke="#333" stroke-width="1"/>
<line x1="29.95" y1="184.85" x2="33.95" y2="184.85" stroke="#333" stroke-width="1"/>
<line x1="29.95" y1="183.71" x2="33.95" y2="183.71" stroke="#333" stroke-width="1"/>
<text x="24.2" y="204" text-anchor="end" font-size="9" fill="#9E9E9E" transform="rotate(-45,24.2,204)">Biological</text>
<rect x="51.03" y="175.47" width="15.53" height="14.53" fill="#81C784" opacity="0.85"><title>Partner Identity: 0.638 ×10⁻³</title></rect>
<line x1="58.80" y1="182.71" x2="58.80" y2="170.37" stroke="#333" stroke-width="1"/>
<line x1="56.80" y1="182.71" x2="60.80" y2="182.71" stroke="#333" stroke-width="1"/>
<line x1="56.80" y1="170.37" x2="60.80" y2="170.37" stroke="#333" stroke-width="1"/>
<rect x="68.56" y="184.62" width="15.53" height="5.38" fill="#BDBDBD" opacity="0.85"><title>Control: 0.236 ×10⁻³</title></rect>
<line x1="76.33" y1="186.06" x2="76.33" y2="183.54" stroke="#333" stroke-width="1"/>
<line x1="74.33" y1="186.06" x2="78.33" y2="186.06" stroke="#333" stroke-width="1"/>
<line x1="74.33" y1="183.54" x2="78.33" y2="183.54" stroke="#333" stroke-width="1"/>
<text x="68.6" y="204" text-anchor="end" font-size="9" fill="#9E9E9E" transform="rotate(-45,68.6,204)">Shapes</text>
<rect x="95.41" y="174.58" width="15.53" height="15.42" fill="#81C784" opacity="0.85"><title>Partner Identity: 0.677 ×10⁻³</title></rect>
<line x1="103.17" y1="180.23" x2="103.17" y2="169.09" stroke="#333" stroke-width="1"/>
<line x1="101.17" y1="180.23" x2="105.17" y2="180.23" stroke="#333" stroke-width="1"/>
<line x1="101.17" y1="169.09" x2="105.17" y2="169.09" stroke="#333" stroke-width="1"/>
<rect x="112.94" y="184.58" width="15.53" height="5.42" fill="#BDBDBD" opacity="0.85"><title>Control: 0.238 ×10⁻³</title></rect>
<line x1="120.70" y1="185.31" x2="120.70" y2="183.99" stroke="#333" stroke-width="1"/>
<line x1="118.70" y1="185.31" x2="122.70" y2="185.31" stroke="#333" stroke-width="1"/>
<line x1="118.70" y1="183.99" x2="122.70" y2="183.99" stroke="#333" stroke-width="1"/>
<text x="112.9" y="204" text-anchor="end" font-size="9" fill="#2196F3" transform="rotate(-45,112.9,204)">Attention</text>
<rect x="139.78" y="178.94" width="15.53" height="11.06" fill="#81C784" opacity="0.85"><title>Partner Identity: 0.486 ×10⁻³</title></rect>
<line x1="147.55" y1="183.28" x2="147.55" y2="168.96" stroke="#333" stroke-width="1"/>
<line x1="145.55" y1="183.28" x2="149.55" y2="183.28" stroke="#333" stroke-width="1"/>
<line x1="145.55" y1="168.96" x2="149.55" y2="168.96" stroke="#333" stroke-width="1"/>
<rect x="157.31" y="185.19" width="15.53" height="4.81" fill="#BDBDBD" opacity="0.85"><title>Control: 0.211 ×10⁻³</title></rect>
<line x1="165.08" y1="185.85" x2="165.08" y2="184.25" stroke="#333" stroke-width="1"/>
<line x1="163.08" y1="185.85" x2="167.08" y2="185.85" stroke="#333" stroke-width="1"/>
<line x1="163.08" y1="184.25" x2="167.08" y2="184.25" stroke="#333" stroke-width="1"/>
<text x="157.3" y="204" text-anchor="end" font-size="9" fill="#2196F3" transform="rotate(-45,157.3,204)">Social</text>
<rect x="184.16" y="172.14" width="15.53" height="17.86" fill="#81C784" opacity="0.85"><title>Partner Identity: 0.784 ×10⁻³</title></rect>
<line x1="191.92" y1="178.30" x2="191.92" y2="168.24" stroke="#333" stroke-width="1"/>
<line x1="189.92" y1="178.30" x2="193.92" y2="178.30" stroke="#333" stroke-width="1"/>
<line x1="189.92" y1="168.24" x2="193.92" y2="168.24" stroke="#333" stroke-width="1"/>
<rect x="201.69" y="184.93" width="15.53" height="5.07" fill="#BDBDBD" opacity="0.85"><title>Control: 0.222 ×10⁻³</title></rect>
<line x1="209.45" y1="185.63" x2="209.45" y2="184.34" stroke="#333" stroke-width="1"/>
<line x1="207.45" y1="185.63" x2="211.45" y2="185.63" stroke="#333" stroke-width="1"/>
<line x1="207.45" y1="184.34" x2="211.45" y2="184.34" stroke="#333" stroke-width="1"/>
<text x="201.7" y="204" text-anchor="end" font-size="9" fill="#2196F3" transform="rotate(-45,201.7,204)">Cognitive</text>
<rect x="228.53" y="181.15" width="15.53" height="8.85" fill="#81C784" opacity="0.85"><title>Partner Identity: 0.388 ×10⁻³</title></rect>
<line x1="236.30" y1="183.90" x2="236.30" y2="173.49" stroke="#333" stroke-width="1"/>
<line x1="234.30" y1="183.90" x2="238.30" y2="183.90" stroke="#333" stroke-width="1"/>
<line x1="234.30" y1="173.49" x2="238.30" y2="173.49" stroke="#333" stroke-width="1"/>
<rect x="246.06" y="184.84" width="15.53" height="5.16" fill="#BDBDBD" opacity="0.85"><title>Control: 0.227 ×10⁻³</title></rect>
<line x1="253.83" y1="185.50" x2="253.83" y2="184.10" stroke="#333" stroke-width="1"/>
<line x1="251.83" y1="185.50" x2="255.83" y2="185.50" stroke="#333" stroke-width="1"/>
<line x1="251.83" y1="184.10" x2="255.83" y2="184.10" stroke="#333" stroke-width="1"/>
<text x="246.1" y="204" text-anchor="end" font-size="9" fill="#2196F3" transform="rotate(-45,246.1,204)">Prediction</text>
<rect x="272.91" y="178.70" width="15.53" height="11.30" fill="#81C784" opacity="0.85"><title>Partner Identity: 0.496 ×10⁻³</title></rect>
<line x1="280.67" y1="184.31" x2="280.67" y2="172.33" stroke="#333" stroke-width="1"/>
<line x1="278.67" y1="184.31" x2="282.67" y2="184.31" stroke="#333" stroke-width="1"/>
<line x1="278.67" y1="172.33" x2="282.67" y2="172.33" stroke="#333" stroke-width="1"/>
<rect x="290.44" y="185.59" width="15.53" height="4.41" fill="#BDBDBD" opacity="0.85"><title>Control: 0.194 ×10⁻³</title></rect>
<line x1="298.20" y1="186.08" x2="298.20" y2="185.01" stroke="#333" stroke-width="1"/>
<line x1="296.20" y1="186.08" x2="300.20" y2="186.08" stroke="#333" stroke-width="1"/>
<line x1="296.20" y1="185.01" x2="300.20" y2="185.01" stroke="#333" stroke-width="1"/>
<text x="290.4" y="204" text-anchor="end" font-size="9" fill="#2196F3" transform="rotate(-45,290.4,204)">Intentions</text>
<rect x="317.28" y="183.34" width="15.53" height="6.66" fill="#81C784" opacity="0.85"><title>Partner Identity: 0.292 ×10⁻³</title></rect>
<line x1="325.05" y1="185.62" x2="325.05" y2="176.73" stroke="#333" stroke-width="1"/>
<line x1="323.05" y1="185.62" x2="327.05" y2="185.62" stroke="#333" stroke-width="1"/>
<line x1="323.05" y1="176.73" x2="327.05" y2="176.73" stroke="#333" stroke-width="1"/>
<rect x="334.81" y="185.97" width="15.53" height="4.03" fill="#BDBDBD" opacity="0.85"><title>Control: 0.177 ×10⁻³</title></rect>
<line x1="342.58" y1="186.59" x2="342.58" y2="184.98" stroke="#333" stroke-width="1"/>
<line x1="340.58" y1="186.59" x2="344.58" y2="186.59" stroke="#333" stroke-width="1"/>
<line x1="340.58" y1="184.98" x2="344.58" y2="184.98" stroke="#333" stroke-width="1"/>
<text x="334.8" y="204" text-anchor="end" font-size="9" fill="#2196F3" transform="rotate(-45,334.8,204)">Agency</text>
<rect x="361.66" y="184.92" width="15.53" height="5.08" fill="#81C784" opacity="0.85"><title>Partner Identity: 0.223 ×10⁻³</title></rect>
<line x1="369.42" y1="185.82" x2="369.42" y2="182.91" stroke="#333" stroke-width="1"/>
<line x1="367.42" y1="185.82" x2="371.42" y2="185.82" stroke="#333" stroke-width="1"/>
<line x1="367.42" y1="182.91" x2="371.42" y2="182.91" stroke="#333" stroke-width="1"/>
<rect x="379.19" y="185.58" width="15.53" height="4.42" fill="#BDBDBD" opacity="0.85"><title>Control: 0.194 ×10⁻³</title></rect>
<line x1="386.95" y1="186.16" x2="386.95" y2="185.02" stroke="#333" stroke-width="1"/>
<line x1="384.95" y1="186.16" x2="388.95" y2="186.16" stroke="#333" stroke-width="1"/>
<line x1="384.95" y1="185.02" x2="388.95" y2="185.02" stroke="#333" stroke-width="1"/>
<text x="379.2" y="204" text-anchor="end" font-size="9" fill="#2196F3" transform="rotate(-45,379.2,204)">Roles</text>
<rect x="406.03" y="184.56" width="15.53" height="5.44" fill="#81C784" opacity="0.85"><title>Partner Identity: 0.239 ×10⁻³</title></rect>
<line x1="413.80" y1="185.77" x2="413.80" y2="182.41" stroke="#333" stroke-width="1"/>
<line x1="411.80" y1="185.77" x2="415.80" y2="185.77" stroke="#333" stroke-width="1"/>
<line x1="411.80" y1="182.41" x2="415.80" y2="182.41" stroke="#333" stroke-width="1"/>
<rect x="423.56" y="186.56" width="15.53" height="3.44" fill="#BDBDBD" opacity="0.85"><title>Control: 0.151 ×10⁻³</title></rect>
<line x1="431.33" y1="186.90" x2="431.33" y2="186.05" stroke="#333" stroke-width="1"/>
<line x1="429.33" y1="186.90" x2="433.33" y2="186.90" stroke="#333" stroke-width="1"/>
<line x1="429.33" y1="186.05" x2="433.33" y2="186.05" stroke="#333" stroke-width="1"/>
<text x="423.6" y="204" text-anchor="end" font-size="9" fill="#2196F3" transform="rotate(-45,423.6,204)">Emotions</text>
<rect x="450.41" y="185.53" width="15.53" height="4.47" fill="#81C784" opacity="0.85"><title>Partner Identity: 0.196 ×10⁻³</title></rect>
<line x1="458.17" y1="186.54" x2="458.17" y2="183.67" stroke="#333" stroke-width="1"/>
<line x1="456.17" y1="186.54" x2="460.17" y2="186.54" stroke="#333" stroke-width="1"/>
<line x1="456.17" y1="183.67" x2="460.17" y2="183.67" stroke="#333" stroke-width="1"/>
<rect x="467.94" y="185.52" width="15.53" height="4.48" fill="#BDBDBD" opacity="0.85"><title>Control: 0.197 ×10⁻³</title></rect>
<line x1="475.70" y1="186.15" x2="475.70" y2="184.80" stroke="#333" stroke-width="1"/>
<line x1="473.70" y1="186.15" x2="477.70" y2="186.15" stroke="#333" stroke-width="1"/>
<line x1="473.70" y1="184.80" x2="477.70" y2="184.80" stroke="#333" stroke-width="1"/>
<text x="467.9" y="204" text-anchor="end" font-size="9" fill="#2196F3" transform="rotate(-45,467.9,204)">Phenomenology</text>
<rect x="494.78" y="186.03" width="15.53" height="3.97" fill="#81C784" opacity="0.85"><title>Partner Identity: 0.174 ×10⁻³</title></rect>
<line x1="502.55" y1="187.25" x2="502.55" y2="183.55" stroke="#333" stroke-width="1"/>
<line x1="500.55" y1="187.25" x2="504.55" y2="187.25" stroke="#333" stroke-width="1"/>
<line x1="500.55" y1="183.55" x2="504.55" y2="183.55" stroke="#333" stroke-width="1"/>
<rect x="512.31" y="184.58" width="15.53" height="5.42" fill="#BDBDBD" opacity="0.85"><title>Control: 0.238 ×10⁻³</title></rect>
<line x1="520.08" y1="185.37" x2="520.08" y2="183.82" stroke="#333" stroke-width="1"/>
<line x1="518.08" y1="185.37" x2="522.08" y2="185.37" stroke="#333" stroke-width="1"/>
<line x1="518.08" y1="183.82" x2="522.08" y2="183.82" stroke="#333" stroke-width="1"/>
<text x="512.3" y="204" text-anchor="end" font-size="9" fill="#2196F3" transform="rotate(-45,512.3,204)">Embodiment</text>
<rect x="539.16" y="177.27" width="15.53" height="12.73" fill="#81C784" opacity="0.85"><title>Partner Identity: 0.559 ×10⁻³</title></rect>
<line x1="546.92" y1="180.10" x2="546.92" y2="174.09" stroke="#333" stroke-width="1"/>
<line x1="544.92" y1="180.10" x2="548.92" y2="180.10" stroke="#333" stroke-width="1"/>
<line x1="544.92" y1="174.09" x2="548.92" y2="174.09" stroke="#333" stroke-width="1"/>
<rect x="556.69" y="185.21" width="15.53" height="4.79" fill="#BDBDBD" opacity="0.85"><title>Control: 0.210 ×10⁻³</title></rect>
<line x1="564.45" y1="185.67" x2="564.45" y2="184.63" stroke="#333" stroke-width="1"/>
<line x1="562.45" y1="185.67" x2="566.45" y2="185.67" stroke="#333" stroke-width="1"/>
<line x1="562.45" y1="184.63" x2="566.45" y2="184.63" stroke="#333" stroke-width="1"/>
<text x="556.7" y="204" text-anchor="end" font-size="9" fill="#FF9800" transform="rotate(-45,556.7,204)">Expertise</text>
<rect x="583.53" y="181.52" width="15.53" height="8.48" fill="#81C784" opacity="0.85"><title>Partner Identity: 0.372 ×10⁻³</title></rect>
<line x1="591.30" y1="185.65" x2="591.30" y2="178.11" stroke="#333" stroke-width="1"/>
<line x1="589.30" y1="185.65" x2="593.30" y2="185.65" stroke="#333" stroke-width="1"/>
<line x1="589.30" y1="178.11" x2="593.30" y2="178.11" stroke="#333" stroke-width="1"/>
<rect x="601.06" y="183.85" width="15.53" height="6.15" fill="#BDBDBD" opacity="0.85"><title>Control: 0.270 ×10⁻³</title></rect>
<line x1="608.83" y1="185.54" x2="608.83" y2="182.57" stroke="#333" stroke-width="1"/>
<line x1="606.83" y1="185.54" x2="610.83" y2="185.54" stroke="#333" stroke-width="1"/>
<line x1="606.83" y1="182.57" x2="610.83" y2="182.57" stroke="#333" stroke-width="1"/>
<text x="601.1" y="204" text-anchor="end" font-size="9" fill="#FF9800" transform="rotate(-45,601.1,204)">Formality</text>
<rect x="627.91" y="174.65" width="15.53" height="15.35" fill="#81C784" opacity="0.85"><title>Partner Identity: 0.674 ×10⁻³</title></rect>
<line x1="635.67" y1="184.63" x2="635.67" y2="170.69" stroke="#333" stroke-width="1"/>
<line x1="633.67" y1="184.63" x2="637.67" y2="184.63" stroke="#333" stroke-width="1"/>
<line x1="633.67" y1="170.69" x2="637.67" y2="170.69" stroke="#333" stroke-width="1"/>
<rect x="645.44" y="183.85" width="15.53" height="6.15" fill="#BDBDBD" opacity="0.85"><title>Control: 0.270 ×10⁻³</title></rect>
<line x1="653.20" y1="185.79" x2="653.20" y2="183.25" stroke="#333" stroke-width="1"/>
<line x1="651.20" y1="185.79" x2="655.20" y2="185.79" stroke="#333" stroke-width="1"/>
<line x1="651.20" y1="183.25" x2="655.20" y2="183.25" stroke="#333" stroke-width="1"/>
<text x="645.4" y="204" text-anchor="end" font-size="9" fill="#FF9800" transform="rotate(-45,645.4,204)">Helpfulness</text>
<rect x="672.28" y="169.61" width="15.53" height="20.39" fill="#81C784" opacity="0.85"><title>Partner Identity: 0.895 ×10⁻³</title></rect>
<line x1="680.05" y1="173.88" x2="680.05" y2="165.05" stroke="#333" stroke-width="1"/>
<line x1="678.05" y1="173.88" x2="682.05" y2="173.88" stroke="#333" stroke-width="1"/>
<line x1="678.05" y1="165.05" x2="682.05" y2="165.05" stroke="#333" stroke-width="1"/>
<rect x="689.81" y="185.69" width="15.53" height="4.31" fill="#BDBDBD" opacity="0.85"><title>Control: 0.189 ×10⁻³</title></rect>
<line x1="697.58" y1="186.15" x2="697.58" y2="185.16" stroke="#333" stroke-width="1"/>
<line x1="695.58" y1="186.15" x2="699.58" y2="186.15" stroke="#333" stroke-width="1"/>
<line x1="695.58" y1="185.16" x2="699.58" y2="185.16" stroke="#333" stroke-width="1"/>
<text x="689.8" y="204" text-anchor="end" font-size="9" fill="#00BCD4" transform="rotate(-45,689.8,204)">SysPrompt</text>
<line x1="0" y1="190" x2="710" y2="190" stroke="#333"/>
<line x1="0" y1="0" x2="0" y2="190" stroke="#333"/>
</g>
<rect x="70" y="320" width="10" height="10" fill="#81C784"/>
<text x="84" y="328" font-size="9" fill="#333">Partner Identity</text>
<rect x="210" y="320" width="10" height="10" fill="#BDBDBD"/>
<text x="224" y="328" font-size="9" fill="#333">Control</text>
</svg>