<svg viewBox="0 0 800 320" xmlns="http://www.w3.org/2000/svg" style="width:100%;max-width:800px;height:auto;font-family:Arial,sans-serif;">
<rect width="800" height="320" fill="white"/>

<g transform="translate(70,30)">
<line x1="0" y1="180.0" x2="710" y2="180.0" stroke="#eee" stroke-width="1"/>
<text x="-8" y="184.0" text-anchor="end" font-size="10" fill="#666">0.00</text>
<line x1="0" y1="144.0" x2="710" y2="144.0" stroke="#eee" stroke-width="1"/>
<text x="-8" y="148.0" text-anchor="end" font-size="10" fill="#666">1.67</text>
<line x1="0" y1="108.0" x2="710" y2="108.0" stroke="#eee" stroke-width="1"/>
<text x="-8" y="112.0" text-anchor="end" font-size="10" fill="#666">3.34</text>
<line x1="0" y1="72.0" x2="710" y2="72.0" stroke="#eee" stroke-width="1"/>
<text x="-8" y="76.0" text-anchor="end" font-size="10" fill="#666">5.01</text>
<line x1="0" y1="36.0" x2="710" y2="36.0" stroke="#eee" stroke-width="1"/>
<text x="-8" y="40.0" text-anchor="end" font-size="10" fill="#666">6.67</text>
<line x1="0" y1="0.0" x2="710" y2="0.0" stroke="#eee" stroke-width="1"/>
<text x="-8" y="4.0" text-anchor="end" font-size="10" fill="#666">8.34</text>
<text x="-50" y="90.0" text-anchor="middle" font-size="11" fill="#333" transform="rotate(-90,-50,90.0)">Mean R² (×10⁻³)</text>
<rect x="21.30" y="167.94" width="49.70" height="12.06" fill="#81C784" opacity="0.85"><title>Partner Identity — Expertise: 0.559 ×10⁻³</title></rect>
<line x1="46.15" y1="170.62" x2="46.15" y2="164.93" stroke="#333" stroke-width="1"/>
<line x1="44.15" y1="170.62" x2="48.15" y2="170.62" stroke="#333" stroke-width="1"/>
<line x1="44.15" y1="164.93" x2="48.15" y2="164.93" stroke="#333" stroke-width="1"/>
<rect x="73.00" y="175.46" width="49.70" height="4.54" fill="#BDBDBD" opacity="0.85"><title>Control — Expertise: 0.210 ×10⁻³</title></rect>
<line x1="97.85" y1="175.90" x2="97.85" y2="174.91" stroke="#333" stroke-width="1"/>
<line x1="95.85" y1="175.90" x2="99.85" y2="175.90" stroke="#333" stroke-width="1"/>
<line x1="95.85" y1="174.91" x2="99.85" y2="174.91" stroke="#333" stroke-width="1"/>
<text x="73.0" y="194" text-anchor="end" font-size="10" fill="#FF9800" transform="rotate(-30,73.0,194)">Expertise</text>
<rect x="163.30" y="171.97" width="49.70" height="8.03" fill="#81C784" opacity="0.85"><title>Partner Identity — Formality: 0.372 ×10⁻³</title></rect>
<line x1="188.15" y1="175.88" x2="188.15" y2="168.74" stroke="#333" stroke-width="1"/>
<line x1="186.15" y1="175.88" x2="190.15" y2="175.88" stroke="#333" stroke-width="1"/>
<line x1="186.15" y1="168.74" x2="190.15" y2="168.74" stroke="#333" stroke-width="1"/>
<rect x="215.00" y="174.18" width="49.70" height="5.82" fill="#BDBDBD" opacity="0.85"><title>Control — Formality: 0.270 ×10⁻³</title></rect>
<line x1="239.85" y1="175.77" x2="239.85" y2="172.96" stroke="#333" stroke-width="1"/>
<line x1="237.85" y1="175.77" x2="241.85" y2="175.77" stroke="#333" stroke-width="1"/>
<line x1="237.85" y1="172.96" x2="241.85" y2="172.96" stroke="#333" stroke-width="1"/>
<text x="215.0" y="194" text-anchor="end" font-size="10" fill="#FF9800" transform="rotate(-30,215.0,194)">Formality</text>
<rect x="305.30" y="165.46" width="49.70" height="14.54" fill="#81C784" opacity="0.85"><title>Partner Identity — Helpfulness: 0.674 ×10⁻³</title></rect>
<line x1="330.15" y1="174.92" x2="330.15" y2="161.70" stroke="#333" stroke-width="1"/>
<line x1="328.15" y1="174.92" x2="332.15" y2="174.92" stroke="#333" stroke-width="1"/>
<line x1="328.15" y1="161.70" x2="332.15" y2="161.70" stroke="#333" stroke-width="1"/>
<rect x="357.00" y="174.17" width="49.70" height="5.83" fill="#BDBDBD" opacity="0.85"><title>Control — Helpfulness: 0.270 ×10⁻³</title></rect>
<line x1="381.85" y1="176.01" x2="381.85" y2="173.60" stroke="#333" stroke-width="1"/>
<line x1="379.85" y1="176.01" x2="383.85" y2="176.01" stroke="#333" stroke-width="1"/>
<line x1="379.85" y1="173.60" x2="383.85" y2="173.60" stroke="#333" stroke-width="1"/>
<text x="357.0" y="194" text-anchor="end" font-size="10" fill="#FF9800" transform="rotate(-30,357.0,194)">Helpfulness</text>
<line x1="426.0" y1="0" x2="426.0" y2="180" stroke="#ccc" stroke-width="1" stroke-dasharray="4,3"/>
<rect x="447.30" y="175.86" width="49.70" height="4.14" fill="#81C784" opacity="0.5"><title>Partner Identity — Biological: 0.192 ×10⁻³</title></rect>
<line x1="472.15" y1="176.63" x2="472.15" y2="174.50" stroke="#333" stroke-width="1"/>
<line x1="470.15" y1="176.63" x2="474.15" y2="176.63" stroke="#333" stroke-width="1"/>
<line x1="470.15" y1="174.50" x2="474.15" y2="174.50" stroke="#333" stroke-width="1"/>
<rect x="499.00" y="174.55" width="49.70" height="5.45" fill="#BDBDBD" opacity="0.5"><title>Control — Biological: 0.253 ×10⁻³</title></rect>
<line x1="523.85" y1="175.12" x2="523.85" y2="174.04" stroke="#333" stroke-width="1"/>
<line x1="521.85" y1="175.12" x2="525.85" y2="175.12" stroke="#333" stroke-width="1"/>
<line x1="521.85" y1="174.04" x2="525.85" y2="174.04" stroke="#333" stroke-width="1"/>
<text x="499.0" y="194" text-anchor="end" font-size="10" fill="#9E9E9E" transform="rotate(-30,499.0,194)">Biological</text>
<rect x="589.30" y="166.23" width="49.70" height="13.77" fill="#81C784" opacity="0.5"><title>Partner Identity — Shapes: 0.638 ×10⁻³</title></rect>
<line x1="614.15" y1="173.09" x2="614.15" y2="161.40" stroke="#333" stroke-width="1"/>
<line x1="612.15" y1="173.09" x2="616.15" y2="173.09" stroke="#333" stroke-width="1"/>
<line x1="612.15" y1="161.40" x2="616.15" y2="161.40" stroke="#333" stroke-width="1"/>
<rect x="641.00" y="174.90" width="49.70" height="5.10" fill="#BDBDBD" opacity="0.5"><title>Control — Shapes: 0.236 ×10⁻³</title></rect>
<line x1="665.85" y1="176.27" x2="665.85" y2="173.88" stroke="#333" stroke-width="1"/>
<line x1="663.85" y1="176.27" x2="667.85" y2="176.27" stroke="#333" stroke-width="1"/>
<line x1="663.85" y1="173.88" x2="667.85" y2="173.88" stroke="#333" stroke-width="1"/>
<text x="641.0" y="194" text-anchor="end" font-size="10" fill="#9E9E9E" transform="rotate(-30,641.0,194)">Shapes</text>
<line x1="0" y1="180" x2="710" y2="180" stroke="#333"/>
<line x1="0" y1="0" x2="0" y2="180" stroke="#333"/>
</g>
<rect x="70" y="300" width="10" height="10" fill="#81C784"/>
<text x="84" y="308" font-size="9" fill="#333">Partner Identity</text>
<rect x="210" y="300" width="10" height="10" fill="#BDBDBD"/>
<text x="224" y="308" font-size="9" fill="#333">Control</text>
</svg>