<svg viewBox="0 0 800 320" xmlns="http://www.w3.org/2000/svg" style="width:100%;max-width:800px;height:auto;font-family:Arial,sans-serif;">
<rect width="800" height="320" fill="white"/>

<g transform="translate(70,30)">
<line x1="0" y1="180.0" x2="710" y2="180.0" stroke="#eee" stroke-width="1"/>
<text x="-8" y="184.0" text-anchor="end" font-size="10" fill="#666">0.00</text>
<line x1="0" y1="144.0" x2="710" y2="144.0" stroke="#eee" stroke-width="1"/>
<text x="-8" y="148.0" text-anchor="end" font-size="10" fill="#666">1.67</text>
<line x1="0" y1="108.0" x2="710" y2="108.0" stroke="#eee" stroke-width="1"/>
<text x="-8" y="112.0" text-anchor="end" font-size="10" fill="#666">3.34</text>
<line x1="0" y1="72.0" x2="710" y2="72.0" stroke="#eee" stroke-width="1"/>
<text x="-8" y="76.0" text-anchor="end" font-size="10" fill="#666">5.01</text>
<line x1="0" y1="36.0" x2="710" y2="36.0" stroke="#eee" stroke-width="1"/>
<text x="-8" y="40.0" text-anchor="end" font-size="10" fill="#666">6.67</text>
<line x1="0" y1="0.0" x2="710" y2="0.0" stroke="#eee" stroke-width="1"/>
<text x="-8" y="4.0" text-anchor="end" font-size="10" fill="#666">8.34</text>
<text x="-50" y="90.0" text-anchor="middle" font-size="11" fill="#333" transform="rotate(-90,-50,90.0)">Mean R² (×10⁻³)</text>
<rect x="8.88" y="165.39" width="20.71" height="14.61" fill="#81C784" opacity="0.85"><title>Partner Identity — Attention: 0.677 ×10⁻³</title></rect>
<line x1="19.23" y1="170.74" x2="19.23" y2="160.19" stroke="#333" stroke-width="1"/>
<line x1="17.23" y1="170.74" x2="21.23" y2="170.74" stroke="#333" stroke-width="1"/>
<line x1="17.23" y1="160.19" x2="21.23" y2="160.19" stroke="#333" stroke-width="1"/>
<rect x="31.58" y="174.87" width="20.71" height="5.13" fill="#BDBDBD" opacity="0.85"><title>Control — Attention: 0.238 ×10⁻³</title></rect>
<line x1="41.94" y1="175.56" x2="41.94" y2="174.31" stroke="#333" stroke-width="1"/>
<line x1="39.94" y1="175.56" x2="43.94" y2="175.56" stroke="#333" stroke-width="1"/>
<line x1="39.94" y1="174.31" x2="43.94" y2="174.31" stroke="#333" stroke-width="1"/>
<text x="31.6" y="194" text-anchor="end" font-size="10" fill="#2196F3" transform="rotate(-30,31.6,194)">Attention</text>
<rect x="68.04" y="169.52" width="20.71" height="10.48" fill="#81C784" opacity="0.85"><title>Partner Identity — Social: 0.486 ×10⁻³</title></rect>
<line x1="78.40" y1="173.64" x2="78.40" y2="160.06" stroke="#333" stroke-width="1"/>
<line x1="76.40" y1="173.64" x2="80.40" y2="173.64" stroke="#333" stroke-width="1"/>
<line x1="76.40" y1="160.06" x2="80.40" y2="160.06" stroke="#333" stroke-width="1"/>
<rect x="90.75" y="175.45" width="20.71" height="4.55" fill="#BDBDBD" opacity="0.85"><title>Control — Social: 0.211 ×10⁻³</title></rect>
<line x1="101.10" y1="176.07" x2="101.10" y2="174.55" stroke="#333" stroke-width="1"/>
<line x1="99.10" y1="176.07" x2="103.10" y2="176.07" stroke="#333" stroke-width="1"/>
<line x1="99.10" y1="174.55" x2="103.10" y2="174.55" stroke="#333" stroke-width="1"/>
<text x="90.7" y="194" text-anchor="end" font-size="10" fill="#2196F3" transform="rotate(-30,90.7,194)">Social</text>
<rect x="127.21" y="163.08" width="20.71" height="16.92" fill="#81C784" opacity="0.85"><title>Partner Identity — Cognitive: 0.784 ×10⁻³</title></rect>
<line x1="137.56" y1="168.91" x2="137.56" y2="159.39" stroke="#333" stroke-width="1"/>
<line x1="135.56" y1="168.91" x2="139.56" y2="168.91" stroke="#333" stroke-width="1"/>
<line x1="135.56" y1="159.39" x2="139.56" y2="159.39" stroke="#333" stroke-width="1"/>
<rect x="149.92" y="175.20" width="20.71" height="4.80" fill="#BDBDBD" opacity="0.85"><title>Control — Cognitive: 0.222 ×10⁻³</title></rect>
<line x1="160.27" y1="175.86" x2="160.27" y2="174.64" stroke="#333" stroke-width="1"/>
<line x1="158.27" y1="175.86" x2="162.27" y2="175.86" stroke="#333" stroke-width="1"/>
<line x1="158.27" y1="174.64" x2="162.27" y2="174.64" stroke="#333" stroke-width="1"/>
<text x="149.9" y="194" text-anchor="end" font-size="10" fill="#2196F3" transform="rotate(-30,149.9,194)">Cognitive</text>
<rect x="186.38" y="171.62" width="20.71" height="8.38" fill="#81C784" opacity="0.85"><title>Partner Identity — Prediction: 0.388 ×10⁻³</title></rect>
<line x1="196.73" y1="174.22" x2="196.73" y2="164.36" stroke="#333" stroke-width="1"/>
<line x1="194.73" y1="174.22" x2="198.73" y2="174.22" stroke="#333" stroke-width="1"/>
<line x1="194.73" y1="164.36" x2="198.73" y2="164.36" stroke="#333" stroke-width="1"/>
<rect x="209.08" y="175.11" width="20.71" height="4.89" fill="#BDBDBD" opacity="0.85"><title>Control — Prediction: 0.227 ×10⁻³</title></rect>
<line x1="219.44" y1="175.74" x2="219.44" y2="174.41" stroke="#333" stroke-width="1"/>
<line x1="217.44" y1="175.74" x2="221.44" y2="175.74" stroke="#333" stroke-width="1"/>
<line x1="217.44" y1="174.41" x2="221.44" y2="174.41" stroke="#333" stroke-width="1"/>
<text x="209.1" y="194" text-anchor="end" font-size="10" fill="#2196F3" transform="rotate(-30,209.1,194)">Prediction</text>
<rect x="245.54" y="169.29" width="20.71" height="10.71" fill="#81C784" opacity="0.85"><title>Partner Identity — Intentions: 0.496 ×10⁻³</title></rect>
<line x1="255.90" y1="174.61" x2="255.90" y2="163.26" stroke="#333" stroke-width="1"/>
<line x1="253.90" y1="174.61" x2="257.90" y2="174.61" stroke="#333" stroke-width="1"/>
<line x1="253.90" y1="163.26" x2="257.90" y2="163.26" stroke="#333" stroke-width="1"/>
<rect x="268.25" y="175.82" width="20.71" height="4.18" fill="#BDBDBD" opacity="0.85"><title>Control — Intentions: 0.194 ×10⁻³</title></rect>
<line x1="278.60" y1="176.28" x2="278.60" y2="175.27" stroke="#333" stroke-width="1"/>
<line x1="276.60" y1="176.28" x2="280.60" y2="176.28" stroke="#333" stroke-width="1"/>
<line x1="276.60" y1="175.27" x2="280.60" y2="175.27" stroke="#333" stroke-width="1"/>
<text x="268.2" y="194" text-anchor="end" font-size="10" fill="#2196F3" transform="rotate(-30,268.2,194)">Intentions</text>
<rect x="304.71" y="173.69" width="20.71" height="6.31" fill="#81C784" opacity="0.85"><title>Partner Identity — Agency: 0.292 ×10⁻³</title></rect>
<line x1="315.06" y1="175.85" x2="315.06" y2="167.43" stroke="#333" stroke-width="1"/>
<line x1="313.06" y1="175.85" x2="317.06" y2="175.85" stroke="#333" stroke-width="1"/>
<line x1="313.06" y1="167.43" x2="317.06" y2="167.43" stroke="#333" stroke-width="1"/>
<rect x="327.42" y="176.18" width="20.71" height="3.82" fill="#BDBDBD" opacity="0.85"><title>Control — Agency: 0.177 ×10⁻³</title></rect>
<line x1="337.77" y1="176.77" x2="337.77" y2="175.24" stroke="#333" stroke-width="1"/>
<line x1="335.77" y1="176.77" x2="339.77" y2="176.77" stroke="#333" stroke-width="1"/>
<line x1="335.77" y1="175.24" x2="339.77" y2="175.24" stroke="#333" stroke-width="1"/>
<text x="327.4" y="194" text-anchor="end" font-size="10" fill="#2196F3" transform="rotate(-30,327.4,194)">Agency</text>
<rect x="363.88" y="175.18" width="20.71" height="4.82" fill="#81C784" opacity="0.85"><title>Partner Identity — Roles: 0.223 ×10⁻³</title></rect>
<line x1="374.23" y1="176.04" x2="374.23" y2="173.28" stroke="#333" stroke-width="1"/>
<line x1="372.23" y1="176.04" x2="376.23" y2="176.04" stroke="#333" stroke-width="1"/>
<line x1="372.23" y1="173.28" x2="376.23" y2="173.28" stroke="#333" stroke-width="1"/>
<rect x="386.58" y="175.82" width="20.71" height="4.18" fill="#BDBDBD" opacity="0.85"><title>Control — Roles: 0.194 ×10⁻³</title></rect>
<line x1="396.94" y1="176.36" x2="396.94" y2="175.28" stroke="#333" stroke-width="1"/>
<line x1="394.94" y1="176.36" x2="398.94" y2="176.36" stroke="#333" stroke-width="1"/>
<line x1="394.94" y1="175.28" x2="398.94" y2="175.28" stroke="#333" stroke-width="1"/>
<text x="386.6" y="194" text-anchor="end" font-size="10" fill="#2196F3" transform="rotate(-30,386.6,194)">Roles</text>
<rect x="423.04" y="174.85" width="20.71" height="5.15" fill="#81C784" opacity="0.85"><title>Partner Identity — Emotions: 0.239 ×10⁻³</title></rect>
<line x1="433.40" y1="176.00" x2="433.40" y2="172.81" stroke="#333" stroke-width="1"/>
<line x1="431.40" y1="176.00" x2="435.40" y2="176.00" stroke="#333" stroke-width="1"/>
<line x1="431.40" y1="172.81" x2="435.40" y2="172.81" stroke="#333" stroke-width="1"/>
<rect x="445.75" y="176.74" width="20.71" height="3.26" fill="#BDBDBD" opacity="0.85"><title>Control — Emotions: 0.151 ×10⁻³</title></rect>
<line x1="456.10" y1="177.06" x2="456.10" y2="176.26" stroke="#333" stroke-width="1"/>
<line x1="454.10" y1="177.06" x2="458.10" y2="177.06" stroke="#333" stroke-width="1"/>
<line x1="454.10" y1="176.26" x2="458.10" y2="176.26" stroke="#333" stroke-width="1"/>
<text x="445.7" y="194" text-anchor="end" font-size="10" fill="#2196F3" transform="rotate(-30,445.7,194)">Emotions</text>
<rect x="482.21" y="175.76" width="20.71" height="4.24" fill="#81C784" opacity="0.85"><title>Partner Identity — Phenomenology: 0.196 ×10⁻³</title></rect>
<line x1="492.56" y1="176.72" x2="492.56" y2="174.00" stroke="#333" stroke-width="1"/>
<line x1="490.56" y1="176.72" x2="494.56" y2="176.72" stroke="#333" stroke-width="1"/>
<line x1="490.56" y1="174.00" x2="494.56" y2="174.00" stroke="#333" stroke-width="1"/>
<rect x="504.92" y="175.75" width="20.71" height="4.25" fill="#BDBDBD" opacity="0.85"><title>Control — Phenomenology: 0.197 ×10⁻³</title></rect>
<line x1="515.27" y1="176.35" x2="515.27" y2="175.08" stroke="#333" stroke-width="1"/>
<line x1="513.27" y1="176.35" x2="517.27" y2="176.35" stroke="#333" stroke-width="1"/>
<line x1="513.27" y1="175.08" x2="517.27" y2="175.08" stroke="#333" stroke-width="1"/>
<text x="504.9" y="194" text-anchor="end" font-size="10" fill="#2196F3" transform="rotate(-30,504.9,194)">Phenomenology</text>
<rect x="541.38" y="176.24" width="20.71" height="3.76" fill="#81C784" opacity="0.85"><title>Partner Identity — Embodiment: 0.174 ×10⁻³</title></rect>
<line x1="551.73" y1="177.39" x2="551.73" y2="173.89" stroke="#333" stroke-width="1"/>
<line x1="549.73" y1="177.39" x2="553.73" y2="177.39" stroke="#333" stroke-width="1"/>
<line x1="549.73" y1="173.89" x2="553.73" y2="173.89" stroke="#333" stroke-width="1"/>
<rect x="564.08" y="174.87" width="20.71" height="5.13" fill="#BDBDBD" opacity="0.85"><title>Control — Embodiment: 0.238 ×10⁻³</title></rect>
<line x1="574.44" y1="175.61" x2="574.44" y2="174.15" stroke="#333" stroke-width="1"/>
<line x1="572.44" y1="175.61" x2="576.44" y2="175.61" stroke="#333" stroke-width="1"/>
<line x1="572.44" y1="174.15" x2="576.44" y2="174.15" stroke="#333" stroke-width="1"/>
<text x="564.1" y="194" text-anchor="end" font-size="10" fill="#2196F3" transform="rotate(-30,564.1,194)">Embodiment</text>
<line x1="591.6666666666666" y1="0" x2="591.6666666666666" y2="180" stroke="#ccc" stroke-width="1" stroke-dasharray="4,3"/>
<rect x="600.54" y="175.86" width="20.71" height="4.14" fill="#81C784" opacity="0.5"><title>Partner Identity — Biological: 0.192 ×10⁻³</title></rect>
<line x1="610.90" y1="176.63" x2="610.90" y2="174.50" stroke="#333" stroke-width="1"/>
<line x1="608.90" y1="176.63" x2="612.90" y2="176.63" stroke="#333" stroke-width="1"/>
<line x1="608.90" y1="174.50" x2="612.90" y2="174.50" stroke="#333" stroke-width="1"/>
<rect x="623.25" y="174.55" width="20.71" height="5.45" fill="#BDBDBD" opacity="0.5"><title>Control — Biological: 0.253 ×10⁻³</title></rect>
<line x1="633.60" y1="175.12" x2="633.60" y2="174.04" stroke="#333" stroke-width="1"/>
<line x1="631.60" y1="175.12" x2="635.60" y2="175.12" stroke="#333" stroke-width="1"/>
<line x1="631.60" y1="174.04" x2="635.60" y2="174.04" stroke="#333" stroke-width="1"/>
<text x="623.2" y="194" text-anchor="end" font-size="10" fill="#9E9E9E" transform="rotate(-30,623.2,194)">Biological</text>
<rect x="659.71" y="166.23" width="20.71" height="13.77" fill="#81C784" opacity="0.5"><title>Partner Identity — Shapes: 0.638 ×10⁻³</title></rect>
<line x1="670.06" y1="173.09" x2="670.06" y2="161.40" stroke="#333" stroke-width="1"/>
<line x1="668.06" y1="173.09" x2="672.06" y2="173.09" stroke="#333" stroke-width="1"/>
<line x1="668.06" y1="161.40" x2="672.06" y2="161.40" stroke="#333" stroke-width="1"/>
<rect x="682.42" y="174.90" width="20.71" height="5.10" fill="#BDBDBD" opacity="0.5"><title>Control — Shapes: 0.236 ×10⁻³</title></rect>
<line x1="692.77" y1="176.27" x2="692.77" y2="173.88" stroke="#333" stroke-width="1"/>
<line x1="690.77" y1="176.27" x2="694.77" y2="176.27" stroke="#333" stroke-width="1"/>
<line x1="690.77" y1="173.88" x2="694.77" y2="173.88" stroke="#333" stroke-width="1"/>
<text x="682.4" y="194" text-anchor="end" font-size="10" fill="#9E9E9E" transform="rotate(-30,682.4,194)">Shapes</text>
<line x1="0" y1="180" x2="710" y2="180" stroke="#333"/>
<line x1="0" y1="0" x2="0" y2="180" stroke="#333"/>
</g>
<rect x="70" y="300" width="10" height="10" fill="#81C784"/>
<text x="84" y="308" font-size="9" fill="#333">Partner Identity</text>
<rect x="210" y="300" width="10" height="10" fill="#BDBDBD"/>
<text x="224" y="308" font-size="9" fill="#333">Control</text>
</svg>