<svg viewBox="0 0 800 320" xmlns="http://www.w3.org/2000/svg" style="width:100%;max-width:800px;height:auto;font-family:Arial,sans-serif;">
<rect width="800" height="320" fill="white"/>

<g transform="translate(70,30)">
<line x1="0" y1="180.0" x2="710" y2="180.0" stroke="#eee" stroke-width="1"/>
<text x="-8" y="184.0" text-anchor="end" font-size="10" fill="#666">0.00</text>
<line x1="0" y1="144.0" x2="710" y2="144.0" stroke="#eee" stroke-width="1"/>
<text x="-8" y="148.0" text-anchor="end" font-size="10" fill="#666">1.67</text>
<line x1="0" y1="108.0" x2="710" y2="108.0" stroke="#eee" stroke-width="1"/>
<text x="-8" y="112.0" text-anchor="end" font-size="10" fill="#666">3.34</text>
<line x1="0" y1="72.0" x2="710" y2="72.0" stroke="#eee" stroke-width="1"/>
<text x="-8" y="76.0" text-anchor="end" font-size="10" fill="#666">5.01</text>
<line x1="0" y1="36.0" x2="710" y2="36.0" stroke="#eee" stroke-width="1"/>
<text x="-8" y="40.0" text-anchor="end" font-size="10" fill="#666">6.67</text>
<line x1="0" y1="0.0" x2="710" y2="0.0" stroke="#eee" stroke-width="1"/>
<text x="-8" y="4.0" text-anchor="end" font-size="10" fill="#666">8.34</text>
<text x="-50" y="90.0" text-anchor="middle" font-size="11" fill="#333" transform="rotate(-90,-50,90.0)">Mean R² (×10⁻³)</text>
<rect x="8.88" y="45.89" width="20.71" height="134.11" fill="#2E7D32" opacity="0.85"><title>Partner Identity — Attention: 6.217 ×10⁻³</title></rect>
<line x1="19.23" y1="66.52" x2="19.23" y2="36.59" stroke="#333" stroke-width="1"/>
<line x1="17.23" y1="66.52" x2="21.23" y2="66.52" stroke="#333" stroke-width="1"/>
<line x1="17.23" y1="36.59" x2="21.23" y2="36.59" stroke="#333" stroke-width="1"/>
<rect x="31.58" y="173.43" width="20.71" height="6.57" fill="#616161" opacity="0.85"><title>Control — Attention: 0.304 ×10⁻³</title></rect>
<line x1="41.94" y1="174.78" x2="41.94" y2="172.30" stroke="#333" stroke-width="1"/>
<line x1="39.94" y1="174.78" x2="43.94" y2="174.78" stroke="#333" stroke-width="1"/>
<line x1="39.94" y1="172.30" x2="43.94" y2="172.30" stroke="#333" stroke-width="1"/>
<text x="31.6" y="194" text-anchor="end" font-size="10" fill="#2196F3" transform="rotate(-30,31.6,194)">Attention</text>
<rect x="68.04" y="58.94" width="20.71" height="121.06" fill="#2E7D32" opacity="0.85"><title>Partner Identity — Social: 5.611 ×10⁻³</title></rect>
<line x1="78.40" y1="79.28" x2="78.40" y2="44.97" stroke="#333" stroke-width="1"/>
<line x1="76.40" y1="79.28" x2="80.40" y2="79.28" stroke="#333" stroke-width="1"/>
<line x1="76.40" y1="44.97" x2="80.40" y2="44.97" stroke="#333" stroke-width="1"/>
<rect x="90.75" y="172.37" width="20.71" height="7.63" fill="#616161" opacity="0.85"><title>Control — Social: 0.354 ×10⁻³</title></rect>
<line x1="101.10" y1="174.23" x2="101.10" y2="170.89" stroke="#333" stroke-width="1"/>
<line x1="99.10" y1="174.23" x2="103.10" y2="174.23" stroke="#333" stroke-width="1"/>
<line x1="99.10" y1="170.89" x2="103.10" y2="170.89" stroke="#333" stroke-width="1"/>
<text x="90.7" y="194" text-anchor="end" font-size="10" fill="#2196F3" transform="rotate(-30,90.7,194)">Social</text>
<rect x="127.21" y="66.31" width="20.71" height="113.69" fill="#2E7D32" opacity="0.85"><title>Partner Identity — Cognitive: 5.270 ×10⁻³</title></rect>
<line x1="137.56" y1="85.66" x2="137.56" y2="55.12" stroke="#333" stroke-width="1"/>
<line x1="135.56" y1="85.66" x2="139.56" y2="85.66" stroke="#333" stroke-width="1"/>
<line x1="135.56" y1="55.12" x2="139.56" y2="55.12" stroke="#333" stroke-width="1"/>
<rect x="149.92" y="172.73" width="20.71" height="7.27" fill="#616161" opacity="0.85"><title>Control — Cognitive: 0.337 ×10⁻³</title></rect>
<line x1="160.27" y1="174.19" x2="160.27" y2="171.14" stroke="#333" stroke-width="1"/>
<line x1="158.27" y1="174.19" x2="162.27" y2="174.19" stroke="#333" stroke-width="1"/>
<line x1="158.27" y1="171.14" x2="162.27" y2="171.14" stroke="#333" stroke-width="1"/>
<text x="149.9" y="194" text-anchor="end" font-size="10" fill="#2196F3" transform="rotate(-30,149.9,194)">Cognitive</text>
<rect x="186.38" y="61.57" width="20.71" height="118.43" fill="#2E7D32" opacity="0.85"><title>Partner Identity — Prediction: 5.490 ×10⁻³</title></rect>
<line x1="196.73" y1="82.90" x2="196.73" y2="47.32" stroke="#333" stroke-width="1"/>
<line x1="194.73" y1="82.90" x2="198.73" y2="82.90" stroke="#333" stroke-width="1"/>
<line x1="194.73" y1="47.32" x2="198.73" y2="47.32" stroke="#333" stroke-width="1"/>
<rect x="209.08" y="172.36" width="20.71" height="7.64" fill="#616161" opacity="0.85"><title>Control — Prediction: 0.354 ×10⁻³</title></rect>
<line x1="219.44" y1="174.23" x2="219.44" y2="170.79" stroke="#333" stroke-width="1"/>
<line x1="217.44" y1="174.23" x2="221.44" y2="174.23" stroke="#333" stroke-width="1"/>
<line x1="217.44" y1="170.79" x2="221.44" y2="170.79" stroke="#333" stroke-width="1"/>
<text x="209.1" y="194" text-anchor="end" font-size="10" fill="#2196F3" transform="rotate(-30,209.1,194)">Prediction</text>
<rect x="245.54" y="77.20" width="20.71" height="102.80" fill="#2E7D32" opacity="0.85"><title>Partner Identity — Intentions: 4.765 ×10⁻³</title></rect>
<line x1="255.90" y1="95.64" x2="255.90" y2="65.66" stroke="#333" stroke-width="1"/>
<line x1="253.90" y1="95.64" x2="257.90" y2="95.64" stroke="#333" stroke-width="1"/>
<line x1="253.90" y1="65.66" x2="257.90" y2="65.66" stroke="#333" stroke-width="1"/>
<rect x="268.25" y="170.21" width="20.71" height="9.79" fill="#616161" opacity="0.85"><title>Control — Intentions: 0.454 ×10⁻³</title></rect>
<line x1="278.60" y1="171.99" x2="278.60" y2="169.04" stroke="#333" stroke-width="1"/>
<line x1="276.60" y1="171.99" x2="280.60" y2="171.99" stroke="#333" stroke-width="1"/>
<line x1="276.60" y1="169.04" x2="280.60" y2="169.04" stroke="#333" stroke-width="1"/>
<text x="268.2" y="194" text-anchor="end" font-size="10" fill="#2196F3" transform="rotate(-30,268.2,194)">Intentions</text>
<rect x="304.71" y="76.09" width="20.71" height="103.91" fill="#2E7D32" opacity="0.85"><title>Partner Identity — Agency: 4.817 ×10⁻³</title></rect>
<line x1="315.06" y1="94.00" x2="315.06" y2="65.37" stroke="#333" stroke-width="1"/>
<line x1="313.06" y1="94.00" x2="317.06" y2="94.00" stroke="#333" stroke-width="1"/>
<line x1="313.06" y1="65.37" x2="317.06" y2="65.37" stroke="#333" stroke-width="1"/>
<rect x="327.42" y="170.82" width="20.71" height="9.18" fill="#616161" opacity="0.85"><title>Control — Agency: 0.425 ×10⁻³</title></rect>
<line x1="337.77" y1="172.95" x2="337.77" y2="169.25" stroke="#333" stroke-width="1"/>
<line x1="335.77" y1="172.95" x2="339.77" y2="172.95" stroke="#333" stroke-width="1"/>
<line x1="335.77" y1="169.25" x2="339.77" y2="169.25" stroke="#333" stroke-width="1"/>
<text x="327.4" y="194" text-anchor="end" font-size="10" fill="#2196F3" transform="rotate(-30,327.4,194)">Agency</text>
<rect x="363.88" y="81.77" width="20.71" height="98.23" fill="#2E7D32" opacity="0.85"><title>Partner Identity — Roles: 4.553 ×10⁻³</title></rect>
<line x1="374.23" y1="102.84" x2="374.23" y2="65.95" stroke="#333" stroke-width="1"/>
<line x1="372.23" y1="102.84" x2="376.23" y2="102.84" stroke="#333" stroke-width="1"/>
<line x1="372.23" y1="65.95" x2="376.23" y2="65.95" stroke="#333" stroke-width="1"/>
<rect x="386.58" y="174.31" width="20.71" height="5.69" fill="#616161" opacity="0.85"><title>Control — Roles: 0.264 ×10⁻³</title></rect>
<line x1="396.94" y1="175.71" x2="396.94" y2="172.24" stroke="#333" stroke-width="1"/>
<line x1="394.94" y1="175.71" x2="398.94" y2="175.71" stroke="#333" stroke-width="1"/>
<line x1="394.94" y1="172.24" x2="398.94" y2="172.24" stroke="#333" stroke-width="1"/>
<text x="386.6" y="194" text-anchor="end" font-size="10" fill="#2196F3" transform="rotate(-30,386.6,194)">Roles</text>
<rect x="423.04" y="91.29" width="20.71" height="88.71" fill="#2E7D32" opacity="0.85"><title>Partner Identity — Emotions: 4.112 ×10⁻³</title></rect>
<line x1="433.40" y1="104.49" x2="433.40" y2="81.50" stroke="#333" stroke-width="1"/>
<line x1="431.40" y1="104.49" x2="435.40" y2="104.49" stroke="#333" stroke-width="1"/>
<line x1="431.40" y1="81.50" x2="435.40" y2="81.50" stroke="#333" stroke-width="1"/>
<rect x="445.75" y="173.76" width="20.71" height="6.24" fill="#616161" opacity="0.85"><title>Control — Emotions: 0.289 ×10⁻³</title></rect>
<line x1="456.10" y1="174.77" x2="456.10" y2="172.85" stroke="#333" stroke-width="1"/>
<line x1="454.10" y1="174.77" x2="458.10" y2="174.77" stroke="#333" stroke-width="1"/>
<line x1="454.10" y1="172.85" x2="458.10" y2="172.85" stroke="#333" stroke-width="1"/>
<text x="445.7" y="194" text-anchor="end" font-size="10" fill="#2196F3" transform="rotate(-30,445.7,194)">Emotions</text>
<rect x="482.21" y="99.06" width="20.71" height="80.94" fill="#2E7D32" opacity="0.85"><title>Partner Identity — Phenomenology: 3.752 ×10⁻³</title></rect>
<line x1="492.56" y1="112.75" x2="492.56" y2="93.37" stroke="#333" stroke-width="1"/>
<line x1="490.56" y1="112.75" x2="494.56" y2="112.75" stroke="#333" stroke-width="1"/>
<line x1="490.56" y1="93.37" x2="494.56" y2="93.37" stroke="#333" stroke-width="1"/>
<rect x="504.92" y="172.89" width="20.71" height="7.11" fill="#616161" opacity="0.85"><title>Control — Phenomenology: 0.330 ×10⁻³</title></rect>
<line x1="515.27" y1="174.50" x2="515.27" y2="171.38" stroke="#333" stroke-width="1"/>
<line x1="513.27" y1="174.50" x2="517.27" y2="174.50" stroke="#333" stroke-width="1"/>
<line x1="513.27" y1="171.38" x2="517.27" y2="171.38" stroke="#333" stroke-width="1"/>
<text x="504.9" y="194" text-anchor="end" font-size="10" fill="#2196F3" transform="rotate(-30,504.9,194)">Phenomenology</text>
<rect x="541.38" y="109.45" width="20.71" height="70.55" fill="#2E7D32" opacity="0.85"><title>Partner Identity — Embodiment: 3.270 ×10⁻³</title></rect>
<line x1="551.73" y1="120.73" x2="551.73" y2="103.57" stroke="#333" stroke-width="1"/>
<line x1="549.73" y1="120.73" x2="553.73" y2="120.73" stroke="#333" stroke-width="1"/>
<line x1="549.73" y1="103.57" x2="553.73" y2="103.57" stroke="#333" stroke-width="1"/>
<rect x="564.08" y="172.71" width="20.71" height="7.29" fill="#616161" opacity="0.85"><title>Control — Embodiment: 0.338 ×10⁻³</title></rect>
<line x1="574.44" y1="174.37" x2="574.44" y2="171.28" stroke="#333" stroke-width="1"/>
<line x1="572.44" y1="174.37" x2="576.44" y2="174.37" stroke="#333" stroke-width="1"/>
<line x1="572.44" y1="171.28" x2="576.44" y2="171.28" stroke="#333" stroke-width="1"/>
<text x="564.1" y="194" text-anchor="end" font-size="10" fill="#2196F3" transform="rotate(-30,564.1,194)">Embodiment</text>
<line x1="591.6666666666666" y1="0" x2="591.6666666666666" y2="180" stroke="#ccc" stroke-width="1" stroke-dasharray="4,3"/>
<rect x="600.54" y="136.12" width="20.71" height="43.88" fill="#2E7D32" opacity="0.5"><title>Partner Identity — Biological: 2.034 ×10⁻³</title></rect>
<line x1="610.90" y1="142.63" x2="610.90" y2="131.53" stroke="#333" stroke-width="1"/>
<line x1="608.90" y1="142.63" x2="612.90" y2="142.63" stroke="#333" stroke-width="1"/>
<line x1="608.90" y1="131.53" x2="612.90" y2="131.53" stroke="#333" stroke-width="1"/>
<rect x="623.25" y="174.77" width="20.71" height="5.23" fill="#616161" opacity="0.5"><title>Control — Biological: 0.242 ×10⁻³</title></rect>
<line x1="633.60" y1="175.58" x2="633.60" y2="173.85" stroke="#333" stroke-width="1"/>
<line x1="631.60" y1="175.58" x2="635.60" y2="175.58" stroke="#333" stroke-width="1"/>
<line x1="631.60" y1="173.85" x2="635.60" y2="173.85" stroke="#333" stroke-width="1"/>
<text x="623.2" y="194" text-anchor="end" font-size="10" fill="#9E9E9E" transform="rotate(-30,623.2,194)">Biological</text>
<rect x="659.71" y="167.59" width="20.71" height="12.41" fill="#2E7D32" opacity="0.5"><title>Partner Identity — Shapes: 0.575 ×10⁻³</title></rect>
<line x1="670.06" y1="174.36" x2="670.06" y2="160.71" stroke="#333" stroke-width="1"/>
<line x1="668.06" y1="174.36" x2="672.06" y2="174.36" stroke="#333" stroke-width="1"/>
<line x1="668.06" y1="160.71" x2="672.06" y2="160.71" stroke="#333" stroke-width="1"/>
<rect x="682.42" y="175.05" width="20.71" height="4.95" fill="#616161" opacity="0.5"><title>Control — Shapes: 0.229 ×10⁻³</title></rect>
<line x1="692.77" y1="176.98" x2="692.77" y2="172.91" stroke="#333" stroke-width="1"/>
<line x1="690.77" y1="176.98" x2="694.77" y2="176.98" stroke="#333" stroke-width="1"/>
<line x1="690.77" y1="172.91" x2="694.77" y2="172.91" stroke="#333" stroke-width="1"/>
<text x="682.4" y="194" text-anchor="end" font-size="10" fill="#9E9E9E" transform="rotate(-30,682.4,194)">Shapes</text>
<line x1="0" y1="180" x2="710" y2="180" stroke="#333"/>
<line x1="0" y1="0" x2="0" y2="180" stroke="#333"/>
</g>
<rect x="70" y="300" width="10" height="10" fill="#2E7D32"/>
<text x="84" y="308" font-size="9" fill="#333">Partner Identity</text>
<rect x="210" y="300" width="10" height="10" fill="#616161"/>
<text x="224" y="308" font-size="9" fill="#333">Control</text>
</svg>