<svg viewBox="0 0 1100 360" xmlns="http://www.w3.org/2000/svg" style="width:100%;max-width:1100px;height:auto;font-family:Arial,sans-serif;">
<rect width="1100" height="360" fill="white"/>
<g transform="translate(70,30)">
<line x1="0" y1="200.0" x2="1010" y2="200.0" stroke="#eee" stroke-width="1"/>
<text x="-8" y="204.0" text-anchor="end" font-size="10" fill="#666">0.00</text>
<line x1="0" y1="160.0" x2="1010" y2="160.0" stroke="#eee" stroke-width="1"/>
<text x="-8" y="164.0" text-anchor="end" font-size="10" fill="#666">0.81</text>
<line x1="0" y1="120.0" x2="1010" y2="120.0" stroke="#eee" stroke-width="1"/>
<text x="-8" y="124.0" text-anchor="end" font-size="10" fill="#666">1.61</text>
<line x1="0" y1="80.0" x2="1010" y2="80.0" stroke="#eee" stroke-width="1"/>
<text x="-8" y="84.0" text-anchor="end" font-size="10" fill="#666">2.42</text>
<line x1="0" y1="40.0" x2="1010" y2="40.0" stroke="#eee" stroke-width="1"/>
<text x="-8" y="44.0" text-anchor="end" font-size="10" fill="#666">3.23</text>
<line x1="0" y1="0.0" x2="1010" y2="0.0" stroke="#eee" stroke-width="1"/>
<text x="-8" y="4.0" text-anchor="end" font-size="10" fill="#666">4.04</text>
<text x="-50" y="100.0" text-anchor="middle" font-size="11" fill="#333" transform="rotate(-90,-50,100.0)">Mean R² (×10⁻³)</text>
<rect x="4.59" y="169.09" width="18.36" height="30.91" fill="#81C784" opacity="0.85"><title>Partner Identity: 0.000624</title></rect>
<line x1="13.77" y1="170.31" x2="13.77" y2="167.85" stroke="#333" stroke-width="1"/>
<line x1="11.77" y1="170.31" x2="15.77" y2="170.31" stroke="#333" stroke-width="1"/>
<line x1="11.77" y1="167.85" x2="15.77" y2="167.85" stroke="#333" stroke-width="1"/>
<rect x="22.95" y="188.20" width="18.36" height="11.80" fill="#BDBDBD" opacity="0.85"><title>Control: 0.000238</title></rect>
<line x1="32.14" y1="188.39" x2="32.14" y2="188.00" stroke="#333" stroke-width="1"/>
<line x1="30.14" y1="188.39" x2="34.14" y2="188.39" stroke="#333" stroke-width="1"/>
<line x1="30.14" y1="188.00" x2="34.14" y2="188.00" stroke="#333" stroke-width="1"/>
<text x="22.95" y="214" text-anchor="end" font-size="9" fill="#2196F3" transform="rotate(-45,22.95,214)">Phenomenology</text>
<rect x="50.50" y="169.64" width="18.36" height="30.36" fill="#81C784" opacity="0.85"><title>Partner Identity: 0.000613</title></rect>
<line x1="59.68" y1="171.40" x2="59.68" y2="167.97" stroke="#333" stroke-width="1"/>
<line x1="57.68" y1="171.40" x2="61.68" y2="171.40" stroke="#333" stroke-width="1"/>
<line x1="57.68" y1="167.97" x2="61.68" y2="167.97" stroke="#333" stroke-width="1"/>
<rect x="68.86" y="187.70" width="18.36" height="12.30" fill="#BDBDBD" opacity="0.85"><title>Control: 0.000248</title></rect>
<line x1="78.05" y1="187.88" x2="78.05" y2="187.52" stroke="#333" stroke-width="1"/>
<line x1="76.05" y1="187.88" x2="80.05" y2="187.88" stroke="#333" stroke-width="1"/>
<line x1="76.05" y1="187.52" x2="80.05" y2="187.52" stroke="#333" stroke-width="1"/>
<text x="68.86" y="214" text-anchor="end" font-size="9" fill="#2196F3" transform="rotate(-45,68.86,214)">Emotions</text>
<rect x="96.41" y="172.12" width="18.36" height="27.88" fill="#81C784" opacity="0.85"><title>Partner Identity: 0.000562</title></rect>
<line x1="105.59" y1="174.40" x2="105.59" y2="170.19" stroke="#333" stroke-width="1"/>
<line x1="103.59" y1="174.40" x2="107.59" y2="174.40" stroke="#333" stroke-width="1"/>
<line x1="103.59" y1="170.19" x2="107.59" y2="170.19" stroke="#333" stroke-width="1"/>
<rect x="114.77" y="187.83" width="18.36" height="12.17" fill="#BDBDBD" opacity="0.85"><title>Control: 0.000246</title></rect>
<line x1="123.95" y1="188.07" x2="123.95" y2="187.61" stroke="#333" stroke-width="1"/>
<line x1="121.95" y1="188.07" x2="125.95" y2="188.07" stroke="#333" stroke-width="1"/>
<line x1="121.95" y1="187.61" x2="125.95" y2="187.61" stroke="#333" stroke-width="1"/>
<text x="114.77" y="214" text-anchor="end" font-size="9" fill="#2196F3" transform="rotate(-45,114.77,214)">Agency</text>
<rect x="142.32" y="173.24" width="18.36" height="26.76" fill="#81C784" opacity="0.85"><title>Partner Identity: 0.000540</title></rect>
<line x1="151.50" y1="174.98" x2="151.50" y2="171.81" stroke="#333" stroke-width="1"/>
<line x1="149.50" y1="174.98" x2="153.50" y2="174.98" stroke="#333" stroke-width="1"/>
<line x1="149.50" y1="171.81" x2="153.50" y2="171.81" stroke="#333" stroke-width="1"/>
<rect x="160.68" y="187.95" width="18.36" height="12.05" fill="#BDBDBD" opacity="0.85"><title>Control: 0.000243</title></rect>
<line x1="169.86" y1="188.21" x2="169.86" y2="187.72" stroke="#333" stroke-width="1"/>
<line x1="167.86" y1="188.21" x2="171.86" y2="188.21" stroke="#333" stroke-width="1"/>
<line x1="167.86" y1="187.72" x2="171.86" y2="187.72" stroke="#333" stroke-width="1"/>
<text x="160.68" y="214" text-anchor="end" font-size="9" fill="#2196F3" transform="rotate(-45,160.68,214)">Intentions</text>
<rect x="188.23" y="173.20" width="18.36" height="26.80" fill="#81C784" opacity="0.85"><title>Partner Identity: 0.000541</title></rect>
<line x1="197.41" y1="175.28" x2="197.41" y2="171.08" stroke="#333" stroke-width="1"/>
<line x1="195.41" y1="175.28" x2="199.41" y2="175.28" stroke="#333" stroke-width="1"/>
<line x1="195.41" y1="171.08" x2="199.41" y2="171.08" stroke="#333" stroke-width="1"/>
<rect x="206.59" y="188.17" width="18.36" height="11.83" fill="#BDBDBD" opacity="0.85"><title>Control: 0.000239</title></rect>
<line x1="215.77" y1="188.37" x2="215.77" y2="187.98" stroke="#333" stroke-width="1"/>
<line x1="213.77" y1="188.37" x2="217.77" y2="188.37" stroke="#333" stroke-width="1"/>
<line x1="213.77" y1="187.98" x2="217.77" y2="187.98" stroke="#333" stroke-width="1"/>
<text x="206.59" y="214" text-anchor="end" font-size="9" fill="#2196F3" transform="rotate(-45,206.59,214)">Prediction</text>
<rect x="234.14" y="176.66" width="18.36" height="23.34" fill="#81C784" opacity="0.85"><title>Partner Identity: 0.000471</title></rect>
<line x1="243.32" y1="178.42" x2="243.32" y2="174.79" stroke="#333" stroke-width="1"/>
<line x1="241.32" y1="178.42" x2="245.32" y2="178.42" stroke="#333" stroke-width="1"/>
<line x1="241.32" y1="174.79" x2="245.32" y2="174.79" stroke="#333" stroke-width="1"/>
<rect x="252.50" y="188.35" width="18.36" height="11.65" fill="#BDBDBD" opacity="0.85"><title>Control: 0.000235</title></rect>
<line x1="261.68" y1="188.53" x2="261.68" y2="188.18" stroke="#333" stroke-width="1"/>
<line x1="259.68" y1="188.53" x2="263.68" y2="188.53" stroke="#333" stroke-width="1"/>
<line x1="259.68" y1="188.18" x2="263.68" y2="188.18" stroke="#333" stroke-width="1"/>
<text x="252.50" y="214" text-anchor="end" font-size="9" fill="#2196F3" transform="rotate(-45,252.50,214)">Cognitive</text>
<rect x="280.05" y="180.17" width="18.36" height="19.83" fill="#81C784" opacity="0.85"><title>Partner Identity: 0.000400</title></rect>
<line x1="289.23" y1="181.72" x2="289.23" y2="178.70" stroke="#333" stroke-width="1"/>
<line x1="287.23" y1="181.72" x2="291.23" y2="181.72" stroke="#333" stroke-width="1"/>
<line x1="287.23" y1="178.70" x2="291.23" y2="178.70" stroke="#333" stroke-width="1"/>
<rect x="298.41" y="188.49" width="18.36" height="11.51" fill="#BDBDBD" opacity="0.85"><title>Control: 0.000232</title></rect>
<line x1="307.59" y1="188.75" x2="307.59" y2="188.22" stroke="#333" stroke-width="1"/>
<line x1="305.59" y1="188.75" x2="309.59" y2="188.75" stroke="#333" stroke-width="1"/>
<line x1="305.59" y1="188.22" x2="309.59" y2="188.22" stroke="#333" stroke-width="1"/>
<text x="298.41" y="214" text-anchor="end" font-size="9" fill="#2196F3" transform="rotate(-45,298.41,214)">Social</text>
<rect x="325.95" y="172.88" width="18.36" height="27.12" fill="#81C784" opacity="0.85"><title>Partner Identity: 0.000547</title></rect>
<line x1="335.14" y1="174.27" x2="335.14" y2="171.50" stroke="#333" stroke-width="1"/>
<line x1="333.14" y1="174.27" x2="337.14" y2="174.27" stroke="#333" stroke-width="1"/>
<line x1="333.14" y1="171.50" x2="337.14" y2="171.50" stroke="#333" stroke-width="1"/>
<rect x="344.32" y="188.19" width="18.36" height="11.81" fill="#BDBDBD" opacity="0.85"><title>Control: 0.000238</title></rect>
<line x1="353.50" y1="188.41" x2="353.50" y2="187.93" stroke="#333" stroke-width="1"/>
<line x1="351.50" y1="188.41" x2="355.50" y2="188.41" stroke="#333" stroke-width="1"/>
<line x1="351.50" y1="187.93" x2="355.50" y2="187.93" stroke="#333" stroke-width="1"/>
<text x="344.32" y="214" text-anchor="end" font-size="9" fill="#2196F3" transform="rotate(-45,344.32,214)">Attention</text>
<rect x="371.86" y="169.46" width="18.36" height="30.54" fill="#81C784" opacity="0.85"><title>Partner Identity: 0.000616</title></rect>
<line x1="381.05" y1="171.73" x2="381.05" y2="167.08" stroke="#333" stroke-width="1"/>
<line x1="379.05" y1="171.73" x2="383.05" y2="171.73" stroke="#333" stroke-width="1"/>
<line x1="379.05" y1="167.08" x2="383.05" y2="167.08" stroke="#333" stroke-width="1"/>
<rect x="390.23" y="187.57" width="18.36" height="12.43" fill="#BDBDBD" opacity="0.85"><title>Control: 0.000251</title></rect>
<line x1="399.41" y1="187.77" x2="399.41" y2="187.38" stroke="#333" stroke-width="1"/>
<line x1="397.41" y1="187.77" x2="401.41" y2="187.77" stroke="#333" stroke-width="1"/>
<line x1="397.41" y1="187.38" x2="401.41" y2="187.38" stroke="#333" stroke-width="1"/>
<text x="390.23" y="214" text-anchor="end" font-size="9" fill="#4CAF50" transform="rotate(-45,390.23,214)">Embodiment</text>
<rect x="417.77" y="174.87" width="18.36" height="25.13" fill="#81C784" opacity="0.85"><title>Partner Identity: 0.000507</title></rect>
<line x1="426.95" y1="176.75" x2="426.95" y2="172.83" stroke="#333" stroke-width="1"/>
<line x1="424.95" y1="176.75" x2="428.95" y2="176.75" stroke="#333" stroke-width="1"/>
<line x1="424.95" y1="172.83" x2="428.95" y2="172.83" stroke="#333" stroke-width="1"/>
<rect x="436.14" y="188.47" width="18.36" height="11.53" fill="#BDBDBD" opacity="0.85"><title>Control: 0.000233</title></rect>
<line x1="445.32" y1="188.69" x2="445.32" y2="188.24" stroke="#333" stroke-width="1"/>
<line x1="443.32" y1="188.69" x2="447.32" y2="188.69" stroke="#333" stroke-width="1"/>
<line x1="443.32" y1="188.24" x2="447.32" y2="188.24" stroke="#333" stroke-width="1"/>
<text x="436.14" y="214" text-anchor="end" font-size="9" fill="#4CAF50" transform="rotate(-45,436.14,214)">Roles</text>
<rect x="463.68" y="169.66" width="18.36" height="30.34" fill="#81C784" opacity="0.85"><title>Partner Identity: 0.000612</title></rect>
<line x1="472.86" y1="171.01" x2="472.86" y2="168.42" stroke="#333" stroke-width="1"/>
<line x1="470.86" y1="171.01" x2="474.86" y2="171.01" stroke="#333" stroke-width="1"/>
<line x1="470.86" y1="168.42" x2="474.86" y2="168.42" stroke="#333" stroke-width="1"/>
<rect x="482.05" y="187.86" width="18.36" height="12.14" fill="#BDBDBD" opacity="0.85"><title>Control: 0.000245</title></rect>
<line x1="491.23" y1="188.11" x2="491.23" y2="187.61" stroke="#333" stroke-width="1"/>
<line x1="489.23" y1="188.11" x2="493.23" y2="188.11" stroke="#333" stroke-width="1"/>
<line x1="489.23" y1="187.61" x2="493.23" y2="187.61" stroke="#333" stroke-width="1"/>
<text x="482.05" y="214" text-anchor="end" font-size="9" fill="#4CAF50" transform="rotate(-45,482.05,214)">Animacy</text>
<rect x="509.59" y="176.18" width="18.36" height="23.82" fill="#81C784" opacity="0.85"><title>Partner Identity: 0.000481</title></rect>
<line x1="518.77" y1="177.80" x2="518.77" y2="174.54" stroke="#333" stroke-width="1"/>
<line x1="516.77" y1="177.80" x2="520.77" y2="177.80" stroke="#333" stroke-width="1"/>
<line x1="516.77" y1="174.54" x2="520.77" y2="174.54" stroke="#333" stroke-width="1"/>
<rect x="527.95" y="189.03" width="18.36" height="10.97" fill="#BDBDBD" opacity="0.85"><title>Control: 0.000221</title></rect>
<line x1="537.14" y1="189.26" x2="537.14" y2="188.78" stroke="#333" stroke-width="1"/>
<line x1="535.14" y1="189.26" x2="539.14" y2="189.26" stroke="#333" stroke-width="1"/>
<line x1="535.14" y1="188.78" x2="539.14" y2="188.78" stroke="#333" stroke-width="1"/>
<text x="527.95" y="214" text-anchor="end" font-size="9" fill="#FF9800" transform="rotate(-45,527.95,214)">Formality</text>
<rect x="555.50" y="178.53" width="18.36" height="21.47" fill="#81C784" opacity="0.85"><title>Partner Identity: 0.000433</title></rect>
<line x1="564.68" y1="180.06" x2="564.68" y2="176.98" stroke="#333" stroke-width="1"/>
<line x1="562.68" y1="180.06" x2="566.68" y2="180.06" stroke="#333" stroke-width="1"/>
<line x1="562.68" y1="176.98" x2="566.68" y2="176.98" stroke="#333" stroke-width="1"/>
<rect x="573.86" y="189.05" width="18.36" height="10.95" fill="#BDBDBD" opacity="0.85"><title>Control: 0.000221</title></rect>
<line x1="583.05" y1="189.27" x2="583.05" y2="188.80" stroke="#333" stroke-width="1"/>
<line x1="581.05" y1="189.27" x2="585.05" y2="189.27" stroke="#333" stroke-width="1"/>
<line x1="581.05" y1="188.80" x2="585.05" y2="188.80" stroke="#333" stroke-width="1"/>
<text x="573.86" y="214" text-anchor="end" font-size="9" fill="#FF9800" transform="rotate(-45,573.86,214)">Expertise</text>
<rect x="601.41" y="177.69" width="18.36" height="22.31" fill="#81C784" opacity="0.85"><title>Partner Identity: 0.000450</title></rect>
<line x1="610.59" y1="179.20" x2="610.59" y2="176.21" stroke="#333" stroke-width="1"/>
<line x1="608.59" y1="179.20" x2="612.59" y2="179.20" stroke="#333" stroke-width="1"/>
<line x1="608.59" y1="176.21" x2="612.59" y2="176.21" stroke="#333" stroke-width="1"/>
<rect x="619.77" y="189.00" width="18.36" height="11.00" fill="#BDBDBD" opacity="0.85"><title>Control: 0.000222</title></rect>
<line x1="628.95" y1="189.23" x2="628.95" y2="188.75" stroke="#333" stroke-width="1"/>
<line x1="626.95" y1="189.23" x2="630.95" y2="189.23" stroke="#333" stroke-width="1"/>
<line x1="626.95" y1="188.75" x2="630.95" y2="188.75" stroke="#333" stroke-width="1"/>
<text x="619.77" y="214" text-anchor="end" font-size="9" fill="#FF9800" transform="rotate(-45,619.77,214)">Helpfulness</text>
<rect x="647.32" y="169.00" width="18.36" height="31.00" fill="#81C784" opacity="0.85"><title>Partner Identity: 0.000626</title></rect>
<line x1="656.50" y1="171.74" x2="656.50" y2="166.23" stroke="#333" stroke-width="1"/>
<line x1="654.50" y1="171.74" x2="658.50" y2="171.74" stroke="#333" stroke-width="1"/>
<line x1="654.50" y1="166.23" x2="658.50" y2="166.23" stroke="#333" stroke-width="1"/>
<rect x="665.68" y="188.80" width="18.36" height="11.20" fill="#BDBDBD" opacity="0.85"><title>Control: 0.000226</title></rect>
<line x1="674.86" y1="189.00" x2="674.86" y2="188.57" stroke="#333" stroke-width="1"/>
<line x1="672.86" y1="189.00" x2="676.86" y2="189.00" stroke="#333" stroke-width="1"/>
<line x1="672.86" y1="188.57" x2="676.86" y2="188.57" stroke="#333" stroke-width="1"/>
<text x="665.68" y="214" text-anchor="end" font-size="9" fill="#7B1FA2" transform="rotate(-45,665.68,214)">Human (concept)</text>
<rect x="693.23" y="170.03" width="18.36" height="29.97" fill="#81C784" opacity="0.85"><title>Partner Identity: 0.000605</title></rect>
<line x1="702.41" y1="172.05" x2="702.41" y2="168.11" stroke="#333" stroke-width="1"/>
<line x1="700.41" y1="172.05" x2="704.41" y2="172.05" stroke="#333" stroke-width="1"/>
<line x1="700.41" y1="168.11" x2="704.41" y2="168.11" stroke="#333" stroke-width="1"/>
<rect x="711.59" y="189.35" width="18.36" height="10.65" fill="#BDBDBD" opacity="0.85"><title>Control: 0.000215</title></rect>
<line x1="720.77" y1="189.57" x2="720.77" y2="189.11" stroke="#333" stroke-width="1"/>
<line x1="718.77" y1="189.57" x2="722.77" y2="189.57" stroke="#333" stroke-width="1"/>
<line x1="718.77" y1="189.11" x2="722.77" y2="189.11" stroke="#333" stroke-width="1"/>
<text x="711.59" y="214" text-anchor="end" font-size="9" fill="#7B1FA2" transform="rotate(-45,711.59,214)">AI (concept)</text>
<rect x="739.14" y="172.82" width="18.36" height="27.18" fill="#81C784" opacity="0.85"><title>Partner Identity: 0.000548</title></rect>
<line x1="748.32" y1="174.40" x2="748.32" y2="171.08" stroke="#333" stroke-width="1"/>
<line x1="746.32" y1="174.40" x2="750.32" y2="174.40" stroke="#333" stroke-width="1"/>
<line x1="746.32" y1="171.08" x2="750.32" y2="171.08" stroke="#333" stroke-width="1"/>
<rect x="757.50" y="187.88" width="18.36" height="12.12" fill="#BDBDBD" opacity="0.85"><title>Control: 0.000245</title></rect>
<line x1="766.68" y1="188.06" x2="766.68" y2="187.71" stroke="#333" stroke-width="1"/>
<line x1="764.68" y1="188.06" x2="768.68" y2="188.06" stroke="#333" stroke-width="1"/>
<line x1="764.68" y1="187.71" x2="768.68" y2="187.71" stroke="#333" stroke-width="1"/>
<text x="757.50" y="214" text-anchor="end" font-size="9" fill="#9E9E9E" transform="rotate(-45,757.50,214)">Biological</text>
<rect x="785.05" y="173.75" width="18.36" height="26.25" fill="#81C784" opacity="0.85"><title>Partner Identity: 0.000530</title></rect>
<line x1="794.23" y1="174.59" x2="794.23" y2="172.95" stroke="#333" stroke-width="1"/>
<line x1="792.23" y1="174.59" x2="796.23" y2="174.59" stroke="#333" stroke-width="1"/>
<line x1="792.23" y1="172.95" x2="796.23" y2="172.95" stroke="#333" stroke-width="1"/>
<rect x="803.41" y="188.09" width="18.36" height="11.91" fill="#BDBDBD" opacity="0.85"><title>Control: 0.000240</title></rect>
<line x1="812.59" y1="188.31" x2="812.59" y2="187.89" stroke="#333" stroke-width="1"/>
<line x1="810.59" y1="188.31" x2="814.59" y2="188.31" stroke="#333" stroke-width="1"/>
<line x1="810.59" y1="187.89" x2="814.59" y2="187.89" stroke="#333" stroke-width="1"/>
<text x="803.41" y="214" text-anchor="end" font-size="9" fill="#9E9E9E" transform="rotate(-45,803.41,214)">Shapes</text>
<rect x="830.95" y="185.56" width="18.36" height="14.44" fill="#81C784" opacity="0.85"><title>Partner Identity: 0.000291</title></rect>
<line x1="840.14" y1="186.12" x2="840.14" y2="184.84" stroke="#333" stroke-width="1"/>
<line x1="838.14" y1="186.12" x2="842.14" y2="186.12" stroke="#333" stroke-width="1"/>
<line x1="838.14" y1="184.84" x2="842.14" y2="184.84" stroke="#333" stroke-width="1"/>
<rect x="849.32" y="186.61" width="18.36" height="13.39" fill="#BDBDBD" opacity="0.85"><title>Control: 0.000270</title></rect>
<line x1="858.50" y1="186.78" x2="858.50" y2="186.44" stroke="#333" stroke-width="1"/>
<line x1="856.50" y1="186.78" x2="860.50" y2="186.78" stroke="#333" stroke-width="1"/>
<line x1="856.50" y1="186.44" x2="860.50" y2="186.44" stroke="#333" stroke-width="1"/>
<text x="849.32" y="214" text-anchor="end" font-size="9" fill="#00BCD4" transform="rotate(-45,849.32,214)">SysPrompt (talkto human)</text>
<rect x="876.86" y="179.22" width="18.36" height="20.78" fill="#81C784" opacity="0.85"><title>Partner Identity: 0.000419</title></rect>
<line x1="886.05" y1="180.71" x2="886.05" y2="177.62" stroke="#333" stroke-width="1"/>
<line x1="884.05" y1="180.71" x2="888.05" y2="180.71" stroke="#333" stroke-width="1"/>
<line x1="884.05" y1="177.62" x2="888.05" y2="177.62" stroke="#333" stroke-width="1"/>
<rect x="895.23" y="187.57" width="18.36" height="12.43" fill="#BDBDBD" opacity="0.85"><title>Control: 0.000251</title></rect>
<line x1="904.41" y1="187.93" x2="904.41" y2="187.24" stroke="#333" stroke-width="1"/>
<line x1="902.41" y1="187.93" x2="906.41" y2="187.93" stroke="#333" stroke-width="1"/>
<line x1="902.41" y1="187.24" x2="906.41" y2="187.24" stroke="#333" stroke-width="1"/>
<text x="895.23" y="214" text-anchor="end" font-size="9" fill="#00BCD4" transform="rotate(-45,895.23,214)">SysPrompt (talkto AI)</text>
<rect x="922.77" y="182.50" width="18.36" height="17.50" fill="#81C784" opacity="0.85"><title>Partner Identity: 0.000353</title></rect>
<line x1="931.95" y1="183.18" x2="931.95" y2="181.59" stroke="#333" stroke-width="1"/>
<line x1="929.95" y1="183.18" x2="933.95" y2="183.18" stroke="#333" stroke-width="1"/>
<line x1="929.95" y1="181.59" x2="933.95" y2="181.59" stroke="#333" stroke-width="1"/>
<rect x="941.14" y="187.25" width="18.36" height="12.75" fill="#BDBDBD" opacity="0.85"><title>Control: 0.000257</title></rect>
<line x1="950.32" y1="187.47" x2="950.32" y2="187.06" stroke="#333" stroke-width="1"/>
<line x1="948.32" y1="187.47" x2="952.32" y2="187.47" stroke="#333" stroke-width="1"/>
<line x1="948.32" y1="187.06" x2="952.32" y2="187.06" stroke="#333" stroke-width="1"/>
<text x="941.14" y="214" text-anchor="end" font-size="9" fill="#00BCD4" transform="rotate(-45,941.14,214)">SysPrompt (bare human)</text>
<rect x="968.68" y="178.02" width="18.36" height="21.98" fill="#81C784" opacity="0.85"><title>Partner Identity: 0.000443</title></rect>
<line x1="977.86" y1="179.81" x2="977.86" y2="176.02" stroke="#333" stroke-width="1"/>
<line x1="975.86" y1="179.81" x2="979.86" y2="179.81" stroke="#333" stroke-width="1"/>
<line x1="975.86" y1="176.02" x2="979.86" y2="176.02" stroke="#333" stroke-width="1"/>
<rect x="987.05" y="187.82" width="18.36" height="12.18" fill="#BDBDBD" opacity="0.85"><title>Control: 0.000246</title></rect>
<line x1="996.23" y1="188.06" x2="996.23" y2="187.59" stroke="#333" stroke-width="1"/>
<line x1="994.23" y1="188.06" x2="998.23" y2="188.06" stroke="#333" stroke-width="1"/>
<line x1="994.23" y1="187.59" x2="998.23" y2="187.59" stroke="#333" stroke-width="1"/>
<text x="987.05" y="214" text-anchor="end" font-size="9" fill="#00BCD4" transform="rotate(-45,987.05,214)">SysPrompt (bare AI)</text>
<line x1="0" y1="200" x2="1010" y2="200" stroke="#333"/>
<line x1="0" y1="0" x2="0" y2="200" stroke="#333"/>
</g>
<rect x="70.0" y="324" width="10" height="10" fill="#81C784"/>
<text x="84.0" y="332" font-size="8" fill="#333">Partner Identity</text>
<rect x="272.0" y="324" width="10" height="10" fill="#BDBDBD"/>
<text x="286.0" y="332" font-size="8" fill="#333">Control</text>
</svg>