<svg viewBox="0 0 800 320" xmlns="http://www.w3.org/2000/svg" style="width:100%;max-width:800px;height:auto;font-family:Arial,sans-serif;">
<rect width="800" height="320" fill="white"/>

<g transform="translate(70,30)">
<line x1="0" y1="180.0" x2="710" y2="180.0" stroke="#eee" stroke-width="1"/>
<text x="-8" y="184.0" text-anchor="end" font-size="10" fill="#666">0.00</text>
<line x1="0" y1="144.0" x2="710" y2="144.0" stroke="#eee" stroke-width="1"/>
<text x="-8" y="148.0" text-anchor="end" font-size="10" fill="#666">1.65</text>
<line x1="0" y1="108.0" x2="710" y2="108.0" stroke="#eee" stroke-width="1"/>
<text x="-8" y="112.0" text-anchor="end" font-size="10" fill="#666">3.30</text>
<line x1="0" y1="72.0" x2="710" y2="72.0" stroke="#eee" stroke-width="1"/>
<text x="-8" y="76.0" text-anchor="end" font-size="10" fill="#666">4.95</text>
<line x1="0" y1="36.0" x2="710" y2="36.0" stroke="#eee" stroke-width="1"/>
<text x="-8" y="40.0" text-anchor="end" font-size="10" fill="#666">6.60</text>
<line x1="0" y1="0.0" x2="710" y2="0.0" stroke="#eee" stroke-width="1"/>
<text x="-8" y="4.0" text-anchor="end" font-size="10" fill="#666">8.25</text>
<text x="-50" y="90.0" text-anchor="middle" font-size="11" fill="#333" transform="rotate(-90,-50,90.0)">Mean R² (×10⁻³)</text>
<rect x="8.19" y="100.25" width="19.12" height="79.75" fill="#2E7D32" opacity="0.85"><title>Partner Identity — Social: 3.654 ×10⁻³</title></rect>
<line x1="17.75" y1="112.57" x2="17.75" y2="95.15" stroke="#333" stroke-width="1"/>
<line x1="15.75" y1="112.57" x2="19.75" y2="112.57" stroke="#333" stroke-width="1"/>
<line x1="15.75" y1="95.15" x2="19.75" y2="95.15" stroke="#333" stroke-width="1"/>
<rect x="29.31" y="53.12" width="19.12" height="126.88" fill="#616161" opacity="0.85"><title>Control — Social: 5.813 ×10⁻³</title></rect>
<line x1="38.87" y1="74.99" x2="38.87" y2="40.93" stroke="#333" stroke-width="1"/>
<line x1="36.87" y1="74.99" x2="40.87" y2="74.99" stroke="#333" stroke-width="1"/>
<line x1="36.87" y1="40.93" x2="40.87" y2="40.93" stroke="#333" stroke-width="1"/>
<text x="29.3" y="194" text-anchor="end" font-size="10" fill="#2196F3" transform="rotate(-30,29.3,194)">Social</text>
<rect x="62.81" y="99.36" width="19.12" height="80.64" fill="#2E7D32" opacity="0.85"><title>Partner Identity — Attention: 3.695 ×10⁻³</title></rect>
<line x1="72.37" y1="112.74" x2="72.37" y2="92.72" stroke="#333" stroke-width="1"/>
<line x1="70.37" y1="112.74" x2="74.37" y2="112.74" stroke="#333" stroke-width="1"/>
<line x1="70.37" y1="92.72" x2="74.37" y2="92.72" stroke="#333" stroke-width="1"/>
<rect x="83.92" y="68.53" width="19.12" height="111.47" fill="#616161" opacity="0.85"><title>Control — Attention: 5.107 ×10⁻³</title></rect>
<line x1="93.48" y1="87.50" x2="93.48" y2="56.97" stroke="#333" stroke-width="1"/>
<line x1="91.48" y1="87.50" x2="95.48" y2="87.50" stroke="#333" stroke-width="1"/>
<line x1="91.48" y1="56.97" x2="95.48" y2="56.97" stroke="#333" stroke-width="1"/>
<text x="83.9" y="194" text-anchor="end" font-size="10" fill="#2196F3" transform="rotate(-30,83.9,194)">Attention</text>
<rect x="117.42" y="99.39" width="19.12" height="80.61" fill="#2E7D32" opacity="0.85"><title>Partner Identity — Prediction: 3.693 ×10⁻³</title></rect>
<line x1="126.98" y1="112.50" x2="126.98" y2="93.41" stroke="#333" stroke-width="1"/>
<line x1="124.98" y1="112.50" x2="128.98" y2="112.50" stroke="#333" stroke-width="1"/>
<line x1="124.98" y1="93.41" x2="128.98" y2="93.41" stroke="#333" stroke-width="1"/>
<rect x="138.54" y="57.50" width="19.12" height="122.50" fill="#616161" opacity="0.85"><title>Control — Prediction: 5.612 ×10⁻³</title></rect>
<line x1="148.10" y1="78.58" x2="148.10" y2="44.82" stroke="#333" stroke-width="1"/>
<line x1="146.10" y1="78.58" x2="150.10" y2="78.58" stroke="#333" stroke-width="1"/>
<line x1="146.10" y1="44.82" x2="150.10" y2="44.82" stroke="#333" stroke-width="1"/>
<text x="138.5" y="194" text-anchor="end" font-size="10" fill="#2196F3" transform="rotate(-30,138.5,194)">Prediction</text>
<rect x="172.04" y="104.18" width="19.12" height="75.82" fill="#2E7D32" opacity="0.85"><title>Partner Identity — Roles: 3.474 ×10⁻³</title></rect>
<line x1="181.60" y1="120.91" x2="181.60" y2="95.42" stroke="#333" stroke-width="1"/>
<line x1="179.60" y1="120.91" x2="183.60" y2="120.91" stroke="#333" stroke-width="1"/>
<line x1="179.60" y1="95.42" x2="183.60" y2="95.42" stroke="#333" stroke-width="1"/>
<rect x="193.15" y="41.03" width="19.12" height="138.97" fill="#616161" opacity="0.85"><title>Control — Roles: 6.367 ×10⁻³</title></rect>
<line x1="202.71" y1="71.40" x2="202.71" y2="24.16" stroke="#333" stroke-width="1"/>
<line x1="200.71" y1="71.40" x2="204.71" y2="71.40" stroke="#333" stroke-width="1"/>
<line x1="200.71" y1="24.16" x2="204.71" y2="24.16" stroke="#333" stroke-width="1"/>
<text x="193.2" y="194" text-anchor="end" font-size="10" fill="#2196F3" transform="rotate(-30,193.2,194)">Roles</text>
<rect x="226.65" y="107.77" width="19.12" height="72.23" fill="#2E7D32" opacity="0.85"><title>Partner Identity — Agency: 3.309 ×10⁻³</title></rect>
<line x1="236.21" y1="118.58" x2="236.21" y2="103.57" stroke="#333" stroke-width="1"/>
<line x1="234.21" y1="118.58" x2="238.21" y2="118.58" stroke="#333" stroke-width="1"/>
<line x1="234.21" y1="103.57" x2="238.21" y2="103.57" stroke="#333" stroke-width="1"/>
<rect x="247.77" y="65.33" width="19.12" height="114.67" fill="#616161" opacity="0.85"><title>Control — Agency: 5.253 ×10⁻³</title></rect>
<line x1="257.33" y1="83.07" x2="257.33" y2="57.54" stroke="#333" stroke-width="1"/>
<line x1="255.33" y1="83.07" x2="259.33" y2="83.07" stroke="#333" stroke-width="1"/>
<line x1="255.33" y1="57.54" x2="259.33" y2="57.54" stroke="#333" stroke-width="1"/>
<text x="247.8" y="194" text-anchor="end" font-size="10" fill="#2196F3" transform="rotate(-30,247.8,194)">Agency</text>
<rect x="281.27" y="112.33" width="19.12" height="67.67" fill="#2E7D32" opacity="0.85"><title>Partner Identity — Cognitive: 3.100 ×10⁻³</title></rect>
<line x1="290.83" y1="123.89" x2="290.83" y2="104.08" stroke="#333" stroke-width="1"/>
<line x1="288.83" y1="123.89" x2="292.83" y2="123.89" stroke="#333" stroke-width="1"/>
<line x1="288.83" y1="104.08" x2="292.83" y2="104.08" stroke="#333" stroke-width="1"/>
<rect x="302.38" y="85.64" width="19.12" height="94.36" fill="#616161" opacity="0.85"><title>Control — Cognitive: 4.323 ×10⁻³</title></rect>
<line x1="311.94" y1="101.71" x2="311.94" y2="74.57" stroke="#333" stroke-width="1"/>
<line x1="309.94" y1="101.71" x2="313.94" y2="101.71" stroke="#333" stroke-width="1"/>
<line x1="309.94" y1="74.57" x2="313.94" y2="74.57" stroke="#333" stroke-width="1"/>
<text x="302.4" y="194" text-anchor="end" font-size="10" fill="#2196F3" transform="rotate(-30,302.4,194)">Cognitive</text>
<rect x="335.88" y="117.17" width="19.12" height="62.83" fill="#2E7D32" opacity="0.85"><title>Partner Identity — Animacy: 2.878 ×10⁻³</title></rect>
<line x1="345.44" y1="129.35" x2="345.44" y2="111.90" stroke="#333" stroke-width="1"/>
<line x1="343.44" y1="129.35" x2="347.44" y2="129.35" stroke="#333" stroke-width="1"/>
<line x1="343.44" y1="111.90" x2="347.44" y2="111.90" stroke="#333" stroke-width="1"/>
<rect x="357.00" y="45.39" width="19.12" height="134.61" fill="#616161" opacity="0.85"><title>Control — Animacy: 6.167 ×10⁻³</title></rect>
<line x1="366.56" y1="71.04" x2="366.56" y2="35.99" stroke="#333" stroke-width="1"/>
<line x1="364.56" y1="71.04" x2="368.56" y2="71.04" stroke="#333" stroke-width="1"/>
<line x1="364.56" y1="35.99" x2="368.56" y2="35.99" stroke="#333" stroke-width="1"/>
<text x="357.0" y="194" text-anchor="end" font-size="10" fill="#2196F3" transform="rotate(-30,357.0,194)">Animacy</text>
<rect x="390.50" y="117.88" width="19.12" height="62.12" fill="#2E7D32" opacity="0.85"><title>Partner Identity — Intentions: 2.846 ×10⁻³</title></rect>
<line x1="400.06" y1="127.89" x2="400.06" y2="113.01" stroke="#333" stroke-width="1"/>
<line x1="398.06" y1="127.89" x2="402.06" y2="127.89" stroke="#333" stroke-width="1"/>
<line x1="398.06" y1="113.01" x2="402.06" y2="113.01" stroke="#333" stroke-width="1"/>
<rect x="411.62" y="78.47" width="19.12" height="101.53" fill="#616161" opacity="0.85"><title>Control — Intentions: 4.652 ×10⁻³</title></rect>
<line x1="421.17" y1="96.73" x2="421.17" y2="66.71" stroke="#333" stroke-width="1"/>
<line x1="419.17" y1="96.73" x2="423.17" y2="96.73" stroke="#333" stroke-width="1"/>
<line x1="419.17" y1="66.71" x2="423.17" y2="66.71" stroke="#333" stroke-width="1"/>
<text x="411.6" y="194" text-anchor="end" font-size="10" fill="#2196F3" transform="rotate(-30,411.6,194)">Intentions</text>
<rect x="445.12" y="121.52" width="19.12" height="58.48" fill="#2E7D32" opacity="0.85"><title>Partner Identity — Emotions: 2.679 ×10⁻³</title></rect>
<line x1="454.67" y1="128.85" x2="454.67" y2="118.44" stroke="#333" stroke-width="1"/>
<line x1="452.67" y1="128.85" x2="456.67" y2="128.85" stroke="#333" stroke-width="1"/>
<line x1="452.67" y1="118.44" x2="456.67" y2="118.44" stroke="#333" stroke-width="1"/>
<rect x="466.23" y="93.84" width="19.12" height="86.16" fill="#616161" opacity="0.85"><title>Control — Emotions: 3.947 ×10⁻³</title></rect>
<line x1="475.79" y1="104.57" x2="475.79" y2="88.16" stroke="#333" stroke-width="1"/>
<line x1="473.79" y1="104.57" x2="477.79" y2="104.57" stroke="#333" stroke-width="1"/>
<line x1="473.79" y1="88.16" x2="477.79" y2="88.16" stroke="#333" stroke-width="1"/>
<text x="466.2" y="194" text-anchor="end" font-size="10" fill="#2196F3" transform="rotate(-30,466.2,194)">Emotions</text>
<rect x="499.73" y="124.12" width="19.12" height="55.88" fill="#2E7D32" opacity="0.85"><title>Partner Identity — Embodiment: 2.560 ×10⁻³</title></rect>
<line x1="509.29" y1="134.70" x2="509.29" y2="118.47" stroke="#333" stroke-width="1"/>
<line x1="507.29" y1="134.70" x2="511.29" y2="134.70" stroke="#333" stroke-width="1"/>
<line x1="507.29" y1="118.47" x2="511.29" y2="118.47" stroke="#333" stroke-width="1"/>
<rect x="520.85" y="68.85" width="19.12" height="111.15" fill="#616161" opacity="0.85"><title>Control — Embodiment: 5.092 ×10⁻³</title></rect>
<line x1="530.40" y1="91.00" x2="530.40" y2="56.15" stroke="#333" stroke-width="1"/>
<line x1="528.40" y1="91.00" x2="532.40" y2="91.00" stroke="#333" stroke-width="1"/>
<line x1="528.40" y1="56.15" x2="532.40" y2="56.15" stroke="#333" stroke-width="1"/>
<text x="520.8" y="194" text-anchor="end" font-size="10" fill="#2196F3" transform="rotate(-30,520.8,194)">Embodiment</text>
<rect x="554.35" y="124.27" width="19.12" height="55.73" fill="#2E7D32" opacity="0.85"><title>Partner Identity — Phenomenology: 2.553 ×10⁻³</title></rect>
<line x1="563.90" y1="134.34" x2="563.90" y2="119.91" stroke="#333" stroke-width="1"/>
<line x1="561.90" y1="134.34" x2="565.90" y2="134.34" stroke="#333" stroke-width="1"/>
<line x1="561.90" y1="119.91" x2="565.90" y2="119.91" stroke="#333" stroke-width="1"/>
<rect x="575.46" y="80.88" width="19.12" height="99.12" fill="#616161" opacity="0.85"><title>Control — Phenomenology: 4.541 ×10⁻³</title></rect>
<line x1="585.02" y1="99.21" x2="585.02" y2="69.73" stroke="#333" stroke-width="1"/>
<line x1="583.02" y1="99.21" x2="587.02" y2="99.21" stroke="#333" stroke-width="1"/>
<line x1="583.02" y1="69.73" x2="587.02" y2="69.73" stroke="#333" stroke-width="1"/>
<text x="575.5" y="194" text-anchor="end" font-size="10" fill="#2196F3" transform="rotate(-30,575.5,194)">Phenomenology</text>
<line x1="600.7692307692307" y1="0" x2="600.7692307692307" y2="180" stroke="#ccc" stroke-width="1" stroke-dasharray="4,3"/>
<rect x="608.96" y="135.08" width="19.12" height="44.92" fill="#2E7D32" opacity="0.5"><title>Partner Identity — Biological: 2.058 ×10⁻³</title></rect>
<line x1="618.52" y1="141.28" x2="618.52" y2="131.45" stroke="#333" stroke-width="1"/>
<line x1="616.52" y1="141.28" x2="620.52" y2="141.28" stroke="#333" stroke-width="1"/>
<line x1="616.52" y1="131.45" x2="620.52" y2="131.45" stroke="#333" stroke-width="1"/>
<rect x="630.08" y="90.84" width="19.12" height="89.16" fill="#616161" opacity="0.5"><title>Control — Biological: 4.084 ×10⁻³</title></rect>
<line x1="639.63" y1="103.01" x2="639.63" y2="83.13" stroke="#333" stroke-width="1"/>
<line x1="637.63" y1="103.01" x2="641.63" y2="103.01" stroke="#333" stroke-width="1"/>
<line x1="637.63" y1="83.13" x2="641.63" y2="83.13" stroke="#333" stroke-width="1"/>
<text x="630.1" y="194" text-anchor="end" font-size="10" fill="#9E9E9E" transform="rotate(-30,630.1,194)">Biological</text>
<rect x="663.58" y="168.65" width="19.12" height="11.35" fill="#2E7D32" opacity="0.5"><title>Partner Identity — Shapes: 0.520 ×10⁻³</title></rect>
<line x1="673.13" y1="173.05" x2="673.13" y2="164.91" stroke="#333" stroke-width="1"/>
<line x1="671.13" y1="173.05" x2="675.13" y2="173.05" stroke="#333" stroke-width="1"/>
<line x1="671.13" y1="164.91" x2="675.13" y2="164.91" stroke="#333" stroke-width="1"/>
<rect x="684.69" y="166.02" width="19.12" height="13.98" fill="#616161" opacity="0.5"><title>Control — Shapes: 0.641 ×10⁻³</title></rect>
<line x1="694.25" y1="172.85" x2="694.25" y2="156.92" stroke="#333" stroke-width="1"/>
<line x1="692.25" y1="172.85" x2="696.25" y2="172.85" stroke="#333" stroke-width="1"/>
<line x1="692.25" y1="156.92" x2="696.25" y2="156.92" stroke="#333" stroke-width="1"/>
<text x="684.7" y="194" text-anchor="end" font-size="10" fill="#9E9E9E" transform="rotate(-30,684.7,194)">Shapes</text>
<line x1="0" y1="180" x2="710" y2="180" stroke="#333"/>
<line x1="0" y1="0" x2="0" y2="180" stroke="#333"/>
</g>
<rect x="70" y="300" width="10" height="10" fill="#2E7D32"/>
<text x="84" y="308" font-size="9" fill="#333">Partner Identity</text>
<rect x="210" y="300" width="10" height="10" fill="#616161"/>
<text x="224" y="308" font-size="9" fill="#333">Control</text>
</svg>