<svg viewBox="0 0 800 320" xmlns="http://www.w3.org/2000/svg" style="width:100%;max-width:800px;height:auto;font-family:Arial,sans-serif;">
<rect width="800" height="320" fill="white"/>

<g transform="translate(70,30)">
<line x1="0" y1="180.0" x2="710" y2="180.0" stroke="#eee" stroke-width="1"/>
<text x="-8" y="184.0" text-anchor="end" font-size="10" fill="#666">0.00</text>
<line x1="0" y1="144.0" x2="710" y2="144.0" stroke="#eee" stroke-width="1"/>
<text x="-8" y="148.0" text-anchor="end" font-size="10" fill="#666">1.61</text>
<line x1="0" y1="108.0" x2="710" y2="108.0" stroke="#eee" stroke-width="1"/>
<text x="-8" y="112.0" text-anchor="end" font-size="10" fill="#666">3.23</text>
<line x1="0" y1="72.0" x2="710" y2="72.0" stroke="#eee" stroke-width="1"/>
<text x="-8" y="76.0" text-anchor="end" font-size="10" fill="#666">4.84</text>
<line x1="0" y1="36.0" x2="710" y2="36.0" stroke="#eee" stroke-width="1"/>
<text x="-8" y="40.0" text-anchor="end" font-size="10" fill="#666">6.46</text>
<line x1="0" y1="0.0" x2="710" y2="0.0" stroke="#eee" stroke-width="1"/>
<text x="-8" y="4.0" text-anchor="end" font-size="10" fill="#666">8.07</text>
<text x="-50" y="90.0" text-anchor="middle" font-size="11" fill="#333" transform="rotate(-90,-50,90.0)">Mean R² (×10⁻³)</text>
<rect x="8.19" y="33.05" width="19.12" height="146.95" fill="#2E7D32" opacity="0.85"><title>Partner Identity — Social: 6.591 ×10⁻³</title></rect>
<line x1="17.75" y1="52.11" x2="17.75" y2="24.16" stroke="#333" stroke-width="1"/>
<line x1="15.75" y1="52.11" x2="19.75" y2="52.11" stroke="#333" stroke-width="1"/>
<line x1="15.75" y1="24.16" x2="19.75" y2="24.16" stroke="#333" stroke-width="1"/>
<rect x="29.31" y="163.43" width="19.12" height="16.57" fill="#616161" opacity="0.85"><title>Control — Social: 0.743 ×10⁻³</title></rect>
<line x1="38.87" y1="167.97" x2="38.87" y2="156.01" stroke="#333" stroke-width="1"/>
<line x1="36.87" y1="167.97" x2="40.87" y2="167.97" stroke="#333" stroke-width="1"/>
<line x1="36.87" y1="156.01" x2="40.87" y2="156.01" stroke="#333" stroke-width="1"/>
<text x="29.3" y="194" text-anchor="end" font-size="10" fill="#2196F3" transform="rotate(-30,29.3,194)">Social</text>
<rect x="62.81" y="36.77" width="19.12" height="143.23" fill="#2E7D32" opacity="0.85"><title>Partner Identity — Attention: 6.424 ×10⁻³</title></rect>
<line x1="72.37" y1="57.33" x2="72.37" y2="29.47" stroke="#333" stroke-width="1"/>
<line x1="70.37" y1="57.33" x2="74.37" y2="57.33" stroke="#333" stroke-width="1"/>
<line x1="70.37" y1="29.47" x2="74.37" y2="29.47" stroke="#333" stroke-width="1"/>
<rect x="83.92" y="157.20" width="19.12" height="22.80" fill="#616161" opacity="0.85"><title>Control — Attention: 1.022 ×10⁻³</title></rect>
<line x1="93.48" y1="164.13" x2="93.48" y2="151.34" stroke="#333" stroke-width="1"/>
<line x1="91.48" y1="164.13" x2="95.48" y2="164.13" stroke="#333" stroke-width="1"/>
<line x1="91.48" y1="151.34" x2="95.48" y2="151.34" stroke="#333" stroke-width="1"/>
<text x="83.9" y="194" text-anchor="end" font-size="10" fill="#2196F3" transform="rotate(-30,83.9,194)">Attention</text>
<rect x="117.42" y="42.99" width="19.12" height="137.01" fill="#2E7D32" opacity="0.85"><title>Partner Identity — Prediction: 6.145 ×10⁻³</title></rect>
<line x1="126.98" y1="62.03" x2="126.98" y2="34.91" stroke="#333" stroke-width="1"/>
<line x1="124.98" y1="62.03" x2="128.98" y2="62.03" stroke="#333" stroke-width="1"/>
<line x1="124.98" y1="34.91" x2="128.98" y2="34.91" stroke="#333" stroke-width="1"/>
<rect x="138.54" y="158.63" width="19.12" height="21.37" fill="#616161" opacity="0.85"><title>Control — Prediction: 0.959 ×10⁻³</title></rect>
<line x1="148.10" y1="165.10" x2="148.10" y2="149.70" stroke="#333" stroke-width="1"/>
<line x1="146.10" y1="165.10" x2="150.10" y2="165.10" stroke="#333" stroke-width="1"/>
<line x1="146.10" y1="149.70" x2="150.10" y2="149.70" stroke="#333" stroke-width="1"/>
<text x="138.5" y="194" text-anchor="end" font-size="10" fill="#2196F3" transform="rotate(-30,138.5,194)">Prediction</text>
<rect x="172.04" y="56.71" width="19.12" height="123.29" fill="#2E7D32" opacity="0.85"><title>Partner Identity — Cognitive: 5.530 ×10⁻³</title></rect>
<line x1="181.60" y1="75.25" x2="181.60" y2="48.11" stroke="#333" stroke-width="1"/>
<line x1="179.60" y1="75.25" x2="183.60" y2="75.25" stroke="#333" stroke-width="1"/>
<line x1="179.60" y1="48.11" x2="183.60" y2="48.11" stroke="#333" stroke-width="1"/>
<rect x="193.15" y="146.06" width="19.12" height="33.94" fill="#616161" opacity="0.85"><title>Control — Cognitive: 1.522 ×10⁻³</title></rect>
<line x1="202.71" y1="155.72" x2="202.71" y2="141.10" stroke="#333" stroke-width="1"/>
<line x1="200.71" y1="155.72" x2="204.71" y2="155.72" stroke="#333" stroke-width="1"/>
<line x1="200.71" y1="141.10" x2="204.71" y2="141.10" stroke="#333" stroke-width="1"/>
<text x="193.2" y="194" text-anchor="end" font-size="10" fill="#2196F3" transform="rotate(-30,193.2,194)">Cognitive</text>
<rect x="226.65" y="58.36" width="19.12" height="121.64" fill="#2E7D32" opacity="0.85"><title>Partner Identity — Agency: 5.456 ×10⁻³</title></rect>
<line x1="236.21" y1="74.71" x2="236.21" y2="51.91" stroke="#333" stroke-width="1"/>
<line x1="234.21" y1="74.71" x2="238.21" y2="74.71" stroke="#333" stroke-width="1"/>
<line x1="234.21" y1="51.91" x2="238.21" y2="51.91" stroke="#333" stroke-width="1"/>
<rect x="247.77" y="153.35" width="19.12" height="26.65" fill="#616161" opacity="0.85"><title>Control — Agency: 1.195 ×10⁻³</title></rect>
<line x1="257.33" y1="162.28" x2="257.33" y2="142.42" stroke="#333" stroke-width="1"/>
<line x1="255.33" y1="162.28" x2="259.33" y2="162.28" stroke="#333" stroke-width="1"/>
<line x1="255.33" y1="142.42" x2="259.33" y2="142.42" stroke="#333" stroke-width="1"/>
<text x="247.8" y="194" text-anchor="end" font-size="10" fill="#2196F3" transform="rotate(-30,247.8,194)">Agency</text>
<rect x="281.27" y="64.19" width="19.12" height="115.81" fill="#2E7D32" opacity="0.85"><title>Partner Identity — Intentions: 5.194 ×10⁻³</title></rect>
<line x1="290.83" y1="81.89" x2="290.83" y2="55.52" stroke="#333" stroke-width="1"/>
<line x1="288.83" y1="81.89" x2="292.83" y2="81.89" stroke="#333" stroke-width="1"/>
<line x1="288.83" y1="55.52" x2="292.83" y2="55.52" stroke="#333" stroke-width="1"/>
<rect x="302.38" y="147.45" width="19.12" height="32.55" fill="#616161" opacity="0.85"><title>Control — Intentions: 1.460 ×10⁻³</title></rect>
<line x1="311.94" y1="156.77" x2="311.94" y2="140.27" stroke="#333" stroke-width="1"/>
<line x1="309.94" y1="156.77" x2="313.94" y2="156.77" stroke="#333" stroke-width="1"/>
<line x1="309.94" y1="140.27" x2="313.94" y2="140.27" stroke="#333" stroke-width="1"/>
<text x="302.4" y="194" text-anchor="end" font-size="10" fill="#2196F3" transform="rotate(-30,302.4,194)">Intentions</text>
<rect x="335.88" y="63.97" width="19.12" height="116.03" fill="#2E7D32" opacity="0.85"><title>Partner Identity — Roles: 5.204 ×10⁻³</title></rect>
<line x1="345.44" y1="85.03" x2="345.44" y2="52.41" stroke="#333" stroke-width="1"/>
<line x1="343.44" y1="85.03" x2="347.44" y2="85.03" stroke="#333" stroke-width="1"/>
<line x1="343.44" y1="52.41" x2="347.44" y2="52.41" stroke="#333" stroke-width="1"/>
<rect x="357.00" y="163.47" width="19.12" height="16.53" fill="#616161" opacity="0.85"><title>Control — Roles: 0.741 ×10⁻³</title></rect>
<line x1="366.56" y1="167.78" x2="366.56" y2="155.45" stroke="#333" stroke-width="1"/>
<line x1="364.56" y1="167.78" x2="368.56" y2="167.78" stroke="#333" stroke-width="1"/>
<line x1="364.56" y1="155.45" x2="368.56" y2="155.45" stroke="#333" stroke-width="1"/>
<text x="357.0" y="194" text-anchor="end" font-size="10" fill="#2196F3" transform="rotate(-30,357.0,194)">Roles</text>
<rect x="390.50" y="74.43" width="19.12" height="105.57" fill="#2E7D32" opacity="0.85"><title>Partner Identity — Emotions: 4.735 ×10⁻³</title></rect>
<line x1="400.06" y1="87.07" x2="400.06" y2="66.90" stroke="#333" stroke-width="1"/>
<line x1="398.06" y1="87.07" x2="402.06" y2="87.07" stroke="#333" stroke-width="1"/>
<line x1="398.06" y1="66.90" x2="402.06" y2="66.90" stroke="#333" stroke-width="1"/>
<rect x="411.62" y="164.77" width="19.12" height="15.23" fill="#616161" opacity="0.85"><title>Control — Emotions: 0.683 ×10⁻³</title></rect>
<line x1="421.17" y1="167.51" x2="421.17" y2="161.98" stroke="#333" stroke-width="1"/>
<line x1="419.17" y1="167.51" x2="423.17" y2="167.51" stroke="#333" stroke-width="1"/>
<line x1="419.17" y1="161.98" x2="423.17" y2="161.98" stroke="#333" stroke-width="1"/>
<text x="411.6" y="194" text-anchor="end" font-size="10" fill="#2196F3" transform="rotate(-30,411.6,194)">Emotions</text>
<rect x="445.12" y="84.73" width="19.12" height="95.27" fill="#2E7D32" opacity="0.85"><title>Partner Identity — Phenomenology: 4.273 ×10⁻³</title></rect>
<line x1="454.67" y1="99.59" x2="454.67" y2="79.85" stroke="#333" stroke-width="1"/>
<line x1="452.67" y1="99.59" x2="456.67" y2="99.59" stroke="#333" stroke-width="1"/>
<line x1="452.67" y1="79.85" x2="456.67" y2="79.85" stroke="#333" stroke-width="1"/>
<rect x="466.23" y="158.01" width="19.12" height="21.99" fill="#616161" opacity="0.85"><title>Control — Phenomenology: 0.986 ×10⁻³</title></rect>
<line x1="475.79" y1="165.18" x2="475.79" y2="152.09" stroke="#333" stroke-width="1"/>
<line x1="473.79" y1="165.18" x2="477.79" y2="165.18" stroke="#333" stroke-width="1"/>
<line x1="473.79" y1="152.09" x2="477.79" y2="152.09" stroke="#333" stroke-width="1"/>
<text x="466.2" y="194" text-anchor="end" font-size="10" fill="#2196F3" transform="rotate(-30,466.2,194)">Phenomenology</text>
<rect x="499.73" y="88.42" width="19.12" height="91.58" fill="#2E7D32" opacity="0.85"><title>Partner Identity — Embodiment: 4.108 ×10⁻³</title></rect>
<line x1="509.29" y1="101.56" x2="509.29" y2="82.52" stroke="#333" stroke-width="1"/>
<line x1="507.29" y1="101.56" x2="511.29" y2="101.56" stroke="#333" stroke-width="1"/>
<line x1="507.29" y1="82.52" x2="511.29" y2="82.52" stroke="#333" stroke-width="1"/>
<rect x="520.85" y="156.09" width="19.12" height="23.91" fill="#616161" opacity="0.85"><title>Control — Embodiment: 1.073 ×10⁻³</title></rect>
<line x1="530.40" y1="163.05" x2="530.40" y2="148.04" stroke="#333" stroke-width="1"/>
<line x1="528.40" y1="163.05" x2="532.40" y2="163.05" stroke="#333" stroke-width="1"/>
<line x1="528.40" y1="148.04" x2="532.40" y2="148.04" stroke="#333" stroke-width="1"/>
<text x="520.8" y="194" text-anchor="end" font-size="10" fill="#2196F3" transform="rotate(-30,520.8,194)">Embodiment</text>
<rect x="554.35" y="100.53" width="19.12" height="79.47" fill="#2E7D32" opacity="0.85"><title>Partner Identity — Animacy: 3.565 ×10⁻³</title></rect>
<line x1="563.90" y1="117.10" x2="563.90" y2="90.97" stroke="#333" stroke-width="1"/>
<line x1="561.90" y1="117.10" x2="565.90" y2="117.10" stroke="#333" stroke-width="1"/>
<line x1="561.90" y1="90.97" x2="565.90" y2="90.97" stroke="#333" stroke-width="1"/>
<rect x="575.46" y="169.98" width="19.12" height="10.02" fill="#616161" opacity="0.85"><title>Control — Animacy: 0.449 ×10⁻³</title></rect>
<line x1="585.02" y1="171.47" x2="585.02" y2="167.46" stroke="#333" stroke-width="1"/>
<line x1="583.02" y1="171.47" x2="587.02" y2="171.47" stroke="#333" stroke-width="1"/>
<line x1="583.02" y1="167.46" x2="587.02" y2="167.46" stroke="#333" stroke-width="1"/>
<text x="575.5" y="194" text-anchor="end" font-size="10" fill="#2196F3" transform="rotate(-30,575.5,194)">Animacy</text>
<line x1="600.7692307692307" y1="0" x2="600.7692307692307" y2="180" stroke="#ccc" stroke-width="1" stroke-dasharray="4,3"/>
<rect x="608.96" y="124.40" width="19.12" height="55.60" fill="#2E7D32" opacity="0.5"><title>Partner Identity — Biological: 2.494 ×10⁻³</title></rect>
<line x1="618.52" y1="131.95" x2="618.52" y2="119.19" stroke="#333" stroke-width="1"/>
<line x1="616.52" y1="131.95" x2="620.52" y2="131.95" stroke="#333" stroke-width="1"/>
<line x1="616.52" y1="119.19" x2="620.52" y2="119.19" stroke="#333" stroke-width="1"/>
<rect x="630.08" y="161.84" width="19.12" height="18.16" fill="#616161" opacity="0.5"><title>Control — Biological: 0.814 ×10⁻³</title></rect>
<line x1="639.63" y1="166.57" x2="639.63" y2="156.40" stroke="#333" stroke-width="1"/>
<line x1="637.63" y1="166.57" x2="641.63" y2="166.57" stroke="#333" stroke-width="1"/>
<line x1="637.63" y1="156.40" x2="641.63" y2="156.40" stroke="#333" stroke-width="1"/>
<text x="630.1" y="194" text-anchor="end" font-size="10" fill="#9E9E9E" transform="rotate(-30,630.1,194)">Biological</text>
<rect x="663.58" y="168.47" width="19.12" height="11.53" fill="#2E7D32" opacity="0.5"><title>Partner Identity — Shapes: 0.517 ×10⁻³</title></rect>
<line x1="673.13" y1="174.08" x2="673.13" y2="163.10" stroke="#333" stroke-width="1"/>
<line x1="671.13" y1="174.08" x2="675.13" y2="174.08" stroke="#333" stroke-width="1"/>
<line x1="671.13" y1="163.10" x2="675.13" y2="163.10" stroke="#333" stroke-width="1"/>
<rect x="684.69" y="172.30" width="19.12" height="7.70" fill="#616161" opacity="0.5"><title>Control — Shapes: 0.345 ×10⁻³</title></rect>
<line x1="694.25" y1="176.56" x2="694.25" y2="160.44" stroke="#333" stroke-width="1"/>
<line x1="692.25" y1="176.56" x2="696.25" y2="176.56" stroke="#333" stroke-width="1"/>
<line x1="692.25" y1="160.44" x2="696.25" y2="160.44" stroke="#333" stroke-width="1"/>
<text x="684.7" y="194" text-anchor="end" font-size="10" fill="#9E9E9E" transform="rotate(-30,684.7,194)">Shapes</text>
<line x1="0" y1="180" x2="710" y2="180" stroke="#333"/>
<line x1="0" y1="0" x2="0" y2="180" stroke="#333"/>
</g>
<rect x="70" y="300" width="10" height="10" fill="#2E7D32"/>
<text x="84" y="308" font-size="9" fill="#333">Partner Identity</text>
<rect x="210" y="300" width="10" height="10" fill="#616161"/>
<text x="224" y="308" font-size="9" fill="#333">Control</text>
</svg>