<svg viewBox="0 0 700 360" xmlns="http://www.w3.org/2000/svg" style="width:100%;max-width:700px;height:auto;font-family:Arial,sans-serif;">
<rect width="700" height="360" fill="white"/>

<g transform="translate(70,30)">
<line x1="0" y1="210.0" x2="610" y2="210.0" stroke="#eee" stroke-width="1"/>
<text x="-8" y="214.0" text-anchor="end" font-size="10" fill="#666">0.00</text>
<line x1="0" y1="168.0" x2="610" y2="168.0" stroke="#eee" stroke-width="1"/>
<text x="-8" y="172.0" text-anchor="end" font-size="10" fill="#666">1.61</text>
<line x1="0" y1="126.0" x2="610" y2="126.0" stroke="#eee" stroke-width="1"/>
<text x="-8" y="130.0" text-anchor="end" font-size="10" fill="#666">3.23</text>
<line x1="0" y1="84.0" x2="610" y2="84.0" stroke="#eee" stroke-width="1"/>
<text x="-8" y="88.0" text-anchor="end" font-size="10" fill="#666">4.84</text>
<line x1="0" y1="42.0" x2="610" y2="42.0" stroke="#eee" stroke-width="1"/>
<text x="-8" y="46.0" text-anchor="end" font-size="10" fill="#666">6.46</text>
<line x1="0" y1="0.0" x2="610" y2="0.0" stroke="#eee" stroke-width="1"/>
<text x="-8" y="4.0" text-anchor="end" font-size="10" fill="#666">8.07</text>
<text x="-50" y="105.0" text-anchor="middle" font-size="11" fill="#333" transform="rotate(-90,-50,105.0)">Mean R² (×10⁻³)</text>
<line x1="305.0" y1="0" x2="305.0" y2="210" stroke="#ccc" stroke-width="1" stroke-dasharray="4,3"/>
<rect x="22.88" y="203.62" width="53.38" height="6.38" fill="#81C784" opacity="0.85"><title>Partner Identity — Biological: 0.245 ×10⁻³</title></rect>
<line x1="49.56" y1="205.16" x2="49.56" y2="201.41" stroke="#333" stroke-width="1"/>
<line x1="47.56" y1="205.16" x2="51.56" y2="205.16" stroke="#333" stroke-width="1"/>
<line x1="47.56" y1="201.41" x2="51.56" y2="201.41" stroke="#333" stroke-width="1"/>
<rect x="78.25" y="202.39" width="53.38" height="7.61" fill="#BDBDBD" opacity="0.85"><title>Control — Biological: 0.293 ×10⁻³</title></rect>
<line x1="104.94" y1="203.53" x2="104.94" y2="201.20" stroke="#333" stroke-width="1"/>
<line x1="102.94" y1="203.53" x2="106.94" y2="203.53" stroke="#333" stroke-width="1"/>
<line x1="102.94" y1="201.20" x2="106.94" y2="201.20" stroke="#333" stroke-width="1"/>
<text x="78.2" y="224" text-anchor="end" font-size="10" fill="#9E9E9E" transform="rotate(-30,78.2,224)">Biological</text>
<rect x="175.38" y="197.92" width="53.38" height="12.08" fill="#81C784" opacity="0.85"><title>Partner Identity — Shapes: 0.464 ×10⁻³</title></rect>
<line x1="202.06" y1="202.52" x2="202.06" y2="192.74" stroke="#333" stroke-width="1"/>
<line x1="200.06" y1="202.52" x2="204.06" y2="202.52" stroke="#333" stroke-width="1"/>
<line x1="200.06" y1="192.74" x2="204.06" y2="192.74" stroke="#333" stroke-width="1"/>
<rect x="230.75" y="205.42" width="53.38" height="4.58" fill="#BDBDBD" opacity="0.85"><title>Control — Shapes: 0.176 ×10⁻³</title></rect>
<line x1="257.44" y1="206.70" x2="257.44" y2="202.98" stroke="#333" stroke-width="1"/>
<line x1="255.44" y1="206.70" x2="259.44" y2="206.70" stroke="#333" stroke-width="1"/>
<line x1="255.44" y1="202.98" x2="259.44" y2="202.98" stroke="#333" stroke-width="1"/>
<text x="230.8" y="224" text-anchor="end" font-size="10" fill="#9E9E9E" transform="rotate(-30,230.8,224)">Shapes</text>
<rect x="327.88" y="200.66" width="53.38" height="9.34" fill="#81C784" opacity="0.85"><title>Partner Identity — Mental: 0.359 ×10⁻³</title></rect>
<line x1="354.56" y1="203.44" x2="354.56" y2="196.65" stroke="#333" stroke-width="1"/>
<line x1="352.56" y1="203.44" x2="356.56" y2="203.44" stroke="#333" stroke-width="1"/>
<line x1="352.56" y1="196.65" x2="356.56" y2="196.65" stroke="#333" stroke-width="1"/>
<rect x="383.25" y="202.03" width="53.38" height="7.97" fill="#BDBDBD" opacity="0.85"><title>Control — Mental: 0.306 ×10⁻³</title></rect>
<line x1="409.94" y1="203.50" x2="409.94" y2="200.46" stroke="#333" stroke-width="1"/>
<line x1="407.94" y1="203.50" x2="411.94" y2="203.50" stroke="#333" stroke-width="1"/>
<line x1="407.94" y1="200.46" x2="411.94" y2="200.46" stroke="#333" stroke-width="1"/>
<text x="383.2" y="224" text-anchor="end" font-size="10" fill="#2196F3" transform="rotate(-30,383.2,224)">Mental</text>
<rect x="480.38" y="198.39" width="53.38" height="11.61" fill="#81C784" opacity="0.85"><title>Partner Identity — Pragmatic: 0.446 ×10⁻³</title></rect>
<line x1="507.06" y1="202.67" x2="507.06" y2="194.30" stroke="#333" stroke-width="1"/>
<line x1="505.06" y1="202.67" x2="509.06" y2="202.67" stroke="#333" stroke-width="1"/>
<line x1="505.06" y1="194.30" x2="509.06" y2="194.30" stroke="#333" stroke-width="1"/>
<rect x="535.75" y="203.46" width="53.38" height="6.54" fill="#BDBDBD" opacity="0.85"><title>Control — Pragmatic: 0.251 ×10⁻³</title></rect>
<line x1="562.44" y1="205.00" x2="562.44" y2="201.97" stroke="#333" stroke-width="1"/>
<line x1="560.44" y1="205.00" x2="564.44" y2="205.00" stroke="#333" stroke-width="1"/>
<line x1="560.44" y1="201.97" x2="564.44" y2="201.97" stroke="#333" stroke-width="1"/>
<text x="535.8" y="224" text-anchor="end" font-size="10" fill="#FF9800" transform="rotate(-30,535.8,224)">Pragmatic</text>
<line x1="0" y1="210" x2="610" y2="210" stroke="#333"/>
<line x1="0" y1="0" x2="0" y2="210" stroke="#333"/>
</g>
<text x="222" y="322" text-anchor="middle" font-size="10" fill="#666" font-style="italic">Control Dimensions</text>
<text x="528" y="322" text-anchor="middle" font-size="10" fill="#666" font-style="italic">Category Averages</text>
<rect x="70" y="340" width="10" height="10" fill="#81C784"/>
<text x="84" y="348" font-size="9" fill="#333">Partner Identity</text>
<rect x="210" y="340" width="10" height="10" fill="#BDBDBD"/>
<text x="224" y="348" font-size="9" fill="#333">Control</text>
</svg>