<svg viewBox="0 0 800 340" xmlns="http://www.w3.org/2000/svg" style="width:100%;max-width:800px;height:auto;font-family:Arial,sans-serif;">
<rect width="800" height="340" fill="white"/>

<g transform="translate(70,30)">
<line x1="0" y1="190.0" x2="710" y2="190.0" stroke="#eee" stroke-width="1"/>
<text x="-8" y="194.0" text-anchor="end" font-size="10" fill="#666">0.00</text>
<line x1="0" y1="152.0" x2="710" y2="152.0" stroke="#eee" stroke-width="1"/>
<text x="-8" y="156.0" text-anchor="end" font-size="10" fill="#666">0.94</text>
<line x1="0" y1="114.0" x2="710" y2="114.0" stroke="#eee" stroke-width="1"/>
<text x="-8" y="118.0" text-anchor="end" font-size="10" fill="#666">1.88</text>
<line x1="0" y1="76.0" x2="710" y2="76.0" stroke="#eee" stroke-width="1"/>
<text x="-8" y="80.0" text-anchor="end" font-size="10" fill="#666">2.82</text>
<line x1="0" y1="38.0" x2="710" y2="38.0" stroke="#eee" stroke-width="1"/>
<text x="-8" y="42.0" text-anchor="end" font-size="10" fill="#666">3.76</text>
<line x1="0" y1="0.0" x2="710" y2="0.0" stroke="#eee" stroke-width="1"/>
<text x="-8" y="4.0" text-anchor="end" font-size="10" fill="#666">4.70</text>
<text x="-50" y="95.0" text-anchor="middle" font-size="11" fill="#333" transform="rotate(-90,-50,95.0)">Mean R² (×10⁻³)</text>
<line x1="118.33333333333333" y1="0" x2="118.33333333333333" y2="190" stroke="#ddd" stroke-width="1" stroke-dasharray="4,3"/>
<rect x="5.92" y="163.64" width="13.81" height="26.36" fill="#81C784" opacity="0.85"><title>Partner Identity: 0.653 ×10⁻³</title></rect>
<line x1="12.82" y1="169.28" x2="12.82" y2="159.42" stroke="#333" stroke-width="1"/>
<line x1="10.82" y1="169.28" x2="14.82" y2="169.28" stroke="#333" stroke-width="1"/>
<line x1="10.82" y1="159.42" x2="14.82" y2="159.42" stroke="#333" stroke-width="1"/>
<rect x="21.72" y="182.46" width="13.81" height="7.54" fill="#BDBDBD" opacity="0.85"><title>Control: 0.187 ×10⁻³</title></rect>
<line x1="28.62" y1="183.25" x2="28.62" y2="180.52" stroke="#333" stroke-width="1"/>
<line x1="26.62" y1="183.25" x2="30.62" y2="183.25" stroke="#333" stroke-width="1"/>
<line x1="26.62" y1="180.52" x2="30.62" y2="180.52" stroke="#333" stroke-width="1"/>
<text x="21.7" y="204" text-anchor="end" font-size="9" fill="#9E9E9E" transform="rotate(-45,21.7,204)">Human vs AI (general)</text>
<rect x="45.36" y="176.77" width="13.81" height="13.23" fill="#81C784" opacity="0.85"><title>Partner Identity: 0.327 ×10⁻³</title></rect>
<line x1="52.26" y1="178.64" x2="52.26" y2="174.21" stroke="#333" stroke-width="1"/>
<line x1="50.26" y1="178.64" x2="54.26" y2="178.64" stroke="#333" stroke-width="1"/>
<line x1="50.26" y1="174.21" x2="54.26" y2="174.21" stroke="#333" stroke-width="1"/>
<rect x="61.17" y="181.66" width="13.81" height="8.34" fill="#BDBDBD" opacity="0.85"><title>Control: 0.207 ×10⁻³</title></rect>
<line x1="68.07" y1="182.75" x2="68.07" y2="180.55" stroke="#333" stroke-width="1"/>
<line x1="66.07" y1="182.75" x2="70.07" y2="182.75" stroke="#333" stroke-width="1"/>
<line x1="66.07" y1="180.55" x2="70.07" y2="180.55" stroke="#333" stroke-width="1"/>
<text x="61.2" y="204" text-anchor="end" font-size="9" fill="#9E9E9E" transform="rotate(-45,61.2,204)">Biological</text>
<rect x="84.81" y="177.72" width="13.81" height="12.28" fill="#81C784" opacity="0.85"><title>Partner Identity: 0.304 ×10⁻³</title></rect>
<line x1="91.71" y1="183.30" x2="91.71" y2="171.74" stroke="#333" stroke-width="1"/>
<line x1="89.71" y1="183.30" x2="93.71" y2="183.30" stroke="#333" stroke-width="1"/>
<line x1="89.71" y1="171.74" x2="93.71" y2="171.74" stroke="#333" stroke-width="1"/>
<rect x="100.61" y="181.67" width="13.81" height="8.33" fill="#BDBDBD" opacity="0.85"><title>Control: 0.206 ×10⁻³</title></rect>
<line x1="107.51" y1="183.57" x2="107.51" y2="179.47" stroke="#333" stroke-width="1"/>
<line x1="105.51" y1="183.57" x2="109.51" y2="183.57" stroke="#333" stroke-width="1"/>
<line x1="105.51" y1="179.47" x2="109.51" y2="179.47" stroke="#333" stroke-width="1"/>
<text x="100.6" y="204" text-anchor="end" font-size="9" fill="#9E9E9E" transform="rotate(-45,100.6,204)">Shapes</text>
<rect x="124.25" y="172.13" width="13.81" height="17.87" fill="#81C784" opacity="0.85"><title>Partner Identity: 0.443 ×10⁻³</title></rect>
<line x1="131.15" y1="175.78" x2="131.15" y2="168.30" stroke="#333" stroke-width="1"/>
<line x1="129.15" y1="175.78" x2="133.15" y2="175.78" stroke="#333" stroke-width="1"/>
<line x1="129.15" y1="168.30" x2="133.15" y2="168.30" stroke="#333" stroke-width="1"/>
<rect x="140.06" y="181.42" width="13.81" height="8.58" fill="#BDBDBD" opacity="0.85"><title>Control: 0.212 ×10⁻³</title></rect>
<line x1="146.96" y1="182.74" x2="146.96" y2="180.25" stroke="#333" stroke-width="1"/>
<line x1="144.96" y1="182.74" x2="148.96" y2="182.74" stroke="#333" stroke-width="1"/>
<line x1="144.96" y1="180.25" x2="148.96" y2="180.25" stroke="#333" stroke-width="1"/>
<text x="140.1" y="204" text-anchor="end" font-size="9" fill="#2196F3" transform="rotate(-45,140.1,204)">Phenomenology</text>
<rect x="163.69" y="171.80" width="13.81" height="18.20" fill="#81C784" opacity="0.85"><title>Partner Identity: 0.451 ×10⁻³</title></rect>
<line x1="170.60" y1="175.25" x2="170.60" y2="167.95" stroke="#333" stroke-width="1"/>
<line x1="168.60" y1="175.25" x2="172.60" y2="175.25" stroke="#333" stroke-width="1"/>
<line x1="168.60" y1="167.95" x2="172.60" y2="167.95" stroke="#333" stroke-width="1"/>
<rect x="179.50" y="183.10" width="13.81" height="6.90" fill="#BDBDBD" opacity="0.85"><title>Control: 0.171 ×10⁻³</title></rect>
<line x1="186.40" y1="183.91" x2="186.40" y2="182.00" stroke="#333" stroke-width="1"/>
<line x1="184.40" y1="183.91" x2="188.40" y2="183.91" stroke="#333" stroke-width="1"/>
<line x1="184.40" y1="182.00" x2="188.40" y2="182.00" stroke="#333" stroke-width="1"/>
<text x="179.5" y="204" text-anchor="end" font-size="9" fill="#2196F3" transform="rotate(-45,179.5,204)">Emotions</text>
<rect x="203.14" y="168.20" width="13.81" height="21.80" fill="#81C784" opacity="0.85"><title>Partner Identity: 0.540 ×10⁻³</title></rect>
<line x1="210.04" y1="174.18" x2="210.04" y2="159.57" stroke="#333" stroke-width="1"/>
<line x1="208.04" y1="174.18" x2="212.04" y2="174.18" stroke="#333" stroke-width="1"/>
<line x1="208.04" y1="159.57" x2="212.04" y2="159.57" stroke="#333" stroke-width="1"/>
<rect x="218.94" y="184.23" width="13.81" height="5.77" fill="#BDBDBD" opacity="0.85"><title>Control: 0.143 ×10⁻³</title></rect>
<line x1="225.85" y1="185.16" x2="225.85" y2="182.36" stroke="#333" stroke-width="1"/>
<line x1="223.85" y1="185.16" x2="227.85" y2="185.16" stroke="#333" stroke-width="1"/>
<line x1="223.85" y1="182.36" x2="227.85" y2="182.36" stroke="#333" stroke-width="1"/>
<text x="218.9" y="204" text-anchor="end" font-size="9" fill="#2196F3" transform="rotate(-45,218.9,204)">Agency</text>
<rect x="242.58" y="162.76" width="13.81" height="27.24" fill="#81C784" opacity="0.85"><title>Partner Identity: 0.675 ×10⁻³</title></rect>
<line x1="249.49" y1="171.46" x2="249.49" y2="153.10" stroke="#333" stroke-width="1"/>
<line x1="247.49" y1="171.46" x2="251.49" y2="171.46" stroke="#333" stroke-width="1"/>
<line x1="247.49" y1="153.10" x2="251.49" y2="153.10" stroke="#333" stroke-width="1"/>
<rect x="258.39" y="183.19" width="13.81" height="6.81" fill="#BDBDBD" opacity="0.85"><title>Control: 0.169 ×10⁻³</title></rect>
<line x1="265.29" y1="183.94" x2="265.29" y2="181.92" stroke="#333" stroke-width="1"/>
<line x1="263.29" y1="183.94" x2="267.29" y2="183.94" stroke="#333" stroke-width="1"/>
<line x1="263.29" y1="181.92" x2="267.29" y2="181.92" stroke="#333" stroke-width="1"/>
<text x="258.4" y="204" text-anchor="end" font-size="9" fill="#2196F3" transform="rotate(-45,258.4,204)">Intentions</text>
<rect x="282.03" y="161.05" width="13.81" height="28.95" fill="#81C784" opacity="0.85"><title>Partner Identity: 0.717 ×10⁻³</title></rect>
<line x1="288.93" y1="166.58" x2="288.93" y2="153.87" stroke="#333" stroke-width="1"/>
<line x1="286.93" y1="166.58" x2="290.93" y2="166.58" stroke="#333" stroke-width="1"/>
<line x1="286.93" y1="153.87" x2="290.93" y2="153.87" stroke="#333" stroke-width="1"/>
<rect x="297.83" y="182.81" width="13.81" height="7.19" fill="#BDBDBD" opacity="0.85"><title>Control: 0.178 ×10⁻³</title></rect>
<line x1="304.74" y1="183.87" x2="304.74" y2="181.10" stroke="#333" stroke-width="1"/>
<line x1="302.74" y1="183.87" x2="306.74" y2="183.87" stroke="#333" stroke-width="1"/>
<line x1="302.74" y1="181.10" x2="306.74" y2="181.10" stroke="#333" stroke-width="1"/>
<text x="297.8" y="204" text-anchor="end" font-size="9" fill="#2196F3" transform="rotate(-45,297.8,204)">Prediction</text>
<rect x="321.47" y="155.17" width="13.81" height="34.83" fill="#81C784" opacity="0.85"><title>Partner Identity: 0.862 ×10⁻³</title></rect>
<line x1="328.38" y1="164.08" x2="328.38" y2="149.26" stroke="#333" stroke-width="1"/>
<line x1="326.38" y1="164.08" x2="330.38" y2="164.08" stroke="#333" stroke-width="1"/>
<line x1="326.38" y1="149.26" x2="330.38" y2="149.26" stroke="#333" stroke-width="1"/>
<rect x="337.28" y="179.77" width="13.81" height="10.23" fill="#BDBDBD" opacity="0.85"><title>Control: 0.253 ×10⁻³</title></rect>
<line x1="344.18" y1="181.91" x2="344.18" y2="178.36" stroke="#333" stroke-width="1"/>
<line x1="342.18" y1="181.91" x2="346.18" y2="181.91" stroke="#333" stroke-width="1"/>
<line x1="342.18" y1="178.36" x2="346.18" y2="178.36" stroke="#333" stroke-width="1"/>
<text x="337.3" y="204" text-anchor="end" font-size="9" fill="#2196F3" transform="rotate(-45,337.3,204)">Cognitive</text>
<rect x="360.92" y="161.35" width="13.81" height="28.65" fill="#81C784" opacity="0.85"><title>Partner Identity: 0.709 ×10⁻³</title></rect>
<line x1="367.82" y1="169.45" x2="367.82" y2="146.96" stroke="#333" stroke-width="1"/>
<line x1="365.82" y1="169.45" x2="369.82" y2="169.45" stroke="#333" stroke-width="1"/>
<line x1="365.82" y1="146.96" x2="369.82" y2="146.96" stroke="#333" stroke-width="1"/>
<rect x="376.72" y="183.22" width="13.81" height="6.78" fill="#BDBDBD" opacity="0.85"><title>Control: 0.168 ×10⁻³</title></rect>
<line x1="383.62" y1="184.19" x2="383.62" y2="181.11" stroke="#333" stroke-width="1"/>
<line x1="381.62" y1="184.19" x2="385.62" y2="184.19" stroke="#333" stroke-width="1"/>
<line x1="381.62" y1="181.11" x2="385.62" y2="181.11" stroke="#333" stroke-width="1"/>
<text x="376.7" y="204" text-anchor="end" font-size="9" fill="#2196F3" transform="rotate(-45,376.7,204)">Social</text>
<rect x="400.36" y="153.33" width="13.81" height="36.67" fill="#81C784" opacity="0.85"><title>Partner Identity: 0.908 ×10⁻³</title></rect>
<line x1="407.26" y1="161.03" x2="407.26" y2="147.37" stroke="#333" stroke-width="1"/>
<line x1="405.26" y1="161.03" x2="409.26" y2="161.03" stroke="#333" stroke-width="1"/>
<line x1="405.26" y1="147.37" x2="409.26" y2="147.37" stroke="#333" stroke-width="1"/>
<rect x="416.17" y="180.77" width="13.81" height="9.23" fill="#BDBDBD" opacity="0.85"><title>Control: 0.228 ×10⁻³</title></rect>
<line x1="423.07" y1="182.34" x2="423.07" y2="179.11" stroke="#333" stroke-width="1"/>
<line x1="421.07" y1="182.34" x2="425.07" y2="182.34" stroke="#333" stroke-width="1"/>
<line x1="421.07" y1="179.11" x2="425.07" y2="179.11" stroke="#333" stroke-width="1"/>
<text x="416.2" y="204" text-anchor="end" font-size="9" fill="#2196F3" transform="rotate(-45,416.2,204)">Attention</text>
<rect x="439.81" y="177.56" width="13.81" height="12.44" fill="#81C784" opacity="0.85"><title>Partner Identity: 0.308 ×10⁻³</title></rect>
<line x1="446.71" y1="179.49" x2="446.71" y2="174.96" stroke="#333" stroke-width="1"/>
<line x1="444.71" y1="179.49" x2="448.71" y2="179.49" stroke="#333" stroke-width="1"/>
<line x1="444.71" y1="174.96" x2="448.71" y2="174.96" stroke="#333" stroke-width="1"/>
<rect x="455.61" y="181.66" width="13.81" height="8.34" fill="#BDBDBD" opacity="0.85"><title>Control: 0.207 ×10⁻³</title></rect>
<line x1="462.51" y1="182.93" x2="462.51" y2="180.43" stroke="#333" stroke-width="1"/>
<line x1="460.51" y1="182.93" x2="464.51" y2="182.93" stroke="#333" stroke-width="1"/>
<line x1="460.51" y1="180.43" x2="464.51" y2="180.43" stroke="#333" stroke-width="1"/>
<text x="455.6" y="204" text-anchor="end" font-size="9" fill="#4CAF50" transform="rotate(-45,455.6,204)">Embodiment</text>
<rect x="479.25" y="166.53" width="13.81" height="23.47" fill="#81C784" opacity="0.85"><title>Partner Identity: 0.581 ×10⁻³</title></rect>
<line x1="486.15" y1="171.11" x2="486.15" y2="161.88" stroke="#333" stroke-width="1"/>
<line x1="484.15" y1="171.11" x2="488.15" y2="171.11" stroke="#333" stroke-width="1"/>
<line x1="484.15" y1="161.88" x2="488.15" y2="161.88" stroke="#333" stroke-width="1"/>
<rect x="495.06" y="183.35" width="13.81" height="6.65" fill="#BDBDBD" opacity="0.85"><title>Control: 0.165 ×10⁻³</title></rect>
<line x1="501.96" y1="184.14" x2="501.96" y2="181.90" stroke="#333" stroke-width="1"/>
<line x1="499.96" y1="184.14" x2="503.96" y2="184.14" stroke="#333" stroke-width="1"/>
<line x1="499.96" y1="181.90" x2="503.96" y2="181.90" stroke="#333" stroke-width="1"/>
<text x="495.1" y="204" text-anchor="end" font-size="9" fill="#4CAF50" transform="rotate(-45,495.1,204)">Roles</text>
<rect x="518.69" y="172.85" width="13.81" height="17.15" fill="#81C784" opacity="0.85"><title>Partner Identity: 0.425 ×10⁻³</title></rect>
<line x1="525.60" y1="176.86" x2="525.60" y2="169.37" stroke="#333" stroke-width="1"/>
<line x1="523.60" y1="176.86" x2="527.60" y2="176.86" stroke="#333" stroke-width="1"/>
<line x1="523.60" y1="169.37" x2="527.60" y2="169.37" stroke="#333" stroke-width="1"/>
<rect x="534.50" y="180.09" width="13.81" height="9.91" fill="#BDBDBD" opacity="0.85"><title>Control: 0.245 ×10⁻³</title></rect>
<line x1="541.40" y1="181.27" x2="541.40" y2="179.10" stroke="#333" stroke-width="1"/>
<line x1="539.40" y1="181.27" x2="543.40" y2="181.27" stroke="#333" stroke-width="1"/>
<line x1="539.40" y1="179.10" x2="543.40" y2="179.10" stroke="#333" stroke-width="1"/>
<text x="534.5" y="204" text-anchor="end" font-size="9" fill="#4CAF50" transform="rotate(-45,534.5,204)">Animacy</text>
<rect x="558.14" y="177.32" width="13.81" height="12.68" fill="#81C784" opacity="0.85"><title>Partner Identity: 0.314 ×10⁻³</title></rect>
<line x1="565.04" y1="182.22" x2="565.04" y2="172.49" stroke="#333" stroke-width="1"/>
<line x1="563.04" y1="182.22" x2="567.04" y2="182.22" stroke="#333" stroke-width="1"/>
<line x1="563.04" y1="172.49" x2="567.04" y2="172.49" stroke="#333" stroke-width="1"/>
<rect x="573.94" y="179.77" width="13.81" height="10.23" fill="#BDBDBD" opacity="0.85"><title>Control: 0.253 ×10⁻³</title></rect>
<line x1="580.85" y1="182.15" x2="580.85" y2="177.77" stroke="#333" stroke-width="1"/>
<line x1="578.85" y1="182.15" x2="582.85" y2="182.15" stroke="#333" stroke-width="1"/>
<line x1="578.85" y1="177.77" x2="582.85" y2="177.77" stroke="#333" stroke-width="1"/>
<text x="573.9" y="204" text-anchor="end" font-size="9" fill="#FF9800" transform="rotate(-45,573.9,204)">Formality</text>
<rect x="597.58" y="171.62" width="13.81" height="18.38" fill="#81C784" opacity="0.85"><title>Partner Identity: 0.455 ×10⁻³</title></rect>
<line x1="604.49" y1="174.94" x2="604.49" y2="168.12" stroke="#333" stroke-width="1"/>
<line x1="602.49" y1="174.94" x2="606.49" y2="174.94" stroke="#333" stroke-width="1"/>
<line x1="602.49" y1="168.12" x2="606.49" y2="168.12" stroke="#333" stroke-width="1"/>
<rect x="613.39" y="178.57" width="13.81" height="11.43" fill="#BDBDBD" opacity="0.85"><title>Control: 0.283 ×10⁻³</title></rect>
<line x1="620.29" y1="179.55" x2="620.29" y2="177.64" stroke="#333" stroke-width="1"/>
<line x1="618.29" y1="179.55" x2="622.29" y2="179.55" stroke="#333" stroke-width="1"/>
<line x1="618.29" y1="177.64" x2="622.29" y2="177.64" stroke="#333" stroke-width="1"/>
<text x="613.4" y="204" text-anchor="end" font-size="9" fill="#FF9800" transform="rotate(-45,613.4,204)">Expertise</text>
<rect x="637.03" y="178.02" width="13.81" height="11.98" fill="#81C784" opacity="0.85"><title>Partner Identity: 0.297 ×10⁻³</title></rect>
<line x1="643.93" y1="183.48" x2="643.93" y2="171.69" stroke="#333" stroke-width="1"/>
<line x1="641.93" y1="183.48" x2="645.93" y2="183.48" stroke="#333" stroke-width="1"/>
<line x1="641.93" y1="171.69" x2="645.93" y2="171.69" stroke="#333" stroke-width="1"/>
<rect x="652.83" y="179.64" width="13.81" height="10.36" fill="#BDBDBD" opacity="0.85"><title>Control: 0.257 ×10⁻³</title></rect>
<line x1="659.74" y1="182.53" x2="659.74" y2="178.12" stroke="#333" stroke-width="1"/>
<line x1="657.74" y1="182.53" x2="661.74" y2="182.53" stroke="#333" stroke-width="1"/>
<line x1="657.74" y1="178.12" x2="661.74" y2="178.12" stroke="#333" stroke-width="1"/>
<text x="652.8" y="204" text-anchor="end" font-size="9" fill="#FF9800" transform="rotate(-45,652.8,204)">Helpfulness</text>
<rect x="676.47" y="153.96" width="13.81" height="36.04" fill="#81C784" opacity="0.85"><title>Partner Identity: 0.893 ×10⁻³</title></rect>
<line x1="683.38" y1="161.52" x2="683.38" y2="142.64" stroke="#333" stroke-width="1"/>
<line x1="681.38" y1="161.52" x2="685.38" y2="161.52" stroke="#333" stroke-width="1"/>
<line x1="681.38" y1="142.64" x2="685.38" y2="142.64" stroke="#333" stroke-width="1"/>
<rect x="692.28" y="182.08" width="13.81" height="7.92" fill="#BDBDBD" opacity="0.85"><title>Control: 0.196 ×10⁻³</title></rect>
<line x1="699.18" y1="182.98" x2="699.18" y2="181.11" stroke="#333" stroke-width="1"/>
<line x1="697.18" y1="182.98" x2="701.18" y2="182.98" stroke="#333" stroke-width="1"/>
<line x1="697.18" y1="181.11" x2="701.18" y2="181.11" stroke="#333" stroke-width="1"/>
<text x="692.3" y="204" text-anchor="end" font-size="9" fill="#00BCD4" transform="rotate(-45,692.3,204)">SysPrompt</text>
<line x1="0" y1="190" x2="710" y2="190" stroke="#333"/>
<line x1="0" y1="0" x2="0" y2="190" stroke="#333"/>
</g>
<rect x="70" y="320" width="10" height="10" fill="#81C784"/>
<text x="84" y="328" font-size="9" fill="#333">Partner Identity</text>
<rect x="210" y="320" width="10" height="10" fill="#BDBDBD"/>
<text x="224" y="328" font-size="9" fill="#333">Control</text>
</svg>