<svg viewBox="0 0 800 320" xmlns="http://www.w3.org/2000/svg" style="width:100%;max-width:800px;height:auto;font-family:Arial,sans-serif;">
<rect width="800" height="320" fill="white"/>

<g transform="translate(70,30)">
<line x1="0" y1="180.0" x2="710" y2="180.0" stroke="#eee" stroke-width="1"/>
<text x="-8" y="184.0" text-anchor="end" font-size="10" fill="#666">0.00</text>
<line x1="0" y1="144.0" x2="710" y2="144.0" stroke="#eee" stroke-width="1"/>
<text x="-8" y="148.0" text-anchor="end" font-size="10" fill="#666">0.94</text>
<line x1="0" y1="108.0" x2="710" y2="108.0" stroke="#eee" stroke-width="1"/>
<text x="-8" y="112.0" text-anchor="end" font-size="10" fill="#666">1.88</text>
<line x1="0" y1="72.0" x2="710" y2="72.0" stroke="#eee" stroke-width="1"/>
<text x="-8" y="76.0" text-anchor="end" font-size="10" fill="#666">2.82</text>
<line x1="0" y1="36.0" x2="710" y2="36.0" stroke="#eee" stroke-width="1"/>
<text x="-8" y="40.0" text-anchor="end" font-size="10" fill="#666">3.76</text>
<line x1="0" y1="0.0" x2="710" y2="0.0" stroke="#eee" stroke-width="1"/>
<text x="-8" y="4.0" text-anchor="end" font-size="10" fill="#666">4.70</text>
<text x="-50" y="90.0" text-anchor="middle" font-size="11" fill="#333" transform="rotate(-90,-50,90.0)">Mean R² (×10⁻³)</text>
<rect x="9.68" y="163.07" width="22.59" height="16.93" fill="#81C784" opacity="0.85"><title>Partner Identity — Phenomenology: 0.443 ×10⁻³</title></rect>
<line x1="20.98" y1="166.53" x2="20.98" y2="159.44" stroke="#333" stroke-width="1"/>
<line x1="18.98" y1="166.53" x2="22.98" y2="166.53" stroke="#333" stroke-width="1"/>
<line x1="18.98" y1="159.44" x2="22.98" y2="159.44" stroke="#333" stroke-width="1"/>
<rect x="34.27" y="171.88" width="22.59" height="8.12" fill="#BDBDBD" opacity="0.85"><title>Control — Phenomenology: 0.212 ×10⁻³</title></rect>
<line x1="45.57" y1="173.12" x2="45.57" y2="170.77" stroke="#333" stroke-width="1"/>
<line x1="43.57" y1="173.12" x2="47.57" y2="173.12" stroke="#333" stroke-width="1"/>
<line x1="43.57" y1="170.77" x2="47.57" y2="170.77" stroke="#333" stroke-width="1"/>
<text x="34.3" y="194" text-anchor="end" font-size="10" fill="#2196F3" transform="rotate(-30,34.3,194)">Phenomenology</text>
<rect x="74.23" y="162.76" width="22.59" height="17.24" fill="#81C784" opacity="0.85"><title>Partner Identity — Emotions: 0.451 ×10⁻³</title></rect>
<line x1="85.52" y1="166.02" x2="85.52" y2="159.11" stroke="#333" stroke-width="1"/>
<line x1="83.52" y1="166.02" x2="87.52" y2="166.02" stroke="#333" stroke-width="1"/>
<line x1="83.52" y1="159.11" x2="87.52" y2="159.11" stroke="#333" stroke-width="1"/>
<rect x="98.82" y="173.47" width="22.59" height="6.53" fill="#BDBDBD" opacity="0.85"><title>Control — Emotions: 0.171 ×10⁻³</title></rect>
<line x1="110.11" y1="174.23" x2="110.11" y2="172.42" stroke="#333" stroke-width="1"/>
<line x1="108.11" y1="174.23" x2="112.11" y2="174.23" stroke="#333" stroke-width="1"/>
<line x1="108.11" y1="172.42" x2="112.11" y2="172.42" stroke="#333" stroke-width="1"/>
<text x="98.8" y="194" text-anchor="end" font-size="10" fill="#2196F3" transform="rotate(-30,98.8,194)">Emotions</text>
<rect x="138.77" y="159.35" width="22.59" height="20.65" fill="#81C784" opacity="0.85"><title>Partner Identity — Agency: 0.540 ×10⁻³</title></rect>
<line x1="150.07" y1="165.01" x2="150.07" y2="151.17" stroke="#333" stroke-width="1"/>
<line x1="148.07" y1="165.01" x2="152.07" y2="165.01" stroke="#333" stroke-width="1"/>
<line x1="148.07" y1="151.17" x2="152.07" y2="151.17" stroke="#333" stroke-width="1"/>
<rect x="163.36" y="174.53" width="22.59" height="5.47" fill="#BDBDBD" opacity="0.85"><title>Control — Agency: 0.143 ×10⁻³</title></rect>
<line x1="174.66" y1="175.41" x2="174.66" y2="172.76" stroke="#333" stroke-width="1"/>
<line x1="172.66" y1="175.41" x2="176.66" y2="175.41" stroke="#333" stroke-width="1"/>
<line x1="172.66" y1="172.76" x2="176.66" y2="172.76" stroke="#333" stroke-width="1"/>
<text x="163.4" y="194" text-anchor="end" font-size="10" fill="#2196F3" transform="rotate(-30,163.4,194)">Agency</text>
<rect x="203.32" y="154.19" width="22.59" height="25.81" fill="#81C784" opacity="0.85"><title>Partner Identity — Intentions: 0.675 ×10⁻³</title></rect>
<line x1="214.61" y1="162.44" x2="214.61" y2="145.04" stroke="#333" stroke-width="1"/>
<line x1="212.61" y1="162.44" x2="216.61" y2="162.44" stroke="#333" stroke-width="1"/>
<line x1="212.61" y1="145.04" x2="216.61" y2="145.04" stroke="#333" stroke-width="1"/>
<rect x="227.91" y="173.55" width="22.59" height="6.45" fill="#BDBDBD" opacity="0.85"><title>Control — Intentions: 0.169 ×10⁻³</title></rect>
<line x1="239.20" y1="174.26" x2="239.20" y2="172.34" stroke="#333" stroke-width="1"/>
<line x1="237.20" y1="174.26" x2="241.20" y2="174.26" stroke="#333" stroke-width="1"/>
<line x1="237.20" y1="172.34" x2="241.20" y2="172.34" stroke="#333" stroke-width="1"/>
<text x="227.9" y="194" text-anchor="end" font-size="10" fill="#2196F3" transform="rotate(-30,227.9,194)">Intentions</text>
<rect x="267.86" y="152.57" width="22.59" height="27.43" fill="#81C784" opacity="0.85"><title>Partner Identity — Prediction: 0.717 ×10⁻³</title></rect>
<line x1="279.16" y1="157.82" x2="279.16" y2="145.77" stroke="#333" stroke-width="1"/>
<line x1="277.16" y1="157.82" x2="281.16" y2="157.82" stroke="#333" stroke-width="1"/>
<line x1="277.16" y1="145.77" x2="281.16" y2="145.77" stroke="#333" stroke-width="1"/>
<rect x="292.45" y="173.19" width="22.59" height="6.81" fill="#BDBDBD" opacity="0.85"><title>Control — Prediction: 0.178 ×10⁻³</title></rect>
<line x1="303.75" y1="174.19" x2="303.75" y2="171.56" stroke="#333" stroke-width="1"/>
<line x1="301.75" y1="174.19" x2="305.75" y2="174.19" stroke="#333" stroke-width="1"/>
<line x1="301.75" y1="171.56" x2="305.75" y2="171.56" stroke="#333" stroke-width="1"/>
<text x="292.5" y="194" text-anchor="end" font-size="10" fill="#2196F3" transform="rotate(-30,292.5,194)">Prediction</text>
<rect x="332.41" y="147.01" width="22.59" height="32.99" fill="#81C784" opacity="0.85"><title>Partner Identity — Cognitive: 0.862 ×10⁻³</title></rect>
<line x1="343.70" y1="155.45" x2="343.70" y2="141.41" stroke="#333" stroke-width="1"/>
<line x1="341.70" y1="155.45" x2="345.70" y2="155.45" stroke="#333" stroke-width="1"/>
<line x1="341.70" y1="141.41" x2="345.70" y2="141.41" stroke="#333" stroke-width="1"/>
<rect x="357.00" y="170.30" width="22.59" height="9.70" fill="#BDBDBD" opacity="0.85"><title>Control — Cognitive: 0.253 ×10⁻³</title></rect>
<line x1="368.30" y1="172.33" x2="368.30" y2="168.97" stroke="#333" stroke-width="1"/>
<line x1="366.30" y1="172.33" x2="370.30" y2="172.33" stroke="#333" stroke-width="1"/>
<line x1="366.30" y1="168.97" x2="370.30" y2="168.97" stroke="#333" stroke-width="1"/>
<text x="357.0" y="194" text-anchor="end" font-size="10" fill="#2196F3" transform="rotate(-30,357.0,194)">Cognitive</text>
<rect x="396.95" y="152.86" width="22.59" height="27.14" fill="#81C784" opacity="0.85"><title>Partner Identity — Social: 0.709 ×10⁻³</title></rect>
<line x1="408.25" y1="160.53" x2="408.25" y2="139.23" stroke="#333" stroke-width="1"/>
<line x1="406.25" y1="160.53" x2="410.25" y2="160.53" stroke="#333" stroke-width="1"/>
<line x1="406.25" y1="139.23" x2="410.25" y2="139.23" stroke="#333" stroke-width="1"/>
<rect x="421.55" y="173.58" width="22.59" height="6.42" fill="#BDBDBD" opacity="0.85"><title>Control — Social: 0.168 ×10⁻³</title></rect>
<line x1="432.84" y1="174.50" x2="432.84" y2="171.58" stroke="#333" stroke-width="1"/>
<line x1="430.84" y1="174.50" x2="434.84" y2="174.50" stroke="#333" stroke-width="1"/>
<line x1="430.84" y1="171.58" x2="434.84" y2="171.58" stroke="#333" stroke-width="1"/>
<text x="421.5" y="194" text-anchor="end" font-size="10" fill="#2196F3" transform="rotate(-30,421.5,194)">Social</text>
<rect x="461.50" y="145.26" width="22.59" height="34.74" fill="#81C784" opacity="0.85"><title>Partner Identity — Attention: 0.908 ×10⁻³</title></rect>
<line x1="472.80" y1="152.56" x2="472.80" y2="139.62" stroke="#333" stroke-width="1"/>
<line x1="470.80" y1="152.56" x2="474.80" y2="152.56" stroke="#333" stroke-width="1"/>
<line x1="470.80" y1="139.62" x2="474.80" y2="139.62" stroke="#333" stroke-width="1"/>
<rect x="486.09" y="171.26" width="22.59" height="8.74" fill="#BDBDBD" opacity="0.85"><title>Control — Attention: 0.228 ×10⁻³</title></rect>
<line x1="497.39" y1="172.74" x2="497.39" y2="169.68" stroke="#333" stroke-width="1"/>
<line x1="495.39" y1="172.74" x2="499.39" y2="172.74" stroke="#333" stroke-width="1"/>
<line x1="495.39" y1="169.68" x2="499.39" y2="169.68" stroke="#333" stroke-width="1"/>
<text x="486.1" y="194" text-anchor="end" font-size="10" fill="#2196F3" transform="rotate(-30,486.1,194)">Attention</text>
<line x1="516.3636363636364" y1="0" x2="516.3636363636364" y2="180" stroke="#ccc" stroke-width="1" stroke-dasharray="4,3"/>
<rect x="526.05" y="155.02" width="22.59" height="24.98" fill="#81C784" opacity="0.5"><title>Partner Identity — Human vs AI (general): 0.653 ×10⁻³</title></rect>
<line x1="537.34" y1="160.37" x2="537.34" y2="151.03" stroke="#333" stroke-width="1"/>
<line x1="535.34" y1="160.37" x2="539.34" y2="160.37" stroke="#333" stroke-width="1"/>
<line x1="535.34" y1="151.03" x2="539.34" y2="151.03" stroke="#333" stroke-width="1"/>
<rect x="550.64" y="172.85" width="22.59" height="7.15" fill="#BDBDBD" opacity="0.5"><title>Control — Human vs AI (general): 0.187 ×10⁻³</title></rect>
<line x1="561.93" y1="173.60" x2="561.93" y2="171.01" stroke="#333" stroke-width="1"/>
<line x1="559.93" y1="173.60" x2="563.93" y2="173.60" stroke="#333" stroke-width="1"/>
<line x1="559.93" y1="171.01" x2="563.93" y2="171.01" stroke="#333" stroke-width="1"/>
<text x="550.6" y="194" text-anchor="end" font-size="10" fill="#9E9E9E" transform="rotate(-30,550.6,194)">Human vs AI (general)</text>
<rect x="590.59" y="167.47" width="22.59" height="12.53" fill="#81C784" opacity="0.5"><title>Partner Identity — Biological: 0.327 ×10⁻³</title></rect>
<line x1="601.89" y1="169.23" x2="601.89" y2="165.04" stroke="#333" stroke-width="1"/>
<line x1="599.89" y1="169.23" x2="603.89" y2="169.23" stroke="#333" stroke-width="1"/>
<line x1="599.89" y1="165.04" x2="603.89" y2="165.04" stroke="#333" stroke-width="1"/>
<rect x="615.18" y="172.10" width="22.59" height="7.90" fill="#BDBDBD" opacity="0.5"><title>Control — Biological: 0.207 ×10⁻³</title></rect>
<line x1="626.48" y1="173.13" x2="626.48" y2="171.05" stroke="#333" stroke-width="1"/>
<line x1="624.48" y1="173.13" x2="628.48" y2="173.13" stroke="#333" stroke-width="1"/>
<line x1="624.48" y1="171.05" x2="628.48" y2="171.05" stroke="#333" stroke-width="1"/>
<text x="615.2" y="194" text-anchor="end" font-size="10" fill="#9E9E9E" transform="rotate(-30,615.2,194)">Biological</text>
<rect x="655.14" y="168.36" width="22.59" height="11.64" fill="#81C784" opacity="0.5"><title>Partner Identity — Shapes: 0.304 ×10⁻³</title></rect>
<line x1="666.43" y1="173.65" x2="666.43" y2="162.70" stroke="#333" stroke-width="1"/>
<line x1="664.43" y1="173.65" x2="668.43" y2="173.65" stroke="#333" stroke-width="1"/>
<line x1="664.43" y1="162.70" x2="668.43" y2="162.70" stroke="#333" stroke-width="1"/>
<rect x="679.73" y="172.11" width="22.59" height="7.89" fill="#BDBDBD" opacity="0.5"><title>Control — Shapes: 0.206 ×10⁻³</title></rect>
<line x1="691.02" y1="173.91" x2="691.02" y2="170.03" stroke="#333" stroke-width="1"/>
<line x1="689.02" y1="173.91" x2="693.02" y2="173.91" stroke="#333" stroke-width="1"/>
<line x1="689.02" y1="170.03" x2="693.02" y2="170.03" stroke="#333" stroke-width="1"/>
<text x="679.7" y="194" text-anchor="end" font-size="10" fill="#9E9E9E" transform="rotate(-30,679.7,194)">Shapes</text>
<line x1="0" y1="180" x2="710" y2="180" stroke="#333"/>
<line x1="0" y1="0" x2="0" y2="180" stroke="#333"/>
</g>
<rect x="70" y="300" width="10" height="10" fill="#81C784"/>
<text x="84" y="308" font-size="9" fill="#333">Partner Identity</text>
<rect x="210" y="300" width="10" height="10" fill="#BDBDBD"/>
<text x="224" y="308" font-size="9" fill="#333">Control</text>
</svg>