<svg viewBox="0 0 800 320" xmlns="http://www.w3.org/2000/svg" style="width:100%;max-width:800px;height:auto;font-family:Arial,sans-serif;">
<rect width="800" height="320" fill="white"/>

<g transform="translate(70,30)">
<line x1="0" y1="180.0" x2="710" y2="180.0" stroke="#eee" stroke-width="1"/>
<text x="-8" y="184.0" text-anchor="end" font-size="10" fill="#666">0.00</text>
<line x1="0" y1="144.0" x2="710" y2="144.0" stroke="#eee" stroke-width="1"/>
<text x="-8" y="148.0" text-anchor="end" font-size="10" fill="#666">0.94</text>
<line x1="0" y1="108.0" x2="710" y2="108.0" stroke="#eee" stroke-width="1"/>
<text x="-8" y="112.0" text-anchor="end" font-size="10" fill="#666">1.88</text>
<line x1="0" y1="72.0" x2="710" y2="72.0" stroke="#eee" stroke-width="1"/>
<text x="-8" y="76.0" text-anchor="end" font-size="10" fill="#666">2.82</text>
<line x1="0" y1="36.0" x2="710" y2="36.0" stroke="#eee" stroke-width="1"/>
<text x="-8" y="40.0" text-anchor="end" font-size="10" fill="#666">3.76</text>
<line x1="0" y1="0.0" x2="710" y2="0.0" stroke="#eee" stroke-width="1"/>
<text x="-8" y="4.0" text-anchor="end" font-size="10" fill="#666">4.70</text>
<text x="-50" y="90.0" text-anchor="middle" font-size="11" fill="#333" transform="rotate(-90,-50,90.0)">Mean R² (×10⁻³)</text>
<rect x="9.68" y="99.36" width="22.59" height="80.64" fill="#2E7D32" opacity="0.85"><title>Partner Identity — Phenomenology: 2.108 ×10⁻³</title></rect>
<line x1="20.98" y1="114.33" x2="20.98" y2="90.77" stroke="#333" stroke-width="1"/>
<line x1="18.98" y1="114.33" x2="22.98" y2="114.33" stroke="#333" stroke-width="1"/>
<line x1="18.98" y1="90.77" x2="22.98" y2="90.77" stroke="#333" stroke-width="1"/>
<rect x="34.27" y="169.79" width="22.59" height="10.21" fill="#616161" opacity="0.85"><title>Control — Phenomenology: 0.267 ×10⁻³</title></rect>
<line x1="45.57" y1="171.57" x2="45.57" y2="168.47" stroke="#333" stroke-width="1"/>
<line x1="43.57" y1="171.57" x2="47.57" y2="171.57" stroke="#333" stroke-width="1"/>
<line x1="43.57" y1="168.47" x2="47.57" y2="168.47" stroke="#333" stroke-width="1"/>
<text x="34.3" y="194" text-anchor="end" font-size="10" fill="#2196F3" transform="rotate(-30,34.3,194)">Phenomenology</text>
<rect x="74.23" y="103.53" width="22.59" height="76.47" fill="#2E7D32" opacity="0.85"><title>Partner Identity — Emotions: 1.999 ×10⁻³</title></rect>
<line x1="85.52" y1="116.78" x2="85.52" y2="93.21" stroke="#333" stroke-width="1"/>
<line x1="83.52" y1="116.78" x2="87.52" y2="116.78" stroke="#333" stroke-width="1"/>
<line x1="83.52" y1="93.21" x2="87.52" y2="93.21" stroke="#333" stroke-width="1"/>
<rect x="98.82" y="167.00" width="22.59" height="13.00" fill="#616161" opacity="0.85"><title>Control — Emotions: 0.340 ×10⁻³</title></rect>
<line x1="110.11" y1="168.71" x2="110.11" y2="165.92" stroke="#333" stroke-width="1"/>
<line x1="108.11" y1="168.71" x2="112.11" y2="168.71" stroke="#333" stroke-width="1"/>
<line x1="108.11" y1="165.92" x2="112.11" y2="165.92" stroke="#333" stroke-width="1"/>
<text x="98.8" y="194" text-anchor="end" font-size="10" fill="#2196F3" transform="rotate(-30,98.8,194)">Emotions</text>
<rect x="138.77" y="81.41" width="22.59" height="98.59" fill="#2E7D32" opacity="0.85"><title>Partner Identity — Agency: 2.577 ×10⁻³</title></rect>
<line x1="150.07" y1="101.76" x2="150.07" y2="65.76" stroke="#333" stroke-width="1"/>
<line x1="148.07" y1="101.76" x2="152.07" y2="101.76" stroke="#333" stroke-width="1"/>
<line x1="148.07" y1="65.76" x2="152.07" y2="65.76" stroke="#333" stroke-width="1"/>
<rect x="163.36" y="165.52" width="22.59" height="14.48" fill="#616161" opacity="0.85"><title>Control — Agency: 0.379 ×10⁻³</title></rect>
<line x1="174.66" y1="167.75" x2="174.66" y2="164.39" stroke="#333" stroke-width="1"/>
<line x1="172.66" y1="167.75" x2="176.66" y2="167.75" stroke="#333" stroke-width="1"/>
<line x1="172.66" y1="164.39" x2="176.66" y2="164.39" stroke="#333" stroke-width="1"/>
<text x="163.4" y="194" text-anchor="end" font-size="10" fill="#2196F3" transform="rotate(-30,163.4,194)">Agency</text>
<rect x="203.32" y="71.37" width="22.59" height="108.63" fill="#2E7D32" opacity="0.85"><title>Partner Identity — Intentions: 2.839 ×10⁻³</title></rect>
<line x1="214.61" y1="95.12" x2="214.61" y2="56.82" stroke="#333" stroke-width="1"/>
<line x1="212.61" y1="95.12" x2="216.61" y2="95.12" stroke="#333" stroke-width="1"/>
<line x1="212.61" y1="56.82" x2="216.61" y2="56.82" stroke="#333" stroke-width="1"/>
<rect x="227.91" y="165.36" width="22.59" height="14.64" fill="#616161" opacity="0.85"><title>Control — Intentions: 0.383 ×10⁻³</title></rect>
<line x1="239.20" y1="167.63" x2="239.20" y2="164.12" stroke="#333" stroke-width="1"/>
<line x1="237.20" y1="167.63" x2="241.20" y2="167.63" stroke="#333" stroke-width="1"/>
<line x1="237.20" y1="164.12" x2="241.20" y2="164.12" stroke="#333" stroke-width="1"/>
<text x="227.9" y="194" text-anchor="end" font-size="10" fill="#2196F3" transform="rotate(-30,227.9,194)">Intentions</text>
<rect x="267.86" y="65.72" width="22.59" height="114.28" fill="#2E7D32" opacity="0.85"><title>Partner Identity — Prediction: 2.987 ×10⁻³</title></rect>
<line x1="279.16" y1="87.44" x2="279.16" y2="49.54" stroke="#333" stroke-width="1"/>
<line x1="277.16" y1="87.44" x2="281.16" y2="87.44" stroke="#333" stroke-width="1"/>
<line x1="277.16" y1="49.54" x2="281.16" y2="49.54" stroke="#333" stroke-width="1"/>
<rect x="292.45" y="168.03" width="22.59" height="11.97" fill="#616161" opacity="0.85"><title>Control — Prediction: 0.313 ×10⁻³</title></rect>
<line x1="303.75" y1="170.13" x2="303.75" y2="166.69" stroke="#333" stroke-width="1"/>
<line x1="301.75" y1="170.13" x2="305.75" y2="170.13" stroke="#333" stroke-width="1"/>
<line x1="301.75" y1="166.69" x2="305.75" y2="166.69" stroke="#333" stroke-width="1"/>
<text x="292.5" y="194" text-anchor="end" font-size="10" fill="#2196F3" transform="rotate(-30,292.5,194)">Prediction</text>
<rect x="332.41" y="59.80" width="22.59" height="120.20" fill="#2E7D32" opacity="0.85"><title>Partner Identity — Cognitive: 3.142 ×10⁻³</title></rect>
<line x1="343.70" y1="78.93" x2="343.70" y2="48.80" stroke="#333" stroke-width="1"/>
<line x1="341.70" y1="78.93" x2="345.70" y2="78.93" stroke="#333" stroke-width="1"/>
<line x1="341.70" y1="48.80" x2="345.70" y2="48.80" stroke="#333" stroke-width="1"/>
<rect x="357.00" y="169.42" width="22.59" height="10.58" fill="#616161" opacity="0.85"><title>Control — Cognitive: 0.276 ×10⁻³</title></rect>
<line x1="368.30" y1="171.62" x2="368.30" y2="166.96" stroke="#333" stroke-width="1"/>
<line x1="366.30" y1="171.62" x2="370.30" y2="171.62" stroke="#333" stroke-width="1"/>
<line x1="366.30" y1="166.96" x2="370.30" y2="166.96" stroke="#333" stroke-width="1"/>
<text x="357.0" y="194" text-anchor="end" font-size="10" fill="#2196F3" transform="rotate(-30,357.0,194)">Cognitive</text>
<rect x="396.95" y="51.22" width="22.59" height="128.78" fill="#2E7D32" opacity="0.85"><title>Partner Identity — Social: 3.366 ×10⁻³</title></rect>
<line x1="408.25" y1="76.94" x2="408.25" y2="29.44" stroke="#333" stroke-width="1"/>
<line x1="406.25" y1="76.94" x2="410.25" y2="76.94" stroke="#333" stroke-width="1"/>
<line x1="406.25" y1="29.44" x2="410.25" y2="29.44" stroke="#333" stroke-width="1"/>
<rect x="421.55" y="168.85" width="22.59" height="11.15" fill="#616161" opacity="0.85"><title>Control — Social: 0.291 ×10⁻³</title></rect>
<line x1="432.84" y1="171.40" x2="432.84" y2="167.40" stroke="#333" stroke-width="1"/>
<line x1="430.84" y1="171.40" x2="434.84" y2="171.40" stroke="#333" stroke-width="1"/>
<line x1="430.84" y1="167.40" x2="434.84" y2="167.40" stroke="#333" stroke-width="1"/>
<text x="421.5" y="194" text-anchor="end" font-size="10" fill="#2196F3" transform="rotate(-30,421.5,194)">Social</text>
<rect x="461.50" y="44.57" width="22.59" height="135.43" fill="#2E7D32" opacity="0.85"><title>Partner Identity — Attention: 3.540 ×10⁻³</title></rect>
<line x1="472.80" y1="69.23" x2="472.80" y2="30.90" stroke="#333" stroke-width="1"/>
<line x1="470.80" y1="69.23" x2="474.80" y2="69.23" stroke="#333" stroke-width="1"/>
<line x1="470.80" y1="30.90" x2="474.80" y2="30.90" stroke="#333" stroke-width="1"/>
<rect x="486.09" y="169.46" width="22.59" height="10.54" fill="#616161" opacity="0.85"><title>Control — Attention: 0.275 ×10⁻³</title></rect>
<line x1="497.39" y1="171.23" x2="497.39" y2="168.26" stroke="#333" stroke-width="1"/>
<line x1="495.39" y1="171.23" x2="499.39" y2="171.23" stroke="#333" stroke-width="1"/>
<line x1="495.39" y1="168.26" x2="499.39" y2="168.26" stroke="#333" stroke-width="1"/>
<text x="486.1" y="194" text-anchor="end" font-size="10" fill="#2196F3" transform="rotate(-30,486.1,194)">Attention</text>
<line x1="516.3636363636364" y1="0" x2="516.3636363636364" y2="180" stroke="#ccc" stroke-width="1" stroke-dasharray="4,3"/>
<rect x="526.05" y="69.57" width="22.59" height="110.43" fill="#2E7D32" opacity="0.5"><title>Partner Identity — Human vs AI (general): 2.886 ×10⁻³</title></rect>
<line x1="537.34" y1="95.62" x2="537.34" y2="56.75" stroke="#333" stroke-width="1"/>
<line x1="535.34" y1="95.62" x2="539.34" y2="95.62" stroke="#333" stroke-width="1"/>
<line x1="535.34" y1="56.75" x2="539.34" y2="56.75" stroke="#333" stroke-width="1"/>
<rect x="550.64" y="174.52" width="22.59" height="5.48" fill="#616161" opacity="0.5"><title>Control — Human vs AI (general): 0.143 ×10⁻³</title></rect>
<line x1="561.93" y1="175.12" x2="561.93" y2="172.62" stroke="#333" stroke-width="1"/>
<line x1="559.93" y1="175.12" x2="563.93" y2="175.12" stroke="#333" stroke-width="1"/>
<line x1="559.93" y1="172.62" x2="563.93" y2="172.62" stroke="#333" stroke-width="1"/>
<text x="550.6" y="194" text-anchor="end" font-size="10" fill="#9E9E9E" transform="rotate(-30,550.6,194)">Human vs AI (general)</text>
<rect x="590.59" y="140.26" width="22.59" height="39.74" fill="#2E7D32" opacity="0.5"><title>Partner Identity — Biological: 1.039 ×10⁻³</title></rect>
<line x1="601.89" y1="146.50" x2="601.89" y2="134.08" stroke="#333" stroke-width="1"/>
<line x1="599.89" y1="146.50" x2="603.89" y2="146.50" stroke="#333" stroke-width="1"/>
<line x1="599.89" y1="134.08" x2="603.89" y2="134.08" stroke="#333" stroke-width="1"/>
<rect x="615.18" y="171.54" width="22.59" height="8.46" fill="#616161" opacity="0.5"><title>Control — Biological: 0.221 ×10⁻³</title></rect>
<line x1="626.48" y1="172.46" x2="626.48" y2="170.70" stroke="#333" stroke-width="1"/>
<line x1="624.48" y1="172.46" x2="628.48" y2="172.46" stroke="#333" stroke-width="1"/>
<line x1="624.48" y1="170.70" x2="628.48" y2="170.70" stroke="#333" stroke-width="1"/>
<text x="615.2" y="194" text-anchor="end" font-size="10" fill="#9E9E9E" transform="rotate(-30,615.2,194)">Biological</text>
<rect x="655.14" y="170.63" width="22.59" height="9.37" fill="#2E7D32" opacity="0.5"><title>Partner Identity — Shapes: 0.245 ×10⁻³</title></rect>
<line x1="666.43" y1="174.70" x2="666.43" y2="164.43" stroke="#333" stroke-width="1"/>
<line x1="664.43" y1="174.70" x2="668.43" y2="174.70" stroke="#333" stroke-width="1"/>
<line x1="664.43" y1="164.43" x2="668.43" y2="164.43" stroke="#333" stroke-width="1"/>
<rect x="679.73" y="172.71" width="22.59" height="7.29" fill="#616161" opacity="0.5"><title>Control — Shapes: 0.190 ×10⁻³</title></rect>
<line x1="691.02" y1="175.13" x2="691.02" y2="170.57" stroke="#333" stroke-width="1"/>
<line x1="689.02" y1="175.13" x2="693.02" y2="175.13" stroke="#333" stroke-width="1"/>
<line x1="689.02" y1="170.57" x2="693.02" y2="170.57" stroke="#333" stroke-width="1"/>
<text x="679.7" y="194" text-anchor="end" font-size="10" fill="#9E9E9E" transform="rotate(-30,679.7,194)">Shapes</text>
<line x1="0" y1="180" x2="710" y2="180" stroke="#333"/>
<line x1="0" y1="0" x2="0" y2="180" stroke="#333"/>
</g>
<rect x="70" y="300" width="10" height="10" fill="#2E7D32"/>
<text x="84" y="308" font-size="9" fill="#333">Partner Identity</text>
<rect x="210" y="300" width="10" height="10" fill="#616161"/>
<text x="224" y="308" font-size="9" fill="#333">Control</text>
</svg>