<svg viewBox="0 0 1100 360" xmlns="http://www.w3.org/2000/svg" style="width:100%;max-width:1100px;height:auto;font-family:Arial,sans-serif;">
<rect width="1100" height="360" fill="white"/>
<g transform="translate(70,30)">
<line x1="0" y1="200.0" x2="1010" y2="200.0" stroke="#eee" stroke-width="1"/>
<text x="-8" y="204.0" text-anchor="end" font-size="10" fill="#666">0.00</text>
<line x1="0" y1="160.0" x2="1010" y2="160.0" stroke="#eee" stroke-width="1"/>
<text x="-8" y="164.0" text-anchor="end" font-size="10" fill="#666">0.94</text>
<line x1="0" y1="120.0" x2="1010" y2="120.0" stroke="#eee" stroke-width="1"/>
<text x="-8" y="124.0" text-anchor="end" font-size="10" fill="#666">1.88</text>
<line x1="0" y1="80.0" x2="1010" y2="80.0" stroke="#eee" stroke-width="1"/>
<text x="-8" y="84.0" text-anchor="end" font-size="10" fill="#666">2.82</text>
<line x1="0" y1="40.0" x2="1010" y2="40.0" stroke="#eee" stroke-width="1"/>
<text x="-8" y="44.0" text-anchor="end" font-size="10" fill="#666">3.76</text>
<line x1="0" y1="0.0" x2="1010" y2="0.0" stroke="#eee" stroke-width="1"/>
<text x="-8" y="4.0" text-anchor="end" font-size="10" fill="#666">4.70</text>
<text x="-50" y="100.0" text-anchor="middle" font-size="11" fill="#333" transform="rotate(-90,-50,100.0)">Mean R² (×10⁻³)</text>
<rect x="5.61" y="181.19" width="22.44" height="18.81" fill="#81C784" opacity="0.85"><title>Partner Identity: 0.000443</title></rect>
<line x1="16.83" y1="185.04" x2="16.83" y2="177.16" stroke="#333" stroke-width="1"/>
<line x1="14.83" y1="185.04" x2="18.83" y2="185.04" stroke="#333" stroke-width="1"/>
<line x1="14.83" y1="177.16" x2="18.83" y2="177.16" stroke="#333" stroke-width="1"/>
<rect x="28.06" y="190.97" width="22.44" height="9.03" fill="#BDBDBD" opacity="0.85"><title>Control: 0.000212</title></rect>
<line x1="39.28" y1="192.35" x2="39.28" y2="189.74" stroke="#333" stroke-width="1"/>
<line x1="37.28" y1="192.35" x2="41.28" y2="192.35" stroke="#333" stroke-width="1"/>
<line x1="37.28" y1="189.74" x2="41.28" y2="189.74" stroke="#333" stroke-width="1"/>
<text x="28.06" y="214" text-anchor="end" font-size="9" fill="#2196F3" transform="rotate(-45,28.06,214)">Phenomenology</text>
<rect x="61.72" y="180.84" width="22.44" height="19.16" fill="#81C784" opacity="0.85"><title>Partner Identity: 0.000451</title></rect>
<line x1="72.94" y1="184.47" x2="72.94" y2="176.79" stroke="#333" stroke-width="1"/>
<line x1="70.94" y1="184.47" x2="74.94" y2="184.47" stroke="#333" stroke-width="1"/>
<line x1="70.94" y1="176.79" x2="74.94" y2="176.79" stroke="#333" stroke-width="1"/>
<rect x="84.17" y="192.74" width="22.44" height="7.26" fill="#BDBDBD" opacity="0.85"><title>Control: 0.000171</title></rect>
<line x1="95.39" y1="193.59" x2="95.39" y2="191.58" stroke="#333" stroke-width="1"/>
<line x1="93.39" y1="193.59" x2="97.39" y2="193.59" stroke="#333" stroke-width="1"/>
<line x1="93.39" y1="191.58" x2="97.39" y2="191.58" stroke="#333" stroke-width="1"/>
<text x="84.17" y="214" text-anchor="end" font-size="9" fill="#2196F3" transform="rotate(-45,84.17,214)">Emotions</text>
<rect x="117.83" y="177.05" width="22.44" height="22.95" fill="#81C784" opacity="0.85"><title>Partner Identity: 0.000540</title></rect>
<line x1="129.06" y1="183.35" x2="129.06" y2="167.97" stroke="#333" stroke-width="1"/>
<line x1="127.06" y1="183.35" x2="131.06" y2="183.35" stroke="#333" stroke-width="1"/>
<line x1="127.06" y1="167.97" x2="131.06" y2="167.97" stroke="#333" stroke-width="1"/>
<rect x="140.28" y="193.92" width="22.44" height="6.08" fill="#BDBDBD" opacity="0.85"><title>Control: 0.000143</title></rect>
<line x1="151.50" y1="194.90" x2="151.50" y2="191.96" stroke="#333" stroke-width="1"/>
<line x1="149.50" y1="194.90" x2="153.50" y2="194.90" stroke="#333" stroke-width="1"/>
<line x1="149.50" y1="191.96" x2="153.50" y2="191.96" stroke="#333" stroke-width="1"/>
<text x="140.28" y="214" text-anchor="end" font-size="9" fill="#2196F3" transform="rotate(-45,140.28,214)">Agency</text>
<rect x="173.94" y="171.33" width="22.44" height="28.67" fill="#81C784" opacity="0.85"><title>Partner Identity: 0.000675</title></rect>
<line x1="185.17" y1="180.49" x2="185.17" y2="161.16" stroke="#333" stroke-width="1"/>
<line x1="183.17" y1="180.49" x2="187.17" y2="180.49" stroke="#333" stroke-width="1"/>
<line x1="183.17" y1="161.16" x2="187.17" y2="161.16" stroke="#333" stroke-width="1"/>
<rect x="196.39" y="192.83" width="22.44" height="7.17" fill="#BDBDBD" opacity="0.85"><title>Control: 0.000169</title></rect>
<line x1="207.61" y1="193.62" x2="207.61" y2="191.49" stroke="#333" stroke-width="1"/>
<line x1="205.61" y1="193.62" x2="209.61" y2="193.62" stroke="#333" stroke-width="1"/>
<line x1="205.61" y1="191.49" x2="209.61" y2="191.49" stroke="#333" stroke-width="1"/>
<text x="196.39" y="214" text-anchor="end" font-size="9" fill="#2196F3" transform="rotate(-45,196.39,214)">Intentions</text>
<rect x="230.06" y="169.53" width="22.44" height="30.47" fill="#81C784" opacity="0.85"><title>Partner Identity: 0.000717</title></rect>
<line x1="241.28" y1="175.35" x2="241.28" y2="161.97" stroke="#333" stroke-width="1"/>
<line x1="239.28" y1="175.35" x2="243.28" y2="175.35" stroke="#333" stroke-width="1"/>
<line x1="239.28" y1="161.97" x2="243.28" y2="161.97" stroke="#333" stroke-width="1"/>
<rect x="252.50" y="192.43" width="22.44" height="7.57" fill="#BDBDBD" opacity="0.85"><title>Control: 0.000178</title></rect>
<line x1="263.72" y1="193.55" x2="263.72" y2="190.63" stroke="#333" stroke-width="1"/>
<line x1="261.72" y1="193.55" x2="265.72" y2="193.55" stroke="#333" stroke-width="1"/>
<line x1="261.72" y1="190.63" x2="265.72" y2="190.63" stroke="#333" stroke-width="1"/>
<text x="252.50" y="214" text-anchor="end" font-size="9" fill="#2196F3" transform="rotate(-45,252.50,214)">Prediction</text>
<rect x="286.17" y="163.34" width="22.44" height="36.66" fill="#81C784" opacity="0.85"><title>Partner Identity: 0.000862</title></rect>
<line x1="297.39" y1="172.72" x2="297.39" y2="157.12" stroke="#333" stroke-width="1"/>
<line x1="295.39" y1="172.72" x2="299.39" y2="172.72" stroke="#333" stroke-width="1"/>
<line x1="295.39" y1="157.12" x2="299.39" y2="157.12" stroke="#333" stroke-width="1"/>
<rect x="308.61" y="189.23" width="22.44" height="10.77" fill="#BDBDBD" opacity="0.85"><title>Control: 0.000253</title></rect>
<line x1="319.83" y1="191.48" x2="319.83" y2="187.75" stroke="#333" stroke-width="1"/>
<line x1="317.83" y1="191.48" x2="321.83" y2="191.48" stroke="#333" stroke-width="1"/>
<line x1="317.83" y1="187.75" x2="321.83" y2="187.75" stroke="#333" stroke-width="1"/>
<text x="308.61" y="214" text-anchor="end" font-size="9" fill="#2196F3" transform="rotate(-45,308.61,214)">Cognitive</text>
<rect x="342.28" y="169.84" width="22.44" height="30.16" fill="#81C784" opacity="0.85"><title>Partner Identity: 0.000709</title></rect>
<line x1="353.50" y1="178.37" x2="353.50" y2="154.70" stroke="#333" stroke-width="1"/>
<line x1="351.50" y1="178.37" x2="355.50" y2="178.37" stroke="#333" stroke-width="1"/>
<line x1="351.50" y1="154.70" x2="355.50" y2="154.70" stroke="#333" stroke-width="1"/>
<rect x="364.72" y="192.87" width="22.44" height="7.13" fill="#BDBDBD" opacity="0.85"><title>Control: 0.000168</title></rect>
<line x1="375.94" y1="193.89" x2="375.94" y2="190.64" stroke="#333" stroke-width="1"/>
<line x1="373.94" y1="193.89" x2="377.94" y2="193.89" stroke="#333" stroke-width="1"/>
<line x1="373.94" y1="190.64" x2="377.94" y2="190.64" stroke="#333" stroke-width="1"/>
<text x="364.72" y="214" text-anchor="end" font-size="9" fill="#2196F3" transform="rotate(-45,364.72,214)">Social</text>
<rect x="398.39" y="161.40" width="22.44" height="38.60" fill="#81C784" opacity="0.85"><title>Partner Identity: 0.000908</title></rect>
<line x1="409.61" y1="169.51" x2="409.61" y2="155.13" stroke="#333" stroke-width="1"/>
<line x1="407.61" y1="169.51" x2="411.61" y2="169.51" stroke="#333" stroke-width="1"/>
<line x1="407.61" y1="155.13" x2="411.61" y2="155.13" stroke="#333" stroke-width="1"/>
<rect x="420.83" y="190.29" width="22.44" height="9.71" fill="#BDBDBD" opacity="0.85"><title>Control: 0.000228</title></rect>
<line x1="432.06" y1="191.93" x2="432.06" y2="188.54" stroke="#333" stroke-width="1"/>
<line x1="430.06" y1="191.93" x2="434.06" y2="191.93" stroke="#333" stroke-width="1"/>
<line x1="430.06" y1="188.54" x2="434.06" y2="188.54" stroke="#333" stroke-width="1"/>
<text x="420.83" y="214" text-anchor="end" font-size="9" fill="#2196F3" transform="rotate(-45,420.83,214)">Attention</text>
<rect x="454.50" y="186.91" width="22.44" height="13.09" fill="#81C784" opacity="0.85"><title>Partner Identity: 0.000308</title></rect>
<line x1="465.72" y1="188.93" x2="465.72" y2="184.17" stroke="#333" stroke-width="1"/>
<line x1="463.72" y1="188.93" x2="467.72" y2="188.93" stroke="#333" stroke-width="1"/>
<line x1="463.72" y1="184.17" x2="467.72" y2="184.17" stroke="#333" stroke-width="1"/>
<rect x="476.94" y="191.22" width="22.44" height="8.78" fill="#BDBDBD" opacity="0.85"><title>Control: 0.000207</title></rect>
<line x1="488.17" y1="192.55" x2="488.17" y2="189.93" stroke="#333" stroke-width="1"/>
<line x1="486.17" y1="192.55" x2="490.17" y2="192.55" stroke="#333" stroke-width="1"/>
<line x1="486.17" y1="189.93" x2="490.17" y2="189.93" stroke="#333" stroke-width="1"/>
<text x="476.94" y="214" text-anchor="end" font-size="9" fill="#4CAF50" transform="rotate(-45,476.94,214)">Embodiment</text>
<rect x="510.61" y="175.29" width="22.44" height="24.71" fill="#81C784" opacity="0.85"><title>Partner Identity: 0.000581</title></rect>
<line x1="521.83" y1="180.11" x2="521.83" y2="170.40" stroke="#333" stroke-width="1"/>
<line x1="519.83" y1="180.11" x2="523.83" y2="180.11" stroke="#333" stroke-width="1"/>
<line x1="519.83" y1="170.40" x2="523.83" y2="170.40" stroke="#333" stroke-width="1"/>
<rect x="533.06" y="193.00" width="22.44" height="7.00" fill="#BDBDBD" opacity="0.85"><title>Control: 0.000165</title></rect>
<line x1="544.28" y1="193.84" x2="544.28" y2="191.48" stroke="#333" stroke-width="1"/>
<line x1="542.28" y1="193.84" x2="546.28" y2="193.84" stroke="#333" stroke-width="1"/>
<line x1="542.28" y1="191.48" x2="546.28" y2="191.48" stroke="#333" stroke-width="1"/>
<text x="533.06" y="214" text-anchor="end" font-size="9" fill="#4CAF50" transform="rotate(-45,533.06,214)">Roles</text>
<rect x="566.72" y="181.94" width="22.44" height="18.06" fill="#81C784" opacity="0.85"><title>Partner Identity: 0.000425</title></rect>
<line x1="577.94" y1="186.17" x2="577.94" y2="178.28" stroke="#333" stroke-width="1"/>
<line x1="575.94" y1="186.17" x2="579.94" y2="186.17" stroke="#333" stroke-width="1"/>
<line x1="575.94" y1="178.28" x2="579.94" y2="178.28" stroke="#333" stroke-width="1"/>
<rect x="589.17" y="189.57" width="22.44" height="10.43" fill="#BDBDBD" opacity="0.85"><title>Control: 0.000245</title></rect>
<line x1="600.39" y1="190.81" x2="600.39" y2="188.52" stroke="#333" stroke-width="1"/>
<line x1="598.39" y1="190.81" x2="602.39" y2="190.81" stroke="#333" stroke-width="1"/>
<line x1="598.39" y1="188.52" x2="602.39" y2="188.52" stroke="#333" stroke-width="1"/>
<text x="589.17" y="214" text-anchor="end" font-size="9" fill="#4CAF50" transform="rotate(-45,589.17,214)">Animacy</text>
<rect x="622.83" y="186.66" width="22.44" height="13.34" fill="#81C784" opacity="0.85"><title>Partner Identity: 0.000314</title></rect>
<line x1="634.06" y1="191.81" x2="634.06" y2="181.57" stroke="#333" stroke-width="1"/>
<line x1="632.06" y1="191.81" x2="636.06" y2="191.81" stroke="#333" stroke-width="1"/>
<line x1="632.06" y1="181.57" x2="636.06" y2="181.57" stroke="#333" stroke-width="1"/>
<rect x="645.28" y="189.24" width="22.44" height="10.76" fill="#BDBDBD" opacity="0.85"><title>Control: 0.000253</title></rect>
<line x1="656.50" y1="191.73" x2="656.50" y2="187.13" stroke="#333" stroke-width="1"/>
<line x1="654.50" y1="191.73" x2="658.50" y2="191.73" stroke="#333" stroke-width="1"/>
<line x1="654.50" y1="187.13" x2="658.50" y2="187.13" stroke="#333" stroke-width="1"/>
<text x="645.28" y="214" text-anchor="end" font-size="9" fill="#FF9800" transform="rotate(-45,645.28,214)">Formality</text>
<rect x="678.94" y="180.66" width="22.44" height="19.34" fill="#81C784" opacity="0.85"><title>Partner Identity: 0.000455</title></rect>
<line x1="690.17" y1="184.15" x2="690.17" y2="176.97" stroke="#333" stroke-width="1"/>
<line x1="688.17" y1="184.15" x2="692.17" y2="184.15" stroke="#333" stroke-width="1"/>
<line x1="688.17" y1="176.97" x2="692.17" y2="176.97" stroke="#333" stroke-width="1"/>
<rect x="701.39" y="187.96" width="22.44" height="12.04" fill="#BDBDBD" opacity="0.85"><title>Control: 0.000283</title></rect>
<line x1="712.61" y1="189.00" x2="712.61" y2="186.99" stroke="#333" stroke-width="1"/>
<line x1="710.61" y1="189.00" x2="714.61" y2="189.00" stroke="#333" stroke-width="1"/>
<line x1="710.61" y1="186.99" x2="714.61" y2="186.99" stroke="#333" stroke-width="1"/>
<text x="701.39" y="214" text-anchor="end" font-size="9" fill="#FF9800" transform="rotate(-45,701.39,214)">Expertise</text>
<rect x="735.06" y="187.39" width="22.44" height="12.61" fill="#81C784" opacity="0.85"><title>Partner Identity: 0.000297</title></rect>
<line x1="746.28" y1="193.14" x2="746.28" y2="180.72" stroke="#333" stroke-width="1"/>
<line x1="744.28" y1="193.14" x2="748.28" y2="193.14" stroke="#333" stroke-width="1"/>
<line x1="744.28" y1="180.72" x2="748.28" y2="180.72" stroke="#333" stroke-width="1"/>
<rect x="757.50" y="189.10" width="22.44" height="10.90" fill="#BDBDBD" opacity="0.85"><title>Control: 0.000257</title></rect>
<line x1="768.72" y1="192.14" x2="768.72" y2="187.49" stroke="#333" stroke-width="1"/>
<line x1="766.72" y1="192.14" x2="770.72" y2="192.14" stroke="#333" stroke-width="1"/>
<line x1="766.72" y1="187.49" x2="770.72" y2="187.49" stroke="#333" stroke-width="1"/>
<text x="757.50" y="214" text-anchor="end" font-size="9" fill="#FF9800" transform="rotate(-45,757.50,214)">Helpfulness</text>
<rect x="791.17" y="172.25" width="22.44" height="27.75" fill="#81C784" opacity="0.85"><title>Partner Identity: 0.000653</title></rect>
<line x1="802.39" y1="178.19" x2="802.39" y2="167.81" stroke="#333" stroke-width="1"/>
<line x1="800.39" y1="178.19" x2="804.39" y2="178.19" stroke="#333" stroke-width="1"/>
<line x1="800.39" y1="167.81" x2="804.39" y2="167.81" stroke="#333" stroke-width="1"/>
<rect x="813.61" y="192.06" width="22.44" height="7.94" fill="#BDBDBD" opacity="0.85"><title>Control: 0.000187</title></rect>
<line x1="824.83" y1="192.89" x2="824.83" y2="190.02" stroke="#333" stroke-width="1"/>
<line x1="822.83" y1="192.89" x2="826.83" y2="192.89" stroke="#333" stroke-width="1"/>
<line x1="822.83" y1="190.02" x2="826.83" y2="190.02" stroke="#333" stroke-width="1"/>
<text x="813.61" y="214" text-anchor="end" font-size="9" fill="#9E9E9E" transform="rotate(-45,813.61,214)">Baseline</text>
<rect x="847.28" y="186.08" width="22.44" height="13.92" fill="#81C784" opacity="0.85"><title>Partner Identity: 0.000327</title></rect>
<line x1="858.50" y1="188.04" x2="858.50" y2="183.38" stroke="#333" stroke-width="1"/>
<line x1="856.50" y1="188.04" x2="860.50" y2="188.04" stroke="#333" stroke-width="1"/>
<line x1="856.50" y1="183.38" x2="860.50" y2="183.38" stroke="#333" stroke-width="1"/>
<rect x="869.72" y="191.22" width="22.44" height="8.78" fill="#BDBDBD" opacity="0.85"><title>Control: 0.000207</title></rect>
<line x1="880.94" y1="192.37" x2="880.94" y2="190.06" stroke="#333" stroke-width="1"/>
<line x1="878.94" y1="192.37" x2="882.94" y2="192.37" stroke="#333" stroke-width="1"/>
<line x1="878.94" y1="190.06" x2="882.94" y2="190.06" stroke="#333" stroke-width="1"/>
<text x="869.72" y="214" text-anchor="end" font-size="9" fill="#9E9E9E" transform="rotate(-45,869.72,214)">Biological</text>
<rect x="903.39" y="187.07" width="22.44" height="12.93" fill="#81C784" opacity="0.85"><title>Partner Identity: 0.000304</title></rect>
<line x1="914.61" y1="192.94" x2="914.61" y2="180.78" stroke="#333" stroke-width="1"/>
<line x1="912.61" y1="192.94" x2="916.61" y2="192.94" stroke="#333" stroke-width="1"/>
<line x1="912.61" y1="180.78" x2="916.61" y2="180.78" stroke="#333" stroke-width="1"/>
<rect x="925.83" y="191.23" width="22.44" height="8.77" fill="#BDBDBD" opacity="0.85"><title>Control: 0.000206</title></rect>
<line x1="937.06" y1="193.23" x2="937.06" y2="188.92" stroke="#333" stroke-width="1"/>
<line x1="935.06" y1="193.23" x2="939.06" y2="193.23" stroke="#333" stroke-width="1"/>
<line x1="935.06" y1="188.92" x2="939.06" y2="188.92" stroke="#333" stroke-width="1"/>
<text x="925.83" y="214" text-anchor="end" font-size="9" fill="#9E9E9E" transform="rotate(-45,925.83,214)">Shapes</text>
<rect x="959.50" y="162.06" width="22.44" height="37.94" fill="#81C784" opacity="0.85"><title>Partner Identity: 0.000893</title></rect>
<line x1="970.72" y1="170.03" x2="970.72" y2="150.14" stroke="#333" stroke-width="1"/>
<line x1="968.72" y1="170.03" x2="972.72" y2="170.03" stroke="#333" stroke-width="1"/>
<line x1="968.72" y1="150.14" x2="972.72" y2="150.14" stroke="#333" stroke-width="1"/>
<rect x="981.94" y="191.66" width="22.44" height="8.34" fill="#BDBDBD" opacity="0.85"><title>Control: 0.000196</title></rect>
<line x1="993.17" y1="192.61" x2="993.17" y2="190.64" stroke="#333" stroke-width="1"/>
<line x1="991.17" y1="192.61" x2="995.17" y2="192.61" stroke="#333" stroke-width="1"/>
<line x1="991.17" y1="190.64" x2="995.17" y2="190.64" stroke="#333" stroke-width="1"/>
<text x="981.94" y="214" text-anchor="end" font-size="9" fill="#00BCD4" transform="rotate(-45,981.94,214)">SysPrompt (labeled)</text>
<line x1="0" y1="200" x2="1010" y2="200" stroke="#333"/>
<line x1="0" y1="0" x2="0" y2="200" stroke="#333"/>
</g>
<rect x="70.0" y="324" width="10" height="10" fill="#81C784"/>
<text x="84.0" y="332" font-size="8" fill="#333">Partner Identity</text>
<rect x="272.0" y="324" width="10" height="10" fill="#BDBDBD"/>
<text x="286.0" y="332" font-size="8" fill="#333">Control</text>
</svg>