<svg viewBox="0 0 1100 360" xmlns="http://www.w3.org/2000/svg" style="width:100%;max-width:1100px;height:auto;font-family:Arial,sans-serif;">
<rect width="1100" height="360" fill="white"/>
<g transform="translate(70,30)">
<line x1="0" y1="200.0" x2="1010" y2="200.0" stroke="#eee" stroke-width="1"/>
<text x="-8" y="204.0" text-anchor="end" font-size="10" fill="#666">0.00</text>
<line x1="0" y1="160.0" x2="1010" y2="160.0" stroke="#eee" stroke-width="1"/>
<text x="-8" y="164.0" text-anchor="end" font-size="10" fill="#666">1.00</text>
<line x1="0" y1="120.0" x2="1010" y2="120.0" stroke="#eee" stroke-width="1"/>
<text x="-8" y="124.0" text-anchor="end" font-size="10" fill="#666">2.01</text>
<line x1="0" y1="80.0" x2="1010" y2="80.0" stroke="#eee" stroke-width="1"/>
<text x="-8" y="84.0" text-anchor="end" font-size="10" fill="#666">3.01</text>
<line x1="0" y1="40.0" x2="1010" y2="40.0" stroke="#eee" stroke-width="1"/>
<text x="-8" y="44.0" text-anchor="end" font-size="10" fill="#666">4.01</text>
<line x1="0" y1="0.0" x2="1010" y2="0.0" stroke="#eee" stroke-width="1"/>
<text x="-8" y="4.0" text-anchor="end" font-size="10" fill="#666">5.02</text>
<text x="-50" y="100.0" text-anchor="middle" font-size="11" fill="#333" transform="rotate(-90,-50,100.0)">Mean R² (×10⁻³)</text>
<rect x="5.61" y="182.01" width="22.44" height="17.99" fill="#81C784" opacity="0.85"><title>Partner Identity: 0.000451</title></rect>
<line x1="16.83" y1="190.13" x2="16.83" y2="176.81" stroke="#333" stroke-width="1"/>
<line x1="14.83" y1="190.13" x2="18.83" y2="190.13" stroke="#333" stroke-width="1"/>
<line x1="14.83" y1="176.81" x2="18.83" y2="176.81" stroke="#333" stroke-width="1"/>
<rect x="28.06" y="193.18" width="22.44" height="6.82" fill="#BDBDBD" opacity="0.85"><title>Control: 0.000171</title></rect>
<line x1="39.28" y1="194.54" x2="39.28" y2="191.21" stroke="#333" stroke-width="1"/>
<line x1="37.28" y1="194.54" x2="41.28" y2="194.54" stroke="#333" stroke-width="1"/>
<line x1="37.28" y1="191.21" x2="41.28" y2="191.21" stroke="#333" stroke-width="1"/>
<text x="28.06" y="214" text-anchor="end" font-size="9" fill="#2196F3" transform="rotate(-45,28.06,214)">Phenomenology</text>
<rect x="61.72" y="178.29" width="22.44" height="21.71" fill="#81C784" opacity="0.85"><title>Partner Identity: 0.000545</title></rect>
<line x1="72.94" y1="187.14" x2="72.94" y2="171.62" stroke="#333" stroke-width="1"/>
<line x1="70.94" y1="187.14" x2="74.94" y2="187.14" stroke="#333" stroke-width="1"/>
<line x1="70.94" y1="171.62" x2="74.94" y2="171.62" stroke="#333" stroke-width="1"/>
<rect x="84.17" y="194.71" width="22.44" height="5.29" fill="#BDBDBD" opacity="0.85"><title>Control: 0.000133</title></rect>
<line x1="95.39" y1="195.46" x2="95.39" y2="193.14" stroke="#333" stroke-width="1"/>
<line x1="93.39" y1="195.46" x2="97.39" y2="195.46" stroke="#333" stroke-width="1"/>
<line x1="93.39" y1="193.14" x2="97.39" y2="193.14" stroke="#333" stroke-width="1"/>
<text x="84.17" y="214" text-anchor="end" font-size="9" fill="#2196F3" transform="rotate(-45,84.17,214)">Emotions</text>
<rect x="117.83" y="172.71" width="22.44" height="27.29" fill="#81C784" opacity="0.85"><title>Partner Identity: 0.000685</title></rect>
<line x1="129.06" y1="187.14" x2="129.06" y2="164.04" stroke="#333" stroke-width="1"/>
<line x1="127.06" y1="187.14" x2="131.06" y2="187.14" stroke="#333" stroke-width="1"/>
<line x1="127.06" y1="164.04" x2="131.06" y2="164.04" stroke="#333" stroke-width="1"/>
<rect x="140.28" y="192.61" width="22.44" height="7.39" fill="#BDBDBD" opacity="0.85"><title>Control: 0.000185</title></rect>
<line x1="151.50" y1="194.70" x2="151.50" y2="190.46" stroke="#333" stroke-width="1"/>
<line x1="149.50" y1="194.70" x2="153.50" y2="194.70" stroke="#333" stroke-width="1"/>
<line x1="149.50" y1="190.46" x2="153.50" y2="190.46" stroke="#333" stroke-width="1"/>
<text x="140.28" y="214" text-anchor="end" font-size="9" fill="#2196F3" transform="rotate(-45,140.28,214)">Agency</text>
<rect x="173.94" y="167.21" width="22.44" height="32.79" fill="#81C784" opacity="0.85"><title>Partner Identity: 0.000823</title></rect>
<line x1="185.17" y1="183.55" x2="185.17" y2="159.43" stroke="#333" stroke-width="1"/>
<line x1="183.17" y1="183.55" x2="187.17" y2="183.55" stroke="#333" stroke-width="1"/>
<line x1="183.17" y1="159.43" x2="187.17" y2="159.43" stroke="#333" stroke-width="1"/>
<rect x="196.39" y="192.56" width="22.44" height="7.44" fill="#BDBDBD" opacity="0.85"><title>Control: 0.000187</title></rect>
<line x1="207.61" y1="193.95" x2="207.61" y2="191.34" stroke="#333" stroke-width="1"/>
<line x1="205.61" y1="193.95" x2="209.61" y2="193.95" stroke="#333" stroke-width="1"/>
<line x1="205.61" y1="191.34" x2="209.61" y2="191.34" stroke="#333" stroke-width="1"/>
<text x="196.39" y="214" text-anchor="end" font-size="9" fill="#2196F3" transform="rotate(-45,196.39,214)">Intentions</text>
<rect x="230.06" y="173.84" width="22.44" height="26.16" fill="#81C784" opacity="0.85"><title>Partner Identity: 0.000656</title></rect>
<line x1="241.28" y1="188.91" x2="241.28" y2="159.57" stroke="#333" stroke-width="1"/>
<line x1="239.28" y1="188.91" x2="243.28" y2="188.91" stroke="#333" stroke-width="1"/>
<line x1="239.28" y1="159.57" x2="243.28" y2="159.57" stroke="#333" stroke-width="1"/>
<rect x="252.50" y="189.90" width="22.44" height="10.10" fill="#BDBDBD" opacity="0.85"><title>Control: 0.000253</title></rect>
<line x1="263.72" y1="192.59" x2="263.72" y2="188.27" stroke="#333" stroke-width="1"/>
<line x1="261.72" y1="192.59" x2="265.72" y2="192.59" stroke="#333" stroke-width="1"/>
<line x1="261.72" y1="188.27" x2="265.72" y2="188.27" stroke="#333" stroke-width="1"/>
<text x="252.50" y="214" text-anchor="end" font-size="9" fill="#2196F3" transform="rotate(-45,252.50,214)">Prediction</text>
<rect x="286.17" y="167.57" width="22.44" height="32.43" fill="#81C784" opacity="0.85"><title>Partner Identity: 0.000814</title></rect>
<line x1="297.39" y1="179.69" x2="297.39" y2="159.14" stroke="#333" stroke-width="1"/>
<line x1="295.39" y1="179.69" x2="299.39" y2="179.69" stroke="#333" stroke-width="1"/>
<line x1="295.39" y1="159.14" x2="299.39" y2="159.14" stroke="#333" stroke-width="1"/>
<rect x="308.61" y="191.60" width="22.44" height="8.40" fill="#BDBDBD" opacity="0.85"><title>Control: 0.000211</title></rect>
<line x1="319.83" y1="192.93" x2="319.83" y2="190.45" stroke="#333" stroke-width="1"/>
<line x1="317.83" y1="192.93" x2="321.83" y2="192.93" stroke="#333" stroke-width="1"/>
<line x1="317.83" y1="190.45" x2="321.83" y2="190.45" stroke="#333" stroke-width="1"/>
<text x="308.61" y="214" text-anchor="end" font-size="9" fill="#2196F3" transform="rotate(-45,308.61,214)">Cognitive</text>
<rect x="342.28" y="163.01" width="22.44" height="36.99" fill="#81C784" opacity="0.85"><title>Partner Identity: 0.000928</title></rect>
<line x1="353.50" y1="184.00" x2="353.50" y2="145.51" stroke="#333" stroke-width="1"/>
<line x1="351.50" y1="184.00" x2="355.50" y2="184.00" stroke="#333" stroke-width="1"/>
<line x1="351.50" y1="145.51" x2="355.50" y2="145.51" stroke="#333" stroke-width="1"/>
<rect x="364.72" y="189.91" width="22.44" height="10.09" fill="#BDBDBD" opacity="0.85"><title>Control: 0.000253</title></rect>
<line x1="375.94" y1="192.79" x2="375.94" y2="187.93" stroke="#333" stroke-width="1"/>
<line x1="373.94" y1="192.79" x2="377.94" y2="192.79" stroke="#333" stroke-width="1"/>
<line x1="373.94" y1="187.93" x2="377.94" y2="187.93" stroke="#333" stroke-width="1"/>
<text x="364.72" y="214" text-anchor="end" font-size="9" fill="#2196F3" transform="rotate(-45,364.72,214)">Social</text>
<rect x="398.39" y="161.79" width="22.44" height="38.21" fill="#81C784" opacity="0.85"><title>Partner Identity: 0.000959</title></rect>
<line x1="409.61" y1="176.16" x2="409.61" y2="155.45" stroke="#333" stroke-width="1"/>
<line x1="407.61" y1="176.16" x2="411.61" y2="176.16" stroke="#333" stroke-width="1"/>
<line x1="407.61" y1="155.45" x2="411.61" y2="155.45" stroke="#333" stroke-width="1"/>
<rect x="420.83" y="190.43" width="22.44" height="9.57" fill="#BDBDBD" opacity="0.85"><title>Control: 0.000240</title></rect>
<line x1="432.06" y1="192.12" x2="432.06" y2="189.14" stroke="#333" stroke-width="1"/>
<line x1="430.06" y1="192.12" x2="434.06" y2="192.12" stroke="#333" stroke-width="1"/>
<line x1="430.06" y1="189.14" x2="434.06" y2="189.14" stroke="#333" stroke-width="1"/>
<text x="420.83" y="214" text-anchor="end" font-size="9" fill="#2196F3" transform="rotate(-45,420.83,214)">Attention</text>
<rect x="454.50" y="187.91" width="22.44" height="12.09" fill="#81C784" opacity="0.85"><title>Partner Identity: 0.000303</title></rect>
<line x1="465.72" y1="192.35" x2="465.72" y2="183.90" stroke="#333" stroke-width="1"/>
<line x1="463.72" y1="192.35" x2="467.72" y2="192.35" stroke="#333" stroke-width="1"/>
<line x1="463.72" y1="183.90" x2="467.72" y2="183.90" stroke="#333" stroke-width="1"/>
<rect x="476.94" y="192.72" width="22.44" height="7.28" fill="#BDBDBD" opacity="0.85"><title>Control: 0.000183</title></rect>
<line x1="488.17" y1="194.56" x2="488.17" y2="190.18" stroke="#333" stroke-width="1"/>
<line x1="486.17" y1="194.56" x2="490.17" y2="194.56" stroke="#333" stroke-width="1"/>
<line x1="486.17" y1="190.18" x2="490.17" y2="190.18" stroke="#333" stroke-width="1"/>
<text x="476.94" y="214" text-anchor="end" font-size="9" fill="#4CAF50" transform="rotate(-45,476.94,214)">Embodiment</text>
<rect x="510.61" y="183.67" width="22.44" height="16.33" fill="#81C784" opacity="0.85"><title>Partner Identity: 0.000410</title></rect>
<line x1="521.83" y1="193.31" x2="521.83" y2="167.43" stroke="#333" stroke-width="1"/>
<line x1="519.83" y1="193.31" x2="523.83" y2="193.31" stroke="#333" stroke-width="1"/>
<line x1="519.83" y1="167.43" x2="523.83" y2="167.43" stroke="#333" stroke-width="1"/>
<rect x="533.06" y="192.33" width="22.44" height="7.67" fill="#BDBDBD" opacity="0.85"><title>Control: 0.000192</title></rect>
<line x1="544.28" y1="194.23" x2="544.28" y2="190.18" stroke="#333" stroke-width="1"/>
<line x1="542.28" y1="194.23" x2="546.28" y2="194.23" stroke="#333" stroke-width="1"/>
<line x1="542.28" y1="190.18" x2="546.28" y2="190.18" stroke="#333" stroke-width="1"/>
<text x="533.06" y="214" text-anchor="end" font-size="9" fill="#4CAF50" transform="rotate(-45,533.06,214)">Roles</text>
<rect x="566.72" y="181.33" width="22.44" height="18.67" fill="#81C784" opacity="0.85"><title>Partner Identity: 0.000468</title></rect>
<line x1="577.94" y1="190.17" x2="577.94" y2="171.44" stroke="#333" stroke-width="1"/>
<line x1="575.94" y1="190.17" x2="579.94" y2="190.17" stroke="#333" stroke-width="1"/>
<line x1="575.94" y1="171.44" x2="579.94" y2="171.44" stroke="#333" stroke-width="1"/>
<rect x="589.17" y="191.10" width="22.44" height="8.90" fill="#BDBDBD" opacity="0.85"><title>Control: 0.000223</title></rect>
<line x1="600.39" y1="193.29" x2="600.39" y2="188.12" stroke="#333" stroke-width="1"/>
<line x1="598.39" y1="193.29" x2="602.39" y2="193.29" stroke="#333" stroke-width="1"/>
<line x1="598.39" y1="188.12" x2="602.39" y2="188.12" stroke="#333" stroke-width="1"/>
<text x="589.17" y="214" text-anchor="end" font-size="9" fill="#4CAF50" transform="rotate(-45,589.17,214)">Animacy</text>
<rect x="622.83" y="181.91" width="22.44" height="18.09" fill="#81C784" opacity="0.85"><title>Partner Identity: 0.000454</title></rect>
<line x1="634.06" y1="190.73" x2="634.06" y2="175.91" stroke="#333" stroke-width="1"/>
<line x1="632.06" y1="190.73" x2="636.06" y2="190.73" stroke="#333" stroke-width="1"/>
<line x1="632.06" y1="175.91" x2="636.06" y2="175.91" stroke="#333" stroke-width="1"/>
<rect x="645.28" y="189.52" width="22.44" height="10.48" fill="#BDBDBD" opacity="0.85"><title>Control: 0.000263</title></rect>
<line x1="656.50" y1="192.47" x2="656.50" y2="187.24" stroke="#333" stroke-width="1"/>
<line x1="654.50" y1="192.47" x2="658.50" y2="192.47" stroke="#333" stroke-width="1"/>
<line x1="654.50" y1="187.24" x2="658.50" y2="187.24" stroke="#333" stroke-width="1"/>
<text x="645.28" y="214" text-anchor="end" font-size="9" fill="#FF9800" transform="rotate(-45,645.28,214)">Formality</text>
<rect x="678.94" y="176.80" width="22.44" height="23.20" fill="#81C784" opacity="0.85"><title>Partner Identity: 0.000582</title></rect>
<line x1="690.17" y1="184.01" x2="690.17" y2="169.47" stroke="#333" stroke-width="1"/>
<line x1="688.17" y1="184.01" x2="692.17" y2="184.01" stroke="#333" stroke-width="1"/>
<line x1="688.17" y1="169.47" x2="692.17" y2="169.47" stroke="#333" stroke-width="1"/>
<rect x="701.39" y="191.78" width="22.44" height="8.22" fill="#BDBDBD" opacity="0.85"><title>Control: 0.000206</title></rect>
<line x1="712.61" y1="192.82" x2="712.61" y2="190.57" stroke="#333" stroke-width="1"/>
<line x1="710.61" y1="192.82" x2="714.61" y2="192.82" stroke="#333" stroke-width="1"/>
<line x1="710.61" y1="190.57" x2="714.61" y2="190.57" stroke="#333" stroke-width="1"/>
<text x="701.39" y="214" text-anchor="end" font-size="9" fill="#FF9800" transform="rotate(-45,701.39,214)">Expertise</text>
<rect x="735.06" y="175.22" width="22.44" height="24.78" fill="#81C784" opacity="0.85"><title>Partner Identity: 0.000622</title></rect>
<line x1="746.28" y1="190.35" x2="746.28" y2="167.17" stroke="#333" stroke-width="1"/>
<line x1="744.28" y1="190.35" x2="748.28" y2="190.35" stroke="#333" stroke-width="1"/>
<line x1="744.28" y1="167.17" x2="748.28" y2="167.17" stroke="#333" stroke-width="1"/>
<rect x="757.50" y="189.80" width="22.44" height="10.20" fill="#BDBDBD" opacity="0.85"><title>Control: 0.000256</title></rect>
<line x1="768.72" y1="192.88" x2="768.72" y2="188.49" stroke="#333" stroke-width="1"/>
<line x1="766.72" y1="192.88" x2="770.72" y2="192.88" stroke="#333" stroke-width="1"/>
<line x1="766.72" y1="188.49" x2="770.72" y2="188.49" stroke="#333" stroke-width="1"/>
<text x="757.50" y="214" text-anchor="end" font-size="9" fill="#FF9800" transform="rotate(-45,757.50,214)">Helpfulness</text>
<rect x="791.17" y="188.71" width="22.44" height="11.29" fill="#81C784" opacity="0.85"><title>Partner Identity: 0.000283</title></rect>
<line x1="802.39" y1="195.17" x2="802.39" y2="167.89" stroke="#333" stroke-width="1"/>
<line x1="800.39" y1="195.17" x2="804.39" y2="195.17" stroke="#333" stroke-width="1"/>
<line x1="800.39" y1="167.89" x2="804.39" y2="167.89" stroke="#333" stroke-width="1"/>
<rect x="813.61" y="191.63" width="22.44" height="8.37" fill="#BDBDBD" opacity="0.85"><title>Control: 0.000210</title></rect>
<line x1="824.83" y1="194.50" x2="824.83" y2="186.56" stroke="#333" stroke-width="1"/>
<line x1="822.83" y1="194.50" x2="826.83" y2="194.50" stroke="#333" stroke-width="1"/>
<line x1="822.83" y1="186.56" x2="826.83" y2="186.56" stroke="#333" stroke-width="1"/>
<text x="813.61" y="214" text-anchor="end" font-size="9" fill="#9E9E9E" transform="rotate(-45,813.61,214)">Baseline</text>
<rect x="847.28" y="190.01" width="22.44" height="9.99" fill="#81C784" opacity="0.85"><title>Partner Identity: 0.000251</title></rect>
<line x1="858.50" y1="192.93" x2="858.50" y2="187.03" stroke="#333" stroke-width="1"/>
<line x1="856.50" y1="192.93" x2="860.50" y2="192.93" stroke="#333" stroke-width="1"/>
<line x1="856.50" y1="187.03" x2="860.50" y2="187.03" stroke="#333" stroke-width="1"/>
<rect x="869.72" y="193.09" width="22.44" height="6.91" fill="#BDBDBD" opacity="0.85"><title>Control: 0.000173</title></rect>
<line x1="880.94" y1="194.03" x2="880.94" y2="191.15" stroke="#333" stroke-width="1"/>
<line x1="878.94" y1="194.03" x2="882.94" y2="194.03" stroke="#333" stroke-width="1"/>
<line x1="878.94" y1="191.15" x2="882.94" y2="191.15" stroke="#333" stroke-width="1"/>
<text x="869.72" y="214" text-anchor="end" font-size="9" fill="#9E9E9E" transform="rotate(-45,869.72,214)">Biological</text>
<rect x="903.39" y="175.26" width="22.44" height="24.74" fill="#81C784" opacity="0.85"><title>Partner Identity: 0.000621</title></rect>
<line x1="914.61" y1="188.29" x2="914.61" y2="166.13" stroke="#333" stroke-width="1"/>
<line x1="912.61" y1="188.29" x2="916.61" y2="188.29" stroke="#333" stroke-width="1"/>
<line x1="912.61" y1="166.13" x2="916.61" y2="166.13" stroke="#333" stroke-width="1"/>
<rect x="925.83" y="191.16" width="22.44" height="8.84" fill="#BDBDBD" opacity="0.85"><title>Control: 0.000222</title></rect>
<line x1="937.06" y1="193.35" x2="937.06" y2="189.23" stroke="#333" stroke-width="1"/>
<line x1="935.06" y1="193.35" x2="939.06" y2="193.35" stroke="#333" stroke-width="1"/>
<line x1="935.06" y1="189.23" x2="939.06" y2="189.23" stroke="#333" stroke-width="1"/>
<text x="925.83" y="214" text-anchor="end" font-size="9" fill="#9E9E9E" transform="rotate(-45,925.83,214)">Shapes</text>
<rect x="959.50" y="165.18" width="22.44" height="34.82" fill="#81C784" opacity="0.85"><title>Partner Identity: 0.000873</title></rect>
<line x1="970.72" y1="172.06" x2="970.72" y2="157.84" stroke="#333" stroke-width="1"/>
<line x1="968.72" y1="172.06" x2="972.72" y2="172.06" stroke="#333" stroke-width="1"/>
<line x1="968.72" y1="157.84" x2="972.72" y2="157.84" stroke="#333" stroke-width="1"/>
<rect x="981.94" y="193.24" width="22.44" height="6.76" fill="#BDBDBD" opacity="0.85"><title>Control: 0.000169</title></rect>
<line x1="993.17" y1="194.00" x2="993.17" y2="192.13" stroke="#333" stroke-width="1"/>
<line x1="991.17" y1="194.00" x2="995.17" y2="194.00" stroke="#333" stroke-width="1"/>
<line x1="991.17" y1="192.13" x2="995.17" y2="192.13" stroke="#333" stroke-width="1"/>
<text x="981.94" y="214" text-anchor="end" font-size="9" fill="#00BCD4" transform="rotate(-45,981.94,214)">SysPrompt (labeled)</text>
<line x1="0" y1="200" x2="1010" y2="200" stroke="#333"/>
<line x1="0" y1="0" x2="0" y2="200" stroke="#333"/>
</g>
<rect x="70.0" y="324" width="10" height="10" fill="#81C784"/>
<text x="84.0" y="332" font-size="8" fill="#333">Partner Identity</text>
<rect x="272.0" y="324" width="10" height="10" fill="#BDBDBD"/>
<text x="286.0" y="332" font-size="8" fill="#333">Control</text>
</svg>