<svg viewBox="0 0 1100 360" xmlns="http://www.w3.org/2000/svg" style="width:100%;max-width:1100px;height:auto;font-family:Arial,sans-serif;">
<rect width="1100" height="360" fill="white"/>
<g transform="translate(70,30)">
<line x1="0" y1="200.0" x2="1010" y2="200.0" stroke="#eee" stroke-width="1"/>
<text x="-8" y="204.0" text-anchor="end" font-size="10" fill="#666">0.00</text>
<line x1="0" y1="160.0" x2="1010" y2="160.0" stroke="#eee" stroke-width="1"/>
<text x="-8" y="164.0" text-anchor="end" font-size="10" fill="#666">1.00</text>
<line x1="0" y1="120.0" x2="1010" y2="120.0" stroke="#eee" stroke-width="1"/>
<text x="-8" y="124.0" text-anchor="end" font-size="10" fill="#666">2.01</text>
<line x1="0" y1="80.0" x2="1010" y2="80.0" stroke="#eee" stroke-width="1"/>
<text x="-8" y="84.0" text-anchor="end" font-size="10" fill="#666">3.01</text>
<line x1="0" y1="40.0" x2="1010" y2="40.0" stroke="#eee" stroke-width="1"/>
<text x="-8" y="44.0" text-anchor="end" font-size="10" fill="#666">4.01</text>
<line x1="0" y1="0.0" x2="1010" y2="0.0" stroke="#eee" stroke-width="1"/>
<text x="-8" y="4.0" text-anchor="end" font-size="10" fill="#666">5.02</text>
<text x="-50" y="100.0" text-anchor="middle" font-size="11" fill="#333" transform="rotate(-90,-50,100.0)">Mean R² (×10⁻³)</text>
<rect x="5.61" y="162.32" width="22.44" height="37.68" fill="#2E7D32" opacity="0.85"><title>Partner Identity: 0.000945</title></rect>
<line x1="16.83" y1="175.52" x2="16.83" y2="140.97" stroke="#333" stroke-width="1"/>
<line x1="14.83" y1="175.52" x2="18.83" y2="175.52" stroke="#333" stroke-width="1"/>
<line x1="14.83" y1="140.97" x2="18.83" y2="140.97" stroke="#333" stroke-width="1"/>
<rect x="28.06" y="189.70" width="22.44" height="10.30" fill="#616161" opacity="0.85"><title>Control: 0.000258</title></rect>
<line x1="39.28" y1="192.59" x2="39.28" y2="185.30" stroke="#333" stroke-width="1"/>
<line x1="37.28" y1="192.59" x2="41.28" y2="192.59" stroke="#333" stroke-width="1"/>
<line x1="37.28" y1="185.30" x2="41.28" y2="185.30" stroke="#333" stroke-width="1"/>
<text x="28.06" y="214" text-anchor="end" font-size="9" fill="#2196F3" transform="rotate(-45,28.06,214)">Phenomenology</text>
<rect x="61.72" y="146.71" width="22.44" height="53.29" fill="#2E7D32" opacity="0.85"><title>Partner Identity: 0.001337</title></rect>
<line x1="72.94" y1="161.57" x2="72.94" y2="120.60" stroke="#333" stroke-width="1"/>
<line x1="70.94" y1="161.57" x2="74.94" y2="161.57" stroke="#333" stroke-width="1"/>
<line x1="70.94" y1="120.60" x2="74.94" y2="120.60" stroke="#333" stroke-width="1"/>
<rect x="84.17" y="190.41" width="22.44" height="9.59" fill="#616161" opacity="0.85"><title>Control: 0.000241</title></rect>
<line x1="95.39" y1="192.32" x2="95.39" y2="187.66" stroke="#333" stroke-width="1"/>
<line x1="93.39" y1="192.32" x2="97.39" y2="192.32" stroke="#333" stroke-width="1"/>
<line x1="93.39" y1="187.66" x2="97.39" y2="187.66" stroke="#333" stroke-width="1"/>
<text x="84.17" y="214" text-anchor="end" font-size="9" fill="#2196F3" transform="rotate(-45,84.17,214)">Emotions</text>
<rect x="117.83" y="132.55" width="22.44" height="67.45" fill="#2E7D32" opacity="0.85"><title>Partner Identity: 0.001692</title></rect>
<line x1="129.06" y1="155.88" x2="129.06" y2="101.03" stroke="#333" stroke-width="1"/>
<line x1="127.06" y1="155.88" x2="131.06" y2="155.88" stroke="#333" stroke-width="1"/>
<line x1="127.06" y1="101.03" x2="131.06" y2="101.03" stroke="#333" stroke-width="1"/>
<rect x="140.28" y="182.27" width="22.44" height="17.73" fill="#616161" opacity="0.85"><title>Control: 0.000445</title></rect>
<line x1="151.50" y1="187.05" x2="151.50" y2="178.56" stroke="#333" stroke-width="1"/>
<line x1="149.50" y1="187.05" x2="153.50" y2="187.05" stroke="#333" stroke-width="1"/>
<line x1="149.50" y1="178.56" x2="153.50" y2="178.56" stroke="#333" stroke-width="1"/>
<text x="140.28" y="214" text-anchor="end" font-size="9" fill="#2196F3" transform="rotate(-45,140.28,214)">Agency</text>
<rect x="173.94" y="127.42" width="22.44" height="72.58" fill="#2E7D32" opacity="0.85"><title>Partner Identity: 0.001821</title></rect>
<line x1="185.17" y1="149.59" x2="185.17" y2="96.73" stroke="#333" stroke-width="1"/>
<line x1="183.17" y1="149.59" x2="187.17" y2="149.59" stroke="#333" stroke-width="1"/>
<line x1="183.17" y1="96.73" x2="187.17" y2="96.73" stroke="#333" stroke-width="1"/>
<rect x="196.39" y="183.38" width="22.44" height="16.62" fill="#616161" opacity="0.85"><title>Control: 0.000417</title></rect>
<line x1="207.61" y1="186.45" x2="207.61" y2="180.42" stroke="#333" stroke-width="1"/>
<line x1="205.61" y1="186.45" x2="209.61" y2="186.45" stroke="#333" stroke-width="1"/>
<line x1="205.61" y1="180.42" x2="209.61" y2="180.42" stroke="#333" stroke-width="1"/>
<text x="196.39" y="214" text-anchor="end" font-size="9" fill="#2196F3" transform="rotate(-45,196.39,214)">Intentions</text>
<rect x="230.06" y="119.23" width="22.44" height="80.77" fill="#2E7D32" opacity="0.85"><title>Partner Identity: 0.002026</title></rect>
<line x1="241.28" y1="146.09" x2="241.28" y2="79.79" stroke="#333" stroke-width="1"/>
<line x1="239.28" y1="146.09" x2="243.28" y2="146.09" stroke="#333" stroke-width="1"/>
<line x1="239.28" y1="79.79" x2="243.28" y2="79.79" stroke="#333" stroke-width="1"/>
<rect x="252.50" y="186.91" width="22.44" height="13.09" fill="#616161" opacity="0.85"><title>Control: 0.000328</title></rect>
<line x1="263.72" y1="190.42" x2="263.72" y2="183.03" stroke="#333" stroke-width="1"/>
<line x1="261.72" y1="190.42" x2="265.72" y2="190.42" stroke="#333" stroke-width="1"/>
<line x1="261.72" y1="183.03" x2="265.72" y2="183.03" stroke="#333" stroke-width="1"/>
<text x="252.50" y="214" text-anchor="end" font-size="9" fill="#2196F3" transform="rotate(-45,252.50,214)">Prediction</text>
<rect x="286.17" y="113.68" width="22.44" height="86.32" fill="#2E7D32" opacity="0.85"><title>Partner Identity: 0.002166</title></rect>
<line x1="297.39" y1="134.86" x2="297.39" y2="82.40" stroke="#333" stroke-width="1"/>
<line x1="295.39" y1="134.86" x2="299.39" y2="134.86" stroke="#333" stroke-width="1"/>
<line x1="295.39" y1="82.40" x2="299.39" y2="82.40" stroke="#333" stroke-width="1"/>
<rect x="308.61" y="186.69" width="22.44" height="13.31" fill="#616161" opacity="0.85"><title>Control: 0.000334</title></rect>
<line x1="319.83" y1="189.60" x2="319.83" y2="183.82" stroke="#333" stroke-width="1"/>
<line x1="317.83" y1="189.60" x2="321.83" y2="189.60" stroke="#333" stroke-width="1"/>
<line x1="317.83" y1="183.82" x2="321.83" y2="183.82" stroke="#333" stroke-width="1"/>
<text x="308.61" y="214" text-anchor="end" font-size="9" fill="#2196F3" transform="rotate(-45,308.61,214)">Cognitive</text>
<rect x="342.28" y="123.85" width="22.44" height="76.15" fill="#2E7D32" opacity="0.85"><title>Partner Identity: 0.001910</title></rect>
<line x1="353.50" y1="150.83" x2="353.50" y2="79.14" stroke="#333" stroke-width="1"/>
<line x1="351.50" y1="150.83" x2="355.50" y2="150.83" stroke="#333" stroke-width="1"/>
<line x1="351.50" y1="79.14" x2="355.50" y2="79.14" stroke="#333" stroke-width="1"/>
<rect x="364.72" y="186.21" width="22.44" height="13.79" fill="#616161" opacity="0.85"><title>Control: 0.000346</title></rect>
<line x1="375.94" y1="190.37" x2="375.94" y2="182.79" stroke="#333" stroke-width="1"/>
<line x1="373.94" y1="190.37" x2="377.94" y2="190.37" stroke="#333" stroke-width="1"/>
<line x1="373.94" y1="182.79" x2="377.94" y2="182.79" stroke="#333" stroke-width="1"/>
<text x="364.72" y="214" text-anchor="end" font-size="9" fill="#2196F3" transform="rotate(-45,364.72,214)">Social</text>
<rect x="398.39" y="94.50" width="22.44" height="105.50" fill="#2E7D32" opacity="0.85"><title>Partner Identity: 0.002647</title></rect>
<line x1="409.61" y1="120.07" x2="409.61" y2="62.99" stroke="#333" stroke-width="1"/>
<line x1="407.61" y1="120.07" x2="411.61" y2="120.07" stroke="#333" stroke-width="1"/>
<line x1="407.61" y1="62.99" x2="411.61" y2="62.99" stroke="#333" stroke-width="1"/>
<rect x="420.83" y="188.61" width="22.44" height="11.39" fill="#616161" opacity="0.85"><title>Control: 0.000286</title></rect>
<line x1="432.06" y1="190.93" x2="432.06" y2="186.03" stroke="#333" stroke-width="1"/>
<line x1="430.06" y1="190.93" x2="434.06" y2="190.93" stroke="#333" stroke-width="1"/>
<line x1="430.06" y1="186.03" x2="434.06" y2="186.03" stroke="#333" stroke-width="1"/>
<text x="420.83" y="214" text-anchor="end" font-size="9" fill="#2196F3" transform="rotate(-45,420.83,214)">Attention</text>
<rect x="454.50" y="178.41" width="22.44" height="21.59" fill="#2E7D32" opacity="0.85"><title>Partner Identity: 0.000542</title></rect>
<line x1="465.72" y1="184.52" x2="465.72" y2="161.39" stroke="#333" stroke-width="1"/>
<line x1="463.72" y1="184.52" x2="467.72" y2="184.52" stroke="#333" stroke-width="1"/>
<line x1="463.72" y1="161.39" x2="467.72" y2="161.39" stroke="#333" stroke-width="1"/>
<rect x="476.94" y="188.06" width="22.44" height="11.94" fill="#616161" opacity="0.85"><title>Control: 0.000300</title></rect>
<line x1="488.17" y1="191.60" x2="488.17" y2="183.78" stroke="#333" stroke-width="1"/>
<line x1="486.17" y1="191.60" x2="490.17" y2="191.60" stroke="#333" stroke-width="1"/>
<line x1="486.17" y1="183.78" x2="490.17" y2="183.78" stroke="#333" stroke-width="1"/>
<text x="476.94" y="214" text-anchor="end" font-size="9" fill="#4CAF50" transform="rotate(-45,476.94,214)">Embodiment</text>
<rect x="510.61" y="155.80" width="22.44" height="44.20" fill="#2E7D32" opacity="0.85"><title>Partner Identity: 0.001109</title></rect>
<line x1="521.83" y1="173.67" x2="521.83" y2="117.61" stroke="#333" stroke-width="1"/>
<line x1="519.83" y1="173.67" x2="523.83" y2="173.67" stroke="#333" stroke-width="1"/>
<line x1="519.83" y1="117.61" x2="523.83" y2="117.61" stroke="#333" stroke-width="1"/>
<rect x="533.06" y="189.61" width="22.44" height="10.39" fill="#616161" opacity="0.85"><title>Control: 0.000261</title></rect>
<line x1="544.28" y1="192.68" x2="544.28" y2="184.37" stroke="#333" stroke-width="1"/>
<line x1="542.28" y1="192.68" x2="546.28" y2="192.68" stroke="#333" stroke-width="1"/>
<line x1="542.28" y1="184.37" x2="546.28" y2="184.37" stroke="#333" stroke-width="1"/>
<text x="533.06" y="214" text-anchor="end" font-size="9" fill="#4CAF50" transform="rotate(-45,533.06,214)">Roles</text>
<rect x="566.72" y="173.11" width="22.44" height="26.89" fill="#2E7D32" opacity="0.85"><title>Partner Identity: 0.000675</title></rect>
<line x1="577.94" y1="186.21" x2="577.94" y2="162.05" stroke="#333" stroke-width="1"/>
<line x1="575.94" y1="186.21" x2="579.94" y2="186.21" stroke="#333" stroke-width="1"/>
<line x1="575.94" y1="162.05" x2="579.94" y2="162.05" stroke="#333" stroke-width="1"/>
<rect x="589.17" y="192.13" width="22.44" height="7.87" fill="#616161" opacity="0.85"><title>Control: 0.000198</title></rect>
<line x1="600.39" y1="193.62" x2="600.39" y2="189.33" stroke="#333" stroke-width="1"/>
<line x1="598.39" y1="193.62" x2="602.39" y2="193.62" stroke="#333" stroke-width="1"/>
<line x1="598.39" y1="189.33" x2="602.39" y2="189.33" stroke="#333" stroke-width="1"/>
<text x="589.17" y="214" text-anchor="end" font-size="9" fill="#4CAF50" transform="rotate(-45,589.17,214)">Animacy</text>
<rect x="622.83" y="167.39" width="22.44" height="32.61" fill="#2E7D32" opacity="0.85"><title>Partner Identity: 0.000818</title></rect>
<line x1="634.06" y1="178.22" x2="634.06" y2="161.38" stroke="#333" stroke-width="1"/>
<line x1="632.06" y1="178.22" x2="636.06" y2="178.22" stroke="#333" stroke-width="1"/>
<line x1="632.06" y1="161.38" x2="636.06" y2="161.38" stroke="#333" stroke-width="1"/>
<rect x="645.28" y="190.61" width="22.44" height="9.39" fill="#616161" opacity="0.85"><title>Control: 0.000235</title></rect>
<line x1="656.50" y1="194.11" x2="656.50" y2="186.77" stroke="#333" stroke-width="1"/>
<line x1="654.50" y1="194.11" x2="658.50" y2="194.11" stroke="#333" stroke-width="1"/>
<line x1="654.50" y1="186.77" x2="658.50" y2="186.77" stroke="#333" stroke-width="1"/>
<text x="645.28" y="214" text-anchor="end" font-size="9" fill="#FF9800" transform="rotate(-45,645.28,214)">Formality</text>
<rect x="678.94" y="147.71" width="22.44" height="52.29" fill="#2E7D32" opacity="0.85"><title>Partner Identity: 0.001312</title></rect>
<line x1="690.17" y1="165.87" x2="690.17" y2="126.10" stroke="#333" stroke-width="1"/>
<line x1="688.17" y1="165.87" x2="692.17" y2="165.87" stroke="#333" stroke-width="1"/>
<line x1="688.17" y1="126.10" x2="692.17" y2="126.10" stroke="#333" stroke-width="1"/>
<rect x="701.39" y="188.61" width="22.44" height="11.39" fill="#616161" opacity="0.85"><title>Control: 0.000286</title></rect>
<line x1="712.61" y1="190.61" x2="712.61" y2="186.87" stroke="#333" stroke-width="1"/>
<line x1="710.61" y1="190.61" x2="714.61" y2="190.61" stroke="#333" stroke-width="1"/>
<line x1="710.61" y1="186.87" x2="714.61" y2="186.87" stroke="#333" stroke-width="1"/>
<text x="701.39" y="214" text-anchor="end" font-size="9" fill="#FF9800" transform="rotate(-45,701.39,214)">Expertise</text>
<rect x="735.06" y="169.99" width="22.44" height="30.01" fill="#2E7D32" opacity="0.85"><title>Partner Identity: 0.000753</title></rect>
<line x1="746.28" y1="190.02" x2="746.28" y2="151.88" stroke="#333" stroke-width="1"/>
<line x1="744.28" y1="190.02" x2="748.28" y2="190.02" stroke="#333" stroke-width="1"/>
<line x1="744.28" y1="151.88" x2="748.28" y2="151.88" stroke="#333" stroke-width="1"/>
<rect x="757.50" y="192.09" width="22.44" height="7.91" fill="#616161" opacity="0.85"><title>Control: 0.000199</title></rect>
<line x1="768.72" y1="194.13" x2="768.72" y2="187.05" stroke="#333" stroke-width="1"/>
<line x1="766.72" y1="194.13" x2="770.72" y2="194.13" stroke="#333" stroke-width="1"/>
<line x1="766.72" y1="187.05" x2="770.72" y2="187.05" stroke="#333" stroke-width="1"/>
<text x="757.50" y="214" text-anchor="end" font-size="9" fill="#FF9800" transform="rotate(-45,757.50,214)">Helpfulness</text>
<rect x="791.17" y="100.70" width="22.44" height="99.30" fill="#2E7D32" opacity="0.85"><title>Partner Identity: 0.002491</title></rect>
<line x1="802.39" y1="192.40" x2="802.39" y2="134.42" stroke="#333" stroke-width="1"/>
<line x1="800.39" y1="192.40" x2="804.39" y2="192.40" stroke="#333" stroke-width="1"/>
<line x1="800.39" y1="134.42" x2="804.39" y2="134.42" stroke="#333" stroke-width="1"/>
<rect x="813.61" y="193.99" width="22.44" height="6.01" fill="#616161" opacity="0.85"><title>Control: 0.000151</title></rect>
<line x1="824.83" y1="194.14" x2="824.83" y2="183.45" stroke="#333" stroke-width="1"/>
<line x1="822.83" y1="194.14" x2="826.83" y2="194.14" stroke="#333" stroke-width="1"/>
<line x1="822.83" y1="183.45" x2="826.83" y2="183.45" stroke="#333" stroke-width="1"/>
<text x="813.61" y="214" text-anchor="end" font-size="9" fill="#9E9E9E" transform="rotate(-45,813.61,214)">Baseline</text>
<rect x="847.28" y="181.86" width="22.44" height="18.14" fill="#2E7D32" opacity="0.85"><title>Partner Identity: 0.000455</title></rect>
<line x1="858.50" y1="186.46" x2="858.50" y2="172.35" stroke="#333" stroke-width="1"/>
<line x1="856.50" y1="186.46" x2="860.50" y2="186.46" stroke="#333" stroke-width="1"/>
<line x1="856.50" y1="172.35" x2="860.50" y2="172.35" stroke="#333" stroke-width="1"/>
<rect x="869.72" y="191.99" width="22.44" height="8.01" fill="#616161" opacity="0.85"><title>Control: 0.000201</title></rect>
<line x1="880.94" y1="193.32" x2="880.94" y2="189.17" stroke="#333" stroke-width="1"/>
<line x1="878.94" y1="193.32" x2="882.94" y2="193.32" stroke="#333" stroke-width="1"/>
<line x1="878.94" y1="189.17" x2="882.94" y2="189.17" stroke="#333" stroke-width="1"/>
<text x="869.72" y="214" text-anchor="end" font-size="9" fill="#9E9E9E" transform="rotate(-45,869.72,214)">Biological</text>
<rect x="903.39" y="174.13" width="22.44" height="25.87" fill="#2E7D32" opacity="0.85"><title>Partner Identity: 0.000649</title></rect>
<line x1="914.61" y1="188.60" x2="914.61" y2="161.07" stroke="#333" stroke-width="1"/>
<line x1="912.61" y1="188.60" x2="916.61" y2="188.60" stroke="#333" stroke-width="1"/>
<line x1="912.61" y1="161.07" x2="916.61" y2="161.07" stroke="#333" stroke-width="1"/>
<rect x="925.83" y="190.20" width="22.44" height="9.80" fill="#616161" opacity="0.85"><title>Control: 0.000246</title></rect>
<line x1="937.06" y1="194.16" x2="937.06" y2="185.50" stroke="#333" stroke-width="1"/>
<line x1="935.06" y1="194.16" x2="939.06" y2="194.16" stroke="#333" stroke-width="1"/>
<line x1="935.06" y1="185.50" x2="939.06" y2="185.50" stroke="#333" stroke-width="1"/>
<text x="925.83" y="214" text-anchor="end" font-size="9" fill="#9E9E9E" transform="rotate(-45,925.83,214)">Shapes</text>
<rect x="959.50" y="102.39" width="22.44" height="97.61" fill="#2E7D32" opacity="0.85"><title>Partner Identity: 0.002449</title></rect>
<line x1="970.72" y1="138.69" x2="970.72" y2="26.84" stroke="#333" stroke-width="1"/>
<line x1="968.72" y1="138.69" x2="972.72" y2="138.69" stroke="#333" stroke-width="1"/>
<line x1="968.72" y1="26.84" x2="972.72" y2="26.84" stroke="#333" stroke-width="1"/>
<rect x="981.94" y="194.11" width="22.44" height="5.89" fill="#616161" opacity="0.85"><title>Control: 0.000148</title></rect>
<line x1="993.17" y1="195.03" x2="993.17" y2="192.75" stroke="#333" stroke-width="1"/>
<line x1="991.17" y1="195.03" x2="995.17" y2="195.03" stroke="#333" stroke-width="1"/>
<line x1="991.17" y1="192.75" x2="995.17" y2="192.75" stroke="#333" stroke-width="1"/>
<text x="981.94" y="214" text-anchor="end" font-size="9" fill="#00BCD4" transform="rotate(-45,981.94,214)">SysPrompt (labeled)</text>
<line x1="0" y1="200" x2="1010" y2="200" stroke="#333"/>
<line x1="0" y1="0" x2="0" y2="200" stroke="#333"/>
</g>
<rect x="70.0" y="324" width="10" height="10" fill="#2E7D32"/>
<text x="84.0" y="332" font-size="8" fill="#333">Partner Identity</text>
<rect x="272.0" y="324" width="10" height="10" fill="#616161"/>
<text x="286.0" y="332" font-size="8" fill="#333">Control</text>
</svg>