<svg viewBox="0 0 1100 360" xmlns="http://www.w3.org/2000/svg" style="width:100%;max-width:1100px;height:auto;font-family:Arial,sans-serif;">
<rect width="1100" height="360" fill="white"/>
<g transform="translate(70,30)">
<line x1="0" y1="200.0" x2="1010" y2="200.0" stroke="#eee" stroke-width="1"/>
<text x="-8" y="204.0" text-anchor="end" font-size="10" fill="#666">0.00</text>
<line x1="0" y1="160.0" x2="1010" y2="160.0" stroke="#eee" stroke-width="1"/>
<text x="-8" y="164.0" text-anchor="end" font-size="10" fill="#666">1.07</text>
<line x1="0" y1="120.0" x2="1010" y2="120.0" stroke="#eee" stroke-width="1"/>
<text x="-8" y="124.0" text-anchor="end" font-size="10" fill="#666">2.13</text>
<line x1="0" y1="80.0" x2="1010" y2="80.0" stroke="#eee" stroke-width="1"/>
<text x="-8" y="84.0" text-anchor="end" font-size="10" fill="#666">3.20</text>
<line x1="0" y1="40.0" x2="1010" y2="40.0" stroke="#eee" stroke-width="1"/>
<text x="-8" y="44.0" text-anchor="end" font-size="10" fill="#666">4.26</text>
<line x1="0" y1="0.0" x2="1010" y2="0.0" stroke="#eee" stroke-width="1"/>
<text x="-8" y="4.0" text-anchor="end" font-size="10" fill="#666">5.33</text>
<text x="-50" y="100.0" text-anchor="middle" font-size="11" fill="#333" transform="rotate(-90,-50,100.0)">Mean R² (×10⁻³)</text>
<rect x="5.61" y="183.43" width="22.44" height="16.57" fill="#81C784" opacity="0.85"><title>Partner Identity: 0.000441</title></rect>
<line x1="16.83" y1="190.50" x2="16.83" y2="179.47" stroke="#333" stroke-width="1"/>
<line x1="14.83" y1="190.50" x2="18.83" y2="190.50" stroke="#333" stroke-width="1"/>
<line x1="14.83" y1="179.47" x2="18.83" y2="179.47" stroke="#333" stroke-width="1"/>
<rect x="28.06" y="188.65" width="22.44" height="11.35" fill="#BDBDBD" opacity="0.85"><title>Control: 0.000302</title></rect>
<line x1="39.28" y1="193.20" x2="39.28" y2="179.37" stroke="#333" stroke-width="1"/>
<line x1="37.28" y1="193.20" x2="41.28" y2="193.20" stroke="#333" stroke-width="1"/>
<line x1="37.28" y1="179.37" x2="41.28" y2="179.37" stroke="#333" stroke-width="1"/>
<text x="28.06" y="214" text-anchor="end" font-size="9" fill="#2196F3" transform="rotate(-45,28.06,214)">Phenomenology</text>
<rect x="61.72" y="180.26" width="22.44" height="19.74" fill="#81C784" opacity="0.85"><title>Partner Identity: 0.000526</title></rect>
<line x1="72.94" y1="188.29" x2="72.94" y2="175.25" stroke="#333" stroke-width="1"/>
<line x1="70.94" y1="188.29" x2="74.94" y2="188.29" stroke="#333" stroke-width="1"/>
<line x1="70.94" y1="175.25" x2="74.94" y2="175.25" stroke="#333" stroke-width="1"/>
<rect x="84.17" y="189.45" width="22.44" height="10.55" fill="#BDBDBD" opacity="0.85"><title>Control: 0.000281</title></rect>
<line x1="95.39" y1="192.95" x2="95.39" y2="183.49" stroke="#333" stroke-width="1"/>
<line x1="93.39" y1="192.95" x2="97.39" y2="192.95" stroke="#333" stroke-width="1"/>
<line x1="93.39" y1="183.49" x2="97.39" y2="183.49" stroke="#333" stroke-width="1"/>
<text x="84.17" y="214" text-anchor="end" font-size="9" fill="#2196F3" transform="rotate(-45,84.17,214)">Emotions</text>
<rect x="117.83" y="178.06" width="22.44" height="21.94" fill="#81C784" opacity="0.85"><title>Partner Identity: 0.000584</title></rect>
<line x1="129.06" y1="187.39" x2="129.06" y2="172.74" stroke="#333" stroke-width="1"/>
<line x1="127.06" y1="187.39" x2="131.06" y2="187.39" stroke="#333" stroke-width="1"/>
<line x1="127.06" y1="172.74" x2="131.06" y2="172.74" stroke="#333" stroke-width="1"/>
<rect x="140.28" y="187.95" width="22.44" height="12.05" fill="#BDBDBD" opacity="0.85"><title>Control: 0.000321</title></rect>
<line x1="151.50" y1="191.40" x2="151.50" y2="181.39" stroke="#333" stroke-width="1"/>
<line x1="149.50" y1="191.40" x2="153.50" y2="191.40" stroke="#333" stroke-width="1"/>
<line x1="149.50" y1="181.39" x2="153.50" y2="181.39" stroke="#333" stroke-width="1"/>
<text x="140.28" y="214" text-anchor="end" font-size="9" fill="#2196F3" transform="rotate(-45,140.28,214)">Agency</text>
<rect x="173.94" y="175.99" width="22.44" height="24.01" fill="#81C784" opacity="0.85"><title>Partner Identity: 0.000640</title></rect>
<line x1="185.17" y1="185.88" x2="185.17" y2="170.84" stroke="#333" stroke-width="1"/>
<line x1="183.17" y1="185.88" x2="187.17" y2="185.88" stroke="#333" stroke-width="1"/>
<line x1="183.17" y1="170.84" x2="187.17" y2="170.84" stroke="#333" stroke-width="1"/>
<rect x="196.39" y="180.65" width="22.44" height="19.35" fill="#BDBDBD" opacity="0.85"><title>Control: 0.000515</title></rect>
<line x1="207.61" y1="186.95" x2="207.61" y2="173.44" stroke="#333" stroke-width="1"/>
<line x1="205.61" y1="186.95" x2="209.61" y2="186.95" stroke="#333" stroke-width="1"/>
<line x1="205.61" y1="173.44" x2="209.61" y2="173.44" stroke="#333" stroke-width="1"/>
<text x="196.39" y="214" text-anchor="end" font-size="9" fill="#2196F3" transform="rotate(-45,196.39,214)">Intentions</text>
<rect x="230.06" y="179.68" width="22.44" height="20.32" fill="#81C784" opacity="0.85"><title>Partner Identity: 0.000541</title></rect>
<line x1="241.28" y1="190.07" x2="241.28" y2="169.51" stroke="#333" stroke-width="1"/>
<line x1="239.28" y1="190.07" x2="243.28" y2="190.07" stroke="#333" stroke-width="1"/>
<line x1="239.28" y1="169.51" x2="243.28" y2="169.51" stroke="#333" stroke-width="1"/>
<rect x="252.50" y="185.77" width="22.44" height="14.23" fill="#BDBDBD" opacity="0.85"><title>Control: 0.000379</title></rect>
<line x1="263.72" y1="189.43" x2="263.72" y2="177.77" stroke="#333" stroke-width="1"/>
<line x1="261.72" y1="189.43" x2="265.72" y2="189.43" stroke="#333" stroke-width="1"/>
<line x1="261.72" y1="177.77" x2="265.72" y2="177.77" stroke="#333" stroke-width="1"/>
<text x="252.50" y="214" text-anchor="end" font-size="9" fill="#2196F3" transform="rotate(-45,252.50,214)">Prediction</text>
<rect x="286.17" y="179.11" width="22.44" height="20.89" fill="#81C784" opacity="0.85"><title>Partner Identity: 0.000556</title></rect>
<line x1="297.39" y1="186.08" x2="297.39" y2="173.13" stroke="#333" stroke-width="1"/>
<line x1="295.39" y1="186.08" x2="299.39" y2="186.08" stroke="#333" stroke-width="1"/>
<line x1="295.39" y1="173.13" x2="299.39" y2="173.13" stroke="#333" stroke-width="1"/>
<rect x="308.61" y="181.31" width="22.44" height="18.69" fill="#BDBDBD" opacity="0.85"><title>Control: 0.000498</title></rect>
<line x1="319.83" y1="186.69" x2="319.83" y2="174.24" stroke="#333" stroke-width="1"/>
<line x1="317.83" y1="186.69" x2="321.83" y2="186.69" stroke="#333" stroke-width="1"/>
<line x1="317.83" y1="174.24" x2="321.83" y2="174.24" stroke="#333" stroke-width="1"/>
<text x="308.61" y="214" text-anchor="end" font-size="9" fill="#2196F3" transform="rotate(-45,308.61,214)">Cognitive</text>
<rect x="342.28" y="173.75" width="22.44" height="26.25" fill="#81C784" opacity="0.85"><title>Partner Identity: 0.000699</title></rect>
<line x1="353.50" y1="186.28" x2="353.50" y2="164.73" stroke="#333" stroke-width="1"/>
<line x1="351.50" y1="186.28" x2="355.50" y2="186.28" stroke="#333" stroke-width="1"/>
<line x1="351.50" y1="164.73" x2="355.50" y2="164.73" stroke="#333" stroke-width="1"/>
<rect x="364.72" y="184.26" width="22.44" height="15.74" fill="#BDBDBD" opacity="0.85"><title>Control: 0.000419</title></rect>
<line x1="375.94" y1="188.80" x2="375.94" y2="178.55" stroke="#333" stroke-width="1"/>
<line x1="373.94" y1="188.80" x2="377.94" y2="188.80" stroke="#333" stroke-width="1"/>
<line x1="373.94" y1="178.55" x2="377.94" y2="178.55" stroke="#333" stroke-width="1"/>
<text x="364.72" y="214" text-anchor="end" font-size="9" fill="#2196F3" transform="rotate(-45,364.72,214)">Social</text>
<rect x="398.39" y="170.68" width="22.44" height="29.32" fill="#81C784" opacity="0.85"><title>Partner Identity: 0.000781</title></rect>
<line x1="409.61" y1="180.23" x2="409.61" y2="166.78" stroke="#333" stroke-width="1"/>
<line x1="407.61" y1="180.23" x2="411.61" y2="180.23" stroke="#333" stroke-width="1"/>
<line x1="407.61" y1="166.78" x2="411.61" y2="166.78" stroke="#333" stroke-width="1"/>
<rect x="420.83" y="182.47" width="22.44" height="17.53" fill="#BDBDBD" opacity="0.85"><title>Control: 0.000467</title></rect>
<line x1="432.06" y1="186.92" x2="432.06" y2="176.94" stroke="#333" stroke-width="1"/>
<line x1="430.06" y1="186.92" x2="434.06" y2="186.92" stroke="#333" stroke-width="1"/>
<line x1="430.06" y1="176.94" x2="434.06" y2="176.94" stroke="#333" stroke-width="1"/>
<text x="420.83" y="214" text-anchor="end" font-size="9" fill="#2196F3" transform="rotate(-45,420.83,214)">Attention</text>
<rect x="454.50" y="185.38" width="22.44" height="14.62" fill="#81C784" opacity="0.85"><title>Partner Identity: 0.000389</title></rect>
<line x1="465.72" y1="190.49" x2="465.72" y2="182.54" stroke="#333" stroke-width="1"/>
<line x1="463.72" y1="190.49" x2="467.72" y2="190.49" stroke="#333" stroke-width="1"/>
<line x1="463.72" y1="182.54" x2="467.72" y2="182.54" stroke="#333" stroke-width="1"/>
<rect x="476.94" y="188.84" width="22.44" height="11.16" fill="#BDBDBD" opacity="0.85"><title>Control: 0.000297</title></rect>
<line x1="488.17" y1="191.87" x2="488.17" y2="183.60" stroke="#333" stroke-width="1"/>
<line x1="486.17" y1="191.87" x2="490.17" y2="191.87" stroke="#333" stroke-width="1"/>
<line x1="486.17" y1="183.60" x2="490.17" y2="183.60" stroke="#333" stroke-width="1"/>
<text x="476.94" y="214" text-anchor="end" font-size="9" fill="#4CAF50" transform="rotate(-45,476.94,214)">Embodiment</text>
<rect x="510.61" y="182.40" width="22.44" height="17.60" fill="#81C784" opacity="0.85"><title>Partner Identity: 0.000469</title></rect>
<line x1="521.83" y1="192.38" x2="521.83" y2="171.44" stroke="#333" stroke-width="1"/>
<line x1="519.83" y1="192.38" x2="523.83" y2="192.38" stroke="#333" stroke-width="1"/>
<line x1="519.83" y1="171.44" x2="523.83" y2="171.44" stroke="#333" stroke-width="1"/>
<rect x="533.06" y="191.38" width="22.44" height="8.62" fill="#BDBDBD" opacity="0.85"><title>Control: 0.000229</title></rect>
<line x1="544.28" y1="194.61" x2="544.28" y2="179.62" stroke="#333" stroke-width="1"/>
<line x1="542.28" y1="194.61" x2="546.28" y2="194.61" stroke="#333" stroke-width="1"/>
<line x1="542.28" y1="179.62" x2="546.28" y2="179.62" stroke="#333" stroke-width="1"/>
<text x="533.06" y="214" text-anchor="end" font-size="9" fill="#4CAF50" transform="rotate(-45,533.06,214)">Roles</text>
<rect x="566.72" y="183.06" width="22.44" height="16.94" fill="#81C784" opacity="0.85"><title>Partner Identity: 0.000451</title></rect>
<line x1="577.94" y1="191.09" x2="577.94" y2="178.31" stroke="#333" stroke-width="1"/>
<line x1="575.94" y1="191.09" x2="579.94" y2="191.09" stroke="#333" stroke-width="1"/>
<line x1="575.94" y1="178.31" x2="579.94" y2="178.31" stroke="#333" stroke-width="1"/>
<rect x="589.17" y="191.60" width="22.44" height="8.40" fill="#BDBDBD" opacity="0.85"><title>Control: 0.000224</title></rect>
<line x1="600.39" y1="195.12" x2="600.39" y2="185.14" stroke="#333" stroke-width="1"/>
<line x1="598.39" y1="195.12" x2="602.39" y2="195.12" stroke="#333" stroke-width="1"/>
<line x1="598.39" y1="185.14" x2="602.39" y2="185.14" stroke="#333" stroke-width="1"/>
<text x="589.17" y="214" text-anchor="end" font-size="9" fill="#4CAF50" transform="rotate(-45,589.17,214)">Animacy</text>
<rect x="622.83" y="180.21" width="22.44" height="19.79" fill="#81C784" opacity="0.85"><title>Partner Identity: 0.000527</title></rect>
<line x1="634.06" y1="187.83" x2="634.06" y2="176.69" stroke="#333" stroke-width="1"/>
<line x1="632.06" y1="187.83" x2="636.06" y2="187.83" stroke="#333" stroke-width="1"/>
<line x1="632.06" y1="176.69" x2="636.06" y2="176.69" stroke="#333" stroke-width="1"/>
<rect x="645.28" y="179.79" width="22.44" height="20.21" fill="#BDBDBD" opacity="0.85"><title>Control: 0.000538</title></rect>
<line x1="656.50" y1="188.92" x2="656.50" y2="172.32" stroke="#333" stroke-width="1"/>
<line x1="654.50" y1="188.92" x2="658.50" y2="188.92" stroke="#333" stroke-width="1"/>
<line x1="654.50" y1="172.32" x2="658.50" y2="172.32" stroke="#333" stroke-width="1"/>
<text x="645.28" y="214" text-anchor="end" font-size="9" fill="#FF9800" transform="rotate(-45,645.28,214)">Formality</text>
<rect x="678.94" y="172.34" width="22.44" height="27.66" fill="#81C784" opacity="0.85"><title>Partner Identity: 0.000737</title></rect>
<line x1="690.17" y1="179.04" x2="690.17" y2="166.98" stroke="#333" stroke-width="1"/>
<line x1="688.17" y1="179.04" x2="692.17" y2="179.04" stroke="#333" stroke-width="1"/>
<line x1="688.17" y1="166.98" x2="692.17" y2="166.98" stroke="#333" stroke-width="1"/>
<rect x="701.39" y="192.37" width="22.44" height="7.63" fill="#BDBDBD" opacity="0.85"><title>Control: 0.000203</title></rect>
<line x1="712.61" y1="193.71" x2="712.61" y2="189.59" stroke="#333" stroke-width="1"/>
<line x1="710.61" y1="193.71" x2="714.61" y2="193.71" stroke="#333" stroke-width="1"/>
<line x1="710.61" y1="189.59" x2="714.61" y2="189.59" stroke="#333" stroke-width="1"/>
<text x="701.39" y="214" text-anchor="end" font-size="9" fill="#FF9800" transform="rotate(-45,701.39,214)">Expertise</text>
<rect x="735.06" y="186.60" width="22.44" height="13.40" fill="#81C784" opacity="0.85"><title>Partner Identity: 0.000357</title></rect>
<line x1="746.28" y1="192.52" x2="746.28" y2="180.56" stroke="#333" stroke-width="1"/>
<line x1="744.28" y1="192.52" x2="748.28" y2="192.52" stroke="#333" stroke-width="1"/>
<line x1="744.28" y1="180.56" x2="748.28" y2="180.56" stroke="#333" stroke-width="1"/>
<rect x="757.50" y="188.18" width="22.44" height="11.82" fill="#BDBDBD" opacity="0.85"><title>Control: 0.000315</title></rect>
<line x1="768.72" y1="193.35" x2="768.72" y2="183.17" stroke="#333" stroke-width="1"/>
<line x1="766.72" y1="193.35" x2="770.72" y2="193.35" stroke="#333" stroke-width="1"/>
<line x1="766.72" y1="183.17" x2="770.72" y2="183.17" stroke="#333" stroke-width="1"/>
<text x="757.50" y="214" text-anchor="end" font-size="9" fill="#FF9800" transform="rotate(-45,757.50,214)">Helpfulness</text>
<rect x="791.17" y="188.13" width="22.44" height="11.87" fill="#81C784" opacity="0.85"><title>Partner Identity: 0.000316</title></rect>
<line x1="802.39" y1="194.79" x2="802.39" y2="179.12" stroke="#333" stroke-width="1"/>
<line x1="800.39" y1="194.79" x2="804.39" y2="194.79" stroke="#333" stroke-width="1"/>
<line x1="800.39" y1="179.12" x2="804.39" y2="179.12" stroke="#333" stroke-width="1"/>
<rect x="813.61" y="187.77" width="22.44" height="12.23" fill="#BDBDBD" opacity="0.85"><title>Control: 0.000326</title></rect>
<line x1="824.83" y1="195.10" x2="824.83" y2="179.12" stroke="#333" stroke-width="1"/>
<line x1="822.83" y1="195.10" x2="826.83" y2="195.10" stroke="#333" stroke-width="1"/>
<line x1="822.83" y1="179.12" x2="826.83" y2="179.12" stroke="#333" stroke-width="1"/>
<text x="813.61" y="214" text-anchor="end" font-size="9" fill="#9E9E9E" transform="rotate(-45,813.61,214)">Baseline</text>
<rect x="847.28" y="190.90" width="22.44" height="9.10" fill="#81C784" opacity="0.85"><title>Partner Identity: 0.000242</title></rect>
<line x1="858.50" y1="193.03" x2="858.50" y2="188.89" stroke="#333" stroke-width="1"/>
<line x1="856.50" y1="193.03" x2="860.50" y2="193.03" stroke="#333" stroke-width="1"/>
<line x1="856.50" y1="188.89" x2="860.50" y2="188.89" stroke="#333" stroke-width="1"/>
<rect x="869.72" y="190.49" width="22.44" height="9.51" fill="#BDBDBD" opacity="0.85"><title>Control: 0.000253</title></rect>
<line x1="880.94" y1="192.43" x2="880.94" y2="186.99" stroke="#333" stroke-width="1"/>
<line x1="878.94" y1="192.43" x2="882.94" y2="192.43" stroke="#333" stroke-width="1"/>
<line x1="878.94" y1="186.99" x2="882.94" y2="186.99" stroke="#333" stroke-width="1"/>
<text x="869.72" y="214" text-anchor="end" font-size="9" fill="#9E9E9E" transform="rotate(-45,869.72,214)">Biological</text>
<rect x="903.39" y="174.87" width="22.44" height="25.13" fill="#81C784" opacity="0.85"><title>Partner Identity: 0.000669</title></rect>
<line x1="914.61" y1="186.02" x2="914.61" y2="169.26" stroke="#333" stroke-width="1"/>
<line x1="912.61" y1="186.02" x2="916.61" y2="186.02" stroke="#333" stroke-width="1"/>
<line x1="912.61" y1="169.26" x2="916.61" y2="169.26" stroke="#333" stroke-width="1"/>
<rect x="925.83" y="185.55" width="22.44" height="14.45" fill="#BDBDBD" opacity="0.85"><title>Control: 0.000385</title></rect>
<line x1="937.06" y1="191.17" x2="937.06" y2="181.12" stroke="#333" stroke-width="1"/>
<line x1="935.06" y1="191.17" x2="939.06" y2="191.17" stroke="#333" stroke-width="1"/>
<line x1="935.06" y1="181.12" x2="939.06" y2="181.12" stroke="#333" stroke-width="1"/>
<text x="925.83" y="214" text-anchor="end" font-size="9" fill="#9E9E9E" transform="rotate(-45,925.83,214)">Shapes</text>
<rect x="959.50" y="162.74" width="22.44" height="37.26" fill="#81C784" opacity="0.85"><title>Partner Identity: 0.000993</title></rect>
<line x1="970.72" y1="170.00" x2="970.72" y2="154.82" stroke="#333" stroke-width="1"/>
<line x1="968.72" y1="170.00" x2="972.72" y2="170.00" stroke="#333" stroke-width="1"/>
<line x1="968.72" y1="154.82" x2="972.72" y2="154.82" stroke="#333" stroke-width="1"/>
<rect x="981.94" y="191.78" width="22.44" height="8.22" fill="#BDBDBD" opacity="0.85"><title>Control: 0.000219</title></rect>
<line x1="993.17" y1="193.47" x2="993.17" y2="189.26" stroke="#333" stroke-width="1"/>
<line x1="991.17" y1="193.47" x2="995.17" y2="193.47" stroke="#333" stroke-width="1"/>
<line x1="991.17" y1="189.26" x2="995.17" y2="189.26" stroke="#333" stroke-width="1"/>
<text x="981.94" y="214" text-anchor="end" font-size="9" fill="#00BCD4" transform="rotate(-45,981.94,214)">SysPrompt (labeled)</text>
<line x1="0" y1="200" x2="1010" y2="200" stroke="#333"/>
<line x1="0" y1="0" x2="0" y2="200" stroke="#333"/>
</g>
<rect x="70.0" y="324" width="10" height="10" fill="#81C784"/>
<text x="84.0" y="332" font-size="8" fill="#333">Partner Identity</text>
<rect x="272.0" y="324" width="10" height="10" fill="#BDBDBD"/>
<text x="286.0" y="332" font-size="8" fill="#333">Control</text>
</svg>