<svg viewBox="0 0 1100 360" xmlns="http://www.w3.org/2000/svg" style="width:100%;max-width:1100px;height:auto;font-family:Arial,sans-serif;">
<rect width="1100" height="360" fill="white"/>
<g transform="translate(70,30)">
<line x1="0" y1="200.0" x2="1010" y2="200.0" stroke="#eee" stroke-width="1"/>
<text x="-8" y="204.0" text-anchor="end" font-size="10" fill="#666">0.00</text>
<line x1="0" y1="160.0" x2="1010" y2="160.0" stroke="#eee" stroke-width="1"/>
<text x="-8" y="164.0" text-anchor="end" font-size="10" fill="#666">1.07</text>
<line x1="0" y1="120.0" x2="1010" y2="120.0" stroke="#eee" stroke-width="1"/>
<text x="-8" y="124.0" text-anchor="end" font-size="10" fill="#666">2.13</text>
<line x1="0" y1="80.0" x2="1010" y2="80.0" stroke="#eee" stroke-width="1"/>
<text x="-8" y="84.0" text-anchor="end" font-size="10" fill="#666">3.20</text>
<line x1="0" y1="40.0" x2="1010" y2="40.0" stroke="#eee" stroke-width="1"/>
<text x="-8" y="44.0" text-anchor="end" font-size="10" fill="#666">4.26</text>
<line x1="0" y1="0.0" x2="1010" y2="0.0" stroke="#eee" stroke-width="1"/>
<text x="-8" y="4.0" text-anchor="end" font-size="10" fill="#666">5.33</text>
<text x="-50" y="100.0" text-anchor="middle" font-size="11" fill="#333" transform="rotate(-90,-50,100.0)">Mean R² (×10⁻³)</text>
<rect x="5.61" y="166.03" width="22.44" height="33.97" fill="#2E7D32" opacity="0.85"><title>Partner Identity: 0.000905</title></rect>
<line x1="16.83" y1="176.94" x2="16.83" y2="131.76" stroke="#333" stroke-width="1"/>
<line x1="14.83" y1="176.94" x2="18.83" y2="176.94" stroke="#333" stroke-width="1"/>
<line x1="14.83" y1="131.76" x2="18.83" y2="131.76" stroke="#333" stroke-width="1"/>
<rect x="28.06" y="179.28" width="22.44" height="20.72" fill="#616161" opacity="0.85"><title>Control: 0.000552</title></rect>
<line x1="39.28" y1="187.88" x2="39.28" y2="162.79" stroke="#333" stroke-width="1"/>
<line x1="37.28" y1="187.88" x2="41.28" y2="187.88" stroke="#333" stroke-width="1"/>
<line x1="37.28" y1="162.79" x2="41.28" y2="162.79" stroke="#333" stroke-width="1"/>
<text x="28.06" y="214" text-anchor="end" font-size="9" fill="#2196F3" transform="rotate(-45,28.06,214)">Phenomenology</text>
<rect x="61.72" y="133.12" width="22.44" height="66.88" fill="#2E7D32" opacity="0.85"><title>Partner Identity: 0.001782</title></rect>
<line x1="72.94" y1="147.46" x2="72.94" y2="93.38" stroke="#333" stroke-width="1"/>
<line x1="70.94" y1="147.46" x2="74.94" y2="147.46" stroke="#333" stroke-width="1"/>
<line x1="70.94" y1="93.38" x2="74.94" y2="93.38" stroke="#333" stroke-width="1"/>
<rect x="84.17" y="178.30" width="22.44" height="21.70" fill="#616161" opacity="0.85"><title>Control: 0.000578</title></rect>
<line x1="95.39" y1="184.91" x2="95.39" y2="163.75" stroke="#333" stroke-width="1"/>
<line x1="93.39" y1="184.91" x2="97.39" y2="184.91" stroke="#333" stroke-width="1"/>
<line x1="93.39" y1="163.75" x2="97.39" y2="163.75" stroke="#333" stroke-width="1"/>
<text x="84.17" y="214" text-anchor="end" font-size="9" fill="#2196F3" transform="rotate(-45,84.17,214)">Emotions</text>
<rect x="117.83" y="112.69" width="22.44" height="87.31" fill="#2E7D32" opacity="0.85"><title>Partner Identity: 0.002326</title></rect>
<line x1="129.06" y1="133.00" x2="129.06" y2="67.12" stroke="#333" stroke-width="1"/>
<line x1="127.06" y1="133.00" x2="131.06" y2="133.00" stroke="#333" stroke-width="1"/>
<line x1="127.06" y1="67.12" x2="131.06" y2="67.12" stroke="#333" stroke-width="1"/>
<rect x="140.28" y="175.46" width="22.44" height="24.54" fill="#616161" opacity="0.85"><title>Control: 0.000654</title></rect>
<line x1="151.50" y1="184.30" x2="151.50" y2="158.53" stroke="#333" stroke-width="1"/>
<line x1="149.50" y1="184.30" x2="153.50" y2="184.30" stroke="#333" stroke-width="1"/>
<line x1="149.50" y1="158.53" x2="153.50" y2="158.53" stroke="#333" stroke-width="1"/>
<text x="140.28" y="214" text-anchor="end" font-size="9" fill="#2196F3" transform="rotate(-45,140.28,214)">Agency</text>
<rect x="173.94" y="111.57" width="22.44" height="88.43" fill="#2E7D32" opacity="0.85"><title>Partner Identity: 0.002356</title></rect>
<line x1="185.17" y1="133.91" x2="185.17" y2="67.55" stroke="#333" stroke-width="1"/>
<line x1="183.17" y1="133.91" x2="187.17" y2="133.91" stroke="#333" stroke-width="1"/>
<line x1="183.17" y1="67.55" x2="187.17" y2="67.55" stroke="#333" stroke-width="1"/>
<rect x="196.39" y="170.26" width="22.44" height="29.74" fill="#616161" opacity="0.85"><title>Control: 0.000792</title></rect>
<line x1="207.61" y1="180.17" x2="207.61" y2="155.81" stroke="#333" stroke-width="1"/>
<line x1="205.61" y1="180.17" x2="209.61" y2="180.17" stroke="#333" stroke-width="1"/>
<line x1="205.61" y1="155.81" x2="209.61" y2="155.81" stroke="#333" stroke-width="1"/>
<text x="196.39" y="214" text-anchor="end" font-size="9" fill="#2196F3" transform="rotate(-45,196.39,214)">Intentions</text>
<rect x="230.06" y="93.35" width="22.44" height="106.65" fill="#2E7D32" opacity="0.85"><title>Partner Identity: 0.002841</title></rect>
<line x1="241.28" y1="119.38" x2="241.28" y2="43.76" stroke="#333" stroke-width="1"/>
<line x1="239.28" y1="119.38" x2="243.28" y2="119.38" stroke="#333" stroke-width="1"/>
<line x1="239.28" y1="43.76" x2="243.28" y2="43.76" stroke="#333" stroke-width="1"/>
<rect x="252.50" y="181.54" width="22.44" height="18.46" fill="#616161" opacity="0.85"><title>Control: 0.000492</title></rect>
<line x1="263.72" y1="187.58" x2="263.72" y2="164.53" stroke="#333" stroke-width="1"/>
<line x1="261.72" y1="187.58" x2="265.72" y2="187.58" stroke="#333" stroke-width="1"/>
<line x1="261.72" y1="164.53" x2="265.72" y2="164.53" stroke="#333" stroke-width="1"/>
<text x="252.50" y="214" text-anchor="end" font-size="9" fill="#2196F3" transform="rotate(-45,252.50,214)">Prediction</text>
<rect x="286.17" y="111.60" width="22.44" height="88.40" fill="#2E7D32" opacity="0.85"><title>Partner Identity: 0.002355</title></rect>
<line x1="297.39" y1="132.19" x2="297.39" y2="67.22" stroke="#333" stroke-width="1"/>
<line x1="295.39" y1="132.19" x2="299.39" y2="132.19" stroke="#333" stroke-width="1"/>
<line x1="295.39" y1="67.22" x2="299.39" y2="67.22" stroke="#333" stroke-width="1"/>
<rect x="308.61" y="172.46" width="22.44" height="27.54" fill="#616161" opacity="0.85"><title>Control: 0.000733</title></rect>
<line x1="319.83" y1="183.17" x2="319.83" y2="159.42" stroke="#333" stroke-width="1"/>
<line x1="317.83" y1="183.17" x2="321.83" y2="183.17" stroke="#333" stroke-width="1"/>
<line x1="317.83" y1="159.42" x2="321.83" y2="159.42" stroke="#333" stroke-width="1"/>
<text x="308.61" y="214" text-anchor="end" font-size="9" fill="#2196F3" transform="rotate(-45,308.61,214)">Cognitive</text>
<rect x="342.28" y="89.39" width="22.44" height="110.61" fill="#2E7D32" opacity="0.85"><title>Partner Identity: 0.002946</title></rect>
<line x1="353.50" y1="117.07" x2="353.50" y2="31.93" stroke="#333" stroke-width="1"/>
<line x1="351.50" y1="117.07" x2="355.50" y2="117.07" stroke="#333" stroke-width="1"/>
<line x1="351.50" y1="31.93" x2="355.50" y2="31.93" stroke="#333" stroke-width="1"/>
<rect x="364.72" y="167.32" width="22.44" height="32.68" fill="#616161" opacity="0.85"><title>Control: 0.000871</title></rect>
<line x1="375.94" y1="181.84" x2="375.94" y2="145.62" stroke="#333" stroke-width="1"/>
<line x1="373.94" y1="181.84" x2="377.94" y2="181.84" stroke="#333" stroke-width="1"/>
<line x1="373.94" y1="145.62" x2="377.94" y2="145.62" stroke="#333" stroke-width="1"/>
<text x="364.72" y="214" text-anchor="end" font-size="9" fill="#2196F3" transform="rotate(-45,364.72,214)">Social</text>
<rect x="398.39" y="86.13" width="22.44" height="113.87" fill="#2E7D32" opacity="0.85"><title>Partner Identity: 0.003033</title></rect>
<line x1="409.61" y1="111.27" x2="409.61" y2="40.38" stroke="#333" stroke-width="1"/>
<line x1="407.61" y1="111.27" x2="411.61" y2="111.27" stroke="#333" stroke-width="1"/>
<line x1="407.61" y1="40.38" x2="411.61" y2="40.38" stroke="#333" stroke-width="1"/>
<rect x="420.83" y="176.74" width="22.44" height="23.26" fill="#616161" opacity="0.85"><title>Control: 0.000620</title></rect>
<line x1="432.06" y1="184.75" x2="432.06" y2="163.57" stroke="#333" stroke-width="1"/>
<line x1="430.06" y1="184.75" x2="434.06" y2="184.75" stroke="#333" stroke-width="1"/>
<line x1="430.06" y1="163.57" x2="434.06" y2="163.57" stroke="#333" stroke-width="1"/>
<text x="420.83" y="214" text-anchor="end" font-size="9" fill="#2196F3" transform="rotate(-45,420.83,214)">Attention</text>
<rect x="454.50" y="163.24" width="22.44" height="36.76" fill="#2E7D32" opacity="0.85"><title>Partner Identity: 0.000979</title></rect>
<line x1="465.72" y1="175.86" x2="465.72" y2="128.36" stroke="#333" stroke-width="1"/>
<line x1="463.72" y1="175.86" x2="467.72" y2="175.86" stroke="#333" stroke-width="1"/>
<line x1="463.72" y1="128.36" x2="467.72" y2="128.36" stroke="#333" stroke-width="1"/>
<rect x="476.94" y="175.78" width="22.44" height="24.22" fill="#616161" opacity="0.85"><title>Control: 0.000645</title></rect>
<line x1="488.17" y1="184.76" x2="488.17" y2="156.25" stroke="#333" stroke-width="1"/>
<line x1="486.17" y1="184.76" x2="490.17" y2="184.76" stroke="#333" stroke-width="1"/>
<line x1="486.17" y1="156.25" x2="490.17" y2="156.25" stroke="#333" stroke-width="1"/>
<text x="476.94" y="214" text-anchor="end" font-size="9" fill="#4CAF50" transform="rotate(-45,476.94,214)">Embodiment</text>
<rect x="510.61" y="134.94" width="22.44" height="65.06" fill="#2E7D32" opacity="0.85"><title>Partner Identity: 0.001733</title></rect>
<line x1="521.83" y1="156.31" x2="521.83" y2="78.49" stroke="#333" stroke-width="1"/>
<line x1="519.83" y1="156.31" x2="523.83" y2="156.31" stroke="#333" stroke-width="1"/>
<line x1="519.83" y1="78.49" x2="523.83" y2="78.49" stroke="#333" stroke-width="1"/>
<rect x="533.06" y="185.47" width="22.44" height="14.53" fill="#616161" opacity="0.85"><title>Control: 0.000387</title></rect>
<line x1="544.28" y1="190.39" x2="544.28" y2="168.02" stroke="#333" stroke-width="1"/>
<line x1="542.28" y1="190.39" x2="546.28" y2="190.39" stroke="#333" stroke-width="1"/>
<line x1="542.28" y1="168.02" x2="546.28" y2="168.02" stroke="#333" stroke-width="1"/>
<text x="533.06" y="214" text-anchor="end" font-size="9" fill="#4CAF50" transform="rotate(-45,533.06,214)">Roles</text>
<rect x="566.72" y="177.44" width="22.44" height="22.56" fill="#2E7D32" opacity="0.85"><title>Partner Identity: 0.000601</title></rect>
<line x1="577.94" y1="186.92" x2="577.94" y2="151.07" stroke="#333" stroke-width="1"/>
<line x1="575.94" y1="186.92" x2="579.94" y2="186.92" stroke="#333" stroke-width="1"/>
<line x1="575.94" y1="151.07" x2="579.94" y2="151.07" stroke="#333" stroke-width="1"/>
<rect x="589.17" y="180.36" width="22.44" height="19.64" fill="#616161" opacity="0.85"><title>Control: 0.000523</title></rect>
<line x1="600.39" y1="186.56" x2="600.39" y2="167.03" stroke="#333" stroke-width="1"/>
<line x1="598.39" y1="186.56" x2="602.39" y2="186.56" stroke="#333" stroke-width="1"/>
<line x1="598.39" y1="167.03" x2="602.39" y2="167.03" stroke="#333" stroke-width="1"/>
<text x="589.17" y="214" text-anchor="end" font-size="9" fill="#4CAF50" transform="rotate(-45,589.17,214)">Animacy</text>
<rect x="622.83" y="167.01" width="22.44" height="32.99" fill="#2E7D32" opacity="0.85"><title>Partner Identity: 0.000879</title></rect>
<line x1="634.06" y1="184.37" x2="634.06" y2="144.86" stroke="#333" stroke-width="1"/>
<line x1="632.06" y1="184.37" x2="636.06" y2="184.37" stroke="#333" stroke-width="1"/>
<line x1="632.06" y1="144.86" x2="636.06" y2="144.86" stroke="#333" stroke-width="1"/>
<rect x="645.28" y="161.72" width="22.44" height="38.28" fill="#616161" opacity="0.85"><title>Control: 0.001020</title></rect>
<line x1="656.50" y1="183.29" x2="656.50" y2="148.94" stroke="#333" stroke-width="1"/>
<line x1="654.50" y1="183.29" x2="658.50" y2="183.29" stroke="#333" stroke-width="1"/>
<line x1="654.50" y1="148.94" x2="658.50" y2="148.94" stroke="#333" stroke-width="1"/>
<text x="645.28" y="214" text-anchor="end" font-size="9" fill="#FF9800" transform="rotate(-45,645.28,214)">Formality</text>
<rect x="678.94" y="86.33" width="22.44" height="113.67" fill="#2E7D32" opacity="0.85"><title>Partner Identity: 0.003028</title></rect>
<line x1="690.17" y1="119.21" x2="690.17" y2="48.18" stroke="#333" stroke-width="1"/>
<line x1="688.17" y1="119.21" x2="692.17" y2="119.21" stroke="#333" stroke-width="1"/>
<line x1="688.17" y1="48.18" x2="692.17" y2="48.18" stroke="#333" stroke-width="1"/>
<rect x="701.39" y="193.98" width="22.44" height="6.02" fill="#616161" opacity="0.85"><title>Control: 0.000160</title></rect>
<line x1="712.61" y1="195.00" x2="712.61" y2="187.63" stroke="#333" stroke-width="1"/>
<line x1="710.61" y1="195.00" x2="714.61" y2="195.00" stroke="#333" stroke-width="1"/>
<line x1="710.61" y1="187.63" x2="714.61" y2="187.63" stroke="#333" stroke-width="1"/>
<text x="701.39" y="214" text-anchor="end" font-size="9" fill="#FF9800" transform="rotate(-45,701.39,214)">Expertise</text>
<rect x="735.06" y="170.64" width="22.44" height="29.36" fill="#2E7D32" opacity="0.85"><title>Partner Identity: 0.000782</title></rect>
<line x1="746.28" y1="189.21" x2="746.28" y2="147.81" stroke="#333" stroke-width="1"/>
<line x1="744.28" y1="189.21" x2="748.28" y2="189.21" stroke="#333" stroke-width="1"/>
<line x1="744.28" y1="147.81" x2="748.28" y2="147.81" stroke="#333" stroke-width="1"/>
<rect x="757.50" y="165.09" width="22.44" height="34.91" fill="#616161" opacity="0.85"><title>Control: 0.000930</title></rect>
<line x1="768.72" y1="186.64" x2="768.72" y2="152.81" stroke="#333" stroke-width="1"/>
<line x1="766.72" y1="186.64" x2="770.72" y2="186.64" stroke="#333" stroke-width="1"/>
<line x1="766.72" y1="152.81" x2="770.72" y2="152.81" stroke="#333" stroke-width="1"/>
<text x="757.50" y="214" text-anchor="end" font-size="9" fill="#FF9800" transform="rotate(-45,757.50,214)">Helpfulness</text>
<rect x="791.17" y="44.59" width="22.44" height="155.41" fill="#2E7D32" opacity="0.85"><title>Partner Identity: 0.004140</title></rect>
<line x1="802.39" y1="190.64" x2="802.39" y2="118.81" stroke="#333" stroke-width="1"/>
<line x1="800.39" y1="190.64" x2="804.39" y2="190.64" stroke="#333" stroke-width="1"/>
<line x1="800.39" y1="118.81" x2="804.39" y2="118.81" stroke="#333" stroke-width="1"/>
<rect x="813.61" y="173.87" width="22.44" height="26.13" fill="#616161" opacity="0.85"><title>Control: 0.000696</title></rect>
<line x1="824.83" y1="193.50" x2="824.83" y2="147.77" stroke="#333" stroke-width="1"/>
<line x1="822.83" y1="193.50" x2="826.83" y2="193.50" stroke="#333" stroke-width="1"/>
<line x1="822.83" y1="147.77" x2="826.83" y2="147.77" stroke="#333" stroke-width="1"/>
<text x="813.61" y="214" text-anchor="end" font-size="9" fill="#9E9E9E" transform="rotate(-45,813.61,214)">Baseline</text>
<rect x="847.28" y="182.45" width="22.44" height="17.55" fill="#2E7D32" opacity="0.85"><title>Partner Identity: 0.000468</title></rect>
<line x1="858.50" y1="186.62" x2="858.50" y2="164.49" stroke="#333" stroke-width="1"/>
<line x1="856.50" y1="186.62" x2="860.50" y2="186.62" stroke="#333" stroke-width="1"/>
<line x1="856.50" y1="164.49" x2="860.50" y2="164.49" stroke="#333" stroke-width="1"/>
<rect x="869.72" y="166.81" width="22.44" height="33.19" fill="#616161" opacity="0.85"><title>Control: 0.000884</title></rect>
<line x1="880.94" y1="177.80" x2="880.94" y2="149.71" stroke="#333" stroke-width="1"/>
<line x1="878.94" y1="177.80" x2="882.94" y2="177.80" stroke="#333" stroke-width="1"/>
<line x1="878.94" y1="149.71" x2="882.94" y2="149.71" stroke="#333" stroke-width="1"/>
<text x="869.72" y="214" text-anchor="end" font-size="9" fill="#9E9E9E" transform="rotate(-45,869.72,214)">Biological</text>
<rect x="903.39" y="180.47" width="22.44" height="19.53" fill="#2E7D32" opacity="0.85"><title>Partner Identity: 0.000520</title></rect>
<line x1="914.61" y1="189.73" x2="914.61" y2="166.49" stroke="#333" stroke-width="1"/>
<line x1="912.61" y1="189.73" x2="916.61" y2="189.73" stroke="#333" stroke-width="1"/>
<line x1="912.61" y1="166.49" x2="916.61" y2="166.49" stroke="#333" stroke-width="1"/>
<rect x="925.83" y="187.77" width="22.44" height="12.23" fill="#616161" opacity="0.85"><title>Control: 0.000326</title></rect>
<line x1="937.06" y1="193.40" x2="937.06" y2="174.39" stroke="#333" stroke-width="1"/>
<line x1="935.06" y1="193.40" x2="939.06" y2="193.40" stroke="#333" stroke-width="1"/>
<line x1="935.06" y1="174.39" x2="939.06" y2="174.39" stroke="#333" stroke-width="1"/>
<text x="925.83" y="214" text-anchor="end" font-size="9" fill="#9E9E9E" transform="rotate(-45,925.83,214)">Shapes</text>
<rect x="959.50" y="89.56" width="22.44" height="110.44" fill="#2E7D32" opacity="0.85"><title>Partner Identity: 0.002942</title></rect>
<line x1="970.72" y1="122.06" x2="970.72" y2="26.84" stroke="#333" stroke-width="1"/>
<line x1="968.72" y1="122.06" x2="972.72" y2="122.06" stroke="#333" stroke-width="1"/>
<line x1="968.72" y1="26.84" x2="972.72" y2="26.84" stroke="#333" stroke-width="1"/>
<rect x="981.94" y="188.90" width="22.44" height="11.10" fill="#616161" opacity="0.85"><title>Control: 0.000296</title></rect>
<line x1="993.17" y1="191.10" x2="993.17" y2="185.05" stroke="#333" stroke-width="1"/>
<line x1="991.17" y1="191.10" x2="995.17" y2="191.10" stroke="#333" stroke-width="1"/>
<line x1="991.17" y1="185.05" x2="995.17" y2="185.05" stroke="#333" stroke-width="1"/>
<text x="981.94" y="214" text-anchor="end" font-size="9" fill="#00BCD4" transform="rotate(-45,981.94,214)">SysPrompt (labeled)</text>
<line x1="0" y1="200" x2="1010" y2="200" stroke="#333"/>
<line x1="0" y1="0" x2="0" y2="200" stroke="#333"/>
</g>
<rect x="70.0" y="324" width="10" height="10" fill="#2E7D32"/>
<text x="84.0" y="332" font-size="8" fill="#333">Partner Identity</text>
<rect x="272.0" y="324" width="10" height="10" fill="#616161"/>
<text x="286.0" y="332" font-size="8" fill="#333">Control</text>
</svg>