<svg viewBox="0 0 800 340" xmlns="http://www.w3.org/2000/svg" style="width:100%;max-width:800px;height:auto;font-family:Arial,sans-serif;">
<rect width="800" height="340" fill="white"/>

<g transform="translate(70,30)">
<line x1="0" y1="190.0" x2="710" y2="190.0" stroke="#eee" stroke-width="1"/>
<text x="-8" y="194.0" text-anchor="end" font-size="10" fill="#666">0.00</text>
<line x1="0" y1="152.0" x2="710" y2="152.0" stroke="#eee" stroke-width="1"/>
<text x="-8" y="156.0" text-anchor="end" font-size="10" fill="#666">1.61</text>
<line x1="0" y1="114.0" x2="710" y2="114.0" stroke="#eee" stroke-width="1"/>
<text x="-8" y="118.0" text-anchor="end" font-size="10" fill="#666">3.23</text>
<line x1="0" y1="76.0" x2="710" y2="76.0" stroke="#eee" stroke-width="1"/>
<text x="-8" y="80.0" text-anchor="end" font-size="10" fill="#666">4.84</text>
<line x1="0" y1="38.0" x2="710" y2="38.0" stroke="#eee" stroke-width="1"/>
<text x="-8" y="42.0" text-anchor="end" font-size="10" fill="#666">6.46</text>
<line x1="0" y1="0.0" x2="710" y2="0.0" stroke="#eee" stroke-width="1"/>
<text x="-8" y="4.0" text-anchor="end" font-size="10" fill="#666">8.07</text>
<text x="-50" y="95.0" text-anchor="middle" font-size="11" fill="#333" transform="rotate(-90,-50,95.0)">Mean R² (×10⁻³)</text>
<line x1="83.52941176470588" y1="0" x2="83.52941176470588" y2="190" stroke="#ddd" stroke-width="1" stroke-dasharray="4,3"/>
<rect x="6.26" y="131.31" width="14.62" height="58.69" fill="#2E7D32" opacity="0.85"><title>Partner Identity: 2.494 ×10⁻³</title></rect>
<line x1="13.57" y1="139.28" x2="13.57" y2="125.81" stroke="#333" stroke-width="1"/>
<line x1="11.57" y1="139.28" x2="15.57" y2="139.28" stroke="#333" stroke-width="1"/>
<line x1="11.57" y1="125.81" x2="15.57" y2="125.81" stroke="#333" stroke-width="1"/>
<rect x="22.88" y="170.83" width="14.62" height="19.17" fill="#616161" opacity="0.85"><title>Control: 0.814 ×10⁻³</title></rect>
<line x1="30.19" y1="175.82" x2="30.19" y2="165.09" stroke="#333" stroke-width="1"/>
<line x1="28.19" y1="175.82" x2="32.19" y2="175.82" stroke="#333" stroke-width="1"/>
<line x1="28.19" y1="165.09" x2="32.19" y2="165.09" stroke="#333" stroke-width="1"/>
<text x="22.9" y="204" text-anchor="end" font-size="9" fill="#9E9E9E" transform="rotate(-45,22.9,204)">Biological</text>
<rect x="48.03" y="177.83" width="14.62" height="12.17" fill="#2E7D32" opacity="0.85"><title>Partner Identity: 0.517 ×10⁻³</title></rect>
<line x1="55.34" y1="183.75" x2="55.34" y2="172.16" stroke="#333" stroke-width="1"/>
<line x1="53.34" y1="183.75" x2="57.34" y2="183.75" stroke="#333" stroke-width="1"/>
<line x1="53.34" y1="172.16" x2="57.34" y2="172.16" stroke="#333" stroke-width="1"/>
<rect x="64.65" y="181.87" width="14.62" height="8.13" fill="#616161" opacity="0.85"><title>Control: 0.345 ×10⁻³</title></rect>
<line x1="71.96" y1="186.37" x2="71.96" y2="169.35" stroke="#333" stroke-width="1"/>
<line x1="69.96" y1="186.37" x2="73.96" y2="186.37" stroke="#333" stroke-width="1"/>
<line x1="69.96" y1="169.35" x2="73.96" y2="169.35" stroke="#333" stroke-width="1"/>
<text x="64.6" y="204" text-anchor="end" font-size="9" fill="#9E9E9E" transform="rotate(-45,64.6,204)">Shapes</text>
<rect x="89.79" y="34.89" width="14.62" height="155.11" fill="#2E7D32" opacity="0.85"><title>Partner Identity: 6.591 ×10⁻³</title></rect>
<line x1="97.10" y1="55.01" x2="97.10" y2="25.50" stroke="#333" stroke-width="1"/>
<line x1="95.10" y1="55.01" x2="99.10" y2="55.01" stroke="#333" stroke-width="1"/>
<line x1="95.10" y1="25.50" x2="99.10" y2="25.50" stroke="#333" stroke-width="1"/>
<rect x="106.41" y="172.51" width="14.62" height="17.49" fill="#616161" opacity="0.85"><title>Control: 0.743 ×10⁻³</title></rect>
<line x1="113.72" y1="177.30" x2="113.72" y2="164.68" stroke="#333" stroke-width="1"/>
<line x1="111.72" y1="177.30" x2="115.72" y2="177.30" stroke="#333" stroke-width="1"/>
<line x1="111.72" y1="164.68" x2="115.72" y2="164.68" stroke="#333" stroke-width="1"/>
<text x="106.4" y="204" text-anchor="end" font-size="9" fill="#2196F3" transform="rotate(-45,106.4,204)">Social</text>
<rect x="131.56" y="38.81" width="14.62" height="151.19" fill="#2E7D32" opacity="0.85"><title>Partner Identity: 6.424 ×10⁻³</title></rect>
<line x1="138.87" y1="60.52" x2="138.87" y2="31.10" stroke="#333" stroke-width="1"/>
<line x1="136.87" y1="60.52" x2="140.87" y2="60.52" stroke="#333" stroke-width="1"/>
<line x1="136.87" y1="31.10" x2="140.87" y2="31.10" stroke="#333" stroke-width="1"/>
<rect x="148.18" y="165.94" width="14.62" height="24.06" fill="#616161" opacity="0.85"><title>Control: 1.022 ×10⁻³</title></rect>
<line x1="155.49" y1="173.25" x2="155.49" y2="159.74" stroke="#333" stroke-width="1"/>
<line x1="153.49" y1="173.25" x2="157.49" y2="173.25" stroke="#333" stroke-width="1"/>
<line x1="153.49" y1="159.74" x2="157.49" y2="159.74" stroke="#333" stroke-width="1"/>
<text x="148.2" y="204" text-anchor="end" font-size="9" fill="#2196F3" transform="rotate(-45,148.2,204)">Attention</text>
<rect x="173.32" y="45.38" width="14.62" height="144.62" fill="#2E7D32" opacity="0.85"><title>Partner Identity: 6.145 ×10⁻³</title></rect>
<line x1="180.63" y1="65.47" x2="180.63" y2="36.85" stroke="#333" stroke-width="1"/>
<line x1="178.63" y1="65.47" x2="182.63" y2="65.47" stroke="#333" stroke-width="1"/>
<line x1="178.63" y1="36.85" x2="182.63" y2="36.85" stroke="#333" stroke-width="1"/>
<rect x="189.94" y="167.44" width="14.62" height="22.56" fill="#616161" opacity="0.85"><title>Control: 0.959 ×10⁻³</title></rect>
<line x1="197.25" y1="174.27" x2="197.25" y2="158.01" stroke="#333" stroke-width="1"/>
<line x1="195.25" y1="174.27" x2="199.25" y2="174.27" stroke="#333" stroke-width="1"/>
<line x1="195.25" y1="158.01" x2="199.25" y2="158.01" stroke="#333" stroke-width="1"/>
<text x="189.9" y="204" text-anchor="end" font-size="9" fill="#2196F3" transform="rotate(-45,189.9,204)">Prediction</text>
<rect x="215.09" y="59.86" width="14.62" height="130.14" fill="#2E7D32" opacity="0.85"><title>Partner Identity: 5.530 ×10⁻³</title></rect>
<line x1="222.40" y1="79.43" x2="222.40" y2="50.78" stroke="#333" stroke-width="1"/>
<line x1="220.40" y1="79.43" x2="224.40" y2="79.43" stroke="#333" stroke-width="1"/>
<line x1="220.40" y1="50.78" x2="224.40" y2="50.78" stroke="#333" stroke-width="1"/>
<rect x="231.71" y="154.17" width="14.62" height="35.83" fill="#616161" opacity="0.85"><title>Control: 1.522 ×10⁻³</title></rect>
<line x1="239.01" y1="164.37" x2="239.01" y2="148.94" stroke="#333" stroke-width="1"/>
<line x1="237.01" y1="164.37" x2="241.01" y2="164.37" stroke="#333" stroke-width="1"/>
<line x1="237.01" y1="148.94" x2="241.01" y2="148.94" stroke="#333" stroke-width="1"/>
<text x="231.7" y="204" text-anchor="end" font-size="9" fill="#2196F3" transform="rotate(-45,231.7,204)">Cognitive</text>
<rect x="256.85" y="61.60" width="14.62" height="128.40" fill="#2E7D32" opacity="0.85"><title>Partner Identity: 5.456 ×10⁻³</title></rect>
<line x1="264.16" y1="78.87" x2="264.16" y2="54.80" stroke="#333" stroke-width="1"/>
<line x1="262.16" y1="78.87" x2="266.16" y2="78.87" stroke="#333" stroke-width="1"/>
<line x1="262.16" y1="54.80" x2="266.16" y2="54.80" stroke="#333" stroke-width="1"/>
<rect x="273.47" y="161.87" width="14.62" height="28.13" fill="#616161" opacity="0.85"><title>Control: 1.195 ×10⁻³</title></rect>
<line x1="280.78" y1="171.30" x2="280.78" y2="150.33" stroke="#333" stroke-width="1"/>
<line x1="278.78" y1="171.30" x2="282.78" y2="171.30" stroke="#333" stroke-width="1"/>
<line x1="278.78" y1="150.33" x2="282.78" y2="150.33" stroke="#333" stroke-width="1"/>
<text x="273.5" y="204" text-anchor="end" font-size="9" fill="#2196F3" transform="rotate(-45,273.5,204)">Agency</text>
<rect x="298.62" y="67.75" width="14.62" height="122.25" fill="#2E7D32" opacity="0.85"><title>Partner Identity: 5.194 ×10⁻³</title></rect>
<line x1="305.93" y1="86.44" x2="305.93" y2="58.60" stroke="#333" stroke-width="1"/>
<line x1="303.93" y1="86.44" x2="307.93" y2="86.44" stroke="#333" stroke-width="1"/>
<line x1="303.93" y1="58.60" x2="307.93" y2="58.60" stroke="#333" stroke-width="1"/>
<rect x="315.24" y="155.64" width="14.62" height="34.36" fill="#616161" opacity="0.85"><title>Control: 1.460 ×10⁻³</title></rect>
<line x1="322.54" y1="165.48" x2="322.54" y2="148.06" stroke="#333" stroke-width="1"/>
<line x1="320.54" y1="165.48" x2="324.54" y2="165.48" stroke="#333" stroke-width="1"/>
<line x1="320.54" y1="148.06" x2="324.54" y2="148.06" stroke="#333" stroke-width="1"/>
<text x="315.2" y="204" text-anchor="end" font-size="9" fill="#2196F3" transform="rotate(-45,315.2,204)">Intentions</text>
<rect x="340.38" y="67.52" width="14.62" height="122.48" fill="#2E7D32" opacity="0.85"><title>Partner Identity: 5.204 ×10⁻³</title></rect>
<line x1="347.69" y1="89.76" x2="347.69" y2="55.32" stroke="#333" stroke-width="1"/>
<line x1="345.69" y1="89.76" x2="349.69" y2="89.76" stroke="#333" stroke-width="1"/>
<line x1="345.69" y1="55.32" x2="349.69" y2="55.32" stroke="#333" stroke-width="1"/>
<rect x="357.00" y="172.55" width="14.62" height="17.45" fill="#616161" opacity="0.85"><title>Control: 0.741 ×10⁻³</title></rect>
<line x1="364.31" y1="177.10" x2="364.31" y2="164.09" stroke="#333" stroke-width="1"/>
<line x1="362.31" y1="177.10" x2="366.31" y2="177.10" stroke="#333" stroke-width="1"/>
<line x1="362.31" y1="164.09" x2="366.31" y2="164.09" stroke="#333" stroke-width="1"/>
<text x="357.0" y="204" text-anchor="end" font-size="9" fill="#2196F3" transform="rotate(-45,357.0,204)">Roles</text>
<rect x="382.15" y="78.57" width="14.62" height="111.43" fill="#2E7D32" opacity="0.85"><title>Partner Identity: 4.735 ×10⁻³</title></rect>
<line x1="389.46" y1="91.91" x2="389.46" y2="70.62" stroke="#333" stroke-width="1"/>
<line x1="387.46" y1="91.91" x2="391.46" y2="91.91" stroke="#333" stroke-width="1"/>
<line x1="387.46" y1="70.62" x2="391.46" y2="70.62" stroke="#333" stroke-width="1"/>
<rect x="398.76" y="173.92" width="14.62" height="16.08" fill="#616161" opacity="0.85"><title>Control: 0.683 ×10⁻³</title></rect>
<line x1="406.07" y1="176.82" x2="406.07" y2="170.98" stroke="#333" stroke-width="1"/>
<line x1="404.07" y1="176.82" x2="408.07" y2="176.82" stroke="#333" stroke-width="1"/>
<line x1="404.07" y1="170.98" x2="408.07" y2="170.98" stroke="#333" stroke-width="1"/>
<text x="398.8" y="204" text-anchor="end" font-size="9" fill="#2196F3" transform="rotate(-45,398.8,204)">Emotions</text>
<rect x="423.91" y="89.44" width="14.62" height="100.56" fill="#2E7D32" opacity="0.85"><title>Partner Identity: 4.273 ×10⁻³</title></rect>
<line x1="431.22" y1="105.12" x2="431.22" y2="84.29" stroke="#333" stroke-width="1"/>
<line x1="429.22" y1="105.12" x2="433.22" y2="105.12" stroke="#333" stroke-width="1"/>
<line x1="429.22" y1="84.29" x2="433.22" y2="84.29" stroke="#333" stroke-width="1"/>
<rect x="440.53" y="166.78" width="14.62" height="23.22" fill="#616161" opacity="0.85"><title>Control: 0.986 ×10⁻³</title></rect>
<line x1="447.84" y1="174.36" x2="447.84" y2="160.54" stroke="#333" stroke-width="1"/>
<line x1="445.84" y1="174.36" x2="449.84" y2="174.36" stroke="#333" stroke-width="1"/>
<line x1="445.84" y1="160.54" x2="449.84" y2="160.54" stroke="#333" stroke-width="1"/>
<text x="440.5" y="204" text-anchor="end" font-size="9" fill="#2196F3" transform="rotate(-45,440.5,204)">Phenomenology</text>
<rect x="465.68" y="93.33" width="14.62" height="96.67" fill="#2E7D32" opacity="0.85"><title>Partner Identity: 4.108 ×10⁻³</title></rect>
<line x1="472.99" y1="107.20" x2="472.99" y2="87.11" stroke="#333" stroke-width="1"/>
<line x1="470.99" y1="107.20" x2="474.99" y2="107.20" stroke="#333" stroke-width="1"/>
<line x1="470.99" y1="87.11" x2="474.99" y2="87.11" stroke="#333" stroke-width="1"/>
<rect x="482.29" y="164.76" width="14.62" height="25.24" fill="#616161" opacity="0.85"><title>Control: 1.073 ×10⁻³</title></rect>
<line x1="489.60" y1="172.10" x2="489.60" y2="156.27" stroke="#333" stroke-width="1"/>
<line x1="487.60" y1="172.10" x2="491.60" y2="172.10" stroke="#333" stroke-width="1"/>
<line x1="487.60" y1="156.27" x2="491.60" y2="156.27" stroke="#333" stroke-width="1"/>
<text x="482.3" y="204" text-anchor="end" font-size="9" fill="#2196F3" transform="rotate(-45,482.3,204)">Embodiment</text>
<rect x="507.44" y="106.11" width="14.62" height="83.89" fill="#2E7D32" opacity="0.85"><title>Partner Identity: 3.565 ×10⁻³</title></rect>
<line x1="514.75" y1="123.61" x2="514.75" y2="96.03" stroke="#333" stroke-width="1"/>
<line x1="512.75" y1="123.61" x2="516.75" y2="123.61" stroke="#333" stroke-width="1"/>
<line x1="512.75" y1="96.03" x2="516.75" y2="96.03" stroke="#333" stroke-width="1"/>
<rect x="524.06" y="179.42" width="14.62" height="10.58" fill="#616161" opacity="0.85"><title>Control: 0.449 ×10⁻³</title></rect>
<line x1="531.37" y1="181.00" x2="531.37" y2="176.77" stroke="#333" stroke-width="1"/>
<line x1="529.37" y1="181.00" x2="533.37" y2="181.00" stroke="#333" stroke-width="1"/>
<line x1="529.37" y1="176.77" x2="533.37" y2="176.77" stroke="#333" stroke-width="1"/>
<text x="524.1" y="204" text-anchor="end" font-size="9" fill="#2196F3" transform="rotate(-45,524.1,204)">Animacy</text>
<rect x="549.21" y="134.67" width="14.62" height="55.33" fill="#2E7D32" opacity="0.85"><title>Partner Identity: 2.351 ×10⁻³</title></rect>
<line x1="556.51" y1="145.43" x2="556.51" y2="126.39" stroke="#333" stroke-width="1"/>
<line x1="554.51" y1="145.43" x2="558.51" y2="145.43" stroke="#333" stroke-width="1"/>
<line x1="554.51" y1="126.39" x2="558.51" y2="126.39" stroke="#333" stroke-width="1"/>
<rect x="565.82" y="167.85" width="14.62" height="22.15" fill="#616161" opacity="0.85"><title>Control: 0.941 ×10⁻³</title></rect>
<line x1="573.13" y1="172.06" x2="573.13" y2="164.75" stroke="#333" stroke-width="1"/>
<line x1="571.13" y1="172.06" x2="575.13" y2="172.06" stroke="#333" stroke-width="1"/>
<line x1="571.13" y1="164.75" x2="575.13" y2="164.75" stroke="#333" stroke-width="1"/>
<text x="565.8" y="204" text-anchor="end" font-size="9" fill="#FF9800" transform="rotate(-45,565.8,204)">Expertise</text>
<rect x="590.97" y="159.87" width="14.62" height="30.13" fill="#2E7D32" opacity="0.85"><title>Partner Identity: 1.280 ×10⁻³</title></rect>
<line x1="598.28" y1="174.37" x2="598.28" y2="152.65" stroke="#333" stroke-width="1"/>
<line x1="596.28" y1="174.37" x2="600.28" y2="174.37" stroke="#333" stroke-width="1"/>
<line x1="596.28" y1="152.65" x2="600.28" y2="152.65" stroke="#333" stroke-width="1"/>
<rect x="607.59" y="178.06" width="14.62" height="11.94" fill="#616161" opacity="0.85"><title>Control: 0.507 ×10⁻³</title></rect>
<line x1="614.90" y1="185.96" x2="614.90" y2="169.31" stroke="#333" stroke-width="1"/>
<line x1="612.90" y1="185.96" x2="616.90" y2="185.96" stroke="#333" stroke-width="1"/>
<line x1="612.90" y1="169.31" x2="616.90" y2="169.31" stroke="#333" stroke-width="1"/>
<text x="607.6" y="204" text-anchor="end" font-size="9" fill="#FF9800" transform="rotate(-45,607.6,204)">Formality</text>
<rect x="632.74" y="176.60" width="14.62" height="13.40" fill="#2E7D32" opacity="0.85"><title>Partner Identity: 0.570 ×10⁻³</title></rect>
<line x1="640.04" y1="184.39" x2="640.04" y2="169.33" stroke="#333" stroke-width="1"/>
<line x1="638.04" y1="184.39" x2="642.04" y2="184.39" stroke="#333" stroke-width="1"/>
<line x1="638.04" y1="169.33" x2="642.04" y2="169.33" stroke="#333" stroke-width="1"/>
<rect x="649.35" y="176.29" width="14.62" height="13.71" fill="#616161" opacity="0.85"><title>Control: 0.582 ×10⁻³</title></rect>
<line x1="656.66" y1="183.53" x2="656.66" y2="165.95" stroke="#333" stroke-width="1"/>
<line x1="654.66" y1="183.53" x2="658.66" y2="183.53" stroke="#333" stroke-width="1"/>
<line x1="654.66" y1="165.95" x2="658.66" y2="165.95" stroke="#333" stroke-width="1"/>
<text x="649.4" y="204" text-anchor="end" font-size="9" fill="#FF9800" transform="rotate(-45,649.4,204)">Helpfulness</text>
<rect x="674.50" y="72.74" width="14.62" height="117.26" fill="#2E7D32" opacity="0.85"><title>Partner Identity: 4.982 ×10⁻³</title></rect>
<line x1="681.81" y1="102.31" x2="681.81" y2="30.54" stroke="#333" stroke-width="1"/>
<line x1="679.81" y1="102.31" x2="683.81" y2="102.31" stroke="#333" stroke-width="1"/>
<line x1="679.81" y1="30.54" x2="683.81" y2="30.54" stroke="#333" stroke-width="1"/>
<rect x="691.12" y="179.24" width="14.62" height="10.76" fill="#616161" opacity="0.85"><title>Control: 0.457 ×10⁻³</title></rect>
<line x1="698.43" y1="181.49" x2="698.43" y2="177.14" stroke="#333" stroke-width="1"/>
<line x1="696.43" y1="181.49" x2="700.43" y2="181.49" stroke="#333" stroke-width="1"/>
<line x1="696.43" y1="177.14" x2="700.43" y2="177.14" stroke="#333" stroke-width="1"/>
<text x="691.1" y="204" text-anchor="end" font-size="9" fill="#00BCD4" transform="rotate(-45,691.1,204)">SysPrompt</text>
<line x1="0" y1="190" x2="710" y2="190" stroke="#333"/>
<line x1="0" y1="0" x2="0" y2="190" stroke="#333"/>
</g>
<rect x="70" y="320" width="10" height="10" fill="#2E7D32"/>
<text x="84" y="328" font-size="9" fill="#333">Partner Identity</text>
<rect x="210" y="320" width="10" height="10" fill="#616161"/>
<text x="224" y="328" font-size="9" fill="#333">Control</text>
</svg>