<svg viewBox="0 0 800 320" xmlns="http://www.w3.org/2000/svg" style="width:100%;max-width:800px;height:auto;font-family:Arial,sans-serif;">
<rect width="800" height="320" fill="white"/>

<g transform="translate(70,30)">
<line x1="0" y1="180.0" x2="710" y2="180.0" stroke="#eee" stroke-width="1"/>
<text x="-8" y="184.0" text-anchor="end" font-size="10" fill="#666">0.00</text>
<line x1="0" y1="144.0" x2="710" y2="144.0" stroke="#eee" stroke-width="1"/>
<text x="-8" y="148.0" text-anchor="end" font-size="10" fill="#666">1.61</text>
<line x1="0" y1="108.0" x2="710" y2="108.0" stroke="#eee" stroke-width="1"/>
<text x="-8" y="112.0" text-anchor="end" font-size="10" fill="#666">3.23</text>
<line x1="0" y1="72.0" x2="710" y2="72.0" stroke="#eee" stroke-width="1"/>
<text x="-8" y="76.0" text-anchor="end" font-size="10" fill="#666">4.84</text>
<line x1="0" y1="36.0" x2="710" y2="36.0" stroke="#eee" stroke-width="1"/>
<text x="-8" y="40.0" text-anchor="end" font-size="10" fill="#666">6.46</text>
<line x1="0" y1="0.0" x2="710" y2="0.0" stroke="#eee" stroke-width="1"/>
<text x="-8" y="4.0" text-anchor="end" font-size="10" fill="#666">8.07</text>
<text x="-50" y="90.0" text-anchor="middle" font-size="11" fill="#333" transform="rotate(-90,-50,90.0)">Mean R² (×10⁻³)</text>
<rect x="21.30" y="173.80" width="49.70" height="6.20" fill="#81C784" opacity="0.85"><title>Partner Identity — Embodiment: 0.278 ×10⁻³</title></rect>
<line x1="46.15" y1="175.60" x2="46.15" y2="171.47" stroke="#333" stroke-width="1"/>
<line x1="44.15" y1="175.60" x2="48.15" y2="175.60" stroke="#333" stroke-width="1"/>
<line x1="44.15" y1="171.47" x2="48.15" y2="171.47" stroke="#333" stroke-width="1"/>
<rect x="73.00" y="172.94" width="49.70" height="7.06" fill="#BDBDBD" opacity="0.85"><title>Control — Embodiment: 0.317 ×10⁻³</title></rect>
<line x1="97.85" y1="174.17" x2="97.85" y2="171.52" stroke="#333" stroke-width="1"/>
<line x1="95.85" y1="174.17" x2="99.85" y2="174.17" stroke="#333" stroke-width="1"/>
<line x1="95.85" y1="171.52" x2="99.85" y2="171.52" stroke="#333" stroke-width="1"/>
<text x="73.0" y="194" text-anchor="end" font-size="10" fill="#4CAF50" transform="rotate(-30,73.0,194)">Embodiment</text>
<rect x="163.30" y="173.92" width="49.70" height="6.08" fill="#81C784" opacity="0.85"><title>Partner Identity — Roles: 0.273 ×10⁻³</title></rect>
<line x1="188.15" y1="175.40" x2="188.15" y2="171.29" stroke="#333" stroke-width="1"/>
<line x1="186.15" y1="175.40" x2="190.15" y2="175.40" stroke="#333" stroke-width="1"/>
<line x1="186.15" y1="171.29" x2="190.15" y2="171.29" stroke="#333" stroke-width="1"/>
<rect x="215.00" y="173.23" width="49.70" height="6.77" fill="#BDBDBD" opacity="0.85"><title>Control — Roles: 0.304 ×10⁻³</title></rect>
<line x1="239.85" y1="174.84" x2="239.85" y2="170.96" stroke="#333" stroke-width="1"/>
<line x1="237.85" y1="174.84" x2="241.85" y2="174.84" stroke="#333" stroke-width="1"/>
<line x1="237.85" y1="170.96" x2="241.85" y2="170.96" stroke="#333" stroke-width="1"/>
<text x="215.0" y="194" text-anchor="end" font-size="10" fill="#4CAF50" transform="rotate(-30,215.0,194)">Roles</text>
<rect x="305.30" y="171.61" width="49.70" height="8.39" fill="#81C784" opacity="0.85"><title>Partner Identity — Animacy: 0.376 ×10⁻³</title></rect>
<line x1="330.15" y1="174.02" x2="330.15" y2="168.84" stroke="#333" stroke-width="1"/>
<line x1="328.15" y1="174.02" x2="332.15" y2="174.02" stroke="#333" stroke-width="1"/>
<line x1="328.15" y1="168.84" x2="332.15" y2="168.84" stroke="#333" stroke-width="1"/>
<rect x="357.00" y="175.21" width="49.70" height="4.79" fill="#BDBDBD" opacity="0.85"><title>Control — Animacy: 0.215 ×10⁻³</title></rect>
<line x1="381.85" y1="176.08" x2="381.85" y2="174.15" stroke="#333" stroke-width="1"/>
<line x1="379.85" y1="176.08" x2="383.85" y2="176.08" stroke="#333" stroke-width="1"/>
<line x1="379.85" y1="174.15" x2="383.85" y2="174.15" stroke="#333" stroke-width="1"/>
<text x="357.0" y="194" text-anchor="end" font-size="10" fill="#4CAF50" transform="rotate(-30,357.0,194)">Animacy</text>
<line x1="426.0" y1="0" x2="426.0" y2="180" stroke="#ccc" stroke-width="1" stroke-dasharray="4,3"/>
<rect x="447.30" y="174.53" width="49.70" height="5.47" fill="#81C784" opacity="0.5"><title>Partner Identity — Biological: 0.245 ×10⁻³</title></rect>
<line x1="472.15" y1="175.85" x2="472.15" y2="172.63" stroke="#333" stroke-width="1"/>
<line x1="470.15" y1="175.85" x2="474.15" y2="175.85" stroke="#333" stroke-width="1"/>
<line x1="470.15" y1="172.63" x2="474.15" y2="172.63" stroke="#333" stroke-width="1"/>
<rect x="499.00" y="173.48" width="49.70" height="6.52" fill="#BDBDBD" opacity="0.5"><title>Control — Biological: 0.293 ×10⁻³</title></rect>
<line x1="523.85" y1="174.45" x2="523.85" y2="172.46" stroke="#333" stroke-width="1"/>
<line x1="521.85" y1="174.45" x2="525.85" y2="174.45" stroke="#333" stroke-width="1"/>
<line x1="521.85" y1="172.46" x2="525.85" y2="172.46" stroke="#333" stroke-width="1"/>
<text x="499.0" y="194" text-anchor="end" font-size="10" fill="#9E9E9E" transform="rotate(-30,499.0,194)">Biological</text>
<rect x="589.30" y="169.65" width="49.70" height="10.35" fill="#81C784" opacity="0.5"><title>Partner Identity — Shapes: 0.464 ×10⁻³</title></rect>
<line x1="614.15" y1="173.59" x2="614.15" y2="165.20" stroke="#333" stroke-width="1"/>
<line x1="612.15" y1="173.59" x2="616.15" y2="173.59" stroke="#333" stroke-width="1"/>
<line x1="612.15" y1="165.20" x2="616.15" y2="165.20" stroke="#333" stroke-width="1"/>
<rect x="641.00" y="176.07" width="49.70" height="3.93" fill="#BDBDBD" opacity="0.5"><title>Control — Shapes: 0.176 ×10⁻³</title></rect>
<line x1="665.85" y1="177.17" x2="665.85" y2="173.99" stroke="#333" stroke-width="1"/>
<line x1="663.85" y1="177.17" x2="667.85" y2="177.17" stroke="#333" stroke-width="1"/>
<line x1="663.85" y1="173.99" x2="667.85" y2="173.99" stroke="#333" stroke-width="1"/>
<text x="641.0" y="194" text-anchor="end" font-size="10" fill="#9E9E9E" transform="rotate(-30,641.0,194)">Shapes</text>
<line x1="0" y1="180" x2="710" y2="180" stroke="#333"/>
<line x1="0" y1="0" x2="0" y2="180" stroke="#333"/>
</g>
<rect x="70" y="300" width="10" height="10" fill="#81C784"/>
<text x="84" y="308" font-size="9" fill="#333">Partner Identity</text>
<rect x="210" y="300" width="10" height="10" fill="#BDBDBD"/>
<text x="224" y="308" font-size="9" fill="#333">Control</text>
</svg>