<svg viewBox="0 0 700 360" xmlns="http://www.w3.org/2000/svg" style="width:100%;max-width:700px;height:auto;font-family:Arial,sans-serif;">
<rect width="700" height="360" fill="white"/>

<g transform="translate(70,30)">
<line x1="0" y1="210.0" x2="610" y2="210.0" stroke="#eee" stroke-width="1"/>
<text x="-8" y="214.0" text-anchor="end" font-size="10" fill="#666">0.00</text>
<line x1="0" y1="168.0" x2="610" y2="168.0" stroke="#eee" stroke-width="1"/>
<text x="-8" y="172.0" text-anchor="end" font-size="10" fill="#666">1.61</text>
<line x1="0" y1="126.0" x2="610" y2="126.0" stroke="#eee" stroke-width="1"/>
<text x="-8" y="130.0" text-anchor="end" font-size="10" fill="#666">3.23</text>
<line x1="0" y1="84.0" x2="610" y2="84.0" stroke="#eee" stroke-width="1"/>
<text x="-8" y="88.0" text-anchor="end" font-size="10" fill="#666">4.84</text>
<line x1="0" y1="42.0" x2="610" y2="42.0" stroke="#eee" stroke-width="1"/>
<text x="-8" y="46.0" text-anchor="end" font-size="10" fill="#666">6.46</text>
<line x1="0" y1="0.0" x2="610" y2="0.0" stroke="#eee" stroke-width="1"/>
<text x="-8" y="4.0" text-anchor="end" font-size="10" fill="#666">8.07</text>
<text x="-50" y="105.0" text-anchor="middle" font-size="11" fill="#333" transform="rotate(-90,-50,105.0)">Mean R² (×10⁻³)</text>
<line x1="305.0" y1="0" x2="305.0" y2="210" stroke="#ccc" stroke-width="1" stroke-dasharray="4,3"/>
<rect x="22.88" y="145.13" width="53.38" height="64.87" fill="#2E7D32" opacity="0.85"><title>Partner Identity — Biological: 2.494 ×10⁻³</title></rect>
<line x1="49.56" y1="153.94" x2="49.56" y2="139.06" stroke="#333" stroke-width="1"/>
<line x1="47.56" y1="153.94" x2="51.56" y2="153.94" stroke="#333" stroke-width="1"/>
<line x1="47.56" y1="139.06" x2="51.56" y2="139.06" stroke="#333" stroke-width="1"/>
<rect x="78.25" y="188.82" width="53.38" height="21.18" fill="#616161" opacity="0.85"><title>Control — Biological: 0.814 ×10⁻³</title></rect>
<line x1="104.94" y1="194.33" x2="104.94" y2="182.46" stroke="#333" stroke-width="1"/>
<line x1="102.94" y1="194.33" x2="106.94" y2="194.33" stroke="#333" stroke-width="1"/>
<line x1="102.94" y1="182.46" x2="106.94" y2="182.46" stroke="#333" stroke-width="1"/>
<text x="78.2" y="224" text-anchor="end" font-size="10" fill="#9E9E9E" transform="rotate(-30,78.2,224)">Biological</text>
<rect x="175.38" y="196.55" width="53.38" height="13.45" fill="#2E7D32" opacity="0.85"><title>Partner Identity — Shapes: 0.517 ×10⁻³</title></rect>
<line x1="202.06" y1="203.09" x2="202.06" y2="190.28" stroke="#333" stroke-width="1"/>
<line x1="200.06" y1="203.09" x2="204.06" y2="203.09" stroke="#333" stroke-width="1"/>
<line x1="200.06" y1="190.28" x2="204.06" y2="190.28" stroke="#333" stroke-width="1"/>
<rect x="230.75" y="201.02" width="53.38" height="8.98" fill="#616161" opacity="0.85"><title>Control — Shapes: 0.345 ×10⁻³</title></rect>
<line x1="257.44" y1="205.99" x2="257.44" y2="187.18" stroke="#333" stroke-width="1"/>
<line x1="255.44" y1="205.99" x2="259.44" y2="205.99" stroke="#333" stroke-width="1"/>
<line x1="255.44" y1="187.18" x2="259.44" y2="187.18" stroke="#333" stroke-width="1"/>
<text x="230.8" y="224" text-anchor="end" font-size="10" fill="#9E9E9E" transform="rotate(-30,230.8,224)">Shapes</text>
<rect x="327.88" y="74.68" width="53.38" height="135.32" fill="#2E7D32" opacity="0.85"><title>Partner Identity — Mental: 5.202 ×10⁻³</title></rect>
<line x1="354.56" y1="94.78" x2="354.56" y2="65.41" stroke="#333" stroke-width="1"/>
<line x1="352.56" y1="94.78" x2="356.56" y2="94.78" stroke="#333" stroke-width="1"/>
<line x1="352.56" y1="65.41" x2="356.56" y2="65.41" stroke="#333" stroke-width="1"/>
<rect x="383.25" y="184.38" width="53.38" height="25.62" fill="#616161" opacity="0.85"><title>Control — Mental: 0.985 ×10⁻³</title></rect>
<line x1="409.94" y1="191.65" x2="409.94" y2="176.68" stroke="#333" stroke-width="1"/>
<line x1="407.94" y1="191.65" x2="411.94" y2="191.65" stroke="#333" stroke-width="1"/>
<line x1="407.94" y1="176.68" x2="411.94" y2="176.68" stroke="#333" stroke-width="1"/>
<text x="383.2" y="224" text-anchor="end" font-size="10" fill="#2196F3" transform="rotate(-30,383.2,224)">Mental</text>
<rect x="480.38" y="173.58" width="53.38" height="36.42" fill="#2E7D32" opacity="0.85"><title>Partner Identity — Pragmatic: 1.400 ×10⁻³</title></rect>
<line x1="507.06" y1="185.75" x2="507.06" y2="165.19" stroke="#333" stroke-width="1"/>
<line x1="505.06" y1="185.75" x2="509.06" y2="185.75" stroke="#333" stroke-width="1"/>
<line x1="505.06" y1="165.19" x2="509.06" y2="165.19" stroke="#333" stroke-width="1"/>
<rect x="535.75" y="192.39" width="53.38" height="17.61" fill="#616161" opacity="0.85"><title>Control — Pragmatic: 0.677 ×10⁻³</title></rect>
<line x1="562.44" y1="199.52" x2="562.44" y2="184.21" stroke="#333" stroke-width="1"/>
<line x1="560.44" y1="199.52" x2="564.44" y2="199.52" stroke="#333" stroke-width="1"/>
<line x1="560.44" y1="184.21" x2="564.44" y2="184.21" stroke="#333" stroke-width="1"/>
<text x="535.8" y="224" text-anchor="end" font-size="10" fill="#FF9800" transform="rotate(-30,535.8,224)">Pragmatic</text>
<line x1="0" y1="210" x2="610" y2="210" stroke="#333"/>
<line x1="0" y1="0" x2="0" y2="210" stroke="#333"/>
</g>
<text x="222" y="322" text-anchor="middle" font-size="10" fill="#666" font-style="italic">Control Dimensions</text>
<text x="528" y="322" text-anchor="middle" font-size="10" fill="#666" font-style="italic">Category Averages</text>
<rect x="70" y="340" width="10" height="10" fill="#2E7D32"/>
<text x="84" y="348" font-size="9" fill="#333">Partner Identity</text>
<rect x="210" y="340" width="10" height="10" fill="#616161"/>
<text x="224" y="348" font-size="9" fill="#333">Control</text>
</svg>