<svg viewBox="0 0 800 320" xmlns="http://www.w3.org/2000/svg" style="width:100%;max-width:800px;height:auto;font-family:Arial,sans-serif;">
<rect width="800" height="320" fill="white"/>

<g transform="translate(70,30)">
<line x1="0" y1="180.0" x2="710" y2="180.0" stroke="#eee" stroke-width="1"/>
<text x="-8" y="184.0" text-anchor="end" font-size="10" fill="#666">0.00</text>
<line x1="0" y1="144.0" x2="710" y2="144.0" stroke="#eee" stroke-width="1"/>
<text x="-8" y="148.0" text-anchor="end" font-size="10" fill="#666">1.67</text>
<line x1="0" y1="108.0" x2="710" y2="108.0" stroke="#eee" stroke-width="1"/>
<text x="-8" y="112.0" text-anchor="end" font-size="10" fill="#666">3.34</text>
<line x1="0" y1="72.0" x2="710" y2="72.0" stroke="#eee" stroke-width="1"/>
<text x="-8" y="76.0" text-anchor="end" font-size="10" fill="#666">5.01</text>
<line x1="0" y1="36.0" x2="710" y2="36.0" stroke="#eee" stroke-width="1"/>
<text x="-8" y="40.0" text-anchor="end" font-size="10" fill="#666">6.67</text>
<line x1="0" y1="0.0" x2="710" y2="0.0" stroke="#eee" stroke-width="1"/>
<text x="-8" y="4.0" text-anchor="end" font-size="10" fill="#666">8.34</text>
<text x="-50" y="90.0" text-anchor="middle" font-size="11" fill="#333" transform="rotate(-90,-50,90.0)">Mean R² (×10⁻³)</text>
<rect x="17.75" y="159.12" width="41.42" height="20.88" fill="#2E7D32" opacity="0.85"><title>Partner Identity — Formality: 0.968 ×10⁻³</title></rect>
<line x1="38.46" y1="167.31" x2="38.46" y2="154.87" stroke="#333" stroke-width="1"/>
<line x1="36.46" y1="167.31" x2="40.46" y2="167.31" stroke="#333" stroke-width="1"/>
<line x1="36.46" y1="154.87" x2="40.46" y2="154.87" stroke="#333" stroke-width="1"/>
<rect x="61.17" y="175.53" width="41.42" height="4.47" fill="#616161" opacity="0.85"><title>Control — Formality: 0.207 ×10⁻³</title></rect>
<line x1="81.88" y1="177.15" x2="81.88" y2="173.65" stroke="#333" stroke-width="1"/>
<line x1="79.88" y1="177.15" x2="83.88" y2="177.15" stroke="#333" stroke-width="1"/>
<line x1="79.88" y1="173.65" x2="83.88" y2="173.65" stroke="#333" stroke-width="1"/>
<text x="61.2" y="194" text-anchor="end" font-size="10" fill="#FF9800" transform="rotate(-30,61.2,194)">Formality</text>
<rect x="136.08" y="141.15" width="41.42" height="38.85" fill="#2E7D32" opacity="0.85"><title>Partner Identity — Expertise: 1.801 ×10⁻³</title></rect>
<line x1="156.79" y1="149.89" x2="156.79" y2="133.10" stroke="#333" stroke-width="1"/>
<line x1="154.79" y1="149.89" x2="158.79" y2="149.89" stroke="#333" stroke-width="1"/>
<line x1="154.79" y1="133.10" x2="158.79" y2="133.10" stroke="#333" stroke-width="1"/>
<rect x="179.50" y="174.48" width="41.42" height="5.52" fill="#616161" opacity="0.85"><title>Control — Expertise: 0.256 ×10⁻³</title></rect>
<line x1="200.21" y1="175.19" x2="200.21" y2="173.77" stroke="#333" stroke-width="1"/>
<line x1="198.21" y1="175.19" x2="202.21" y2="175.19" stroke="#333" stroke-width="1"/>
<line x1="198.21" y1="173.77" x2="202.21" y2="173.77" stroke="#333" stroke-width="1"/>
<text x="179.5" y="194" text-anchor="end" font-size="10" fill="#FF9800" transform="rotate(-30,179.5,194)">Expertise</text>
<rect x="254.42" y="166.72" width="41.42" height="13.28" fill="#2E7D32" opacity="0.85"><title>Partner Identity — Helpfulness: 0.616 ×10⁻³</title></rect>
<line x1="275.12" y1="175.15" x2="275.12" y2="157.80" stroke="#333" stroke-width="1"/>
<line x1="273.12" y1="175.15" x2="277.12" y2="175.15" stroke="#333" stroke-width="1"/>
<line x1="273.12" y1="157.80" x2="277.12" y2="157.80" stroke="#333" stroke-width="1"/>
<rect x="297.83" y="176.22" width="41.42" height="3.78" fill="#616161" opacity="0.85"><title>Control — Helpfulness: 0.175 ×10⁻³</title></rect>
<line x1="318.54" y1="177.14" x2="318.54" y2="173.36" stroke="#333" stroke-width="1"/>
<line x1="316.54" y1="177.14" x2="320.54" y2="177.14" stroke="#333" stroke-width="1"/>
<line x1="316.54" y1="173.36" x2="320.54" y2="173.36" stroke="#333" stroke-width="1"/>
<text x="297.8" y="194" text-anchor="end" font-size="10" fill="#FF9800" transform="rotate(-30,297.8,194)">Helpfulness</text>
<line x1="355.0" y1="0" x2="355.0" y2="180" stroke="#ccc" stroke-width="1" stroke-dasharray="4,3"/>
<rect x="372.75" y="77.72" width="41.42" height="102.28" fill="#2E7D32" opacity="0.5"><title>Partner Identity — Human vs AI (general): 4.741 ×10⁻³</title></rect>
<line x1="393.46" y1="101.40" x2="393.46" y2="67.46" stroke="#333" stroke-width="1"/>
<line x1="391.46" y1="101.40" x2="395.46" y2="101.40" stroke="#333" stroke-width="1"/>
<line x1="391.46" y1="67.46" x2="395.46" y2="67.46" stroke="#333" stroke-width="1"/>
<rect x="416.17" y="176.17" width="41.42" height="3.83" fill="#616161" opacity="0.5"><title>Control — Human vs AI (general): 0.178 ×10⁻³</title></rect>
<line x1="436.88" y1="177.05" x2="436.88" y2="174.70" stroke="#333" stroke-width="1"/>
<line x1="434.88" y1="177.05" x2="438.88" y2="177.05" stroke="#333" stroke-width="1"/>
<line x1="434.88" y1="174.70" x2="438.88" y2="174.70" stroke="#333" stroke-width="1"/>
<text x="416.2" y="194" text-anchor="end" font-size="10" fill="#9E9E9E" transform="rotate(-30,416.2,194)">Human vs AI (general)</text>
<rect x="491.08" y="136.12" width="41.42" height="43.88" fill="#2E7D32" opacity="0.5"><title>Partner Identity — Biological: 2.034 ×10⁻³</title></rect>
<line x1="511.79" y1="142.63" x2="511.79" y2="131.53" stroke="#333" stroke-width="1"/>
<line x1="509.79" y1="142.63" x2="513.79" y2="142.63" stroke="#333" stroke-width="1"/>
<line x1="509.79" y1="131.53" x2="513.79" y2="131.53" stroke="#333" stroke-width="1"/>
<rect x="534.50" y="174.77" width="41.42" height="5.23" fill="#616161" opacity="0.5"><title>Control — Biological: 0.242 ×10⁻³</title></rect>
<line x1="555.21" y1="175.58" x2="555.21" y2="173.85" stroke="#333" stroke-width="1"/>
<line x1="553.21" y1="175.58" x2="557.21" y2="175.58" stroke="#333" stroke-width="1"/>
<line x1="553.21" y1="173.85" x2="557.21" y2="173.85" stroke="#333" stroke-width="1"/>
<text x="534.5" y="194" text-anchor="end" font-size="10" fill="#9E9E9E" transform="rotate(-30,534.5,194)">Biological</text>
<rect x="609.42" y="167.59" width="41.42" height="12.41" fill="#2E7D32" opacity="0.5"><title>Partner Identity — Shapes: 0.575 ×10⁻³</title></rect>
<line x1="630.12" y1="174.36" x2="630.12" y2="160.71" stroke="#333" stroke-width="1"/>
<line x1="628.12" y1="174.36" x2="632.12" y2="174.36" stroke="#333" stroke-width="1"/>
<line x1="628.12" y1="160.71" x2="632.12" y2="160.71" stroke="#333" stroke-width="1"/>
<rect x="652.83" y="175.05" width="41.42" height="4.95" fill="#616161" opacity="0.5"><title>Control — Shapes: 0.229 ×10⁻³</title></rect>
<line x1="673.54" y1="176.98" x2="673.54" y2="172.91" stroke="#333" stroke-width="1"/>
<line x1="671.54" y1="176.98" x2="675.54" y2="176.98" stroke="#333" stroke-width="1"/>
<line x1="671.54" y1="172.91" x2="675.54" y2="172.91" stroke="#333" stroke-width="1"/>
<text x="652.8" y="194" text-anchor="end" font-size="10" fill="#9E9E9E" transform="rotate(-30,652.8,194)">Shapes</text>
<line x1="0" y1="180" x2="710" y2="180" stroke="#333"/>
<line x1="0" y1="0" x2="0" y2="180" stroke="#333"/>
</g>
<rect x="70" y="300" width="10" height="10" fill="#2E7D32"/>
<text x="84" y="308" font-size="9" fill="#333">Partner Identity</text>
<rect x="210" y="300" width="10" height="10" fill="#616161"/>
<text x="224" y="308" font-size="9" fill="#333">Control</text>
</svg>