<svg viewBox="0 0 700 360" xmlns="http://www.w3.org/2000/svg" style="width:100%;max-width:700px;height:auto;font-family:Arial,sans-serif;">
<rect width="700" height="360" fill="white"/>

<g transform="translate(70,30)">
<line x1="0" y1="210.0" x2="610" y2="210.0" stroke="#eee" stroke-width="1"/>
<text x="-8" y="214.0" text-anchor="end" font-size="10" fill="#666">0.00</text>
<line x1="0" y1="168.0" x2="610" y2="168.0" stroke="#eee" stroke-width="1"/>
<text x="-8" y="172.0" text-anchor="end" font-size="10" fill="#666">1.67</text>
<line x1="0" y1="126.0" x2="610" y2="126.0" stroke="#eee" stroke-width="1"/>
<text x="-8" y="130.0" text-anchor="end" font-size="10" fill="#666">3.34</text>
<line x1="0" y1="84.0" x2="610" y2="84.0" stroke="#eee" stroke-width="1"/>
<text x="-8" y="88.0" text-anchor="end" font-size="10" fill="#666">5.01</text>
<line x1="0" y1="42.0" x2="610" y2="42.0" stroke="#eee" stroke-width="1"/>
<text x="-8" y="46.0" text-anchor="end" font-size="10" fill="#666">6.67</text>
<line x1="0" y1="0.0" x2="610" y2="0.0" stroke="#eee" stroke-width="1"/>
<text x="-8" y="4.0" text-anchor="end" font-size="10" fill="#666">8.34</text>
<text x="-50" y="105.0" text-anchor="middle" font-size="11" fill="#333" transform="rotate(-90,-50,105.0)">Mean R² (×10⁻³)</text>
<line x1="305.0" y1="0" x2="305.0" y2="210" stroke="#ccc" stroke-width="1" stroke-dasharray="4,3"/>
<rect x="15.25" y="195.25" width="35.58" height="14.75" fill="#81C784" opacity="0.85"><title>Partner Identity — Human vs AI (general): 0.586 ×10⁻³</title></rect>
<line x1="33.04" y1="199.95" x2="33.04" y2="191.26" stroke="#333" stroke-width="1"/>
<line x1="31.04" y1="199.95" x2="35.04" y2="199.95" stroke="#333" stroke-width="1"/>
<line x1="31.04" y1="191.26" x2="35.04" y2="191.26" stroke="#333" stroke-width="1"/>
<rect x="52.83" y="203.98" width="35.58" height="6.02" fill="#BDBDBD" opacity="0.85"><title>Control — Human vs AI (general): 0.239 ×10⁻³</title></rect>
<line x1="70.62" y1="205.08" x2="70.62" y2="202.71" stroke="#333" stroke-width="1"/>
<line x1="68.62" y1="205.08" x2="72.62" y2="205.08" stroke="#333" stroke-width="1"/>
<line x1="68.62" y1="202.71" x2="72.62" y2="202.71" stroke="#333" stroke-width="1"/>
<text x="52.8" y="224" text-anchor="end" font-size="10" fill="#9E9E9E" transform="rotate(-30,52.8,224)">Human vs AI (general)</text>
<rect x="116.92" y="205.17" width="35.58" height="4.83" fill="#81C784" opacity="0.85"><title>Partner Identity — Biological: 0.192 ×10⁻³</title></rect>
<line x1="134.71" y1="206.06" x2="134.71" y2="203.59" stroke="#333" stroke-width="1"/>
<line x1="132.71" y1="206.06" x2="136.71" y2="206.06" stroke="#333" stroke-width="1"/>
<line x1="132.71" y1="203.59" x2="136.71" y2="203.59" stroke="#333" stroke-width="1"/>
<rect x="154.50" y="203.64" width="35.58" height="6.36" fill="#BDBDBD" opacity="0.85"><title>Control — Biological: 0.253 ×10⁻³</title></rect>
<line x1="172.29" y1="204.31" x2="172.29" y2="203.05" stroke="#333" stroke-width="1"/>
<line x1="170.29" y1="204.31" x2="174.29" y2="204.31" stroke="#333" stroke-width="1"/>
<line x1="170.29" y1="203.05" x2="174.29" y2="203.05" stroke="#333" stroke-width="1"/>
<text x="154.5" y="224" text-anchor="end" font-size="10" fill="#9E9E9E" transform="rotate(-30,154.5,224)">Biological</text>
<rect x="218.58" y="193.94" width="35.58" height="16.06" fill="#81C784" opacity="0.85"><title>Partner Identity — Shapes: 0.638 ×10⁻³</title></rect>
<line x1="236.38" y1="201.94" x2="236.38" y2="188.30" stroke="#333" stroke-width="1"/>
<line x1="234.38" y1="201.94" x2="238.38" y2="201.94" stroke="#333" stroke-width="1"/>
<line x1="234.38" y1="188.30" x2="238.38" y2="188.30" stroke="#333" stroke-width="1"/>
<rect x="256.17" y="204.05" width="35.58" height="5.95" fill="#BDBDBD" opacity="0.85"><title>Control — Shapes: 0.236 ×10⁻³</title></rect>
<line x1="273.96" y1="205.65" x2="273.96" y2="202.86" stroke="#333" stroke-width="1"/>
<line x1="271.96" y1="205.65" x2="275.96" y2="205.65" stroke="#333" stroke-width="1"/>
<line x1="271.96" y1="202.86" x2="275.96" y2="202.86" stroke="#333" stroke-width="1"/>
<text x="256.2" y="224" text-anchor="end" font-size="10" fill="#9E9E9E" transform="rotate(-30,256.2,224)">Shapes</text>
<rect x="320.25" y="198.80" width="35.58" height="11.20" fill="#81C784" opacity="0.85"><title>Partner Identity — Mental: 0.445 ×10⁻³</title></rect>
<line x1="338.04" y1="202.81" x2="338.04" y2="192.72" stroke="#333" stroke-width="1"/>
<line x1="336.04" y1="202.81" x2="340.04" y2="202.81" stroke="#333" stroke-width="1"/>
<line x1="336.04" y1="192.72" x2="340.04" y2="192.72" stroke="#333" stroke-width="1"/>
<rect x="357.83" y="204.91" width="35.58" height="5.09" fill="#BDBDBD" opacity="0.85"><title>Control — Mental: 0.202 ×10⁻³</title></rect>
<line x1="375.62" y1="205.58" x2="375.62" y2="204.13" stroke="#333" stroke-width="1"/>
<line x1="373.62" y1="205.58" x2="377.62" y2="205.58" stroke="#333" stroke-width="1"/>
<line x1="373.62" y1="204.13" x2="377.62" y2="204.13" stroke="#333" stroke-width="1"/>
<text x="357.8" y="224" text-anchor="end" font-size="10" fill="#2196F3" transform="rotate(-30,357.8,224)">Mental</text>
<rect x="421.92" y="202.67" width="35.58" height="7.33" fill="#81C784" opacity="0.85"><title>Partner Identity — Physical: 0.291 ×10⁻³</title></rect>
<line x1="439.71" y1="204.64" x2="439.71" y2="199.87" stroke="#333" stroke-width="1"/>
<line x1="437.71" y1="204.64" x2="441.71" y2="204.64" stroke="#333" stroke-width="1"/>
<line x1="437.71" y1="199.87" x2="441.71" y2="199.87" stroke="#333" stroke-width="1"/>
<rect x="459.50" y="204.33" width="35.58" height="5.67" fill="#BDBDBD" opacity="0.85"><title>Control — Physical: 0.225 ×10⁻³</title></rect>
<line x1="477.29" y1="205.11" x2="477.29" y2="203.62" stroke="#333" stroke-width="1"/>
<line x1="475.29" y1="205.11" x2="479.29" y2="205.11" stroke="#333" stroke-width="1"/>
<line x1="475.29" y1="203.62" x2="479.29" y2="203.62" stroke="#333" stroke-width="1"/>
<text x="459.5" y="224" text-anchor="end" font-size="10" fill="#4CAF50" transform="rotate(-30,459.5,224)">Physical</text>
<rect x="523.58" y="196.53" width="35.58" height="13.47" fill="#81C784" opacity="0.85"><title>Partner Identity — Pragmatic: 0.535 ×10⁻³</title></rect>
<line x1="541.38" y1="202.77" x2="541.38" y2="192.65" stroke="#333" stroke-width="1"/>
<line x1="539.38" y1="202.77" x2="543.38" y2="202.77" stroke="#333" stroke-width="1"/>
<line x1="539.38" y1="192.65" x2="543.38" y2="192.65" stroke="#333" stroke-width="1"/>
<rect x="561.17" y="203.70" width="35.58" height="6.30" fill="#BDBDBD" opacity="0.85"><title>Control — Pragmatic: 0.250 ×10⁻³</title></rect>
<line x1="578.96" y1="205.21" x2="578.96" y2="202.80" stroke="#333" stroke-width="1"/>
<line x1="576.96" y1="205.21" x2="580.96" y2="205.21" stroke="#333" stroke-width="1"/>
<line x1="576.96" y1="202.80" x2="580.96" y2="202.80" stroke="#333" stroke-width="1"/>
<text x="561.2" y="224" text-anchor="end" font-size="10" fill="#FF9800" transform="rotate(-30,561.2,224)">Pragmatic</text>
<line x1="0" y1="210" x2="610" y2="210" stroke="#333"/>
<line x1="0" y1="0" x2="0" y2="210" stroke="#333"/>
</g>
<text x="222" y="322" text-anchor="middle" font-size="10" fill="#666" font-style="italic">Control Dimensions</text>
<text x="528" y="322" text-anchor="middle" font-size="10" fill="#666" font-style="italic">Category Averages</text>
<rect x="70" y="340" width="10" height="10" fill="#81C784"/>
<text x="84" y="348" font-size="9" fill="#333">Partner Identity</text>
<rect x="210" y="340" width="10" height="10" fill="#BDBDBD"/>
<text x="224" y="348" font-size="9" fill="#333">Control</text>
</svg>