<svg viewBox="0 0 800 340" xmlns="http://www.w3.org/2000/svg" style="width:100%;max-width:800px;height:auto;font-family:Arial,sans-serif;">
<rect width="800" height="340" fill="white"/>

<g transform="translate(70,30)">
<line x1="0" y1="190.0" x2="710" y2="190.0" stroke="#eee" stroke-width="1"/>
<text x="-8" y="194.0" text-anchor="end" font-size="10" fill="#666">0.00</text>
<line x1="0" y1="152.0" x2="710" y2="152.0" stroke="#eee" stroke-width="1"/>
<text x="-8" y="156.0" text-anchor="end" font-size="10" fill="#666">1.61</text>
<line x1="0" y1="114.0" x2="710" y2="114.0" stroke="#eee" stroke-width="1"/>
<text x="-8" y="118.0" text-anchor="end" font-size="10" fill="#666">3.23</text>
<line x1="0" y1="76.0" x2="710" y2="76.0" stroke="#eee" stroke-width="1"/>
<text x="-8" y="80.0" text-anchor="end" font-size="10" fill="#666">4.84</text>
<line x1="0" y1="38.0" x2="710" y2="38.0" stroke="#eee" stroke-width="1"/>
<text x="-8" y="42.0" text-anchor="end" font-size="10" fill="#666">6.46</text>
<line x1="0" y1="0.0" x2="710" y2="0.0" stroke="#eee" stroke-width="1"/>
<text x="-8" y="4.0" text-anchor="end" font-size="10" fill="#666">8.07</text>
<text x="-50" y="95.0" text-anchor="middle" font-size="11" fill="#333" transform="rotate(-90,-50,95.0)">Mean R² (×10⁻³)</text>
<line x1="118.33333333333333" y1="0" x2="118.33333333333333" y2="190" stroke="#ddd" stroke-width="1" stroke-dasharray="4,3"/>
<rect x="5.92" y="176.14" width="13.81" height="13.86" fill="#81C784" opacity="0.85"><title>Partner Identity: 0.589 ×10⁻³</title></rect>
<line x1="12.82" y1="179.39" x2="12.82" y2="173.36" stroke="#333" stroke-width="1"/>
<line x1="10.82" y1="179.39" x2="14.82" y2="179.39" stroke="#333" stroke-width="1"/>
<line x1="10.82" y1="173.36" x2="14.82" y2="173.36" stroke="#333" stroke-width="1"/>
<rect x="21.72" y="181.53" width="13.81" height="8.47" fill="#BDBDBD" opacity="0.85"><title>Control: 0.360 ×10⁻³</title></rect>
<line x1="28.62" y1="183.48" x2="28.62" y2="179.63" stroke="#333" stroke-width="1"/>
<line x1="26.62" y1="183.48" x2="30.62" y2="183.48" stroke="#333" stroke-width="1"/>
<line x1="26.62" y1="179.63" x2="30.62" y2="179.63" stroke="#333" stroke-width="1"/>
<text x="21.7" y="204" text-anchor="end" font-size="9" fill="#9E9E9E" transform="rotate(-45,21.7,204)">Human vs AI (general)</text>
<rect x="45.36" y="184.23" width="13.81" height="5.77" fill="#81C784" opacity="0.85"><title>Partner Identity: 0.245 ×10⁻³</title></rect>
<line x1="52.26" y1="185.62" x2="52.26" y2="182.22" stroke="#333" stroke-width="1"/>
<line x1="50.26" y1="185.62" x2="54.26" y2="185.62" stroke="#333" stroke-width="1"/>
<line x1="50.26" y1="182.22" x2="54.26" y2="182.22" stroke="#333" stroke-width="1"/>
<rect x="61.17" y="183.11" width="13.81" height="6.89" fill="#BDBDBD" opacity="0.85"><title>Control: 0.293 ×10⁻³</title></rect>
<line x1="68.07" y1="184.14" x2="68.07" y2="182.04" stroke="#333" stroke-width="1"/>
<line x1="66.07" y1="184.14" x2="70.07" y2="184.14" stroke="#333" stroke-width="1"/>
<line x1="66.07" y1="182.04" x2="70.07" y2="182.04" stroke="#333" stroke-width="1"/>
<text x="61.2" y="204" text-anchor="end" font-size="9" fill="#9E9E9E" transform="rotate(-45,61.2,204)">Biological</text>
<rect x="84.81" y="179.07" width="13.81" height="10.93" fill="#81C784" opacity="0.85"><title>Partner Identity: 0.464 ×10⁻³</title></rect>
<line x1="91.71" y1="183.23" x2="91.71" y2="174.38" stroke="#333" stroke-width="1"/>
<line x1="89.71" y1="183.23" x2="93.71" y2="183.23" stroke="#333" stroke-width="1"/>
<line x1="89.71" y1="174.38" x2="93.71" y2="174.38" stroke="#333" stroke-width="1"/>
<rect x="100.61" y="185.86" width="13.81" height="4.14" fill="#BDBDBD" opacity="0.85"><title>Control: 0.176 ×10⁻³</title></rect>
<line x1="107.51" y1="187.02" x2="107.51" y2="183.65" stroke="#333" stroke-width="1"/>
<line x1="105.51" y1="187.02" x2="109.51" y2="187.02" stroke="#333" stroke-width="1"/>
<line x1="105.51" y1="183.65" x2="109.51" y2="183.65" stroke="#333" stroke-width="1"/>
<text x="100.6" y="204" text-anchor="end" font-size="9" fill="#9E9E9E" transform="rotate(-45,100.6,204)">Shapes</text>
<rect x="124.25" y="184.21" width="13.81" height="5.79" fill="#81C784" opacity="0.85"><title>Partner Identity: 0.246 ×10⁻³</title></rect>
<line x1="131.15" y1="185.59" x2="131.15" y2="181.92" stroke="#333" stroke-width="1"/>
<line x1="129.15" y1="185.59" x2="133.15" y2="185.59" stroke="#333" stroke-width="1"/>
<line x1="129.15" y1="181.92" x2="133.15" y2="181.92" stroke="#333" stroke-width="1"/>
<rect x="140.06" y="182.89" width="13.81" height="7.11" fill="#BDBDBD" opacity="0.85"><title>Control: 0.302 ×10⁻³</title></rect>
<line x1="146.96" y1="184.32" x2="146.96" y2="181.14" stroke="#333" stroke-width="1"/>
<line x1="144.96" y1="184.32" x2="148.96" y2="184.32" stroke="#333" stroke-width="1"/>
<line x1="144.96" y1="181.14" x2="148.96" y2="181.14" stroke="#333" stroke-width="1"/>
<text x="140.1" y="204" text-anchor="end" font-size="9" fill="#2196F3" transform="rotate(-45,140.1,204)">Phenomenology</text>
<rect x="163.69" y="182.90" width="13.81" height="7.10" fill="#81C784" opacity="0.85"><title>Partner Identity: 0.302 ×10⁻³</title></rect>
<line x1="170.60" y1="185.13" x2="170.60" y2="179.75" stroke="#333" stroke-width="1"/>
<line x1="168.60" y1="185.13" x2="172.60" y2="185.13" stroke="#333" stroke-width="1"/>
<line x1="168.60" y1="179.75" x2="172.60" y2="179.75" stroke="#333" stroke-width="1"/>
<rect x="179.50" y="184.54" width="13.81" height="5.46" fill="#BDBDBD" opacity="0.85"><title>Control: 0.232 ×10⁻³</title></rect>
<line x1="186.40" y1="185.36" x2="186.40" y2="183.54" stroke="#333" stroke-width="1"/>
<line x1="184.40" y1="185.36" x2="188.40" y2="185.36" stroke="#333" stroke-width="1"/>
<line x1="184.40" y1="183.54" x2="188.40" y2="183.54" stroke="#333" stroke-width="1"/>
<text x="179.5" y="204" text-anchor="end" font-size="9" fill="#2196F3" transform="rotate(-45,179.5,204)">Emotions</text>
<rect x="203.14" y="183.08" width="13.81" height="6.92" fill="#81C784" opacity="0.85"><title>Partner Identity: 0.294 ×10⁻³</title></rect>
<line x1="210.04" y1="184.80" x2="210.04" y2="179.74" stroke="#333" stroke-width="1"/>
<line x1="208.04" y1="184.80" x2="212.04" y2="184.80" stroke="#333" stroke-width="1"/>
<line x1="208.04" y1="179.74" x2="212.04" y2="179.74" stroke="#333" stroke-width="1"/>
<rect x="218.94" y="183.60" width="13.81" height="6.40" fill="#BDBDBD" opacity="0.85"><title>Control: 0.272 ×10⁻³</title></rect>
<line x1="225.85" y1="184.97" x2="225.85" y2="181.98" stroke="#333" stroke-width="1"/>
<line x1="223.85" y1="184.97" x2="227.85" y2="184.97" stroke="#333" stroke-width="1"/>
<line x1="223.85" y1="181.98" x2="227.85" y2="181.98" stroke="#333" stroke-width="1"/>
<text x="218.9" y="204" text-anchor="end" font-size="9" fill="#2196F3" transform="rotate(-45,218.9,204)">Agency</text>
<rect x="242.58" y="179.71" width="13.81" height="10.29" fill="#81C784" opacity="0.85"><title>Partner Identity: 0.437 ×10⁻³</title></rect>
<line x1="249.49" y1="183.66" x2="249.49" y2="175.51" stroke="#333" stroke-width="1"/>
<line x1="247.49" y1="183.66" x2="251.49" y2="183.66" stroke="#333" stroke-width="1"/>
<line x1="247.49" y1="175.51" x2="251.49" y2="175.51" stroke="#333" stroke-width="1"/>
<rect x="258.39" y="180.73" width="13.81" height="9.27" fill="#BDBDBD" opacity="0.85"><title>Control: 0.394 ×10⁻³</title></rect>
<line x1="265.29" y1="182.56" x2="265.29" y2="179.25" stroke="#333" stroke-width="1"/>
<line x1="263.29" y1="182.56" x2="267.29" y2="182.56" stroke="#333" stroke-width="1"/>
<line x1="263.29" y1="179.25" x2="267.29" y2="179.25" stroke="#333" stroke-width="1"/>
<text x="258.4" y="204" text-anchor="end" font-size="9" fill="#2196F3" transform="rotate(-45,258.4,204)">Intentions</text>
<rect x="282.03" y="182.68" width="13.81" height="7.32" fill="#81C784" opacity="0.85"><title>Partner Identity: 0.311 ×10⁻³</title></rect>
<line x1="288.93" y1="184.88" x2="288.93" y2="176.91" stroke="#333" stroke-width="1"/>
<line x1="286.93" y1="184.88" x2="290.93" y2="184.88" stroke="#333" stroke-width="1"/>
<line x1="286.93" y1="176.91" x2="290.93" y2="176.91" stroke="#333" stroke-width="1"/>
<rect x="297.83" y="182.08" width="13.81" height="7.92" fill="#BDBDBD" opacity="0.85"><title>Control: 0.337 ×10⁻³</title></rect>
<line x1="304.74" y1="183.44" x2="304.74" y2="180.51" stroke="#333" stroke-width="1"/>
<line x1="302.74" y1="183.44" x2="306.74" y2="183.44" stroke="#333" stroke-width="1"/>
<line x1="302.74" y1="180.51" x2="306.74" y2="180.51" stroke="#333" stroke-width="1"/>
<text x="297.8" y="204" text-anchor="end" font-size="9" fill="#2196F3" transform="rotate(-45,297.8,204)">Prediction</text>
<rect x="321.47" y="179.77" width="13.81" height="10.23" fill="#81C784" opacity="0.85"><title>Partner Identity: 0.435 ×10⁻³</title></rect>
<line x1="328.38" y1="182.57" x2="328.38" y2="176.45" stroke="#333" stroke-width="1"/>
<line x1="326.38" y1="182.57" x2="330.38" y2="182.57" stroke="#333" stroke-width="1"/>
<line x1="326.38" y1="176.45" x2="330.38" y2="176.45" stroke="#333" stroke-width="1"/>
<rect x="337.28" y="181.65" width="13.81" height="8.35" fill="#BDBDBD" opacity="0.85"><title>Control: 0.355 ×10⁻³</title></rect>
<line x1="344.18" y1="183.06" x2="344.18" y2="180.77" stroke="#333" stroke-width="1"/>
<line x1="342.18" y1="183.06" x2="346.18" y2="183.06" stroke="#333" stroke-width="1"/>
<line x1="342.18" y1="180.77" x2="346.18" y2="180.77" stroke="#333" stroke-width="1"/>
<text x="337.3" y="204" text-anchor="end" font-size="9" fill="#2196F3" transform="rotate(-45,337.3,204)">Cognitive</text>
<rect x="360.92" y="178.17" width="13.81" height="11.83" fill="#81C784" opacity="0.85"><title>Partner Identity: 0.503 ×10⁻³</title></rect>
<line x1="367.82" y1="181.95" x2="367.82" y2="172.18" stroke="#333" stroke-width="1"/>
<line x1="365.82" y1="181.95" x2="369.82" y2="181.95" stroke="#333" stroke-width="1"/>
<line x1="365.82" y1="172.18" x2="369.82" y2="172.18" stroke="#333" stroke-width="1"/>
<rect x="376.72" y="182.99" width="13.81" height="7.01" fill="#BDBDBD" opacity="0.85"><title>Control: 0.298 ×10⁻³</title></rect>
<line x1="383.62" y1="184.15" x2="383.62" y2="181.74" stroke="#333" stroke-width="1"/>
<line x1="381.62" y1="184.15" x2="385.62" y2="184.15" stroke="#333" stroke-width="1"/>
<line x1="381.62" y1="181.74" x2="385.62" y2="181.74" stroke="#333" stroke-width="1"/>
<text x="376.7" y="204" text-anchor="end" font-size="9" fill="#2196F3" transform="rotate(-45,376.7,204)">Social</text>
<rect x="400.36" y="178.32" width="13.81" height="11.68" fill="#81C784" opacity="0.85"><title>Partner Identity: 0.496 ×10⁻³</title></rect>
<line x1="407.26" y1="181.97" x2="407.26" y2="174.69" stroke="#333" stroke-width="1"/>
<line x1="405.26" y1="181.97" x2="409.26" y2="181.97" stroke="#333" stroke-width="1"/>
<line x1="405.26" y1="174.69" x2="409.26" y2="174.69" stroke="#333" stroke-width="1"/>
<rect x="416.17" y="181.83" width="13.81" height="8.17" fill="#BDBDBD" opacity="0.85"><title>Control: 0.347 ×10⁻³</title></rect>
<line x1="423.07" y1="183.19" x2="423.07" y2="180.78" stroke="#333" stroke-width="1"/>
<line x1="421.07" y1="183.19" x2="425.07" y2="183.19" stroke="#333" stroke-width="1"/>
<line x1="421.07" y1="180.78" x2="425.07" y2="180.78" stroke="#333" stroke-width="1"/>
<text x="416.2" y="204" text-anchor="end" font-size="9" fill="#2196F3" transform="rotate(-45,416.2,204)">Attention</text>
<rect x="439.81" y="183.46" width="13.81" height="6.54" fill="#81C784" opacity="0.85"><title>Partner Identity: 0.278 ×10⁻³</title></rect>
<line x1="446.71" y1="185.35" x2="446.71" y2="180.99" stroke="#333" stroke-width="1"/>
<line x1="444.71" y1="185.35" x2="448.71" y2="185.35" stroke="#333" stroke-width="1"/>
<line x1="444.71" y1="180.99" x2="448.71" y2="180.99" stroke="#333" stroke-width="1"/>
<rect x="455.61" y="182.54" width="13.81" height="7.46" fill="#BDBDBD" opacity="0.85"><title>Control: 0.317 ×10⁻³</title></rect>
<line x1="462.51" y1="183.85" x2="462.51" y2="181.05" stroke="#333" stroke-width="1"/>
<line x1="460.51" y1="183.85" x2="464.51" y2="183.85" stroke="#333" stroke-width="1"/>
<line x1="460.51" y1="181.05" x2="464.51" y2="181.05" stroke="#333" stroke-width="1"/>
<text x="455.6" y="204" text-anchor="end" font-size="9" fill="#4CAF50" transform="rotate(-45,455.6,204)">Embodiment</text>
<rect x="479.25" y="183.59" width="13.81" height="6.41" fill="#81C784" opacity="0.85"><title>Partner Identity: 0.273 ×10⁻³</title></rect>
<line x1="486.15" y1="185.14" x2="486.15" y2="180.80" stroke="#333" stroke-width="1"/>
<line x1="484.15" y1="185.14" x2="488.15" y2="185.14" stroke="#333" stroke-width="1"/>
<line x1="484.15" y1="180.80" x2="488.15" y2="180.80" stroke="#333" stroke-width="1"/>
<rect x="495.06" y="182.86" width="13.81" height="7.14" fill="#BDBDBD" opacity="0.85"><title>Control: 0.304 ×10⁻³</title></rect>
<line x1="501.96" y1="184.55" x2="501.96" y2="180.46" stroke="#333" stroke-width="1"/>
<line x1="499.96" y1="184.55" x2="503.96" y2="184.55" stroke="#333" stroke-width="1"/>
<line x1="499.96" y1="180.46" x2="503.96" y2="180.46" stroke="#333" stroke-width="1"/>
<text x="495.1" y="204" text-anchor="end" font-size="9" fill="#4CAF50" transform="rotate(-45,495.1,204)">Roles</text>
<rect x="518.69" y="181.15" width="13.81" height="8.85" fill="#81C784" opacity="0.85"><title>Partner Identity: 0.376 ×10⁻³</title></rect>
<line x1="525.60" y1="183.69" x2="525.60" y2="178.22" stroke="#333" stroke-width="1"/>
<line x1="523.60" y1="183.69" x2="527.60" y2="183.69" stroke="#333" stroke-width="1"/>
<line x1="523.60" y1="178.22" x2="527.60" y2="178.22" stroke="#333" stroke-width="1"/>
<rect x="534.50" y="184.95" width="13.81" height="5.05" fill="#BDBDBD" opacity="0.85"><title>Control: 0.215 ×10⁻³</title></rect>
<line x1="541.40" y1="185.86" x2="541.40" y2="183.82" stroke="#333" stroke-width="1"/>
<line x1="539.40" y1="185.86" x2="543.40" y2="185.86" stroke="#333" stroke-width="1"/>
<line x1="539.40" y1="183.82" x2="543.40" y2="183.82" stroke="#333" stroke-width="1"/>
<text x="534.5" y="204" text-anchor="end" font-size="9" fill="#4CAF50" transform="rotate(-45,534.5,204)">Animacy</text>
<rect x="558.14" y="179.25" width="13.81" height="10.75" fill="#81C784" opacity="0.85"><title>Partner Identity: 0.457 ×10⁻³</title></rect>
<line x1="565.04" y1="183.44" x2="565.04" y2="176.52" stroke="#333" stroke-width="1"/>
<line x1="563.04" y1="183.44" x2="567.04" y2="183.44" stroke="#333" stroke-width="1"/>
<line x1="563.04" y1="176.52" x2="567.04" y2="176.52" stroke="#333" stroke-width="1"/>
<rect x="573.94" y="183.60" width="13.81" height="6.40" fill="#BDBDBD" opacity="0.85"><title>Control: 0.272 ×10⁻³</title></rect>
<line x1="580.85" y1="185.59" x2="580.85" y2="181.88" stroke="#333" stroke-width="1"/>
<line x1="578.85" y1="185.59" x2="582.85" y2="185.59" stroke="#333" stroke-width="1"/>
<line x1="578.85" y1="181.88" x2="582.85" y2="181.88" stroke="#333" stroke-width="1"/>
<text x="573.9" y="204" text-anchor="end" font-size="9" fill="#FF9800" transform="rotate(-45,573.9,204)">Formality</text>
<rect x="597.58" y="178.63" width="13.81" height="11.37" fill="#81C784" opacity="0.85"><title>Partner Identity: 0.483 ×10⁻³</title></rect>
<line x1="604.49" y1="180.93" x2="604.49" y2="176.00" stroke="#333" stroke-width="1"/>
<line x1="602.49" y1="180.93" x2="606.49" y2="180.93" stroke="#333" stroke-width="1"/>
<line x1="602.49" y1="176.00" x2="606.49" y2="176.00" stroke="#333" stroke-width="1"/>
<rect x="613.39" y="184.22" width="13.81" height="5.78" fill="#BDBDBD" opacity="0.85"><title>Control: 0.245 ×10⁻³</title></rect>
<line x1="620.29" y1="184.69" x2="620.29" y2="183.74" stroke="#333" stroke-width="1"/>
<line x1="618.29" y1="184.69" x2="622.29" y2="184.69" stroke="#333" stroke-width="1"/>
<line x1="618.29" y1="183.74" x2="622.29" y2="183.74" stroke="#333" stroke-width="1"/>
<text x="613.4" y="204" text-anchor="end" font-size="9" fill="#FF9800" transform="rotate(-45,613.4,204)">Expertise</text>
<rect x="637.03" y="180.61" width="13.81" height="9.39" fill="#81C784" opacity="0.85"><title>Partner Identity: 0.399 ×10⁻³</title></rect>
<line x1="643.93" y1="185.73" x2="643.93" y2="174.87" stroke="#333" stroke-width="1"/>
<line x1="641.93" y1="185.73" x2="645.93" y2="185.73" stroke="#333" stroke-width="1"/>
<line x1="641.93" y1="174.87" x2="645.93" y2="174.87" stroke="#333" stroke-width="1"/>
<rect x="652.83" y="184.43" width="13.81" height="5.57" fill="#BDBDBD" opacity="0.85"><title>Control: 0.237 ×10⁻³</title></rect>
<line x1="659.74" y1="186.14" x2="659.74" y2="182.58" stroke="#333" stroke-width="1"/>
<line x1="657.74" y1="186.14" x2="661.74" y2="186.14" stroke="#333" stroke-width="1"/>
<line x1="657.74" y1="182.58" x2="661.74" y2="182.58" stroke="#333" stroke-width="1"/>
<text x="652.8" y="204" text-anchor="end" font-size="9" fill="#FF9800" transform="rotate(-45,652.8,204)">Helpfulness</text>
<rect x="676.47" y="175.19" width="13.81" height="14.81" fill="#81C784" opacity="0.85"><title>Partner Identity: 0.629 ×10⁻³</title></rect>
<line x1="683.38" y1="178.56" x2="683.38" y2="169.83" stroke="#333" stroke-width="1"/>
<line x1="681.38" y1="178.56" x2="685.38" y2="178.56" stroke="#333" stroke-width="1"/>
<line x1="681.38" y1="169.83" x2="685.38" y2="169.83" stroke="#333" stroke-width="1"/>
<rect x="692.28" y="184.39" width="13.81" height="5.61" fill="#BDBDBD" opacity="0.85"><title>Control: 0.238 ×10⁻³</title></rect>
<line x1="699.18" y1="185.00" x2="699.18" y2="183.75" stroke="#333" stroke-width="1"/>
<line x1="697.18" y1="185.00" x2="701.18" y2="185.00" stroke="#333" stroke-width="1"/>
<line x1="697.18" y1="183.75" x2="701.18" y2="183.75" stroke="#333" stroke-width="1"/>
<text x="692.3" y="204" text-anchor="end" font-size="9" fill="#00BCD4" transform="rotate(-45,692.3,204)">SysPrompt</text>
<line x1="0" y1="190" x2="710" y2="190" stroke="#333"/>
<line x1="0" y1="0" x2="0" y2="190" stroke="#333"/>
</g>
<rect x="70" y="320" width="10" height="10" fill="#81C784"/>
<text x="84" y="328" font-size="9" fill="#333">Partner Identity</text>
<rect x="210" y="320" width="10" height="10" fill="#BDBDBD"/>
<text x="224" y="328" font-size="9" fill="#333">Control</text>
</svg>