<svg viewBox="0 0 800 320" xmlns="http://www.w3.org/2000/svg" style="width:100%;max-width:800px;height:auto;font-family:Arial,sans-serif;">
<rect width="800" height="320" fill="white"/>

<g transform="translate(70,30)">
<line x1="0" y1="180.0" x2="710" y2="180.0" stroke="#eee" stroke-width="1"/>
<text x="-8" y="184.0" text-anchor="end" font-size="10" fill="#666">0.00</text>
<line x1="0" y1="144.0" x2="710" y2="144.0" stroke="#eee" stroke-width="1"/>
<text x="-8" y="148.0" text-anchor="end" font-size="10" fill="#666">1.61</text>
<line x1="0" y1="108.0" x2="710" y2="108.0" stroke="#eee" stroke-width="1"/>
<text x="-8" y="112.0" text-anchor="end" font-size="10" fill="#666">3.23</text>
<line x1="0" y1="72.0" x2="710" y2="72.0" stroke="#eee" stroke-width="1"/>
<text x="-8" y="76.0" text-anchor="end" font-size="10" fill="#666">4.84</text>
<line x1="0" y1="36.0" x2="710" y2="36.0" stroke="#eee" stroke-width="1"/>
<text x="-8" y="40.0" text-anchor="end" font-size="10" fill="#666">6.46</text>
<line x1="0" y1="0.0" x2="710" y2="0.0" stroke="#eee" stroke-width="1"/>
<text x="-8" y="4.0" text-anchor="end" font-size="10" fill="#666">8.07</text>
<text x="-50" y="90.0" text-anchor="middle" font-size="11" fill="#333" transform="rotate(-90,-50,90.0)">Mean R² (×10⁻³)</text>
<rect x="17.75" y="88.42" width="41.42" height="91.58" fill="#2E7D32" opacity="0.85"><title>Partner Identity — Embodiment: 4.108 ×10⁻³</title></rect>
<line x1="38.46" y1="101.56" x2="38.46" y2="82.52" stroke="#333" stroke-width="1"/>
<line x1="36.46" y1="101.56" x2="40.46" y2="101.56" stroke="#333" stroke-width="1"/>
<line x1="36.46" y1="82.52" x2="40.46" y2="82.52" stroke="#333" stroke-width="1"/>
<rect x="61.17" y="156.09" width="41.42" height="23.91" fill="#616161" opacity="0.85"><title>Control — Embodiment: 1.073 ×10⁻³</title></rect>
<line x1="81.88" y1="163.05" x2="81.88" y2="148.04" stroke="#333" stroke-width="1"/>
<line x1="79.88" y1="163.05" x2="83.88" y2="163.05" stroke="#333" stroke-width="1"/>
<line x1="79.88" y1="148.04" x2="83.88" y2="148.04" stroke="#333" stroke-width="1"/>
<text x="61.2" y="194" text-anchor="end" font-size="10" fill="#4CAF50" transform="rotate(-30,61.2,194)">Embodiment</text>
<rect x="136.08" y="63.97" width="41.42" height="116.03" fill="#2E7D32" opacity="0.85"><title>Partner Identity — Roles: 5.204 ×10⁻³</title></rect>
<line x1="156.79" y1="85.03" x2="156.79" y2="52.41" stroke="#333" stroke-width="1"/>
<line x1="154.79" y1="85.03" x2="158.79" y2="85.03" stroke="#333" stroke-width="1"/>
<line x1="154.79" y1="52.41" x2="158.79" y2="52.41" stroke="#333" stroke-width="1"/>
<rect x="179.50" y="163.47" width="41.42" height="16.53" fill="#616161" opacity="0.85"><title>Control — Roles: 0.741 ×10⁻³</title></rect>
<line x1="200.21" y1="167.78" x2="200.21" y2="155.45" stroke="#333" stroke-width="1"/>
<line x1="198.21" y1="167.78" x2="202.21" y2="167.78" stroke="#333" stroke-width="1"/>
<line x1="198.21" y1="155.45" x2="202.21" y2="155.45" stroke="#333" stroke-width="1"/>
<text x="179.5" y="194" text-anchor="end" font-size="10" fill="#4CAF50" transform="rotate(-30,179.5,194)">Roles</text>
<rect x="254.42" y="100.53" width="41.42" height="79.47" fill="#2E7D32" opacity="0.85"><title>Partner Identity — Animacy: 3.565 ×10⁻³</title></rect>
<line x1="275.12" y1="117.10" x2="275.12" y2="90.97" stroke="#333" stroke-width="1"/>
<line x1="273.12" y1="117.10" x2="277.12" y2="117.10" stroke="#333" stroke-width="1"/>
<line x1="273.12" y1="90.97" x2="277.12" y2="90.97" stroke="#333" stroke-width="1"/>
<rect x="297.83" y="169.98" width="41.42" height="10.02" fill="#616161" opacity="0.85"><title>Control — Animacy: 0.449 ×10⁻³</title></rect>
<line x1="318.54" y1="171.47" x2="318.54" y2="167.46" stroke="#333" stroke-width="1"/>
<line x1="316.54" y1="171.47" x2="320.54" y2="171.47" stroke="#333" stroke-width="1"/>
<line x1="316.54" y1="167.46" x2="320.54" y2="167.46" stroke="#333" stroke-width="1"/>
<text x="297.8" y="194" text-anchor="end" font-size="10" fill="#4CAF50" transform="rotate(-30,297.8,194)">Animacy</text>
<line x1="355.0" y1="0" x2="355.0" y2="180" stroke="#ccc" stroke-width="1" stroke-dasharray="4,3"/>
<rect x="372.75" y="64.87" width="41.42" height="115.13" fill="#2E7D32" opacity="0.5"><title>Partner Identity — Human vs AI (general): 5.164 ×10⁻³</title></rect>
<line x1="393.46" y1="88.64" x2="393.46" y2="56.31" stroke="#333" stroke-width="1"/>
<line x1="391.46" y1="88.64" x2="395.46" y2="88.64" stroke="#333" stroke-width="1"/>
<line x1="391.46" y1="56.31" x2="395.46" y2="56.31" stroke="#333" stroke-width="1"/>
<rect x="416.17" y="164.78" width="41.42" height="15.22" fill="#616161" opacity="0.5"><title>Control — Human vs AI (general): 0.683 ×10⁻³</title></rect>
<line x1="436.88" y1="169.30" x2="436.88" y2="156.27" stroke="#333" stroke-width="1"/>
<line x1="434.88" y1="169.30" x2="438.88" y2="169.30" stroke="#333" stroke-width="1"/>
<line x1="434.88" y1="156.27" x2="438.88" y2="156.27" stroke="#333" stroke-width="1"/>
<text x="416.2" y="194" text-anchor="end" font-size="10" fill="#9E9E9E" transform="rotate(-30,416.2,194)">Human vs AI (general)</text>
<rect x="491.08" y="124.40" width="41.42" height="55.60" fill="#2E7D32" opacity="0.5"><title>Partner Identity — Biological: 2.494 ×10⁻³</title></rect>
<line x1="511.79" y1="131.95" x2="511.79" y2="119.19" stroke="#333" stroke-width="1"/>
<line x1="509.79" y1="131.95" x2="513.79" y2="131.95" stroke="#333" stroke-width="1"/>
<line x1="509.79" y1="119.19" x2="513.79" y2="119.19" stroke="#333" stroke-width="1"/>
<rect x="534.50" y="161.84" width="41.42" height="18.16" fill="#616161" opacity="0.5"><title>Control — Biological: 0.814 ×10⁻³</title></rect>
<line x1="555.21" y1="166.57" x2="555.21" y2="156.40" stroke="#333" stroke-width="1"/>
<line x1="553.21" y1="166.57" x2="557.21" y2="166.57" stroke="#333" stroke-width="1"/>
<line x1="553.21" y1="156.40" x2="557.21" y2="156.40" stroke="#333" stroke-width="1"/>
<text x="534.5" y="194" text-anchor="end" font-size="10" fill="#9E9E9E" transform="rotate(-30,534.5,194)">Biological</text>
<rect x="609.42" y="168.47" width="41.42" height="11.53" fill="#2E7D32" opacity="0.5"><title>Partner Identity — Shapes: 0.517 ×10⁻³</title></rect>
<line x1="630.12" y1="174.08" x2="630.12" y2="163.10" stroke="#333" stroke-width="1"/>
<line x1="628.12" y1="174.08" x2="632.12" y2="174.08" stroke="#333" stroke-width="1"/>
<line x1="628.12" y1="163.10" x2="632.12" y2="163.10" stroke="#333" stroke-width="1"/>
<rect x="652.83" y="172.30" width="41.42" height="7.70" fill="#616161" opacity="0.5"><title>Control — Shapes: 0.345 ×10⁻³</title></rect>
<line x1="673.54" y1="176.56" x2="673.54" y2="160.44" stroke="#333" stroke-width="1"/>
<line x1="671.54" y1="176.56" x2="675.54" y2="176.56" stroke="#333" stroke-width="1"/>
<line x1="671.54" y1="160.44" x2="675.54" y2="160.44" stroke="#333" stroke-width="1"/>
<text x="652.8" y="194" text-anchor="end" font-size="10" fill="#9E9E9E" transform="rotate(-30,652.8,194)">Shapes</text>
<line x1="0" y1="180" x2="710" y2="180" stroke="#333"/>
<line x1="0" y1="0" x2="0" y2="180" stroke="#333"/>
</g>
<rect x="70" y="300" width="10" height="10" fill="#2E7D32"/>
<text x="84" y="308" font-size="9" fill="#333">Partner Identity</text>
<rect x="210" y="300" width="10" height="10" fill="#616161"/>
<text x="224" y="308" font-size="9" fill="#333">Control</text>
</svg>