<svg viewBox="0 0 800 320" xmlns="http://www.w3.org/2000/svg" style="width:100%;max-width:800px;height:auto;font-family:Arial,sans-serif;">
<rect width="800" height="320" fill="white"/>

<g transform="translate(70,30)">
<line x1="0" y1="180.0" x2="710" y2="180.0" stroke="#eee" stroke-width="1"/>
<text x="-8" y="184.0" text-anchor="end" font-size="10" fill="#666">0.00</text>
<line x1="0" y1="144.0" x2="710" y2="144.0" stroke="#eee" stroke-width="1"/>
<text x="-8" y="148.0" text-anchor="end" font-size="10" fill="#666">1.61</text>
<line x1="0" y1="108.0" x2="710" y2="108.0" stroke="#eee" stroke-width="1"/>
<text x="-8" y="112.0" text-anchor="end" font-size="10" fill="#666">3.23</text>
<line x1="0" y1="72.0" x2="710" y2="72.0" stroke="#eee" stroke-width="1"/>
<text x="-8" y="76.0" text-anchor="end" font-size="10" fill="#666">4.84</text>
<line x1="0" y1="36.0" x2="710" y2="36.0" stroke="#eee" stroke-width="1"/>
<text x="-8" y="40.0" text-anchor="end" font-size="10" fill="#666">6.46</text>
<line x1="0" y1="0.0" x2="710" y2="0.0" stroke="#eee" stroke-width="1"/>
<text x="-8" y="4.0" text-anchor="end" font-size="10" fill="#666">8.07</text>
<text x="-50" y="90.0" text-anchor="middle" font-size="11" fill="#333" transform="rotate(-90,-50,90.0)">Mean R² (×10⁻³)</text>
<rect x="17.75" y="151.46" width="41.42" height="28.54" fill="#2E7D32" opacity="0.85"><title>Partner Identity — Formality: 1.280 ×10⁻³</title></rect>
<line x1="38.46" y1="165.19" x2="38.46" y2="144.62" stroke="#333" stroke-width="1"/>
<line x1="36.46" y1="165.19" x2="40.46" y2="165.19" stroke="#333" stroke-width="1"/>
<line x1="36.46" y1="144.62" x2="40.46" y2="144.62" stroke="#333" stroke-width="1"/>
<rect x="61.17" y="168.69" width="41.42" height="11.31" fill="#616161" opacity="0.85"><title>Control — Formality: 0.507 ×10⁻³</title></rect>
<line x1="81.88" y1="176.18" x2="81.88" y2="160.40" stroke="#333" stroke-width="1"/>
<line x1="79.88" y1="176.18" x2="83.88" y2="176.18" stroke="#333" stroke-width="1"/>
<line x1="79.88" y1="160.40" x2="83.88" y2="160.40" stroke="#333" stroke-width="1"/>
<text x="61.2" y="194" text-anchor="end" font-size="10" fill="#FF9800" transform="rotate(-30,61.2,194)">Formality</text>
<rect x="136.08" y="127.58" width="41.42" height="52.42" fill="#2E7D32" opacity="0.85"><title>Partner Identity — Expertise: 2.351 ×10⁻³</title></rect>
<line x1="156.79" y1="137.77" x2="156.79" y2="119.74" stroke="#333" stroke-width="1"/>
<line x1="154.79" y1="137.77" x2="158.79" y2="137.77" stroke="#333" stroke-width="1"/>
<line x1="154.79" y1="119.74" x2="158.79" y2="119.74" stroke="#333" stroke-width="1"/>
<rect x="179.50" y="159.02" width="41.42" height="20.98" fill="#616161" opacity="0.85"><title>Control — Expertise: 0.941 ×10⁻³</title></rect>
<line x1="200.21" y1="163.01" x2="200.21" y2="156.08" stroke="#333" stroke-width="1"/>
<line x1="198.21" y1="163.01" x2="202.21" y2="163.01" stroke="#333" stroke-width="1"/>
<line x1="198.21" y1="156.08" x2="202.21" y2="156.08" stroke="#333" stroke-width="1"/>
<text x="179.5" y="194" text-anchor="end" font-size="10" fill="#FF9800" transform="rotate(-30,179.5,194)">Expertise</text>
<rect x="254.42" y="167.30" width="41.42" height="12.70" fill="#2E7D32" opacity="0.85"><title>Partner Identity — Helpfulness: 0.570 ×10⁻³</title></rect>
<line x1="275.12" y1="174.68" x2="275.12" y2="160.42" stroke="#333" stroke-width="1"/>
<line x1="273.12" y1="174.68" x2="277.12" y2="174.68" stroke="#333" stroke-width="1"/>
<line x1="273.12" y1="160.42" x2="277.12" y2="160.42" stroke="#333" stroke-width="1"/>
<rect x="297.83" y="167.02" width="41.42" height="12.98" fill="#616161" opacity="0.85"><title>Control — Helpfulness: 0.582 ×10⁻³</title></rect>
<line x1="318.54" y1="173.87" x2="318.54" y2="157.21" stroke="#333" stroke-width="1"/>
<line x1="316.54" y1="173.87" x2="320.54" y2="173.87" stroke="#333" stroke-width="1"/>
<line x1="316.54" y1="157.21" x2="320.54" y2="157.21" stroke="#333" stroke-width="1"/>
<text x="297.8" y="194" text-anchor="end" font-size="10" fill="#FF9800" transform="rotate(-30,297.8,194)">Helpfulness</text>
<line x1="355.0" y1="0" x2="355.0" y2="180" stroke="#ccc" stroke-width="1" stroke-dasharray="4,3"/>
<rect x="372.75" y="64.87" width="41.42" height="115.13" fill="#2E7D32" opacity="0.5"><title>Partner Identity — Human vs AI (general): 5.164 ×10⁻³</title></rect>
<line x1="393.46" y1="88.64" x2="393.46" y2="56.31" stroke="#333" stroke-width="1"/>
<line x1="391.46" y1="88.64" x2="395.46" y2="88.64" stroke="#333" stroke-width="1"/>
<line x1="391.46" y1="56.31" x2="395.46" y2="56.31" stroke="#333" stroke-width="1"/>
<rect x="416.17" y="164.78" width="41.42" height="15.22" fill="#616161" opacity="0.5"><title>Control — Human vs AI (general): 0.683 ×10⁻³</title></rect>
<line x1="436.88" y1="169.30" x2="436.88" y2="156.27" stroke="#333" stroke-width="1"/>
<line x1="434.88" y1="169.30" x2="438.88" y2="169.30" stroke="#333" stroke-width="1"/>
<line x1="434.88" y1="156.27" x2="438.88" y2="156.27" stroke="#333" stroke-width="1"/>
<text x="416.2" y="194" text-anchor="end" font-size="10" fill="#9E9E9E" transform="rotate(-30,416.2,194)">Human vs AI (general)</text>
<rect x="491.08" y="124.40" width="41.42" height="55.60" fill="#2E7D32" opacity="0.5"><title>Partner Identity — Biological: 2.494 ×10⁻³</title></rect>
<line x1="511.79" y1="131.95" x2="511.79" y2="119.19" stroke="#333" stroke-width="1"/>
<line x1="509.79" y1="131.95" x2="513.79" y2="131.95" stroke="#333" stroke-width="1"/>
<line x1="509.79" y1="119.19" x2="513.79" y2="119.19" stroke="#333" stroke-width="1"/>
<rect x="534.50" y="161.84" width="41.42" height="18.16" fill="#616161" opacity="0.5"><title>Control — Biological: 0.814 ×10⁻³</title></rect>
<line x1="555.21" y1="166.57" x2="555.21" y2="156.40" stroke="#333" stroke-width="1"/>
<line x1="553.21" y1="166.57" x2="557.21" y2="166.57" stroke="#333" stroke-width="1"/>
<line x1="553.21" y1="156.40" x2="557.21" y2="156.40" stroke="#333" stroke-width="1"/>
<text x="534.5" y="194" text-anchor="end" font-size="10" fill="#9E9E9E" transform="rotate(-30,534.5,194)">Biological</text>
<rect x="609.42" y="168.47" width="41.42" height="11.53" fill="#2E7D32" opacity="0.5"><title>Partner Identity — Shapes: 0.517 ×10⁻³</title></rect>
<line x1="630.12" y1="174.08" x2="630.12" y2="163.10" stroke="#333" stroke-width="1"/>
<line x1="628.12" y1="174.08" x2="632.12" y2="174.08" stroke="#333" stroke-width="1"/>
<line x1="628.12" y1="163.10" x2="632.12" y2="163.10" stroke="#333" stroke-width="1"/>
<rect x="652.83" y="172.30" width="41.42" height="7.70" fill="#616161" opacity="0.5"><title>Control — Shapes: 0.345 ×10⁻³</title></rect>
<line x1="673.54" y1="176.56" x2="673.54" y2="160.44" stroke="#333" stroke-width="1"/>
<line x1="671.54" y1="176.56" x2="675.54" y2="176.56" stroke="#333" stroke-width="1"/>
<line x1="671.54" y1="160.44" x2="675.54" y2="160.44" stroke="#333" stroke-width="1"/>
<text x="652.8" y="194" text-anchor="end" font-size="10" fill="#9E9E9E" transform="rotate(-30,652.8,194)">Shapes</text>
<line x1="0" y1="180" x2="710" y2="180" stroke="#333"/>
<line x1="0" y1="0" x2="0" y2="180" stroke="#333"/>
</g>
<rect x="70" y="300" width="10" height="10" fill="#2E7D32"/>
<text x="84" y="308" font-size="9" fill="#333">Partner Identity</text>
<rect x="210" y="300" width="10" height="10" fill="#616161"/>
<text x="224" y="308" font-size="9" fill="#333">Control</text>
</svg>