<svg viewBox="0 0 800 320" xmlns="http://www.w3.org/2000/svg" style="width:100%;max-width:800px;height:auto;font-family:Arial,sans-serif;">
<rect width="800" height="320" fill="white"/>

<g transform="translate(70,30)">
<line x1="0" y1="180.0" x2="710" y2="180.0" stroke="#eee" stroke-width="1"/>
<text x="-8" y="184.0" text-anchor="end" font-size="10" fill="#666">0.00</text>
<line x1="0" y1="144.0" x2="710" y2="144.0" stroke="#eee" stroke-width="1"/>
<text x="-8" y="148.0" text-anchor="end" font-size="10" fill="#666">1.61</text>
<line x1="0" y1="108.0" x2="710" y2="108.0" stroke="#eee" stroke-width="1"/>
<text x="-8" y="112.0" text-anchor="end" font-size="10" fill="#666">3.23</text>
<line x1="0" y1="72.0" x2="710" y2="72.0" stroke="#eee" stroke-width="1"/>
<text x="-8" y="76.0" text-anchor="end" font-size="10" fill="#666">4.84</text>
<line x1="0" y1="36.0" x2="710" y2="36.0" stroke="#eee" stroke-width="1"/>
<text x="-8" y="40.0" text-anchor="end" font-size="10" fill="#666">6.46</text>
<line x1="0" y1="0.0" x2="710" y2="0.0" stroke="#eee" stroke-width="1"/>
<text x="-8" y="4.0" text-anchor="end" font-size="10" fill="#666">8.07</text>
<text x="-50" y="90.0" text-anchor="middle" font-size="11" fill="#333" transform="rotate(-90,-50,90.0)">Mean R² (×10⁻³)</text>
<rect x="17.75" y="169.82" width="41.42" height="10.18" fill="#81C784" opacity="0.85"><title>Partner Identity — Formality: 0.457 ×10⁻³</title></rect>
<line x1="38.46" y1="173.79" x2="38.46" y2="167.23" stroke="#333" stroke-width="1"/>
<line x1="36.46" y1="173.79" x2="40.46" y2="173.79" stroke="#333" stroke-width="1"/>
<line x1="36.46" y1="167.23" x2="40.46" y2="167.23" stroke="#333" stroke-width="1"/>
<rect x="61.17" y="173.94" width="41.42" height="6.06" fill="#BDBDBD" opacity="0.85"><title>Control — Formality: 0.272 ×10⁻³</title></rect>
<line x1="81.88" y1="175.83" x2="81.88" y2="172.31" stroke="#333" stroke-width="1"/>
<line x1="79.88" y1="175.83" x2="83.88" y2="175.83" stroke="#333" stroke-width="1"/>
<line x1="79.88" y1="172.31" x2="83.88" y2="172.31" stroke="#333" stroke-width="1"/>
<text x="61.2" y="194" text-anchor="end" font-size="10" fill="#FF9800" transform="rotate(-30,61.2,194)">Formality</text>
<rect x="136.08" y="169.22" width="41.42" height="10.78" fill="#81C784" opacity="0.85"><title>Partner Identity — Expertise: 0.483 ×10⁻³</title></rect>
<line x1="156.79" y1="171.41" x2="156.79" y2="166.74" stroke="#333" stroke-width="1"/>
<line x1="154.79" y1="171.41" x2="158.79" y2="171.41" stroke="#333" stroke-width="1"/>
<line x1="154.79" y1="166.74" x2="158.79" y2="166.74" stroke="#333" stroke-width="1"/>
<rect x="179.50" y="174.53" width="41.42" height="5.47" fill="#BDBDBD" opacity="0.85"><title>Control — Expertise: 0.245 ×10⁻³</title></rect>
<line x1="200.21" y1="174.97" x2="200.21" y2="174.07" stroke="#333" stroke-width="1"/>
<line x1="198.21" y1="174.97" x2="202.21" y2="174.97" stroke="#333" stroke-width="1"/>
<line x1="198.21" y1="174.07" x2="202.21" y2="174.07" stroke="#333" stroke-width="1"/>
<text x="179.5" y="194" text-anchor="end" font-size="10" fill="#FF9800" transform="rotate(-30,179.5,194)">Expertise</text>
<rect x="254.42" y="171.10" width="41.42" height="8.90" fill="#81C784" opacity="0.85"><title>Partner Identity — Helpfulness: 0.399 ×10⁻³</title></rect>
<line x1="275.12" y1="175.95" x2="275.12" y2="165.67" stroke="#333" stroke-width="1"/>
<line x1="273.12" y1="175.95" x2="277.12" y2="175.95" stroke="#333" stroke-width="1"/>
<line x1="273.12" y1="165.67" x2="277.12" y2="165.67" stroke="#333" stroke-width="1"/>
<rect x="297.83" y="174.73" width="41.42" height="5.27" fill="#BDBDBD" opacity="0.85"><title>Control — Helpfulness: 0.237 ×10⁻³</title></rect>
<line x1="318.54" y1="176.34" x2="318.54" y2="172.97" stroke="#333" stroke-width="1"/>
<line x1="316.54" y1="176.34" x2="320.54" y2="176.34" stroke="#333" stroke-width="1"/>
<line x1="316.54" y1="172.97" x2="320.54" y2="172.97" stroke="#333" stroke-width="1"/>
<text x="297.8" y="194" text-anchor="end" font-size="10" fill="#FF9800" transform="rotate(-30,297.8,194)">Helpfulness</text>
<line x1="355.0" y1="0" x2="355.0" y2="180" stroke="#ccc" stroke-width="1" stroke-dasharray="4,3"/>
<rect x="372.75" y="166.87" width="41.42" height="13.13" fill="#81C784" opacity="0.5"><title>Partner Identity — Human vs AI (general): 0.589 ×10⁻³</title></rect>
<line x1="393.46" y1="169.95" x2="393.46" y2="164.23" stroke="#333" stroke-width="1"/>
<line x1="391.46" y1="169.95" x2="395.46" y2="169.95" stroke="#333" stroke-width="1"/>
<line x1="391.46" y1="164.23" x2="395.46" y2="164.23" stroke="#333" stroke-width="1"/>
<rect x="416.17" y="171.97" width="41.42" height="8.03" fill="#BDBDBD" opacity="0.5"><title>Control — Human vs AI (general): 0.360 ×10⁻³</title></rect>
<line x1="436.88" y1="173.83" x2="436.88" y2="170.18" stroke="#333" stroke-width="1"/>
<line x1="434.88" y1="173.83" x2="438.88" y2="173.83" stroke="#333" stroke-width="1"/>
<line x1="434.88" y1="170.18" x2="438.88" y2="170.18" stroke="#333" stroke-width="1"/>
<text x="416.2" y="194" text-anchor="end" font-size="10" fill="#9E9E9E" transform="rotate(-30,416.2,194)">Human vs AI (general)</text>
<rect x="491.08" y="174.53" width="41.42" height="5.47" fill="#81C784" opacity="0.5"><title>Partner Identity — Biological: 0.245 ×10⁻³</title></rect>
<line x1="511.79" y1="175.85" x2="511.79" y2="172.63" stroke="#333" stroke-width="1"/>
<line x1="509.79" y1="175.85" x2="513.79" y2="175.85" stroke="#333" stroke-width="1"/>
<line x1="509.79" y1="172.63" x2="513.79" y2="172.63" stroke="#333" stroke-width="1"/>
<rect x="534.50" y="173.48" width="41.42" height="6.52" fill="#BDBDBD" opacity="0.5"><title>Control — Biological: 0.293 ×10⁻³</title></rect>
<line x1="555.21" y1="174.45" x2="555.21" y2="172.46" stroke="#333" stroke-width="1"/>
<line x1="553.21" y1="174.45" x2="557.21" y2="174.45" stroke="#333" stroke-width="1"/>
<line x1="553.21" y1="172.46" x2="557.21" y2="172.46" stroke="#333" stroke-width="1"/>
<text x="534.5" y="194" text-anchor="end" font-size="10" fill="#9E9E9E" transform="rotate(-30,534.5,194)">Biological</text>
<rect x="609.42" y="169.65" width="41.42" height="10.35" fill="#81C784" opacity="0.5"><title>Partner Identity — Shapes: 0.464 ×10⁻³</title></rect>
<line x1="630.12" y1="173.59" x2="630.12" y2="165.20" stroke="#333" stroke-width="1"/>
<line x1="628.12" y1="173.59" x2="632.12" y2="173.59" stroke="#333" stroke-width="1"/>
<line x1="628.12" y1="165.20" x2="632.12" y2="165.20" stroke="#333" stroke-width="1"/>
<rect x="652.83" y="176.07" width="41.42" height="3.93" fill="#BDBDBD" opacity="0.5"><title>Control — Shapes: 0.176 ×10⁻³</title></rect>
<line x1="673.54" y1="177.17" x2="673.54" y2="173.99" stroke="#333" stroke-width="1"/>
<line x1="671.54" y1="177.17" x2="675.54" y2="177.17" stroke="#333" stroke-width="1"/>
<line x1="671.54" y1="173.99" x2="675.54" y2="173.99" stroke="#333" stroke-width="1"/>
<text x="652.8" y="194" text-anchor="end" font-size="10" fill="#9E9E9E" transform="rotate(-30,652.8,194)">Shapes</text>
<line x1="0" y1="180" x2="710" y2="180" stroke="#333"/>
<line x1="0" y1="0" x2="0" y2="180" stroke="#333"/>
</g>
<rect x="70" y="300" width="10" height="10" fill="#81C784"/>
<text x="84" y="308" font-size="9" fill="#333">Partner Identity</text>
<rect x="210" y="300" width="10" height="10" fill="#BDBDBD"/>
<text x="224" y="308" font-size="9" fill="#333">Control</text>
</svg>