<svg viewBox="0 0 1100 360" xmlns="http://www.w3.org/2000/svg" style="width:100%;max-width:1100px;height:auto;font-family:Arial,sans-serif;">
<rect width="1100" height="360" fill="white"/>
<g transform="translate(70,30)">
<line x1="0" y1="200.0" x2="1010" y2="200.0" stroke="#eee" stroke-width="1"/>
<text x="-8" y="204.0" text-anchor="end" font-size="10" fill="#666">0.00</text>
<line x1="0" y1="160.0" x2="1010" y2="160.0" stroke="#eee" stroke-width="1"/>
<text x="-8" y="164.0" text-anchor="end" font-size="10" fill="#666">0.81</text>
<line x1="0" y1="120.0" x2="1010" y2="120.0" stroke="#eee" stroke-width="1"/>
<text x="-8" y="124.0" text-anchor="end" font-size="10" fill="#666">1.61</text>
<line x1="0" y1="80.0" x2="1010" y2="80.0" stroke="#eee" stroke-width="1"/>
<text x="-8" y="84.0" text-anchor="end" font-size="10" fill="#666">2.42</text>
<line x1="0" y1="40.0" x2="1010" y2="40.0" stroke="#eee" stroke-width="1"/>
<text x="-8" y="44.0" text-anchor="end" font-size="10" fill="#666">3.23</text>
<line x1="0" y1="0.0" x2="1010" y2="0.0" stroke="#eee" stroke-width="1"/>
<text x="-8" y="4.0" text-anchor="end" font-size="10" fill="#666">4.04</text>
<text x="-50" y="100.0" text-anchor="middle" font-size="11" fill="#333" transform="rotate(-90,-50,100.0)">Mean R² (×10⁻³)</text>
<rect x="4.59" y="60.90" width="18.36" height="139.10" fill="#2E7D32" opacity="0.85"><title>Partner Identity: 0.002807</title></rect>
<line x1="13.77" y1="63.45" x2="13.77" y2="58.12" stroke="#333" stroke-width="1"/>
<line x1="11.77" y1="63.45" x2="15.77" y2="63.45" stroke="#333" stroke-width="1"/>
<line x1="11.77" y1="58.12" x2="15.77" y2="58.12" stroke="#333" stroke-width="1"/>
<rect x="22.95" y="193.11" width="18.36" height="6.89" fill="#616161" opacity="0.85"><title>Control: 0.000139</title></rect>
<line x1="32.14" y1="193.32" x2="32.14" y2="192.89" stroke="#333" stroke-width="1"/>
<line x1="30.14" y1="193.32" x2="34.14" y2="193.32" stroke="#333" stroke-width="1"/>
<line x1="30.14" y1="192.89" x2="34.14" y2="192.89" stroke="#333" stroke-width="1"/>
<text x="22.95" y="214" text-anchor="end" font-size="9" fill="#2196F3" transform="rotate(-45,22.95,214)">Phenomenology</text>
<rect x="50.50" y="67.68" width="18.36" height="132.32" fill="#2E7D32" opacity="0.85"><title>Partner Identity: 0.002670</title></rect>
<line x1="59.68" y1="70.26" x2="59.68" y2="65.53" stroke="#333" stroke-width="1"/>
<line x1="57.68" y1="70.26" x2="61.68" y2="70.26" stroke="#333" stroke-width="1"/>
<line x1="57.68" y1="65.53" x2="61.68" y2="65.53" stroke="#333" stroke-width="1"/>
<rect x="68.86" y="193.01" width="18.36" height="6.99" fill="#616161" opacity="0.85"><title>Control: 0.000141</title></rect>
<line x1="78.05" y1="193.18" x2="78.05" y2="192.82" stroke="#333" stroke-width="1"/>
<line x1="76.05" y1="193.18" x2="80.05" y2="193.18" stroke="#333" stroke-width="1"/>
<line x1="76.05" y1="192.82" x2="80.05" y2="192.82" stroke="#333" stroke-width="1"/>
<text x="68.86" y="214" text-anchor="end" font-size="9" fill="#2196F3" transform="rotate(-45,68.86,214)">Emotions</text>
<rect x="96.41" y="69.46" width="18.36" height="130.54" fill="#2E7D32" opacity="0.85"><title>Partner Identity: 0.002634</title></rect>
<line x1="105.59" y1="72.70" x2="105.59" y2="66.58" stroke="#333" stroke-width="1"/>
<line x1="103.59" y1="72.70" x2="107.59" y2="72.70" stroke="#333" stroke-width="1"/>
<line x1="103.59" y1="66.58" x2="107.59" y2="66.58" stroke="#333" stroke-width="1"/>
<rect x="114.77" y="192.36" width="18.36" height="7.64" fill="#616161" opacity="0.85"><title>Control: 0.000154</title></rect>
<line x1="123.95" y1="192.63" x2="123.95" y2="192.08" stroke="#333" stroke-width="1"/>
<line x1="121.95" y1="192.63" x2="125.95" y2="192.63" stroke="#333" stroke-width="1"/>
<line x1="121.95" y1="192.08" x2="125.95" y2="192.08" stroke="#333" stroke-width="1"/>
<text x="114.77" y="214" text-anchor="end" font-size="9" fill="#2196F3" transform="rotate(-45,114.77,214)">Agency</text>
<rect x="142.32" y="72.52" width="18.36" height="127.48" fill="#2E7D32" opacity="0.85"><title>Partner Identity: 0.002572</title></rect>
<line x1="151.50" y1="75.92" x2="151.50" y2="69.88" stroke="#333" stroke-width="1"/>
<line x1="149.50" y1="75.92" x2="153.50" y2="75.92" stroke="#333" stroke-width="1"/>
<line x1="149.50" y1="69.88" x2="153.50" y2="69.88" stroke="#333" stroke-width="1"/>
<rect x="160.68" y="192.55" width="18.36" height="7.45" fill="#616161" opacity="0.85"><title>Control: 0.000150</title></rect>
<line x1="169.86" y1="192.76" x2="169.86" y2="192.34" stroke="#333" stroke-width="1"/>
<line x1="167.86" y1="192.76" x2="171.86" y2="192.76" stroke="#333" stroke-width="1"/>
<line x1="167.86" y1="192.34" x2="171.86" y2="192.34" stroke="#333" stroke-width="1"/>
<text x="160.68" y="214" text-anchor="end" font-size="9" fill="#2196F3" transform="rotate(-45,160.68,214)">Intentions</text>
<rect x="188.23" y="73.65" width="18.36" height="126.35" fill="#2E7D32" opacity="0.85"><title>Partner Identity: 0.002549</title></rect>
<line x1="197.41" y1="76.46" x2="197.41" y2="71.14" stroke="#333" stroke-width="1"/>
<line x1="195.41" y1="76.46" x2="199.41" y2="76.46" stroke="#333" stroke-width="1"/>
<line x1="195.41" y1="71.14" x2="199.41" y2="71.14" stroke="#333" stroke-width="1"/>
<rect x="206.59" y="193.16" width="18.36" height="6.84" fill="#616161" opacity="0.85"><title>Control: 0.000138</title></rect>
<line x1="215.77" y1="193.40" x2="215.77" y2="192.90" stroke="#333" stroke-width="1"/>
<line x1="213.77" y1="193.40" x2="217.77" y2="193.40" stroke="#333" stroke-width="1"/>
<line x1="213.77" y1="192.90" x2="217.77" y2="192.90" stroke="#333" stroke-width="1"/>
<text x="206.59" y="214" text-anchor="end" font-size="9" fill="#2196F3" transform="rotate(-45,206.59,214)">Prediction</text>
<rect x="234.14" y="72.20" width="18.36" height="127.80" fill="#2E7D32" opacity="0.85"><title>Partner Identity: 0.002578</title></rect>
<line x1="243.32" y1="76.02" x2="243.32" y2="68.48" stroke="#333" stroke-width="1"/>
<line x1="241.32" y1="76.02" x2="245.32" y2="76.02" stroke="#333" stroke-width="1"/>
<line x1="241.32" y1="68.48" x2="245.32" y2="68.48" stroke="#333" stroke-width="1"/>
<rect x="252.50" y="193.11" width="18.36" height="6.89" fill="#616161" opacity="0.85"><title>Control: 0.000139</title></rect>
<line x1="261.68" y1="193.36" x2="261.68" y2="192.86" stroke="#333" stroke-width="1"/>
<line x1="259.68" y1="193.36" x2="263.68" y2="193.36" stroke="#333" stroke-width="1"/>
<line x1="259.68" y1="192.86" x2="263.68" y2="192.86" stroke="#333" stroke-width="1"/>
<text x="252.50" y="214" text-anchor="end" font-size="9" fill="#2196F3" transform="rotate(-45,252.50,214)">Cognitive</text>
<rect x="280.05" y="87.86" width="18.36" height="112.14" fill="#2E7D32" opacity="0.85"><title>Partner Identity: 0.002263</title></rect>
<line x1="289.23" y1="90.61" x2="289.23" y2="85.24" stroke="#333" stroke-width="1"/>
<line x1="287.23" y1="90.61" x2="291.23" y2="90.61" stroke="#333" stroke-width="1"/>
<line x1="287.23" y1="85.24" x2="291.23" y2="85.24" stroke="#333" stroke-width="1"/>
<rect x="298.41" y="193.07" width="18.36" height="6.93" fill="#616161" opacity="0.85"><title>Control: 0.000140</title></rect>
<line x1="307.59" y1="193.32" x2="307.59" y2="192.82" stroke="#333" stroke-width="1"/>
<line x1="305.59" y1="193.32" x2="309.59" y2="193.32" stroke="#333" stroke-width="1"/>
<line x1="305.59" y1="192.82" x2="309.59" y2="192.82" stroke="#333" stroke-width="1"/>
<text x="298.41" y="214" text-anchor="end" font-size="9" fill="#2196F3" transform="rotate(-45,298.41,214)">Social</text>
<rect x="325.95" y="64.30" width="18.36" height="135.70" fill="#2E7D32" opacity="0.85"><title>Partner Identity: 0.002738</title></rect>
<line x1="335.14" y1="67.84" x2="335.14" y2="60.71" stroke="#333" stroke-width="1"/>
<line x1="333.14" y1="67.84" x2="337.14" y2="67.84" stroke="#333" stroke-width="1"/>
<line x1="333.14" y1="60.71" x2="337.14" y2="60.71" stroke="#333" stroke-width="1"/>
<rect x="344.32" y="192.84" width="18.36" height="7.16" fill="#616161" opacity="0.85"><title>Control: 0.000144</title></rect>
<line x1="353.50" y1="193.01" x2="353.50" y2="192.67" stroke="#333" stroke-width="1"/>
<line x1="351.50" y1="193.01" x2="355.50" y2="193.01" stroke="#333" stroke-width="1"/>
<line x1="351.50" y1="192.67" x2="355.50" y2="192.67" stroke="#333" stroke-width="1"/>
<text x="344.32" y="214" text-anchor="end" font-size="9" fill="#2196F3" transform="rotate(-45,344.32,214)">Attention</text>
<rect x="371.86" y="54.94" width="18.36" height="145.06" fill="#2E7D32" opacity="0.85"><title>Partner Identity: 0.002927</title></rect>
<line x1="381.05" y1="58.53" x2="381.05" y2="51.56" stroke="#333" stroke-width="1"/>
<line x1="379.05" y1="58.53" x2="383.05" y2="58.53" stroke="#333" stroke-width="1"/>
<line x1="379.05" y1="51.56" x2="383.05" y2="51.56" stroke="#333" stroke-width="1"/>
<rect x="390.23" y="193.26" width="18.36" height="6.74" fill="#616161" opacity="0.85"><title>Control: 0.000136</title></rect>
<line x1="399.41" y1="193.53" x2="399.41" y2="192.96" stroke="#333" stroke-width="1"/>
<line x1="397.41" y1="193.53" x2="401.41" y2="193.53" stroke="#333" stroke-width="1"/>
<line x1="397.41" y1="192.96" x2="401.41" y2="192.96" stroke="#333" stroke-width="1"/>
<text x="390.23" y="214" text-anchor="end" font-size="9" fill="#4CAF50" transform="rotate(-45,390.23,214)">Embodiment</text>
<rect x="417.77" y="68.98" width="18.36" height="131.02" fill="#2E7D32" opacity="0.85"><title>Partner Identity: 0.002643</title></rect>
<line x1="426.95" y1="72.05" x2="426.95" y2="65.80" stroke="#333" stroke-width="1"/>
<line x1="424.95" y1="72.05" x2="428.95" y2="72.05" stroke="#333" stroke-width="1"/>
<line x1="424.95" y1="65.80" x2="428.95" y2="65.80" stroke="#333" stroke-width="1"/>
<rect x="436.14" y="192.53" width="18.36" height="7.47" fill="#616161" opacity="0.85"><title>Control: 0.000151</title></rect>
<line x1="445.32" y1="192.79" x2="445.32" y2="192.25" stroke="#333" stroke-width="1"/>
<line x1="443.32" y1="192.79" x2="447.32" y2="192.79" stroke="#333" stroke-width="1"/>
<line x1="443.32" y1="192.25" x2="447.32" y2="192.25" stroke="#333" stroke-width="1"/>
<text x="436.14" y="214" text-anchor="end" font-size="9" fill="#4CAF50" transform="rotate(-45,436.14,214)">Roles</text>
<rect x="463.68" y="50.72" width="18.36" height="149.28" fill="#2E7D32" opacity="0.85"><title>Partner Identity: 0.003012</title></rect>
<line x1="472.86" y1="53.37" x2="472.86" y2="48.39" stroke="#333" stroke-width="1"/>
<line x1="470.86" y1="53.37" x2="474.86" y2="53.37" stroke="#333" stroke-width="1"/>
<line x1="470.86" y1="48.39" x2="474.86" y2="48.39" stroke="#333" stroke-width="1"/>
<rect x="482.05" y="192.64" width="18.36" height="7.36" fill="#616161" opacity="0.85"><title>Control: 0.000149</title></rect>
<line x1="491.23" y1="192.85" x2="491.23" y2="192.41" stroke="#333" stroke-width="1"/>
<line x1="489.23" y1="192.85" x2="493.23" y2="192.85" stroke="#333" stroke-width="1"/>
<line x1="489.23" y1="192.41" x2="493.23" y2="192.41" stroke="#333" stroke-width="1"/>
<text x="482.05" y="214" text-anchor="end" font-size="9" fill="#4CAF50" transform="rotate(-45,482.05,214)">Animacy</text>
<rect x="509.59" y="85.94" width="18.36" height="114.06" fill="#2E7D32" opacity="0.85"><title>Partner Identity: 0.002301</title></rect>
<line x1="518.77" y1="89.26" x2="518.77" y2="82.76" stroke="#333" stroke-width="1"/>
<line x1="516.77" y1="89.26" x2="520.77" y2="89.26" stroke="#333" stroke-width="1"/>
<line x1="516.77" y1="82.76" x2="520.77" y2="82.76" stroke="#333" stroke-width="1"/>
<rect x="527.95" y="193.06" width="18.36" height="6.94" fill="#616161" opacity="0.85"><title>Control: 0.000140</title></rect>
<line x1="537.14" y1="193.29" x2="537.14" y2="192.80" stroke="#333" stroke-width="1"/>
<line x1="535.14" y1="193.29" x2="539.14" y2="193.29" stroke="#333" stroke-width="1"/>
<line x1="535.14" y1="192.80" x2="539.14" y2="192.80" stroke="#333" stroke-width="1"/>
<text x="527.95" y="214" text-anchor="end" font-size="9" fill="#FF9800" transform="rotate(-45,527.95,214)">Formality</text>
<rect x="555.50" y="77.90" width="18.36" height="122.10" fill="#2E7D32" opacity="0.85"><title>Partner Identity: 0.002464</title></rect>
<line x1="564.68" y1="80.82" x2="564.68" y2="74.94" stroke="#333" stroke-width="1"/>
<line x1="562.68" y1="80.82" x2="566.68" y2="80.82" stroke="#333" stroke-width="1"/>
<line x1="562.68" y1="74.94" x2="566.68" y2="74.94" stroke="#333" stroke-width="1"/>
<rect x="573.86" y="192.52" width="18.36" height="7.48" fill="#616161" opacity="0.85"><title>Control: 0.000151</title></rect>
<line x1="583.05" y1="192.77" x2="583.05" y2="192.28" stroke="#333" stroke-width="1"/>
<line x1="581.05" y1="192.77" x2="585.05" y2="192.77" stroke="#333" stroke-width="1"/>
<line x1="581.05" y1="192.28" x2="585.05" y2="192.28" stroke="#333" stroke-width="1"/>
<text x="573.86" y="214" text-anchor="end" font-size="9" fill="#FF9800" transform="rotate(-45,573.86,214)">Expertise</text>
<rect x="601.41" y="84.88" width="18.36" height="115.12" fill="#2E7D32" opacity="0.85"><title>Partner Identity: 0.002323</title></rect>
<line x1="610.59" y1="87.34" x2="610.59" y2="82.49" stroke="#333" stroke-width="1"/>
<line x1="608.59" y1="87.34" x2="612.59" y2="87.34" stroke="#333" stroke-width="1"/>
<line x1="608.59" y1="82.49" x2="612.59" y2="82.49" stroke="#333" stroke-width="1"/>
<rect x="619.77" y="192.46" width="18.36" height="7.54" fill="#616161" opacity="0.85"><title>Control: 0.000152</title></rect>
<line x1="628.95" y1="192.75" x2="628.95" y2="192.18" stroke="#333" stroke-width="1"/>
<line x1="626.95" y1="192.75" x2="630.95" y2="192.75" stroke="#333" stroke-width="1"/>
<line x1="626.95" y1="192.18" x2="630.95" y2="192.18" stroke="#333" stroke-width="1"/>
<text x="619.77" y="214" text-anchor="end" font-size="9" fill="#FF9800" transform="rotate(-45,619.77,214)">Helpfulness</text>
<rect x="647.32" y="59.71" width="18.36" height="140.29" fill="#2E7D32" opacity="0.85"><title>Partner Identity: 0.002830</title></rect>
<line x1="656.50" y1="62.10" x2="656.50" y2="57.37" stroke="#333" stroke-width="1"/>
<line x1="654.50" y1="62.10" x2="658.50" y2="62.10" stroke="#333" stroke-width="1"/>
<line x1="654.50" y1="57.37" x2="658.50" y2="57.37" stroke="#333" stroke-width="1"/>
<rect x="665.68" y="190.88" width="18.36" height="9.12" fill="#616161" opacity="0.85"><title>Control: 0.000184</title></rect>
<line x1="674.86" y1="191.17" x2="674.86" y2="190.59" stroke="#333" stroke-width="1"/>
<line x1="672.86" y1="191.17" x2="676.86" y2="191.17" stroke="#333" stroke-width="1"/>
<line x1="672.86" y1="190.59" x2="676.86" y2="190.59" stroke="#333" stroke-width="1"/>
<text x="665.68" y="214" text-anchor="end" font-size="9" fill="#7B1FA2" transform="rotate(-45,665.68,214)">Human (concept)</text>
<rect x="693.23" y="29.51" width="18.36" height="170.49" fill="#2E7D32" opacity="0.85"><title>Partner Identity: 0.003440</title></rect>
<line x1="702.41" y1="32.35" x2="702.41" y2="26.84" stroke="#333" stroke-width="1"/>
<line x1="700.41" y1="32.35" x2="704.41" y2="32.35" stroke="#333" stroke-width="1"/>
<line x1="700.41" y1="26.84" x2="704.41" y2="26.84" stroke="#333" stroke-width="1"/>
<rect x="711.59" y="191.81" width="18.36" height="8.19" fill="#616161" opacity="0.85"><title>Control: 0.000165</title></rect>
<line x1="720.77" y1="192.01" x2="720.77" y2="191.58" stroke="#333" stroke-width="1"/>
<line x1="718.77" y1="192.01" x2="722.77" y2="192.01" stroke="#333" stroke-width="1"/>
<line x1="718.77" y1="191.58" x2="722.77" y2="191.58" stroke="#333" stroke-width="1"/>
<text x="711.59" y="214" text-anchor="end" font-size="9" fill="#7B1FA2" transform="rotate(-45,711.59,214)">AI (concept)</text>
<rect x="739.14" y="51.10" width="18.36" height="148.90" fill="#2E7D32" opacity="0.85"><title>Partner Identity: 0.003004</title></rect>
<line x1="748.32" y1="53.57" x2="748.32" y2="48.84" stroke="#333" stroke-width="1"/>
<line x1="746.32" y1="53.57" x2="750.32" y2="53.57" stroke="#333" stroke-width="1"/>
<line x1="746.32" y1="48.84" x2="750.32" y2="48.84" stroke="#333" stroke-width="1"/>
<rect x="757.50" y="191.92" width="18.36" height="8.08" fill="#616161" opacity="0.85"><title>Control: 0.000163</title></rect>
<line x1="766.68" y1="192.17" x2="766.68" y2="191.70" stroke="#333" stroke-width="1"/>
<line x1="764.68" y1="192.17" x2="768.68" y2="192.17" stroke="#333" stroke-width="1"/>
<line x1="764.68" y1="191.70" x2="768.68" y2="191.70" stroke="#333" stroke-width="1"/>
<text x="757.50" y="214" text-anchor="end" font-size="9" fill="#9E9E9E" transform="rotate(-45,757.50,214)">Biological</text>
<rect x="785.05" y="52.70" width="18.36" height="147.30" fill="#2E7D32" opacity="0.85"><title>Partner Identity: 0.002972</title></rect>
<line x1="794.23" y1="55.44" x2="794.23" y2="50.50" stroke="#333" stroke-width="1"/>
<line x1="792.23" y1="55.44" x2="796.23" y2="55.44" stroke="#333" stroke-width="1"/>
<line x1="792.23" y1="50.50" x2="796.23" y2="50.50" stroke="#333" stroke-width="1"/>
<rect x="803.41" y="193.04" width="18.36" height="6.96" fill="#616161" opacity="0.85"><title>Control: 0.000140</title></rect>
<line x1="812.59" y1="193.18" x2="812.59" y2="192.88" stroke="#333" stroke-width="1"/>
<line x1="810.59" y1="193.18" x2="814.59" y2="193.18" stroke="#333" stroke-width="1"/>
<line x1="810.59" y1="192.88" x2="814.59" y2="192.88" stroke="#333" stroke-width="1"/>
<text x="803.41" y="214" text-anchor="end" font-size="9" fill="#9E9E9E" transform="rotate(-45,803.41,214)">Shapes</text>
<rect x="830.95" y="108.32" width="18.36" height="91.68" fill="#2E7D32" opacity="0.85"><title>Partner Identity: 0.001850</title></rect>
<line x1="840.14" y1="110.41" x2="840.14" y2="105.78" stroke="#333" stroke-width="1"/>
<line x1="838.14" y1="110.41" x2="842.14" y2="110.41" stroke="#333" stroke-width="1"/>
<line x1="838.14" y1="105.78" x2="842.14" y2="105.78" stroke="#333" stroke-width="1"/>
<rect x="849.32" y="190.83" width="18.36" height="9.17" fill="#616161" opacity="0.85"><title>Control: 0.000185</title></rect>
<line x1="858.50" y1="190.92" x2="858.50" y2="190.73" stroke="#333" stroke-width="1"/>
<line x1="856.50" y1="190.92" x2="860.50" y2="190.92" stroke="#333" stroke-width="1"/>
<line x1="856.50" y1="190.73" x2="860.50" y2="190.73" stroke="#333" stroke-width="1"/>
<text x="849.32" y="214" text-anchor="end" font-size="9" fill="#00BCD4" transform="rotate(-45,849.32,214)">SysPrompt (talkto human)</text>
<rect x="876.86" y="59.66" width="18.36" height="140.34" fill="#2E7D32" opacity="0.85"><title>Partner Identity: 0.002832</title></rect>
<line x1="886.05" y1="74.40" x2="886.05" y2="40.80" stroke="#333" stroke-width="1"/>
<line x1="884.05" y1="74.40" x2="888.05" y2="74.40" stroke="#333" stroke-width="1"/>
<line x1="884.05" y1="40.80" x2="888.05" y2="40.80" stroke="#333" stroke-width="1"/>
<rect x="895.23" y="191.15" width="18.36" height="8.85" fill="#616161" opacity="0.85"><title>Control: 0.000179</title></rect>
<line x1="904.41" y1="191.40" x2="904.41" y2="190.89" stroke="#333" stroke-width="1"/>
<line x1="902.41" y1="191.40" x2="906.41" y2="191.40" stroke="#333" stroke-width="1"/>
<line x1="902.41" y1="190.89" x2="906.41" y2="190.89" stroke="#333" stroke-width="1"/>
<text x="895.23" y="214" text-anchor="end" font-size="9" fill="#00BCD4" transform="rotate(-45,895.23,214)">SysPrompt (talkto AI)</text>
<rect x="922.77" y="96.89" width="18.36" height="103.11" fill="#2E7D32" opacity="0.85"><title>Partner Identity: 0.002080</title></rect>
<line x1="931.95" y1="99.70" x2="931.95" y2="93.66" stroke="#333" stroke-width="1"/>
<line x1="929.95" y1="99.70" x2="933.95" y2="99.70" stroke="#333" stroke-width="1"/>
<line x1="929.95" y1="93.66" x2="933.95" y2="93.66" stroke="#333" stroke-width="1"/>
<rect x="941.14" y="189.22" width="18.36" height="10.78" fill="#616161" opacity="0.85"><title>Control: 0.000217</title></rect>
<line x1="950.32" y1="189.37" x2="950.32" y2="189.09" stroke="#333" stroke-width="1"/>
<line x1="948.32" y1="189.37" x2="952.32" y2="189.37" stroke="#333" stroke-width="1"/>
<line x1="948.32" y1="189.09" x2="952.32" y2="189.09" stroke="#333" stroke-width="1"/>
<text x="941.14" y="214" text-anchor="end" font-size="9" fill="#00BCD4" transform="rotate(-45,941.14,214)">SysPrompt (bare human)</text>
<rect x="968.68" y="47.77" width="18.36" height="152.23" fill="#2E7D32" opacity="0.85"><title>Partner Identity: 0.003071</title></rect>
<line x1="977.86" y1="62.58" x2="977.86" y2="28.12" stroke="#333" stroke-width="1"/>
<line x1="975.86" y1="62.58" x2="979.86" y2="62.58" stroke="#333" stroke-width="1"/>
<line x1="975.86" y1="28.12" x2="979.86" y2="28.12" stroke="#333" stroke-width="1"/>
<rect x="987.05" y="189.71" width="18.36" height="10.29" fill="#616161" opacity="0.85"><title>Control: 0.000208</title></rect>
<line x1="996.23" y1="189.97" x2="996.23" y2="189.45" stroke="#333" stroke-width="1"/>
<line x1="994.23" y1="189.97" x2="998.23" y2="189.97" stroke="#333" stroke-width="1"/>
<line x1="994.23" y1="189.45" x2="998.23" y2="189.45" stroke="#333" stroke-width="1"/>
<text x="987.05" y="214" text-anchor="end" font-size="9" fill="#00BCD4" transform="rotate(-45,987.05,214)">SysPrompt (bare AI)</text>
<line x1="0" y1="200" x2="1010" y2="200" stroke="#333"/>
<line x1="0" y1="0" x2="0" y2="200" stroke="#333"/>
</g>
<rect x="70.0" y="324" width="10" height="10" fill="#2E7D32"/>
<text x="84.0" y="332" font-size="8" fill="#333">Partner Identity</text>
<rect x="272.0" y="324" width="10" height="10" fill="#616161"/>
<text x="286.0" y="332" font-size="8" fill="#333">Control</text>
</svg>