<svg viewBox="0 0 800 320" xmlns="http://www.w3.org/2000/svg" style="width:100%;max-width:800px;height:auto;font-family:Arial,sans-serif;">
<rect width="800" height="320" fill="white"/>

<g transform="translate(70,30)">
<line x1="0" y1="180.0" x2="710" y2="180.0" stroke="#eee" stroke-width="1"/>
<text x="-8" y="184.0" text-anchor="end" font-size="10" fill="#666">0.00</text>
<line x1="0" y1="144.0" x2="710" y2="144.0" stroke="#eee" stroke-width="1"/>
<text x="-8" y="148.0" text-anchor="end" font-size="10" fill="#666">2.30</text>
<line x1="0" y1="108.0" x2="710" y2="108.0" stroke="#eee" stroke-width="1"/>
<text x="-8" y="112.0" text-anchor="end" font-size="10" fill="#666">4.60</text>
<line x1="0" y1="72.0" x2="710" y2="72.0" stroke="#eee" stroke-width="1"/>
<text x="-8" y="76.0" text-anchor="end" font-size="10" fill="#666">6.90</text>
<line x1="0" y1="36.0" x2="710" y2="36.0" stroke="#eee" stroke-width="1"/>
<text x="-8" y="40.0" text-anchor="end" font-size="10" fill="#666">9.20</text>
<line x1="0" y1="0.0" x2="710" y2="0.0" stroke="#eee" stroke-width="1"/>
<text x="-8" y="4.0" text-anchor="end" font-size="10" fill="#666">11.50</text>
<text x="-50" y="90.0" text-anchor="middle" font-size="11" fill="#333" transform="rotate(-90,-50,90.0)">Mean R² (×10⁻³)</text>
<rect x="17.75" y="176.09" width="41.42" height="3.91" fill="#81C784" opacity="0.85"><title>Partner Identity — Embodiment: 0.250 ×10⁻³</title></rect>
<line x1="38.46" y1="176.66" x2="38.46" y2="175.50" stroke="#333" stroke-width="1"/>
<line x1="36.46" y1="176.66" x2="40.46" y2="176.66" stroke="#333" stroke-width="1"/>
<line x1="36.46" y1="175.50" x2="40.46" y2="175.50" stroke="#333" stroke-width="1"/>
<rect x="61.17" y="174.53" width="41.42" height="5.47" fill="#BDBDBD" opacity="0.85"><title>Control — Embodiment: 0.350 ×10⁻³</title></rect>
<line x1="81.88" y1="175.38" x2="81.88" y2="173.67" stroke="#333" stroke-width="1"/>
<line x1="79.88" y1="175.38" x2="83.88" y2="175.38" stroke="#333" stroke-width="1"/>
<line x1="79.88" y1="173.67" x2="83.88" y2="173.67" stroke="#333" stroke-width="1"/>
<text x="61.2" y="194" text-anchor="end" font-size="10" fill="#4CAF50" transform="rotate(-30,61.2,194)">Embodiment</text>
<rect x="136.08" y="175.59" width="41.42" height="4.41" fill="#81C784" opacity="0.85"><title>Partner Identity — Roles: 0.282 ×10⁻³</title></rect>
<line x1="156.79" y1="176.20" x2="156.79" y2="174.76" stroke="#333" stroke-width="1"/>
<line x1="154.79" y1="176.20" x2="158.79" y2="176.20" stroke="#333" stroke-width="1"/>
<line x1="154.79" y1="174.76" x2="158.79" y2="174.76" stroke="#333" stroke-width="1"/>
<rect x="179.50" y="172.81" width="41.42" height="7.19" fill="#BDBDBD" opacity="0.85"><title>Control — Roles: 0.459 ×10⁻³</title></rect>
<line x1="200.21" y1="174.01" x2="200.21" y2="171.65" stroke="#333" stroke-width="1"/>
<line x1="198.21" y1="174.01" x2="202.21" y2="174.01" stroke="#333" stroke-width="1"/>
<line x1="198.21" y1="171.65" x2="202.21" y2="171.65" stroke="#333" stroke-width="1"/>
<text x="179.5" y="194" text-anchor="end" font-size="10" fill="#4CAF50" transform="rotate(-30,179.5,194)">Roles</text>
<rect x="254.42" y="175.21" width="41.42" height="4.79" fill="#81C784" opacity="0.85"><title>Partner Identity — Animacy: 0.306 ×10⁻³</title></rect>
<line x1="275.12" y1="175.98" x2="275.12" y2="174.56" stroke="#333" stroke-width="1"/>
<line x1="273.12" y1="175.98" x2="277.12" y2="175.98" stroke="#333" stroke-width="1"/>
<line x1="273.12" y1="174.56" x2="277.12" y2="174.56" stroke="#333" stroke-width="1"/>
<rect x="297.83" y="173.10" width="41.42" height="6.90" fill="#BDBDBD" opacity="0.85"><title>Control — Animacy: 0.441 ×10⁻³</title></rect>
<line x1="318.54" y1="174.32" x2="318.54" y2="172.16" stroke="#333" stroke-width="1"/>
<line x1="316.54" y1="174.32" x2="320.54" y2="174.32" stroke="#333" stroke-width="1"/>
<line x1="316.54" y1="172.16" x2="320.54" y2="172.16" stroke="#333" stroke-width="1"/>
<text x="297.8" y="194" text-anchor="end" font-size="10" fill="#4CAF50" transform="rotate(-30,297.8,194)">Animacy</text>
<line x1="355.0" y1="0" x2="355.0" y2="180" stroke="#ccc" stroke-width="1" stroke-dasharray="4,3"/>
<rect x="372.75" y="175.01" width="41.42" height="4.99" fill="#81C784" opacity="0.5"><title>Partner Identity — Human vs AI (general): 0.319 ×10⁻³</title></rect>
<line x1="393.46" y1="176.12" x2="393.46" y2="173.67" stroke="#333" stroke-width="1"/>
<line x1="391.46" y1="176.12" x2="395.46" y2="176.12" stroke="#333" stroke-width="1"/>
<line x1="391.46" y1="173.67" x2="395.46" y2="173.67" stroke="#333" stroke-width="1"/>
<rect x="416.17" y="168.10" width="41.42" height="11.90" fill="#BDBDBD" opacity="0.5"><title>Control — Human vs AI (general): 0.760 ×10⁻³</title></rect>
<line x1="436.88" y1="171.20" x2="436.88" y2="166.01" stroke="#333" stroke-width="1"/>
<line x1="434.88" y1="171.20" x2="438.88" y2="171.20" stroke="#333" stroke-width="1"/>
<line x1="434.88" y1="166.01" x2="438.88" y2="166.01" stroke="#333" stroke-width="1"/>
<text x="416.2" y="194" text-anchor="end" font-size="10" fill="#9E9E9E" transform="rotate(-30,416.2,194)">Human vs AI (general)</text>
<rect x="491.08" y="175.73" width="41.42" height="4.27" fill="#81C784" opacity="0.5"><title>Partner Identity — Biological: 0.273 ×10⁻³</title></rect>
<line x1="511.79" y1="176.24" x2="511.79" y2="175.19" stroke="#333" stroke-width="1"/>
<line x1="509.79" y1="176.24" x2="513.79" y2="176.24" stroke="#333" stroke-width="1"/>
<line x1="509.79" y1="175.19" x2="513.79" y2="175.19" stroke="#333" stroke-width="1"/>
<rect x="534.50" y="175.86" width="41.42" height="4.14" fill="#BDBDBD" opacity="0.5"><title>Control — Biological: 0.265 ×10⁻³</title></rect>
<line x1="555.21" y1="176.39" x2="555.21" y2="175.20" stroke="#333" stroke-width="1"/>
<line x1="553.21" y1="176.39" x2="557.21" y2="176.39" stroke="#333" stroke-width="1"/>
<line x1="553.21" y1="175.20" x2="557.21" y2="175.20" stroke="#333" stroke-width="1"/>
<text x="534.5" y="194" text-anchor="end" font-size="10" fill="#9E9E9E" transform="rotate(-30,534.5,194)">Biological</text>
<rect x="609.42" y="175.74" width="41.42" height="4.26" fill="#81C784" opacity="0.5"><title>Partner Identity — Shapes: 0.272 ×10⁻³</title></rect>
<line x1="630.12" y1="177.19" x2="630.12" y2="174.53" stroke="#333" stroke-width="1"/>
<line x1="628.12" y1="177.19" x2="632.12" y2="177.19" stroke="#333" stroke-width="1"/>
<line x1="628.12" y1="174.53" x2="632.12" y2="174.53" stroke="#333" stroke-width="1"/>
<rect x="652.83" y="172.57" width="41.42" height="7.43" fill="#BDBDBD" opacity="0.5"><title>Control — Shapes: 0.475 ×10⁻³</title></rect>
<line x1="673.54" y1="175.50" x2="673.54" y2="170.87" stroke="#333" stroke-width="1"/>
<line x1="671.54" y1="175.50" x2="675.54" y2="175.50" stroke="#333" stroke-width="1"/>
<line x1="671.54" y1="170.87" x2="675.54" y2="170.87" stroke="#333" stroke-width="1"/>
<text x="652.8" y="194" text-anchor="end" font-size="10" fill="#9E9E9E" transform="rotate(-30,652.8,194)">Shapes</text>
<line x1="0" y1="180" x2="710" y2="180" stroke="#333"/>
<line x1="0" y1="0" x2="0" y2="180" stroke="#333"/>
</g>
<rect x="70" y="300" width="10" height="10" fill="#81C784"/>
<text x="84" y="308" font-size="9" fill="#333">Partner Identity</text>
<rect x="210" y="300" width="10" height="10" fill="#BDBDBD"/>
<text x="224" y="308" font-size="9" fill="#333">Control</text>
</svg>