<svg viewBox="0 0 1100 420" xmlns="http://www.w3.org/2000/svg" style="width:100%;max-width:1100px;height:auto;font-family:Arial,sans-serif;">
<rect width="1100" height="420" fill="white"/>
<text x="386.2" y="130" text-anchor="start" font-size="10" fill="#333" transform="rotate(-55,386.2,130)">Partner Identity</text>
<text x="808.8" y="130" text-anchor="start" font-size="10" fill="#333" transform="rotate(-55,808.8,130)">Control</text>
<text x="167" y="157.0" text-anchor="end" font-size="10" fill="#2196F3">Phenomenology</text>
<rect x="175.0" y="140.0" width="422.5" height="26" fill="rgb(97,157,100)" stroke="white" stroke-width="1"><title>Partner Identity — Phenomenology: R²=0.002009</title></rect>
<text x="386.2" y="157.0" text-anchor="middle" font-size="8" fill="#fff">2.01</text>
<rect x="597.5" y="140.0" width="422.5" height="26" fill="rgb(226,226,226)" stroke="white" stroke-width="1"><title>Control — Phenomenology: R²=0.000231</title></rect>
<text x="808.8" y="157.0" text-anchor="middle" font-size="8" fill="#333">0.23</text>
<text x="167" y="183.0" text-anchor="end" font-size="10" fill="#2196F3">Emotions</text>
<rect x="175.0" y="166.0" width="422.5" height="26" fill="rgb(104,162,107)" stroke="white" stroke-width="1"><title>Partner Identity — Emotions: R²=0.001895</title></rect>
<text x="386.2" y="183.0" text-anchor="middle" font-size="8" fill="#fff">1.89</text>
<rect x="597.5" y="166.0" width="422.5" height="26" fill="rgb(226,226,226)" stroke="white" stroke-width="1"><title>Control — Emotions: R²=0.000230</title></rect>
<text x="808.8" y="183.0" text-anchor="middle" font-size="8" fill="#333">0.23</text>
<text x="167" y="209.0" text-anchor="end" font-size="10" fill="#2196F3">Agency</text>
<rect x="175.0" y="192.0" width="422.5" height="26" fill="rgb(91,154,94)" stroke="white" stroke-width="1"><title>Partner Identity — Agency: R²=0.002096</title></rect>
<text x="386.2" y="209.0" text-anchor="middle" font-size="8" fill="#fff">2.10</text>
<rect x="597.5" y="192.0" width="422.5" height="26" fill="rgb(226,226,226)" stroke="white" stroke-width="1"><title>Control — Agency: R²=0.000232</title></rect>
<text x="808.8" y="209.0" text-anchor="middle" font-size="8" fill="#333">0.23</text>
<text x="167" y="235.0" text-anchor="end" font-size="10" fill="#2196F3">Intentions</text>
<rect x="175.0" y="218.0" width="422.5" height="26" fill="rgb(106,163,109)" stroke="white" stroke-width="1"><title>Partner Identity — Intentions: R²=0.001870</title></rect>
<text x="386.2" y="235.0" text-anchor="middle" font-size="8" fill="#fff">1.87</text>
<rect x="597.5" y="218.0" width="422.5" height="26" fill="rgb(226,226,226)" stroke="white" stroke-width="1"><title>Control — Intentions: R²=0.000228</title></rect>
<text x="808.8" y="235.0" text-anchor="middle" font-size="8" fill="#333">0.23</text>
<text x="167" y="261.0" text-anchor="end" font-size="10" fill="#2196F3">Prediction</text>
<rect x="175.0" y="244.0" width="422.5" height="26" fill="rgb(89,153,92)" stroke="white" stroke-width="1"><title>Partner Identity — Prediction: R²=0.002122</title></rect>
<text x="386.2" y="261.0" text-anchor="middle" font-size="8" fill="#fff">2.12</text>
<rect x="597.5" y="244.0" width="422.5" height="26" fill="rgb(226,226,226)" stroke="white" stroke-width="1"><title>Control — Prediction: R²=0.000226</title></rect>
<text x="808.8" y="261.0" text-anchor="middle" font-size="8" fill="#333">0.23</text>
<text x="167" y="287.0" text-anchor="end" font-size="10" fill="#2196F3">Cognitive</text>
<rect x="175.0" y="270.0" width="422.5" height="26" fill="rgb(95,156,98)" stroke="white" stroke-width="1"><title>Partner Identity — Cognitive: R²=0.002032</title></rect>
<text x="386.2" y="287.0" text-anchor="middle" font-size="8" fill="#fff">2.03</text>
<rect x="597.5" y="270.0" width="422.5" height="26" fill="rgb(226,226,226)" stroke="white" stroke-width="1"><title>Control — Cognitive: R²=0.000228</title></rect>
<text x="808.8" y="287.0" text-anchor="middle" font-size="8" fill="#333">0.23</text>
<text x="167" y="313.0" text-anchor="end" font-size="10" fill="#2196F3">Social</text>
<rect x="175.0" y="296.0" width="422.5" height="26" fill="rgb(106,164,109)" stroke="white" stroke-width="1"><title>Partner Identity — Social: R²=0.001865</title></rect>
<text x="386.2" y="313.0" text-anchor="middle" font-size="8" fill="#fff">1.87</text>
<rect x="597.5" y="296.0" width="422.5" height="26" fill="rgb(226,226,226)" stroke="white" stroke-width="1"><title>Control — Social: R²=0.000227</title></rect>
<text x="808.8" y="313.0" text-anchor="middle" font-size="8" fill="#333">0.23</text>
<line x1="175" y1="322" x2="1020.0" y2="322" stroke="#999" stroke-width="1.5"/>
<text x="167" y="339.0" text-anchor="end" font-size="10" fill="#4CAF50">Embodiment</text>
<rect x="175.0" y="322.0" width="422.5" height="26" fill="rgb(100,160,103)" stroke="white" stroke-width="1"><title>Partner Identity — Embodiment: R²=0.001959</title></rect>
<text x="386.2" y="339.0" text-anchor="middle" font-size="8" fill="#fff">1.96</text>
<rect x="597.5" y="322.0" width="422.5" height="26" fill="rgb(226,226,226)" stroke="white" stroke-width="1"><title>Control — Embodiment: R²=0.000225</title></rect>
<text x="808.8" y="339.0" text-anchor="middle" font-size="8" fill="#333">0.22</text>
<text x="167" y="365.0" text-anchor="end" font-size="10" fill="#4CAF50">Roles</text>
<rect x="175.0" y="348.0" width="422.5" height="26" fill="rgb(101,160,104)" stroke="white" stroke-width="1"><title>Partner Identity — Roles: R²=0.001943</title></rect>
<text x="386.2" y="365.0" text-anchor="middle" font-size="8" fill="#fff">1.94</text>
<rect x="597.5" y="348.0" width="422.5" height="26" fill="rgb(226,226,226)" stroke="white" stroke-width="1"><title>Control — Roles: R²=0.000224</title></rect>
<text x="808.8" y="365.0" text-anchor="middle" font-size="8" fill="#333">0.22</text>
<text x="167" y="391.0" text-anchor="end" font-size="10" fill="#4CAF50">Animacy</text>
<rect x="175.0" y="374.0" width="422.5" height="26" fill="rgb(108,165,111)" stroke="white" stroke-width="1"><title>Partner Identity — Animacy: R²=0.001837</title></rect>
<text x="386.2" y="391.0" text-anchor="middle" font-size="8" fill="#fff">1.84</text>
<rect x="597.5" y="374.0" width="422.5" height="26" fill="rgb(226,226,226)" stroke="white" stroke-width="1"><title>Control — Animacy: R²=0.000225</title></rect>
<text x="808.8" y="391.0" text-anchor="middle" font-size="8" fill="#333">0.22</text>
<rect x="1035.0" y="400.0" width="12" height="6.3" fill="rgb(232,245,233)"/>
<rect x="1035.0" y="394.7" width="12" height="6.3" fill="rgb(228,242,229)"/>
<rect x="1035.0" y="389.4" width="12" height="6.3" fill="rgb(224,240,225)"/>
<rect x="1035.0" y="384.1" width="12" height="6.3" fill="rgb(220,237,221)"/>
<rect x="1035.0" y="378.8" width="12" height="6.3" fill="rgb(216,235,218)"/>
<rect x="1035.0" y="373.5" width="12" height="6.3" fill="rgb(213,232,214)"/>
<rect x="1035.0" y="368.2" width="12" height="6.3" fill="rgb(209,230,210)"/>
<rect x="1035.0" y="362.9" width="12" height="6.3" fill="rgb(205,227,206)"/>
<rect x="1035.0" y="357.6" width="12" height="6.3" fill="rgb(201,225,203)"/>
<rect x="1035.0" y="352.2" width="12" height="6.3" fill="rgb(197,222,199)"/>
<rect x="1035.0" y="346.9" width="12" height="6.3" fill="rgb(194,220,195)"/>
<rect x="1035.0" y="341.6" width="12" height="6.3" fill="rgb(190,218,191)"/>
<rect x="1035.0" y="336.3" width="12" height="6.3" fill="rgb(186,215,188)"/>
<rect x="1035.0" y="331.0" width="12" height="6.3" fill="rgb(182,213,184)"/>
<rect x="1035.0" y="325.7" width="12" height="6.3" fill="rgb(178,210,180)"/>
<rect x="1035.0" y="320.4" width="12" height="6.3" fill="rgb(175,208,176)"/>
<rect x="1035.0" y="315.1" width="12" height="6.3" fill="rgb(171,205,173)"/>
<rect x="1035.0" y="309.8" width="12" height="6.3" fill="rgb(167,203,169)"/>
<rect x="1035.0" y="304.5" width="12" height="6.3" fill="rgb(163,200,165)"/>
<rect x="1035.0" y="299.2" width="12" height="6.3" fill="rgb(159,198,162)"/>
<rect x="1035.0" y="293.9" width="12" height="6.3" fill="rgb(156,196,158)"/>
<rect x="1035.0" y="288.6" width="12" height="6.3" fill="rgb(152,193,154)"/>
<rect x="1035.0" y="283.3" width="12" height="6.3" fill="rgb(148,191,150)"/>
<rect x="1035.0" y="278.0" width="12" height="6.3" fill="rgb(144,188,147)"/>
<rect x="1035.0" y="272.7" width="12" height="6.3" fill="rgb(140,186,143)"/>
<rect x="1035.0" y="267.3" width="12" height="6.3" fill="rgb(137,183,139)"/>
<rect x="1035.0" y="262.0" width="12" height="6.3" fill="rgb(133,181,135)"/>
<rect x="1035.0" y="256.7" width="12" height="6.3" fill="rgb(129,178,132)"/>
<rect x="1035.0" y="251.4" width="12" height="6.3" fill="rgb(125,176,128)"/>
<rect x="1035.0" y="246.1" width="12" height="6.3" fill="rgb(121,173,124)"/>
<rect x="1035.0" y="240.8" width="12" height="6.3" fill="rgb(118,171,120)"/>
<rect x="1035.0" y="235.5" width="12" height="6.3" fill="rgb(114,169,117)"/>
<rect x="1035.0" y="230.2" width="12" height="6.3" fill="rgb(110,166,113)"/>
<rect x="1035.0" y="224.9" width="12" height="6.3" fill="rgb(106,164,109)"/>
<rect x="1035.0" y="219.6" width="12" height="6.3" fill="rgb(102,161,106)"/>
<rect x="1035.0" y="214.3" width="12" height="6.3" fill="rgb(99,159,102)"/>
<rect x="1035.0" y="209.0" width="12" height="6.3" fill="rgb(95,156,98)"/>
<rect x="1035.0" y="203.7" width="12" height="6.3" fill="rgb(91,154,94)"/>
<rect x="1035.0" y="198.4" width="12" height="6.3" fill="rgb(87,151,91)"/>
<rect x="1035.0" y="193.1" width="12" height="6.3" fill="rgb(83,149,87)"/>
<rect x="1035.0" y="187.8" width="12" height="6.3" fill="rgb(80,147,83)"/>
<rect x="1035.0" y="182.4" width="12" height="6.3" fill="rgb(76,144,79)"/>
<rect x="1035.0" y="177.1" width="12" height="6.3" fill="rgb(72,142,76)"/>
<rect x="1035.0" y="171.8" width="12" height="6.3" fill="rgb(68,139,72)"/>
<rect x="1035.0" y="166.5" width="12" height="6.3" fill="rgb(64,137,68)"/>
<rect x="1035.0" y="161.2" width="12" height="6.3" fill="rgb(61,134,64)"/>
<rect x="1035.0" y="155.9" width="12" height="6.3" fill="rgb(57,132,61)"/>
<rect x="1035.0" y="150.6" width="12" height="6.3" fill="rgb(53,129,57)"/>
<rect x="1035.0" y="145.3" width="12" height="6.3" fill="rgb(49,127,53)"/>
<rect x="1035.0" y="140.0" width="12" height="6.3" fill="rgb(46,125,50)"/>
<text x="1041.0" y="136" text-anchor="middle" font-size="7" fill="#333">Partner Identity</text>
<text x="1050.0" y="144" font-size="7" fill="#333">2.77</text>
<text x="1050.0" y="404" font-size="7" fill="#333">0.00</text>
<text x="1050.0" y="274.0" font-size="7" fill="#666">×10⁻³</text>
<rect x="1077.0" y="400.0" width="12" height="6.3" fill="rgb(238,238,238)"/>
<rect x="1077.0" y="394.7" width="12" height="6.3" fill="rgb(235,235,235)"/>
<rect x="1077.0" y="389.4" width="12" height="6.3" fill="rgb(232,232,232)"/>
<rect x="1077.0" y="384.1" width="12" height="6.3" fill="rgb(229,229,229)"/>
<rect x="1077.0" y="378.8" width="12" height="6.3" fill="rgb(226,226,226)"/>
<rect x="1077.0" y="373.5" width="12" height="6.3" fill="rgb(223,223,223)"/>
<rect x="1077.0" y="368.2" width="12" height="6.3" fill="rgb(220,220,220)"/>
<rect x="1077.0" y="362.9" width="12" height="6.3" fill="rgb(217,217,217)"/>
<rect x="1077.0" y="357.6" width="12" height="6.3" fill="rgb(214,214,214)"/>
<rect x="1077.0" y="352.2" width="12" height="6.3" fill="rgb(212,212,212)"/>
<rect x="1077.0" y="346.9" width="12" height="6.3" fill="rgb(209,209,209)"/>
<rect x="1077.0" y="341.6" width="12" height="6.3" fill="rgb(206,206,206)"/>
<rect x="1077.0" y="336.3" width="12" height="6.3" fill="rgb(203,203,203)"/>
<rect x="1077.0" y="331.0" width="12" height="6.3" fill="rgb(200,200,200)"/>
<rect x="1077.0" y="325.7" width="12" height="6.3" fill="rgb(197,197,197)"/>
<rect x="1077.0" y="320.4" width="12" height="6.3" fill="rgb(194,194,194)"/>
<rect x="1077.0" y="315.1" width="12" height="6.3" fill="rgb(191,191,191)"/>
<rect x="1077.0" y="309.8" width="12" height="6.3" fill="rgb(189,189,189)"/>
<rect x="1077.0" y="304.5" width="12" height="6.3" fill="rgb(186,186,186)"/>
<rect x="1077.0" y="299.2" width="12" height="6.3" fill="rgb(183,183,183)"/>
<rect x="1077.0" y="293.9" width="12" height="6.3" fill="rgb(180,180,180)"/>
<rect x="1077.0" y="288.6" width="12" height="6.3" fill="rgb(177,177,177)"/>
<rect x="1077.0" y="283.3" width="12" height="6.3" fill="rgb(174,174,174)"/>
<rect x="1077.0" y="278.0" width="12" height="6.3" fill="rgb(171,171,171)"/>
<rect x="1077.0" y="272.7" width="12" height="6.3" fill="rgb(168,168,168)"/>
<rect x="1077.0" y="267.3" width="12" height="6.3" fill="rgb(166,166,166)"/>
<rect x="1077.0" y="262.0" width="12" height="6.3" fill="rgb(163,163,163)"/>
<rect x="1077.0" y="256.7" width="12" height="6.3" fill="rgb(160,160,160)"/>
<rect x="1077.0" y="251.4" width="12" height="6.3" fill="rgb(157,157,157)"/>
<rect x="1077.0" y="246.1" width="12" height="6.3" fill="rgb(154,154,154)"/>
<rect x="1077.0" y="240.8" width="12" height="6.3" fill="rgb(151,151,151)"/>
<rect x="1077.0" y="235.5" width="12" height="6.3" fill="rgb(148,148,148)"/>
<rect x="1077.0" y="230.2" width="12" height="6.3" fill="rgb(145,145,145)"/>
<rect x="1077.0" y="224.9" width="12" height="6.3" fill="rgb(143,143,143)"/>
<rect x="1077.0" y="219.6" width="12" height="6.3" fill="rgb(140,140,140)"/>
<rect x="1077.0" y="214.3" width="12" height="6.3" fill="rgb(137,137,137)"/>
<rect x="1077.0" y="209.0" width="12" height="6.3" fill="rgb(134,134,134)"/>
<rect x="1077.0" y="203.7" width="12" height="6.3" fill="rgb(131,131,131)"/>
<rect x="1077.0" y="198.4" width="12" height="6.3" fill="rgb(128,128,128)"/>
<rect x="1077.0" y="193.1" width="12" height="6.3" fill="rgb(125,125,125)"/>
<rect x="1077.0" y="187.8" width="12" height="6.3" fill="rgb(122,122,122)"/>
<rect x="1077.0" y="182.4" width="12" height="6.3" fill="rgb(120,120,120)"/>
<rect x="1077.0" y="177.1" width="12" height="6.3" fill="rgb(117,117,117)"/>
<rect x="1077.0" y="171.8" width="12" height="6.3" fill="rgb(114,114,114)"/>
<rect x="1077.0" y="166.5" width="12" height="6.3" fill="rgb(111,111,111)"/>
<rect x="1077.0" y="161.2" width="12" height="6.3" fill="rgb(108,108,108)"/>
<rect x="1077.0" y="155.9" width="12" height="6.3" fill="rgb(105,105,105)"/>
<rect x="1077.0" y="150.6" width="12" height="6.3" fill="rgb(102,102,102)"/>
<rect x="1077.0" y="145.3" width="12" height="6.3" fill="rgb(99,99,99)"/>
<rect x="1077.0" y="140.0" width="12" height="6.3" fill="rgb(97,97,97)"/>
<text x="1083.0" y="136" text-anchor="middle" font-size="7" fill="#333">Control</text>
</svg>