<svg viewBox="0 0 800 340" xmlns="http://www.w3.org/2000/svg" style="width:100%;max-width:800px;height:auto;font-family:Arial,sans-serif;">
<rect width="800" height="340" fill="white"/>

<g transform="translate(70,30)">
<line x1="0" y1="190.0" x2="710" y2="190.0" stroke="#eee" stroke-width="1"/>
<text x="-8" y="194.0" text-anchor="end" font-size="10" fill="#666">0.00</text>
<line x1="0" y1="152.0" x2="710" y2="152.0" stroke="#eee" stroke-width="1"/>
<text x="-8" y="156.0" text-anchor="end" font-size="10" fill="#666">0.94</text>
<line x1="0" y1="114.0" x2="710" y2="114.0" stroke="#eee" stroke-width="1"/>
<text x="-8" y="118.0" text-anchor="end" font-size="10" fill="#666">1.88</text>
<line x1="0" y1="76.0" x2="710" y2="76.0" stroke="#eee" stroke-width="1"/>
<text x="-8" y="80.0" text-anchor="end" font-size="10" fill="#666">2.82</text>
<line x1="0" y1="38.0" x2="710" y2="38.0" stroke="#eee" stroke-width="1"/>
<text x="-8" y="42.0" text-anchor="end" font-size="10" fill="#666">3.76</text>
<line x1="0" y1="0.0" x2="710" y2="0.0" stroke="#eee" stroke-width="1"/>
<text x="-8" y="4.0" text-anchor="end" font-size="10" fill="#666">4.70</text>
<text x="-50" y="95.0" text-anchor="middle" font-size="11" fill="#333" transform="rotate(-90,-50,95.0)">Mean R² (×10⁻³)</text>
<line x1="177.5" y1="0" x2="177.5" y2="190" stroke="#ddd" stroke-width="1" stroke-dasharray="4,3"/>
<rect x="4.44" y="163.64" width="10.35" height="26.36" fill="#81C784" opacity="0.85"><title>Partner Identity: 0.653 ×10⁻³</title></rect>
<line x1="9.61" y1="169.28" x2="9.61" y2="159.42" stroke="#333" stroke-width="1"/>
<line x1="7.61" y1="169.28" x2="11.61" y2="169.28" stroke="#333" stroke-width="1"/>
<line x1="7.61" y1="159.42" x2="11.61" y2="159.42" stroke="#333" stroke-width="1"/>
<rect x="16.79" y="182.46" width="10.35" height="7.54" fill="#BDBDBD" opacity="0.85"><title>Control: 0.187 ×10⁻³</title></rect>
<line x1="21.97" y1="183.25" x2="21.97" y2="180.52" stroke="#333" stroke-width="1"/>
<line x1="19.97" y1="183.25" x2="23.97" y2="183.25" stroke="#333" stroke-width="1"/>
<line x1="19.97" y1="180.52" x2="23.97" y2="180.52" stroke="#333" stroke-width="1"/>
<text x="16.8" y="204" text-anchor="end" font-size="9" fill="#9E9E9E" transform="rotate(-45,16.8,204)">Human vs AI (general)</text>
<rect x="34.02" y="176.77" width="10.35" height="13.23" fill="#81C784" opacity="0.85"><title>Partner Identity: 0.327 ×10⁻³</title></rect>
<line x1="39.20" y1="178.64" x2="39.20" y2="174.21" stroke="#333" stroke-width="1"/>
<line x1="37.20" y1="178.64" x2="41.20" y2="178.64" stroke="#333" stroke-width="1"/>
<line x1="37.20" y1="174.21" x2="41.20" y2="174.21" stroke="#333" stroke-width="1"/>
<rect x="46.37" y="181.66" width="10.35" height="8.34" fill="#BDBDBD" opacity="0.85"><title>Control: 0.207 ×10⁻³</title></rect>
<line x1="51.55" y1="182.75" x2="51.55" y2="180.55" stroke="#333" stroke-width="1"/>
<line x1="49.55" y1="182.75" x2="53.55" y2="182.75" stroke="#333" stroke-width="1"/>
<line x1="49.55" y1="180.55" x2="53.55" y2="180.55" stroke="#333" stroke-width="1"/>
<text x="46.4" y="204" text-anchor="end" font-size="9" fill="#9E9E9E" transform="rotate(-45,46.4,204)">Biological</text>
<rect x="63.60" y="177.72" width="10.35" height="12.28" fill="#81C784" opacity="0.85"><title>Partner Identity: 0.304 ×10⁻³</title></rect>
<line x1="68.78" y1="183.30" x2="68.78" y2="171.74" stroke="#333" stroke-width="1"/>
<line x1="66.78" y1="183.30" x2="70.78" y2="183.30" stroke="#333" stroke-width="1"/>
<line x1="66.78" y1="171.74" x2="70.78" y2="171.74" stroke="#333" stroke-width="1"/>
<rect x="75.96" y="181.67" width="10.35" height="8.33" fill="#BDBDBD" opacity="0.85"><title>Control: 0.206 ×10⁻³</title></rect>
<line x1="81.14" y1="183.57" x2="81.14" y2="179.47" stroke="#333" stroke-width="1"/>
<line x1="79.14" y1="183.57" x2="83.14" y2="183.57" stroke="#333" stroke-width="1"/>
<line x1="79.14" y1="179.47" x2="83.14" y2="179.47" stroke="#333" stroke-width="1"/>
<text x="76.0" y="204" text-anchor="end" font-size="9" fill="#9E9E9E" transform="rotate(-45,76.0,204)">Shapes</text>
<rect x="93.19" y="182.88" width="10.35" height="7.12" fill="#81C784" opacity="0.85"><title>Partner Identity: 0.176 ×10⁻³</title></rect>
<line x1="98.36" y1="185.69" x2="98.36" y2="173.69" stroke="#333" stroke-width="1"/>
<line x1="96.36" y1="185.69" x2="100.36" y2="185.69" stroke="#333" stroke-width="1"/>
<line x1="96.36" y1="173.69" x2="100.36" y2="173.69" stroke="#333" stroke-width="1"/>
<rect x="105.54" y="182.17" width="10.35" height="7.83" fill="#BDBDBD" opacity="0.85"><title>Control: 0.194 ×10⁻³</title></rect>
<line x1="110.72" y1="184.82" x2="110.72" y2="178.68" stroke="#333" stroke-width="1"/>
<line x1="108.72" y1="184.82" x2="112.72" y2="184.82" stroke="#333" stroke-width="1"/>
<line x1="108.72" y1="178.68" x2="112.72" y2="178.68" stroke="#333" stroke-width="1"/>
<text x="105.5" y="204" text-anchor="end" font-size="9" fill="#9E9E9E" transform="rotate(-45,105.5,204)">Granite/Sandstone</text>
<rect x="122.77" y="181.07" width="10.35" height="8.93" fill="#81C784" opacity="0.85"><title>Partner Identity: 0.221 ×10⁻³</title></rect>
<line x1="127.95" y1="183.22" x2="127.95" y2="174.29" stroke="#333" stroke-width="1"/>
<line x1="125.95" y1="183.22" x2="129.95" y2="183.22" stroke="#333" stroke-width="1"/>
<line x1="125.95" y1="174.29" x2="129.95" y2="174.29" stroke="#333" stroke-width="1"/>
<rect x="135.12" y="181.08" width="10.35" height="8.92" fill="#BDBDBD" opacity="0.85"><title>Control: 0.221 ×10⁻³</title></rect>
<line x1="140.30" y1="183.98" x2="140.30" y2="179.24" stroke="#333" stroke-width="1"/>
<line x1="138.30" y1="183.98" x2="142.30" y2="183.98" stroke="#333" stroke-width="1"/>
<line x1="138.30" y1="179.24" x2="142.30" y2="179.24" stroke="#333" stroke-width="1"/>
<text x="135.1" y="204" text-anchor="end" font-size="9" fill="#9E9E9E" transform="rotate(-45,135.1,204)">Squares/Triangles</text>
<rect x="152.35" y="182.11" width="10.35" height="7.89" fill="#81C784" opacity="0.85"><title>Partner Identity: 0.195 ×10⁻³</title></rect>
<line x1="157.53" y1="185.27" x2="157.53" y2="170.82" stroke="#333" stroke-width="1"/>
<line x1="155.53" y1="185.27" x2="159.53" y2="185.27" stroke="#333" stroke-width="1"/>
<line x1="155.53" y1="170.82" x2="159.53" y2="170.82" stroke="#333" stroke-width="1"/>
<rect x="164.71" y="177.33" width="10.35" height="12.67" fill="#BDBDBD" opacity="0.85"><title>Control: 0.314 ×10⁻³</title></rect>
<line x1="169.89" y1="183.62" x2="169.89" y2="175.30" stroke="#333" stroke-width="1"/>
<line x1="167.89" y1="183.62" x2="171.89" y2="183.62" stroke="#333" stroke-width="1"/>
<line x1="167.89" y1="175.30" x2="171.89" y2="175.30" stroke="#333" stroke-width="1"/>
<text x="164.7" y="204" text-anchor="end" font-size="9" fill="#9E9E9E" transform="rotate(-45,164.7,204)">Horizontal/Vertical</text>
<rect x="181.94" y="153.33" width="10.35" height="36.67" fill="#81C784" opacity="0.85"><title>Partner Identity: 0.908 ×10⁻³</title></rect>
<line x1="187.11" y1="161.03" x2="187.11" y2="147.37" stroke="#333" stroke-width="1"/>
<line x1="185.11" y1="161.03" x2="189.11" y2="161.03" stroke="#333" stroke-width="1"/>
<line x1="185.11" y1="147.37" x2="189.11" y2="147.37" stroke="#333" stroke-width="1"/>
<rect x="194.29" y="180.77" width="10.35" height="9.23" fill="#BDBDBD" opacity="0.85"><title>Control: 0.228 ×10⁻³</title></rect>
<line x1="199.47" y1="182.34" x2="199.47" y2="179.11" stroke="#333" stroke-width="1"/>
<line x1="197.47" y1="182.34" x2="201.47" y2="182.34" stroke="#333" stroke-width="1"/>
<line x1="197.47" y1="179.11" x2="201.47" y2="179.11" stroke="#333" stroke-width="1"/>
<text x="194.3" y="204" text-anchor="end" font-size="9" fill="#2196F3" transform="rotate(-45,194.3,204)">Attention</text>
<rect x="211.52" y="161.35" width="10.35" height="28.65" fill="#81C784" opacity="0.85"><title>Partner Identity: 0.709 ×10⁻³</title></rect>
<line x1="216.70" y1="169.45" x2="216.70" y2="146.96" stroke="#333" stroke-width="1"/>
<line x1="214.70" y1="169.45" x2="218.70" y2="169.45" stroke="#333" stroke-width="1"/>
<line x1="214.70" y1="146.96" x2="218.70" y2="146.96" stroke="#333" stroke-width="1"/>
<rect x="223.87" y="183.22" width="10.35" height="6.78" fill="#BDBDBD" opacity="0.85"><title>Control: 0.168 ×10⁻³</title></rect>
<line x1="229.05" y1="184.19" x2="229.05" y2="181.11" stroke="#333" stroke-width="1"/>
<line x1="227.05" y1="184.19" x2="231.05" y2="184.19" stroke="#333" stroke-width="1"/>
<line x1="227.05" y1="181.11" x2="231.05" y2="181.11" stroke="#333" stroke-width="1"/>
<text x="223.9" y="204" text-anchor="end" font-size="9" fill="#2196F3" transform="rotate(-45,223.9,204)">Social</text>
<rect x="241.10" y="155.17" width="10.35" height="34.83" fill="#81C784" opacity="0.85"><title>Partner Identity: 0.862 ×10⁻³</title></rect>
<line x1="246.28" y1="164.08" x2="246.28" y2="149.26" stroke="#333" stroke-width="1"/>
<line x1="244.28" y1="164.08" x2="248.28" y2="164.08" stroke="#333" stroke-width="1"/>
<line x1="244.28" y1="149.26" x2="248.28" y2="149.26" stroke="#333" stroke-width="1"/>
<rect x="253.46" y="179.77" width="10.35" height="10.23" fill="#BDBDBD" opacity="0.85"><title>Control: 0.253 ×10⁻³</title></rect>
<line x1="258.64" y1="181.91" x2="258.64" y2="178.36" stroke="#333" stroke-width="1"/>
<line x1="256.64" y1="181.91" x2="260.64" y2="181.91" stroke="#333" stroke-width="1"/>
<line x1="256.64" y1="178.36" x2="260.64" y2="178.36" stroke="#333" stroke-width="1"/>
<text x="253.5" y="204" text-anchor="end" font-size="9" fill="#2196F3" transform="rotate(-45,253.5,204)">Cognitive</text>
<rect x="270.69" y="159.94" width="10.35" height="30.06" fill="#81C784" opacity="0.85"><title>Partner Identity: 0.744 ×10⁻³</title></rect>
<line x1="275.86" y1="168.41" x2="275.86" y2="151.06" stroke="#333" stroke-width="1"/>
<line x1="273.86" y1="168.41" x2="277.86" y2="168.41" stroke="#333" stroke-width="1"/>
<line x1="273.86" y1="151.06" x2="277.86" y2="151.06" stroke="#333" stroke-width="1"/>
<rect x="283.04" y="183.36" width="10.35" height="6.64" fill="#BDBDBD" opacity="0.85"><title>Control: 0.164 ×10⁻³</title></rect>
<line x1="288.22" y1="184.15" x2="288.22" y2="182.26" stroke="#333" stroke-width="1"/>
<line x1="286.22" y1="184.15" x2="290.22" y2="184.15" stroke="#333" stroke-width="1"/>
<line x1="286.22" y1="182.26" x2="290.22" y2="182.26" stroke="#333" stroke-width="1"/>
<text x="283.0" y="204" text-anchor="end" font-size="9" fill="#2196F3" transform="rotate(-45,283.0,204)">Goals</text>
<rect x="300.27" y="161.05" width="10.35" height="28.95" fill="#81C784" opacity="0.85"><title>Partner Identity: 0.717 ×10⁻³</title></rect>
<line x1="305.45" y1="166.58" x2="305.45" y2="153.87" stroke="#333" stroke-width="1"/>
<line x1="303.45" y1="166.58" x2="307.45" y2="166.58" stroke="#333" stroke-width="1"/>
<line x1="303.45" y1="153.87" x2="307.45" y2="153.87" stroke="#333" stroke-width="1"/>
<rect x="312.62" y="182.81" width="10.35" height="7.19" fill="#BDBDBD" opacity="0.85"><title>Control: 0.178 ×10⁻³</title></rect>
<line x1="317.80" y1="183.87" x2="317.80" y2="181.10" stroke="#333" stroke-width="1"/>
<line x1="315.80" y1="183.87" x2="319.80" y2="183.87" stroke="#333" stroke-width="1"/>
<line x1="315.80" y1="181.10" x2="319.80" y2="181.10" stroke="#333" stroke-width="1"/>
<text x="312.6" y="204" text-anchor="end" font-size="9" fill="#2196F3" transform="rotate(-45,312.6,204)">Prediction</text>
<rect x="329.85" y="167.90" width="10.35" height="22.10" fill="#81C784" opacity="0.85"><title>Partner Identity: 0.547 ×10⁻³</title></rect>
<line x1="335.03" y1="173.60" x2="335.03" y2="159.99" stroke="#333" stroke-width="1"/>
<line x1="333.03" y1="173.60" x2="337.03" y2="173.60" stroke="#333" stroke-width="1"/>
<line x1="333.03" y1="159.99" x2="337.03" y2="159.99" stroke="#333" stroke-width="1"/>
<rect x="342.21" y="178.61" width="10.35" height="11.39" fill="#BDBDBD" opacity="0.85"><title>Control: 0.282 ×10⁻³</title></rect>
<line x1="347.39" y1="180.77" x2="347.39" y2="177.17" stroke="#333" stroke-width="1"/>
<line x1="345.39" y1="180.77" x2="349.39" y2="180.77" stroke="#333" stroke-width="1"/>
<line x1="345.39" y1="177.17" x2="349.39" y2="177.17" stroke="#333" stroke-width="1"/>
<text x="342.2" y="204" text-anchor="end" font-size="9" fill="#2196F3" transform="rotate(-45,342.2,204)">Beliefs</text>
<rect x="359.44" y="162.76" width="10.35" height="27.24" fill="#81C784" opacity="0.85"><title>Partner Identity: 0.675 ×10⁻³</title></rect>
<line x1="364.61" y1="171.46" x2="364.61" y2="153.10" stroke="#333" stroke-width="1"/>
<line x1="362.61" y1="171.46" x2="366.61" y2="171.46" stroke="#333" stroke-width="1"/>
<line x1="362.61" y1="153.10" x2="366.61" y2="153.10" stroke="#333" stroke-width="1"/>
<rect x="371.79" y="183.19" width="10.35" height="6.81" fill="#BDBDBD" opacity="0.85"><title>Control: 0.169 ×10⁻³</title></rect>
<line x1="376.97" y1="183.94" x2="376.97" y2="181.92" stroke="#333" stroke-width="1"/>
<line x1="374.97" y1="183.94" x2="378.97" y2="183.94" stroke="#333" stroke-width="1"/>
<line x1="374.97" y1="181.92" x2="378.97" y2="181.92" stroke="#333" stroke-width="1"/>
<text x="371.8" y="204" text-anchor="end" font-size="9" fill="#2196F3" transform="rotate(-45,371.8,204)">Intentions</text>
<rect x="389.02" y="168.20" width="10.35" height="21.80" fill="#81C784" opacity="0.85"><title>Partner Identity: 0.540 ×10⁻³</title></rect>
<line x1="394.20" y1="174.18" x2="394.20" y2="159.57" stroke="#333" stroke-width="1"/>
<line x1="392.20" y1="174.18" x2="396.20" y2="174.18" stroke="#333" stroke-width="1"/>
<line x1="392.20" y1="159.57" x2="396.20" y2="159.57" stroke="#333" stroke-width="1"/>
<rect x="401.38" y="184.23" width="10.35" height="5.77" fill="#BDBDBD" opacity="0.85"><title>Control: 0.143 ×10⁻³</title></rect>
<line x1="406.55" y1="185.16" x2="406.55" y2="182.36" stroke="#333" stroke-width="1"/>
<line x1="404.55" y1="185.16" x2="408.55" y2="185.16" stroke="#333" stroke-width="1"/>
<line x1="404.55" y1="182.36" x2="408.55" y2="182.36" stroke="#333" stroke-width="1"/>
<text x="401.4" y="204" text-anchor="end" font-size="9" fill="#2196F3" transform="rotate(-45,401.4,204)">Agency</text>
<rect x="418.60" y="166.53" width="10.35" height="23.47" fill="#81C784" opacity="0.85"><title>Partner Identity: 0.581 ×10⁻³</title></rect>
<line x1="423.78" y1="171.11" x2="423.78" y2="161.88" stroke="#333" stroke-width="1"/>
<line x1="421.78" y1="171.11" x2="425.78" y2="171.11" stroke="#333" stroke-width="1"/>
<line x1="421.78" y1="161.88" x2="425.78" y2="161.88" stroke="#333" stroke-width="1"/>
<rect x="430.96" y="183.35" width="10.35" height="6.65" fill="#BDBDBD" opacity="0.85"><title>Control: 0.165 ×10⁻³</title></rect>
<line x1="436.14" y1="184.14" x2="436.14" y2="181.90" stroke="#333" stroke-width="1"/>
<line x1="434.14" y1="184.14" x2="438.14" y2="184.14" stroke="#333" stroke-width="1"/>
<line x1="434.14" y1="181.90" x2="438.14" y2="181.90" stroke="#333" stroke-width="1"/>
<text x="431.0" y="204" text-anchor="end" font-size="9" fill="#2196F3" transform="rotate(-45,431.0,204)">Roles</text>
<rect x="448.19" y="170.07" width="10.35" height="19.93" fill="#81C784" opacity="0.85"><title>Partner Identity: 0.493 ×10⁻³</title></rect>
<line x1="453.36" y1="174.24" x2="453.36" y2="165.30" stroke="#333" stroke-width="1"/>
<line x1="451.36" y1="174.24" x2="455.36" y2="174.24" stroke="#333" stroke-width="1"/>
<line x1="451.36" y1="165.30" x2="455.36" y2="165.30" stroke="#333" stroke-width="1"/>
<rect x="460.54" y="181.45" width="10.35" height="8.55" fill="#BDBDBD" opacity="0.85"><title>Control: 0.212 ×10⁻³</title></rect>
<line x1="465.72" y1="182.85" x2="465.72" y2="180.07" stroke="#333" stroke-width="1"/>
<line x1="463.72" y1="182.85" x2="467.72" y2="182.85" stroke="#333" stroke-width="1"/>
<line x1="463.72" y1="180.07" x2="467.72" y2="180.07" stroke="#333" stroke-width="1"/>
<text x="460.5" y="204" text-anchor="end" font-size="9" fill="#2196F3" transform="rotate(-45,460.5,204)">Desires</text>
<rect x="477.77" y="172.13" width="10.35" height="17.87" fill="#81C784" opacity="0.85"><title>Partner Identity: 0.443 ×10⁻³</title></rect>
<line x1="482.95" y1="175.78" x2="482.95" y2="168.30" stroke="#333" stroke-width="1"/>
<line x1="480.95" y1="175.78" x2="484.95" y2="175.78" stroke="#333" stroke-width="1"/>
<line x1="480.95" y1="168.30" x2="484.95" y2="168.30" stroke="#333" stroke-width="1"/>
<rect x="490.12" y="181.42" width="10.35" height="8.58" fill="#BDBDBD" opacity="0.85"><title>Control: 0.212 ×10⁻³</title></rect>
<line x1="495.30" y1="182.74" x2="495.30" y2="180.25" stroke="#333" stroke-width="1"/>
<line x1="493.30" y1="182.74" x2="497.30" y2="182.74" stroke="#333" stroke-width="1"/>
<line x1="493.30" y1="180.25" x2="497.30" y2="180.25" stroke="#333" stroke-width="1"/>
<text x="490.1" y="204" text-anchor="end" font-size="9" fill="#2196F3" transform="rotate(-45,490.1,204)">Phenomenology</text>
<rect x="507.35" y="171.80" width="10.35" height="18.20" fill="#81C784" opacity="0.85"><title>Partner Identity: 0.451 ×10⁻³</title></rect>
<line x1="512.53" y1="175.25" x2="512.53" y2="167.95" stroke="#333" stroke-width="1"/>
<line x1="510.53" y1="175.25" x2="514.53" y2="175.25" stroke="#333" stroke-width="1"/>
<line x1="510.53" y1="167.95" x2="514.53" y2="167.95" stroke="#333" stroke-width="1"/>
<rect x="519.71" y="183.10" width="10.35" height="6.90" fill="#BDBDBD" opacity="0.85"><title>Control: 0.171 ×10⁻³</title></rect>
<line x1="524.89" y1="183.91" x2="524.89" y2="182.00" stroke="#333" stroke-width="1"/>
<line x1="522.89" y1="183.91" x2="526.89" y2="183.91" stroke="#333" stroke-width="1"/>
<line x1="522.89" y1="182.00" x2="526.89" y2="182.00" stroke="#333" stroke-width="1"/>
<text x="519.7" y="204" text-anchor="end" font-size="9" fill="#2196F3" transform="rotate(-45,519.7,204)">Emotions</text>
<rect x="536.94" y="177.56" width="10.35" height="12.44" fill="#81C784" opacity="0.85"><title>Partner Identity: 0.308 ×10⁻³</title></rect>
<line x1="542.11" y1="179.49" x2="542.11" y2="174.96" stroke="#333" stroke-width="1"/>
<line x1="540.11" y1="179.49" x2="544.11" y2="179.49" stroke="#333" stroke-width="1"/>
<line x1="540.11" y1="174.96" x2="544.11" y2="174.96" stroke="#333" stroke-width="1"/>
<rect x="549.29" y="181.66" width="10.35" height="8.34" fill="#BDBDBD" opacity="0.85"><title>Control: 0.207 ×10⁻³</title></rect>
<line x1="554.47" y1="182.93" x2="554.47" y2="180.43" stroke="#333" stroke-width="1"/>
<line x1="552.47" y1="182.93" x2="556.47" y2="182.93" stroke="#333" stroke-width="1"/>
<line x1="552.47" y1="180.43" x2="556.47" y2="180.43" stroke="#333" stroke-width="1"/>
<text x="549.3" y="204" text-anchor="end" font-size="9" fill="#2196F3" transform="rotate(-45,549.3,204)">Embodiment</text>
<rect x="566.52" y="172.85" width="10.35" height="17.15" fill="#81C784" opacity="0.85"><title>Partner Identity: 0.425 ×10⁻³</title></rect>
<line x1="571.70" y1="176.86" x2="571.70" y2="169.37" stroke="#333" stroke-width="1"/>
<line x1="569.70" y1="176.86" x2="573.70" y2="176.86" stroke="#333" stroke-width="1"/>
<line x1="569.70" y1="169.37" x2="573.70" y2="169.37" stroke="#333" stroke-width="1"/>
<rect x="578.87" y="180.09" width="10.35" height="9.91" fill="#BDBDBD" opacity="0.85"><title>Control: 0.245 ×10⁻³</title></rect>
<line x1="584.05" y1="181.27" x2="584.05" y2="179.10" stroke="#333" stroke-width="1"/>
<line x1="582.05" y1="181.27" x2="586.05" y2="181.27" stroke="#333" stroke-width="1"/>
<line x1="582.05" y1="179.10" x2="586.05" y2="179.10" stroke="#333" stroke-width="1"/>
<text x="578.9" y="204" text-anchor="end" font-size="9" fill="#2196F3" transform="rotate(-45,578.9,204)">Animacy</text>
<rect x="596.10" y="171.62" width="10.35" height="18.38" fill="#81C784" opacity="0.85"><title>Partner Identity: 0.455 ×10⁻³</title></rect>
<line x1="601.28" y1="174.94" x2="601.28" y2="168.12" stroke="#333" stroke-width="1"/>
<line x1="599.28" y1="174.94" x2="603.28" y2="174.94" stroke="#333" stroke-width="1"/>
<line x1="599.28" y1="168.12" x2="603.28" y2="168.12" stroke="#333" stroke-width="1"/>
<rect x="608.46" y="178.57" width="10.35" height="11.43" fill="#BDBDBD" opacity="0.85"><title>Control: 0.283 ×10⁻³</title></rect>
<line x1="613.64" y1="179.55" x2="613.64" y2="177.64" stroke="#333" stroke-width="1"/>
<line x1="611.64" y1="179.55" x2="615.64" y2="179.55" stroke="#333" stroke-width="1"/>
<line x1="611.64" y1="177.64" x2="615.64" y2="177.64" stroke="#333" stroke-width="1"/>
<text x="608.5" y="204" text-anchor="end" font-size="9" fill="#FF9800" transform="rotate(-45,608.5,204)">Expertise</text>
<rect x="625.69" y="177.32" width="10.35" height="12.68" fill="#81C784" opacity="0.85"><title>Partner Identity: 0.314 ×10⁻³</title></rect>
<line x1="630.86" y1="182.22" x2="630.86" y2="172.49" stroke="#333" stroke-width="1"/>
<line x1="628.86" y1="182.22" x2="632.86" y2="182.22" stroke="#333" stroke-width="1"/>
<line x1="628.86" y1="172.49" x2="632.86" y2="172.49" stroke="#333" stroke-width="1"/>
<rect x="638.04" y="179.77" width="10.35" height="10.23" fill="#BDBDBD" opacity="0.85"><title>Control: 0.253 ×10⁻³</title></rect>
<line x1="643.22" y1="182.15" x2="643.22" y2="177.77" stroke="#333" stroke-width="1"/>
<line x1="641.22" y1="182.15" x2="645.22" y2="182.15" stroke="#333" stroke-width="1"/>
<line x1="641.22" y1="177.77" x2="645.22" y2="177.77" stroke="#333" stroke-width="1"/>
<text x="638.0" y="204" text-anchor="end" font-size="9" fill="#FF9800" transform="rotate(-45,638.0,204)">Formality</text>
<rect x="655.27" y="178.02" width="10.35" height="11.98" fill="#81C784" opacity="0.85"><title>Partner Identity: 0.297 ×10⁻³</title></rect>
<line x1="660.45" y1="183.48" x2="660.45" y2="171.69" stroke="#333" stroke-width="1"/>
<line x1="658.45" y1="183.48" x2="662.45" y2="183.48" stroke="#333" stroke-width="1"/>
<line x1="658.45" y1="171.69" x2="662.45" y2="171.69" stroke="#333" stroke-width="1"/>
<rect x="667.62" y="179.64" width="10.35" height="10.36" fill="#BDBDBD" opacity="0.85"><title>Control: 0.257 ×10⁻³</title></rect>
<line x1="672.80" y1="182.53" x2="672.80" y2="178.12" stroke="#333" stroke-width="1"/>
<line x1="670.80" y1="182.53" x2="674.80" y2="182.53" stroke="#333" stroke-width="1"/>
<line x1="670.80" y1="178.12" x2="674.80" y2="178.12" stroke="#333" stroke-width="1"/>
<text x="667.6" y="204" text-anchor="end" font-size="9" fill="#FF9800" transform="rotate(-45,667.6,204)">Helpfulness</text>
<rect x="684.85" y="153.96" width="10.35" height="36.04" fill="#81C784" opacity="0.85"><title>Partner Identity: 0.893 ×10⁻³</title></rect>
<line x1="690.03" y1="161.52" x2="690.03" y2="142.64" stroke="#333" stroke-width="1"/>
<line x1="688.03" y1="161.52" x2="692.03" y2="161.52" stroke="#333" stroke-width="1"/>
<line x1="688.03" y1="142.64" x2="692.03" y2="142.64" stroke="#333" stroke-width="1"/>
<rect x="697.21" y="182.08" width="10.35" height="7.92" fill="#BDBDBD" opacity="0.85"><title>Control: 0.196 ×10⁻³</title></rect>
<line x1="702.39" y1="182.98" x2="702.39" y2="181.11" stroke="#333" stroke-width="1"/>
<line x1="700.39" y1="182.98" x2="704.39" y2="182.98" stroke="#333" stroke-width="1"/>
<line x1="700.39" y1="181.11" x2="704.39" y2="181.11" stroke="#333" stroke-width="1"/>
<text x="697.2" y="204" text-anchor="end" font-size="9" fill="#00BCD4" transform="rotate(-45,697.2,204)">SysPrompt</text>
<line x1="0" y1="190" x2="710" y2="190" stroke="#333"/>
<line x1="0" y1="0" x2="0" y2="190" stroke="#333"/>
</g>
<rect x="70" y="320" width="10" height="10" fill="#81C784"/>
<text x="84" y="328" font-size="9" fill="#333">Partner Identity</text>
<rect x="210" y="320" width="10" height="10" fill="#BDBDBD"/>
<text x="224" y="328" font-size="9" fill="#333">Control</text>
</svg>