<svg viewBox="0 0 800 340" xmlns="http://www.w3.org/2000/svg" style="width:100%;max-width:800px;height:auto;font-family:Arial,sans-serif;">
<rect width="800" height="340" fill="white"/>

<g transform="translate(70,30)">
<line x1="0" y1="190.0" x2="710" y2="190.0" stroke="#eee" stroke-width="1"/>
<text x="-8" y="194.0" text-anchor="end" font-size="10" fill="#666">0.00</text>
<line x1="0" y1="152.0" x2="710" y2="152.0" stroke="#eee" stroke-width="1"/>
<text x="-8" y="156.0" text-anchor="end" font-size="10" fill="#666">0.94</text>
<line x1="0" y1="114.0" x2="710" y2="114.0" stroke="#eee" stroke-width="1"/>
<text x="-8" y="118.0" text-anchor="end" font-size="10" fill="#666">1.88</text>
<line x1="0" y1="76.0" x2="710" y2="76.0" stroke="#eee" stroke-width="1"/>
<text x="-8" y="80.0" text-anchor="end" font-size="10" fill="#666">2.82</text>
<line x1="0" y1="38.0" x2="710" y2="38.0" stroke="#eee" stroke-width="1"/>
<text x="-8" y="42.0" text-anchor="end" font-size="10" fill="#666">3.76</text>
<line x1="0" y1="0.0" x2="710" y2="0.0" stroke="#eee" stroke-width="1"/>
<text x="-8" y="4.0" text-anchor="end" font-size="10" fill="#666">4.70</text>
<text x="-50" y="95.0" text-anchor="middle" font-size="11" fill="#333" transform="rotate(-90,-50,95.0)">Mean R² (×10⁻³)</text>
<line x1="118.33333333333333" y1="0" x2="118.33333333333333" y2="190" stroke="#ddd" stroke-width="1" stroke-dasharray="4,3"/>
<rect x="5.92" y="73.43" width="13.81" height="116.57" fill="#2E7D32" opacity="0.85"><title>Partner Identity: 2.886 ×10⁻³</title></rect>
<line x1="12.82" y1="100.94" x2="12.82" y2="59.91" stroke="#333" stroke-width="1"/>
<line x1="10.82" y1="100.94" x2="14.82" y2="100.94" stroke="#333" stroke-width="1"/>
<line x1="10.82" y1="59.91" x2="14.82" y2="59.91" stroke="#333" stroke-width="1"/>
<rect x="21.72" y="184.21" width="13.81" height="5.79" fill="#616161" opacity="0.85"><title>Control: 0.143 ×10⁻³</title></rect>
<line x1="28.62" y1="184.85" x2="28.62" y2="182.21" stroke="#333" stroke-width="1"/>
<line x1="26.62" y1="184.85" x2="30.62" y2="184.85" stroke="#333" stroke-width="1"/>
<line x1="26.62" y1="182.21" x2="30.62" y2="182.21" stroke="#333" stroke-width="1"/>
<text x="21.7" y="204" text-anchor="end" font-size="9" fill="#9E9E9E" transform="rotate(-45,21.7,204)">Human vs AI (general)</text>
<rect x="45.36" y="148.05" width="13.81" height="41.95" fill="#2E7D32" opacity="0.85"><title>Partner Identity: 1.039 ×10⁻³</title></rect>
<line x1="52.26" y1="154.64" x2="52.26" y2="141.53" stroke="#333" stroke-width="1"/>
<line x1="50.26" y1="154.64" x2="54.26" y2="154.64" stroke="#333" stroke-width="1"/>
<line x1="50.26" y1="141.53" x2="54.26" y2="141.53" stroke="#333" stroke-width="1"/>
<rect x="61.17" y="181.07" width="13.81" height="8.93" fill="#616161" opacity="0.85"><title>Control: 0.221 ×10⁻³</title></rect>
<line x1="68.07" y1="182.04" x2="68.07" y2="180.18" stroke="#333" stroke-width="1"/>
<line x1="66.07" y1="182.04" x2="70.07" y2="182.04" stroke="#333" stroke-width="1"/>
<line x1="66.07" y1="180.18" x2="70.07" y2="180.18" stroke="#333" stroke-width="1"/>
<text x="61.2" y="204" text-anchor="end" font-size="9" fill="#9E9E9E" transform="rotate(-45,61.2,204)">Biological</text>
<rect x="84.81" y="180.11" width="13.81" height="9.89" fill="#2E7D32" opacity="0.85"><title>Partner Identity: 0.245 ×10⁻³</title></rect>
<line x1="91.71" y1="184.41" x2="91.71" y2="173.56" stroke="#333" stroke-width="1"/>
<line x1="89.71" y1="184.41" x2="93.71" y2="184.41" stroke="#333" stroke-width="1"/>
<line x1="89.71" y1="173.56" x2="93.71" y2="173.56" stroke="#333" stroke-width="1"/>
<rect x="100.61" y="182.31" width="13.81" height="7.69" fill="#616161" opacity="0.85"><title>Control: 0.190 ×10⁻³</title></rect>
<line x1="107.51" y1="184.86" x2="107.51" y2="180.05" stroke="#333" stroke-width="1"/>
<line x1="105.51" y1="184.86" x2="109.51" y2="184.86" stroke="#333" stroke-width="1"/>
<line x1="105.51" y1="180.05" x2="109.51" y2="180.05" stroke="#333" stroke-width="1"/>
<text x="100.6" y="204" text-anchor="end" font-size="9" fill="#9E9E9E" transform="rotate(-45,100.6,204)">Shapes</text>
<rect x="124.25" y="104.88" width="13.81" height="85.12" fill="#2E7D32" opacity="0.85"><title>Partner Identity: 2.108 ×10⁻³</title></rect>
<line x1="131.15" y1="120.69" x2="131.15" y2="95.82" stroke="#333" stroke-width="1"/>
<line x1="129.15" y1="120.69" x2="133.15" y2="120.69" stroke="#333" stroke-width="1"/>
<line x1="129.15" y1="95.82" x2="133.15" y2="95.82" stroke="#333" stroke-width="1"/>
<rect x="140.06" y="179.22" width="13.81" height="10.78" fill="#616161" opacity="0.85"><title>Control: 0.267 ×10⁻³</title></rect>
<line x1="146.96" y1="181.11" x2="146.96" y2="177.83" stroke="#333" stroke-width="1"/>
<line x1="144.96" y1="181.11" x2="148.96" y2="181.11" stroke="#333" stroke-width="1"/>
<line x1="144.96" y1="177.83" x2="148.96" y2="177.83" stroke="#333" stroke-width="1"/>
<text x="140.1" y="204" text-anchor="end" font-size="9" fill="#2196F3" transform="rotate(-45,140.1,204)">Phenomenology</text>
<rect x="163.69" y="109.29" width="13.81" height="80.71" fill="#2E7D32" opacity="0.85"><title>Partner Identity: 1.999 ×10⁻³</title></rect>
<line x1="170.60" y1="123.27" x2="170.60" y2="98.39" stroke="#333" stroke-width="1"/>
<line x1="168.60" y1="123.27" x2="172.60" y2="123.27" stroke="#333" stroke-width="1"/>
<line x1="168.60" y1="98.39" x2="172.60" y2="98.39" stroke="#333" stroke-width="1"/>
<rect x="179.50" y="176.28" width="13.81" height="13.72" fill="#616161" opacity="0.85"><title>Control: 0.340 ×10⁻³</title></rect>
<line x1="186.40" y1="178.09" x2="186.40" y2="175.14" stroke="#333" stroke-width="1"/>
<line x1="184.40" y1="178.09" x2="188.40" y2="178.09" stroke="#333" stroke-width="1"/>
<line x1="184.40" y1="175.14" x2="188.40" y2="175.14" stroke="#333" stroke-width="1"/>
<text x="179.5" y="204" text-anchor="end" font-size="9" fill="#2196F3" transform="rotate(-45,179.5,204)">Emotions</text>
<rect x="203.14" y="85.93" width="13.81" height="104.07" fill="#2E7D32" opacity="0.85"><title>Partner Identity: 2.577 ×10⁻³</title></rect>
<line x1="210.04" y1="107.41" x2="210.04" y2="69.42" stroke="#333" stroke-width="1"/>
<line x1="208.04" y1="107.41" x2="212.04" y2="107.41" stroke="#333" stroke-width="1"/>
<line x1="208.04" y1="69.42" x2="212.04" y2="69.42" stroke="#333" stroke-width="1"/>
<rect x="218.94" y="174.71" width="13.81" height="15.29" fill="#616161" opacity="0.85"><title>Control: 0.379 ×10⁻³</title></rect>
<line x1="225.85" y1="177.07" x2="225.85" y2="173.52" stroke="#333" stroke-width="1"/>
<line x1="223.85" y1="177.07" x2="227.85" y2="177.07" stroke="#333" stroke-width="1"/>
<line x1="223.85" y1="173.52" x2="227.85" y2="173.52" stroke="#333" stroke-width="1"/>
<text x="218.9" y="204" text-anchor="end" font-size="9" fill="#2196F3" transform="rotate(-45,218.9,204)">Agency</text>
<rect x="242.58" y="75.34" width="13.81" height="114.66" fill="#2E7D32" opacity="0.85"><title>Partner Identity: 2.839 ×10⁻³</title></rect>
<line x1="249.49" y1="100.41" x2="249.49" y2="59.97" stroke="#333" stroke-width="1"/>
<line x1="247.49" y1="100.41" x2="251.49" y2="100.41" stroke="#333" stroke-width="1"/>
<line x1="247.49" y1="59.97" x2="251.49" y2="59.97" stroke="#333" stroke-width="1"/>
<rect x="258.39" y="174.55" width="13.81" height="15.45" fill="#616161" opacity="0.85"><title>Control: 0.383 ×10⁻³</title></rect>
<line x1="265.29" y1="176.94" x2="265.29" y2="173.23" stroke="#333" stroke-width="1"/>
<line x1="263.29" y1="176.94" x2="267.29" y2="176.94" stroke="#333" stroke-width="1"/>
<line x1="263.29" y1="173.23" x2="267.29" y2="173.23" stroke="#333" stroke-width="1"/>
<text x="258.4" y="204" text-anchor="end" font-size="9" fill="#2196F3" transform="rotate(-45,258.4,204)">Intentions</text>
<rect x="282.03" y="69.37" width="13.81" height="120.63" fill="#2E7D32" opacity="0.85"><title>Partner Identity: 2.987 ×10⁻³</title></rect>
<line x1="288.93" y1="92.30" x2="288.93" y2="52.30" stroke="#333" stroke-width="1"/>
<line x1="286.93" y1="92.30" x2="290.93" y2="92.30" stroke="#333" stroke-width="1"/>
<line x1="286.93" y1="52.30" x2="290.93" y2="52.30" stroke="#333" stroke-width="1"/>
<rect x="297.83" y="177.37" width="13.81" height="12.63" fill="#616161" opacity="0.85"><title>Control: 0.313 ×10⁻³</title></rect>
<line x1="304.74" y1="179.58" x2="304.74" y2="175.96" stroke="#333" stroke-width="1"/>
<line x1="302.74" y1="179.58" x2="306.74" y2="179.58" stroke="#333" stroke-width="1"/>
<line x1="302.74" y1="175.96" x2="306.74" y2="175.96" stroke="#333" stroke-width="1"/>
<text x="297.8" y="204" text-anchor="end" font-size="9" fill="#2196F3" transform="rotate(-45,297.8,204)">Prediction</text>
<rect x="321.47" y="63.12" width="13.81" height="126.88" fill="#2E7D32" opacity="0.85"><title>Partner Identity: 3.142 ×10⁻³</title></rect>
<line x1="328.38" y1="83.31" x2="328.38" y2="51.51" stroke="#333" stroke-width="1"/>
<line x1="326.38" y1="83.31" x2="330.38" y2="83.31" stroke="#333" stroke-width="1"/>
<line x1="326.38" y1="51.51" x2="330.38" y2="51.51" stroke="#333" stroke-width="1"/>
<rect x="337.28" y="178.84" width="13.81" height="11.16" fill="#616161" opacity="0.85"><title>Control: 0.276 ×10⁻³</title></rect>
<line x1="344.18" y1="181.15" x2="344.18" y2="176.23" stroke="#333" stroke-width="1"/>
<line x1="342.18" y1="181.15" x2="346.18" y2="181.15" stroke="#333" stroke-width="1"/>
<line x1="342.18" y1="176.23" x2="346.18" y2="176.23" stroke="#333" stroke-width="1"/>
<text x="337.3" y="204" text-anchor="end" font-size="9" fill="#2196F3" transform="rotate(-45,337.3,204)">Cognitive</text>
<rect x="360.92" y="54.07" width="13.81" height="135.93" fill="#2E7D32" opacity="0.85"><title>Partner Identity: 3.366 ×10⁻³</title></rect>
<line x1="367.82" y1="81.21" x2="367.82" y2="31.07" stroke="#333" stroke-width="1"/>
<line x1="365.82" y1="81.21" x2="369.82" y2="81.21" stroke="#333" stroke-width="1"/>
<line x1="365.82" y1="31.07" x2="369.82" y2="31.07" stroke="#333" stroke-width="1"/>
<rect x="376.72" y="178.23" width="13.81" height="11.77" fill="#616161" opacity="0.85"><title>Control: 0.291 ×10⁻³</title></rect>
<line x1="383.62" y1="180.92" x2="383.62" y2="176.70" stroke="#333" stroke-width="1"/>
<line x1="381.62" y1="180.92" x2="385.62" y2="180.92" stroke="#333" stroke-width="1"/>
<line x1="381.62" y1="176.70" x2="385.62" y2="176.70" stroke="#333" stroke-width="1"/>
<text x="376.7" y="204" text-anchor="end" font-size="9" fill="#2196F3" transform="rotate(-45,376.7,204)">Social</text>
<rect x="400.36" y="47.04" width="13.81" height="142.96" fill="#2E7D32" opacity="0.85"><title>Partner Identity: 3.540 ×10⁻³</title></rect>
<line x1="407.26" y1="73.07" x2="407.26" y2="32.61" stroke="#333" stroke-width="1"/>
<line x1="405.26" y1="73.07" x2="409.26" y2="73.07" stroke="#333" stroke-width="1"/>
<line x1="405.26" y1="32.61" x2="409.26" y2="32.61" stroke="#333" stroke-width="1"/>
<rect x="416.17" y="178.88" width="13.81" height="11.12" fill="#616161" opacity="0.85"><title>Control: 0.275 ×10⁻³</title></rect>
<line x1="423.07" y1="180.74" x2="423.07" y2="177.61" stroke="#333" stroke-width="1"/>
<line x1="421.07" y1="180.74" x2="425.07" y2="180.74" stroke="#333" stroke-width="1"/>
<line x1="421.07" y1="177.61" x2="425.07" y2="177.61" stroke="#333" stroke-width="1"/>
<text x="416.2" y="204" text-anchor="end" font-size="9" fill="#2196F3" transform="rotate(-45,416.2,204)">Attention</text>
<rect x="439.81" y="118.49" width="13.81" height="71.51" fill="#2E7D32" opacity="0.85"><title>Partner Identity: 1.771 ×10⁻³</title></rect>
<line x1="446.71" y1="129.94" x2="446.71" y2="109.74" stroke="#333" stroke-width="1"/>
<line x1="444.71" y1="129.94" x2="448.71" y2="129.94" stroke="#333" stroke-width="1"/>
<line x1="444.71" y1="109.74" x2="448.71" y2="109.74" stroke="#333" stroke-width="1"/>
<rect x="455.61" y="178.91" width="13.81" height="11.09" fill="#616161" opacity="0.85"><title>Control: 0.275 ×10⁻³</title></rect>
<line x1="462.51" y1="180.56" x2="462.51" y2="177.53" stroke="#333" stroke-width="1"/>
<line x1="460.51" y1="180.56" x2="464.51" y2="180.56" stroke="#333" stroke-width="1"/>
<line x1="460.51" y1="177.53" x2="464.51" y2="177.53" stroke="#333" stroke-width="1"/>
<text x="455.6" y="204" text-anchor="end" font-size="9" fill="#4CAF50" transform="rotate(-45,455.6,204)">Embodiment</text>
<rect x="479.25" y="88.19" width="13.81" height="101.81" fill="#2E7D32" opacity="0.85"><title>Partner Identity: 2.521 ×10⁻³</title></rect>
<line x1="486.15" y1="110.71" x2="486.15" y2="70.82" stroke="#333" stroke-width="1"/>
<line x1="484.15" y1="110.71" x2="488.15" y2="110.71" stroke="#333" stroke-width="1"/>
<line x1="484.15" y1="70.82" x2="488.15" y2="70.82" stroke="#333" stroke-width="1"/>
<rect x="495.06" y="179.62" width="13.81" height="10.38" fill="#616161" opacity="0.85"><title>Control: 0.257 ×10⁻³</title></rect>
<line x1="501.96" y1="181.69" x2="501.96" y2="177.17" stroke="#333" stroke-width="1"/>
<line x1="499.96" y1="181.69" x2="503.96" y2="181.69" stroke="#333" stroke-width="1"/>
<line x1="499.96" y1="177.17" x2="503.96" y2="177.17" stroke="#333" stroke-width="1"/>
<text x="495.1" y="204" text-anchor="end" font-size="9" fill="#4CAF50" transform="rotate(-45,495.1,204)">Roles</text>
<rect x="518.69" y="133.41" width="13.81" height="56.59" fill="#2E7D32" opacity="0.85"><title>Partner Identity: 1.401 ×10⁻³</title></rect>
<line x1="525.60" y1="145.41" x2="525.60" y2="125.06" stroke="#333" stroke-width="1"/>
<line x1="523.60" y1="145.41" x2="527.60" y2="145.41" stroke="#333" stroke-width="1"/>
<line x1="523.60" y1="125.06" x2="527.60" y2="125.06" stroke="#333" stroke-width="1"/>
<rect x="534.50" y="182.64" width="13.81" height="7.36" fill="#616161" opacity="0.85"><title>Control: 0.182 ×10⁻³</title></rect>
<line x1="541.40" y1="183.84" x2="541.40" y2="181.17" stroke="#333" stroke-width="1"/>
<line x1="539.40" y1="183.84" x2="543.40" y2="183.84" stroke="#333" stroke-width="1"/>
<line x1="539.40" y1="181.17" x2="543.40" y2="181.17" stroke="#333" stroke-width="1"/>
<text x="534.5" y="204" text-anchor="end" font-size="9" fill="#4CAF50" transform="rotate(-45,534.5,204)">Animacy</text>
<rect x="558.14" y="176.69" width="13.81" height="13.31" fill="#2E7D32" opacity="0.85"><title>Partner Identity: 0.330 ×10⁻³</title></rect>
<line x1="565.04" y1="181.23" x2="565.04" y2="169.35" stroke="#333" stroke-width="1"/>
<line x1="563.04" y1="181.23" x2="567.04" y2="181.23" stroke="#333" stroke-width="1"/>
<line x1="563.04" y1="169.35" x2="567.04" y2="169.35" stroke="#333" stroke-width="1"/>
<rect x="573.94" y="180.44" width="13.81" height="9.56" fill="#616161" opacity="0.85"><title>Control: 0.237 ×10⁻³</title></rect>
<line x1="580.85" y1="183.05" x2="580.85" y2="178.35" stroke="#333" stroke-width="1"/>
<line x1="578.85" y1="183.05" x2="582.85" y2="183.05" stroke="#333" stroke-width="1"/>
<line x1="578.85" y1="178.35" x2="582.85" y2="178.35" stroke="#333" stroke-width="1"/>
<text x="573.9" y="204" text-anchor="end" font-size="9" fill="#FF9800" transform="rotate(-45,573.9,204)">Formality</text>
<rect x="597.58" y="144.24" width="13.81" height="45.76" fill="#2E7D32" opacity="0.85"><title>Partner Identity: 1.133 ×10⁻³</title></rect>
<line x1="604.49" y1="153.48" x2="604.49" y2="137.35" stroke="#333" stroke-width="1"/>
<line x1="602.49" y1="153.48" x2="606.49" y2="153.48" stroke="#333" stroke-width="1"/>
<line x1="602.49" y1="137.35" x2="606.49" y2="137.35" stroke="#333" stroke-width="1"/>
<rect x="613.39" y="181.38" width="13.81" height="8.62" fill="#616161" opacity="0.85"><title>Control: 0.214 ×10⁻³</title></rect>
<line x1="620.29" y1="182.40" x2="620.29" y2="180.05" stroke="#333" stroke-width="1"/>
<line x1="618.29" y1="182.40" x2="622.29" y2="182.40" stroke="#333" stroke-width="1"/>
<line x1="618.29" y1="180.05" x2="622.29" y2="180.05" stroke="#333" stroke-width="1"/>
<text x="613.4" y="204" text-anchor="end" font-size="9" fill="#FF9800" transform="rotate(-45,613.4,204)">Expertise</text>
<rect x="637.03" y="179.10" width="13.81" height="10.90" fill="#2E7D32" opacity="0.85"><title>Partner Identity: 0.270 ×10⁻³</title></rect>
<line x1="643.93" y1="183.45" x2="643.93" y2="169.82" stroke="#333" stroke-width="1"/>
<line x1="641.93" y1="183.45" x2="645.93" y2="183.45" stroke="#333" stroke-width="1"/>
<line x1="641.93" y1="169.82" x2="645.93" y2="169.82" stroke="#333" stroke-width="1"/>
<rect x="652.83" y="181.81" width="13.81" height="8.19" fill="#616161" opacity="0.85"><title>Control: 0.203 ×10⁻³</title></rect>
<line x1="659.74" y1="184.10" x2="659.74" y2="178.54" stroke="#333" stroke-width="1"/>
<line x1="657.74" y1="184.10" x2="661.74" y2="184.10" stroke="#333" stroke-width="1"/>
<line x1="657.74" y1="178.54" x2="661.74" y2="178.54" stroke="#333" stroke-width="1"/>
<text x="652.8" y="204" text-anchor="end" font-size="9" fill="#FF9800" transform="rotate(-45,652.8,204)">Helpfulness</text>
<rect x="676.47" y="71.30" width="13.81" height="118.70" fill="#2E7D32" opacity="0.85"><title>Partner Identity: 2.939 ×10⁻³</title></rect>
<line x1="683.38" y1="102.24" x2="683.38" y2="25.50" stroke="#333" stroke-width="1"/>
<line x1="681.38" y1="102.24" x2="685.38" y2="102.24" stroke="#333" stroke-width="1"/>
<line x1="681.38" y1="25.50" x2="685.38" y2="25.50" stroke="#333" stroke-width="1"/>
<rect x="692.28" y="186.92" width="13.81" height="3.08" fill="#616161" opacity="0.85"><title>Control: 0.076 ×10⁻³</title></rect>
<line x1="699.18" y1="187.10" x2="699.18" y2="186.40" stroke="#333" stroke-width="1"/>
<line x1="697.18" y1="187.10" x2="701.18" y2="187.10" stroke="#333" stroke-width="1"/>
<line x1="697.18" y1="186.40" x2="701.18" y2="186.40" stroke="#333" stroke-width="1"/>
<text x="692.3" y="204" text-anchor="end" font-size="9" fill="#00BCD4" transform="rotate(-45,692.3,204)">SysPrompt</text>
<line x1="0" y1="190" x2="710" y2="190" stroke="#333"/>
<line x1="0" y1="0" x2="0" y2="190" stroke="#333"/>
</g>
<rect x="70" y="320" width="10" height="10" fill="#2E7D32"/>
<text x="84" y="328" font-size="9" fill="#333">Partner Identity</text>
<rect x="210" y="320" width="10" height="10" fill="#616161"/>
<text x="224" y="328" font-size="9" fill="#333">Control</text>
</svg>