<svg viewBox="0 0 800 340" xmlns="http://www.w3.org/2000/svg" style="width:100%;max-width:800px;height:auto;font-family:Arial,sans-serif;">
<rect width="800" height="340" fill="white"/>

<g transform="translate(70,30)">
<line x1="0" y1="190.0" x2="710" y2="190.0" stroke="#eee" stroke-width="1"/>
<text x="-8" y="194.0" text-anchor="end" font-size="10" fill="#666">0.00</text>
<line x1="0" y1="152.0" x2="710" y2="152.0" stroke="#eee" stroke-width="1"/>
<text x="-8" y="156.0" text-anchor="end" font-size="10" fill="#666">0.94</text>
<line x1="0" y1="114.0" x2="710" y2="114.0" stroke="#eee" stroke-width="1"/>
<text x="-8" y="118.0" text-anchor="end" font-size="10" fill="#666">1.88</text>
<line x1="0" y1="76.0" x2="710" y2="76.0" stroke="#eee" stroke-width="1"/>
<text x="-8" y="80.0" text-anchor="end" font-size="10" fill="#666">2.82</text>
<line x1="0" y1="38.0" x2="710" y2="38.0" stroke="#eee" stroke-width="1"/>
<text x="-8" y="42.0" text-anchor="end" font-size="10" fill="#666">3.76</text>
<line x1="0" y1="0.0" x2="710" y2="0.0" stroke="#eee" stroke-width="1"/>
<text x="-8" y="4.0" text-anchor="end" font-size="10" fill="#666">4.70</text>
<text x="-50" y="95.0" text-anchor="middle" font-size="11" fill="#333" transform="rotate(-90,-50,95.0)">Mean R² (×10⁻³)</text>
<line x1="177.5" y1="0" x2="177.5" y2="190" stroke="#ddd" stroke-width="1" stroke-dasharray="4,3"/>
<rect x="4.44" y="73.43" width="10.35" height="116.57" fill="#2E7D32" opacity="0.85"><title>Partner Identity: 2.886 ×10⁻³</title></rect>
<line x1="9.61" y1="100.94" x2="9.61" y2="59.91" stroke="#333" stroke-width="1"/>
<line x1="7.61" y1="100.94" x2="11.61" y2="100.94" stroke="#333" stroke-width="1"/>
<line x1="7.61" y1="59.91" x2="11.61" y2="59.91" stroke="#333" stroke-width="1"/>
<rect x="16.79" y="184.21" width="10.35" height="5.79" fill="#616161" opacity="0.85"><title>Control: 0.143 ×10⁻³</title></rect>
<line x1="21.97" y1="184.85" x2="21.97" y2="182.21" stroke="#333" stroke-width="1"/>
<line x1="19.97" y1="184.85" x2="23.97" y2="184.85" stroke="#333" stroke-width="1"/>
<line x1="19.97" y1="182.21" x2="23.97" y2="182.21" stroke="#333" stroke-width="1"/>
<text x="16.8" y="204" text-anchor="end" font-size="9" fill="#9E9E9E" transform="rotate(-45,16.8,204)">Human vs AI (general)</text>
<rect x="34.02" y="148.05" width="10.35" height="41.95" fill="#2E7D32" opacity="0.85"><title>Partner Identity: 1.039 ×10⁻³</title></rect>
<line x1="39.20" y1="154.64" x2="39.20" y2="141.53" stroke="#333" stroke-width="1"/>
<line x1="37.20" y1="154.64" x2="41.20" y2="154.64" stroke="#333" stroke-width="1"/>
<line x1="37.20" y1="141.53" x2="41.20" y2="141.53" stroke="#333" stroke-width="1"/>
<rect x="46.37" y="181.07" width="10.35" height="8.93" fill="#616161" opacity="0.85"><title>Control: 0.221 ×10⁻³</title></rect>
<line x1="51.55" y1="182.04" x2="51.55" y2="180.18" stroke="#333" stroke-width="1"/>
<line x1="49.55" y1="182.04" x2="53.55" y2="182.04" stroke="#333" stroke-width="1"/>
<line x1="49.55" y1="180.18" x2="53.55" y2="180.18" stroke="#333" stroke-width="1"/>
<text x="46.4" y="204" text-anchor="end" font-size="9" fill="#9E9E9E" transform="rotate(-45,46.4,204)">Biological</text>
<rect x="63.60" y="180.11" width="10.35" height="9.89" fill="#2E7D32" opacity="0.85"><title>Partner Identity: 0.245 ×10⁻³</title></rect>
<line x1="68.78" y1="184.41" x2="68.78" y2="173.56" stroke="#333" stroke-width="1"/>
<line x1="66.78" y1="184.41" x2="70.78" y2="184.41" stroke="#333" stroke-width="1"/>
<line x1="66.78" y1="173.56" x2="70.78" y2="173.56" stroke="#333" stroke-width="1"/>
<rect x="75.96" y="182.31" width="10.35" height="7.69" fill="#616161" opacity="0.85"><title>Control: 0.190 ×10⁻³</title></rect>
<line x1="81.14" y1="184.86" x2="81.14" y2="180.05" stroke="#333" stroke-width="1"/>
<line x1="79.14" y1="184.86" x2="83.14" y2="184.86" stroke="#333" stroke-width="1"/>
<line x1="79.14" y1="180.05" x2="83.14" y2="180.05" stroke="#333" stroke-width="1"/>
<text x="76.0" y="204" text-anchor="end" font-size="9" fill="#9E9E9E" transform="rotate(-45,76.0,204)">Shapes</text>
<rect x="93.19" y="186.85" width="10.35" height="3.15" fill="#2E7D32" opacity="0.85"><title>Partner Identity: 0.078 ×10⁻³</title></rect>
<line x1="98.36" y1="186.29" x2="98.36" y2="174.81" stroke="#333" stroke-width="1"/>
<line x1="96.36" y1="186.29" x2="100.36" y2="186.29" stroke="#333" stroke-width="1"/>
<line x1="96.36" y1="174.81" x2="100.36" y2="174.81" stroke="#333" stroke-width="1"/>
<rect x="105.54" y="183.28" width="10.35" height="6.72" fill="#616161" opacity="0.85"><title>Control: 0.166 ×10⁻³</title></rect>
<line x1="110.72" y1="185.74" x2="110.72" y2="179.58" stroke="#333" stroke-width="1"/>
<line x1="108.72" y1="185.74" x2="112.72" y2="185.74" stroke="#333" stroke-width="1"/>
<line x1="108.72" y1="179.58" x2="112.72" y2="179.58" stroke="#333" stroke-width="1"/>
<text x="105.5" y="204" text-anchor="end" font-size="9" fill="#9E9E9E" transform="rotate(-45,105.5,204)">Granite/Sandstone</text>
<rect x="122.77" y="179.54" width="10.35" height="10.46" fill="#2E7D32" opacity="0.85"><title>Partner Identity: 0.259 ×10⁻³</title></rect>
<line x1="127.95" y1="183.58" x2="127.95" y2="171.09" stroke="#333" stroke-width="1"/>
<line x1="125.95" y1="183.58" x2="129.95" y2="183.58" stroke="#333" stroke-width="1"/>
<line x1="125.95" y1="171.09" x2="129.95" y2="171.09" stroke="#333" stroke-width="1"/>
<rect x="135.12" y="181.76" width="10.35" height="8.24" fill="#616161" opacity="0.85"><title>Control: 0.204 ×10⁻³</title></rect>
<line x1="140.30" y1="184.08" x2="140.30" y2="178.49" stroke="#333" stroke-width="1"/>
<line x1="138.30" y1="184.08" x2="142.30" y2="184.08" stroke="#333" stroke-width="1"/>
<line x1="138.30" y1="178.49" x2="142.30" y2="178.49" stroke="#333" stroke-width="1"/>
<text x="135.1" y="204" text-anchor="end" font-size="9" fill="#9E9E9E" transform="rotate(-45,135.1,204)">Squares/Triangles</text>
<rect x="152.35" y="180.66" width="10.35" height="9.34" fill="#2E7D32" opacity="0.85"><title>Partner Identity: 0.231 ×10⁻³</title></rect>
<line x1="157.53" y1="184.21" x2="157.53" y2="166.75" stroke="#333" stroke-width="1"/>
<line x1="155.53" y1="184.21" x2="159.53" y2="184.21" stroke="#333" stroke-width="1"/>
<line x1="155.53" y1="166.75" x2="159.53" y2="166.75" stroke="#333" stroke-width="1"/>
<rect x="164.71" y="179.48" width="10.35" height="10.52" fill="#616161" opacity="0.85"><title>Control: 0.260 ×10⁻³</title></rect>
<line x1="169.89" y1="184.71" x2="169.89" y2="177.33" stroke="#333" stroke-width="1"/>
<line x1="167.89" y1="184.71" x2="171.89" y2="184.71" stroke="#333" stroke-width="1"/>
<line x1="167.89" y1="177.33" x2="171.89" y2="177.33" stroke="#333" stroke-width="1"/>
<text x="164.7" y="204" text-anchor="end" font-size="9" fill="#9E9E9E" transform="rotate(-45,164.7,204)">Horizontal/Vertical</text>
<rect x="181.94" y="47.04" width="10.35" height="142.96" fill="#2E7D32" opacity="0.85"><title>Partner Identity: 3.540 ×10⁻³</title></rect>
<line x1="187.11" y1="73.07" x2="187.11" y2="32.61" stroke="#333" stroke-width="1"/>
<line x1="185.11" y1="73.07" x2="189.11" y2="73.07" stroke="#333" stroke-width="1"/>
<line x1="185.11" y1="32.61" x2="189.11" y2="32.61" stroke="#333" stroke-width="1"/>
<rect x="194.29" y="178.88" width="10.35" height="11.12" fill="#616161" opacity="0.85"><title>Control: 0.275 ×10⁻³</title></rect>
<line x1="199.47" y1="180.74" x2="199.47" y2="177.61" stroke="#333" stroke-width="1"/>
<line x1="197.47" y1="180.74" x2="201.47" y2="180.74" stroke="#333" stroke-width="1"/>
<line x1="197.47" y1="177.61" x2="201.47" y2="177.61" stroke="#333" stroke-width="1"/>
<text x="194.3" y="204" text-anchor="end" font-size="9" fill="#2196F3" transform="rotate(-45,194.3,204)">Attention</text>
<rect x="211.52" y="54.07" width="10.35" height="135.93" fill="#2E7D32" opacity="0.85"><title>Partner Identity: 3.366 ×10⁻³</title></rect>
<line x1="216.70" y1="81.21" x2="216.70" y2="31.07" stroke="#333" stroke-width="1"/>
<line x1="214.70" y1="81.21" x2="218.70" y2="81.21" stroke="#333" stroke-width="1"/>
<line x1="214.70" y1="31.07" x2="218.70" y2="31.07" stroke="#333" stroke-width="1"/>
<rect x="223.87" y="178.23" width="10.35" height="11.77" fill="#616161" opacity="0.85"><title>Control: 0.291 ×10⁻³</title></rect>
<line x1="229.05" y1="180.92" x2="229.05" y2="176.70" stroke="#333" stroke-width="1"/>
<line x1="227.05" y1="180.92" x2="231.05" y2="180.92" stroke="#333" stroke-width="1"/>
<line x1="227.05" y1="176.70" x2="231.05" y2="176.70" stroke="#333" stroke-width="1"/>
<text x="223.9" y="204" text-anchor="end" font-size="9" fill="#2196F3" transform="rotate(-45,223.9,204)">Social</text>
<rect x="241.10" y="63.12" width="10.35" height="126.88" fill="#2E7D32" opacity="0.85"><title>Partner Identity: 3.142 ×10⁻³</title></rect>
<line x1="246.28" y1="83.31" x2="246.28" y2="51.51" stroke="#333" stroke-width="1"/>
<line x1="244.28" y1="83.31" x2="248.28" y2="83.31" stroke="#333" stroke-width="1"/>
<line x1="244.28" y1="51.51" x2="248.28" y2="51.51" stroke="#333" stroke-width="1"/>
<rect x="253.46" y="178.84" width="10.35" height="11.16" fill="#616161" opacity="0.85"><title>Control: 0.276 ×10⁻³</title></rect>
<line x1="258.64" y1="181.15" x2="258.64" y2="176.23" stroke="#333" stroke-width="1"/>
<line x1="256.64" y1="181.15" x2="260.64" y2="181.15" stroke="#333" stroke-width="1"/>
<line x1="256.64" y1="176.23" x2="260.64" y2="176.23" stroke="#333" stroke-width="1"/>
<text x="253.5" y="204" text-anchor="end" font-size="9" fill="#2196F3" transform="rotate(-45,253.5,204)">Cognitive</text>
<rect x="270.69" y="69.01" width="10.35" height="120.99" fill="#2E7D32" opacity="0.85"><title>Partner Identity: 2.996 ×10⁻³</title></rect>
<line x1="275.86" y1="94.30" x2="275.86" y2="51.31" stroke="#333" stroke-width="1"/>
<line x1="273.86" y1="94.30" x2="277.86" y2="94.30" stroke="#333" stroke-width="1"/>
<line x1="273.86" y1="51.31" x2="277.86" y2="51.31" stroke="#333" stroke-width="1"/>
<rect x="283.04" y="178.37" width="10.35" height="11.63" fill="#616161" opacity="0.85"><title>Control: 0.288 ×10⁻³</title></rect>
<line x1="288.22" y1="180.42" x2="288.22" y2="176.55" stroke="#333" stroke-width="1"/>
<line x1="286.22" y1="180.42" x2="290.22" y2="180.42" stroke="#333" stroke-width="1"/>
<line x1="286.22" y1="176.55" x2="290.22" y2="176.55" stroke="#333" stroke-width="1"/>
<text x="283.0" y="204" text-anchor="end" font-size="9" fill="#2196F3" transform="rotate(-45,283.0,204)">Goals</text>
<rect x="300.27" y="69.37" width="10.35" height="120.63" fill="#2E7D32" opacity="0.85"><title>Partner Identity: 2.987 ×10⁻³</title></rect>
<line x1="305.45" y1="92.30" x2="305.45" y2="52.30" stroke="#333" stroke-width="1"/>
<line x1="303.45" y1="92.30" x2="307.45" y2="92.30" stroke="#333" stroke-width="1"/>
<line x1="303.45" y1="52.30" x2="307.45" y2="52.30" stroke="#333" stroke-width="1"/>
<rect x="312.62" y="177.37" width="10.35" height="12.63" fill="#616161" opacity="0.85"><title>Control: 0.313 ×10⁻³</title></rect>
<line x1="317.80" y1="179.58" x2="317.80" y2="175.96" stroke="#333" stroke-width="1"/>
<line x1="315.80" y1="179.58" x2="319.80" y2="179.58" stroke="#333" stroke-width="1"/>
<line x1="315.80" y1="175.96" x2="319.80" y2="175.96" stroke="#333" stroke-width="1"/>
<text x="312.6" y="204" text-anchor="end" font-size="9" fill="#2196F3" transform="rotate(-45,312.6,204)">Prediction</text>
<rect x="329.85" y="68.65" width="10.35" height="121.35" fill="#2E7D32" opacity="0.85"><title>Partner Identity: 3.005 ×10⁻³</title></rect>
<line x1="335.03" y1="88.55" x2="335.03" y2="56.03" stroke="#333" stroke-width="1"/>
<line x1="333.03" y1="88.55" x2="337.03" y2="88.55" stroke="#333" stroke-width="1"/>
<line x1="333.03" y1="56.03" x2="337.03" y2="56.03" stroke="#333" stroke-width="1"/>
<rect x="342.21" y="174.93" width="10.35" height="15.07" fill="#616161" opacity="0.85"><title>Control: 0.373 ×10⁻³</title></rect>
<line x1="347.39" y1="177.33" x2="347.39" y2="173.73" stroke="#333" stroke-width="1"/>
<line x1="345.39" y1="177.33" x2="349.39" y2="177.33" stroke="#333" stroke-width="1"/>
<line x1="345.39" y1="173.73" x2="349.39" y2="173.73" stroke="#333" stroke-width="1"/>
<text x="342.2" y="204" text-anchor="end" font-size="9" fill="#2196F3" transform="rotate(-45,342.2,204)">Beliefs</text>
<rect x="359.44" y="75.34" width="10.35" height="114.66" fill="#2E7D32" opacity="0.85"><title>Partner Identity: 2.839 ×10⁻³</title></rect>
<line x1="364.61" y1="100.41" x2="364.61" y2="59.97" stroke="#333" stroke-width="1"/>
<line x1="362.61" y1="100.41" x2="366.61" y2="100.41" stroke="#333" stroke-width="1"/>
<line x1="362.61" y1="59.97" x2="366.61" y2="59.97" stroke="#333" stroke-width="1"/>
<rect x="371.79" y="174.55" width="10.35" height="15.45" fill="#616161" opacity="0.85"><title>Control: 0.383 ×10⁻³</title></rect>
<line x1="376.97" y1="176.94" x2="376.97" y2="173.23" stroke="#333" stroke-width="1"/>
<line x1="374.97" y1="176.94" x2="378.97" y2="176.94" stroke="#333" stroke-width="1"/>
<line x1="374.97" y1="173.23" x2="378.97" y2="173.23" stroke="#333" stroke-width="1"/>
<text x="371.8" y="204" text-anchor="end" font-size="9" fill="#2196F3" transform="rotate(-45,371.8,204)">Intentions</text>
<rect x="389.02" y="85.93" width="10.35" height="104.07" fill="#2E7D32" opacity="0.85"><title>Partner Identity: 2.577 ×10⁻³</title></rect>
<line x1="394.20" y1="107.41" x2="394.20" y2="69.42" stroke="#333" stroke-width="1"/>
<line x1="392.20" y1="107.41" x2="396.20" y2="107.41" stroke="#333" stroke-width="1"/>
<line x1="392.20" y1="69.42" x2="396.20" y2="69.42" stroke="#333" stroke-width="1"/>
<rect x="401.38" y="174.71" width="10.35" height="15.29" fill="#616161" opacity="0.85"><title>Control: 0.379 ×10⁻³</title></rect>
<line x1="406.55" y1="177.07" x2="406.55" y2="173.52" stroke="#333" stroke-width="1"/>
<line x1="404.55" y1="177.07" x2="408.55" y2="177.07" stroke="#333" stroke-width="1"/>
<line x1="404.55" y1="173.52" x2="408.55" y2="173.52" stroke="#333" stroke-width="1"/>
<text x="401.4" y="204" text-anchor="end" font-size="9" fill="#2196F3" transform="rotate(-45,401.4,204)">Agency</text>
<rect x="418.60" y="88.19" width="10.35" height="101.81" fill="#2E7D32" opacity="0.85"><title>Partner Identity: 2.521 ×10⁻³</title></rect>
<line x1="423.78" y1="110.71" x2="423.78" y2="70.82" stroke="#333" stroke-width="1"/>
<line x1="421.78" y1="110.71" x2="425.78" y2="110.71" stroke="#333" stroke-width="1"/>
<line x1="421.78" y1="70.82" x2="425.78" y2="70.82" stroke="#333" stroke-width="1"/>
<rect x="430.96" y="179.62" width="10.35" height="10.38" fill="#616161" opacity="0.85"><title>Control: 0.257 ×10⁻³</title></rect>
<line x1="436.14" y1="181.69" x2="436.14" y2="177.17" stroke="#333" stroke-width="1"/>
<line x1="434.14" y1="181.69" x2="438.14" y2="181.69" stroke="#333" stroke-width="1"/>
<line x1="434.14" y1="177.17" x2="438.14" y2="177.17" stroke="#333" stroke-width="1"/>
<text x="431.0" y="204" text-anchor="end" font-size="9" fill="#2196F3" transform="rotate(-45,431.0,204)">Roles</text>
<rect x="448.19" y="87.23" width="10.35" height="102.77" fill="#2E7D32" opacity="0.85"><title>Partner Identity: 2.545 ×10⁻³</title></rect>
<line x1="453.36" y1="100.89" x2="453.36" y2="78.17" stroke="#333" stroke-width="1"/>
<line x1="451.36" y1="100.89" x2="455.36" y2="100.89" stroke="#333" stroke-width="1"/>
<line x1="451.36" y1="78.17" x2="455.36" y2="78.17" stroke="#333" stroke-width="1"/>
<rect x="460.54" y="174.76" width="10.35" height="15.24" fill="#616161" opacity="0.85"><title>Control: 0.377 ×10⁻³</title></rect>
<line x1="465.72" y1="176.57" x2="465.72" y2="173.77" stroke="#333" stroke-width="1"/>
<line x1="463.72" y1="176.57" x2="467.72" y2="176.57" stroke="#333" stroke-width="1"/>
<line x1="463.72" y1="173.77" x2="467.72" y2="173.77" stroke="#333" stroke-width="1"/>
<text x="460.5" y="204" text-anchor="end" font-size="9" fill="#2196F3" transform="rotate(-45,460.5,204)">Desires</text>
<rect x="477.77" y="104.88" width="10.35" height="85.12" fill="#2E7D32" opacity="0.85"><title>Partner Identity: 2.108 ×10⁻³</title></rect>
<line x1="482.95" y1="120.69" x2="482.95" y2="95.82" stroke="#333" stroke-width="1"/>
<line x1="480.95" y1="120.69" x2="484.95" y2="120.69" stroke="#333" stroke-width="1"/>
<line x1="480.95" y1="95.82" x2="484.95" y2="95.82" stroke="#333" stroke-width="1"/>
<rect x="490.12" y="179.22" width="10.35" height="10.78" fill="#616161" opacity="0.85"><title>Control: 0.267 ×10⁻³</title></rect>
<line x1="495.30" y1="181.11" x2="495.30" y2="177.83" stroke="#333" stroke-width="1"/>
<line x1="493.30" y1="181.11" x2="497.30" y2="181.11" stroke="#333" stroke-width="1"/>
<line x1="493.30" y1="177.83" x2="497.30" y2="177.83" stroke="#333" stroke-width="1"/>
<text x="490.1" y="204" text-anchor="end" font-size="9" fill="#2196F3" transform="rotate(-45,490.1,204)">Phenomenology</text>
<rect x="507.35" y="109.29" width="10.35" height="80.71" fill="#2E7D32" opacity="0.85"><title>Partner Identity: 1.999 ×10⁻³</title></rect>
<line x1="512.53" y1="123.27" x2="512.53" y2="98.39" stroke="#333" stroke-width="1"/>
<line x1="510.53" y1="123.27" x2="514.53" y2="123.27" stroke="#333" stroke-width="1"/>
<line x1="510.53" y1="98.39" x2="514.53" y2="98.39" stroke="#333" stroke-width="1"/>
<rect x="519.71" y="176.28" width="10.35" height="13.72" fill="#616161" opacity="0.85"><title>Control: 0.340 ×10⁻³</title></rect>
<line x1="524.89" y1="178.09" x2="524.89" y2="175.14" stroke="#333" stroke-width="1"/>
<line x1="522.89" y1="178.09" x2="526.89" y2="178.09" stroke="#333" stroke-width="1"/>
<line x1="522.89" y1="175.14" x2="526.89" y2="175.14" stroke="#333" stroke-width="1"/>
<text x="519.7" y="204" text-anchor="end" font-size="9" fill="#2196F3" transform="rotate(-45,519.7,204)">Emotions</text>
<rect x="536.94" y="118.49" width="10.35" height="71.51" fill="#2E7D32" opacity="0.85"><title>Partner Identity: 1.771 ×10⁻³</title></rect>
<line x1="542.11" y1="129.94" x2="542.11" y2="109.74" stroke="#333" stroke-width="1"/>
<line x1="540.11" y1="129.94" x2="544.11" y2="129.94" stroke="#333" stroke-width="1"/>
<line x1="540.11" y1="109.74" x2="544.11" y2="109.74" stroke="#333" stroke-width="1"/>
<rect x="549.29" y="178.91" width="10.35" height="11.09" fill="#616161" opacity="0.85"><title>Control: 0.275 ×10⁻³</title></rect>
<line x1="554.47" y1="180.56" x2="554.47" y2="177.53" stroke="#333" stroke-width="1"/>
<line x1="552.47" y1="180.56" x2="556.47" y2="180.56" stroke="#333" stroke-width="1"/>
<line x1="552.47" y1="177.53" x2="556.47" y2="177.53" stroke="#333" stroke-width="1"/>
<text x="549.3" y="204" text-anchor="end" font-size="9" fill="#2196F3" transform="rotate(-45,549.3,204)">Embodiment</text>
<rect x="566.52" y="133.41" width="10.35" height="56.59" fill="#2E7D32" opacity="0.85"><title>Partner Identity: 1.401 ×10⁻³</title></rect>
<line x1="571.70" y1="145.41" x2="571.70" y2="125.06" stroke="#333" stroke-width="1"/>
<line x1="569.70" y1="145.41" x2="573.70" y2="145.41" stroke="#333" stroke-width="1"/>
<line x1="569.70" y1="125.06" x2="573.70" y2="125.06" stroke="#333" stroke-width="1"/>
<rect x="578.87" y="182.64" width="10.35" height="7.36" fill="#616161" opacity="0.85"><title>Control: 0.182 ×10⁻³</title></rect>
<line x1="584.05" y1="183.84" x2="584.05" y2="181.17" stroke="#333" stroke-width="1"/>
<line x1="582.05" y1="183.84" x2="586.05" y2="183.84" stroke="#333" stroke-width="1"/>
<line x1="582.05" y1="181.17" x2="586.05" y2="181.17" stroke="#333" stroke-width="1"/>
<text x="578.9" y="204" text-anchor="end" font-size="9" fill="#2196F3" transform="rotate(-45,578.9,204)">Animacy</text>
<rect x="596.10" y="144.24" width="10.35" height="45.76" fill="#2E7D32" opacity="0.85"><title>Partner Identity: 1.133 ×10⁻³</title></rect>
<line x1="601.28" y1="153.48" x2="601.28" y2="137.35" stroke="#333" stroke-width="1"/>
<line x1="599.28" y1="153.48" x2="603.28" y2="153.48" stroke="#333" stroke-width="1"/>
<line x1="599.28" y1="137.35" x2="603.28" y2="137.35" stroke="#333" stroke-width="1"/>
<rect x="608.46" y="181.38" width="10.35" height="8.62" fill="#616161" opacity="0.85"><title>Control: 0.214 ×10⁻³</title></rect>
<line x1="613.64" y1="182.40" x2="613.64" y2="180.05" stroke="#333" stroke-width="1"/>
<line x1="611.64" y1="182.40" x2="615.64" y2="182.40" stroke="#333" stroke-width="1"/>
<line x1="611.64" y1="180.05" x2="615.64" y2="180.05" stroke="#333" stroke-width="1"/>
<text x="608.5" y="204" text-anchor="end" font-size="9" fill="#FF9800" transform="rotate(-45,608.5,204)">Expertise</text>
<rect x="625.69" y="176.69" width="10.35" height="13.31" fill="#2E7D32" opacity="0.85"><title>Partner Identity: 0.330 ×10⁻³</title></rect>
<line x1="630.86" y1="181.23" x2="630.86" y2="169.35" stroke="#333" stroke-width="1"/>
<line x1="628.86" y1="181.23" x2="632.86" y2="181.23" stroke="#333" stroke-width="1"/>
<line x1="628.86" y1="169.35" x2="632.86" y2="169.35" stroke="#333" stroke-width="1"/>
<rect x="638.04" y="180.44" width="10.35" height="9.56" fill="#616161" opacity="0.85"><title>Control: 0.237 ×10⁻³</title></rect>
<line x1="643.22" y1="183.05" x2="643.22" y2="178.35" stroke="#333" stroke-width="1"/>
<line x1="641.22" y1="183.05" x2="645.22" y2="183.05" stroke="#333" stroke-width="1"/>
<line x1="641.22" y1="178.35" x2="645.22" y2="178.35" stroke="#333" stroke-width="1"/>
<text x="638.0" y="204" text-anchor="end" font-size="9" fill="#FF9800" transform="rotate(-45,638.0,204)">Formality</text>
<rect x="655.27" y="179.10" width="10.35" height="10.90" fill="#2E7D32" opacity="0.85"><title>Partner Identity: 0.270 ×10⁻³</title></rect>
<line x1="660.45" y1="183.45" x2="660.45" y2="169.82" stroke="#333" stroke-width="1"/>
<line x1="658.45" y1="183.45" x2="662.45" y2="183.45" stroke="#333" stroke-width="1"/>
<line x1="658.45" y1="169.82" x2="662.45" y2="169.82" stroke="#333" stroke-width="1"/>
<rect x="667.62" y="181.81" width="10.35" height="8.19" fill="#616161" opacity="0.85"><title>Control: 0.203 ×10⁻³</title></rect>
<line x1="672.80" y1="184.10" x2="672.80" y2="178.54" stroke="#333" stroke-width="1"/>
<line x1="670.80" y1="184.10" x2="674.80" y2="184.10" stroke="#333" stroke-width="1"/>
<line x1="670.80" y1="178.54" x2="674.80" y2="178.54" stroke="#333" stroke-width="1"/>
<text x="667.6" y="204" text-anchor="end" font-size="9" fill="#FF9800" transform="rotate(-45,667.6,204)">Helpfulness</text>
<rect x="684.85" y="71.30" width="10.35" height="118.70" fill="#2E7D32" opacity="0.85"><title>Partner Identity: 2.939 ×10⁻³</title></rect>
<line x1="690.03" y1="102.24" x2="690.03" y2="25.50" stroke="#333" stroke-width="1"/>
<line x1="688.03" y1="102.24" x2="692.03" y2="102.24" stroke="#333" stroke-width="1"/>
<line x1="688.03" y1="25.50" x2="692.03" y2="25.50" stroke="#333" stroke-width="1"/>
<rect x="697.21" y="186.92" width="10.35" height="3.08" fill="#616161" opacity="0.85"><title>Control: 0.076 ×10⁻³</title></rect>
<line x1="702.39" y1="187.10" x2="702.39" y2="186.40" stroke="#333" stroke-width="1"/>
<line x1="700.39" y1="187.10" x2="704.39" y2="187.10" stroke="#333" stroke-width="1"/>
<line x1="700.39" y1="186.40" x2="704.39" y2="186.40" stroke="#333" stroke-width="1"/>
<text x="697.2" y="204" text-anchor="end" font-size="9" fill="#00BCD4" transform="rotate(-45,697.2,204)">SysPrompt</text>
<line x1="0" y1="190" x2="710" y2="190" stroke="#333"/>
<line x1="0" y1="0" x2="0" y2="190" stroke="#333"/>
</g>
<rect x="70" y="320" width="10" height="10" fill="#2E7D32"/>
<text x="84" y="328" font-size="9" fill="#333">Partner Identity</text>
<rect x="210" y="320" width="10" height="10" fill="#616161"/>
<text x="224" y="328" font-size="9" fill="#333">Control</text>
</svg>