<svg viewBox="0 0 800 320" xmlns="http://www.w3.org/2000/svg" style="width:100%;max-width:800px;height:auto;font-family:Arial,sans-serif;">
<rect width="800" height="320" fill="white"/>

<g transform="translate(70,30)">
<line x1="0" y1="180.0" x2="710" y2="180.0" stroke="#eee" stroke-width="1"/>
<text x="-8" y="184.0" text-anchor="end" font-size="10" fill="#666">0.00</text>
<line x1="0" y1="144.0" x2="710" y2="144.0" stroke="#eee" stroke-width="1"/>
<text x="-8" y="148.0" text-anchor="end" font-size="10" fill="#666">0.94</text>
<line x1="0" y1="108.0" x2="710" y2="108.0" stroke="#eee" stroke-width="1"/>
<text x="-8" y="112.0" text-anchor="end" font-size="10" fill="#666">1.88</text>
<line x1="0" y1="72.0" x2="710" y2="72.0" stroke="#eee" stroke-width="1"/>
<text x="-8" y="76.0" text-anchor="end" font-size="10" fill="#666">2.82</text>
<line x1="0" y1="36.0" x2="710" y2="36.0" stroke="#eee" stroke-width="1"/>
<text x="-8" y="40.0" text-anchor="end" font-size="10" fill="#666">3.76</text>
<line x1="0" y1="0.0" x2="710" y2="0.0" stroke="#eee" stroke-width="1"/>
<text x="-8" y="4.0" text-anchor="end" font-size="10" fill="#666">4.70</text>
<text x="-50" y="90.0" text-anchor="middle" font-size="11" fill="#333" transform="rotate(-90,-50,90.0)">Mean R² (×10⁻³)</text>
<rect x="5.33" y="145.26" width="12.42" height="34.74" fill="#81C784" opacity="0.85"><title>Partner Identity — Attention: 0.908 ×10⁻³</title></rect>
<line x1="11.54" y1="152.56" x2="11.54" y2="139.62" stroke="#333" stroke-width="1"/>
<line x1="9.54" y1="152.56" x2="13.54" y2="152.56" stroke="#333" stroke-width="1"/>
<line x1="9.54" y1="139.62" x2="13.54" y2="139.62" stroke="#333" stroke-width="1"/>
<rect x="19.75" y="171.26" width="12.42" height="8.74" fill="#BDBDBD" opacity="0.85"><title>Control — Attention: 0.228 ×10⁻³</title></rect>
<line x1="25.96" y1="172.74" x2="25.96" y2="169.68" stroke="#333" stroke-width="1"/>
<line x1="23.96" y1="172.74" x2="27.96" y2="172.74" stroke="#333" stroke-width="1"/>
<line x1="23.96" y1="169.68" x2="27.96" y2="169.68" stroke="#333" stroke-width="1"/>
<text x="19.8" y="194" text-anchor="end" font-size="10" fill="#2196F3" transform="rotate(-30,19.8,194)">Attention</text>
<rect x="40.83" y="152.86" width="12.42" height="27.14" fill="#81C784" opacity="0.85"><title>Partner Identity — Social: 0.709 ×10⁻³</title></rect>
<line x1="47.04" y1="160.53" x2="47.04" y2="139.23" stroke="#333" stroke-width="1"/>
<line x1="45.04" y1="160.53" x2="49.04" y2="160.53" stroke="#333" stroke-width="1"/>
<line x1="45.04" y1="139.23" x2="49.04" y2="139.23" stroke="#333" stroke-width="1"/>
<rect x="55.25" y="173.58" width="12.42" height="6.42" fill="#BDBDBD" opacity="0.85"><title>Control — Social: 0.168 ×10⁻³</title></rect>
<line x1="61.46" y1="174.50" x2="61.46" y2="171.58" stroke="#333" stroke-width="1"/>
<line x1="59.46" y1="174.50" x2="63.46" y2="174.50" stroke="#333" stroke-width="1"/>
<line x1="59.46" y1="171.58" x2="63.46" y2="171.58" stroke="#333" stroke-width="1"/>
<text x="55.2" y="194" text-anchor="end" font-size="10" fill="#2196F3" transform="rotate(-30,55.2,194)">Social</text>
<rect x="76.33" y="147.01" width="12.42" height="32.99" fill="#81C784" opacity="0.85"><title>Partner Identity — Cognitive: 0.862 ×10⁻³</title></rect>
<line x1="82.54" y1="155.45" x2="82.54" y2="141.41" stroke="#333" stroke-width="1"/>
<line x1="80.54" y1="155.45" x2="84.54" y2="155.45" stroke="#333" stroke-width="1"/>
<line x1="80.54" y1="141.41" x2="84.54" y2="141.41" stroke="#333" stroke-width="1"/>
<rect x="90.75" y="170.30" width="12.42" height="9.70" fill="#BDBDBD" opacity="0.85"><title>Control — Cognitive: 0.253 ×10⁻³</title></rect>
<line x1="96.96" y1="172.33" x2="96.96" y2="168.97" stroke="#333" stroke-width="1"/>
<line x1="94.96" y1="172.33" x2="98.96" y2="172.33" stroke="#333" stroke-width="1"/>
<line x1="94.96" y1="168.97" x2="98.96" y2="168.97" stroke="#333" stroke-width="1"/>
<text x="90.8" y="194" text-anchor="end" font-size="10" fill="#2196F3" transform="rotate(-30,90.8,194)">Cognitive</text>
<rect x="111.83" y="151.52" width="12.42" height="28.48" fill="#81C784" opacity="0.85"><title>Partner Identity — Goals: 0.744 ×10⁻³</title></rect>
<line x1="118.04" y1="159.55" x2="118.04" y2="143.11" stroke="#333" stroke-width="1"/>
<line x1="116.04" y1="159.55" x2="120.04" y2="159.55" stroke="#333" stroke-width="1"/>
<line x1="116.04" y1="143.11" x2="120.04" y2="143.11" stroke="#333" stroke-width="1"/>
<rect x="126.25" y="173.71" width="12.42" height="6.29" fill="#BDBDBD" opacity="0.85"><title>Control — Goals: 0.164 ×10⁻³</title></rect>
<line x1="132.46" y1="174.46" x2="132.46" y2="172.67" stroke="#333" stroke-width="1"/>
<line x1="130.46" y1="174.46" x2="134.46" y2="174.46" stroke="#333" stroke-width="1"/>
<line x1="130.46" y1="172.67" x2="134.46" y2="172.67" stroke="#333" stroke-width="1"/>
<text x="126.2" y="194" text-anchor="end" font-size="10" fill="#2196F3" transform="rotate(-30,126.2,194)">Goals</text>
<rect x="147.32" y="152.57" width="12.42" height="27.43" fill="#81C784" opacity="0.85"><title>Partner Identity — Prediction: 0.717 ×10⁻³</title></rect>
<line x1="153.54" y1="157.82" x2="153.54" y2="145.77" stroke="#333" stroke-width="1"/>
<line x1="151.54" y1="157.82" x2="155.54" y2="157.82" stroke="#333" stroke-width="1"/>
<line x1="151.54" y1="145.77" x2="155.54" y2="145.77" stroke="#333" stroke-width="1"/>
<rect x="161.75" y="173.19" width="12.42" height="6.81" fill="#BDBDBD" opacity="0.85"><title>Control — Prediction: 0.178 ×10⁻³</title></rect>
<line x1="167.96" y1="174.19" x2="167.96" y2="171.56" stroke="#333" stroke-width="1"/>
<line x1="165.96" y1="174.19" x2="169.96" y2="174.19" stroke="#333" stroke-width="1"/>
<line x1="165.96" y1="171.56" x2="169.96" y2="171.56" stroke="#333" stroke-width="1"/>
<text x="161.8" y="194" text-anchor="end" font-size="10" fill="#2196F3" transform="rotate(-30,161.8,194)">Prediction</text>
<rect x="182.82" y="159.06" width="12.42" height="20.94" fill="#81C784" opacity="0.85"><title>Partner Identity — Beliefs: 0.547 ×10⁻³</title></rect>
<line x1="189.04" y1="164.46" x2="189.04" y2="151.57" stroke="#333" stroke-width="1"/>
<line x1="187.04" y1="164.46" x2="191.04" y2="164.46" stroke="#333" stroke-width="1"/>
<line x1="187.04" y1="151.57" x2="191.04" y2="151.57" stroke="#333" stroke-width="1"/>
<rect x="197.25" y="169.21" width="12.42" height="10.79" fill="#BDBDBD" opacity="0.85"><title>Control — Beliefs: 0.282 ×10⁻³</title></rect>
<line x1="203.46" y1="171.26" x2="203.46" y2="167.84" stroke="#333" stroke-width="1"/>
<line x1="201.46" y1="171.26" x2="205.46" y2="171.26" stroke="#333" stroke-width="1"/>
<line x1="201.46" y1="167.84" x2="205.46" y2="167.84" stroke="#333" stroke-width="1"/>
<text x="197.2" y="194" text-anchor="end" font-size="10" fill="#2196F3" transform="rotate(-30,197.2,194)">Beliefs</text>
<rect x="218.32" y="154.19" width="12.42" height="25.81" fill="#81C784" opacity="0.85"><title>Partner Identity — Intentions: 0.675 ×10⁻³</title></rect>
<line x1="224.54" y1="162.44" x2="224.54" y2="145.04" stroke="#333" stroke-width="1"/>
<line x1="222.54" y1="162.44" x2="226.54" y2="162.44" stroke="#333" stroke-width="1"/>
<line x1="222.54" y1="145.04" x2="226.54" y2="145.04" stroke="#333" stroke-width="1"/>
<rect x="232.75" y="173.55" width="12.42" height="6.45" fill="#BDBDBD" opacity="0.85"><title>Control — Intentions: 0.169 ×10⁻³</title></rect>
<line x1="238.96" y1="174.26" x2="238.96" y2="172.34" stroke="#333" stroke-width="1"/>
<line x1="236.96" y1="174.26" x2="240.96" y2="174.26" stroke="#333" stroke-width="1"/>
<line x1="236.96" y1="172.34" x2="240.96" y2="172.34" stroke="#333" stroke-width="1"/>
<text x="232.8" y="194" text-anchor="end" font-size="10" fill="#2196F3" transform="rotate(-30,232.8,194)">Intentions</text>
<rect x="253.82" y="159.35" width="12.42" height="20.65" fill="#81C784" opacity="0.85"><title>Partner Identity — Agency: 0.540 ×10⁻³</title></rect>
<line x1="260.04" y1="165.01" x2="260.04" y2="151.17" stroke="#333" stroke-width="1"/>
<line x1="258.04" y1="165.01" x2="262.04" y2="165.01" stroke="#333" stroke-width="1"/>
<line x1="258.04" y1="151.17" x2="262.04" y2="151.17" stroke="#333" stroke-width="1"/>
<rect x="268.25" y="174.53" width="12.42" height="5.47" fill="#BDBDBD" opacity="0.85"><title>Control — Agency: 0.143 ×10⁻³</title></rect>
<line x1="274.46" y1="175.41" x2="274.46" y2="172.76" stroke="#333" stroke-width="1"/>
<line x1="272.46" y1="175.41" x2="276.46" y2="175.41" stroke="#333" stroke-width="1"/>
<line x1="272.46" y1="172.76" x2="276.46" y2="172.76" stroke="#333" stroke-width="1"/>
<text x="268.2" y="194" text-anchor="end" font-size="10" fill="#2196F3" transform="rotate(-30,268.2,194)">Agency</text>
<rect x="289.32" y="157.76" width="12.42" height="22.24" fill="#81C784" opacity="0.85"><title>Partner Identity — Roles: 0.581 ×10⁻³</title></rect>
<line x1="295.54" y1="162.10" x2="295.54" y2="153.36" stroke="#333" stroke-width="1"/>
<line x1="293.54" y1="162.10" x2="297.54" y2="162.10" stroke="#333" stroke-width="1"/>
<line x1="293.54" y1="153.36" x2="297.54" y2="153.36" stroke="#333" stroke-width="1"/>
<rect x="303.75" y="173.70" width="12.42" height="6.30" fill="#BDBDBD" opacity="0.85"><title>Control — Roles: 0.165 ×10⁻³</title></rect>
<line x1="309.96" y1="174.45" x2="309.96" y2="172.33" stroke="#333" stroke-width="1"/>
<line x1="307.96" y1="174.45" x2="311.96" y2="174.45" stroke="#333" stroke-width="1"/>
<line x1="307.96" y1="172.33" x2="311.96" y2="172.33" stroke="#333" stroke-width="1"/>
<text x="303.8" y="194" text-anchor="end" font-size="10" fill="#2196F3" transform="rotate(-30,303.8,194)">Roles</text>
<rect x="324.82" y="161.12" width="12.42" height="18.88" fill="#81C784" opacity="0.85"><title>Partner Identity — Desires: 0.493 ×10⁻³</title></rect>
<line x1="331.04" y1="165.07" x2="331.04" y2="156.60" stroke="#333" stroke-width="1"/>
<line x1="329.04" y1="165.07" x2="333.04" y2="165.07" stroke="#333" stroke-width="1"/>
<line x1="329.04" y1="156.60" x2="333.04" y2="156.60" stroke="#333" stroke-width="1"/>
<rect x="339.25" y="171.90" width="12.42" height="8.10" fill="#BDBDBD" opacity="0.85"><title>Control — Desires: 0.212 ×10⁻³</title></rect>
<line x1="345.46" y1="173.23" x2="345.46" y2="170.59" stroke="#333" stroke-width="1"/>
<line x1="343.46" y1="173.23" x2="347.46" y2="173.23" stroke="#333" stroke-width="1"/>
<line x1="343.46" y1="170.59" x2="347.46" y2="170.59" stroke="#333" stroke-width="1"/>
<text x="339.2" y="194" text-anchor="end" font-size="10" fill="#2196F3" transform="rotate(-30,339.2,194)">Desires</text>
<rect x="360.32" y="163.07" width="12.42" height="16.93" fill="#81C784" opacity="0.85"><title>Partner Identity — Phenomenology: 0.443 ×10⁻³</title></rect>
<line x1="366.54" y1="166.53" x2="366.54" y2="159.44" stroke="#333" stroke-width="1"/>
<line x1="364.54" y1="166.53" x2="368.54" y2="166.53" stroke="#333" stroke-width="1"/>
<line x1="364.54" y1="159.44" x2="368.54" y2="159.44" stroke="#333" stroke-width="1"/>
<rect x="374.75" y="171.88" width="12.42" height="8.12" fill="#BDBDBD" opacity="0.85"><title>Control — Phenomenology: 0.212 ×10⁻³</title></rect>
<line x1="380.96" y1="173.12" x2="380.96" y2="170.77" stroke="#333" stroke-width="1"/>
<line x1="378.96" y1="173.12" x2="382.96" y2="173.12" stroke="#333" stroke-width="1"/>
<line x1="378.96" y1="170.77" x2="382.96" y2="170.77" stroke="#333" stroke-width="1"/>
<text x="374.8" y="194" text-anchor="end" font-size="10" fill="#2196F3" transform="rotate(-30,374.8,194)">Phenomenology</text>
<rect x="395.82" y="162.76" width="12.42" height="17.24" fill="#81C784" opacity="0.85"><title>Partner Identity — Emotions: 0.451 ×10⁻³</title></rect>
<line x1="402.04" y1="166.02" x2="402.04" y2="159.11" stroke="#333" stroke-width="1"/>
<line x1="400.04" y1="166.02" x2="404.04" y2="166.02" stroke="#333" stroke-width="1"/>
<line x1="400.04" y1="159.11" x2="404.04" y2="159.11" stroke="#333" stroke-width="1"/>
<rect x="410.25" y="173.47" width="12.42" height="6.53" fill="#BDBDBD" opacity="0.85"><title>Control — Emotions: 0.171 ×10⁻³</title></rect>
<line x1="416.46" y1="174.23" x2="416.46" y2="172.42" stroke="#333" stroke-width="1"/>
<line x1="414.46" y1="174.23" x2="418.46" y2="174.23" stroke="#333" stroke-width="1"/>
<line x1="414.46" y1="172.42" x2="418.46" y2="172.42" stroke="#333" stroke-width="1"/>
<text x="410.2" y="194" text-anchor="end" font-size="10" fill="#2196F3" transform="rotate(-30,410.2,194)">Emotions</text>
<rect x="431.32" y="168.22" width="12.42" height="11.78" fill="#81C784" opacity="0.85"><title>Partner Identity — Embodiment: 0.308 ×10⁻³</title></rect>
<line x1="437.54" y1="170.04" x2="437.54" y2="165.75" stroke="#333" stroke-width="1"/>
<line x1="435.54" y1="170.04" x2="439.54" y2="170.04" stroke="#333" stroke-width="1"/>
<line x1="435.54" y1="165.75" x2="439.54" y2="165.75" stroke="#333" stroke-width="1"/>
<rect x="445.75" y="172.10" width="12.42" height="7.90" fill="#BDBDBD" opacity="0.85"><title>Control — Embodiment: 0.207 ×10⁻³</title></rect>
<line x1="451.96" y1="173.30" x2="451.96" y2="170.93" stroke="#333" stroke-width="1"/>
<line x1="449.96" y1="173.30" x2="453.96" y2="173.30" stroke="#333" stroke-width="1"/>
<line x1="449.96" y1="170.93" x2="453.96" y2="170.93" stroke="#333" stroke-width="1"/>
<text x="445.8" y="194" text-anchor="end" font-size="10" fill="#2196F3" transform="rotate(-30,445.8,194)">Embodiment</text>
<rect x="466.82" y="163.75" width="12.42" height="16.25" fill="#81C784" opacity="0.85"><title>Partner Identity — Animacy: 0.425 ×10⁻³</title></rect>
<line x1="473.04" y1="167.55" x2="473.04" y2="160.45" stroke="#333" stroke-width="1"/>
<line x1="471.04" y1="167.55" x2="475.04" y2="167.55" stroke="#333" stroke-width="1"/>
<line x1="471.04" y1="160.45" x2="475.04" y2="160.45" stroke="#333" stroke-width="1"/>
<rect x="481.25" y="170.61" width="12.42" height="9.39" fill="#BDBDBD" opacity="0.85"><title>Control — Animacy: 0.245 ×10⁻³</title></rect>
<line x1="487.46" y1="171.73" x2="487.46" y2="169.67" stroke="#333" stroke-width="1"/>
<line x1="485.46" y1="171.73" x2="489.46" y2="171.73" stroke="#333" stroke-width="1"/>
<line x1="485.46" y1="169.67" x2="489.46" y2="169.67" stroke="#333" stroke-width="1"/>
<text x="481.2" y="194" text-anchor="end" font-size="10" fill="#2196F3" transform="rotate(-30,481.2,194)">Animacy</text>
<line x1="497.0" y1="0" x2="497.0" y2="180" stroke="#ccc" stroke-width="1" stroke-dasharray="4,3"/>
<rect x="502.32" y="155.02" width="12.42" height="24.98" fill="#81C784" opacity="0.5"><title>Partner Identity — Human vs AI (general): 0.653 ×10⁻³</title></rect>
<line x1="508.54" y1="160.37" x2="508.54" y2="151.03" stroke="#333" stroke-width="1"/>
<line x1="506.54" y1="160.37" x2="510.54" y2="160.37" stroke="#333" stroke-width="1"/>
<line x1="506.54" y1="151.03" x2="510.54" y2="151.03" stroke="#333" stroke-width="1"/>
<rect x="516.75" y="172.85" width="12.42" height="7.15" fill="#BDBDBD" opacity="0.5"><title>Control — Human vs AI (general): 0.187 ×10⁻³</title></rect>
<line x1="522.96" y1="173.60" x2="522.96" y2="171.01" stroke="#333" stroke-width="1"/>
<line x1="520.96" y1="173.60" x2="524.96" y2="173.60" stroke="#333" stroke-width="1"/>
<line x1="520.96" y1="171.01" x2="524.96" y2="171.01" stroke="#333" stroke-width="1"/>
<text x="516.8" y="194" text-anchor="end" font-size="10" fill="#9E9E9E" transform="rotate(-30,516.8,194)">Human vs AI (general)</text>
<rect x="537.83" y="167.47" width="12.42" height="12.53" fill="#81C784" opacity="0.5"><title>Partner Identity — Biological: 0.327 ×10⁻³</title></rect>
<line x1="544.04" y1="169.23" x2="544.04" y2="165.04" stroke="#333" stroke-width="1"/>
<line x1="542.04" y1="169.23" x2="546.04" y2="169.23" stroke="#333" stroke-width="1"/>
<line x1="542.04" y1="165.04" x2="546.04" y2="165.04" stroke="#333" stroke-width="1"/>
<rect x="552.25" y="172.10" width="12.42" height="7.90" fill="#BDBDBD" opacity="0.5"><title>Control — Biological: 0.207 ×10⁻³</title></rect>
<line x1="558.46" y1="173.13" x2="558.46" y2="171.05" stroke="#333" stroke-width="1"/>
<line x1="556.46" y1="173.13" x2="560.46" y2="173.13" stroke="#333" stroke-width="1"/>
<line x1="556.46" y1="171.05" x2="560.46" y2="171.05" stroke="#333" stroke-width="1"/>
<text x="552.2" y="194" text-anchor="end" font-size="10" fill="#9E9E9E" transform="rotate(-30,552.2,194)">Biological</text>
<rect x="573.33" y="168.36" width="12.42" height="11.64" fill="#81C784" opacity="0.5"><title>Partner Identity — Shapes: 0.304 ×10⁻³</title></rect>
<line x1="579.54" y1="173.65" x2="579.54" y2="162.70" stroke="#333" stroke-width="1"/>
<line x1="577.54" y1="173.65" x2="581.54" y2="173.65" stroke="#333" stroke-width="1"/>
<line x1="577.54" y1="162.70" x2="581.54" y2="162.70" stroke="#333" stroke-width="1"/>
<rect x="587.75" y="172.11" width="12.42" height="7.89" fill="#BDBDBD" opacity="0.5"><title>Control — Shapes: 0.206 ×10⁻³</title></rect>
<line x1="593.96" y1="173.91" x2="593.96" y2="170.03" stroke="#333" stroke-width="1"/>
<line x1="591.96" y1="173.91" x2="595.96" y2="173.91" stroke="#333" stroke-width="1"/>
<line x1="591.96" y1="170.03" x2="595.96" y2="170.03" stroke="#333" stroke-width="1"/>
<text x="587.8" y="194" text-anchor="end" font-size="10" fill="#9E9E9E" transform="rotate(-30,587.8,194)">Shapes</text>
<rect x="608.83" y="173.26" width="12.42" height="6.74" fill="#81C784" opacity="0.5"><title>Partner Identity — Granite/Sandstone: 0.176 ×10⁻³</title></rect>
<line x1="615.04" y1="175.91" x2="615.04" y2="164.55" stroke="#333" stroke-width="1"/>
<line x1="613.04" y1="175.91" x2="617.04" y2="175.91" stroke="#333" stroke-width="1"/>
<line x1="613.04" y1="164.55" x2="617.04" y2="164.55" stroke="#333" stroke-width="1"/>
<rect x="623.25" y="172.58" width="12.42" height="7.42" fill="#BDBDBD" opacity="0.5"><title>Control — Granite/Sandstone: 0.194 ×10⁻³</title></rect>
<line x1="629.46" y1="175.10" x2="629.46" y2="169.27" stroke="#333" stroke-width="1"/>
<line x1="627.46" y1="175.10" x2="631.46" y2="175.10" stroke="#333" stroke-width="1"/>
<line x1="627.46" y1="169.27" x2="631.46" y2="169.27" stroke="#333" stroke-width="1"/>
<text x="623.2" y="194" text-anchor="end" font-size="10" fill="#9E9E9E" transform="rotate(-30,623.2,194)">Granite/Sandstone</text>
<rect x="644.33" y="171.54" width="12.42" height="8.46" fill="#81C784" opacity="0.5"><title>Partner Identity — Squares/Triangles: 0.221 ×10⁻³</title></rect>
<line x1="650.54" y1="173.58" x2="650.54" y2="165.12" stroke="#333" stroke-width="1"/>
<line x1="648.54" y1="173.58" x2="652.54" y2="173.58" stroke="#333" stroke-width="1"/>
<line x1="648.54" y1="165.12" x2="652.54" y2="165.12" stroke="#333" stroke-width="1"/>
<rect x="658.75" y="171.55" width="12.42" height="8.45" fill="#BDBDBD" opacity="0.5"><title>Control — Squares/Triangles: 0.221 ×10⁻³</title></rect>
<line x1="664.96" y1="174.29" x2="664.96" y2="169.81" stroke="#333" stroke-width="1"/>
<line x1="662.96" y1="174.29" x2="666.96" y2="174.29" stroke="#333" stroke-width="1"/>
<line x1="662.96" y1="169.81" x2="666.96" y2="169.81" stroke="#333" stroke-width="1"/>
<text x="658.8" y="194" text-anchor="end" font-size="10" fill="#9E9E9E" transform="rotate(-30,658.8,194)">Squares/Triangles</text>
<rect x="679.83" y="172.53" width="12.42" height="7.47" fill="#81C784" opacity="0.5"><title>Partner Identity — Horizontal/Vertical: 0.195 ×10⁻³</title></rect>
<line x1="686.04" y1="175.52" x2="686.04" y2="161.83" stroke="#333" stroke-width="1"/>
<line x1="684.04" y1="175.52" x2="688.04" y2="175.52" stroke="#333" stroke-width="1"/>
<line x1="684.04" y1="161.83" x2="688.04" y2="161.83" stroke="#333" stroke-width="1"/>
<rect x="694.25" y="168.00" width="12.42" height="12.00" fill="#BDBDBD" opacity="0.5"><title>Control — Horizontal/Vertical: 0.314 ×10⁻³</title></rect>
<line x1="700.46" y1="173.96" x2="700.46" y2="166.07" stroke="#333" stroke-width="1"/>
<line x1="698.46" y1="173.96" x2="702.46" y2="173.96" stroke="#333" stroke-width="1"/>
<line x1="698.46" y1="166.07" x2="702.46" y2="166.07" stroke="#333" stroke-width="1"/>
<text x="694.2" y="194" text-anchor="end" font-size="10" fill="#9E9E9E" transform="rotate(-30,694.2,194)">Horizontal/Vertical</text>
<line x1="0" y1="180" x2="710" y2="180" stroke="#333"/>
<line x1="0" y1="0" x2="0" y2="180" stroke="#333"/>
</g>
<rect x="70" y="300" width="10" height="10" fill="#81C784"/>
<text x="84" y="308" font-size="9" fill="#333">Partner Identity</text>
<rect x="210" y="300" width="10" height="10" fill="#BDBDBD"/>
<text x="224" y="308" font-size="9" fill="#333">Control</text>
</svg>