<svg viewBox="0 0 800 320" xmlns="http://www.w3.org/2000/svg" style="width:100%;max-width:800px;height:auto;font-family:Arial,sans-serif;">
<rect width="800" height="320" fill="white"/>

<g transform="translate(70,30)">
<line x1="0" y1="180.0" x2="710" y2="180.0" stroke="#eee" stroke-width="1"/>
<text x="-8" y="184.0" text-anchor="end" font-size="10" fill="#666">0.00</text>
<line x1="0" y1="144.0" x2="710" y2="144.0" stroke="#eee" stroke-width="1"/>
<text x="-8" y="148.0" text-anchor="end" font-size="10" fill="#666">0.94</text>
<line x1="0" y1="108.0" x2="710" y2="108.0" stroke="#eee" stroke-width="1"/>
<text x="-8" y="112.0" text-anchor="end" font-size="10" fill="#666">1.88</text>
<line x1="0" y1="72.0" x2="710" y2="72.0" stroke="#eee" stroke-width="1"/>
<text x="-8" y="76.0" text-anchor="end" font-size="10" fill="#666">2.82</text>
<line x1="0" y1="36.0" x2="710" y2="36.0" stroke="#eee" stroke-width="1"/>
<text x="-8" y="40.0" text-anchor="end" font-size="10" fill="#666">3.76</text>
<line x1="0" y1="0.0" x2="710" y2="0.0" stroke="#eee" stroke-width="1"/>
<text x="-8" y="4.0" text-anchor="end" font-size="10" fill="#666">4.70</text>
<text x="-50" y="90.0" text-anchor="middle" font-size="11" fill="#333" transform="rotate(-90,-50,90.0)">Mean R² (×10⁻³)</text>
<rect x="11.83" y="162.59" width="27.61" height="17.41" fill="#81C784" opacity="0.85"><title>Partner Identity — Expertise: 0.455 ×10⁻³</title></rect>
<line x1="25.64" y1="165.73" x2="25.64" y2="159.27" stroke="#333" stroke-width="1"/>
<line x1="23.64" y1="165.73" x2="27.64" y2="165.73" stroke="#333" stroke-width="1"/>
<line x1="23.64" y1="159.27" x2="27.64" y2="159.27" stroke="#333" stroke-width="1"/>
<rect x="41.44" y="169.17" width="27.61" height="10.83" fill="#BDBDBD" opacity="0.85"><title>Control — Expertise: 0.283 ×10⁻³</title></rect>
<line x1="55.25" y1="170.10" x2="55.25" y2="168.29" stroke="#333" stroke-width="1"/>
<line x1="53.25" y1="170.10" x2="57.25" y2="170.10" stroke="#333" stroke-width="1"/>
<line x1="53.25" y1="168.29" x2="57.25" y2="168.29" stroke="#333" stroke-width="1"/>
<text x="41.4" y="194" text-anchor="end" font-size="10" fill="#FF9800" transform="rotate(-30,41.4,194)">Expertise</text>
<rect x="90.72" y="167.99" width="27.61" height="12.01" fill="#81C784" opacity="0.85"><title>Partner Identity — Formality: 0.314 ×10⁻³</title></rect>
<line x1="104.53" y1="172.63" x2="104.53" y2="163.41" stroke="#333" stroke-width="1"/>
<line x1="102.53" y1="172.63" x2="106.53" y2="172.63" stroke="#333" stroke-width="1"/>
<line x1="102.53" y1="163.41" x2="106.53" y2="163.41" stroke="#333" stroke-width="1"/>
<rect x="120.33" y="170.31" width="27.61" height="9.69" fill="#BDBDBD" opacity="0.85"><title>Control — Formality: 0.253 ×10⁻³</title></rect>
<line x1="134.14" y1="172.56" x2="134.14" y2="168.41" stroke="#333" stroke-width="1"/>
<line x1="132.14" y1="172.56" x2="136.14" y2="172.56" stroke="#333" stroke-width="1"/>
<line x1="132.14" y1="168.41" x2="136.14" y2="168.41" stroke="#333" stroke-width="1"/>
<text x="120.3" y="194" text-anchor="end" font-size="10" fill="#FF9800" transform="rotate(-30,120.3,194)">Formality</text>
<rect x="169.61" y="168.65" width="27.61" height="11.35" fill="#81C784" opacity="0.85"><title>Partner Identity — Helpfulness: 0.297 ×10⁻³</title></rect>
<line x1="183.42" y1="173.82" x2="183.42" y2="162.65" stroke="#333" stroke-width="1"/>
<line x1="181.42" y1="173.82" x2="185.42" y2="173.82" stroke="#333" stroke-width="1"/>
<line x1="181.42" y1="162.65" x2="185.42" y2="162.65" stroke="#333" stroke-width="1"/>
<rect x="199.22" y="170.19" width="27.61" height="9.81" fill="#BDBDBD" opacity="0.85"><title>Control — Helpfulness: 0.257 ×10⁻³</title></rect>
<line x1="213.03" y1="172.92" x2="213.03" y2="168.74" stroke="#333" stroke-width="1"/>
<line x1="211.03" y1="172.92" x2="215.03" y2="172.92" stroke="#333" stroke-width="1"/>
<line x1="211.03" y1="168.74" x2="215.03" y2="168.74" stroke="#333" stroke-width="1"/>
<text x="199.2" y="194" text-anchor="end" font-size="10" fill="#FF9800" transform="rotate(-30,199.2,194)">Helpfulness</text>
<line x1="236.66666666666666" y1="0" x2="236.66666666666666" y2="180" stroke="#ccc" stroke-width="1" stroke-dasharray="4,3"/>
<rect x="248.50" y="155.02" width="27.61" height="24.98" fill="#81C784" opacity="0.5"><title>Partner Identity — Human vs AI (general): 0.653 ×10⁻³</title></rect>
<line x1="262.31" y1="160.37" x2="262.31" y2="151.03" stroke="#333" stroke-width="1"/>
<line x1="260.31" y1="160.37" x2="264.31" y2="160.37" stroke="#333" stroke-width="1"/>
<line x1="260.31" y1="151.03" x2="264.31" y2="151.03" stroke="#333" stroke-width="1"/>
<rect x="278.11" y="172.85" width="27.61" height="7.15" fill="#BDBDBD" opacity="0.5"><title>Control — Human vs AI (general): 0.187 ×10⁻³</title></rect>
<line x1="291.92" y1="173.60" x2="291.92" y2="171.01" stroke="#333" stroke-width="1"/>
<line x1="289.92" y1="173.60" x2="293.92" y2="173.60" stroke="#333" stroke-width="1"/>
<line x1="289.92" y1="171.01" x2="293.92" y2="171.01" stroke="#333" stroke-width="1"/>
<text x="278.1" y="194" text-anchor="end" font-size="10" fill="#9E9E9E" transform="rotate(-30,278.1,194)">Human vs AI (general)</text>
<rect x="327.39" y="167.47" width="27.61" height="12.53" fill="#81C784" opacity="0.5"><title>Partner Identity — Biological: 0.327 ×10⁻³</title></rect>
<line x1="341.19" y1="169.23" x2="341.19" y2="165.04" stroke="#333" stroke-width="1"/>
<line x1="339.19" y1="169.23" x2="343.19" y2="169.23" stroke="#333" stroke-width="1"/>
<line x1="339.19" y1="165.04" x2="343.19" y2="165.04" stroke="#333" stroke-width="1"/>
<rect x="357.00" y="172.10" width="27.61" height="7.90" fill="#BDBDBD" opacity="0.5"><title>Control — Biological: 0.207 ×10⁻³</title></rect>
<line x1="370.81" y1="173.13" x2="370.81" y2="171.05" stroke="#333" stroke-width="1"/>
<line x1="368.81" y1="173.13" x2="372.81" y2="173.13" stroke="#333" stroke-width="1"/>
<line x1="368.81" y1="171.05" x2="372.81" y2="171.05" stroke="#333" stroke-width="1"/>
<text x="357.0" y="194" text-anchor="end" font-size="10" fill="#9E9E9E" transform="rotate(-30,357.0,194)">Biological</text>
<rect x="406.28" y="168.36" width="27.61" height="11.64" fill="#81C784" opacity="0.5"><title>Partner Identity — Shapes: 0.304 ×10⁻³</title></rect>
<line x1="420.08" y1="173.65" x2="420.08" y2="162.70" stroke="#333" stroke-width="1"/>
<line x1="418.08" y1="173.65" x2="422.08" y2="173.65" stroke="#333" stroke-width="1"/>
<line x1="418.08" y1="162.70" x2="422.08" y2="162.70" stroke="#333" stroke-width="1"/>
<rect x="435.89" y="172.11" width="27.61" height="7.89" fill="#BDBDBD" opacity="0.5"><title>Control — Shapes: 0.206 ×10⁻³</title></rect>
<line x1="449.69" y1="173.91" x2="449.69" y2="170.03" stroke="#333" stroke-width="1"/>
<line x1="447.69" y1="173.91" x2="451.69" y2="173.91" stroke="#333" stroke-width="1"/>
<line x1="447.69" y1="170.03" x2="451.69" y2="170.03" stroke="#333" stroke-width="1"/>
<text x="435.9" y="194" text-anchor="end" font-size="10" fill="#9E9E9E" transform="rotate(-30,435.9,194)">Shapes</text>
<rect x="485.17" y="173.26" width="27.61" height="6.74" fill="#81C784" opacity="0.5"><title>Partner Identity — Granite/Sandstone: 0.176 ×10⁻³</title></rect>
<line x1="498.97" y1="175.91" x2="498.97" y2="164.55" stroke="#333" stroke-width="1"/>
<line x1="496.97" y1="175.91" x2="500.97" y2="175.91" stroke="#333" stroke-width="1"/>
<line x1="496.97" y1="164.55" x2="500.97" y2="164.55" stroke="#333" stroke-width="1"/>
<rect x="514.78" y="172.58" width="27.61" height="7.42" fill="#BDBDBD" opacity="0.5"><title>Control — Granite/Sandstone: 0.194 ×10⁻³</title></rect>
<line x1="528.58" y1="175.10" x2="528.58" y2="169.27" stroke="#333" stroke-width="1"/>
<line x1="526.58" y1="175.10" x2="530.58" y2="175.10" stroke="#333" stroke-width="1"/>
<line x1="526.58" y1="169.27" x2="530.58" y2="169.27" stroke="#333" stroke-width="1"/>
<text x="514.8" y="194" text-anchor="end" font-size="10" fill="#9E9E9E" transform="rotate(-30,514.8,194)">Granite/Sandstone</text>
<rect x="564.06" y="171.54" width="27.61" height="8.46" fill="#81C784" opacity="0.5"><title>Partner Identity — Squares/Triangles: 0.221 ×10⁻³</title></rect>
<line x1="577.86" y1="173.58" x2="577.86" y2="165.12" stroke="#333" stroke-width="1"/>
<line x1="575.86" y1="173.58" x2="579.86" y2="173.58" stroke="#333" stroke-width="1"/>
<line x1="575.86" y1="165.12" x2="579.86" y2="165.12" stroke="#333" stroke-width="1"/>
<rect x="593.67" y="171.55" width="27.61" height="8.45" fill="#BDBDBD" opacity="0.5"><title>Control — Squares/Triangles: 0.221 ×10⁻³</title></rect>
<line x1="607.47" y1="174.29" x2="607.47" y2="169.81" stroke="#333" stroke-width="1"/>
<line x1="605.47" y1="174.29" x2="609.47" y2="174.29" stroke="#333" stroke-width="1"/>
<line x1="605.47" y1="169.81" x2="609.47" y2="169.81" stroke="#333" stroke-width="1"/>
<text x="593.7" y="194" text-anchor="end" font-size="10" fill="#9E9E9E" transform="rotate(-30,593.7,194)">Squares/Triangles</text>
<rect x="642.94" y="172.53" width="27.61" height="7.47" fill="#81C784" opacity="0.5"><title>Partner Identity — Horizontal/Vertical: 0.195 ×10⁻³</title></rect>
<line x1="656.75" y1="175.52" x2="656.75" y2="161.83" stroke="#333" stroke-width="1"/>
<line x1="654.75" y1="175.52" x2="658.75" y2="175.52" stroke="#333" stroke-width="1"/>
<line x1="654.75" y1="161.83" x2="658.75" y2="161.83" stroke="#333" stroke-width="1"/>
<rect x="672.56" y="168.00" width="27.61" height="12.00" fill="#BDBDBD" opacity="0.5"><title>Control — Horizontal/Vertical: 0.314 ×10⁻³</title></rect>
<line x1="686.36" y1="173.96" x2="686.36" y2="166.07" stroke="#333" stroke-width="1"/>
<line x1="684.36" y1="173.96" x2="688.36" y2="173.96" stroke="#333" stroke-width="1"/>
<line x1="684.36" y1="166.07" x2="688.36" y2="166.07" stroke="#333" stroke-width="1"/>
<text x="672.6" y="194" text-anchor="end" font-size="10" fill="#9E9E9E" transform="rotate(-30,672.6,194)">Horizontal/Vertical</text>
<line x1="0" y1="180" x2="710" y2="180" stroke="#333"/>
<line x1="0" y1="0" x2="0" y2="180" stroke="#333"/>
</g>
<rect x="70" y="300" width="10" height="10" fill="#81C784"/>
<text x="84" y="308" font-size="9" fill="#333">Partner Identity</text>
<rect x="210" y="300" width="10" height="10" fill="#BDBDBD"/>
<text x="224" y="308" font-size="9" fill="#333">Control</text>
</svg>