<svg viewBox="0 0 800 320" xmlns="http://www.w3.org/2000/svg" style="width:100%;max-width:800px;height:auto;font-family:Arial,sans-serif;">
<rect width="800" height="320" fill="white"/>

<g transform="translate(70,30)">
<line x1="0" y1="180.0" x2="710" y2="180.0" stroke="#eee" stroke-width="1"/>
<text x="-8" y="184.0" text-anchor="end" font-size="10" fill="#666">0.00</text>
<line x1="0" y1="144.0" x2="710" y2="144.0" stroke="#eee" stroke-width="1"/>
<text x="-8" y="148.0" text-anchor="end" font-size="10" fill="#666">0.94</text>
<line x1="0" y1="108.0" x2="710" y2="108.0" stroke="#eee" stroke-width="1"/>
<text x="-8" y="112.0" text-anchor="end" font-size="10" fill="#666">1.88</text>
<line x1="0" y1="72.0" x2="710" y2="72.0" stroke="#eee" stroke-width="1"/>
<text x="-8" y="76.0" text-anchor="end" font-size="10" fill="#666">2.82</text>
<line x1="0" y1="36.0" x2="710" y2="36.0" stroke="#eee" stroke-width="1"/>
<text x="-8" y="40.0" text-anchor="end" font-size="10" fill="#666">3.76</text>
<line x1="0" y1="0.0" x2="710" y2="0.0" stroke="#eee" stroke-width="1"/>
<text x="-8" y="4.0" text-anchor="end" font-size="10" fill="#666">4.70</text>
<text x="-50" y="90.0" text-anchor="middle" font-size="11" fill="#333" transform="rotate(-90,-50,90.0)">Mean R² (×10⁻³)</text>
<rect x="5.33" y="44.57" width="12.42" height="135.43" fill="#2E7D32" opacity="0.85"><title>Partner Identity — Attention: 3.540 ×10⁻³</title></rect>
<line x1="11.54" y1="69.23" x2="11.54" y2="30.90" stroke="#333" stroke-width="1"/>
<line x1="9.54" y1="69.23" x2="13.54" y2="69.23" stroke="#333" stroke-width="1"/>
<line x1="9.54" y1="30.90" x2="13.54" y2="30.90" stroke="#333" stroke-width="1"/>
<rect x="19.75" y="169.46" width="12.42" height="10.54" fill="#616161" opacity="0.85"><title>Control — Attention: 0.275 ×10⁻³</title></rect>
<line x1="25.96" y1="171.23" x2="25.96" y2="168.26" stroke="#333" stroke-width="1"/>
<line x1="23.96" y1="171.23" x2="27.96" y2="171.23" stroke="#333" stroke-width="1"/>
<line x1="23.96" y1="168.26" x2="27.96" y2="168.26" stroke="#333" stroke-width="1"/>
<text x="19.8" y="194" text-anchor="end" font-size="10" fill="#2196F3" transform="rotate(-30,19.8,194)">Attention</text>
<rect x="40.83" y="51.22" width="12.42" height="128.78" fill="#2E7D32" opacity="0.85"><title>Partner Identity — Social: 3.366 ×10⁻³</title></rect>
<line x1="47.04" y1="76.94" x2="47.04" y2="29.44" stroke="#333" stroke-width="1"/>
<line x1="45.04" y1="76.94" x2="49.04" y2="76.94" stroke="#333" stroke-width="1"/>
<line x1="45.04" y1="29.44" x2="49.04" y2="29.44" stroke="#333" stroke-width="1"/>
<rect x="55.25" y="168.85" width="12.42" height="11.15" fill="#616161" opacity="0.85"><title>Control — Social: 0.291 ×10⁻³</title></rect>
<line x1="61.46" y1="171.40" x2="61.46" y2="167.40" stroke="#333" stroke-width="1"/>
<line x1="59.46" y1="171.40" x2="63.46" y2="171.40" stroke="#333" stroke-width="1"/>
<line x1="59.46" y1="167.40" x2="63.46" y2="167.40" stroke="#333" stroke-width="1"/>
<text x="55.2" y="194" text-anchor="end" font-size="10" fill="#2196F3" transform="rotate(-30,55.2,194)">Social</text>
<rect x="76.33" y="59.80" width="12.42" height="120.20" fill="#2E7D32" opacity="0.85"><title>Partner Identity — Cognitive: 3.142 ×10⁻³</title></rect>
<line x1="82.54" y1="78.93" x2="82.54" y2="48.80" stroke="#333" stroke-width="1"/>
<line x1="80.54" y1="78.93" x2="84.54" y2="78.93" stroke="#333" stroke-width="1"/>
<line x1="80.54" y1="48.80" x2="84.54" y2="48.80" stroke="#333" stroke-width="1"/>
<rect x="90.75" y="169.42" width="12.42" height="10.58" fill="#616161" opacity="0.85"><title>Control — Cognitive: 0.276 ×10⁻³</title></rect>
<line x1="96.96" y1="171.62" x2="96.96" y2="166.96" stroke="#333" stroke-width="1"/>
<line x1="94.96" y1="171.62" x2="98.96" y2="171.62" stroke="#333" stroke-width="1"/>
<line x1="94.96" y1="166.96" x2="98.96" y2="166.96" stroke="#333" stroke-width="1"/>
<text x="90.8" y="194" text-anchor="end" font-size="10" fill="#2196F3" transform="rotate(-30,90.8,194)">Cognitive</text>
<rect x="111.83" y="65.38" width="12.42" height="114.62" fill="#2E7D32" opacity="0.85"><title>Partner Identity — Goals: 2.996 ×10⁻³</title></rect>
<line x1="118.04" y1="89.34" x2="118.04" y2="48.61" stroke="#333" stroke-width="1"/>
<line x1="116.04" y1="89.34" x2="120.04" y2="89.34" stroke="#333" stroke-width="1"/>
<line x1="116.04" y1="48.61" x2="120.04" y2="48.61" stroke="#333" stroke-width="1"/>
<rect x="126.25" y="168.98" width="12.42" height="11.02" fill="#616161" opacity="0.85"><title>Control — Goals: 0.288 ×10⁻³</title></rect>
<line x1="132.46" y1="170.92" x2="132.46" y2="167.26" stroke="#333" stroke-width="1"/>
<line x1="130.46" y1="170.92" x2="134.46" y2="170.92" stroke="#333" stroke-width="1"/>
<line x1="130.46" y1="167.26" x2="134.46" y2="167.26" stroke="#333" stroke-width="1"/>
<text x="126.2" y="194" text-anchor="end" font-size="10" fill="#2196F3" transform="rotate(-30,126.2,194)">Goals</text>
<rect x="147.32" y="65.72" width="12.42" height="114.28" fill="#2E7D32" opacity="0.85"><title>Partner Identity — Prediction: 2.987 ×10⁻³</title></rect>
<line x1="153.54" y1="87.44" x2="153.54" y2="49.54" stroke="#333" stroke-width="1"/>
<line x1="151.54" y1="87.44" x2="155.54" y2="87.44" stroke="#333" stroke-width="1"/>
<line x1="151.54" y1="49.54" x2="155.54" y2="49.54" stroke="#333" stroke-width="1"/>
<rect x="161.75" y="168.03" width="12.42" height="11.97" fill="#616161" opacity="0.85"><title>Control — Prediction: 0.313 ×10⁻³</title></rect>
<line x1="167.96" y1="170.13" x2="167.96" y2="166.69" stroke="#333" stroke-width="1"/>
<line x1="165.96" y1="170.13" x2="169.96" y2="170.13" stroke="#333" stroke-width="1"/>
<line x1="165.96" y1="166.69" x2="169.96" y2="166.69" stroke="#333" stroke-width="1"/>
<text x="161.8" y="194" text-anchor="end" font-size="10" fill="#2196F3" transform="rotate(-30,161.8,194)">Prediction</text>
<rect x="182.82" y="65.04" width="12.42" height="114.96" fill="#2E7D32" opacity="0.85"><title>Partner Identity — Beliefs: 3.005 ×10⁻³</title></rect>
<line x1="189.04" y1="83.89" x2="189.04" y2="53.08" stroke="#333" stroke-width="1"/>
<line x1="187.04" y1="83.89" x2="191.04" y2="83.89" stroke="#333" stroke-width="1"/>
<line x1="187.04" y1="53.08" x2="191.04" y2="53.08" stroke="#333" stroke-width="1"/>
<rect x="197.25" y="165.72" width="12.42" height="14.28" fill="#616161" opacity="0.85"><title>Control — Beliefs: 0.373 ×10⁻³</title></rect>
<line x1="203.46" y1="168.00" x2="203.46" y2="164.59" stroke="#333" stroke-width="1"/>
<line x1="201.46" y1="168.00" x2="205.46" y2="168.00" stroke="#333" stroke-width="1"/>
<line x1="201.46" y1="164.59" x2="205.46" y2="164.59" stroke="#333" stroke-width="1"/>
<text x="197.2" y="194" text-anchor="end" font-size="10" fill="#2196F3" transform="rotate(-30,197.2,194)">Beliefs</text>
<rect x="218.32" y="71.37" width="12.42" height="108.63" fill="#2E7D32" opacity="0.85"><title>Partner Identity — Intentions: 2.839 ×10⁻³</title></rect>
<line x1="224.54" y1="95.12" x2="224.54" y2="56.82" stroke="#333" stroke-width="1"/>
<line x1="222.54" y1="95.12" x2="226.54" y2="95.12" stroke="#333" stroke-width="1"/>
<line x1="222.54" y1="56.82" x2="226.54" y2="56.82" stroke="#333" stroke-width="1"/>
<rect x="232.75" y="165.36" width="12.42" height="14.64" fill="#616161" opacity="0.85"><title>Control — Intentions: 0.383 ×10⁻³</title></rect>
<line x1="238.96" y1="167.63" x2="238.96" y2="164.12" stroke="#333" stroke-width="1"/>
<line x1="236.96" y1="167.63" x2="240.96" y2="167.63" stroke="#333" stroke-width="1"/>
<line x1="236.96" y1="164.12" x2="240.96" y2="164.12" stroke="#333" stroke-width="1"/>
<text x="232.8" y="194" text-anchor="end" font-size="10" fill="#2196F3" transform="rotate(-30,232.8,194)">Intentions</text>
<rect x="253.82" y="81.41" width="12.42" height="98.59" fill="#2E7D32" opacity="0.85"><title>Partner Identity — Agency: 2.577 ×10⁻³</title></rect>
<line x1="260.04" y1="101.76" x2="260.04" y2="65.76" stroke="#333" stroke-width="1"/>
<line x1="258.04" y1="101.76" x2="262.04" y2="101.76" stroke="#333" stroke-width="1"/>
<line x1="258.04" y1="65.76" x2="262.04" y2="65.76" stroke="#333" stroke-width="1"/>
<rect x="268.25" y="165.52" width="12.42" height="14.48" fill="#616161" opacity="0.85"><title>Control — Agency: 0.379 ×10⁻³</title></rect>
<line x1="274.46" y1="167.75" x2="274.46" y2="164.39" stroke="#333" stroke-width="1"/>
<line x1="272.46" y1="167.75" x2="276.46" y2="167.75" stroke="#333" stroke-width="1"/>
<line x1="272.46" y1="164.39" x2="276.46" y2="164.39" stroke="#333" stroke-width="1"/>
<text x="268.2" y="194" text-anchor="end" font-size="10" fill="#2196F3" transform="rotate(-30,268.2,194)">Agency</text>
<rect x="289.32" y="83.55" width="12.42" height="96.45" fill="#2E7D32" opacity="0.85"><title>Partner Identity — Roles: 2.521 ×10⁻³</title></rect>
<line x1="295.54" y1="104.88" x2="295.54" y2="67.09" stroke="#333" stroke-width="1"/>
<line x1="293.54" y1="104.88" x2="297.54" y2="104.88" stroke="#333" stroke-width="1"/>
<line x1="293.54" y1="67.09" x2="297.54" y2="67.09" stroke="#333" stroke-width="1"/>
<rect x="303.75" y="170.17" width="12.42" height="9.83" fill="#616161" opacity="0.85"><title>Control — Roles: 0.257 ×10⁻³</title></rect>
<line x1="309.96" y1="172.12" x2="309.96" y2="167.85" stroke="#333" stroke-width="1"/>
<line x1="307.96" y1="172.12" x2="311.96" y2="172.12" stroke="#333" stroke-width="1"/>
<line x1="307.96" y1="167.85" x2="311.96" y2="167.85" stroke="#333" stroke-width="1"/>
<text x="303.8" y="194" text-anchor="end" font-size="10" fill="#2196F3" transform="rotate(-30,303.8,194)">Roles</text>
<rect x="324.82" y="82.64" width="12.42" height="97.36" fill="#2E7D32" opacity="0.85"><title>Partner Identity — Desires: 2.545 ×10⁻³</title></rect>
<line x1="331.04" y1="95.58" x2="331.04" y2="74.05" stroke="#333" stroke-width="1"/>
<line x1="329.04" y1="95.58" x2="333.04" y2="95.58" stroke="#333" stroke-width="1"/>
<line x1="329.04" y1="74.05" x2="333.04" y2="74.05" stroke="#333" stroke-width="1"/>
<rect x="339.25" y="165.56" width="12.42" height="14.44" fill="#616161" opacity="0.85"><title>Control — Desires: 0.377 ×10⁻³</title></rect>
<line x1="345.46" y1="167.27" x2="345.46" y2="164.62" stroke="#333" stroke-width="1"/>
<line x1="343.46" y1="167.27" x2="347.46" y2="167.27" stroke="#333" stroke-width="1"/>
<line x1="343.46" y1="164.62" x2="347.46" y2="164.62" stroke="#333" stroke-width="1"/>
<text x="339.2" y="194" text-anchor="end" font-size="10" fill="#2196F3" transform="rotate(-30,339.2,194)">Desires</text>
<rect x="360.32" y="99.36" width="12.42" height="80.64" fill="#2E7D32" opacity="0.85"><title>Partner Identity — Phenomenology: 2.108 ×10⁻³</title></rect>
<line x1="366.54" y1="114.33" x2="366.54" y2="90.77" stroke="#333" stroke-width="1"/>
<line x1="364.54" y1="114.33" x2="368.54" y2="114.33" stroke="#333" stroke-width="1"/>
<line x1="364.54" y1="90.77" x2="368.54" y2="90.77" stroke="#333" stroke-width="1"/>
<rect x="374.75" y="169.79" width="12.42" height="10.21" fill="#616161" opacity="0.85"><title>Control — Phenomenology: 0.267 ×10⁻³</title></rect>
<line x1="380.96" y1="171.57" x2="380.96" y2="168.47" stroke="#333" stroke-width="1"/>
<line x1="378.96" y1="171.57" x2="382.96" y2="171.57" stroke="#333" stroke-width="1"/>
<line x1="378.96" y1="168.47" x2="382.96" y2="168.47" stroke="#333" stroke-width="1"/>
<text x="374.8" y="194" text-anchor="end" font-size="10" fill="#2196F3" transform="rotate(-30,374.8,194)">Phenomenology</text>
<rect x="395.82" y="103.53" width="12.42" height="76.47" fill="#2E7D32" opacity="0.85"><title>Partner Identity — Emotions: 1.999 ×10⁻³</title></rect>
<line x1="402.04" y1="116.78" x2="402.04" y2="93.21" stroke="#333" stroke-width="1"/>
<line x1="400.04" y1="116.78" x2="404.04" y2="116.78" stroke="#333" stroke-width="1"/>
<line x1="400.04" y1="93.21" x2="404.04" y2="93.21" stroke="#333" stroke-width="1"/>
<rect x="410.25" y="167.00" width="12.42" height="13.00" fill="#616161" opacity="0.85"><title>Control — Emotions: 0.340 ×10⁻³</title></rect>
<line x1="416.46" y1="168.71" x2="416.46" y2="165.92" stroke="#333" stroke-width="1"/>
<line x1="414.46" y1="168.71" x2="418.46" y2="168.71" stroke="#333" stroke-width="1"/>
<line x1="414.46" y1="165.92" x2="418.46" y2="165.92" stroke="#333" stroke-width="1"/>
<text x="410.2" y="194" text-anchor="end" font-size="10" fill="#2196F3" transform="rotate(-30,410.2,194)">Emotions</text>
<rect x="431.32" y="112.25" width="12.42" height="67.75" fill="#2E7D32" opacity="0.85"><title>Partner Identity — Embodiment: 1.771 ×10⁻³</title></rect>
<line x1="437.54" y1="123.10" x2="437.54" y2="103.97" stroke="#333" stroke-width="1"/>
<line x1="435.54" y1="123.10" x2="439.54" y2="123.10" stroke="#333" stroke-width="1"/>
<line x1="435.54" y1="103.97" x2="439.54" y2="103.97" stroke="#333" stroke-width="1"/>
<rect x="445.75" y="169.49" width="12.42" height="10.51" fill="#616161" opacity="0.85"><title>Control — Embodiment: 0.275 ×10⁻³</title></rect>
<line x1="451.96" y1="171.05" x2="451.96" y2="168.18" stroke="#333" stroke-width="1"/>
<line x1="449.96" y1="171.05" x2="453.96" y2="171.05" stroke="#333" stroke-width="1"/>
<line x1="449.96" y1="168.18" x2="453.96" y2="168.18" stroke="#333" stroke-width="1"/>
<text x="445.8" y="194" text-anchor="end" font-size="10" fill="#2196F3" transform="rotate(-30,445.8,194)">Embodiment</text>
<rect x="466.82" y="126.39" width="12.42" height="53.61" fill="#2E7D32" opacity="0.85"><title>Partner Identity — Animacy: 1.401 ×10⁻³</title></rect>
<line x1="473.04" y1="137.76" x2="473.04" y2="118.47" stroke="#333" stroke-width="1"/>
<line x1="471.04" y1="137.76" x2="475.04" y2="137.76" stroke="#333" stroke-width="1"/>
<line x1="471.04" y1="118.47" x2="475.04" y2="118.47" stroke="#333" stroke-width="1"/>
<rect x="481.25" y="173.03" width="12.42" height="6.97" fill="#616161" opacity="0.85"><title>Control — Animacy: 0.182 ×10⁻³</title></rect>
<line x1="487.46" y1="174.17" x2="487.46" y2="171.64" stroke="#333" stroke-width="1"/>
<line x1="485.46" y1="174.17" x2="489.46" y2="174.17" stroke="#333" stroke-width="1"/>
<line x1="485.46" y1="171.64" x2="489.46" y2="171.64" stroke="#333" stroke-width="1"/>
<text x="481.2" y="194" text-anchor="end" font-size="10" fill="#2196F3" transform="rotate(-30,481.2,194)">Animacy</text>
<line x1="497.0" y1="0" x2="497.0" y2="180" stroke="#ccc" stroke-width="1" stroke-dasharray="4,3"/>
<rect x="502.32" y="69.57" width="12.42" height="110.43" fill="#2E7D32" opacity="0.5"><title>Partner Identity — Human vs AI (general): 2.886 ×10⁻³</title></rect>
<line x1="508.54" y1="95.62" x2="508.54" y2="56.75" stroke="#333" stroke-width="1"/>
<line x1="506.54" y1="95.62" x2="510.54" y2="95.62" stroke="#333" stroke-width="1"/>
<line x1="506.54" y1="56.75" x2="510.54" y2="56.75" stroke="#333" stroke-width="1"/>
<rect x="516.75" y="174.52" width="12.42" height="5.48" fill="#616161" opacity="0.5"><title>Control — Human vs AI (general): 0.143 ×10⁻³</title></rect>
<line x1="522.96" y1="175.12" x2="522.96" y2="172.62" stroke="#333" stroke-width="1"/>
<line x1="520.96" y1="175.12" x2="524.96" y2="175.12" stroke="#333" stroke-width="1"/>
<line x1="520.96" y1="172.62" x2="524.96" y2="172.62" stroke="#333" stroke-width="1"/>
<text x="516.8" y="194" text-anchor="end" font-size="10" fill="#9E9E9E" transform="rotate(-30,516.8,194)">Human vs AI (general)</text>
<rect x="537.83" y="140.26" width="12.42" height="39.74" fill="#2E7D32" opacity="0.5"><title>Partner Identity — Biological: 1.039 ×10⁻³</title></rect>
<line x1="544.04" y1="146.50" x2="544.04" y2="134.08" stroke="#333" stroke-width="1"/>
<line x1="542.04" y1="146.50" x2="546.04" y2="146.50" stroke="#333" stroke-width="1"/>
<line x1="542.04" y1="134.08" x2="546.04" y2="134.08" stroke="#333" stroke-width="1"/>
<rect x="552.25" y="171.54" width="12.42" height="8.46" fill="#616161" opacity="0.5"><title>Control — Biological: 0.221 ×10⁻³</title></rect>
<line x1="558.46" y1="172.46" x2="558.46" y2="170.70" stroke="#333" stroke-width="1"/>
<line x1="556.46" y1="172.46" x2="560.46" y2="172.46" stroke="#333" stroke-width="1"/>
<line x1="556.46" y1="170.70" x2="560.46" y2="170.70" stroke="#333" stroke-width="1"/>
<text x="552.2" y="194" text-anchor="end" font-size="10" fill="#9E9E9E" transform="rotate(-30,552.2,194)">Biological</text>
<rect x="573.33" y="170.63" width="12.42" height="9.37" fill="#2E7D32" opacity="0.5"><title>Partner Identity — Shapes: 0.245 ×10⁻³</title></rect>
<line x1="579.54" y1="174.70" x2="579.54" y2="164.43" stroke="#333" stroke-width="1"/>
<line x1="577.54" y1="174.70" x2="581.54" y2="174.70" stroke="#333" stroke-width="1"/>
<line x1="577.54" y1="164.43" x2="581.54" y2="164.43" stroke="#333" stroke-width="1"/>
<rect x="587.75" y="172.71" width="12.42" height="7.29" fill="#616161" opacity="0.5"><title>Control — Shapes: 0.190 ×10⁻³</title></rect>
<line x1="593.96" y1="175.13" x2="593.96" y2="170.57" stroke="#333" stroke-width="1"/>
<line x1="591.96" y1="175.13" x2="595.96" y2="175.13" stroke="#333" stroke-width="1"/>
<line x1="591.96" y1="170.57" x2="595.96" y2="170.57" stroke="#333" stroke-width="1"/>
<text x="587.8" y="194" text-anchor="end" font-size="10" fill="#9E9E9E" transform="rotate(-30,587.8,194)">Shapes</text>
<rect x="608.83" y="177.01" width="12.42" height="2.99" fill="#2E7D32" opacity="0.5"><title>Partner Identity — Granite/Sandstone: 0.078 ×10⁻³</title></rect>
<line x1="615.04" y1="176.49" x2="615.04" y2="165.61" stroke="#333" stroke-width="1"/>
<line x1="613.04" y1="176.49" x2="617.04" y2="176.49" stroke="#333" stroke-width="1"/>
<line x1="613.04" y1="165.61" x2="617.04" y2="165.61" stroke="#333" stroke-width="1"/>
<rect x="623.25" y="173.63" width="12.42" height="6.37" fill="#616161" opacity="0.5"><title>Control — Granite/Sandstone: 0.166 ×10⁻³</title></rect>
<line x1="629.46" y1="175.96" x2="629.46" y2="170.12" stroke="#333" stroke-width="1"/>
<line x1="627.46" y1="175.96" x2="631.46" y2="175.96" stroke="#333" stroke-width="1"/>
<line x1="627.46" y1="170.12" x2="631.46" y2="170.12" stroke="#333" stroke-width="1"/>
<text x="623.2" y="194" text-anchor="end" font-size="10" fill="#9E9E9E" transform="rotate(-30,623.2,194)">Granite/Sandstone</text>
<rect x="644.33" y="170.09" width="12.42" height="9.91" fill="#2E7D32" opacity="0.5"><title>Partner Identity — Squares/Triangles: 0.259 ×10⁻³</title></rect>
<line x1="650.54" y1="173.92" x2="650.54" y2="162.08" stroke="#333" stroke-width="1"/>
<line x1="648.54" y1="173.92" x2="652.54" y2="173.92" stroke="#333" stroke-width="1"/>
<line x1="648.54" y1="162.08" x2="652.54" y2="162.08" stroke="#333" stroke-width="1"/>
<rect x="658.75" y="172.19" width="12.42" height="7.81" fill="#616161" opacity="0.5"><title>Control — Squares/Triangles: 0.204 ×10⁻³</title></rect>
<line x1="664.96" y1="174.39" x2="664.96" y2="169.09" stroke="#333" stroke-width="1"/>
<line x1="662.96" y1="174.39" x2="666.96" y2="174.39" stroke="#333" stroke-width="1"/>
<line x1="662.96" y1="169.09" x2="666.96" y2="169.09" stroke="#333" stroke-width="1"/>
<text x="658.8" y="194" text-anchor="end" font-size="10" fill="#9E9E9E" transform="rotate(-30,658.8,194)">Squares/Triangles</text>
<rect x="679.83" y="171.15" width="12.42" height="8.85" fill="#2E7D32" opacity="0.5"><title>Partner Identity — Horizontal/Vertical: 0.231 ×10⁻³</title></rect>
<line x1="686.04" y1="174.52" x2="686.04" y2="157.97" stroke="#333" stroke-width="1"/>
<line x1="684.04" y1="174.52" x2="688.04" y2="174.52" stroke="#333" stroke-width="1"/>
<line x1="684.04" y1="157.97" x2="688.04" y2="157.97" stroke="#333" stroke-width="1"/>
<rect x="694.25" y="170.03" width="12.42" height="9.97" fill="#616161" opacity="0.5"><title>Control — Horizontal/Vertical: 0.260 ×10⁻³</title></rect>
<line x1="700.46" y1="174.99" x2="700.46" y2="168.00" stroke="#333" stroke-width="1"/>
<line x1="698.46" y1="174.99" x2="702.46" y2="174.99" stroke="#333" stroke-width="1"/>
<line x1="698.46" y1="168.00" x2="702.46" y2="168.00" stroke="#333" stroke-width="1"/>
<text x="694.2" y="194" text-anchor="end" font-size="10" fill="#9E9E9E" transform="rotate(-30,694.2,194)">Horizontal/Vertical</text>
<line x1="0" y1="180" x2="710" y2="180" stroke="#333"/>
<line x1="0" y1="0" x2="0" y2="180" stroke="#333"/>
</g>
<rect x="70" y="300" width="10" height="10" fill="#2E7D32"/>
<text x="84" y="308" font-size="9" fill="#333">Partner Identity</text>
<rect x="210" y="300" width="10" height="10" fill="#616161"/>
<text x="224" y="308" font-size="9" fill="#333">Control</text>
</svg>