<svg viewBox="0 0 800 320" xmlns="http://www.w3.org/2000/svg" style="width:100%;max-width:800px;height:auto;font-family:Arial,sans-serif;">
<rect width="800" height="320" fill="white"/>

<g transform="translate(70,30)">
<line x1="0" y1="180.0" x2="710" y2="180.0" stroke="#eee" stroke-width="1"/>
<text x="-8" y="184.0" text-anchor="end" font-size="10" fill="#666">0.00</text>
<line x1="0" y1="144.0" x2="710" y2="144.0" stroke="#eee" stroke-width="1"/>
<text x="-8" y="148.0" text-anchor="end" font-size="10" fill="#666">0.94</text>
<line x1="0" y1="108.0" x2="710" y2="108.0" stroke="#eee" stroke-width="1"/>
<text x="-8" y="112.0" text-anchor="end" font-size="10" fill="#666">1.88</text>
<line x1="0" y1="72.0" x2="710" y2="72.0" stroke="#eee" stroke-width="1"/>
<text x="-8" y="76.0" text-anchor="end" font-size="10" fill="#666">2.82</text>
<line x1="0" y1="36.0" x2="710" y2="36.0" stroke="#eee" stroke-width="1"/>
<text x="-8" y="40.0" text-anchor="end" font-size="10" fill="#666">3.76</text>
<line x1="0" y1="0.0" x2="710" y2="0.0" stroke="#eee" stroke-width="1"/>
<text x="-8" y="4.0" text-anchor="end" font-size="10" fill="#666">4.70</text>
<text x="-50" y="90.0" text-anchor="middle" font-size="11" fill="#333" transform="rotate(-90,-50,90.0)">Mean R² (×10⁻³)</text>
<rect x="11.83" y="136.65" width="27.61" height="43.35" fill="#2E7D32" opacity="0.85"><title>Partner Identity — Expertise: 1.133 ×10⁻³</title></rect>
<line x1="25.64" y1="145.40" x2="25.64" y2="130.12" stroke="#333" stroke-width="1"/>
<line x1="23.64" y1="145.40" x2="27.64" y2="145.40" stroke="#333" stroke-width="1"/>
<line x1="23.64" y1="130.12" x2="27.64" y2="130.12" stroke="#333" stroke-width="1"/>
<rect x="41.44" y="171.83" width="27.61" height="8.17" fill="#616161" opacity="0.85"><title>Control — Expertise: 0.214 ×10⁻³</title></rect>
<line x1="55.25" y1="172.80" x2="55.25" y2="170.57" stroke="#333" stroke-width="1"/>
<line x1="53.25" y1="172.80" x2="57.25" y2="172.80" stroke="#333" stroke-width="1"/>
<line x1="53.25" y1="170.57" x2="57.25" y2="170.57" stroke="#333" stroke-width="1"/>
<text x="41.4" y="194" text-anchor="end" font-size="10" fill="#FF9800" transform="rotate(-30,41.4,194)">Expertise</text>
<rect x="90.72" y="167.39" width="27.61" height="12.61" fill="#2E7D32" opacity="0.85"><title>Partner Identity — Formality: 0.330 ×10⁻³</title></rect>
<line x1="104.53" y1="171.69" x2="104.53" y2="160.44" stroke="#333" stroke-width="1"/>
<line x1="102.53" y1="171.69" x2="106.53" y2="171.69" stroke="#333" stroke-width="1"/>
<line x1="102.53" y1="160.44" x2="106.53" y2="160.44" stroke="#333" stroke-width="1"/>
<rect x="120.33" y="170.94" width="27.61" height="9.06" fill="#616161" opacity="0.85"><title>Control — Formality: 0.237 ×10⁻³</title></rect>
<line x1="134.14" y1="173.42" x2="134.14" y2="168.96" stroke="#333" stroke-width="1"/>
<line x1="132.14" y1="173.42" x2="136.14" y2="173.42" stroke="#333" stroke-width="1"/>
<line x1="132.14" y1="168.96" x2="136.14" y2="168.96" stroke="#333" stroke-width="1"/>
<text x="120.3" y="194" text-anchor="end" font-size="10" fill="#FF9800" transform="rotate(-30,120.3,194)">Formality</text>
<rect x="169.61" y="169.68" width="27.61" height="10.32" fill="#2E7D32" opacity="0.85"><title>Partner Identity — Helpfulness: 0.270 ×10⁻³</title></rect>
<line x1="183.42" y1="173.80" x2="183.42" y2="160.88" stroke="#333" stroke-width="1"/>
<line x1="181.42" y1="173.80" x2="185.42" y2="173.80" stroke="#333" stroke-width="1"/>
<line x1="181.42" y1="160.88" x2="185.42" y2="160.88" stroke="#333" stroke-width="1"/>
<rect x="199.22" y="172.24" width="27.61" height="7.76" fill="#616161" opacity="0.85"><title>Control — Helpfulness: 0.203 ×10⁻³</title></rect>
<line x1="213.03" y1="174.41" x2="213.03" y2="169.15" stroke="#333" stroke-width="1"/>
<line x1="211.03" y1="174.41" x2="215.03" y2="174.41" stroke="#333" stroke-width="1"/>
<line x1="211.03" y1="169.15" x2="215.03" y2="169.15" stroke="#333" stroke-width="1"/>
<text x="199.2" y="194" text-anchor="end" font-size="10" fill="#FF9800" transform="rotate(-30,199.2,194)">Helpfulness</text>
<line x1="236.66666666666666" y1="0" x2="236.66666666666666" y2="180" stroke="#ccc" stroke-width="1" stroke-dasharray="4,3"/>
<rect x="248.50" y="69.57" width="27.61" height="110.43" fill="#2E7D32" opacity="0.5"><title>Partner Identity — Human vs AI (general): 2.886 ×10⁻³</title></rect>
<line x1="262.31" y1="95.62" x2="262.31" y2="56.75" stroke="#333" stroke-width="1"/>
<line x1="260.31" y1="95.62" x2="264.31" y2="95.62" stroke="#333" stroke-width="1"/>
<line x1="260.31" y1="56.75" x2="264.31" y2="56.75" stroke="#333" stroke-width="1"/>
<rect x="278.11" y="174.52" width="27.61" height="5.48" fill="#616161" opacity="0.5"><title>Control — Human vs AI (general): 0.143 ×10⁻³</title></rect>
<line x1="291.92" y1="175.12" x2="291.92" y2="172.62" stroke="#333" stroke-width="1"/>
<line x1="289.92" y1="175.12" x2="293.92" y2="175.12" stroke="#333" stroke-width="1"/>
<line x1="289.92" y1="172.62" x2="293.92" y2="172.62" stroke="#333" stroke-width="1"/>
<text x="278.1" y="194" text-anchor="end" font-size="10" fill="#9E9E9E" transform="rotate(-30,278.1,194)">Human vs AI (general)</text>
<rect x="327.39" y="140.26" width="27.61" height="39.74" fill="#2E7D32" opacity="0.5"><title>Partner Identity — Biological: 1.039 ×10⁻³</title></rect>
<line x1="341.19" y1="146.50" x2="341.19" y2="134.08" stroke="#333" stroke-width="1"/>
<line x1="339.19" y1="146.50" x2="343.19" y2="146.50" stroke="#333" stroke-width="1"/>
<line x1="339.19" y1="134.08" x2="343.19" y2="134.08" stroke="#333" stroke-width="1"/>
<rect x="357.00" y="171.54" width="27.61" height="8.46" fill="#616161" opacity="0.5"><title>Control — Biological: 0.221 ×10⁻³</title></rect>
<line x1="370.81" y1="172.46" x2="370.81" y2="170.70" stroke="#333" stroke-width="1"/>
<line x1="368.81" y1="172.46" x2="372.81" y2="172.46" stroke="#333" stroke-width="1"/>
<line x1="368.81" y1="170.70" x2="372.81" y2="170.70" stroke="#333" stroke-width="1"/>
<text x="357.0" y="194" text-anchor="end" font-size="10" fill="#9E9E9E" transform="rotate(-30,357.0,194)">Biological</text>
<rect x="406.28" y="170.63" width="27.61" height="9.37" fill="#2E7D32" opacity="0.5"><title>Partner Identity — Shapes: 0.245 ×10⁻³</title></rect>
<line x1="420.08" y1="174.70" x2="420.08" y2="164.43" stroke="#333" stroke-width="1"/>
<line x1="418.08" y1="174.70" x2="422.08" y2="174.70" stroke="#333" stroke-width="1"/>
<line x1="418.08" y1="164.43" x2="422.08" y2="164.43" stroke="#333" stroke-width="1"/>
<rect x="435.89" y="172.71" width="27.61" height="7.29" fill="#616161" opacity="0.5"><title>Control — Shapes: 0.190 ×10⁻³</title></rect>
<line x1="449.69" y1="175.13" x2="449.69" y2="170.57" stroke="#333" stroke-width="1"/>
<line x1="447.69" y1="175.13" x2="451.69" y2="175.13" stroke="#333" stroke-width="1"/>
<line x1="447.69" y1="170.57" x2="451.69" y2="170.57" stroke="#333" stroke-width="1"/>
<text x="435.9" y="194" text-anchor="end" font-size="10" fill="#9E9E9E" transform="rotate(-30,435.9,194)">Shapes</text>
<rect x="485.17" y="177.01" width="27.61" height="2.99" fill="#2E7D32" opacity="0.5"><title>Partner Identity — Granite/Sandstone: 0.078 ×10⁻³</title></rect>
<line x1="498.97" y1="176.49" x2="498.97" y2="165.61" stroke="#333" stroke-width="1"/>
<line x1="496.97" y1="176.49" x2="500.97" y2="176.49" stroke="#333" stroke-width="1"/>
<line x1="496.97" y1="165.61" x2="500.97" y2="165.61" stroke="#333" stroke-width="1"/>
<rect x="514.78" y="173.63" width="27.61" height="6.37" fill="#616161" opacity="0.5"><title>Control — Granite/Sandstone: 0.166 ×10⁻³</title></rect>
<line x1="528.58" y1="175.96" x2="528.58" y2="170.12" stroke="#333" stroke-width="1"/>
<line x1="526.58" y1="175.96" x2="530.58" y2="175.96" stroke="#333" stroke-width="1"/>
<line x1="526.58" y1="170.12" x2="530.58" y2="170.12" stroke="#333" stroke-width="1"/>
<text x="514.8" y="194" text-anchor="end" font-size="10" fill="#9E9E9E" transform="rotate(-30,514.8,194)">Granite/Sandstone</text>
<rect x="564.06" y="170.09" width="27.61" height="9.91" fill="#2E7D32" opacity="0.5"><title>Partner Identity — Squares/Triangles: 0.259 ×10⁻³</title></rect>
<line x1="577.86" y1="173.92" x2="577.86" y2="162.08" stroke="#333" stroke-width="1"/>
<line x1="575.86" y1="173.92" x2="579.86" y2="173.92" stroke="#333" stroke-width="1"/>
<line x1="575.86" y1="162.08" x2="579.86" y2="162.08" stroke="#333" stroke-width="1"/>
<rect x="593.67" y="172.19" width="27.61" height="7.81" fill="#616161" opacity="0.5"><title>Control — Squares/Triangles: 0.204 ×10⁻³</title></rect>
<line x1="607.47" y1="174.39" x2="607.47" y2="169.09" stroke="#333" stroke-width="1"/>
<line x1="605.47" y1="174.39" x2="609.47" y2="174.39" stroke="#333" stroke-width="1"/>
<line x1="605.47" y1="169.09" x2="609.47" y2="169.09" stroke="#333" stroke-width="1"/>
<text x="593.7" y="194" text-anchor="end" font-size="10" fill="#9E9E9E" transform="rotate(-30,593.7,194)">Squares/Triangles</text>
<rect x="642.94" y="171.15" width="27.61" height="8.85" fill="#2E7D32" opacity="0.5"><title>Partner Identity — Horizontal/Vertical: 0.231 ×10⁻³</title></rect>
<line x1="656.75" y1="174.52" x2="656.75" y2="157.97" stroke="#333" stroke-width="1"/>
<line x1="654.75" y1="174.52" x2="658.75" y2="174.52" stroke="#333" stroke-width="1"/>
<line x1="654.75" y1="157.97" x2="658.75" y2="157.97" stroke="#333" stroke-width="1"/>
<rect x="672.56" y="170.03" width="27.61" height="9.97" fill="#616161" opacity="0.5"><title>Control — Horizontal/Vertical: 0.260 ×10⁻³</title></rect>
<line x1="686.36" y1="174.99" x2="686.36" y2="168.00" stroke="#333" stroke-width="1"/>
<line x1="684.36" y1="174.99" x2="688.36" y2="174.99" stroke="#333" stroke-width="1"/>
<line x1="684.36" y1="168.00" x2="688.36" y2="168.00" stroke="#333" stroke-width="1"/>
<text x="672.6" y="194" text-anchor="end" font-size="10" fill="#9E9E9E" transform="rotate(-30,672.6,194)">Horizontal/Vertical</text>
<line x1="0" y1="180" x2="710" y2="180" stroke="#333"/>
<line x1="0" y1="0" x2="0" y2="180" stroke="#333"/>
</g>
<rect x="70" y="300" width="10" height="10" fill="#2E7D32"/>
<text x="84" y="308" font-size="9" fill="#333">Partner Identity</text>
<rect x="210" y="300" width="10" height="10" fill="#616161"/>
<text x="224" y="308" font-size="9" fill="#333">Control</text>
</svg>