<svg viewBox="0 0 700 360" xmlns="http://www.w3.org/2000/svg" style="width:100%;max-width:700px;height:auto;font-family:Arial,sans-serif;">
<rect width="700" height="360" fill="white"/>

<g transform="translate(70,30)">
<line x1="0" y1="210.0" x2="610" y2="210.0" stroke="#eee" stroke-width="1"/>
<text x="-8" y="214.0" text-anchor="end" font-size="10" fill="#666">0.00</text>
<line x1="0" y1="168.0" x2="610" y2="168.0" stroke="#eee" stroke-width="1"/>
<text x="-8" y="172.0" text-anchor="end" font-size="10" fill="#666">0.94</text>
<line x1="0" y1="126.0" x2="610" y2="126.0" stroke="#eee" stroke-width="1"/>
<text x="-8" y="130.0" text-anchor="end" font-size="10" fill="#666">1.88</text>
<line x1="0" y1="84.0" x2="610" y2="84.0" stroke="#eee" stroke-width="1"/>
<text x="-8" y="88.0" text-anchor="end" font-size="10" fill="#666">2.82</text>
<line x1="0" y1="42.0" x2="610" y2="42.0" stroke="#eee" stroke-width="1"/>
<text x="-8" y="46.0" text-anchor="end" font-size="10" fill="#666">3.76</text>
<line x1="0" y1="0.0" x2="610" y2="0.0" stroke="#eee" stroke-width="1"/>
<text x="-8" y="4.0" text-anchor="end" font-size="10" fill="#666">4.70</text>
<text x="-50" y="105.0" text-anchor="middle" font-size="11" fill="#333" transform="rotate(-90,-50,105.0)">Mean R² (×10⁻³)</text>
<line x1="457.5" y1="0" x2="457.5" y2="210" stroke="#ccc" stroke-width="1" stroke-dasharray="4,3"/>
<rect x="11.44" y="81.16" width="26.69" height="128.84" fill="#2E7D32" opacity="0.85"><title>Partner Identity — Human vs AI (general): 2.886 ×10⁻³</title></rect>
<line x1="24.78" y1="111.56" x2="24.78" y2="66.21" stroke="#333" stroke-width="1"/>
<line x1="22.78" y1="111.56" x2="26.78" y2="111.56" stroke="#333" stroke-width="1"/>
<line x1="22.78" y1="66.21" x2="26.78" y2="66.21" stroke="#333" stroke-width="1"/>
<rect x="40.12" y="203.60" width="26.69" height="6.40" fill="#616161" opacity="0.85"><title>Control — Human vs AI (general): 0.143 ×10⁻³</title></rect>
<line x1="53.47" y1="204.31" x2="53.47" y2="201.39" stroke="#333" stroke-width="1"/>
<line x1="51.47" y1="204.31" x2="55.47" y2="204.31" stroke="#333" stroke-width="1"/>
<line x1="51.47" y1="201.39" x2="55.47" y2="201.39" stroke="#333" stroke-width="1"/>
<text x="40.1" y="224" text-anchor="end" font-size="10" fill="#9E9E9E" transform="rotate(-30,40.1,224)">Human vs AI (general)</text>
<rect x="87.69" y="163.64" width="26.69" height="46.36" fill="#2E7D32" opacity="0.85"><title>Partner Identity — Biological: 1.039 ×10⁻³</title></rect>
<line x1="101.03" y1="170.91" x2="101.03" y2="156.42" stroke="#333" stroke-width="1"/>
<line x1="99.03" y1="170.91" x2="103.03" y2="170.91" stroke="#333" stroke-width="1"/>
<line x1="99.03" y1="156.42" x2="103.03" y2="156.42" stroke="#333" stroke-width="1"/>
<rect x="116.38" y="200.13" width="26.69" height="9.87" fill="#616161" opacity="0.85"><title>Control — Biological: 0.221 ×10⁻³</title></rect>
<line x1="129.72" y1="201.20" x2="129.72" y2="199.15" stroke="#333" stroke-width="1"/>
<line x1="127.72" y1="201.20" x2="131.72" y2="201.20" stroke="#333" stroke-width="1"/>
<line x1="127.72" y1="199.15" x2="131.72" y2="199.15" stroke="#333" stroke-width="1"/>
<text x="116.4" y="224" text-anchor="end" font-size="10" fill="#9E9E9E" transform="rotate(-30,116.4,224)">Biological</text>
<rect x="163.94" y="199.06" width="26.69" height="10.94" fill="#2E7D32" opacity="0.85"><title>Partner Identity — Shapes: 0.245 ×10⁻³</title></rect>
<line x1="177.28" y1="203.82" x2="177.28" y2="191.83" stroke="#333" stroke-width="1"/>
<line x1="175.28" y1="203.82" x2="179.28" y2="203.82" stroke="#333" stroke-width="1"/>
<line x1="175.28" y1="191.83" x2="179.28" y2="191.83" stroke="#333" stroke-width="1"/>
<rect x="192.62" y="201.50" width="26.69" height="8.50" fill="#616161" opacity="0.85"><title>Control — Shapes: 0.190 ×10⁻³</title></rect>
<line x1="205.97" y1="204.32" x2="205.97" y2="199.00" stroke="#333" stroke-width="1"/>
<line x1="203.97" y1="204.32" x2="207.97" y2="204.32" stroke="#333" stroke-width="1"/>
<line x1="203.97" y1="199.00" x2="207.97" y2="199.00" stroke="#333" stroke-width="1"/>
<text x="192.6" y="224" text-anchor="end" font-size="10" fill="#9E9E9E" transform="rotate(-30,192.6,224)">Shapes</text>
<rect x="240.19" y="206.52" width="26.69" height="3.48" fill="#2E7D32" opacity="0.85"><title>Partner Identity — Granite/Sandstone: 0.078 ×10⁻³</title></rect>
<line x1="253.53" y1="205.90" x2="253.53" y2="193.21" stroke="#333" stroke-width="1"/>
<line x1="251.53" y1="205.90" x2="255.53" y2="205.90" stroke="#333" stroke-width="1"/>
<line x1="251.53" y1="193.21" x2="255.53" y2="193.21" stroke="#333" stroke-width="1"/>
<rect x="268.88" y="202.57" width="26.69" height="7.43" fill="#616161" opacity="0.85"><title>Control — Granite/Sandstone: 0.166 ×10⁻³</title></rect>
<line x1="282.22" y1="205.29" x2="282.22" y2="198.48" stroke="#333" stroke-width="1"/>
<line x1="280.22" y1="205.29" x2="284.22" y2="205.29" stroke="#333" stroke-width="1"/>
<line x1="280.22" y1="198.48" x2="284.22" y2="198.48" stroke="#333" stroke-width="1"/>
<text x="268.9" y="224" text-anchor="end" font-size="10" fill="#9E9E9E" transform="rotate(-30,268.9,224)">Granite/Sandstone</text>
<rect x="316.44" y="198.44" width="26.69" height="11.56" fill="#2E7D32" opacity="0.85"><title>Partner Identity — Squares/Triangles: 0.259 ×10⁻³</title></rect>
<line x1="329.78" y1="202.90" x2="329.78" y2="189.10" stroke="#333" stroke-width="1"/>
<line x1="327.78" y1="202.90" x2="331.78" y2="202.90" stroke="#333" stroke-width="1"/>
<line x1="327.78" y1="189.10" x2="331.78" y2="189.10" stroke="#333" stroke-width="1"/>
<rect x="345.12" y="200.89" width="26.69" height="9.11" fill="#616161" opacity="0.85"><title>Control — Squares/Triangles: 0.204 ×10⁻³</title></rect>
<line x1="358.47" y1="203.46" x2="358.47" y2="197.28" stroke="#333" stroke-width="1"/>
<line x1="356.47" y1="203.46" x2="360.47" y2="203.46" stroke="#333" stroke-width="1"/>
<line x1="356.47" y1="197.28" x2="360.47" y2="197.28" stroke="#333" stroke-width="1"/>
<text x="345.1" y="224" text-anchor="end" font-size="10" fill="#9E9E9E" transform="rotate(-30,345.1,224)">Squares/Triangles</text>
<rect x="392.69" y="199.68" width="26.69" height="10.32" fill="#2E7D32" opacity="0.85"><title>Partner Identity — Horizontal/Vertical: 0.231 ×10⁻³</title></rect>
<line x1="406.03" y1="203.60" x2="406.03" y2="184.30" stroke="#333" stroke-width="1"/>
<line x1="404.03" y1="203.60" x2="408.03" y2="203.60" stroke="#333" stroke-width="1"/>
<line x1="404.03" y1="184.30" x2="408.03" y2="184.30" stroke="#333" stroke-width="1"/>
<rect x="421.38" y="198.37" width="26.69" height="11.63" fill="#616161" opacity="0.85"><title>Control — Horizontal/Vertical: 0.260 ×10⁻³</title></rect>
<line x1="434.72" y1="204.15" x2="434.72" y2="196.00" stroke="#333" stroke-width="1"/>
<line x1="432.72" y1="204.15" x2="436.72" y2="204.15" stroke="#333" stroke-width="1"/>
<line x1="432.72" y1="196.00" x2="436.72" y2="196.00" stroke="#333" stroke-width="1"/>
<text x="421.4" y="224" text-anchor="end" font-size="10" fill="#9E9E9E" transform="rotate(-30,421.4,224)">Horizontal/Vertical</text>
<rect x="468.94" y="92.69" width="26.69" height="117.31" fill="#2E7D32" opacity="0.85"><title>Partner Identity — Mental: 2.628 ×10⁻³</title></rect>
<line x1="482.28" y1="114.59" x2="482.28" y2="77.54" stroke="#333" stroke-width="1"/>
<line x1="480.28" y1="114.59" x2="484.28" y2="114.59" stroke="#333" stroke-width="1"/>
<line x1="480.28" y1="77.54" x2="484.28" y2="77.54" stroke="#333" stroke-width="1"/>
<rect x="497.62" y="196.37" width="26.69" height="13.63" fill="#616161" opacity="0.85"><title>Control — Mental: 0.305 ×10⁻³</title></rect>
<line x1="510.97" y1="198.63" x2="510.97" y2="194.70" stroke="#333" stroke-width="1"/>
<line x1="508.97" y1="198.63" x2="512.97" y2="198.63" stroke="#333" stroke-width="1"/>
<line x1="508.97" y1="194.70" x2="512.97" y2="194.70" stroke="#333" stroke-width="1"/>
<text x="497.6" y="224" text-anchor="end" font-size="10" fill="#2196F3" transform="rotate(-30,497.6,224)">Mental</text>
<rect x="545.19" y="184.22" width="26.69" height="25.78" fill="#2E7D32" opacity="0.85"><title>Partner Identity — Pragmatic: 0.578 ×10⁻³</title></rect>
<line x1="558.53" y1="190.90" x2="558.53" y2="175.56" stroke="#333" stroke-width="1"/>
<line x1="556.53" y1="190.90" x2="560.53" y2="190.90" stroke="#333" stroke-width="1"/>
<line x1="556.53" y1="175.56" x2="560.53" y2="175.56" stroke="#333" stroke-width="1"/>
<rect x="573.88" y="200.28" width="26.69" height="9.72" fill="#616161" opacity="0.85"><title>Control — Pragmatic: 0.218 ×10⁻³</title></rect>
<line x1="587.22" y1="202.47" x2="587.22" y2="197.82" stroke="#333" stroke-width="1"/>
<line x1="585.22" y1="202.47" x2="589.22" y2="202.47" stroke="#333" stroke-width="1"/>
<line x1="585.22" y1="197.82" x2="589.22" y2="197.82" stroke="#333" stroke-width="1"/>
<text x="573.9" y="224" text-anchor="end" font-size="10" fill="#FF9800" transform="rotate(-30,573.9,224)">Pragmatic</text>
<line x1="0" y1="210" x2="610" y2="210" stroke="#333"/>
<line x1="0" y1="0" x2="0" y2="210" stroke="#333"/>
</g>
<text x="299" y="322" text-anchor="middle" font-size="10" fill="#666" font-style="italic">Control Dimensions</text>
<text x="604" y="322" text-anchor="middle" font-size="10" fill="#666" font-style="italic">Category Averages</text>
<rect x="70" y="340" width="10" height="10" fill="#2E7D32"/>
<text x="84" y="348" font-size="9" fill="#333">Partner Identity</text>
<rect x="210" y="340" width="10" height="10" fill="#616161"/>
<text x="224" y="348" font-size="9" fill="#333">Control</text>
</svg>