<svg viewBox="0 0 1100 360" xmlns="http://www.w3.org/2000/svg" style="width:100%;max-width:1100px;height:auto;font-family:Arial,sans-serif;">
<rect width="1100" height="360" fill="white"/>
<g transform="translate(70,30)">
<line x1="0" y1="200.0" x2="1010" y2="200.0" stroke="#eee" stroke-width="1"/>
<text x="-8" y="204.0" text-anchor="end" font-size="10" fill="#666">0.00</text>
<line x1="0" y1="160.0" x2="1010" y2="160.0" stroke="#eee" stroke-width="1"/>
<text x="-8" y="164.0" text-anchor="end" font-size="10" fill="#666">0.94</text>
<line x1="0" y1="120.0" x2="1010" y2="120.0" stroke="#eee" stroke-width="1"/>
<text x="-8" y="124.0" text-anchor="end" font-size="10" fill="#666">1.88</text>
<line x1="0" y1="80.0" x2="1010" y2="80.0" stroke="#eee" stroke-width="1"/>
<text x="-8" y="84.0" text-anchor="end" font-size="10" fill="#666">2.82</text>
<line x1="0" y1="40.0" x2="1010" y2="40.0" stroke="#eee" stroke-width="1"/>
<text x="-8" y="44.0" text-anchor="end" font-size="10" fill="#666">3.76</text>
<line x1="0" y1="0.0" x2="1010" y2="0.0" stroke="#eee" stroke-width="1"/>
<text x="-8" y="4.0" text-anchor="end" font-size="10" fill="#666">4.70</text>
<text x="-50" y="100.0" text-anchor="middle" font-size="11" fill="#333" transform="rotate(-90,-50,100.0)">Mean R² (×10⁻³)</text>
<rect x="4.21" y="181.19" width="16.83" height="18.81" fill="#81C784" opacity="0.85"><title>Partner Identity: 0.000443</title></rect>
<line x1="12.63" y1="185.04" x2="12.63" y2="177.16" stroke="#333" stroke-width="1"/>
<line x1="10.63" y1="185.04" x2="14.63" y2="185.04" stroke="#333" stroke-width="1"/>
<line x1="10.63" y1="177.16" x2="14.63" y2="177.16" stroke="#333" stroke-width="1"/>
<rect x="21.04" y="190.97" width="16.83" height="9.03" fill="#BDBDBD" opacity="0.85"><title>Control: 0.000212</title></rect>
<line x1="29.46" y1="192.35" x2="29.46" y2="189.74" stroke="#333" stroke-width="1"/>
<line x1="27.46" y1="192.35" x2="31.46" y2="192.35" stroke="#333" stroke-width="1"/>
<line x1="27.46" y1="189.74" x2="31.46" y2="189.74" stroke="#333" stroke-width="1"/>
<text x="21.04" y="214" text-anchor="end" font-size="9" fill="#2196F3" transform="rotate(-45,21.04,214)">Phenomenology</text>
<rect x="46.29" y="180.84" width="16.83" height="19.16" fill="#81C784" opacity="0.85"><title>Partner Identity: 0.000451</title></rect>
<line x1="54.71" y1="184.47" x2="54.71" y2="176.79" stroke="#333" stroke-width="1"/>
<line x1="52.71" y1="184.47" x2="56.71" y2="184.47" stroke="#333" stroke-width="1"/>
<line x1="52.71" y1="176.79" x2="56.71" y2="176.79" stroke="#333" stroke-width="1"/>
<rect x="63.13" y="192.74" width="16.83" height="7.26" fill="#BDBDBD" opacity="0.85"><title>Control: 0.000171</title></rect>
<line x1="71.54" y1="193.59" x2="71.54" y2="191.58" stroke="#333" stroke-width="1"/>
<line x1="69.54" y1="193.59" x2="73.54" y2="193.59" stroke="#333" stroke-width="1"/>
<line x1="69.54" y1="191.58" x2="73.54" y2="191.58" stroke="#333" stroke-width="1"/>
<text x="63.13" y="214" text-anchor="end" font-size="9" fill="#2196F3" transform="rotate(-45,63.13,214)">Emotions</text>
<rect x="88.38" y="177.05" width="16.83" height="22.95" fill="#81C784" opacity="0.85"><title>Partner Identity: 0.000540</title></rect>
<line x1="96.79" y1="183.35" x2="96.79" y2="167.97" stroke="#333" stroke-width="1"/>
<line x1="94.79" y1="183.35" x2="98.79" y2="183.35" stroke="#333" stroke-width="1"/>
<line x1="94.79" y1="167.97" x2="98.79" y2="167.97" stroke="#333" stroke-width="1"/>
<rect x="105.21" y="193.92" width="16.83" height="6.08" fill="#BDBDBD" opacity="0.85"><title>Control: 0.000143</title></rect>
<line x1="113.63" y1="194.90" x2="113.63" y2="191.96" stroke="#333" stroke-width="1"/>
<line x1="111.63" y1="194.90" x2="115.63" y2="194.90" stroke="#333" stroke-width="1"/>
<line x1="111.63" y1="191.96" x2="115.63" y2="191.96" stroke="#333" stroke-width="1"/>
<text x="105.21" y="214" text-anchor="end" font-size="9" fill="#2196F3" transform="rotate(-45,105.21,214)">Agency</text>
<rect x="130.46" y="171.33" width="16.83" height="28.67" fill="#81C784" opacity="0.85"><title>Partner Identity: 0.000675</title></rect>
<line x1="138.88" y1="180.49" x2="138.88" y2="161.16" stroke="#333" stroke-width="1"/>
<line x1="136.88" y1="180.49" x2="140.88" y2="180.49" stroke="#333" stroke-width="1"/>
<line x1="136.88" y1="161.16" x2="140.88" y2="161.16" stroke="#333" stroke-width="1"/>
<rect x="147.29" y="192.83" width="16.83" height="7.17" fill="#BDBDBD" opacity="0.85"><title>Control: 0.000169</title></rect>
<line x1="155.71" y1="193.62" x2="155.71" y2="191.49" stroke="#333" stroke-width="1"/>
<line x1="153.71" y1="193.62" x2="157.71" y2="193.62" stroke="#333" stroke-width="1"/>
<line x1="153.71" y1="191.49" x2="157.71" y2="191.49" stroke="#333" stroke-width="1"/>
<text x="147.29" y="214" text-anchor="end" font-size="9" fill="#2196F3" transform="rotate(-45,147.29,214)">Intentions</text>
<rect x="172.54" y="169.53" width="16.83" height="30.47" fill="#81C784" opacity="0.85"><title>Partner Identity: 0.000717</title></rect>
<line x1="180.96" y1="175.35" x2="180.96" y2="161.97" stroke="#333" stroke-width="1"/>
<line x1="178.96" y1="175.35" x2="182.96" y2="175.35" stroke="#333" stroke-width="1"/>
<line x1="178.96" y1="161.97" x2="182.96" y2="161.97" stroke="#333" stroke-width="1"/>
<rect x="189.38" y="192.43" width="16.83" height="7.57" fill="#BDBDBD" opacity="0.85"><title>Control: 0.000178</title></rect>
<line x1="197.79" y1="193.55" x2="197.79" y2="190.63" stroke="#333" stroke-width="1"/>
<line x1="195.79" y1="193.55" x2="199.79" y2="193.55" stroke="#333" stroke-width="1"/>
<line x1="195.79" y1="190.63" x2="199.79" y2="190.63" stroke="#333" stroke-width="1"/>
<text x="189.38" y="214" text-anchor="end" font-size="9" fill="#2196F3" transform="rotate(-45,189.38,214)">Prediction</text>
<rect x="214.63" y="163.34" width="16.83" height="36.66" fill="#81C784" opacity="0.85"><title>Partner Identity: 0.000862</title></rect>
<line x1="223.04" y1="172.72" x2="223.04" y2="157.12" stroke="#333" stroke-width="1"/>
<line x1="221.04" y1="172.72" x2="225.04" y2="172.72" stroke="#333" stroke-width="1"/>
<line x1="221.04" y1="157.12" x2="225.04" y2="157.12" stroke="#333" stroke-width="1"/>
<rect x="231.46" y="189.23" width="16.83" height="10.77" fill="#BDBDBD" opacity="0.85"><title>Control: 0.000253</title></rect>
<line x1="239.88" y1="191.48" x2="239.88" y2="187.75" stroke="#333" stroke-width="1"/>
<line x1="237.88" y1="191.48" x2="241.88" y2="191.48" stroke="#333" stroke-width="1"/>
<line x1="237.88" y1="187.75" x2="241.88" y2="187.75" stroke="#333" stroke-width="1"/>
<text x="231.46" y="214" text-anchor="end" font-size="9" fill="#2196F3" transform="rotate(-45,231.46,214)">Cognitive</text>
<rect x="256.71" y="169.84" width="16.83" height="30.16" fill="#81C784" opacity="0.85"><title>Partner Identity: 0.000709</title></rect>
<line x1="265.12" y1="178.37" x2="265.12" y2="154.70" stroke="#333" stroke-width="1"/>
<line x1="263.12" y1="178.37" x2="267.12" y2="178.37" stroke="#333" stroke-width="1"/>
<line x1="263.12" y1="154.70" x2="267.12" y2="154.70" stroke="#333" stroke-width="1"/>
<rect x="273.54" y="192.87" width="16.83" height="7.13" fill="#BDBDBD" opacity="0.85"><title>Control: 0.000168</title></rect>
<line x1="281.96" y1="193.89" x2="281.96" y2="190.64" stroke="#333" stroke-width="1"/>
<line x1="279.96" y1="193.89" x2="283.96" y2="193.89" stroke="#333" stroke-width="1"/>
<line x1="279.96" y1="190.64" x2="283.96" y2="190.64" stroke="#333" stroke-width="1"/>
<text x="273.54" y="214" text-anchor="end" font-size="9" fill="#2196F3" transform="rotate(-45,273.54,214)">Social</text>
<rect x="298.79" y="161.40" width="16.83" height="38.60" fill="#81C784" opacity="0.85"><title>Partner Identity: 0.000908</title></rect>
<line x1="307.21" y1="169.51" x2="307.21" y2="155.13" stroke="#333" stroke-width="1"/>
<line x1="305.21" y1="169.51" x2="309.21" y2="169.51" stroke="#333" stroke-width="1"/>
<line x1="305.21" y1="155.13" x2="309.21" y2="155.13" stroke="#333" stroke-width="1"/>
<rect x="315.62" y="190.29" width="16.83" height="9.71" fill="#BDBDBD" opacity="0.85"><title>Control: 0.000228</title></rect>
<line x1="324.04" y1="191.93" x2="324.04" y2="188.54" stroke="#333" stroke-width="1"/>
<line x1="322.04" y1="191.93" x2="326.04" y2="191.93" stroke="#333" stroke-width="1"/>
<line x1="322.04" y1="188.54" x2="326.04" y2="188.54" stroke="#333" stroke-width="1"/>
<text x="315.62" y="214" text-anchor="end" font-size="9" fill="#2196F3" transform="rotate(-45,315.62,214)">Attention</text>
<rect x="340.88" y="176.74" width="16.83" height="23.26" fill="#81C784" opacity="0.85"><title>Partner Identity: 0.000547</title></rect>
<line x1="349.29" y1="182.74" x2="349.29" y2="168.41" stroke="#333" stroke-width="1"/>
<line x1="347.29" y1="182.74" x2="351.29" y2="182.74" stroke="#333" stroke-width="1"/>
<line x1="347.29" y1="168.41" x2="351.29" y2="168.41" stroke="#333" stroke-width="1"/>
<rect x="357.71" y="188.01" width="16.83" height="11.99" fill="#BDBDBD" opacity="0.85"><title>Control: 0.000282</title></rect>
<line x1="366.12" y1="190.29" x2="366.12" y2="186.49" stroke="#333" stroke-width="1"/>
<line x1="364.12" y1="190.29" x2="368.12" y2="190.29" stroke="#333" stroke-width="1"/>
<line x1="364.12" y1="186.49" x2="368.12" y2="186.49" stroke="#333" stroke-width="1"/>
<text x="357.71" y="214" text-anchor="end" font-size="9" fill="#2196F3" transform="rotate(-45,357.71,214)">Beliefs</text>
<rect x="382.96" y="179.02" width="16.83" height="20.98" fill="#81C784" opacity="0.85"><title>Partner Identity: 0.000493</title></rect>
<line x1="391.38" y1="183.41" x2="391.38" y2="174.00" stroke="#333" stroke-width="1"/>
<line x1="389.38" y1="183.41" x2="393.38" y2="183.41" stroke="#333" stroke-width="1"/>
<line x1="389.38" y1="174.00" x2="393.38" y2="174.00" stroke="#333" stroke-width="1"/>
<rect x="399.79" y="191.00" width="16.83" height="9.00" fill="#BDBDBD" opacity="0.85"><title>Control: 0.000212</title></rect>
<line x1="408.21" y1="192.47" x2="408.21" y2="189.54" stroke="#333" stroke-width="1"/>
<line x1="406.21" y1="192.47" x2="410.21" y2="192.47" stroke="#333" stroke-width="1"/>
<line x1="406.21" y1="189.54" x2="410.21" y2="189.54" stroke="#333" stroke-width="1"/>
<text x="399.79" y="214" text-anchor="end" font-size="9" fill="#2196F3" transform="rotate(-45,399.79,214)">Desires</text>
<rect x="425.04" y="168.35" width="16.83" height="31.65" fill="#81C784" opacity="0.85"><title>Partner Identity: 0.000744</title></rect>
<line x1="433.46" y1="177.27" x2="433.46" y2="159.01" stroke="#333" stroke-width="1"/>
<line x1="431.46" y1="177.27" x2="435.46" y2="177.27" stroke="#333" stroke-width="1"/>
<line x1="431.46" y1="159.01" x2="435.46" y2="159.01" stroke="#333" stroke-width="1"/>
<rect x="441.88" y="193.01" width="16.83" height="6.99" fill="#BDBDBD" opacity="0.85"><title>Control: 0.000164</title></rect>
<line x1="450.29" y1="193.84" x2="450.29" y2="191.85" stroke="#333" stroke-width="1"/>
<line x1="448.29" y1="193.84" x2="452.29" y2="193.84" stroke="#333" stroke-width="1"/>
<line x1="448.29" y1="191.85" x2="452.29" y2="191.85" stroke="#333" stroke-width="1"/>
<text x="441.88" y="214" text-anchor="end" font-size="9" fill="#2196F3" transform="rotate(-45,441.88,214)">Goals</text>
<rect x="467.12" y="186.91" width="16.83" height="13.09" fill="#81C784" opacity="0.85"><title>Partner Identity: 0.000308</title></rect>
<line x1="475.54" y1="188.93" x2="475.54" y2="184.17" stroke="#333" stroke-width="1"/>
<line x1="473.54" y1="188.93" x2="477.54" y2="188.93" stroke="#333" stroke-width="1"/>
<line x1="473.54" y1="184.17" x2="477.54" y2="184.17" stroke="#333" stroke-width="1"/>
<rect x="483.96" y="191.22" width="16.83" height="8.78" fill="#BDBDBD" opacity="0.85"><title>Control: 0.000207</title></rect>
<line x1="492.38" y1="192.55" x2="492.38" y2="189.93" stroke="#333" stroke-width="1"/>
<line x1="490.38" y1="192.55" x2="494.38" y2="192.55" stroke="#333" stroke-width="1"/>
<line x1="490.38" y1="189.93" x2="494.38" y2="189.93" stroke="#333" stroke-width="1"/>
<text x="483.96" y="214" text-anchor="end" font-size="9" fill="#4CAF50" transform="rotate(-45,483.96,214)">Embodiment</text>
<rect x="509.21" y="175.29" width="16.83" height="24.71" fill="#81C784" opacity="0.85"><title>Partner Identity: 0.000581</title></rect>
<line x1="517.62" y1="180.11" x2="517.62" y2="170.40" stroke="#333" stroke-width="1"/>
<line x1="515.62" y1="180.11" x2="519.62" y2="180.11" stroke="#333" stroke-width="1"/>
<line x1="515.62" y1="170.40" x2="519.62" y2="170.40" stroke="#333" stroke-width="1"/>
<rect x="526.04" y="193.00" width="16.83" height="7.00" fill="#BDBDBD" opacity="0.85"><title>Control: 0.000165</title></rect>
<line x1="534.46" y1="193.84" x2="534.46" y2="191.48" stroke="#333" stroke-width="1"/>
<line x1="532.46" y1="193.84" x2="536.46" y2="193.84" stroke="#333" stroke-width="1"/>
<line x1="532.46" y1="191.48" x2="536.46" y2="191.48" stroke="#333" stroke-width="1"/>
<text x="526.04" y="214" text-anchor="end" font-size="9" fill="#4CAF50" transform="rotate(-45,526.04,214)">Roles</text>
<rect x="551.29" y="181.94" width="16.83" height="18.06" fill="#81C784" opacity="0.85"><title>Partner Identity: 0.000425</title></rect>
<line x1="559.71" y1="186.17" x2="559.71" y2="178.28" stroke="#333" stroke-width="1"/>
<line x1="557.71" y1="186.17" x2="561.71" y2="186.17" stroke="#333" stroke-width="1"/>
<line x1="557.71" y1="178.28" x2="561.71" y2="178.28" stroke="#333" stroke-width="1"/>
<rect x="568.13" y="189.57" width="16.83" height="10.43" fill="#BDBDBD" opacity="0.85"><title>Control: 0.000245</title></rect>
<line x1="576.54" y1="190.81" x2="576.54" y2="188.52" stroke="#333" stroke-width="1"/>
<line x1="574.54" y1="190.81" x2="578.54" y2="190.81" stroke="#333" stroke-width="1"/>
<line x1="574.54" y1="188.52" x2="578.54" y2="188.52" stroke="#333" stroke-width="1"/>
<text x="568.13" y="214" text-anchor="end" font-size="9" fill="#4CAF50" transform="rotate(-45,568.13,214)">Animacy</text>
<rect x="593.38" y="186.66" width="16.83" height="13.34" fill="#81C784" opacity="0.85"><title>Partner Identity: 0.000314</title></rect>
<line x1="601.79" y1="191.81" x2="601.79" y2="181.57" stroke="#333" stroke-width="1"/>
<line x1="599.79" y1="191.81" x2="603.79" y2="191.81" stroke="#333" stroke-width="1"/>
<line x1="599.79" y1="181.57" x2="603.79" y2="181.57" stroke="#333" stroke-width="1"/>
<rect x="610.21" y="189.24" width="16.83" height="10.76" fill="#BDBDBD" opacity="0.85"><title>Control: 0.000253</title></rect>
<line x1="618.63" y1="191.73" x2="618.63" y2="187.13" stroke="#333" stroke-width="1"/>
<line x1="616.63" y1="191.73" x2="620.63" y2="191.73" stroke="#333" stroke-width="1"/>
<line x1="616.63" y1="187.13" x2="620.63" y2="187.13" stroke="#333" stroke-width="1"/>
<text x="610.21" y="214" text-anchor="end" font-size="9" fill="#FF9800" transform="rotate(-45,610.21,214)">Formality</text>
<rect x="635.46" y="180.66" width="16.83" height="19.34" fill="#81C784" opacity="0.85"><title>Partner Identity: 0.000455</title></rect>
<line x1="643.88" y1="184.15" x2="643.88" y2="176.97" stroke="#333" stroke-width="1"/>
<line x1="641.88" y1="184.15" x2="645.88" y2="184.15" stroke="#333" stroke-width="1"/>
<line x1="641.88" y1="176.97" x2="645.88" y2="176.97" stroke="#333" stroke-width="1"/>
<rect x="652.29" y="187.96" width="16.83" height="12.04" fill="#BDBDBD" opacity="0.85"><title>Control: 0.000283</title></rect>
<line x1="660.71" y1="189.00" x2="660.71" y2="186.99" stroke="#333" stroke-width="1"/>
<line x1="658.71" y1="189.00" x2="662.71" y2="189.00" stroke="#333" stroke-width="1"/>
<line x1="658.71" y1="186.99" x2="662.71" y2="186.99" stroke="#333" stroke-width="1"/>
<text x="652.29" y="214" text-anchor="end" font-size="9" fill="#FF9800" transform="rotate(-45,652.29,214)">Expertise</text>
<rect x="677.54" y="187.39" width="16.83" height="12.61" fill="#81C784" opacity="0.85"><title>Partner Identity: 0.000297</title></rect>
<line x1="685.96" y1="193.14" x2="685.96" y2="180.72" stroke="#333" stroke-width="1"/>
<line x1="683.96" y1="193.14" x2="687.96" y2="193.14" stroke="#333" stroke-width="1"/>
<line x1="683.96" y1="180.72" x2="687.96" y2="180.72" stroke="#333" stroke-width="1"/>
<rect x="694.38" y="189.10" width="16.83" height="10.90" fill="#BDBDBD" opacity="0.85"><title>Control: 0.000257</title></rect>
<line x1="702.79" y1="192.14" x2="702.79" y2="187.49" stroke="#333" stroke-width="1"/>
<line x1="700.79" y1="192.14" x2="704.79" y2="192.14" stroke="#333" stroke-width="1"/>
<line x1="700.79" y1="187.49" x2="704.79" y2="187.49" stroke="#333" stroke-width="1"/>
<text x="694.38" y="214" text-anchor="end" font-size="9" fill="#FF9800" transform="rotate(-45,694.38,214)">Helpfulness</text>
<rect x="719.63" y="172.25" width="16.83" height="27.75" fill="#81C784" opacity="0.85"><title>Partner Identity: 0.000653</title></rect>
<line x1="728.04" y1="178.19" x2="728.04" y2="167.81" stroke="#333" stroke-width="1"/>
<line x1="726.04" y1="178.19" x2="730.04" y2="178.19" stroke="#333" stroke-width="1"/>
<line x1="726.04" y1="167.81" x2="730.04" y2="167.81" stroke="#333" stroke-width="1"/>
<rect x="736.46" y="192.06" width="16.83" height="7.94" fill="#BDBDBD" opacity="0.85"><title>Control: 0.000187</title></rect>
<line x1="744.88" y1="192.89" x2="744.88" y2="190.02" stroke="#333" stroke-width="1"/>
<line x1="742.88" y1="192.89" x2="746.88" y2="192.89" stroke="#333" stroke-width="1"/>
<line x1="742.88" y1="190.02" x2="746.88" y2="190.02" stroke="#333" stroke-width="1"/>
<text x="736.46" y="214" text-anchor="end" font-size="9" fill="#9E9E9E" transform="rotate(-45,736.46,214)">Baseline</text>
<rect x="761.71" y="186.08" width="16.83" height="13.92" fill="#81C784" opacity="0.85"><title>Partner Identity: 0.000327</title></rect>
<line x1="770.12" y1="188.04" x2="770.12" y2="183.38" stroke="#333" stroke-width="1"/>
<line x1="768.12" y1="188.04" x2="772.12" y2="188.04" stroke="#333" stroke-width="1"/>
<line x1="768.12" y1="183.38" x2="772.12" y2="183.38" stroke="#333" stroke-width="1"/>
<rect x="778.54" y="191.22" width="16.83" height="8.78" fill="#BDBDBD" opacity="0.85"><title>Control: 0.000207</title></rect>
<line x1="786.96" y1="192.37" x2="786.96" y2="190.06" stroke="#333" stroke-width="1"/>
<line x1="784.96" y1="192.37" x2="788.96" y2="192.37" stroke="#333" stroke-width="1"/>
<line x1="784.96" y1="190.06" x2="788.96" y2="190.06" stroke="#333" stroke-width="1"/>
<text x="778.54" y="214" text-anchor="end" font-size="9" fill="#9E9E9E" transform="rotate(-45,778.54,214)">Biological</text>
<rect x="803.79" y="187.07" width="16.83" height="12.93" fill="#81C784" opacity="0.85"><title>Partner Identity: 0.000304</title></rect>
<line x1="812.21" y1="192.94" x2="812.21" y2="180.78" stroke="#333" stroke-width="1"/>
<line x1="810.21" y1="192.94" x2="814.21" y2="192.94" stroke="#333" stroke-width="1"/>
<line x1="810.21" y1="180.78" x2="814.21" y2="180.78" stroke="#333" stroke-width="1"/>
<rect x="820.63" y="191.23" width="16.83" height="8.77" fill="#BDBDBD" opacity="0.85"><title>Control: 0.000206</title></rect>
<line x1="829.04" y1="193.23" x2="829.04" y2="188.92" stroke="#333" stroke-width="1"/>
<line x1="827.04" y1="193.23" x2="831.04" y2="193.23" stroke="#333" stroke-width="1"/>
<line x1="827.04" y1="188.92" x2="831.04" y2="188.92" stroke="#333" stroke-width="1"/>
<text x="820.63" y="214" text-anchor="end" font-size="9" fill="#9E9E9E" transform="rotate(-45,820.63,214)">Shapes</text>
<rect x="845.88" y="192.51" width="16.83" height="7.49" fill="#81C784" opacity="0.85"><title>Partner Identity: 0.000176</title></rect>
<line x1="854.29" y1="195.46" x2="854.29" y2="182.83" stroke="#333" stroke-width="1"/>
<line x1="852.29" y1="195.46" x2="856.29" y2="195.46" stroke="#333" stroke-width="1"/>
<line x1="852.29" y1="182.83" x2="856.29" y2="182.83" stroke="#333" stroke-width="1"/>
<rect x="862.71" y="191.76" width="16.83" height="8.24" fill="#BDBDBD" opacity="0.85"><title>Control: 0.000194</title></rect>
<line x1="871.13" y1="194.55" x2="871.13" y2="188.08" stroke="#333" stroke-width="1"/>
<line x1="869.13" y1="194.55" x2="873.13" y2="194.55" stroke="#333" stroke-width="1"/>
<line x1="869.13" y1="188.08" x2="873.13" y2="188.08" stroke="#333" stroke-width="1"/>
<text x="862.71" y="214" text-anchor="end" font-size="9" fill="#9E9E9E" transform="rotate(-45,862.71,214)">Granite/Sandstone</text>
<rect x="887.96" y="190.60" width="16.83" height="9.40" fill="#81C784" opacity="0.85"><title>Partner Identity: 0.000221</title></rect>
<line x1="896.38" y1="192.86" x2="896.38" y2="183.46" stroke="#333" stroke-width="1"/>
<line x1="894.38" y1="192.86" x2="898.38" y2="192.86" stroke="#333" stroke-width="1"/>
<line x1="894.38" y1="183.46" x2="898.38" y2="183.46" stroke="#333" stroke-width="1"/>
<rect x="904.79" y="190.61" width="16.83" height="9.39" fill="#BDBDBD" opacity="0.85"><title>Control: 0.000221</title></rect>
<line x1="913.21" y1="193.66" x2="913.21" y2="188.67" stroke="#333" stroke-width="1"/>
<line x1="911.21" y1="193.66" x2="915.21" y2="193.66" stroke="#333" stroke-width="1"/>
<line x1="911.21" y1="188.67" x2="915.21" y2="188.67" stroke="#333" stroke-width="1"/>
<text x="904.79" y="214" text-anchor="end" font-size="9" fill="#9E9E9E" transform="rotate(-45,904.79,214)">Squares/Triangles</text>
<rect x="930.04" y="191.70" width="16.83" height="8.30" fill="#81C784" opacity="0.85"><title>Partner Identity: 0.000195</title></rect>
<line x1="938.46" y1="195.02" x2="938.46" y2="179.81" stroke="#333" stroke-width="1"/>
<line x1="936.46" y1="195.02" x2="940.46" y2="195.02" stroke="#333" stroke-width="1"/>
<line x1="936.46" y1="179.81" x2="940.46" y2="179.81" stroke="#333" stroke-width="1"/>
<rect x="946.88" y="186.67" width="16.83" height="13.33" fill="#BDBDBD" opacity="0.85"><title>Control: 0.000314</title></rect>
<line x1="955.29" y1="193.29" x2="955.29" y2="184.52" stroke="#333" stroke-width="1"/>
<line x1="953.29" y1="193.29" x2="957.29" y2="193.29" stroke="#333" stroke-width="1"/>
<line x1="953.29" y1="184.52" x2="957.29" y2="184.52" stroke="#333" stroke-width="1"/>
<text x="946.88" y="214" text-anchor="end" font-size="9" fill="#9E9E9E" transform="rotate(-45,946.88,214)">Horizontal/Vertical</text>
<rect x="972.13" y="162.06" width="16.83" height="37.94" fill="#81C784" opacity="0.85"><title>Partner Identity: 0.000893</title></rect>
<line x1="980.54" y1="170.03" x2="980.54" y2="150.14" stroke="#333" stroke-width="1"/>
<line x1="978.54" y1="170.03" x2="982.54" y2="170.03" stroke="#333" stroke-width="1"/>
<line x1="978.54" y1="150.14" x2="982.54" y2="150.14" stroke="#333" stroke-width="1"/>
<rect x="988.96" y="191.66" width="16.83" height="8.34" fill="#BDBDBD" opacity="0.85"><title>Control: 0.000196</title></rect>
<line x1="997.38" y1="192.61" x2="997.38" y2="190.64" stroke="#333" stroke-width="1"/>
<line x1="995.38" y1="192.61" x2="999.38" y2="192.61" stroke="#333" stroke-width="1"/>
<line x1="995.38" y1="190.64" x2="999.38" y2="190.64" stroke="#333" stroke-width="1"/>
<text x="988.96" y="214" text-anchor="end" font-size="9" fill="#00BCD4" transform="rotate(-45,988.96,214)">SysPrompt (labeled)</text>
<line x1="0" y1="200" x2="1010" y2="200" stroke="#333"/>
<line x1="0" y1="0" x2="0" y2="200" stroke="#333"/>
</g>
<rect x="70.0" y="324" width="10" height="10" fill="#81C784"/>
<text x="84.0" y="332" font-size="8" fill="#333">Partner Identity</text>
<rect x="272.0" y="324" width="10" height="10" fill="#BDBDBD"/>
<text x="286.0" y="332" font-size="8" fill="#333">Control</text>
</svg>