<svg viewBox="0 0 1100 360" xmlns="http://www.w3.org/2000/svg" style="width:100%;max-width:1100px;height:auto;font-family:Arial,sans-serif;">
<rect width="1100" height="360" fill="white"/>
<g transform="translate(70,30)">
<line x1="0" y1="200.0" x2="1010" y2="200.0" stroke="#eee" stroke-width="1"/>
<text x="-8" y="204.0" text-anchor="end" font-size="10" fill="#666">0.00</text>
<line x1="0" y1="160.0" x2="1010" y2="160.0" stroke="#eee" stroke-width="1"/>
<text x="-8" y="164.0" text-anchor="end" font-size="10" fill="#666">0.94</text>
<line x1="0" y1="120.0" x2="1010" y2="120.0" stroke="#eee" stroke-width="1"/>
<text x="-8" y="124.0" text-anchor="end" font-size="10" fill="#666">1.88</text>
<line x1="0" y1="80.0" x2="1010" y2="80.0" stroke="#eee" stroke-width="1"/>
<text x="-8" y="84.0" text-anchor="end" font-size="10" fill="#666">2.82</text>
<line x1="0" y1="40.0" x2="1010" y2="40.0" stroke="#eee" stroke-width="1"/>
<text x="-8" y="44.0" text-anchor="end" font-size="10" fill="#666">3.76</text>
<line x1="0" y1="0.0" x2="1010" y2="0.0" stroke="#eee" stroke-width="1"/>
<text x="-8" y="4.0" text-anchor="end" font-size="10" fill="#666">4.70</text>
<text x="-50" y="100.0" text-anchor="middle" font-size="11" fill="#333" transform="rotate(-90,-50,100.0)">Mean R² (×10⁻³)</text>
<rect x="5.61" y="110.40" width="22.44" height="89.60" fill="#2E7D32" opacity="0.85"><title>Partner Identity: 0.002108</title></rect>
<line x1="16.83" y1="127.04" x2="16.83" y2="100.86" stroke="#333" stroke-width="1"/>
<line x1="14.83" y1="127.04" x2="18.83" y2="127.04" stroke="#333" stroke-width="1"/>
<line x1="14.83" y1="100.86" x2="18.83" y2="100.86" stroke="#333" stroke-width="1"/>
<rect x="28.06" y="188.66" width="22.44" height="11.34" fill="#616161" opacity="0.85"><title>Control: 0.000267</title></rect>
<line x1="39.28" y1="190.64" x2="39.28" y2="187.19" stroke="#333" stroke-width="1"/>
<line x1="37.28" y1="190.64" x2="41.28" y2="190.64" stroke="#333" stroke-width="1"/>
<line x1="37.28" y1="187.19" x2="41.28" y2="187.19" stroke="#333" stroke-width="1"/>
<text x="28.06" y="214" text-anchor="end" font-size="9" fill="#2196F3" transform="rotate(-45,28.06,214)">Phenomenology</text>
<rect x="61.72" y="115.04" width="22.44" height="84.96" fill="#2E7D32" opacity="0.85"><title>Partner Identity: 0.001999</title></rect>
<line x1="72.94" y1="129.76" x2="72.94" y2="103.57" stroke="#333" stroke-width="1"/>
<line x1="70.94" y1="129.76" x2="74.94" y2="129.76" stroke="#333" stroke-width="1"/>
<line x1="70.94" y1="103.57" x2="74.94" y2="103.57" stroke="#333" stroke-width="1"/>
<rect x="84.17" y="185.56" width="22.44" height="14.44" fill="#616161" opacity="0.85"><title>Control: 0.000340</title></rect>
<line x1="95.39" y1="187.46" x2="95.39" y2="184.36" stroke="#333" stroke-width="1"/>
<line x1="93.39" y1="187.46" x2="97.39" y2="187.46" stroke="#333" stroke-width="1"/>
<line x1="93.39" y1="184.36" x2="97.39" y2="184.36" stroke="#333" stroke-width="1"/>
<text x="84.17" y="214" text-anchor="end" font-size="9" fill="#2196F3" transform="rotate(-45,84.17,214)">Emotions</text>
<rect x="117.83" y="90.46" width="22.44" height="109.54" fill="#2E7D32" opacity="0.85"><title>Partner Identity: 0.002577</title></rect>
<line x1="129.06" y1="113.07" x2="129.06" y2="73.07" stroke="#333" stroke-width="1"/>
<line x1="127.06" y1="113.07" x2="131.06" y2="113.07" stroke="#333" stroke-width="1"/>
<line x1="127.06" y1="73.07" x2="131.06" y2="73.07" stroke="#333" stroke-width="1"/>
<rect x="140.28" y="183.91" width="22.44" height="16.09" fill="#616161" opacity="0.85"><title>Control: 0.000379</title></rect>
<line x1="151.50" y1="186.39" x2="151.50" y2="182.65" stroke="#333" stroke-width="1"/>
<line x1="149.50" y1="186.39" x2="153.50" y2="186.39" stroke="#333" stroke-width="1"/>
<line x1="149.50" y1="182.65" x2="153.50" y2="182.65" stroke="#333" stroke-width="1"/>
<text x="140.28" y="214" text-anchor="end" font-size="9" fill="#2196F3" transform="rotate(-45,140.28,214)">Agency</text>
<rect x="173.94" y="79.31" width="22.44" height="120.69" fill="#2E7D32" opacity="0.85"><title>Partner Identity: 0.002839</title></rect>
<line x1="185.17" y1="105.69" x2="185.17" y2="63.13" stroke="#333" stroke-width="1"/>
<line x1="183.17" y1="105.69" x2="187.17" y2="105.69" stroke="#333" stroke-width="1"/>
<line x1="183.17" y1="63.13" x2="187.17" y2="63.13" stroke="#333" stroke-width="1"/>
<rect x="196.39" y="183.74" width="22.44" height="16.26" fill="#616161" opacity="0.85"><title>Control: 0.000383</title></rect>
<line x1="207.61" y1="186.25" x2="207.61" y2="182.35" stroke="#333" stroke-width="1"/>
<line x1="205.61" y1="186.25" x2="209.61" y2="186.25" stroke="#333" stroke-width="1"/>
<line x1="205.61" y1="182.35" x2="209.61" y2="182.35" stroke="#333" stroke-width="1"/>
<text x="196.39" y="214" text-anchor="end" font-size="9" fill="#2196F3" transform="rotate(-45,196.39,214)">Intentions</text>
<rect x="230.06" y="73.03" width="22.44" height="126.97" fill="#2E7D32" opacity="0.85"><title>Partner Identity: 0.002987</title></rect>
<line x1="241.28" y1="97.15" x2="241.28" y2="55.05" stroke="#333" stroke-width="1"/>
<line x1="239.28" y1="97.15" x2="243.28" y2="97.15" stroke="#333" stroke-width="1"/>
<line x1="239.28" y1="55.05" x2="243.28" y2="55.05" stroke="#333" stroke-width="1"/>
<rect x="252.50" y="186.70" width="22.44" height="13.30" fill="#616161" opacity="0.85"><title>Control: 0.000313</title></rect>
<line x1="263.72" y1="189.04" x2="263.72" y2="185.22" stroke="#333" stroke-width="1"/>
<line x1="261.72" y1="189.04" x2="265.72" y2="189.04" stroke="#333" stroke-width="1"/>
<line x1="261.72" y1="185.22" x2="265.72" y2="185.22" stroke="#333" stroke-width="1"/>
<text x="252.50" y="214" text-anchor="end" font-size="9" fill="#2196F3" transform="rotate(-45,252.50,214)">Prediction</text>
<rect x="286.17" y="66.44" width="22.44" height="133.56" fill="#2E7D32" opacity="0.85"><title>Partner Identity: 0.003142</title></rect>
<line x1="297.39" y1="87.70" x2="297.39" y2="54.22" stroke="#333" stroke-width="1"/>
<line x1="295.39" y1="87.70" x2="299.39" y2="87.70" stroke="#333" stroke-width="1"/>
<line x1="295.39" y1="54.22" x2="299.39" y2="54.22" stroke="#333" stroke-width="1"/>
<rect x="308.61" y="188.25" width="22.44" height="11.75" fill="#616161" opacity="0.85"><title>Control: 0.000276</title></rect>
<line x1="319.83" y1="190.69" x2="319.83" y2="185.51" stroke="#333" stroke-width="1"/>
<line x1="317.83" y1="190.69" x2="321.83" y2="190.69" stroke="#333" stroke-width="1"/>
<line x1="317.83" y1="185.51" x2="321.83" y2="185.51" stroke="#333" stroke-width="1"/>
<text x="308.61" y="214" text-anchor="end" font-size="9" fill="#2196F3" transform="rotate(-45,308.61,214)">Cognitive</text>
<rect x="342.28" y="56.91" width="22.44" height="143.09" fill="#2E7D32" opacity="0.85"><title>Partner Identity: 0.003366</title></rect>
<line x1="353.50" y1="85.49" x2="353.50" y2="32.71" stroke="#333" stroke-width="1"/>
<line x1="351.50" y1="85.49" x2="355.50" y2="85.49" stroke="#333" stroke-width="1"/>
<line x1="351.50" y1="32.71" x2="355.50" y2="32.71" stroke="#333" stroke-width="1"/>
<rect x="364.72" y="187.61" width="22.44" height="12.39" fill="#616161" opacity="0.85"><title>Control: 0.000291</title></rect>
<line x1="375.94" y1="190.44" x2="375.94" y2="186.00" stroke="#333" stroke-width="1"/>
<line x1="373.94" y1="190.44" x2="377.94" y2="190.44" stroke="#333" stroke-width="1"/>
<line x1="373.94" y1="186.00" x2="377.94" y2="186.00" stroke="#333" stroke-width="1"/>
<text x="364.72" y="214" text-anchor="end" font-size="9" fill="#2196F3" transform="rotate(-45,364.72,214)">Social</text>
<rect x="398.39" y="49.52" width="22.44" height="150.48" fill="#2E7D32" opacity="0.85"><title>Partner Identity: 0.003540</title></rect>
<line x1="409.61" y1="76.92" x2="409.61" y2="34.33" stroke="#333" stroke-width="1"/>
<line x1="407.61" y1="76.92" x2="411.61" y2="76.92" stroke="#333" stroke-width="1"/>
<line x1="407.61" y1="34.33" x2="411.61" y2="34.33" stroke="#333" stroke-width="1"/>
<rect x="420.83" y="188.29" width="22.44" height="11.71" fill="#616161" opacity="0.85"><title>Control: 0.000275</title></rect>
<line x1="432.06" y1="190.26" x2="432.06" y2="186.96" stroke="#333" stroke-width="1"/>
<line x1="430.06" y1="190.26" x2="434.06" y2="190.26" stroke="#333" stroke-width="1"/>
<line x1="430.06" y1="186.96" x2="434.06" y2="186.96" stroke="#333" stroke-width="1"/>
<text x="420.83" y="214" text-anchor="end" font-size="9" fill="#2196F3" transform="rotate(-45,420.83,214)">Attention</text>
<rect x="454.50" y="124.72" width="22.44" height="75.28" fill="#2E7D32" opacity="0.85"><title>Partner Identity: 0.001771</title></rect>
<line x1="465.72" y1="136.78" x2="465.72" y2="115.52" stroke="#333" stroke-width="1"/>
<line x1="463.72" y1="136.78" x2="467.72" y2="136.78" stroke="#333" stroke-width="1"/>
<line x1="463.72" y1="115.52" x2="467.72" y2="115.52" stroke="#333" stroke-width="1"/>
<rect x="476.94" y="188.33" width="22.44" height="11.67" fill="#616161" opacity="0.85"><title>Control: 0.000275</title></rect>
<line x1="488.17" y1="190.06" x2="488.17" y2="186.87" stroke="#333" stroke-width="1"/>
<line x1="486.17" y1="190.06" x2="490.17" y2="190.06" stroke="#333" stroke-width="1"/>
<line x1="486.17" y1="186.87" x2="490.17" y2="186.87" stroke="#333" stroke-width="1"/>
<text x="476.94" y="214" text-anchor="end" font-size="9" fill="#4CAF50" transform="rotate(-45,476.94,214)">Embodiment</text>
<rect x="510.61" y="92.83" width="22.44" height="107.17" fill="#2E7D32" opacity="0.85"><title>Partner Identity: 0.002521</title></rect>
<line x1="521.83" y1="116.54" x2="521.83" y2="74.54" stroke="#333" stroke-width="1"/>
<line x1="519.83" y1="116.54" x2="523.83" y2="116.54" stroke="#333" stroke-width="1"/>
<line x1="519.83" y1="74.54" x2="523.83" y2="74.54" stroke="#333" stroke-width="1"/>
<rect x="533.06" y="189.08" width="22.44" height="10.92" fill="#616161" opacity="0.85"><title>Control: 0.000257</title></rect>
<line x1="544.28" y1="191.25" x2="544.28" y2="186.50" stroke="#333" stroke-width="1"/>
<line x1="542.28" y1="191.25" x2="546.28" y2="191.25" stroke="#333" stroke-width="1"/>
<line x1="542.28" y1="186.50" x2="546.28" y2="186.50" stroke="#333" stroke-width="1"/>
<text x="533.06" y="214" text-anchor="end" font-size="9" fill="#4CAF50" transform="rotate(-45,533.06,214)">Roles</text>
<rect x="566.72" y="140.44" width="22.44" height="59.56" fill="#2E7D32" opacity="0.85"><title>Partner Identity: 0.001401</title></rect>
<line x1="577.94" y1="153.06" x2="577.94" y2="131.64" stroke="#333" stroke-width="1"/>
<line x1="575.94" y1="153.06" x2="579.94" y2="153.06" stroke="#333" stroke-width="1"/>
<line x1="575.94" y1="131.64" x2="579.94" y2="131.64" stroke="#333" stroke-width="1"/>
<rect x="589.17" y="192.26" width="22.44" height="7.74" fill="#616161" opacity="0.85"><title>Control: 0.000182</title></rect>
<line x1="600.39" y1="193.52" x2="600.39" y2="190.71" stroke="#333" stroke-width="1"/>
<line x1="598.39" y1="193.52" x2="602.39" y2="193.52" stroke="#333" stroke-width="1"/>
<line x1="598.39" y1="190.71" x2="602.39" y2="190.71" stroke="#333" stroke-width="1"/>
<text x="589.17" y="214" text-anchor="end" font-size="9" fill="#4CAF50" transform="rotate(-45,589.17,214)">Animacy</text>
<rect x="622.83" y="185.98" width="22.44" height="14.02" fill="#2E7D32" opacity="0.85"><title>Partner Identity: 0.000330</title></rect>
<line x1="634.06" y1="190.77" x2="634.06" y2="178.27" stroke="#333" stroke-width="1"/>
<line x1="632.06" y1="190.77" x2="636.06" y2="190.77" stroke="#333" stroke-width="1"/>
<line x1="632.06" y1="178.27" x2="636.06" y2="178.27" stroke="#333" stroke-width="1"/>
<rect x="645.28" y="189.93" width="22.44" height="10.07" fill="#616161" opacity="0.85"><title>Control: 0.000237</title></rect>
<line x1="656.50" y1="192.68" x2="656.50" y2="187.74" stroke="#333" stroke-width="1"/>
<line x1="654.50" y1="192.68" x2="658.50" y2="192.68" stroke="#333" stroke-width="1"/>
<line x1="654.50" y1="187.74" x2="658.50" y2="187.74" stroke="#333" stroke-width="1"/>
<text x="645.28" y="214" text-anchor="end" font-size="9" fill="#FF9800" transform="rotate(-45,645.28,214)">Formality</text>
<rect x="678.94" y="151.83" width="22.44" height="48.17" fill="#2E7D32" opacity="0.85"><title>Partner Identity: 0.001133</title></rect>
<line x1="690.17" y1="161.56" x2="690.17" y2="144.58" stroke="#333" stroke-width="1"/>
<line x1="688.17" y1="161.56" x2="692.17" y2="161.56" stroke="#333" stroke-width="1"/>
<line x1="688.17" y1="144.58" x2="692.17" y2="144.58" stroke="#333" stroke-width="1"/>
<rect x="701.39" y="190.92" width="22.44" height="9.08" fill="#616161" opacity="0.85"><title>Control: 0.000214</title></rect>
<line x1="712.61" y1="192.00" x2="712.61" y2="189.52" stroke="#333" stroke-width="1"/>
<line x1="710.61" y1="192.00" x2="714.61" y2="192.00" stroke="#333" stroke-width="1"/>
<line x1="710.61" y1="189.52" x2="714.61" y2="189.52" stroke="#333" stroke-width="1"/>
<text x="701.39" y="214" text-anchor="end" font-size="9" fill="#FF9800" transform="rotate(-45,701.39,214)">Expertise</text>
<rect x="735.06" y="188.53" width="22.44" height="11.47" fill="#2E7D32" opacity="0.85"><title>Partner Identity: 0.000270</title></rect>
<line x1="746.28" y1="193.11" x2="746.28" y2="178.76" stroke="#333" stroke-width="1"/>
<line x1="744.28" y1="193.11" x2="748.28" y2="193.11" stroke="#333" stroke-width="1"/>
<line x1="744.28" y1="178.76" x2="748.28" y2="178.76" stroke="#333" stroke-width="1"/>
<rect x="757.50" y="191.38" width="22.44" height="8.62" fill="#616161" opacity="0.85"><title>Control: 0.000203</title></rect>
<line x1="768.72" y1="193.79" x2="768.72" y2="187.94" stroke="#333" stroke-width="1"/>
<line x1="766.72" y1="193.79" x2="770.72" y2="193.79" stroke="#333" stroke-width="1"/>
<line x1="766.72" y1="187.94" x2="770.72" y2="187.94" stroke="#333" stroke-width="1"/>
<text x="757.50" y="214" text-anchor="end" font-size="9" fill="#FF9800" transform="rotate(-45,757.50,214)">Helpfulness</text>
<rect x="791.17" y="77.30" width="22.44" height="122.70" fill="#2E7D32" opacity="0.85"><title>Partner Identity: 0.002886</title></rect>
<line x1="802.39" y1="106.25" x2="802.39" y2="63.06" stroke="#333" stroke-width="1"/>
<line x1="800.39" y1="106.25" x2="804.39" y2="106.25" stroke="#333" stroke-width="1"/>
<line x1="800.39" y1="63.06" x2="804.39" y2="63.06" stroke="#333" stroke-width="1"/>
<rect x="813.61" y="193.91" width="22.44" height="6.09" fill="#616161" opacity="0.85"><title>Control: 0.000143</title></rect>
<line x1="824.83" y1="194.58" x2="824.83" y2="191.80" stroke="#333" stroke-width="1"/>
<line x1="822.83" y1="194.58" x2="826.83" y2="194.58" stroke="#333" stroke-width="1"/>
<line x1="822.83" y1="191.80" x2="826.83" y2="191.80" stroke="#333" stroke-width="1"/>
<text x="813.61" y="214" text-anchor="end" font-size="9" fill="#9E9E9E" transform="rotate(-45,813.61,214)">Baseline</text>
<rect x="847.28" y="155.84" width="22.44" height="44.16" fill="#2E7D32" opacity="0.85"><title>Partner Identity: 0.001039</title></rect>
<line x1="858.50" y1="162.77" x2="858.50" y2="148.98" stroke="#333" stroke-width="1"/>
<line x1="856.50" y1="162.77" x2="860.50" y2="162.77" stroke="#333" stroke-width="1"/>
<line x1="856.50" y1="148.98" x2="860.50" y2="148.98" stroke="#333" stroke-width="1"/>
<rect x="869.72" y="190.60" width="22.44" height="9.40" fill="#616161" opacity="0.85"><title>Control: 0.000221</title></rect>
<line x1="880.94" y1="191.62" x2="880.94" y2="189.67" stroke="#333" stroke-width="1"/>
<line x1="878.94" y1="191.62" x2="882.94" y2="191.62" stroke="#333" stroke-width="1"/>
<line x1="878.94" y1="189.67" x2="882.94" y2="189.67" stroke="#333" stroke-width="1"/>
<text x="869.72" y="214" text-anchor="end" font-size="9" fill="#9E9E9E" transform="rotate(-45,869.72,214)">Biological</text>
<rect x="903.39" y="189.59" width="22.44" height="10.41" fill="#2E7D32" opacity="0.85"><title>Partner Identity: 0.000245</title></rect>
<line x1="914.61" y1="194.11" x2="914.61" y2="182.70" stroke="#333" stroke-width="1"/>
<line x1="912.61" y1="194.11" x2="916.61" y2="194.11" stroke="#333" stroke-width="1"/>
<line x1="912.61" y1="182.70" x2="916.61" y2="182.70" stroke="#333" stroke-width="1"/>
<rect x="925.83" y="191.90" width="22.44" height="8.10" fill="#616161" opacity="0.85"><title>Control: 0.000190</title></rect>
<line x1="937.06" y1="194.59" x2="937.06" y2="189.53" stroke="#333" stroke-width="1"/>
<line x1="935.06" y1="194.59" x2="939.06" y2="194.59" stroke="#333" stroke-width="1"/>
<line x1="935.06" y1="189.53" x2="939.06" y2="189.53" stroke="#333" stroke-width="1"/>
<text x="925.83" y="214" text-anchor="end" font-size="9" fill="#9E9E9E" transform="rotate(-45,925.83,214)">Shapes</text>
<rect x="959.50" y="75.05" width="22.44" height="124.95" fill="#2E7D32" opacity="0.85"><title>Partner Identity: 0.002939</title></rect>
<line x1="970.72" y1="107.62" x2="970.72" y2="26.84" stroke="#333" stroke-width="1"/>
<line x1="968.72" y1="107.62" x2="972.72" y2="107.62" stroke="#333" stroke-width="1"/>
<line x1="968.72" y1="26.84" x2="972.72" y2="26.84" stroke="#333" stroke-width="1"/>
<rect x="981.94" y="196.76" width="22.44" height="3.24" fill="#616161" opacity="0.85"><title>Control: 0.000076</title></rect>
<line x1="993.17" y1="196.95" x2="993.17" y2="196.21" stroke="#333" stroke-width="1"/>
<line x1="991.17" y1="196.95" x2="995.17" y2="196.95" stroke="#333" stroke-width="1"/>
<line x1="991.17" y1="196.21" x2="995.17" y2="196.21" stroke="#333" stroke-width="1"/>
<text x="981.94" y="214" text-anchor="end" font-size="9" fill="#00BCD4" transform="rotate(-45,981.94,214)">SysPrompt (labeled)</text>
<line x1="0" y1="200" x2="1010" y2="200" stroke="#333"/>
<line x1="0" y1="0" x2="0" y2="200" stroke="#333"/>
</g>
<rect x="70.0" y="324" width="10" height="10" fill="#2E7D32"/>
<text x="84.0" y="332" font-size="8" fill="#333">Partner Identity</text>
<rect x="272.0" y="324" width="10" height="10" fill="#616161"/>
<text x="286.0" y="332" font-size="8" fill="#333">Control</text>
</svg>