<svg viewBox="0 0 1100 360" xmlns="http://www.w3.org/2000/svg" style="width:100%;max-width:1100px;height:auto;font-family:Arial,sans-serif;">
<rect width="1100" height="360" fill="white"/>
<g transform="translate(70,30)">
<line x1="0" y1="200.0" x2="1010" y2="200.0" stroke="#eee" stroke-width="1"/>
<text x="-8" y="204.0" text-anchor="end" font-size="10" fill="#666">0.00</text>
<line x1="0" y1="160.0" x2="1010" y2="160.0" stroke="#eee" stroke-width="1"/>
<text x="-8" y="164.0" text-anchor="end" font-size="10" fill="#666">0.94</text>
<line x1="0" y1="120.0" x2="1010" y2="120.0" stroke="#eee" stroke-width="1"/>
<text x="-8" y="124.0" text-anchor="end" font-size="10" fill="#666">1.88</text>
<line x1="0" y1="80.0" x2="1010" y2="80.0" stroke="#eee" stroke-width="1"/>
<text x="-8" y="84.0" text-anchor="end" font-size="10" fill="#666">2.82</text>
<line x1="0" y1="40.0" x2="1010" y2="40.0" stroke="#eee" stroke-width="1"/>
<text x="-8" y="44.0" text-anchor="end" font-size="10" fill="#666">3.76</text>
<line x1="0" y1="0.0" x2="1010" y2="0.0" stroke="#eee" stroke-width="1"/>
<text x="-8" y="4.0" text-anchor="end" font-size="10" fill="#666">4.70</text>
<text x="-50" y="100.0" text-anchor="middle" font-size="11" fill="#333" transform="rotate(-90,-50,100.0)">Mean R² (×10⁻³)</text>
<rect x="4.21" y="110.40" width="16.83" height="89.60" fill="#2E7D32" opacity="0.85"><title>Partner Identity: 0.002108</title></rect>
<line x1="12.63" y1="127.04" x2="12.63" y2="100.86" stroke="#333" stroke-width="1"/>
<line x1="10.63" y1="127.04" x2="14.63" y2="127.04" stroke="#333" stroke-width="1"/>
<line x1="10.63" y1="100.86" x2="14.63" y2="100.86" stroke="#333" stroke-width="1"/>
<rect x="21.04" y="188.66" width="16.83" height="11.34" fill="#616161" opacity="0.85"><title>Control: 0.000267</title></rect>
<line x1="29.46" y1="190.64" x2="29.46" y2="187.19" stroke="#333" stroke-width="1"/>
<line x1="27.46" y1="190.64" x2="31.46" y2="190.64" stroke="#333" stroke-width="1"/>
<line x1="27.46" y1="187.19" x2="31.46" y2="187.19" stroke="#333" stroke-width="1"/>
<text x="21.04" y="214" text-anchor="end" font-size="9" fill="#2196F3" transform="rotate(-45,21.04,214)">Phenomenology</text>
<rect x="46.29" y="115.04" width="16.83" height="84.96" fill="#2E7D32" opacity="0.85"><title>Partner Identity: 0.001999</title></rect>
<line x1="54.71" y1="129.76" x2="54.71" y2="103.57" stroke="#333" stroke-width="1"/>
<line x1="52.71" y1="129.76" x2="56.71" y2="129.76" stroke="#333" stroke-width="1"/>
<line x1="52.71" y1="103.57" x2="56.71" y2="103.57" stroke="#333" stroke-width="1"/>
<rect x="63.13" y="185.56" width="16.83" height="14.44" fill="#616161" opacity="0.85"><title>Control: 0.000340</title></rect>
<line x1="71.54" y1="187.46" x2="71.54" y2="184.36" stroke="#333" stroke-width="1"/>
<line x1="69.54" y1="187.46" x2="73.54" y2="187.46" stroke="#333" stroke-width="1"/>
<line x1="69.54" y1="184.36" x2="73.54" y2="184.36" stroke="#333" stroke-width="1"/>
<text x="63.13" y="214" text-anchor="end" font-size="9" fill="#2196F3" transform="rotate(-45,63.13,214)">Emotions</text>
<rect x="88.38" y="90.46" width="16.83" height="109.54" fill="#2E7D32" opacity="0.85"><title>Partner Identity: 0.002577</title></rect>
<line x1="96.79" y1="113.07" x2="96.79" y2="73.07" stroke="#333" stroke-width="1"/>
<line x1="94.79" y1="113.07" x2="98.79" y2="113.07" stroke="#333" stroke-width="1"/>
<line x1="94.79" y1="73.07" x2="98.79" y2="73.07" stroke="#333" stroke-width="1"/>
<rect x="105.21" y="183.91" width="16.83" height="16.09" fill="#616161" opacity="0.85"><title>Control: 0.000379</title></rect>
<line x1="113.63" y1="186.39" x2="113.63" y2="182.65" stroke="#333" stroke-width="1"/>
<line x1="111.63" y1="186.39" x2="115.63" y2="186.39" stroke="#333" stroke-width="1"/>
<line x1="111.63" y1="182.65" x2="115.63" y2="182.65" stroke="#333" stroke-width="1"/>
<text x="105.21" y="214" text-anchor="end" font-size="9" fill="#2196F3" transform="rotate(-45,105.21,214)">Agency</text>
<rect x="130.46" y="79.31" width="16.83" height="120.69" fill="#2E7D32" opacity="0.85"><title>Partner Identity: 0.002839</title></rect>
<line x1="138.88" y1="105.69" x2="138.88" y2="63.13" stroke="#333" stroke-width="1"/>
<line x1="136.88" y1="105.69" x2="140.88" y2="105.69" stroke="#333" stroke-width="1"/>
<line x1="136.88" y1="63.13" x2="140.88" y2="63.13" stroke="#333" stroke-width="1"/>
<rect x="147.29" y="183.74" width="16.83" height="16.26" fill="#616161" opacity="0.85"><title>Control: 0.000383</title></rect>
<line x1="155.71" y1="186.25" x2="155.71" y2="182.35" stroke="#333" stroke-width="1"/>
<line x1="153.71" y1="186.25" x2="157.71" y2="186.25" stroke="#333" stroke-width="1"/>
<line x1="153.71" y1="182.35" x2="157.71" y2="182.35" stroke="#333" stroke-width="1"/>
<text x="147.29" y="214" text-anchor="end" font-size="9" fill="#2196F3" transform="rotate(-45,147.29,214)">Intentions</text>
<rect x="172.54" y="73.03" width="16.83" height="126.97" fill="#2E7D32" opacity="0.85"><title>Partner Identity: 0.002987</title></rect>
<line x1="180.96" y1="97.15" x2="180.96" y2="55.05" stroke="#333" stroke-width="1"/>
<line x1="178.96" y1="97.15" x2="182.96" y2="97.15" stroke="#333" stroke-width="1"/>
<line x1="178.96" y1="55.05" x2="182.96" y2="55.05" stroke="#333" stroke-width="1"/>
<rect x="189.38" y="186.70" width="16.83" height="13.30" fill="#616161" opacity="0.85"><title>Control: 0.000313</title></rect>
<line x1="197.79" y1="189.04" x2="197.79" y2="185.22" stroke="#333" stroke-width="1"/>
<line x1="195.79" y1="189.04" x2="199.79" y2="189.04" stroke="#333" stroke-width="1"/>
<line x1="195.79" y1="185.22" x2="199.79" y2="185.22" stroke="#333" stroke-width="1"/>
<text x="189.38" y="214" text-anchor="end" font-size="9" fill="#2196F3" transform="rotate(-45,189.38,214)">Prediction</text>
<rect x="214.63" y="66.44" width="16.83" height="133.56" fill="#2E7D32" opacity="0.85"><title>Partner Identity: 0.003142</title></rect>
<line x1="223.04" y1="87.70" x2="223.04" y2="54.22" stroke="#333" stroke-width="1"/>
<line x1="221.04" y1="87.70" x2="225.04" y2="87.70" stroke="#333" stroke-width="1"/>
<line x1="221.04" y1="54.22" x2="225.04" y2="54.22" stroke="#333" stroke-width="1"/>
<rect x="231.46" y="188.25" width="16.83" height="11.75" fill="#616161" opacity="0.85"><title>Control: 0.000276</title></rect>
<line x1="239.88" y1="190.69" x2="239.88" y2="185.51" stroke="#333" stroke-width="1"/>
<line x1="237.88" y1="190.69" x2="241.88" y2="190.69" stroke="#333" stroke-width="1"/>
<line x1="237.88" y1="185.51" x2="241.88" y2="185.51" stroke="#333" stroke-width="1"/>
<text x="231.46" y="214" text-anchor="end" font-size="9" fill="#2196F3" transform="rotate(-45,231.46,214)">Cognitive</text>
<rect x="256.71" y="56.91" width="16.83" height="143.09" fill="#2E7D32" opacity="0.85"><title>Partner Identity: 0.003366</title></rect>
<line x1="265.12" y1="85.49" x2="265.12" y2="32.71" stroke="#333" stroke-width="1"/>
<line x1="263.12" y1="85.49" x2="267.12" y2="85.49" stroke="#333" stroke-width="1"/>
<line x1="263.12" y1="32.71" x2="267.12" y2="32.71" stroke="#333" stroke-width="1"/>
<rect x="273.54" y="187.61" width="16.83" height="12.39" fill="#616161" opacity="0.85"><title>Control: 0.000291</title></rect>
<line x1="281.96" y1="190.44" x2="281.96" y2="186.00" stroke="#333" stroke-width="1"/>
<line x1="279.96" y1="190.44" x2="283.96" y2="190.44" stroke="#333" stroke-width="1"/>
<line x1="279.96" y1="186.00" x2="283.96" y2="186.00" stroke="#333" stroke-width="1"/>
<text x="273.54" y="214" text-anchor="end" font-size="9" fill="#2196F3" transform="rotate(-45,273.54,214)">Social</text>
<rect x="298.79" y="49.52" width="16.83" height="150.48" fill="#2E7D32" opacity="0.85"><title>Partner Identity: 0.003540</title></rect>
<line x1="307.21" y1="76.92" x2="307.21" y2="34.33" stroke="#333" stroke-width="1"/>
<line x1="305.21" y1="76.92" x2="309.21" y2="76.92" stroke="#333" stroke-width="1"/>
<line x1="305.21" y1="34.33" x2="309.21" y2="34.33" stroke="#333" stroke-width="1"/>
<rect x="315.62" y="188.29" width="16.83" height="11.71" fill="#616161" opacity="0.85"><title>Control: 0.000275</title></rect>
<line x1="324.04" y1="190.26" x2="324.04" y2="186.96" stroke="#333" stroke-width="1"/>
<line x1="322.04" y1="190.26" x2="326.04" y2="190.26" stroke="#333" stroke-width="1"/>
<line x1="322.04" y1="186.96" x2="326.04" y2="186.96" stroke="#333" stroke-width="1"/>
<text x="315.62" y="214" text-anchor="end" font-size="9" fill="#2196F3" transform="rotate(-45,315.62,214)">Attention</text>
<rect x="340.88" y="72.27" width="16.83" height="127.73" fill="#2E7D32" opacity="0.85"><title>Partner Identity: 0.003005</title></rect>
<line x1="349.29" y1="93.21" x2="349.29" y2="58.98" stroke="#333" stroke-width="1"/>
<line x1="347.29" y1="93.21" x2="351.29" y2="93.21" stroke="#333" stroke-width="1"/>
<line x1="347.29" y1="58.98" x2="351.29" y2="58.98" stroke="#333" stroke-width="1"/>
<rect x="357.71" y="184.13" width="16.83" height="15.87" fill="#616161" opacity="0.85"><title>Control: 0.000373</title></rect>
<line x1="366.12" y1="186.66" x2="366.12" y2="182.88" stroke="#333" stroke-width="1"/>
<line x1="364.12" y1="186.66" x2="368.12" y2="186.66" stroke="#333" stroke-width="1"/>
<line x1="364.12" y1="182.88" x2="368.12" y2="182.88" stroke="#333" stroke-width="1"/>
<text x="357.71" y="214" text-anchor="end" font-size="9" fill="#2196F3" transform="rotate(-45,357.71,214)">Beliefs</text>
<rect x="382.96" y="91.82" width="16.83" height="108.18" fill="#2E7D32" opacity="0.85"><title>Partner Identity: 0.002545</title></rect>
<line x1="391.38" y1="106.20" x2="391.38" y2="82.28" stroke="#333" stroke-width="1"/>
<line x1="389.38" y1="106.20" x2="393.38" y2="106.20" stroke="#333" stroke-width="1"/>
<line x1="389.38" y1="82.28" x2="393.38" y2="82.28" stroke="#333" stroke-width="1"/>
<rect x="399.79" y="183.96" width="16.83" height="16.04" fill="#616161" opacity="0.85"><title>Control: 0.000377</title></rect>
<line x1="408.21" y1="185.86" x2="408.21" y2="182.91" stroke="#333" stroke-width="1"/>
<line x1="406.21" y1="185.86" x2="410.21" y2="185.86" stroke="#333" stroke-width="1"/>
<line x1="406.21" y1="182.91" x2="410.21" y2="182.91" stroke="#333" stroke-width="1"/>
<text x="399.79" y="214" text-anchor="end" font-size="9" fill="#2196F3" transform="rotate(-45,399.79,214)">Desires</text>
<rect x="425.04" y="72.64" width="16.83" height="127.36" fill="#2E7D32" opacity="0.85"><title>Partner Identity: 0.002996</title></rect>
<line x1="433.46" y1="99.27" x2="433.46" y2="54.01" stroke="#333" stroke-width="1"/>
<line x1="431.46" y1="99.27" x2="435.46" y2="99.27" stroke="#333" stroke-width="1"/>
<line x1="431.46" y1="54.01" x2="435.46" y2="54.01" stroke="#333" stroke-width="1"/>
<rect x="441.88" y="187.75" width="16.83" height="12.25" fill="#616161" opacity="0.85"><title>Control: 0.000288</title></rect>
<line x1="450.29" y1="189.91" x2="450.29" y2="185.85" stroke="#333" stroke-width="1"/>
<line x1="448.29" y1="189.91" x2="452.29" y2="189.91" stroke="#333" stroke-width="1"/>
<line x1="448.29" y1="185.85" x2="452.29" y2="185.85" stroke="#333" stroke-width="1"/>
<text x="441.88" y="214" text-anchor="end" font-size="9" fill="#2196F3" transform="rotate(-45,441.88,214)">Goals</text>
<rect x="467.12" y="124.72" width="16.83" height="75.28" fill="#2E7D32" opacity="0.85"><title>Partner Identity: 0.001771</title></rect>
<line x1="475.54" y1="136.78" x2="475.54" y2="115.52" stroke="#333" stroke-width="1"/>
<line x1="473.54" y1="136.78" x2="477.54" y2="136.78" stroke="#333" stroke-width="1"/>
<line x1="473.54" y1="115.52" x2="477.54" y2="115.52" stroke="#333" stroke-width="1"/>
<rect x="483.96" y="188.33" width="16.83" height="11.67" fill="#616161" opacity="0.85"><title>Control: 0.000275</title></rect>
<line x1="492.38" y1="190.06" x2="492.38" y2="186.87" stroke="#333" stroke-width="1"/>
<line x1="490.38" y1="190.06" x2="494.38" y2="190.06" stroke="#333" stroke-width="1"/>
<line x1="490.38" y1="186.87" x2="494.38" y2="186.87" stroke="#333" stroke-width="1"/>
<text x="483.96" y="214" text-anchor="end" font-size="9" fill="#4CAF50" transform="rotate(-45,483.96,214)">Embodiment</text>
<rect x="509.21" y="92.83" width="16.83" height="107.17" fill="#2E7D32" opacity="0.85"><title>Partner Identity: 0.002521</title></rect>
<line x1="517.62" y1="116.54" x2="517.62" y2="74.54" stroke="#333" stroke-width="1"/>
<line x1="515.62" y1="116.54" x2="519.62" y2="116.54" stroke="#333" stroke-width="1"/>
<line x1="515.62" y1="74.54" x2="519.62" y2="74.54" stroke="#333" stroke-width="1"/>
<rect x="526.04" y="189.08" width="16.83" height="10.92" fill="#616161" opacity="0.85"><title>Control: 0.000257</title></rect>
<line x1="534.46" y1="191.25" x2="534.46" y2="186.50" stroke="#333" stroke-width="1"/>
<line x1="532.46" y1="191.25" x2="536.46" y2="191.25" stroke="#333" stroke-width="1"/>
<line x1="532.46" y1="186.50" x2="536.46" y2="186.50" stroke="#333" stroke-width="1"/>
<text x="526.04" y="214" text-anchor="end" font-size="9" fill="#4CAF50" transform="rotate(-45,526.04,214)">Roles</text>
<rect x="551.29" y="140.44" width="16.83" height="59.56" fill="#2E7D32" opacity="0.85"><title>Partner Identity: 0.001401</title></rect>
<line x1="559.71" y1="153.06" x2="559.71" y2="131.64" stroke="#333" stroke-width="1"/>
<line x1="557.71" y1="153.06" x2="561.71" y2="153.06" stroke="#333" stroke-width="1"/>
<line x1="557.71" y1="131.64" x2="561.71" y2="131.64" stroke="#333" stroke-width="1"/>
<rect x="568.13" y="192.26" width="16.83" height="7.74" fill="#616161" opacity="0.85"><title>Control: 0.000182</title></rect>
<line x1="576.54" y1="193.52" x2="576.54" y2="190.71" stroke="#333" stroke-width="1"/>
<line x1="574.54" y1="193.52" x2="578.54" y2="193.52" stroke="#333" stroke-width="1"/>
<line x1="574.54" y1="190.71" x2="578.54" y2="190.71" stroke="#333" stroke-width="1"/>
<text x="568.13" y="214" text-anchor="end" font-size="9" fill="#4CAF50" transform="rotate(-45,568.13,214)">Animacy</text>
<rect x="593.38" y="185.98" width="16.83" height="14.02" fill="#2E7D32" opacity="0.85"><title>Partner Identity: 0.000330</title></rect>
<line x1="601.79" y1="190.77" x2="601.79" y2="178.27" stroke="#333" stroke-width="1"/>
<line x1="599.79" y1="190.77" x2="603.79" y2="190.77" stroke="#333" stroke-width="1"/>
<line x1="599.79" y1="178.27" x2="603.79" y2="178.27" stroke="#333" stroke-width="1"/>
<rect x="610.21" y="189.93" width="16.83" height="10.07" fill="#616161" opacity="0.85"><title>Control: 0.000237</title></rect>
<line x1="618.63" y1="192.68" x2="618.63" y2="187.74" stroke="#333" stroke-width="1"/>
<line x1="616.63" y1="192.68" x2="620.63" y2="192.68" stroke="#333" stroke-width="1"/>
<line x1="616.63" y1="187.74" x2="620.63" y2="187.74" stroke="#333" stroke-width="1"/>
<text x="610.21" y="214" text-anchor="end" font-size="9" fill="#FF9800" transform="rotate(-45,610.21,214)">Formality</text>
<rect x="635.46" y="151.83" width="16.83" height="48.17" fill="#2E7D32" opacity="0.85"><title>Partner Identity: 0.001133</title></rect>
<line x1="643.88" y1="161.56" x2="643.88" y2="144.58" stroke="#333" stroke-width="1"/>
<line x1="641.88" y1="161.56" x2="645.88" y2="161.56" stroke="#333" stroke-width="1"/>
<line x1="641.88" y1="144.58" x2="645.88" y2="144.58" stroke="#333" stroke-width="1"/>
<rect x="652.29" y="190.92" width="16.83" height="9.08" fill="#616161" opacity="0.85"><title>Control: 0.000214</title></rect>
<line x1="660.71" y1="192.00" x2="660.71" y2="189.52" stroke="#333" stroke-width="1"/>
<line x1="658.71" y1="192.00" x2="662.71" y2="192.00" stroke="#333" stroke-width="1"/>
<line x1="658.71" y1="189.52" x2="662.71" y2="189.52" stroke="#333" stroke-width="1"/>
<text x="652.29" y="214" text-anchor="end" font-size="9" fill="#FF9800" transform="rotate(-45,652.29,214)">Expertise</text>
<rect x="677.54" y="188.53" width="16.83" height="11.47" fill="#2E7D32" opacity="0.85"><title>Partner Identity: 0.000270</title></rect>
<line x1="685.96" y1="193.11" x2="685.96" y2="178.76" stroke="#333" stroke-width="1"/>
<line x1="683.96" y1="193.11" x2="687.96" y2="193.11" stroke="#333" stroke-width="1"/>
<line x1="683.96" y1="178.76" x2="687.96" y2="178.76" stroke="#333" stroke-width="1"/>
<rect x="694.38" y="191.38" width="16.83" height="8.62" fill="#616161" opacity="0.85"><title>Control: 0.000203</title></rect>
<line x1="702.79" y1="193.79" x2="702.79" y2="187.94" stroke="#333" stroke-width="1"/>
<line x1="700.79" y1="193.79" x2="704.79" y2="193.79" stroke="#333" stroke-width="1"/>
<line x1="700.79" y1="187.94" x2="704.79" y2="187.94" stroke="#333" stroke-width="1"/>
<text x="694.38" y="214" text-anchor="end" font-size="9" fill="#FF9800" transform="rotate(-45,694.38,214)">Helpfulness</text>
<rect x="719.63" y="77.30" width="16.83" height="122.70" fill="#2E7D32" opacity="0.85"><title>Partner Identity: 0.002886</title></rect>
<line x1="728.04" y1="106.25" x2="728.04" y2="63.06" stroke="#333" stroke-width="1"/>
<line x1="726.04" y1="106.25" x2="730.04" y2="106.25" stroke="#333" stroke-width="1"/>
<line x1="726.04" y1="63.06" x2="730.04" y2="63.06" stroke="#333" stroke-width="1"/>
<rect x="736.46" y="193.91" width="16.83" height="6.09" fill="#616161" opacity="0.85"><title>Control: 0.000143</title></rect>
<line x1="744.88" y1="194.58" x2="744.88" y2="191.80" stroke="#333" stroke-width="1"/>
<line x1="742.88" y1="194.58" x2="746.88" y2="194.58" stroke="#333" stroke-width="1"/>
<line x1="742.88" y1="191.80" x2="746.88" y2="191.80" stroke="#333" stroke-width="1"/>
<text x="736.46" y="214" text-anchor="end" font-size="9" fill="#9E9E9E" transform="rotate(-45,736.46,214)">Baseline</text>
<rect x="761.71" y="155.84" width="16.83" height="44.16" fill="#2E7D32" opacity="0.85"><title>Partner Identity: 0.001039</title></rect>
<line x1="770.12" y1="162.77" x2="770.12" y2="148.98" stroke="#333" stroke-width="1"/>
<line x1="768.12" y1="162.77" x2="772.12" y2="162.77" stroke="#333" stroke-width="1"/>
<line x1="768.12" y1="148.98" x2="772.12" y2="148.98" stroke="#333" stroke-width="1"/>
<rect x="778.54" y="190.60" width="16.83" height="9.40" fill="#616161" opacity="0.85"><title>Control: 0.000221</title></rect>
<line x1="786.96" y1="191.62" x2="786.96" y2="189.67" stroke="#333" stroke-width="1"/>
<line x1="784.96" y1="191.62" x2="788.96" y2="191.62" stroke="#333" stroke-width="1"/>
<line x1="784.96" y1="189.67" x2="788.96" y2="189.67" stroke="#333" stroke-width="1"/>
<text x="778.54" y="214" text-anchor="end" font-size="9" fill="#9E9E9E" transform="rotate(-45,778.54,214)">Biological</text>
<rect x="803.79" y="189.59" width="16.83" height="10.41" fill="#2E7D32" opacity="0.85"><title>Partner Identity: 0.000245</title></rect>
<line x1="812.21" y1="194.11" x2="812.21" y2="182.70" stroke="#333" stroke-width="1"/>
<line x1="810.21" y1="194.11" x2="814.21" y2="194.11" stroke="#333" stroke-width="1"/>
<line x1="810.21" y1="182.70" x2="814.21" y2="182.70" stroke="#333" stroke-width="1"/>
<rect x="820.63" y="191.90" width="16.83" height="8.10" fill="#616161" opacity="0.85"><title>Control: 0.000190</title></rect>
<line x1="829.04" y1="194.59" x2="829.04" y2="189.53" stroke="#333" stroke-width="1"/>
<line x1="827.04" y1="194.59" x2="831.04" y2="194.59" stroke="#333" stroke-width="1"/>
<line x1="827.04" y1="189.53" x2="831.04" y2="189.53" stroke="#333" stroke-width="1"/>
<text x="820.63" y="214" text-anchor="end" font-size="9" fill="#9E9E9E" transform="rotate(-45,820.63,214)">Shapes</text>
<rect x="845.88" y="196.68" width="16.83" height="3.32" fill="#2E7D32" opacity="0.85"><title>Partner Identity: 0.000078</title></rect>
<line x1="854.29" y1="196.10" x2="854.29" y2="184.01" stroke="#333" stroke-width="1"/>
<line x1="852.29" y1="196.10" x2="856.29" y2="196.10" stroke="#333" stroke-width="1"/>
<line x1="852.29" y1="184.01" x2="856.29" y2="184.01" stroke="#333" stroke-width="1"/>
<rect x="862.71" y="192.92" width="16.83" height="7.08" fill="#616161" opacity="0.85"><title>Control: 0.000166</title></rect>
<line x1="871.13" y1="195.52" x2="871.13" y2="189.03" stroke="#333" stroke-width="1"/>
<line x1="869.13" y1="195.52" x2="873.13" y2="195.52" stroke="#333" stroke-width="1"/>
<line x1="869.13" y1="189.03" x2="873.13" y2="189.03" stroke="#333" stroke-width="1"/>
<text x="862.71" y="214" text-anchor="end" font-size="9" fill="#9E9E9E" transform="rotate(-45,862.71,214)">Granite/Sandstone</text>
<rect x="887.96" y="188.99" width="16.83" height="11.01" fill="#2E7D32" opacity="0.85"><title>Partner Identity: 0.000259</title></rect>
<line x1="896.38" y1="193.24" x2="896.38" y2="180.09" stroke="#333" stroke-width="1"/>
<line x1="894.38" y1="193.24" x2="898.38" y2="193.24" stroke="#333" stroke-width="1"/>
<line x1="894.38" y1="180.09" x2="898.38" y2="180.09" stroke="#333" stroke-width="1"/>
<rect x="904.79" y="191.33" width="16.83" height="8.67" fill="#616161" opacity="0.85"><title>Control: 0.000204</title></rect>
<line x1="913.21" y1="193.77" x2="913.21" y2="187.88" stroke="#333" stroke-width="1"/>
<line x1="911.21" y1="193.77" x2="915.21" y2="193.77" stroke="#333" stroke-width="1"/>
<line x1="911.21" y1="187.88" x2="915.21" y2="187.88" stroke="#333" stroke-width="1"/>
<text x="904.79" y="214" text-anchor="end" font-size="9" fill="#9E9E9E" transform="rotate(-45,904.79,214)">Squares/Triangles</text>
<rect x="930.04" y="190.17" width="16.83" height="9.83" fill="#2E7D32" opacity="0.85"><title>Partner Identity: 0.000231</title></rect>
<line x1="938.46" y1="193.91" x2="938.46" y2="175.52" stroke="#333" stroke-width="1"/>
<line x1="936.46" y1="193.91" x2="940.46" y2="193.91" stroke="#333" stroke-width="1"/>
<line x1="936.46" y1="175.52" x2="940.46" y2="175.52" stroke="#333" stroke-width="1"/>
<rect x="946.88" y="188.93" width="16.83" height="11.07" fill="#616161" opacity="0.85"><title>Control: 0.000260</title></rect>
<line x1="955.29" y1="194.43" x2="955.29" y2="186.66" stroke="#333" stroke-width="1"/>
<line x1="953.29" y1="194.43" x2="957.29" y2="194.43" stroke="#333" stroke-width="1"/>
<line x1="953.29" y1="186.66" x2="957.29" y2="186.66" stroke="#333" stroke-width="1"/>
<text x="946.88" y="214" text-anchor="end" font-size="9" fill="#9E9E9E" transform="rotate(-45,946.88,214)">Horizontal/Vertical</text>
<rect x="972.13" y="75.05" width="16.83" height="124.95" fill="#2E7D32" opacity="0.85"><title>Partner Identity: 0.002939</title></rect>
<line x1="980.54" y1="107.62" x2="980.54" y2="26.84" stroke="#333" stroke-width="1"/>
<line x1="978.54" y1="107.62" x2="982.54" y2="107.62" stroke="#333" stroke-width="1"/>
<line x1="978.54" y1="26.84" x2="982.54" y2="26.84" stroke="#333" stroke-width="1"/>
<rect x="988.96" y="196.76" width="16.83" height="3.24" fill="#616161" opacity="0.85"><title>Control: 0.000076</title></rect>
<line x1="997.38" y1="196.95" x2="997.38" y2="196.21" stroke="#333" stroke-width="1"/>
<line x1="995.38" y1="196.95" x2="999.38" y2="196.95" stroke="#333" stroke-width="1"/>
<line x1="995.38" y1="196.21" x2="999.38" y2="196.21" stroke="#333" stroke-width="1"/>
<text x="988.96" y="214" text-anchor="end" font-size="9" fill="#00BCD4" transform="rotate(-45,988.96,214)">SysPrompt (labeled)</text>
<line x1="0" y1="200" x2="1010" y2="200" stroke="#333"/>
<line x1="0" y1="0" x2="0" y2="200" stroke="#333"/>
</g>
<rect x="70.0" y="324" width="10" height="10" fill="#2E7D32"/>
<text x="84.0" y="332" font-size="8" fill="#333">Partner Identity</text>
<rect x="272.0" y="324" width="10" height="10" fill="#616161"/>
<text x="286.0" y="332" font-size="8" fill="#333">Control</text>
</svg>