<svg viewBox="0 0 700 360" xmlns="http://www.w3.org/2000/svg" style="width:100%;max-width:700px;height:auto;font-family:Arial,sans-serif;">
<rect width="700" height="360" fill="white"/>

<g transform="translate(70,30)">
<line x1="0" y1="210.0" x2="610" y2="210.0" stroke="#eee" stroke-width="1"/>
<text x="-8" y="214.0" text-anchor="end" font-size="10" fill="#666">0.00</text>
<line x1="0" y1="168.0" x2="610" y2="168.0" stroke="#eee" stroke-width="1"/>
<text x="-8" y="172.0" text-anchor="end" font-size="10" fill="#666">2.24</text>
<line x1="0" y1="126.0" x2="610" y2="126.0" stroke="#eee" stroke-width="1"/>
<text x="-8" y="130.0" text-anchor="end" font-size="10" fill="#666">4.47</text>
<line x1="0" y1="84.0" x2="610" y2="84.0" stroke="#eee" stroke-width="1"/>
<text x="-8" y="88.0" text-anchor="end" font-size="10" fill="#666">6.71</text>
<line x1="0" y1="42.0" x2="610" y2="42.0" stroke="#eee" stroke-width="1"/>
<text x="-8" y="46.0" text-anchor="end" font-size="10" fill="#666">8.94</text>
<line x1="0" y1="0.0" x2="610" y2="0.0" stroke="#eee" stroke-width="1"/>
<text x="-8" y="4.0" text-anchor="end" font-size="10" fill="#666">11.18</text>
<text x="-50" y="105.0" text-anchor="middle" font-size="11" fill="#333" transform="rotate(-90,-50,105.0)">Mean R² (×10⁻³)</text>
<line x1="305.0" y1="0" x2="305.0" y2="210" stroke="#ccc" stroke-width="1" stroke-dasharray="4,3"/>
<rect x="22.88" y="144.48" width="53.38" height="65.52" fill="#2E7D32" opacity="0.85"><title>Partner Identity — Biological: 3.487 ×10⁻³</title></rect>
<line x1="49.56" y1="153.25" x2="49.56" y2="137.57" stroke="#333" stroke-width="1"/>
<line x1="47.56" y1="153.25" x2="51.56" y2="153.25" stroke="#333" stroke-width="1"/>
<line x1="47.56" y1="137.57" x2="51.56" y2="137.57" stroke="#333" stroke-width="1"/>
<rect x="78.25" y="182.68" width="53.38" height="27.32" fill="#616161" opacity="0.85"><title>Control — Biological: 1.454 ×10⁻³</title></rect>
<line x1="104.94" y1="188.77" x2="104.94" y2="177.44" stroke="#333" stroke-width="1"/>
<line x1="102.94" y1="188.77" x2="106.94" y2="188.77" stroke="#333" stroke-width="1"/>
<line x1="102.94" y1="177.44" x2="106.94" y2="177.44" stroke="#333" stroke-width="1"/>
<text x="78.2" y="224" text-anchor="end" font-size="10" fill="#9E9E9E" transform="rotate(-30,78.2,224)">Biological</text>
<rect x="175.38" y="199.39" width="53.38" height="10.61" fill="#2E7D32" opacity="0.85"><title>Partner Identity — Shapes: 0.565 ×10⁻³</title></rect>
<line x1="202.06" y1="205.00" x2="202.06" y2="189.80" stroke="#333" stroke-width="1"/>
<line x1="200.06" y1="205.00" x2="204.06" y2="205.00" stroke="#333" stroke-width="1"/>
<line x1="200.06" y1="189.80" x2="204.06" y2="189.80" stroke="#333" stroke-width="1"/>
<rect x="230.75" y="204.40" width="53.38" height="5.60" fill="#616161" opacity="0.85"><title>Control — Shapes: 0.298 ×10⁻³</title></rect>
<line x1="257.44" y1="206.72" x2="257.44" y2="199.28" stroke="#333" stroke-width="1"/>
<line x1="255.44" y1="206.72" x2="259.44" y2="206.72" stroke="#333" stroke-width="1"/>
<line x1="255.44" y1="199.28" x2="259.44" y2="199.28" stroke="#333" stroke-width="1"/>
<text x="230.8" y="224" text-anchor="end" font-size="10" fill="#9E9E9E" transform="rotate(-30,230.8,224)">Shapes</text>
<rect x="327.88" y="68.09" width="53.38" height="141.91" fill="#2E7D32" opacity="0.85"><title>Partner Identity — Mental: 7.554 ×10⁻³</title></rect>
<line x1="354.56" y1="88.83" x2="354.56" y2="58.87" stroke="#333" stroke-width="1"/>
<line x1="352.56" y1="88.83" x2="356.56" y2="88.83" stroke="#333" stroke-width="1"/>
<line x1="352.56" y1="58.87" x2="356.56" y2="58.87" stroke="#333" stroke-width="1"/>
<rect x="383.25" y="185.82" width="53.38" height="24.18" fill="#616161" opacity="0.85"><title>Control — Mental: 1.287 ×10⁻³</title></rect>
<line x1="409.94" y1="192.55" x2="409.94" y2="180.01" stroke="#333" stroke-width="1"/>
<line x1="407.94" y1="192.55" x2="411.94" y2="192.55" stroke="#333" stroke-width="1"/>
<line x1="407.94" y1="180.01" x2="411.94" y2="180.01" stroke="#333" stroke-width="1"/>
<text x="383.2" y="224" text-anchor="end" font-size="10" fill="#2196F3" transform="rotate(-30,383.2,224)">Mental</text>
<rect x="480.38" y="168.11" width="53.38" height="41.89" fill="#2E7D32" opacity="0.85"><title>Partner Identity — Pragmatic: 2.230 ×10⁻³</title></rect>
<line x1="507.06" y1="182.49" x2="507.06" y2="156.37" stroke="#333" stroke-width="1"/>
<line x1="505.06" y1="182.49" x2="509.06" y2="182.49" stroke="#333" stroke-width="1"/>
<line x1="505.06" y1="156.37" x2="509.06" y2="156.37" stroke="#333" stroke-width="1"/>
<rect x="535.75" y="200.78" width="53.38" height="9.22" fill="#616161" opacity="0.85"><title>Control — Pragmatic: 0.491 ×10⁻³</title></rect>
<line x1="562.44" y1="205.33" x2="562.44" y2="196.84" stroke="#333" stroke-width="1"/>
<line x1="560.44" y1="205.33" x2="564.44" y2="205.33" stroke="#333" stroke-width="1"/>
<line x1="560.44" y1="196.84" x2="564.44" y2="196.84" stroke="#333" stroke-width="1"/>
<text x="535.8" y="224" text-anchor="end" font-size="10" fill="#FF9800" transform="rotate(-30,535.8,224)">Pragmatic</text>
<line x1="0" y1="210" x2="610" y2="210" stroke="#333"/>
<line x1="0" y1="0" x2="0" y2="210" stroke="#333"/>
</g>
<text x="222" y="322" text-anchor="middle" font-size="10" fill="#666" font-style="italic">Control Dimensions</text>
<text x="528" y="322" text-anchor="middle" font-size="10" fill="#666" font-style="italic">Category Averages</text>
<rect x="70" y="340" width="10" height="10" fill="#2E7D32"/>
<text x="84" y="348" font-size="9" fill="#333">Partner Identity</text>
<rect x="210" y="340" width="10" height="10" fill="#616161"/>
<text x="224" y="348" font-size="9" fill="#333">Control</text>
</svg>