<svg viewBox="0 0 1100 360" xmlns="http://www.w3.org/2000/svg" style="width:100%;max-width:1100px;height:auto;font-family:Arial,sans-serif;">
<rect width="1100" height="360" fill="white"/>
<g transform="translate(70,30)">
<line x1="0" y1="200.0" x2="1010" y2="200.0" stroke="#eee" stroke-width="1"/>
<text x="-8" y="204.0" text-anchor="end" font-size="10" fill="#666">0.00</text>
<line x1="0" y1="160.0" x2="1010" y2="160.0" stroke="#eee" stroke-width="1"/>
<text x="-8" y="164.0" text-anchor="end" font-size="10" fill="#666">0.51</text>
<line x1="0" y1="120.0" x2="1010" y2="120.0" stroke="#eee" stroke-width="1"/>
<text x="-8" y="124.0" text-anchor="end" font-size="10" fill="#666">1.01</text>
<line x1="0" y1="80.0" x2="1010" y2="80.0" stroke="#eee" stroke-width="1"/>
<text x="-8" y="84.0" text-anchor="end" font-size="10" fill="#666">1.52</text>
<line x1="0" y1="40.0" x2="1010" y2="40.0" stroke="#eee" stroke-width="1"/>
<text x="-8" y="44.0" text-anchor="end" font-size="10" fill="#666">2.03</text>
<line x1="0" y1="0.0" x2="1010" y2="0.0" stroke="#eee" stroke-width="1"/>
<text x="-8" y="4.0" text-anchor="end" font-size="10" fill="#666">2.53</text>
<text x="-50" y="100.0" text-anchor="middle" font-size="11" fill="#333" transform="rotate(-90,-50,100.0)">Mean R² (×10⁻³)</text>
<rect x="4.59" y="160.61" width="18.36" height="39.39" fill="#81C784" opacity="0.85"><title>Partner Identity: 0.000499</title></rect>
<line x1="13.77" y1="162.22" x2="13.77" y2="158.98" stroke="#333" stroke-width="1"/>
<line x1="11.77" y1="162.22" x2="15.77" y2="162.22" stroke="#333" stroke-width="1"/>
<line x1="11.77" y1="158.98" x2="15.77" y2="158.98" stroke="#333" stroke-width="1"/>
<rect x="22.95" y="174.60" width="18.36" height="25.40" fill="#BDBDBD" opacity="0.85"><title>Control: 0.000322</title></rect>
<line x1="32.14" y1="175.25" x2="32.14" y2="173.92" stroke="#333" stroke-width="1"/>
<line x1="30.14" y1="175.25" x2="34.14" y2="175.25" stroke="#333" stroke-width="1"/>
<line x1="30.14" y1="173.92" x2="34.14" y2="173.92" stroke="#333" stroke-width="1"/>
<text x="22.95" y="214" text-anchor="end" font-size="9" fill="#2196F3" transform="rotate(-45,22.95,214)">Phenomenology</text>
<rect x="50.50" y="162.27" width="18.36" height="37.73" fill="#81C784" opacity="0.85"><title>Partner Identity: 0.000478</title></rect>
<line x1="59.68" y1="164.13" x2="59.68" y2="160.22" stroke="#333" stroke-width="1"/>
<line x1="57.68" y1="164.13" x2="61.68" y2="164.13" stroke="#333" stroke-width="1"/>
<line x1="57.68" y1="160.22" x2="61.68" y2="160.22" stroke="#333" stroke-width="1"/>
<rect x="68.86" y="173.83" width="18.36" height="26.17" fill="#BDBDBD" opacity="0.85"><title>Control: 0.000331</title></rect>
<line x1="78.05" y1="174.48" x2="78.05" y2="173.16" stroke="#333" stroke-width="1"/>
<line x1="76.05" y1="174.48" x2="80.05" y2="174.48" stroke="#333" stroke-width="1"/>
<line x1="76.05" y1="173.16" x2="80.05" y2="173.16" stroke="#333" stroke-width="1"/>
<text x="68.86" y="214" text-anchor="end" font-size="9" fill="#2196F3" transform="rotate(-45,68.86,214)">Emotions</text>
<rect x="96.41" y="161.06" width="18.36" height="38.94" fill="#81C784" opacity="0.85"><title>Partner Identity: 0.000493</title></rect>
<line x1="105.59" y1="163.27" x2="105.59" y2="159.12" stroke="#333" stroke-width="1"/>
<line x1="103.59" y1="163.27" x2="107.59" y2="163.27" stroke="#333" stroke-width="1"/>
<line x1="103.59" y1="159.12" x2="107.59" y2="159.12" stroke="#333" stroke-width="1"/>
<rect x="114.77" y="173.99" width="18.36" height="26.01" fill="#BDBDBD" opacity="0.85"><title>Control: 0.000329</title></rect>
<line x1="123.95" y1="174.60" x2="123.95" y2="173.34" stroke="#333" stroke-width="1"/>
<line x1="121.95" y1="174.60" x2="125.95" y2="174.60" stroke="#333" stroke-width="1"/>
<line x1="121.95" y1="173.34" x2="125.95" y2="173.34" stroke="#333" stroke-width="1"/>
<text x="114.77" y="214" text-anchor="end" font-size="9" fill="#2196F3" transform="rotate(-45,114.77,214)">Agency</text>
<rect x="142.32" y="163.29" width="18.36" height="36.71" fill="#81C784" opacity="0.85"><title>Partner Identity: 0.000465</title></rect>
<line x1="151.50" y1="164.65" x2="151.50" y2="162.02" stroke="#333" stroke-width="1"/>
<line x1="149.50" y1="164.65" x2="153.50" y2="164.65" stroke="#333" stroke-width="1"/>
<line x1="149.50" y1="162.02" x2="153.50" y2="162.02" stroke="#333" stroke-width="1"/>
<rect x="160.68" y="174.58" width="18.36" height="25.42" fill="#BDBDBD" opacity="0.85"><title>Control: 0.000322</title></rect>
<line x1="169.86" y1="175.26" x2="169.86" y2="173.87" stroke="#333" stroke-width="1"/>
<line x1="167.86" y1="175.26" x2="171.86" y2="175.26" stroke="#333" stroke-width="1"/>
<line x1="167.86" y1="173.87" x2="171.86" y2="173.87" stroke="#333" stroke-width="1"/>
<text x="160.68" y="214" text-anchor="end" font-size="9" fill="#2196F3" transform="rotate(-45,160.68,214)">Intentions</text>
<rect x="188.23" y="158.56" width="18.36" height="41.44" fill="#81C784" opacity="0.85"><title>Partner Identity: 0.000525</title></rect>
<line x1="197.41" y1="161.28" x2="197.41" y2="155.51" stroke="#333" stroke-width="1"/>
<line x1="195.41" y1="161.28" x2="199.41" y2="161.28" stroke="#333" stroke-width="1"/>
<line x1="195.41" y1="155.51" x2="199.41" y2="155.51" stroke="#333" stroke-width="1"/>
<rect x="206.59" y="174.21" width="18.36" height="25.79" fill="#BDBDBD" opacity="0.85"><title>Control: 0.000327</title></rect>
<line x1="215.77" y1="174.86" x2="215.77" y2="173.60" stroke="#333" stroke-width="1"/>
<line x1="213.77" y1="174.86" x2="217.77" y2="174.86" stroke="#333" stroke-width="1"/>
<line x1="213.77" y1="173.60" x2="217.77" y2="173.60" stroke="#333" stroke-width="1"/>
<text x="206.59" y="214" text-anchor="end" font-size="9" fill="#2196F3" transform="rotate(-45,206.59,214)">Prediction</text>
<rect x="234.14" y="163.96" width="18.36" height="36.04" fill="#81C784" opacity="0.85"><title>Partner Identity: 0.000456</title></rect>
<line x1="243.32" y1="165.77" x2="243.32" y2="162.05" stroke="#333" stroke-width="1"/>
<line x1="241.32" y1="165.77" x2="245.32" y2="165.77" stroke="#333" stroke-width="1"/>
<line x1="241.32" y1="162.05" x2="245.32" y2="162.05" stroke="#333" stroke-width="1"/>
<rect x="252.50" y="176.02" width="18.36" height="23.98" fill="#BDBDBD" opacity="0.85"><title>Control: 0.000304</title></rect>
<line x1="261.68" y1="176.59" x2="261.68" y2="175.45" stroke="#333" stroke-width="1"/>
<line x1="259.68" y1="176.59" x2="263.68" y2="176.59" stroke="#333" stroke-width="1"/>
<line x1="259.68" y1="175.45" x2="263.68" y2="175.45" stroke="#333" stroke-width="1"/>
<text x="252.50" y="214" text-anchor="end" font-size="9" fill="#2196F3" transform="rotate(-45,252.50,214)">Cognitive</text>
<rect x="280.05" y="167.52" width="18.36" height="32.48" fill="#81C784" opacity="0.85"><title>Partner Identity: 0.000411</title></rect>
<line x1="289.23" y1="169.44" x2="289.23" y2="165.79" stroke="#333" stroke-width="1"/>
<line x1="287.23" y1="169.44" x2="291.23" y2="169.44" stroke="#333" stroke-width="1"/>
<line x1="287.23" y1="165.79" x2="291.23" y2="165.79" stroke="#333" stroke-width="1"/>
<rect x="298.41" y="175.52" width="18.36" height="24.48" fill="#BDBDBD" opacity="0.85"><title>Control: 0.000310</title></rect>
<line x1="307.59" y1="176.17" x2="307.59" y2="174.87" stroke="#333" stroke-width="1"/>
<line x1="305.59" y1="176.17" x2="309.59" y2="176.17" stroke="#333" stroke-width="1"/>
<line x1="305.59" y1="174.87" x2="309.59" y2="174.87" stroke="#333" stroke-width="1"/>
<text x="298.41" y="214" text-anchor="end" font-size="9" fill="#2196F3" transform="rotate(-45,298.41,214)">Social</text>
<rect x="325.95" y="161.11" width="18.36" height="38.89" fill="#81C784" opacity="0.85"><title>Partner Identity: 0.000492</title></rect>
<line x1="335.14" y1="162.22" x2="335.14" y2="159.94" stroke="#333" stroke-width="1"/>
<line x1="333.14" y1="162.22" x2="337.14" y2="162.22" stroke="#333" stroke-width="1"/>
<line x1="333.14" y1="159.94" x2="337.14" y2="159.94" stroke="#333" stroke-width="1"/>
<rect x="344.32" y="174.89" width="18.36" height="25.11" fill="#BDBDBD" opacity="0.85"><title>Control: 0.000318</title></rect>
<line x1="353.50" y1="175.46" x2="353.50" y2="174.34" stroke="#333" stroke-width="1"/>
<line x1="351.50" y1="175.46" x2="355.50" y2="175.46" stroke="#333" stroke-width="1"/>
<line x1="351.50" y1="174.34" x2="355.50" y2="174.34" stroke="#333" stroke-width="1"/>
<text x="344.32" y="214" text-anchor="end" font-size="9" fill="#2196F3" transform="rotate(-45,344.32,214)">Attention</text>
<rect x="371.86" y="159.08" width="18.36" height="40.92" fill="#81C784" opacity="0.85"><title>Partner Identity: 0.000518</title></rect>
<line x1="381.05" y1="161.47" x2="381.05" y2="156.26" stroke="#333" stroke-width="1"/>
<line x1="379.05" y1="161.47" x2="383.05" y2="161.47" stroke="#333" stroke-width="1"/>
<line x1="379.05" y1="156.26" x2="383.05" y2="156.26" stroke="#333" stroke-width="1"/>
<rect x="390.23" y="174.23" width="18.36" height="25.77" fill="#BDBDBD" opacity="0.85"><title>Control: 0.000326</title></rect>
<line x1="399.41" y1="174.92" x2="399.41" y2="173.52" stroke="#333" stroke-width="1"/>
<line x1="397.41" y1="174.92" x2="401.41" y2="174.92" stroke="#333" stroke-width="1"/>
<line x1="397.41" y1="173.52" x2="401.41" y2="173.52" stroke="#333" stroke-width="1"/>
<text x="390.23" y="214" text-anchor="end" font-size="9" fill="#4CAF50" transform="rotate(-45,390.23,214)">Embodiment</text>
<rect x="417.77" y="163.37" width="18.36" height="36.63" fill="#81C784" opacity="0.85"><title>Partner Identity: 0.000464</title></rect>
<line x1="426.95" y1="165.21" x2="426.95" y2="161.55" stroke="#333" stroke-width="1"/>
<line x1="424.95" y1="165.21" x2="428.95" y2="165.21" stroke="#333" stroke-width="1"/>
<line x1="424.95" y1="161.55" x2="428.95" y2="161.55" stroke="#333" stroke-width="1"/>
<rect x="436.14" y="175.44" width="18.36" height="24.56" fill="#BDBDBD" opacity="0.85"><title>Control: 0.000311</title></rect>
<line x1="445.32" y1="176.14" x2="445.32" y2="174.68" stroke="#333" stroke-width="1"/>
<line x1="443.32" y1="176.14" x2="447.32" y2="176.14" stroke="#333" stroke-width="1"/>
<line x1="443.32" y1="174.68" x2="447.32" y2="174.68" stroke="#333" stroke-width="1"/>
<text x="436.14" y="214" text-anchor="end" font-size="9" fill="#4CAF50" transform="rotate(-45,436.14,214)">Roles</text>
<rect x="463.68" y="159.36" width="18.36" height="40.64" fill="#81C784" opacity="0.85"><title>Partner Identity: 0.000515</title></rect>
<line x1="472.86" y1="161.09" x2="472.86" y2="157.58" stroke="#333" stroke-width="1"/>
<line x1="470.86" y1="161.09" x2="474.86" y2="161.09" stroke="#333" stroke-width="1"/>
<line x1="470.86" y1="157.58" x2="474.86" y2="157.58" stroke="#333" stroke-width="1"/>
<rect x="482.05" y="175.29" width="18.36" height="24.71" fill="#BDBDBD" opacity="0.85"><title>Control: 0.000313</title></rect>
<line x1="491.23" y1="176.02" x2="491.23" y2="174.56" stroke="#333" stroke-width="1"/>
<line x1="489.23" y1="176.02" x2="493.23" y2="176.02" stroke="#333" stroke-width="1"/>
<line x1="489.23" y1="174.56" x2="493.23" y2="174.56" stroke="#333" stroke-width="1"/>
<text x="482.05" y="214" text-anchor="end" font-size="9" fill="#4CAF50" transform="rotate(-45,482.05,214)">Animacy</text>
<rect x="509.59" y="163.40" width="18.36" height="36.60" fill="#81C784" opacity="0.85"><title>Partner Identity: 0.000463</title></rect>
<line x1="518.77" y1="165.40" x2="518.77" y2="161.41" stroke="#333" stroke-width="1"/>
<line x1="516.77" y1="165.40" x2="520.77" y2="165.40" stroke="#333" stroke-width="1"/>
<line x1="516.77" y1="161.41" x2="520.77" y2="161.41" stroke="#333" stroke-width="1"/>
<rect x="527.95" y="176.99" width="18.36" height="23.01" fill="#BDBDBD" opacity="0.85"><title>Control: 0.000291</title></rect>
<line x1="537.14" y1="177.53" x2="537.14" y2="176.47" stroke="#333" stroke-width="1"/>
<line x1="535.14" y1="177.53" x2="539.14" y2="177.53" stroke="#333" stroke-width="1"/>
<line x1="535.14" y1="176.47" x2="539.14" y2="176.47" stroke="#333" stroke-width="1"/>
<text x="527.95" y="214" text-anchor="end" font-size="9" fill="#FF9800" transform="rotate(-45,527.95,214)">Formality</text>
<rect x="555.50" y="165.37" width="18.36" height="34.63" fill="#81C784" opacity="0.85"><title>Partner Identity: 0.000438</title></rect>
<line x1="564.68" y1="166.82" x2="564.68" y2="164.02" stroke="#333" stroke-width="1"/>
<line x1="562.68" y1="166.82" x2="566.68" y2="166.82" stroke="#333" stroke-width="1"/>
<line x1="562.68" y1="164.02" x2="566.68" y2="164.02" stroke="#333" stroke-width="1"/>
<rect x="573.86" y="177.64" width="18.36" height="22.36" fill="#BDBDBD" opacity="0.85"><title>Control: 0.000283</title></rect>
<line x1="583.05" y1="178.14" x2="583.05" y2="177.15" stroke="#333" stroke-width="1"/>
<line x1="581.05" y1="178.14" x2="585.05" y2="178.14" stroke="#333" stroke-width="1"/>
<line x1="581.05" y1="177.15" x2="585.05" y2="177.15" stroke="#333" stroke-width="1"/>
<text x="573.86" y="214" text-anchor="end" font-size="9" fill="#FF9800" transform="rotate(-45,573.86,214)">Expertise</text>
<rect x="601.41" y="166.10" width="18.36" height="33.90" fill="#81C784" opacity="0.85"><title>Partner Identity: 0.000429</title></rect>
<line x1="610.59" y1="167.65" x2="610.59" y2="164.52" stroke="#333" stroke-width="1"/>
<line x1="608.59" y1="167.65" x2="612.59" y2="167.65" stroke="#333" stroke-width="1"/>
<line x1="608.59" y1="164.52" x2="612.59" y2="164.52" stroke="#333" stroke-width="1"/>
<rect x="619.77" y="177.55" width="18.36" height="22.45" fill="#BDBDBD" opacity="0.85"><title>Control: 0.000284</title></rect>
<line x1="628.95" y1="178.07" x2="628.95" y2="177.01" stroke="#333" stroke-width="1"/>
<line x1="626.95" y1="178.07" x2="630.95" y2="178.07" stroke="#333" stroke-width="1"/>
<line x1="626.95" y1="177.01" x2="630.95" y2="177.01" stroke="#333" stroke-width="1"/>
<text x="619.77" y="214" text-anchor="end" font-size="9" fill="#FF9800" transform="rotate(-45,619.77,214)">Helpfulness</text>
<rect x="647.32" y="153.16" width="18.36" height="46.84" fill="#81C784" opacity="0.85"><title>Partner Identity: 0.000593</title></rect>
<line x1="656.50" y1="155.83" x2="656.50" y2="150.36" stroke="#333" stroke-width="1"/>
<line x1="654.50" y1="155.83" x2="658.50" y2="155.83" stroke="#333" stroke-width="1"/>
<line x1="654.50" y1="150.36" x2="658.50" y2="150.36" stroke="#333" stroke-width="1"/>
<rect x="665.68" y="177.64" width="18.36" height="22.36" fill="#BDBDBD" opacity="0.85"><title>Control: 0.000283</title></rect>
<line x1="674.86" y1="178.24" x2="674.86" y2="177.02" stroke="#333" stroke-width="1"/>
<line x1="672.86" y1="178.24" x2="676.86" y2="178.24" stroke="#333" stroke-width="1"/>
<line x1="672.86" y1="177.02" x2="676.86" y2="177.02" stroke="#333" stroke-width="1"/>
<text x="665.68" y="214" text-anchor="end" font-size="9" fill="#7B1FA2" transform="rotate(-45,665.68,214)">Human (concept)</text>
<rect x="693.23" y="157.13" width="18.36" height="42.87" fill="#81C784" opacity="0.85"><title>Partner Identity: 0.000543</title></rect>
<line x1="702.41" y1="158.90" x2="702.41" y2="155.69" stroke="#333" stroke-width="1"/>
<line x1="700.41" y1="158.90" x2="704.41" y2="158.90" stroke="#333" stroke-width="1"/>
<line x1="700.41" y1="155.69" x2="704.41" y2="155.69" stroke="#333" stroke-width="1"/>
<rect x="711.59" y="176.87" width="18.36" height="23.13" fill="#BDBDBD" opacity="0.85"><title>Control: 0.000293</title></rect>
<line x1="720.77" y1="177.28" x2="720.77" y2="176.47" stroke="#333" stroke-width="1"/>
<line x1="718.77" y1="177.28" x2="722.77" y2="177.28" stroke="#333" stroke-width="1"/>
<line x1="718.77" y1="176.47" x2="722.77" y2="176.47" stroke="#333" stroke-width="1"/>
<text x="711.59" y="214" text-anchor="end" font-size="9" fill="#7B1FA2" transform="rotate(-45,711.59,214)">AI (concept)</text>
<rect x="739.14" y="158.70" width="18.36" height="41.30" fill="#81C784" opacity="0.85"><title>Partner Identity: 0.000523</title></rect>
<line x1="748.32" y1="160.53" x2="748.32" y2="156.49" stroke="#333" stroke-width="1"/>
<line x1="746.32" y1="160.53" x2="750.32" y2="160.53" stroke="#333" stroke-width="1"/>
<line x1="746.32" y1="156.49" x2="750.32" y2="156.49" stroke="#333" stroke-width="1"/>
<rect x="757.50" y="176.27" width="18.36" height="23.73" fill="#BDBDBD" opacity="0.85"><title>Control: 0.000300</title></rect>
<line x1="766.68" y1="176.68" x2="766.68" y2="175.85" stroke="#333" stroke-width="1"/>
<line x1="764.68" y1="176.68" x2="768.68" y2="176.68" stroke="#333" stroke-width="1"/>
<line x1="764.68" y1="175.85" x2="768.68" y2="175.85" stroke="#333" stroke-width="1"/>
<text x="757.50" y="214" text-anchor="end" font-size="9" fill="#9E9E9E" transform="rotate(-45,757.50,214)">Biological</text>
<rect x="785.05" y="162.36" width="18.36" height="37.64" fill="#81C784" opacity="0.85"><title>Partner Identity: 0.000477</title></rect>
<line x1="794.23" y1="163.20" x2="794.23" y2="161.56" stroke="#333" stroke-width="1"/>
<line x1="792.23" y1="163.20" x2="796.23" y2="163.20" stroke="#333" stroke-width="1"/>
<line x1="792.23" y1="161.56" x2="796.23" y2="161.56" stroke="#333" stroke-width="1"/>
<rect x="803.41" y="175.21" width="18.36" height="24.79" fill="#BDBDBD" opacity="0.85"><title>Control: 0.000314</title></rect>
<line x1="812.59" y1="175.67" x2="812.59" y2="174.67" stroke="#333" stroke-width="1"/>
<line x1="810.59" y1="175.67" x2="814.59" y2="175.67" stroke="#333" stroke-width="1"/>
<line x1="810.59" y1="174.67" x2="814.59" y2="174.67" stroke="#333" stroke-width="1"/>
<text x="803.41" y="214" text-anchor="end" font-size="9" fill="#9E9E9E" transform="rotate(-45,803.41,214)">Shapes</text>
<rect x="830.95" y="174.79" width="18.36" height="25.21" fill="#81C784" opacity="0.85"><title>Partner Identity: 0.000319</title></rect>
<line x1="840.14" y1="175.60" x2="840.14" y2="173.85" stroke="#333" stroke-width="1"/>
<line x1="838.14" y1="175.60" x2="842.14" y2="175.60" stroke="#333" stroke-width="1"/>
<line x1="838.14" y1="173.85" x2="842.14" y2="173.85" stroke="#333" stroke-width="1"/>
<rect x="849.32" y="175.30" width="18.36" height="24.70" fill="#BDBDBD" opacity="0.85"><title>Control: 0.000313</title></rect>
<line x1="858.50" y1="175.61" x2="858.50" y2="174.99" stroke="#333" stroke-width="1"/>
<line x1="856.50" y1="175.61" x2="860.50" y2="175.61" stroke="#333" stroke-width="1"/>
<line x1="856.50" y1="174.99" x2="860.50" y2="174.99" stroke="#333" stroke-width="1"/>
<text x="849.32" y="214" text-anchor="end" font-size="9" fill="#00BCD4" transform="rotate(-45,849.32,214)">SysPrompt (talkto human)</text>
<rect x="876.86" y="166.52" width="18.36" height="33.48" fill="#81C784" opacity="0.85"><title>Partner Identity: 0.000424</title></rect>
<line x1="886.05" y1="168.28" x2="886.05" y2="164.49" stroke="#333" stroke-width="1"/>
<line x1="884.05" y1="168.28" x2="888.05" y2="168.28" stroke="#333" stroke-width="1"/>
<line x1="884.05" y1="164.49" x2="888.05" y2="164.49" stroke="#333" stroke-width="1"/>
<rect x="895.23" y="175.34" width="18.36" height="24.66" fill="#BDBDBD" opacity="0.85"><title>Control: 0.000312</title></rect>
<line x1="904.41" y1="175.74" x2="904.41" y2="174.96" stroke="#333" stroke-width="1"/>
<line x1="902.41" y1="175.74" x2="906.41" y2="175.74" stroke="#333" stroke-width="1"/>
<line x1="902.41" y1="174.96" x2="906.41" y2="174.96" stroke="#333" stroke-width="1"/>
<text x="895.23" y="214" text-anchor="end" font-size="9" fill="#00BCD4" transform="rotate(-45,895.23,214)">SysPrompt (talkto AI)</text>
<rect x="922.77" y="172.37" width="18.36" height="27.63" fill="#81C784" opacity="0.85"><title>Partner Identity: 0.000350</title></rect>
<line x1="931.95" y1="173.33" x2="931.95" y2="171.22" stroke="#333" stroke-width="1"/>
<line x1="929.95" y1="173.33" x2="933.95" y2="173.33" stroke="#333" stroke-width="1"/>
<line x1="929.95" y1="171.22" x2="933.95" y2="171.22" stroke="#333" stroke-width="1"/>
<rect x="941.14" y="171.69" width="18.36" height="28.31" fill="#BDBDBD" opacity="0.85"><title>Control: 0.000359</title></rect>
<line x1="950.32" y1="172.29" x2="950.32" y2="171.08" stroke="#333" stroke-width="1"/>
<line x1="948.32" y1="172.29" x2="952.32" y2="172.29" stroke="#333" stroke-width="1"/>
<line x1="948.32" y1="171.08" x2="952.32" y2="171.08" stroke="#333" stroke-width="1"/>
<text x="941.14" y="214" text-anchor="end" font-size="9" fill="#00BCD4" transform="rotate(-45,941.14,214)">SysPrompt (bare human)</text>
<rect x="968.68" y="167.53" width="18.36" height="32.47" fill="#81C784" opacity="0.85"><title>Partner Identity: 0.000411</title></rect>
<line x1="977.86" y1="169.50" x2="977.86" y2="165.26" stroke="#333" stroke-width="1"/>
<line x1="975.86" y1="169.50" x2="979.86" y2="169.50" stroke="#333" stroke-width="1"/>
<line x1="975.86" y1="165.26" x2="979.86" y2="165.26" stroke="#333" stroke-width="1"/>
<rect x="987.05" y="172.75" width="18.36" height="27.25" fill="#BDBDBD" opacity="0.85"><title>Control: 0.000345</title></rect>
<line x1="996.23" y1="173.50" x2="996.23" y2="172.12" stroke="#333" stroke-width="1"/>
<line x1="994.23" y1="173.50" x2="998.23" y2="173.50" stroke="#333" stroke-width="1"/>
<line x1="994.23" y1="172.12" x2="998.23" y2="172.12" stroke="#333" stroke-width="1"/>
<text x="987.05" y="214" text-anchor="end" font-size="9" fill="#00BCD4" transform="rotate(-45,987.05,214)">SysPrompt (bare AI)</text>
<line x1="0" y1="200" x2="1010" y2="200" stroke="#333"/>
<line x1="0" y1="0" x2="0" y2="200" stroke="#333"/>
</g>
<rect x="70.0" y="324" width="10" height="10" fill="#81C784"/>
<text x="84.0" y="332" font-size="8" fill="#333">Partner Identity</text>
<rect x="272.0" y="324" width="10" height="10" fill="#BDBDBD"/>
<text x="286.0" y="332" font-size="8" fill="#333">Control</text>
</svg>