<svg viewBox="0 0 1100 360" xmlns="http://www.w3.org/2000/svg" style="width:100%;max-width:1100px;height:auto;font-family:Arial,sans-serif;">
<rect width="1100" height="360" fill="white"/>
<g transform="translate(70,30)">
<line x1="0" y1="200.0" x2="1010" y2="200.0" stroke="#eee" stroke-width="1"/>
<text x="-8" y="204.0" text-anchor="end" font-size="10" fill="#666">0.00</text>
<line x1="0" y1="160.0" x2="1010" y2="160.0" stroke="#eee" stroke-width="1"/>
<text x="-8" y="164.0" text-anchor="end" font-size="10" fill="#666">0.51</text>
<line x1="0" y1="120.0" x2="1010" y2="120.0" stroke="#eee" stroke-width="1"/>
<text x="-8" y="124.0" text-anchor="end" font-size="10" fill="#666">1.01</text>
<line x1="0" y1="80.0" x2="1010" y2="80.0" stroke="#eee" stroke-width="1"/>
<text x="-8" y="84.0" text-anchor="end" font-size="10" fill="#666">1.52</text>
<line x1="0" y1="40.0" x2="1010" y2="40.0" stroke="#eee" stroke-width="1"/>
<text x="-8" y="44.0" text-anchor="end" font-size="10" fill="#666">2.03</text>
<line x1="0" y1="0.0" x2="1010" y2="0.0" stroke="#eee" stroke-width="1"/>
<text x="-8" y="4.0" text-anchor="end" font-size="10" fill="#666">2.53</text>
<text x="-50" y="100.0" text-anchor="middle" font-size="11" fill="#333" transform="rotate(-90,-50,100.0)">Mean R² (×10⁻³)</text>
<rect x="4.59" y="64.60" width="18.36" height="135.40" fill="#2E7D32" opacity="0.85"><title>Partner Identity: 0.001715</title></rect>
<line x1="13.77" y1="67.07" x2="13.77" y2="62.01" stroke="#333" stroke-width="1"/>
<line x1="11.77" y1="67.07" x2="15.77" y2="67.07" stroke="#333" stroke-width="1"/>
<line x1="11.77" y1="62.01" x2="15.77" y2="62.01" stroke="#333" stroke-width="1"/>
<rect x="22.95" y="191.63" width="18.36" height="8.37" fill="#616161" opacity="0.85"><title>Control: 0.000106</title></rect>
<line x1="32.14" y1="192.03" x2="32.14" y2="191.14" stroke="#333" stroke-width="1"/>
<line x1="30.14" y1="192.03" x2="34.14" y2="192.03" stroke="#333" stroke-width="1"/>
<line x1="30.14" y1="191.14" x2="34.14" y2="191.14" stroke="#333" stroke-width="1"/>
<text x="22.95" y="214" text-anchor="end" font-size="9" fill="#2196F3" transform="rotate(-45,22.95,214)">Phenomenology</text>
<rect x="50.50" y="72.13" width="18.36" height="127.87" fill="#2E7D32" opacity="0.85"><title>Partner Identity: 0.001619</title></rect>
<line x1="59.68" y1="74.53" x2="59.68" y2="69.98" stroke="#333" stroke-width="1"/>
<line x1="57.68" y1="74.53" x2="61.68" y2="74.53" stroke="#333" stroke-width="1"/>
<line x1="57.68" y1="69.98" x2="61.68" y2="69.98" stroke="#333" stroke-width="1"/>
<rect x="68.86" y="190.59" width="18.36" height="9.41" fill="#616161" opacity="0.85"><title>Control: 0.000119</title></rect>
<line x1="78.05" y1="191.32" x2="78.05" y2="189.60" stroke="#333" stroke-width="1"/>
<line x1="76.05" y1="191.32" x2="80.05" y2="191.32" stroke="#333" stroke-width="1"/>
<line x1="76.05" y1="189.60" x2="80.05" y2="189.60" stroke="#333" stroke-width="1"/>
<text x="68.86" y="214" text-anchor="end" font-size="9" fill="#2196F3" transform="rotate(-45,68.86,214)">Emotions</text>
<rect x="96.41" y="73.07" width="18.36" height="126.93" fill="#2E7D32" opacity="0.85"><title>Partner Identity: 0.001607</title></rect>
<line x1="105.59" y1="76.23" x2="105.59" y2="70.17" stroke="#333" stroke-width="1"/>
<line x1="103.59" y1="76.23" x2="107.59" y2="76.23" stroke="#333" stroke-width="1"/>
<line x1="103.59" y1="70.17" x2="107.59" y2="70.17" stroke="#333" stroke-width="1"/>
<rect x="114.77" y="190.91" width="18.36" height="9.09" fill="#616161" opacity="0.85"><title>Control: 0.000115</title></rect>
<line x1="123.95" y1="191.44" x2="123.95" y2="190.06" stroke="#333" stroke-width="1"/>
<line x1="121.95" y1="191.44" x2="125.95" y2="191.44" stroke="#333" stroke-width="1"/>
<line x1="121.95" y1="190.06" x2="125.95" y2="190.06" stroke="#333" stroke-width="1"/>
<text x="114.77" y="214" text-anchor="end" font-size="9" fill="#2196F3" transform="rotate(-45,114.77,214)">Agency</text>
<rect x="142.32" y="76.91" width="18.36" height="123.09" fill="#2E7D32" opacity="0.85"><title>Partner Identity: 0.001559</title></rect>
<line x1="151.50" y1="79.69" x2="151.50" y2="74.20" stroke="#333" stroke-width="1"/>
<line x1="149.50" y1="79.69" x2="153.50" y2="79.69" stroke="#333" stroke-width="1"/>
<line x1="149.50" y1="74.20" x2="153.50" y2="74.20" stroke="#333" stroke-width="1"/>
<rect x="160.68" y="191.53" width="18.36" height="8.47" fill="#616161" opacity="0.85"><title>Control: 0.000107</title></rect>
<line x1="169.86" y1="192.01" x2="169.86" y2="191.00" stroke="#333" stroke-width="1"/>
<line x1="167.86" y1="192.01" x2="171.86" y2="192.01" stroke="#333" stroke-width="1"/>
<line x1="167.86" y1="191.00" x2="171.86" y2="191.00" stroke="#333" stroke-width="1"/>
<text x="160.68" y="214" text-anchor="end" font-size="9" fill="#2196F3" transform="rotate(-45,160.68,214)">Intentions</text>
<rect x="188.23" y="75.65" width="18.36" height="124.35" fill="#2E7D32" opacity="0.85"><title>Partner Identity: 0.001575</title></rect>
<line x1="197.41" y1="78.40" x2="197.41" y2="73.18" stroke="#333" stroke-width="1"/>
<line x1="195.41" y1="78.40" x2="199.41" y2="78.40" stroke="#333" stroke-width="1"/>
<line x1="195.41" y1="73.18" x2="199.41" y2="73.18" stroke="#333" stroke-width="1"/>
<rect x="206.59" y="191.65" width="18.36" height="8.35" fill="#616161" opacity="0.85"><title>Control: 0.000106</title></rect>
<line x1="215.77" y1="192.17" x2="215.77" y2="190.83" stroke="#333" stroke-width="1"/>
<line x1="213.77" y1="192.17" x2="217.77" y2="192.17" stroke="#333" stroke-width="1"/>
<line x1="213.77" y1="190.83" x2="217.77" y2="190.83" stroke="#333" stroke-width="1"/>
<text x="206.59" y="214" text-anchor="end" font-size="9" fill="#2196F3" transform="rotate(-45,206.59,214)">Prediction</text>
<rect x="234.14" y="74.25" width="18.36" height="125.75" fill="#2E7D32" opacity="0.85"><title>Partner Identity: 0.001592</title></rect>
<line x1="243.32" y1="78.26" x2="243.32" y2="70.22" stroke="#333" stroke-width="1"/>
<line x1="241.32" y1="78.26" x2="245.32" y2="78.26" stroke="#333" stroke-width="1"/>
<line x1="241.32" y1="70.22" x2="245.32" y2="70.22" stroke="#333" stroke-width="1"/>
<rect x="252.50" y="189.94" width="18.36" height="10.06" fill="#616161" opacity="0.85"><title>Control: 0.000127</title></rect>
<line x1="261.68" y1="191.21" x2="261.68" y2="188.26" stroke="#333" stroke-width="1"/>
<line x1="259.68" y1="191.21" x2="263.68" y2="191.21" stroke="#333" stroke-width="1"/>
<line x1="259.68" y1="188.26" x2="263.68" y2="188.26" stroke="#333" stroke-width="1"/>
<text x="252.50" y="214" text-anchor="end" font-size="9" fill="#2196F3" transform="rotate(-45,252.50,214)">Cognitive</text>
<rect x="280.05" y="87.04" width="18.36" height="112.96" fill="#2E7D32" opacity="0.85"><title>Partner Identity: 0.001430</title></rect>
<line x1="289.23" y1="89.60" x2="289.23" y2="84.59" stroke="#333" stroke-width="1"/>
<line x1="287.23" y1="89.60" x2="291.23" y2="89.60" stroke="#333" stroke-width="1"/>
<line x1="287.23" y1="84.59" x2="291.23" y2="84.59" stroke="#333" stroke-width="1"/>
<rect x="298.41" y="186.48" width="18.36" height="13.52" fill="#616161" opacity="0.85"><title>Control: 0.000171</title></rect>
<line x1="307.59" y1="188.29" x2="307.59" y2="184.40" stroke="#333" stroke-width="1"/>
<line x1="305.59" y1="188.29" x2="309.59" y2="188.29" stroke="#333" stroke-width="1"/>
<line x1="305.59" y1="184.40" x2="309.59" y2="184.40" stroke="#333" stroke-width="1"/>
<text x="298.41" y="214" text-anchor="end" font-size="9" fill="#2196F3" transform="rotate(-45,298.41,214)">Social</text>
<rect x="325.95" y="65.91" width="18.36" height="134.09" fill="#2E7D32" opacity="0.85"><title>Partner Identity: 0.001698</title></rect>
<line x1="335.14" y1="69.30" x2="335.14" y2="62.42" stroke="#333" stroke-width="1"/>
<line x1="333.14" y1="69.30" x2="337.14" y2="69.30" stroke="#333" stroke-width="1"/>
<line x1="333.14" y1="62.42" x2="337.14" y2="62.42" stroke="#333" stroke-width="1"/>
<rect x="344.32" y="192.24" width="18.36" height="7.76" fill="#616161" opacity="0.85"><title>Control: 0.000098</title></rect>
<line x1="353.50" y1="192.53" x2="353.50" y2="191.87" stroke="#333" stroke-width="1"/>
<line x1="351.50" y1="192.53" x2="355.50" y2="192.53" stroke="#333" stroke-width="1"/>
<line x1="351.50" y1="191.87" x2="355.50" y2="191.87" stroke="#333" stroke-width="1"/>
<text x="344.32" y="214" text-anchor="end" font-size="9" fill="#2196F3" transform="rotate(-45,344.32,214)">Attention</text>
<rect x="371.86" y="56.46" width="18.36" height="143.54" fill="#2E7D32" opacity="0.85"><title>Partner Identity: 0.001818</title></rect>
<line x1="381.05" y1="59.99" x2="381.05" y2="53.07" stroke="#333" stroke-width="1"/>
<line x1="379.05" y1="59.99" x2="383.05" y2="59.99" stroke="#333" stroke-width="1"/>
<line x1="379.05" y1="53.07" x2="383.05" y2="53.07" stroke="#333" stroke-width="1"/>
<rect x="390.23" y="192.14" width="18.36" height="7.86" fill="#616161" opacity="0.85"><title>Control: 0.000100</title></rect>
<line x1="399.41" y1="192.54" x2="399.41" y2="191.58" stroke="#333" stroke-width="1"/>
<line x1="397.41" y1="192.54" x2="401.41" y2="192.54" stroke="#333" stroke-width="1"/>
<line x1="397.41" y1="191.58" x2="401.41" y2="191.58" stroke="#333" stroke-width="1"/>
<text x="390.23" y="214" text-anchor="end" font-size="9" fill="#4CAF50" transform="rotate(-45,390.23,214)">Embodiment</text>
<rect x="417.77" y="70.34" width="18.36" height="129.66" fill="#2E7D32" opacity="0.85"><title>Partner Identity: 0.001642</title></rect>
<line x1="426.95" y1="73.30" x2="426.95" y2="67.41" stroke="#333" stroke-width="1"/>
<line x1="424.95" y1="73.30" x2="428.95" y2="73.30" stroke="#333" stroke-width="1"/>
<line x1="424.95" y1="67.41" x2="428.95" y2="67.41" stroke="#333" stroke-width="1"/>
<rect x="436.14" y="190.64" width="18.36" height="9.36" fill="#616161" opacity="0.85"><title>Control: 0.000119</title></rect>
<line x1="445.32" y1="191.43" x2="445.32" y2="189.43" stroke="#333" stroke-width="1"/>
<line x1="443.32" y1="191.43" x2="447.32" y2="191.43" stroke="#333" stroke-width="1"/>
<line x1="443.32" y1="189.43" x2="447.32" y2="189.43" stroke="#333" stroke-width="1"/>
<text x="436.14" y="214" text-anchor="end" font-size="9" fill="#4CAF50" transform="rotate(-45,436.14,214)">Roles</text>
<rect x="463.68" y="50.54" width="18.36" height="149.46" fill="#2E7D32" opacity="0.85"><title>Partner Identity: 0.001893</title></rect>
<line x1="472.86" y1="53.15" x2="472.86" y2="48.11" stroke="#333" stroke-width="1"/>
<line x1="470.86" y1="53.15" x2="474.86" y2="53.15" stroke="#333" stroke-width="1"/>
<line x1="470.86" y1="48.11" x2="474.86" y2="48.11" stroke="#333" stroke-width="1"/>
<rect x="482.05" y="191.87" width="18.36" height="8.13" fill="#616161" opacity="0.85"><title>Control: 0.000103</title></rect>
<line x1="491.23" y1="192.26" x2="491.23" y2="191.47" stroke="#333" stroke-width="1"/>
<line x1="489.23" y1="192.26" x2="493.23" y2="192.26" stroke="#333" stroke-width="1"/>
<line x1="489.23" y1="191.47" x2="493.23" y2="191.47" stroke="#333" stroke-width="1"/>
<text x="482.05" y="214" text-anchor="end" font-size="9" fill="#4CAF50" transform="rotate(-45,482.05,214)">Animacy</text>
<rect x="509.59" y="82.75" width="18.36" height="117.25" fill="#2E7D32" opacity="0.85"><title>Partner Identity: 0.001485</title></rect>
<line x1="518.77" y1="86.11" x2="518.77" y2="79.42" stroke="#333" stroke-width="1"/>
<line x1="516.77" y1="86.11" x2="520.77" y2="86.11" stroke="#333" stroke-width="1"/>
<line x1="516.77" y1="79.42" x2="520.77" y2="79.42" stroke="#333" stroke-width="1"/>
<rect x="527.95" y="188.45" width="18.36" height="11.55" fill="#616161" opacity="0.85"><title>Control: 0.000146</title></rect>
<line x1="537.14" y1="189.91" x2="537.14" y2="186.79" stroke="#333" stroke-width="1"/>
<line x1="535.14" y1="189.91" x2="539.14" y2="189.91" stroke="#333" stroke-width="1"/>
<line x1="535.14" y1="186.79" x2="539.14" y2="186.79" stroke="#333" stroke-width="1"/>
<text x="527.95" y="214" text-anchor="end" font-size="9" fill="#FF9800" transform="rotate(-45,527.95,214)">Formality</text>
<rect x="555.50" y="74.70" width="18.36" height="125.30" fill="#2E7D32" opacity="0.85"><title>Partner Identity: 0.001587</title></rect>
<line x1="564.68" y1="78.05" x2="564.68" y2="71.07" stroke="#333" stroke-width="1"/>
<line x1="562.68" y1="78.05" x2="566.68" y2="78.05" stroke="#333" stroke-width="1"/>
<line x1="562.68" y1="71.07" x2="566.68" y2="71.07" stroke="#333" stroke-width="1"/>
<rect x="573.86" y="186.73" width="18.36" height="13.27" fill="#616161" opacity="0.85"><title>Control: 0.000168</title></rect>
<line x1="583.05" y1="188.55" x2="583.05" y2="184.77" stroke="#333" stroke-width="1"/>
<line x1="581.05" y1="188.55" x2="585.05" y2="188.55" stroke="#333" stroke-width="1"/>
<line x1="581.05" y1="184.77" x2="585.05" y2="184.77" stroke="#333" stroke-width="1"/>
<text x="573.86" y="214" text-anchor="end" font-size="9" fill="#FF9800" transform="rotate(-45,573.86,214)">Expertise</text>
<rect x="601.41" y="80.56" width="18.36" height="119.44" fill="#2E7D32" opacity="0.85"><title>Partner Identity: 0.001512</title></rect>
<line x1="610.59" y1="83.19" x2="610.59" y2="77.98" stroke="#333" stroke-width="1"/>
<line x1="608.59" y1="83.19" x2="612.59" y2="83.19" stroke="#333" stroke-width="1"/>
<line x1="608.59" y1="77.98" x2="612.59" y2="77.98" stroke="#333" stroke-width="1"/>
<rect x="619.77" y="186.94" width="18.36" height="13.06" fill="#616161" opacity="0.85"><title>Control: 0.000165</title></rect>
<line x1="628.95" y1="188.69" x2="628.95" y2="184.88" stroke="#333" stroke-width="1"/>
<line x1="626.95" y1="188.69" x2="630.95" y2="188.69" stroke="#333" stroke-width="1"/>
<line x1="626.95" y1="184.88" x2="630.95" y2="184.88" stroke="#333" stroke-width="1"/>
<text x="619.77" y="214" text-anchor="end" font-size="9" fill="#FF9800" transform="rotate(-45,619.77,214)">Helpfulness</text>
<rect x="647.32" y="64.11" width="18.36" height="135.89" fill="#2E7D32" opacity="0.85"><title>Partner Identity: 0.001721</title></rect>
<line x1="656.50" y1="66.29" x2="656.50" y2="61.92" stroke="#333" stroke-width="1"/>
<line x1="654.50" y1="66.29" x2="658.50" y2="66.29" stroke="#333" stroke-width="1"/>
<line x1="654.50" y1="61.92" x2="658.50" y2="61.92" stroke="#333" stroke-width="1"/>
<rect x="665.68" y="186.93" width="18.36" height="13.07" fill="#616161" opacity="0.85"><title>Control: 0.000165</title></rect>
<line x1="674.86" y1="187.81" x2="674.86" y2="185.75" stroke="#333" stroke-width="1"/>
<line x1="672.86" y1="187.81" x2="676.86" y2="187.81" stroke="#333" stroke-width="1"/>
<line x1="672.86" y1="185.75" x2="676.86" y2="185.75" stroke="#333" stroke-width="1"/>
<text x="665.68" y="214" text-anchor="end" font-size="9" fill="#7B1FA2" transform="rotate(-45,665.68,214)">Human (concept)</text>
<rect x="693.23" y="29.17" width="18.36" height="170.83" fill="#2E7D32" opacity="0.85"><title>Partner Identity: 0.002163</title></rect>
<line x1="702.41" y1="31.73" x2="702.41" y2="26.84" stroke="#333" stroke-width="1"/>
<line x1="700.41" y1="31.73" x2="704.41" y2="31.73" stroke="#333" stroke-width="1"/>
<line x1="700.41" y1="26.84" x2="704.41" y2="26.84" stroke="#333" stroke-width="1"/>
<rect x="711.59" y="189.53" width="18.36" height="10.47" fill="#616161" opacity="0.85"><title>Control: 0.000133</title></rect>
<line x1="720.77" y1="190.46" x2="720.77" y2="188.38" stroke="#333" stroke-width="1"/>
<line x1="718.77" y1="190.46" x2="722.77" y2="190.46" stroke="#333" stroke-width="1"/>
<line x1="718.77" y1="188.38" x2="722.77" y2="188.38" stroke="#333" stroke-width="1"/>
<text x="711.59" y="214" text-anchor="end" font-size="9" fill="#7B1FA2" transform="rotate(-45,711.59,214)">AI (concept)</text>
<rect x="739.14" y="52.84" width="18.36" height="147.16" fill="#2E7D32" opacity="0.85"><title>Partner Identity: 0.001863</title></rect>
<line x1="748.32" y1="55.26" x2="748.32" y2="50.51" stroke="#333" stroke-width="1"/>
<line x1="746.32" y1="55.26" x2="750.32" y2="55.26" stroke="#333" stroke-width="1"/>
<line x1="746.32" y1="50.51" x2="750.32" y2="50.51" stroke="#333" stroke-width="1"/>
<rect x="757.50" y="191.31" width="18.36" height="8.69" fill="#616161" opacity="0.85"><title>Control: 0.000110</title></rect>
<line x1="766.68" y1="191.79" x2="766.68" y2="190.83" stroke="#333" stroke-width="1"/>
<line x1="764.68" y1="191.79" x2="768.68" y2="191.79" stroke="#333" stroke-width="1"/>
<line x1="764.68" y1="190.83" x2="768.68" y2="190.83" stroke="#333" stroke-width="1"/>
<text x="757.50" y="214" text-anchor="end" font-size="9" fill="#9E9E9E" transform="rotate(-45,757.50,214)">Biological</text>
<rect x="785.05" y="57.27" width="18.36" height="142.73" fill="#2E7D32" opacity="0.85"><title>Partner Identity: 0.001807</title></rect>
<line x1="794.23" y1="60.07" x2="794.23" y2="54.97" stroke="#333" stroke-width="1"/>
<line x1="792.23" y1="60.07" x2="796.23" y2="60.07" stroke="#333" stroke-width="1"/>
<line x1="792.23" y1="54.97" x2="796.23" y2="54.97" stroke="#333" stroke-width="1"/>
<rect x="803.41" y="192.56" width="18.36" height="7.44" fill="#616161" opacity="0.85"><title>Control: 0.000094</title></rect>
<line x1="812.59" y1="192.73" x2="812.59" y2="192.34" stroke="#333" stroke-width="1"/>
<line x1="810.59" y1="192.73" x2="814.59" y2="192.73" stroke="#333" stroke-width="1"/>
<line x1="810.59" y1="192.34" x2="814.59" y2="192.34" stroke="#333" stroke-width="1"/>
<text x="803.41" y="214" text-anchor="end" font-size="9" fill="#9E9E9E" transform="rotate(-45,803.41,214)">Shapes</text>
<rect x="830.95" y="113.98" width="18.36" height="86.02" fill="#2E7D32" opacity="0.85"><title>Partner Identity: 0.001089</title></rect>
<line x1="840.14" y1="115.69" x2="840.14" y2="111.86" stroke="#333" stroke-width="1"/>
<line x1="838.14" y1="115.69" x2="842.14" y2="115.69" stroke="#333" stroke-width="1"/>
<line x1="838.14" y1="111.86" x2="842.14" y2="111.86" stroke="#333" stroke-width="1"/>
<rect x="849.32" y="173.56" width="18.36" height="26.44" fill="#616161" opacity="0.85"><title>Control: 0.000335</title></rect>
<line x1="858.50" y1="174.19" x2="858.50" y2="172.99" stroke="#333" stroke-width="1"/>
<line x1="856.50" y1="174.19" x2="860.50" y2="174.19" stroke="#333" stroke-width="1"/>
<line x1="856.50" y1="172.99" x2="860.50" y2="172.99" stroke="#333" stroke-width="1"/>
<text x="849.32" y="214" text-anchor="end" font-size="9" fill="#00BCD4" transform="rotate(-45,849.32,214)">SysPrompt (talkto human)</text>
<rect x="876.86" y="63.89" width="18.36" height="136.11" fill="#2E7D32" opacity="0.85"><title>Partner Identity: 0.001723</title></rect>
<line x1="886.05" y1="80.35" x2="886.05" y2="42.30" stroke="#333" stroke-width="1"/>
<line x1="884.05" y1="80.35" x2="888.05" y2="80.35" stroke="#333" stroke-width="1"/>
<line x1="884.05" y1="42.30" x2="888.05" y2="42.30" stroke="#333" stroke-width="1"/>
<rect x="895.23" y="178.96" width="18.36" height="21.04" fill="#616161" opacity="0.85"><title>Control: 0.000266</title></rect>
<line x1="904.41" y1="180.16" x2="904.41" y2="177.81" stroke="#333" stroke-width="1"/>
<line x1="902.41" y1="180.16" x2="906.41" y2="180.16" stroke="#333" stroke-width="1"/>
<line x1="902.41" y1="177.81" x2="906.41" y2="177.81" stroke="#333" stroke-width="1"/>
<text x="895.23" y="214" text-anchor="end" font-size="9" fill="#00BCD4" transform="rotate(-45,895.23,214)">SysPrompt (talkto AI)</text>
<rect x="922.77" y="106.09" width="18.36" height="93.91" fill="#2E7D32" opacity="0.85"><title>Partner Identity: 0.001189</title></rect>
<line x1="931.95" y1="108.50" x2="931.95" y2="103.55" stroke="#333" stroke-width="1"/>
<line x1="929.95" y1="108.50" x2="933.95" y2="108.50" stroke="#333" stroke-width="1"/>
<line x1="929.95" y1="103.55" x2="933.95" y2="103.55" stroke="#333" stroke-width="1"/>
<rect x="941.14" y="180.18" width="18.36" height="19.82" fill="#616161" opacity="0.85"><title>Control: 0.000251</title></rect>
<line x1="950.32" y1="181.14" x2="950.32" y2="179.26" stroke="#333" stroke-width="1"/>
<line x1="948.32" y1="181.14" x2="952.32" y2="181.14" stroke="#333" stroke-width="1"/>
<line x1="948.32" y1="179.26" x2="952.32" y2="179.26" stroke="#333" stroke-width="1"/>
<text x="941.14" y="214" text-anchor="end" font-size="9" fill="#00BCD4" transform="rotate(-45,941.14,214)">SysPrompt (bare human)</text>
<rect x="968.68" y="53.39" width="18.36" height="146.61" fill="#2E7D32" opacity="0.85"><title>Partner Identity: 0.001856</title></rect>
<line x1="977.86" y1="69.93" x2="977.86" y2="31.00" stroke="#333" stroke-width="1"/>
<line x1="975.86" y1="69.93" x2="979.86" y2="69.93" stroke="#333" stroke-width="1"/>
<line x1="975.86" y1="31.00" x2="979.86" y2="31.00" stroke="#333" stroke-width="1"/>
<rect x="987.05" y="180.52" width="18.36" height="19.48" fill="#616161" opacity="0.85"><title>Control: 0.000247</title></rect>
<line x1="996.23" y1="181.49" x2="996.23" y2="179.54" stroke="#333" stroke-width="1"/>
<line x1="994.23" y1="181.49" x2="998.23" y2="181.49" stroke="#333" stroke-width="1"/>
<line x1="994.23" y1="179.54" x2="998.23" y2="179.54" stroke="#333" stroke-width="1"/>
<text x="987.05" y="214" text-anchor="end" font-size="9" fill="#00BCD4" transform="rotate(-45,987.05,214)">SysPrompt (bare AI)</text>
<line x1="0" y1="200" x2="1010" y2="200" stroke="#333"/>
<line x1="0" y1="0" x2="0" y2="200" stroke="#333"/>
</g>
<rect x="70.0" y="324" width="10" height="10" fill="#2E7D32"/>
<text x="84.0" y="332" font-size="8" fill="#333">Partner Identity</text>
<rect x="272.0" y="324" width="10" height="10" fill="#616161"/>
<text x="286.0" y="332" font-size="8" fill="#333">Control</text>
</svg>