<svg viewBox="0 0 1100 360" xmlns="http://www.w3.org/2000/svg" style="width:100%;max-width:1100px;height:auto;font-family:Arial,sans-serif;">
<rect width="1100" height="360" fill="white"/>
<g transform="translate(70,30)">
<line x1="0" y1="200.0" x2="1010" y2="200.0" stroke="#eee" stroke-width="1"/>
<text x="-8" y="204.0" text-anchor="end" font-size="10" fill="#666">0.00</text>
<line x1="0" y1="160.0" x2="1010" y2="160.0" stroke="#eee" stroke-width="1"/>
<text x="-8" y="164.0" text-anchor="end" font-size="10" fill="#666">0.14</text>
<line x1="0" y1="120.0" x2="1010" y2="120.0" stroke="#eee" stroke-width="1"/>
<text x="-8" y="124.0" text-anchor="end" font-size="10" fill="#666">0.28</text>
<line x1="0" y1="80.0" x2="1010" y2="80.0" stroke="#eee" stroke-width="1"/>
<text x="-8" y="84.0" text-anchor="end" font-size="10" fill="#666">0.42</text>
<line x1="0" y1="40.0" x2="1010" y2="40.0" stroke="#eee" stroke-width="1"/>
<text x="-8" y="44.0" text-anchor="end" font-size="10" fill="#666">0.56</text>
<line x1="0" y1="0.0" x2="1010" y2="0.0" stroke="#eee" stroke-width="1"/>
<text x="-8" y="4.0" text-anchor="end" font-size="10" fill="#666">0.70</text>
<text x="-50" y="100.0" text-anchor="middle" font-size="11" fill="#333" transform="rotate(-90,-50,100.0)">Mean R² (×10⁻³)</text>
<rect x="4.59" y="104.13" width="18.36" height="95.87" fill="#2E7D32" opacity="0.85"><title>Partner Identity: 0.000333</title></rect>
<line x1="13.77" y1="107.17" x2="13.77" y2="101.01" stroke="#333" stroke-width="1"/>
<line x1="11.77" y1="107.17" x2="15.77" y2="107.17" stroke="#333" stroke-width="1"/>
<line x1="11.77" y1="101.01" x2="15.77" y2="101.01" stroke="#333" stroke-width="1"/>
<rect x="22.95" y="114.77" width="18.36" height="85.23" fill="#616161" opacity="0.85"><title>Control: 0.000296</title></rect>
<line x1="32.14" y1="121.16" x2="32.14" y2="107.15" stroke="#333" stroke-width="1"/>
<line x1="30.14" y1="121.16" x2="34.14" y2="121.16" stroke="#333" stroke-width="1"/>
<line x1="30.14" y1="107.15" x2="34.14" y2="107.15" stroke="#333" stroke-width="1"/>
<text x="22.95" y="214" text-anchor="end" font-size="9" fill="#2196F3" transform="rotate(-45,22.95,214)">Phenomenology</text>
<rect x="50.50" y="107.31" width="18.36" height="92.69" fill="#2E7D32" opacity="0.85"><title>Partner Identity: 0.000322</title></rect>
<line x1="59.68" y1="110.55" x2="59.68" y2="104.14" stroke="#333" stroke-width="1"/>
<line x1="57.68" y1="110.55" x2="61.68" y2="110.55" stroke="#333" stroke-width="1"/>
<line x1="57.68" y1="104.14" x2="61.68" y2="104.14" stroke="#333" stroke-width="1"/>
<rect x="68.86" y="118.35" width="18.36" height="81.65" fill="#616161" opacity="0.85"><title>Control: 0.000284</title></rect>
<line x1="78.05" y1="125.64" x2="78.05" y2="110.55" stroke="#333" stroke-width="1"/>
<line x1="76.05" y1="125.64" x2="80.05" y2="125.64" stroke="#333" stroke-width="1"/>
<line x1="76.05" y1="110.55" x2="80.05" y2="110.55" stroke="#333" stroke-width="1"/>
<text x="68.86" y="214" text-anchor="end" font-size="9" fill="#2196F3" transform="rotate(-45,68.86,214)">Emotions</text>
<rect x="96.41" y="107.89" width="18.36" height="92.11" fill="#2E7D32" opacity="0.85"><title>Partner Identity: 0.000320</title></rect>
<line x1="105.59" y1="111.44" x2="105.59" y2="104.37" stroke="#333" stroke-width="1"/>
<line x1="103.59" y1="111.44" x2="107.59" y2="111.44" stroke="#333" stroke-width="1"/>
<line x1="103.59" y1="104.37" x2="107.59" y2="104.37" stroke="#333" stroke-width="1"/>
<rect x="114.77" y="104.28" width="18.36" height="95.72" fill="#616161" opacity="0.85"><title>Control: 0.000333</title></rect>
<line x1="123.95" y1="114.25" x2="123.95" y2="92.65" stroke="#333" stroke-width="1"/>
<line x1="121.95" y1="114.25" x2="125.95" y2="114.25" stroke="#333" stroke-width="1"/>
<line x1="121.95" y1="92.65" x2="125.95" y2="92.65" stroke="#333" stroke-width="1"/>
<text x="114.77" y="214" text-anchor="end" font-size="9" fill="#2196F3" transform="rotate(-45,114.77,214)">Agency</text>
<rect x="142.32" y="106.66" width="18.36" height="93.34" fill="#2E7D32" opacity="0.85"><title>Partner Identity: 0.000325</title></rect>
<line x1="151.50" y1="109.59" x2="151.50" y2="103.49" stroke="#333" stroke-width="1"/>
<line x1="149.50" y1="109.59" x2="153.50" y2="109.59" stroke="#333" stroke-width="1"/>
<line x1="149.50" y1="103.49" x2="153.50" y2="103.49" stroke="#333" stroke-width="1"/>
<rect x="160.68" y="110.32" width="18.36" height="89.68" fill="#616161" opacity="0.85"><title>Control: 0.000312</title></rect>
<line x1="169.86" y1="117.84" x2="169.86" y2="102.17" stroke="#333" stroke-width="1"/>
<line x1="167.86" y1="117.84" x2="171.86" y2="117.84" stroke="#333" stroke-width="1"/>
<line x1="167.86" y1="102.17" x2="171.86" y2="102.17" stroke="#333" stroke-width="1"/>
<text x="160.68" y="214" text-anchor="end" font-size="9" fill="#2196F3" transform="rotate(-45,160.68,214)">Intentions</text>
<rect x="188.23" y="106.52" width="18.36" height="93.48" fill="#2E7D32" opacity="0.85"><title>Partner Identity: 0.000325</title></rect>
<line x1="197.41" y1="110.23" x2="197.41" y2="102.74" stroke="#333" stroke-width="1"/>
<line x1="195.41" y1="110.23" x2="199.41" y2="110.23" stroke="#333" stroke-width="1"/>
<line x1="195.41" y1="102.74" x2="199.41" y2="102.74" stroke="#333" stroke-width="1"/>
<rect x="206.59" y="96.16" width="18.36" height="103.84" fill="#616161" opacity="0.85"><title>Control: 0.000361</title></rect>
<line x1="215.77" y1="104.95" x2="215.77" y2="87.18" stroke="#333" stroke-width="1"/>
<line x1="213.77" y1="104.95" x2="217.77" y2="104.95" stroke="#333" stroke-width="1"/>
<line x1="213.77" y1="87.18" x2="217.77" y2="87.18" stroke="#333" stroke-width="1"/>
<text x="206.59" y="214" text-anchor="end" font-size="9" fill="#2196F3" transform="rotate(-45,206.59,214)">Prediction</text>
<rect x="234.14" y="101.10" width="18.36" height="98.90" fill="#2E7D32" opacity="0.85"><title>Partner Identity: 0.000344</title></rect>
<line x1="243.32" y1="104.87" x2="243.32" y2="97.20" stroke="#333" stroke-width="1"/>
<line x1="241.32" y1="104.87" x2="245.32" y2="104.87" stroke="#333" stroke-width="1"/>
<line x1="241.32" y1="97.20" x2="245.32" y2="97.20" stroke="#333" stroke-width="1"/>
<rect x="252.50" y="78.40" width="18.36" height="121.60" fill="#616161" opacity="0.85"><title>Control: 0.000423</title></rect>
<line x1="261.68" y1="88.20" x2="261.68" y2="68.42" stroke="#333" stroke-width="1"/>
<line x1="259.68" y1="88.20" x2="263.68" y2="88.20" stroke="#333" stroke-width="1"/>
<line x1="259.68" y1="68.42" x2="263.68" y2="68.42" stroke="#333" stroke-width="1"/>
<text x="252.50" y="214" text-anchor="end" font-size="9" fill="#2196F3" transform="rotate(-45,252.50,214)">Cognitive</text>
<rect x="280.05" y="106.80" width="18.36" height="93.20" fill="#2E7D32" opacity="0.85"><title>Partner Identity: 0.000324</title></rect>
<line x1="289.23" y1="109.85" x2="289.23" y2="103.79" stroke="#333" stroke-width="1"/>
<line x1="287.23" y1="109.85" x2="291.23" y2="109.85" stroke="#333" stroke-width="1"/>
<line x1="287.23" y1="103.79" x2="291.23" y2="103.79" stroke="#333" stroke-width="1"/>
<rect x="298.41" y="63.27" width="18.36" height="136.73" fill="#616161" opacity="0.85"><title>Control: 0.000476</title></rect>
<line x1="307.59" y1="71.82" x2="307.59" y2="55.97" stroke="#333" stroke-width="1"/>
<line x1="305.59" y1="71.82" x2="309.59" y2="71.82" stroke="#333" stroke-width="1"/>
<line x1="305.59" y1="55.97" x2="309.59" y2="55.97" stroke="#333" stroke-width="1"/>
<text x="298.41" y="214" text-anchor="end" font-size="9" fill="#2196F3" transform="rotate(-45,298.41,214)">Social</text>
<rect x="325.95" y="106.34" width="18.36" height="93.66" fill="#2E7D32" opacity="0.85"><title>Partner Identity: 0.000326</title></rect>
<line x1="335.14" y1="109.28" x2="335.14" y2="103.54" stroke="#333" stroke-width="1"/>
<line x1="333.14" y1="109.28" x2="337.14" y2="109.28" stroke="#333" stroke-width="1"/>
<line x1="333.14" y1="103.54" x2="337.14" y2="103.54" stroke="#333" stroke-width="1"/>
<rect x="344.32" y="101.30" width="18.36" height="98.70" fill="#616161" opacity="0.85"><title>Control: 0.000343</title></rect>
<line x1="353.50" y1="109.22" x2="353.50" y2="93.48" stroke="#333" stroke-width="1"/>
<line x1="351.50" y1="109.22" x2="355.50" y2="109.22" stroke="#333" stroke-width="1"/>
<line x1="351.50" y1="93.48" x2="355.50" y2="93.48" stroke="#333" stroke-width="1"/>
<text x="344.32" y="214" text-anchor="end" font-size="9" fill="#2196F3" transform="rotate(-45,344.32,214)">Attention</text>
<rect x="371.86" y="104.39" width="18.36" height="95.61" fill="#2E7D32" opacity="0.85"><title>Partner Identity: 0.000333</title></rect>
<line x1="381.05" y1="108.10" x2="381.05" y2="100.40" stroke="#333" stroke-width="1"/>
<line x1="379.05" y1="108.10" x2="383.05" y2="108.10" stroke="#333" stroke-width="1"/>
<line x1="379.05" y1="100.40" x2="383.05" y2="100.40" stroke="#333" stroke-width="1"/>
<rect x="390.23" y="110.16" width="18.36" height="89.84" fill="#616161" opacity="0.85"><title>Control: 0.000312</title></rect>
<line x1="399.41" y1="117.17" x2="399.41" y2="102.25" stroke="#333" stroke-width="1"/>
<line x1="397.41" y1="117.17" x2="401.41" y2="117.17" stroke="#333" stroke-width="1"/>
<line x1="397.41" y1="102.25" x2="401.41" y2="102.25" stroke="#333" stroke-width="1"/>
<text x="390.23" y="214" text-anchor="end" font-size="9" fill="#4CAF50" transform="rotate(-45,390.23,214)">Embodiment</text>
<rect x="417.77" y="107.16" width="18.36" height="92.84" fill="#2E7D32" opacity="0.85"><title>Partner Identity: 0.000323</title></rect>
<line x1="426.95" y1="110.42" x2="426.95" y2="103.64" stroke="#333" stroke-width="1"/>
<line x1="424.95" y1="110.42" x2="428.95" y2="110.42" stroke="#333" stroke-width="1"/>
<line x1="424.95" y1="103.64" x2="428.95" y2="103.64" stroke="#333" stroke-width="1"/>
<rect x="436.14" y="87.56" width="18.36" height="112.44" fill="#616161" opacity="0.85"><title>Control: 0.000391</title></rect>
<line x1="445.32" y1="96.43" x2="445.32" y2="78.26" stroke="#333" stroke-width="1"/>
<line x1="443.32" y1="96.43" x2="447.32" y2="96.43" stroke="#333" stroke-width="1"/>
<line x1="443.32" y1="78.26" x2="447.32" y2="78.26" stroke="#333" stroke-width="1"/>
<text x="436.14" y="214" text-anchor="end" font-size="9" fill="#4CAF50" transform="rotate(-45,436.14,214)">Roles</text>
<rect x="463.68" y="106.34" width="18.36" height="93.66" fill="#2E7D32" opacity="0.85"><title>Partner Identity: 0.000326</title></rect>
<line x1="472.86" y1="109.20" x2="472.86" y2="103.40" stroke="#333" stroke-width="1"/>
<line x1="470.86" y1="109.20" x2="474.86" y2="109.20" stroke="#333" stroke-width="1"/>
<line x1="470.86" y1="103.40" x2="474.86" y2="103.40" stroke="#333" stroke-width="1"/>
<rect x="482.05" y="117.92" width="18.36" height="82.08" fill="#616161" opacity="0.85"><title>Control: 0.000285</title></rect>
<line x1="491.23" y1="123.87" x2="491.23" y2="112.55" stroke="#333" stroke-width="1"/>
<line x1="489.23" y1="123.87" x2="493.23" y2="123.87" stroke="#333" stroke-width="1"/>
<line x1="489.23" y1="112.55" x2="493.23" y2="112.55" stroke="#333" stroke-width="1"/>
<text x="482.05" y="214" text-anchor="end" font-size="9" fill="#4CAF50" transform="rotate(-45,482.05,214)">Animacy</text>
<rect x="509.59" y="100.65" width="18.36" height="99.35" fill="#2E7D32" opacity="0.85"><title>Partner Identity: 0.000346</title></rect>
<line x1="518.77" y1="104.15" x2="518.77" y2="96.82" stroke="#333" stroke-width="1"/>
<line x1="516.77" y1="104.15" x2="520.77" y2="104.15" stroke="#333" stroke-width="1"/>
<line x1="516.77" y1="96.82" x2="520.77" y2="96.82" stroke="#333" stroke-width="1"/>
<rect x="527.95" y="71.46" width="18.36" height="128.54" fill="#616161" opacity="0.85"><title>Control: 0.000447</title></rect>
<line x1="537.14" y1="80.14" x2="537.14" y2="63.13" stroke="#333" stroke-width="1"/>
<line x1="535.14" y1="80.14" x2="539.14" y2="80.14" stroke="#333" stroke-width="1"/>
<line x1="535.14" y1="63.13" x2="539.14" y2="63.13" stroke="#333" stroke-width="1"/>
<text x="527.95" y="214" text-anchor="end" font-size="9" fill="#FF9800" transform="rotate(-45,527.95,214)">Formality</text>
<rect x="555.50" y="92.19" width="18.36" height="107.81" fill="#2E7D32" opacity="0.85"><title>Partner Identity: 0.000375</title></rect>
<line x1="564.68" y1="96.19" x2="564.68" y2="87.99" stroke="#333" stroke-width="1"/>
<line x1="562.68" y1="96.19" x2="566.68" y2="96.19" stroke="#333" stroke-width="1"/>
<line x1="562.68" y1="87.99" x2="566.68" y2="87.99" stroke="#333" stroke-width="1"/>
<rect x="573.86" y="60.82" width="18.36" height="139.18" fill="#616161" opacity="0.85"><title>Control: 0.000484</title></rect>
<line x1="583.05" y1="68.56" x2="583.05" y2="53.20" stroke="#333" stroke-width="1"/>
<line x1="581.05" y1="68.56" x2="585.05" y2="68.56" stroke="#333" stroke-width="1"/>
<line x1="581.05" y1="53.20" x2="585.05" y2="53.20" stroke="#333" stroke-width="1"/>
<text x="573.86" y="214" text-anchor="end" font-size="9" fill="#FF9800" transform="rotate(-45,573.86,214)">Expertise</text>
<rect x="601.41" y="93.88" width="18.36" height="106.12" fill="#2E7D32" opacity="0.85"><title>Partner Identity: 0.000369</title></rect>
<line x1="610.59" y1="96.70" x2="610.59" y2="91.02" stroke="#333" stroke-width="1"/>
<line x1="608.59" y1="96.70" x2="612.59" y2="96.70" stroke="#333" stroke-width="1"/>
<line x1="608.59" y1="91.02" x2="612.59" y2="91.02" stroke="#333" stroke-width="1"/>
<rect x="619.77" y="65.89" width="18.36" height="134.11" fill="#616161" opacity="0.85"><title>Control: 0.000466</title></rect>
<line x1="628.95" y1="74.87" x2="628.95" y2="57.41" stroke="#333" stroke-width="1"/>
<line x1="626.95" y1="74.87" x2="630.95" y2="74.87" stroke="#333" stroke-width="1"/>
<line x1="626.95" y1="57.41" x2="630.95" y2="57.41" stroke="#333" stroke-width="1"/>
<text x="619.77" y="214" text-anchor="end" font-size="9" fill="#FF9800" transform="rotate(-45,619.77,214)">Helpfulness</text>
<rect x="647.32" y="121.19" width="18.36" height="78.81" fill="#2E7D32" opacity="0.85"><title>Partner Identity: 0.000274</title></rect>
<line x1="656.50" y1="123.59" x2="656.50" y2="118.58" stroke="#333" stroke-width="1"/>
<line x1="654.50" y1="123.59" x2="658.50" y2="123.59" stroke="#333" stroke-width="1"/>
<line x1="654.50" y1="118.58" x2="658.50" y2="118.58" stroke="#333" stroke-width="1"/>
<rect x="665.68" y="74.35" width="18.36" height="125.65" fill="#616161" opacity="0.85"><title>Control: 0.000437</title></rect>
<line x1="674.86" y1="84.75" x2="674.86" y2="64.02" stroke="#333" stroke-width="1"/>
<line x1="672.86" y1="84.75" x2="676.86" y2="84.75" stroke="#333" stroke-width="1"/>
<line x1="672.86" y1="64.02" x2="676.86" y2="64.02" stroke="#333" stroke-width="1"/>
<text x="665.68" y="214" text-anchor="end" font-size="9" fill="#7B1FA2" transform="rotate(-45,665.68,214)">Human (concept)</text>
<rect x="693.23" y="90.55" width="18.36" height="109.45" fill="#2E7D32" opacity="0.85"><title>Partner Identity: 0.000381</title></rect>
<line x1="702.41" y1="93.08" x2="702.41" y2="88.03" stroke="#333" stroke-width="1"/>
<line x1="700.41" y1="93.08" x2="704.41" y2="93.08" stroke="#333" stroke-width="1"/>
<line x1="700.41" y1="88.03" x2="704.41" y2="88.03" stroke="#333" stroke-width="1"/>
<rect x="711.59" y="37.26" width="18.36" height="162.74" fill="#616161" opacity="0.85"><title>Control: 0.000566</title></rect>
<line x1="720.77" y1="47.59" x2="720.77" y2="26.84" stroke="#333" stroke-width="1"/>
<line x1="718.77" y1="47.59" x2="722.77" y2="47.59" stroke="#333" stroke-width="1"/>
<line x1="718.77" y1="26.84" x2="722.77" y2="26.84" stroke="#333" stroke-width="1"/>
<text x="711.59" y="214" text-anchor="end" font-size="9" fill="#7B1FA2" transform="rotate(-45,711.59,214)">AI (concept)</text>
<rect x="739.14" y="112.61" width="18.36" height="87.39" fill="#2E7D32" opacity="0.85"><title>Partner Identity: 0.000304</title></rect>
<line x1="748.32" y1="114.87" x2="748.32" y2="110.32" stroke="#333" stroke-width="1"/>
<line x1="746.32" y1="114.87" x2="750.32" y2="114.87" stroke="#333" stroke-width="1"/>
<line x1="746.32" y1="110.32" x2="750.32" y2="110.32" stroke="#333" stroke-width="1"/>
<rect x="757.50" y="111.30" width="18.36" height="88.70" fill="#616161" opacity="0.85"><title>Control: 0.000309</title></rect>
<line x1="766.68" y1="115.69" x2="766.68" y2="106.78" stroke="#333" stroke-width="1"/>
<line x1="764.68" y1="115.69" x2="768.68" y2="115.69" stroke="#333" stroke-width="1"/>
<line x1="764.68" y1="106.78" x2="768.68" y2="106.78" stroke="#333" stroke-width="1"/>
<text x="757.50" y="214" text-anchor="end" font-size="9" fill="#9E9E9E" transform="rotate(-45,757.50,214)">Biological</text>
<rect x="785.05" y="109.90" width="18.36" height="90.10" fill="#2E7D32" opacity="0.85"><title>Partner Identity: 0.000313</title></rect>
<line x1="794.23" y1="113.02" x2="794.23" y2="106.69" stroke="#333" stroke-width="1"/>
<line x1="792.23" y1="113.02" x2="796.23" y2="113.02" stroke="#333" stroke-width="1"/>
<line x1="792.23" y1="106.69" x2="796.23" y2="106.69" stroke="#333" stroke-width="1"/>
<rect x="803.41" y="116.06" width="18.36" height="83.94" fill="#616161" opacity="0.85"><title>Control: 0.000292</title></rect>
<line x1="812.59" y1="121.23" x2="812.59" y2="110.78" stroke="#333" stroke-width="1"/>
<line x1="810.59" y1="121.23" x2="814.59" y2="121.23" stroke="#333" stroke-width="1"/>
<line x1="810.59" y1="110.78" x2="814.59" y2="110.78" stroke="#333" stroke-width="1"/>
<text x="803.41" y="214" text-anchor="end" font-size="9" fill="#9E9E9E" transform="rotate(-45,803.41,214)">Shapes</text>
<rect x="830.95" y="139.22" width="18.36" height="60.78" fill="#2E7D32" opacity="0.85"><title>Partner Identity: 0.000211</title></rect>
<line x1="840.14" y1="140.74" x2="840.14" y2="137.55" stroke="#333" stroke-width="1"/>
<line x1="838.14" y1="140.74" x2="842.14" y2="140.74" stroke="#333" stroke-width="1"/>
<line x1="838.14" y1="137.55" x2="842.14" y2="137.55" stroke="#333" stroke-width="1"/>
<rect x="849.32" y="54.09" width="18.36" height="145.91" fill="#616161" opacity="0.85"><title>Control: 0.000507</title></rect>
<line x1="858.50" y1="55.77" x2="858.50" y2="52.42" stroke="#333" stroke-width="1"/>
<line x1="856.50" y1="55.77" x2="860.50" y2="55.77" stroke="#333" stroke-width="1"/>
<line x1="856.50" y1="52.42" x2="860.50" y2="52.42" stroke="#333" stroke-width="1"/>
<text x="849.32" y="214" text-anchor="end" font-size="9" fill="#00BCD4" transform="rotate(-45,849.32,214)">SysPrompt (talkto human)</text>
<rect x="876.86" y="96.84" width="18.36" height="103.16" fill="#2E7D32" opacity="0.85"><title>Partner Identity: 0.000359</title></rect>
<line x1="886.05" y1="109.36" x2="886.05" y2="79.52" stroke="#333" stroke-width="1"/>
<line x1="884.05" y1="109.36" x2="888.05" y2="109.36" stroke="#333" stroke-width="1"/>
<line x1="884.05" y1="79.52" x2="888.05" y2="79.52" stroke="#333" stroke-width="1"/>
<rect x="895.23" y="46.07" width="18.36" height="153.93" fill="#616161" opacity="0.85"><title>Control: 0.000535</title></rect>
<line x1="904.41" y1="52.81" x2="904.41" y2="36.72" stroke="#333" stroke-width="1"/>
<line x1="902.41" y1="52.81" x2="906.41" y2="52.81" stroke="#333" stroke-width="1"/>
<line x1="902.41" y1="36.72" x2="906.41" y2="36.72" stroke="#333" stroke-width="1"/>
<text x="895.23" y="214" text-anchor="end" font-size="9" fill="#00BCD4" transform="rotate(-45,895.23,214)">SysPrompt (talkto AI)</text>
<rect x="922.77" y="125.06" width="18.36" height="74.94" fill="#2E7D32" opacity="0.85"><title>Partner Identity: 0.000261</title></rect>
<line x1="931.95" y1="127.62" x2="931.95" y2="122.63" stroke="#333" stroke-width="1"/>
<line x1="929.95" y1="127.62" x2="933.95" y2="127.62" stroke="#333" stroke-width="1"/>
<line x1="929.95" y1="122.63" x2="933.95" y2="122.63" stroke="#333" stroke-width="1"/>
<rect x="941.14" y="58.41" width="18.36" height="141.59" fill="#616161" opacity="0.85"><title>Control: 0.000492</title></rect>
<line x1="950.32" y1="60.67" x2="950.32" y2="56.08" stroke="#333" stroke-width="1"/>
<line x1="948.32" y1="60.67" x2="952.32" y2="60.67" stroke="#333" stroke-width="1"/>
<line x1="948.32" y1="56.08" x2="952.32" y2="56.08" stroke="#333" stroke-width="1"/>
<text x="941.14" y="214" text-anchor="end" font-size="9" fill="#00BCD4" transform="rotate(-45,941.14,214)">SysPrompt (bare human)</text>
<rect x="968.68" y="92.31" width="18.36" height="107.69" fill="#2E7D32" opacity="0.85"><title>Partner Identity: 0.000375</title></rect>
<line x1="977.86" y1="103.13" x2="977.86" y2="76.54" stroke="#333" stroke-width="1"/>
<line x1="975.86" y1="103.13" x2="979.86" y2="103.13" stroke="#333" stroke-width="1"/>
<line x1="975.86" y1="76.54" x2="979.86" y2="76.54" stroke="#333" stroke-width="1"/>
<rect x="987.05" y="42.71" width="18.36" height="157.29" fill="#616161" opacity="0.85"><title>Control: 0.000547</title></rect>
<line x1="996.23" y1="49.09" x2="996.23" y2="34.37" stroke="#333" stroke-width="1"/>
<line x1="994.23" y1="49.09" x2="998.23" y2="49.09" stroke="#333" stroke-width="1"/>
<line x1="994.23" y1="34.37" x2="998.23" y2="34.37" stroke="#333" stroke-width="1"/>
<text x="987.05" y="214" text-anchor="end" font-size="9" fill="#00BCD4" transform="rotate(-45,987.05,214)">SysPrompt (bare AI)</text>
<line x1="0" y1="200" x2="1010" y2="200" stroke="#333"/>
<line x1="0" y1="0" x2="0" y2="200" stroke="#333"/>
</g>
<rect x="70.0" y="324" width="10" height="10" fill="#2E7D32"/>
<text x="84.0" y="332" font-size="8" fill="#333">Partner Identity</text>
<rect x="272.0" y="324" width="10" height="10" fill="#616161"/>
<text x="286.0" y="332" font-size="8" fill="#333">Control</text>
</svg>