<svg viewBox="0 0 1100 360" xmlns="http://www.w3.org/2000/svg" style="width:100%;max-width:1100px;height:auto;font-family:Arial,sans-serif;">
<rect width="1100" height="360" fill="white"/>
<g transform="translate(70,30)">
<line x1="0" y1="200.0" x2="1010" y2="200.0" stroke="#eee" stroke-width="1"/>
<text x="-8" y="204.0" text-anchor="end" font-size="10" fill="#666">0.00</text>
<line x1="0" y1="160.0" x2="1010" y2="160.0" stroke="#eee" stroke-width="1"/>
<text x="-8" y="164.0" text-anchor="end" font-size="10" fill="#666">1.03</text>
<line x1="0" y1="120.0" x2="1010" y2="120.0" stroke="#eee" stroke-width="1"/>
<text x="-8" y="124.0" text-anchor="end" font-size="10" fill="#666">2.06</text>
<line x1="0" y1="80.0" x2="1010" y2="80.0" stroke="#eee" stroke-width="1"/>
<text x="-8" y="84.0" text-anchor="end" font-size="10" fill="#666">3.09</text>
<line x1="0" y1="40.0" x2="1010" y2="40.0" stroke="#eee" stroke-width="1"/>
<text x="-8" y="44.0" text-anchor="end" font-size="10" fill="#666">4.12</text>
<line x1="0" y1="0.0" x2="1010" y2="0.0" stroke="#eee" stroke-width="1"/>
<text x="-8" y="4.0" text-anchor="end" font-size="10" fill="#666">5.15</text>
<text x="-50" y="100.0" text-anchor="middle" font-size="11" fill="#333" transform="rotate(-90,-50,100.0)">Mean R² (×10⁻³)</text>
<rect x="4.59" y="181.52" width="18.36" height="18.48" fill="#81C784" opacity="0.85"><title>Partner Identity: 0.000476</title></rect>
<line x1="13.77" y1="182.05" x2="13.77" y2="181.02" stroke="#333" stroke-width="1"/>
<line x1="11.77" y1="182.05" x2="15.77" y2="182.05" stroke="#333" stroke-width="1"/>
<line x1="11.77" y1="181.02" x2="15.77" y2="181.02" stroke="#333" stroke-width="1"/>
<rect x="22.95" y="185.12" width="18.36" height="14.88" fill="#BDBDBD" opacity="0.85"><title>Control: 0.000383</title></rect>
<line x1="32.14" y1="185.79" x2="32.14" y2="184.45" stroke="#333" stroke-width="1"/>
<line x1="30.14" y1="185.79" x2="34.14" y2="185.79" stroke="#333" stroke-width="1"/>
<line x1="30.14" y1="184.45" x2="34.14" y2="184.45" stroke="#333" stroke-width="1"/>
<text x="22.95" y="214" text-anchor="end" font-size="9" fill="#2196F3" transform="rotate(-45,22.95,214)">Phenomenology</text>
<rect x="50.50" y="181.75" width="18.36" height="18.25" fill="#81C784" opacity="0.85"><title>Partner Identity: 0.000470</title></rect>
<line x1="59.68" y1="182.43" x2="59.68" y2="181.06" stroke="#333" stroke-width="1"/>
<line x1="57.68" y1="182.43" x2="61.68" y2="182.43" stroke="#333" stroke-width="1"/>
<line x1="57.68" y1="181.06" x2="61.68" y2="181.06" stroke="#333" stroke-width="1"/>
<rect x="68.86" y="184.41" width="18.36" height="15.59" fill="#BDBDBD" opacity="0.85"><title>Control: 0.000401</title></rect>
<line x1="78.05" y1="185.01" x2="78.05" y2="183.87" stroke="#333" stroke-width="1"/>
<line x1="76.05" y1="185.01" x2="80.05" y2="185.01" stroke="#333" stroke-width="1"/>
<line x1="76.05" y1="183.87" x2="80.05" y2="183.87" stroke="#333" stroke-width="1"/>
<text x="68.86" y="214" text-anchor="end" font-size="9" fill="#2196F3" transform="rotate(-45,68.86,214)">Emotions</text>
<rect x="96.41" y="181.80" width="18.36" height="18.20" fill="#81C784" opacity="0.85"><title>Partner Identity: 0.000469</title></rect>
<line x1="105.59" y1="182.72" x2="105.59" y2="181.02" stroke="#333" stroke-width="1"/>
<line x1="103.59" y1="182.72" x2="107.59" y2="182.72" stroke="#333" stroke-width="1"/>
<line x1="103.59" y1="181.02" x2="107.59" y2="181.02" stroke="#333" stroke-width="1"/>
<rect x="114.77" y="183.90" width="18.36" height="16.10" fill="#BDBDBD" opacity="0.85"><title>Control: 0.000415</title></rect>
<line x1="123.95" y1="184.47" x2="123.95" y2="183.31" stroke="#333" stroke-width="1"/>
<line x1="121.95" y1="184.47" x2="125.95" y2="184.47" stroke="#333" stroke-width="1"/>
<line x1="121.95" y1="183.31" x2="125.95" y2="183.31" stroke="#333" stroke-width="1"/>
<text x="114.77" y="214" text-anchor="end" font-size="9" fill="#2196F3" transform="rotate(-45,114.77,214)">Agency</text>
<rect x="142.32" y="182.19" width="18.36" height="17.81" fill="#81C784" opacity="0.85"><title>Partner Identity: 0.000458</title></rect>
<line x1="151.50" y1="182.86" x2="151.50" y2="181.68" stroke="#333" stroke-width="1"/>
<line x1="149.50" y1="182.86" x2="153.50" y2="182.86" stroke="#333" stroke-width="1"/>
<line x1="149.50" y1="181.68" x2="153.50" y2="181.68" stroke="#333" stroke-width="1"/>
<rect x="160.68" y="184.20" width="18.36" height="15.80" fill="#BDBDBD" opacity="0.85"><title>Control: 0.000407</title></rect>
<line x1="169.86" y1="184.79" x2="169.86" y2="183.60" stroke="#333" stroke-width="1"/>
<line x1="167.86" y1="184.79" x2="171.86" y2="184.79" stroke="#333" stroke-width="1"/>
<line x1="167.86" y1="183.60" x2="171.86" y2="183.60" stroke="#333" stroke-width="1"/>
<text x="160.68" y="214" text-anchor="end" font-size="9" fill="#2196F3" transform="rotate(-45,160.68,214)">Intentions</text>
<rect x="188.23" y="181.48" width="18.36" height="18.52" fill="#81C784" opacity="0.85"><title>Partner Identity: 0.000477</title></rect>
<line x1="197.41" y1="182.44" x2="197.41" y2="180.48" stroke="#333" stroke-width="1"/>
<line x1="195.41" y1="182.44" x2="199.41" y2="182.44" stroke="#333" stroke-width="1"/>
<line x1="195.41" y1="180.48" x2="199.41" y2="180.48" stroke="#333" stroke-width="1"/>
<rect x="206.59" y="182.43" width="18.36" height="17.57" fill="#BDBDBD" opacity="0.85"><title>Control: 0.000452</title></rect>
<line x1="215.77" y1="183.03" x2="215.77" y2="181.83" stroke="#333" stroke-width="1"/>
<line x1="213.77" y1="183.03" x2="217.77" y2="183.03" stroke="#333" stroke-width="1"/>
<line x1="213.77" y1="181.83" x2="217.77" y2="181.83" stroke="#333" stroke-width="1"/>
<text x="206.59" y="214" text-anchor="end" font-size="9" fill="#2196F3" transform="rotate(-45,206.59,214)">Prediction</text>
<rect x="234.14" y="183.49" width="18.36" height="16.51" fill="#81C784" opacity="0.85"><title>Partner Identity: 0.000425</title></rect>
<line x1="243.32" y1="184.32" x2="243.32" y2="182.67" stroke="#333" stroke-width="1"/>
<line x1="241.32" y1="184.32" x2="245.32" y2="184.32" stroke="#333" stroke-width="1"/>
<line x1="241.32" y1="182.67" x2="245.32" y2="182.67" stroke="#333" stroke-width="1"/>
<rect x="252.50" y="183.33" width="18.36" height="16.67" fill="#BDBDBD" opacity="0.85"><title>Control: 0.000429</title></rect>
<line x1="261.68" y1="183.94" x2="261.68" y2="182.72" stroke="#333" stroke-width="1"/>
<line x1="259.68" y1="183.94" x2="263.68" y2="183.94" stroke="#333" stroke-width="1"/>
<line x1="259.68" y1="182.72" x2="263.68" y2="182.72" stroke="#333" stroke-width="1"/>
<text x="252.50" y="214" text-anchor="end" font-size="9" fill="#2196F3" transform="rotate(-45,252.50,214)">Cognitive</text>
<rect x="280.05" y="184.72" width="18.36" height="15.28" fill="#81C784" opacity="0.85"><title>Partner Identity: 0.000393</title></rect>
<line x1="289.23" y1="185.40" x2="289.23" y2="184.09" stroke="#333" stroke-width="1"/>
<line x1="287.23" y1="185.40" x2="291.23" y2="185.40" stroke="#333" stroke-width="1"/>
<line x1="287.23" y1="184.09" x2="291.23" y2="184.09" stroke="#333" stroke-width="1"/>
<rect x="298.41" y="183.31" width="18.36" height="16.69" fill="#BDBDBD" opacity="0.85"><title>Control: 0.000430</title></rect>
<line x1="307.59" y1="183.77" x2="307.59" y2="182.83" stroke="#333" stroke-width="1"/>
<line x1="305.59" y1="183.77" x2="309.59" y2="183.77" stroke="#333" stroke-width="1"/>
<line x1="305.59" y1="182.83" x2="309.59" y2="182.83" stroke="#333" stroke-width="1"/>
<text x="298.41" y="214" text-anchor="end" font-size="9" fill="#2196F3" transform="rotate(-45,298.41,214)">Social</text>
<rect x="325.95" y="182.15" width="18.36" height="17.85" fill="#81C784" opacity="0.85"><title>Partner Identity: 0.000459</title></rect>
<line x1="335.14" y1="182.64" x2="335.14" y2="181.68" stroke="#333" stroke-width="1"/>
<line x1="333.14" y1="182.64" x2="337.14" y2="182.64" stroke="#333" stroke-width="1"/>
<line x1="333.14" y1="181.68" x2="337.14" y2="181.68" stroke="#333" stroke-width="1"/>
<rect x="344.32" y="183.82" width="18.36" height="16.18" fill="#BDBDBD" opacity="0.85"><title>Control: 0.000416</title></rect>
<line x1="353.50" y1="184.43" x2="353.50" y2="183.23" stroke="#333" stroke-width="1"/>
<line x1="351.50" y1="184.43" x2="355.50" y2="184.43" stroke="#333" stroke-width="1"/>
<line x1="351.50" y1="183.23" x2="355.50" y2="183.23" stroke="#333" stroke-width="1"/>
<text x="344.32" y="214" text-anchor="end" font-size="9" fill="#2196F3" transform="rotate(-45,344.32,214)">Attention</text>
<rect x="371.86" y="181.13" width="18.36" height="18.87" fill="#81C784" opacity="0.85"><title>Partner Identity: 0.000486</title></rect>
<line x1="381.05" y1="182.03" x2="381.05" y2="180.17" stroke="#333" stroke-width="1"/>
<line x1="379.05" y1="182.03" x2="383.05" y2="182.03" stroke="#333" stroke-width="1"/>
<line x1="379.05" y1="180.17" x2="383.05" y2="180.17" stroke="#333" stroke-width="1"/>
<rect x="390.23" y="184.24" width="18.36" height="15.76" fill="#BDBDBD" opacity="0.85"><title>Control: 0.000406</title></rect>
<line x1="399.41" y1="184.82" x2="399.41" y2="183.62" stroke="#333" stroke-width="1"/>
<line x1="397.41" y1="184.82" x2="401.41" y2="184.82" stroke="#333" stroke-width="1"/>
<line x1="397.41" y1="183.62" x2="401.41" y2="183.62" stroke="#333" stroke-width="1"/>
<text x="390.23" y="214" text-anchor="end" font-size="9" fill="#4CAF50" transform="rotate(-45,390.23,214)">Embodiment</text>
<rect x="417.77" y="183.11" width="18.36" height="16.89" fill="#81C784" opacity="0.85"><title>Partner Identity: 0.000435</title></rect>
<line x1="426.95" y1="183.80" x2="426.95" y2="182.44" stroke="#333" stroke-width="1"/>
<line x1="424.95" y1="183.80" x2="428.95" y2="183.80" stroke="#333" stroke-width="1"/>
<line x1="424.95" y1="182.44" x2="428.95" y2="182.44" stroke="#333" stroke-width="1"/>
<rect x="436.14" y="183.97" width="18.36" height="16.03" fill="#BDBDBD" opacity="0.85"><title>Control: 0.000413</title></rect>
<line x1="445.32" y1="184.50" x2="445.32" y2="183.47" stroke="#333" stroke-width="1"/>
<line x1="443.32" y1="184.50" x2="447.32" y2="184.50" stroke="#333" stroke-width="1"/>
<line x1="443.32" y1="183.47" x2="447.32" y2="183.47" stroke="#333" stroke-width="1"/>
<text x="436.14" y="214" text-anchor="end" font-size="9" fill="#4CAF50" transform="rotate(-45,436.14,214)">Roles</text>
<rect x="463.68" y="180.62" width="18.36" height="19.38" fill="#81C784" opacity="0.85"><title>Partner Identity: 0.000499</title></rect>
<line x1="472.86" y1="181.28" x2="472.86" y2="179.99" stroke="#333" stroke-width="1"/>
<line x1="470.86" y1="181.28" x2="474.86" y2="181.28" stroke="#333" stroke-width="1"/>
<line x1="470.86" y1="179.99" x2="474.86" y2="179.99" stroke="#333" stroke-width="1"/>
<rect x="482.05" y="186.04" width="18.36" height="13.96" fill="#BDBDBD" opacity="0.85"><title>Control: 0.000359</title></rect>
<line x1="491.23" y1="186.76" x2="491.23" y2="185.29" stroke="#333" stroke-width="1"/>
<line x1="489.23" y1="186.76" x2="493.23" y2="186.76" stroke="#333" stroke-width="1"/>
<line x1="489.23" y1="185.29" x2="493.23" y2="185.29" stroke="#333" stroke-width="1"/>
<text x="482.05" y="214" text-anchor="end" font-size="9" fill="#4CAF50" transform="rotate(-45,482.05,214)">Animacy</text>
<rect x="509.59" y="183.92" width="18.36" height="16.08" fill="#81C784" opacity="0.85"><title>Partner Identity: 0.000414</title></rect>
<line x1="518.77" y1="184.63" x2="518.77" y2="183.20" stroke="#333" stroke-width="1"/>
<line x1="516.77" y1="184.63" x2="520.77" y2="184.63" stroke="#333" stroke-width="1"/>
<line x1="516.77" y1="183.20" x2="520.77" y2="183.20" stroke="#333" stroke-width="1"/>
<rect x="527.95" y="185.14" width="18.36" height="14.86" fill="#BDBDBD" opacity="0.85"><title>Control: 0.000383</title></rect>
<line x1="537.14" y1="185.69" x2="537.14" y2="184.60" stroke="#333" stroke-width="1"/>
<line x1="535.14" y1="185.69" x2="539.14" y2="185.69" stroke="#333" stroke-width="1"/>
<line x1="535.14" y1="184.60" x2="539.14" y2="184.60" stroke="#333" stroke-width="1"/>
<text x="527.95" y="214" text-anchor="end" font-size="9" fill="#FF9800" transform="rotate(-45,527.95,214)">Formality</text>
<rect x="555.50" y="184.43" width="18.36" height="15.57" fill="#81C784" opacity="0.85"><title>Partner Identity: 0.000401</title></rect>
<line x1="564.68" y1="184.98" x2="564.68" y2="183.91" stroke="#333" stroke-width="1"/>
<line x1="562.68" y1="184.98" x2="566.68" y2="184.98" stroke="#333" stroke-width="1"/>
<line x1="562.68" y1="183.91" x2="566.68" y2="183.91" stroke="#333" stroke-width="1"/>
<rect x="573.86" y="184.30" width="18.36" height="15.70" fill="#BDBDBD" opacity="0.85"><title>Control: 0.000404</title></rect>
<line x1="583.05" y1="184.84" x2="583.05" y2="183.76" stroke="#333" stroke-width="1"/>
<line x1="581.05" y1="184.84" x2="585.05" y2="184.84" stroke="#333" stroke-width="1"/>
<line x1="581.05" y1="183.76" x2="585.05" y2="183.76" stroke="#333" stroke-width="1"/>
<text x="573.86" y="214" text-anchor="end" font-size="9" fill="#FF9800" transform="rotate(-45,573.86,214)">Expertise</text>
<rect x="601.41" y="184.38" width="18.36" height="15.62" fill="#81C784" opacity="0.85"><title>Partner Identity: 0.000402</title></rect>
<line x1="610.59" y1="184.98" x2="610.59" y2="183.79" stroke="#333" stroke-width="1"/>
<line x1="608.59" y1="184.98" x2="612.59" y2="184.98" stroke="#333" stroke-width="1"/>
<line x1="608.59" y1="183.79" x2="612.59" y2="183.79" stroke="#333" stroke-width="1"/>
<rect x="619.77" y="185.09" width="18.36" height="14.91" fill="#BDBDBD" opacity="0.85"><title>Control: 0.000384</title></rect>
<line x1="628.95" y1="185.47" x2="628.95" y2="184.69" stroke="#333" stroke-width="1"/>
<line x1="626.95" y1="185.47" x2="630.95" y2="185.47" stroke="#333" stroke-width="1"/>
<line x1="626.95" y1="184.69" x2="630.95" y2="184.69" stroke="#333" stroke-width="1"/>
<text x="619.77" y="214" text-anchor="end" font-size="9" fill="#FF9800" transform="rotate(-45,619.77,214)">Helpfulness</text>
<rect x="647.32" y="179.93" width="18.36" height="20.07" fill="#81C784" opacity="0.85"><title>Partner Identity: 0.000517</title></rect>
<line x1="656.50" y1="180.89" x2="656.50" y2="178.93" stroke="#333" stroke-width="1"/>
<line x1="654.50" y1="180.89" x2="658.50" y2="180.89" stroke="#333" stroke-width="1"/>
<line x1="654.50" y1="178.93" x2="658.50" y2="178.93" stroke="#333" stroke-width="1"/>
<rect x="665.68" y="185.25" width="18.36" height="14.75" fill="#BDBDBD" opacity="0.85"><title>Control: 0.000380</title></rect>
<line x1="674.86" y1="185.98" x2="674.86" y2="184.55" stroke="#333" stroke-width="1"/>
<line x1="672.86" y1="185.98" x2="676.86" y2="185.98" stroke="#333" stroke-width="1"/>
<line x1="672.86" y1="184.55" x2="676.86" y2="184.55" stroke="#333" stroke-width="1"/>
<text x="665.68" y="214" text-anchor="end" font-size="9" fill="#7B1FA2" transform="rotate(-45,665.68,214)">Human (concept)</text>
<rect x="693.23" y="179.36" width="18.36" height="20.64" fill="#81C784" opacity="0.85"><title>Partner Identity: 0.000531</title></rect>
<line x1="702.41" y1="180.12" x2="702.41" y2="178.77" stroke="#333" stroke-width="1"/>
<line x1="700.41" y1="180.12" x2="704.41" y2="180.12" stroke="#333" stroke-width="1"/>
<line x1="700.41" y1="178.77" x2="704.41" y2="178.77" stroke="#333" stroke-width="1"/>
<rect x="711.59" y="184.00" width="18.36" height="16.00" fill="#BDBDBD" opacity="0.85"><title>Control: 0.000412</title></rect>
<line x1="720.77" y1="184.61" x2="720.77" y2="183.40" stroke="#333" stroke-width="1"/>
<line x1="718.77" y1="184.61" x2="722.77" y2="184.61" stroke="#333" stroke-width="1"/>
<line x1="718.77" y1="183.40" x2="722.77" y2="183.40" stroke="#333" stroke-width="1"/>
<text x="711.59" y="214" text-anchor="end" font-size="9" fill="#7B1FA2" transform="rotate(-45,711.59,214)">AI (concept)</text>
<rect x="739.14" y="180.12" width="18.36" height="19.88" fill="#81C784" opacity="0.85"><title>Partner Identity: 0.000512</title></rect>
<line x1="748.32" y1="180.71" x2="748.32" y2="179.45" stroke="#333" stroke-width="1"/>
<line x1="746.32" y1="180.71" x2="750.32" y2="180.71" stroke="#333" stroke-width="1"/>
<line x1="746.32" y1="179.45" x2="750.32" y2="179.45" stroke="#333" stroke-width="1"/>
<rect x="757.50" y="186.13" width="18.36" height="13.87" fill="#BDBDBD" opacity="0.85"><title>Control: 0.000357</title></rect>
<line x1="766.68" y1="186.52" x2="766.68" y2="185.73" stroke="#333" stroke-width="1"/>
<line x1="764.68" y1="186.52" x2="768.68" y2="186.52" stroke="#333" stroke-width="1"/>
<line x1="764.68" y1="185.73" x2="768.68" y2="185.73" stroke="#333" stroke-width="1"/>
<text x="757.50" y="214" text-anchor="end" font-size="9" fill="#9E9E9E" transform="rotate(-45,757.50,214)">Biological</text>
<rect x="785.05" y="182.00" width="18.36" height="18.00" fill="#81C784" opacity="0.85"><title>Partner Identity: 0.000463</title></rect>
<line x1="794.23" y1="182.46" x2="794.23" y2="181.61" stroke="#333" stroke-width="1"/>
<line x1="792.23" y1="182.46" x2="796.23" y2="182.46" stroke="#333" stroke-width="1"/>
<line x1="792.23" y1="181.61" x2="796.23" y2="181.61" stroke="#333" stroke-width="1"/>
<rect x="803.41" y="185.50" width="18.36" height="14.50" fill="#BDBDBD" opacity="0.85"><title>Control: 0.000373</title></rect>
<line x1="812.59" y1="186.06" x2="812.59" y2="184.93" stroke="#333" stroke-width="1"/>
<line x1="810.59" y1="186.06" x2="814.59" y2="186.06" stroke="#333" stroke-width="1"/>
<line x1="810.59" y1="184.93" x2="814.59" y2="184.93" stroke="#333" stroke-width="1"/>
<text x="803.41" y="214" text-anchor="end" font-size="9" fill="#9E9E9E" transform="rotate(-45,803.41,214)">Shapes</text>
<rect x="830.95" y="186.81" width="18.36" height="13.19" fill="#81C784" opacity="0.85"><title>Partner Identity: 0.000339</title></rect>
<line x1="840.14" y1="187.13" x2="840.14" y2="186.43" stroke="#333" stroke-width="1"/>
<line x1="838.14" y1="187.13" x2="842.14" y2="187.13" stroke="#333" stroke-width="1"/>
<line x1="838.14" y1="186.43" x2="842.14" y2="186.43" stroke="#333" stroke-width="1"/>
<rect x="849.32" y="183.12" width="18.36" height="16.88" fill="#BDBDBD" opacity="0.85"><title>Control: 0.000435</title></rect>
<line x1="858.50" y1="183.37" x2="858.50" y2="182.82" stroke="#333" stroke-width="1"/>
<line x1="856.50" y1="183.37" x2="860.50" y2="183.37" stroke="#333" stroke-width="1"/>
<line x1="856.50" y1="182.82" x2="860.50" y2="182.82" stroke="#333" stroke-width="1"/>
<text x="849.32" y="214" text-anchor="end" font-size="9" fill="#00BCD4" transform="rotate(-45,849.32,214)">SysPrompt (talkto human)</text>
<rect x="876.86" y="182.57" width="18.36" height="17.43" fill="#81C784" opacity="0.85"><title>Partner Identity: 0.000449</title></rect>
<line x1="886.05" y1="183.57" x2="886.05" y2="181.47" stroke="#333" stroke-width="1"/>
<line x1="884.05" y1="183.57" x2="888.05" y2="183.57" stroke="#333" stroke-width="1"/>
<line x1="884.05" y1="181.47" x2="888.05" y2="181.47" stroke="#333" stroke-width="1"/>
<rect x="895.23" y="182.03" width="18.36" height="17.97" fill="#BDBDBD" opacity="0.85"><title>Control: 0.000463</title></rect>
<line x1="904.41" y1="182.41" x2="904.41" y2="181.64" stroke="#333" stroke-width="1"/>
<line x1="902.41" y1="182.41" x2="906.41" y2="182.41" stroke="#333" stroke-width="1"/>
<line x1="902.41" y1="181.64" x2="906.41" y2="181.64" stroke="#333" stroke-width="1"/>
<text x="895.23" y="214" text-anchor="end" font-size="9" fill="#00BCD4" transform="rotate(-45,895.23,214)">SysPrompt (talkto AI)</text>
<rect x="922.77" y="185.63" width="18.36" height="14.37" fill="#81C784" opacity="0.85"><title>Partner Identity: 0.000370</title></rect>
<line x1="931.95" y1="186.02" x2="931.95" y2="185.17" stroke="#333" stroke-width="1"/>
<line x1="929.95" y1="186.02" x2="933.95" y2="186.02" stroke="#333" stroke-width="1"/>
<line x1="929.95" y1="185.17" x2="933.95" y2="185.17" stroke="#333" stroke-width="1"/>
<rect x="941.14" y="179.86" width="18.36" height="20.14" fill="#BDBDBD" opacity="0.85"><title>Control: 0.000518</title></rect>
<line x1="950.32" y1="180.16" x2="950.32" y2="179.55" stroke="#333" stroke-width="1"/>
<line x1="948.32" y1="180.16" x2="952.32" y2="180.16" stroke="#333" stroke-width="1"/>
<line x1="948.32" y1="179.55" x2="952.32" y2="179.55" stroke="#333" stroke-width="1"/>
<text x="941.14" y="214" text-anchor="end" font-size="9" fill="#00BCD4" transform="rotate(-45,941.14,214)">SysPrompt (bare human)</text>
<rect x="968.68" y="183.04" width="18.36" height="16.96" fill="#81C784" opacity="0.85"><title>Partner Identity: 0.000437</title></rect>
<line x1="977.86" y1="184.07" x2="977.86" y2="181.82" stroke="#333" stroke-width="1"/>
<line x1="975.86" y1="184.07" x2="979.86" y2="184.07" stroke="#333" stroke-width="1"/>
<line x1="975.86" y1="181.82" x2="979.86" y2="181.82" stroke="#333" stroke-width="1"/>
<rect x="987.05" y="179.89" width="18.36" height="20.11" fill="#BDBDBD" opacity="0.85"><title>Control: 0.000518</title></rect>
<line x1="996.23" y1="180.51" x2="996.23" y2="179.33" stroke="#333" stroke-width="1"/>
<line x1="994.23" y1="180.51" x2="998.23" y2="180.51" stroke="#333" stroke-width="1"/>
<line x1="994.23" y1="179.33" x2="998.23" y2="179.33" stroke="#333" stroke-width="1"/>
<text x="987.05" y="214" text-anchor="end" font-size="9" fill="#00BCD4" transform="rotate(-45,987.05,214)">SysPrompt (bare AI)</text>
<line x1="0" y1="200" x2="1010" y2="200" stroke="#333"/>
<line x1="0" y1="0" x2="0" y2="200" stroke="#333"/>
</g>
<rect x="70.0" y="324" width="10" height="10" fill="#81C784"/>
<text x="84.0" y="332" font-size="8" fill="#333">Partner Identity</text>
<rect x="272.0" y="324" width="10" height="10" fill="#BDBDBD"/>
<text x="286.0" y="332" font-size="8" fill="#333">Control</text>
</svg>