<svg viewBox="0 0 1100 360" xmlns="http://www.w3.org/2000/svg" style="width:100%;max-width:1100px;height:auto;font-family:Arial,sans-serif;">
<rect width="1100" height="360" fill="white"/>
<g transform="translate(70,30)">
<line x1="0" y1="200.0" x2="1010" y2="200.0" stroke="#eee" stroke-width="1"/>
<text x="-8" y="204.0" text-anchor="end" font-size="10" fill="#666">0.00</text>
<line x1="0" y1="160.0" x2="1010" y2="160.0" stroke="#eee" stroke-width="1"/>
<text x="-8" y="164.0" text-anchor="end" font-size="10" fill="#666">1.03</text>
<line x1="0" y1="120.0" x2="1010" y2="120.0" stroke="#eee" stroke-width="1"/>
<text x="-8" y="124.0" text-anchor="end" font-size="10" fill="#666">2.06</text>
<line x1="0" y1="80.0" x2="1010" y2="80.0" stroke="#eee" stroke-width="1"/>
<text x="-8" y="84.0" text-anchor="end" font-size="10" fill="#666">3.09</text>
<line x1="0" y1="40.0" x2="1010" y2="40.0" stroke="#eee" stroke-width="1"/>
<text x="-8" y="44.0" text-anchor="end" font-size="10" fill="#666">4.12</text>
<line x1="0" y1="0.0" x2="1010" y2="0.0" stroke="#eee" stroke-width="1"/>
<text x="-8" y="4.0" text-anchor="end" font-size="10" fill="#666">5.15</text>
<text x="-50" y="100.0" text-anchor="middle" font-size="11" fill="#333" transform="rotate(-90,-50,100.0)">Mean R² (×10⁻³)</text>
<rect x="4.59" y="53.45" width="18.36" height="146.55" fill="#2E7D32" opacity="0.85"><title>Partner Identity: 0.003773</title></rect>
<line x1="13.77" y1="55.62" x2="13.77" y2="51.28" stroke="#333" stroke-width="1"/>
<line x1="11.77" y1="55.62" x2="15.77" y2="55.62" stroke="#333" stroke-width="1"/>
<line x1="11.77" y1="51.28" x2="15.77" y2="51.28" stroke="#333" stroke-width="1"/>
<rect x="22.95" y="195.81" width="18.36" height="4.19" fill="#616161" opacity="0.85"><title>Control: 0.000108</title></rect>
<line x1="32.14" y1="196.05" x2="32.14" y2="195.52" stroke="#333" stroke-width="1"/>
<line x1="30.14" y1="196.05" x2="34.14" y2="196.05" stroke="#333" stroke-width="1"/>
<line x1="30.14" y1="195.52" x2="34.14" y2="195.52" stroke="#333" stroke-width="1"/>
<text x="22.95" y="214" text-anchor="end" font-size="9" fill="#2196F3" transform="rotate(-45,22.95,214)">Phenomenology</text>
<rect x="50.50" y="63.07" width="18.36" height="136.93" fill="#2E7D32" opacity="0.85"><title>Partner Identity: 0.003525</title></rect>
<line x1="59.68" y1="65.32" x2="59.68" y2="60.86" stroke="#333" stroke-width="1"/>
<line x1="57.68" y1="65.32" x2="61.68" y2="65.32" stroke="#333" stroke-width="1"/>
<line x1="57.68" y1="60.86" x2="61.68" y2="60.86" stroke="#333" stroke-width="1"/>
<rect x="68.86" y="195.09" width="18.36" height="4.91" fill="#616161" opacity="0.85"><title>Control: 0.000126</title></rect>
<line x1="78.05" y1="195.51" x2="78.05" y2="194.60" stroke="#333" stroke-width="1"/>
<line x1="76.05" y1="195.51" x2="80.05" y2="195.51" stroke="#333" stroke-width="1"/>
<line x1="76.05" y1="194.60" x2="80.05" y2="194.60" stroke="#333" stroke-width="1"/>
<text x="68.86" y="214" text-anchor="end" font-size="9" fill="#2196F3" transform="rotate(-45,68.86,214)">Emotions</text>
<rect x="96.41" y="63.58" width="18.36" height="136.42" fill="#2E7D32" opacity="0.85"><title>Partner Identity: 0.003512</title></rect>
<line x1="105.59" y1="66.33" x2="105.59" y2="61.15" stroke="#333" stroke-width="1"/>
<line x1="103.59" y1="66.33" x2="107.59" y2="66.33" stroke="#333" stroke-width="1"/>
<line x1="103.59" y1="61.15" x2="107.59" y2="61.15" stroke="#333" stroke-width="1"/>
<rect x="114.77" y="195.05" width="18.36" height="4.95" fill="#616161" opacity="0.85"><title>Control: 0.000127</title></rect>
<line x1="123.95" y1="195.47" x2="123.95" y2="194.56" stroke="#333" stroke-width="1"/>
<line x1="121.95" y1="195.47" x2="125.95" y2="195.47" stroke="#333" stroke-width="1"/>
<line x1="121.95" y1="194.56" x2="125.95" y2="194.56" stroke="#333" stroke-width="1"/>
<text x="114.77" y="214" text-anchor="end" font-size="9" fill="#2196F3" transform="rotate(-45,114.77,214)">Agency</text>
<rect x="142.32" y="65.39" width="18.36" height="134.61" fill="#2E7D32" opacity="0.85"><title>Partner Identity: 0.003465</title></rect>
<line x1="151.50" y1="67.73" x2="151.50" y2="63.12" stroke="#333" stroke-width="1"/>
<line x1="149.50" y1="67.73" x2="153.50" y2="67.73" stroke="#333" stroke-width="1"/>
<line x1="149.50" y1="63.12" x2="153.50" y2="63.12" stroke="#333" stroke-width="1"/>
<rect x="160.68" y="195.87" width="18.36" height="4.13" fill="#616161" opacity="0.85"><title>Control: 0.000106</title></rect>
<line x1="169.86" y1="196.18" x2="169.86" y2="195.48" stroke="#333" stroke-width="1"/>
<line x1="167.86" y1="196.18" x2="171.86" y2="196.18" stroke="#333" stroke-width="1"/>
<line x1="167.86" y1="195.48" x2="171.86" y2="195.48" stroke="#333" stroke-width="1"/>
<text x="160.68" y="214" text-anchor="end" font-size="9" fill="#2196F3" transform="rotate(-45,160.68,214)">Intentions</text>
<rect x="188.23" y="63.33" width="18.36" height="136.67" fill="#2E7D32" opacity="0.85"><title>Partner Identity: 0.003518</title></rect>
<line x1="197.41" y1="66.40" x2="197.41" y2="60.80" stroke="#333" stroke-width="1"/>
<line x1="195.41" y1="66.40" x2="199.41" y2="66.40" stroke="#333" stroke-width="1"/>
<line x1="195.41" y1="60.80" x2="199.41" y2="60.80" stroke="#333" stroke-width="1"/>
<rect x="206.59" y="193.78" width="18.36" height="6.22" fill="#616161" opacity="0.85"><title>Control: 0.000160</title></rect>
<line x1="215.77" y1="194.42" x2="215.77" y2="193.06" stroke="#333" stroke-width="1"/>
<line x1="213.77" y1="194.42" x2="217.77" y2="194.42" stroke="#333" stroke-width="1"/>
<line x1="213.77" y1="193.06" x2="217.77" y2="193.06" stroke="#333" stroke-width="1"/>
<text x="206.59" y="214" text-anchor="end" font-size="9" fill="#2196F3" transform="rotate(-45,206.59,214)">Prediction</text>
<rect x="234.14" y="63.74" width="18.36" height="136.26" fill="#2E7D32" opacity="0.85"><title>Partner Identity: 0.003508</title></rect>
<line x1="243.32" y1="67.41" x2="243.32" y2="59.72" stroke="#333" stroke-width="1"/>
<line x1="241.32" y1="67.41" x2="245.32" y2="67.41" stroke="#333" stroke-width="1"/>
<line x1="241.32" y1="59.72" x2="245.32" y2="59.72" stroke="#333" stroke-width="1"/>
<rect x="252.50" y="194.30" width="18.36" height="5.70" fill="#616161" opacity="0.85"><title>Control: 0.000147</title></rect>
<line x1="261.68" y1="194.72" x2="261.68" y2="193.83" stroke="#333" stroke-width="1"/>
<line x1="259.68" y1="194.72" x2="263.68" y2="194.72" stroke="#333" stroke-width="1"/>
<line x1="259.68" y1="193.83" x2="263.68" y2="193.83" stroke="#333" stroke-width="1"/>
<text x="252.50" y="214" text-anchor="end" font-size="9" fill="#2196F3" transform="rotate(-45,252.50,214)">Cognitive</text>
<rect x="280.05" y="80.84" width="18.36" height="119.16" fill="#2E7D32" opacity="0.85"><title>Partner Identity: 0.003068</title></rect>
<line x1="289.23" y1="83.60" x2="289.23" y2="78.31" stroke="#333" stroke-width="1"/>
<line x1="287.23" y1="83.60" x2="291.23" y2="83.60" stroke="#333" stroke-width="1"/>
<line x1="287.23" y1="78.31" x2="291.23" y2="78.31" stroke="#333" stroke-width="1"/>
<rect x="298.41" y="193.51" width="18.36" height="6.49" fill="#616161" opacity="0.85"><title>Control: 0.000167</title></rect>
<line x1="307.59" y1="194.07" x2="307.59" y2="192.82" stroke="#333" stroke-width="1"/>
<line x1="305.59" y1="194.07" x2="309.59" y2="194.07" stroke="#333" stroke-width="1"/>
<line x1="305.59" y1="192.82" x2="309.59" y2="192.82" stroke="#333" stroke-width="1"/>
<text x="298.41" y="214" text-anchor="end" font-size="9" fill="#2196F3" transform="rotate(-45,298.41,214)">Social</text>
<rect x="325.95" y="52.60" width="18.36" height="147.40" fill="#2E7D32" opacity="0.85"><title>Partner Identity: 0.003794</title></rect>
<line x1="335.14" y1="56.04" x2="335.14" y2="49.34" stroke="#333" stroke-width="1"/>
<line x1="333.14" y1="56.04" x2="337.14" y2="56.04" stroke="#333" stroke-width="1"/>
<line x1="333.14" y1="49.34" x2="337.14" y2="49.34" stroke="#333" stroke-width="1"/>
<rect x="344.32" y="195.47" width="18.36" height="4.53" fill="#616161" opacity="0.85"><title>Control: 0.000117</title></rect>
<line x1="353.50" y1="195.86" x2="353.50" y2="195.01" stroke="#333" stroke-width="1"/>
<line x1="351.50" y1="195.86" x2="355.50" y2="195.86" stroke="#333" stroke-width="1"/>
<line x1="351.50" y1="195.01" x2="355.50" y2="195.01" stroke="#333" stroke-width="1"/>
<text x="344.32" y="214" text-anchor="end" font-size="9" fill="#2196F3" transform="rotate(-45,344.32,214)">Attention</text>
<rect x="371.86" y="48.99" width="18.36" height="151.01" fill="#2E7D32" opacity="0.85"><title>Partner Identity: 0.003887</title></rect>
<line x1="381.05" y1="52.01" x2="381.05" y2="46.35" stroke="#333" stroke-width="1"/>
<line x1="379.05" y1="52.01" x2="383.05" y2="52.01" stroke="#333" stroke-width="1"/>
<line x1="379.05" y1="46.35" x2="383.05" y2="46.35" stroke="#333" stroke-width="1"/>
<rect x="390.23" y="195.37" width="18.36" height="4.63" fill="#616161" opacity="0.85"><title>Control: 0.000119</title></rect>
<line x1="399.41" y1="195.79" x2="399.41" y2="194.92" stroke="#333" stroke-width="1"/>
<line x1="397.41" y1="195.79" x2="401.41" y2="195.79" stroke="#333" stroke-width="1"/>
<line x1="397.41" y1="194.92" x2="401.41" y2="194.92" stroke="#333" stroke-width="1"/>
<text x="390.23" y="214" text-anchor="end" font-size="9" fill="#4CAF50" transform="rotate(-45,390.23,214)">Embodiment</text>
<rect x="417.77" y="59.93" width="18.36" height="140.07" fill="#2E7D32" opacity="0.85"><title>Partner Identity: 0.003606</title></rect>
<line x1="426.95" y1="62.67" x2="426.95" y2="56.97" stroke="#333" stroke-width="1"/>
<line x1="424.95" y1="62.67" x2="428.95" y2="62.67" stroke="#333" stroke-width="1"/>
<line x1="424.95" y1="56.97" x2="428.95" y2="56.97" stroke="#333" stroke-width="1"/>
<rect x="436.14" y="195.35" width="18.36" height="4.65" fill="#616161" opacity="0.85"><title>Control: 0.000120</title></rect>
<line x1="445.32" y1="195.75" x2="445.32" y2="194.87" stroke="#333" stroke-width="1"/>
<line x1="443.32" y1="195.75" x2="447.32" y2="195.75" stroke="#333" stroke-width="1"/>
<line x1="443.32" y1="194.87" x2="447.32" y2="194.87" stroke="#333" stroke-width="1"/>
<text x="436.14" y="214" text-anchor="end" font-size="9" fill="#4CAF50" transform="rotate(-45,436.14,214)">Roles</text>
<rect x="463.68" y="44.68" width="18.36" height="155.32" fill="#2E7D32" opacity="0.85"><title>Partner Identity: 0.003998</title></rect>
<line x1="472.86" y1="47.00" x2="472.86" y2="42.64" stroke="#333" stroke-width="1"/>
<line x1="470.86" y1="47.00" x2="474.86" y2="47.00" stroke="#333" stroke-width="1"/>
<line x1="470.86" y1="42.64" x2="474.86" y2="42.64" stroke="#333" stroke-width="1"/>
<rect x="482.05" y="196.46" width="18.36" height="3.54" fill="#616161" opacity="0.85"><title>Control: 0.000091</title></rect>
<line x1="491.23" y1="196.80" x2="491.23" y2="196.05" stroke="#333" stroke-width="1"/>
<line x1="489.23" y1="196.80" x2="493.23" y2="196.80" stroke="#333" stroke-width="1"/>
<line x1="489.23" y1="196.05" x2="493.23" y2="196.05" stroke="#333" stroke-width="1"/>
<text x="482.05" y="214" text-anchor="end" font-size="9" fill="#4CAF50" transform="rotate(-45,482.05,214)">Animacy</text>
<rect x="509.59" y="71.19" width="18.36" height="128.81" fill="#2E7D32" opacity="0.85"><title>Partner Identity: 0.003316</title></rect>
<line x1="518.77" y1="75.13" x2="518.77" y2="67.45" stroke="#333" stroke-width="1"/>
<line x1="516.77" y1="75.13" x2="520.77" y2="75.13" stroke="#333" stroke-width="1"/>
<line x1="516.77" y1="67.45" x2="520.77" y2="67.45" stroke="#333" stroke-width="1"/>
<rect x="527.95" y="193.42" width="18.36" height="6.58" fill="#616161" opacity="0.85"><title>Control: 0.000169</title></rect>
<line x1="537.14" y1="194.15" x2="537.14" y2="192.71" stroke="#333" stroke-width="1"/>
<line x1="535.14" y1="194.15" x2="539.14" y2="194.15" stroke="#333" stroke-width="1"/>
<line x1="535.14" y1="192.71" x2="539.14" y2="192.71" stroke="#333" stroke-width="1"/>
<text x="527.95" y="214" text-anchor="end" font-size="9" fill="#FF9800" transform="rotate(-45,527.95,214)">Formality</text>
<rect x="555.50" y="67.53" width="18.36" height="132.47" fill="#2E7D32" opacity="0.85"><title>Partner Identity: 0.003410</title></rect>
<line x1="564.68" y1="71.66" x2="564.68" y2="63.06" stroke="#333" stroke-width="1"/>
<line x1="562.68" y1="71.66" x2="566.68" y2="71.66" stroke="#333" stroke-width="1"/>
<line x1="562.68" y1="63.06" x2="566.68" y2="63.06" stroke="#333" stroke-width="1"/>
<rect x="573.86" y="193.89" width="18.36" height="6.11" fill="#616161" opacity="0.85"><title>Control: 0.000157</title></rect>
<line x1="583.05" y1="194.32" x2="583.05" y2="193.41" stroke="#333" stroke-width="1"/>
<line x1="581.05" y1="194.32" x2="585.05" y2="194.32" stroke="#333" stroke-width="1"/>
<line x1="581.05" y1="193.41" x2="585.05" y2="193.41" stroke="#333" stroke-width="1"/>
<text x="573.86" y="214" text-anchor="end" font-size="9" fill="#FF9800" transform="rotate(-45,573.86,214)">Expertise</text>
<rect x="601.41" y="74.17" width="18.36" height="125.83" fill="#2E7D32" opacity="0.85"><title>Partner Identity: 0.003239</title></rect>
<line x1="610.59" y1="77.44" x2="610.59" y2="71.14" stroke="#333" stroke-width="1"/>
<line x1="608.59" y1="77.44" x2="612.59" y2="77.44" stroke="#333" stroke-width="1"/>
<line x1="608.59" y1="71.14" x2="612.59" y2="71.14" stroke="#333" stroke-width="1"/>
<rect x="619.77" y="193.44" width="18.36" height="6.56" fill="#616161" opacity="0.85"><title>Control: 0.000169</title></rect>
<line x1="628.95" y1="193.95" x2="628.95" y2="192.82" stroke="#333" stroke-width="1"/>
<line x1="626.95" y1="193.95" x2="630.95" y2="193.95" stroke="#333" stroke-width="1"/>
<line x1="626.95" y1="192.82" x2="630.95" y2="192.82" stroke="#333" stroke-width="1"/>
<text x="619.77" y="214" text-anchor="end" font-size="9" fill="#FF9800" transform="rotate(-45,619.77,214)">Helpfulness</text>
<rect x="647.32" y="59.76" width="18.36" height="140.24" fill="#2E7D32" opacity="0.85"><title>Partner Identity: 0.003610</title></rect>
<line x1="656.50" y1="62.33" x2="656.50" y2="57.48" stroke="#333" stroke-width="1"/>
<line x1="654.50" y1="62.33" x2="658.50" y2="62.33" stroke="#333" stroke-width="1"/>
<line x1="654.50" y1="57.48" x2="658.50" y2="57.48" stroke="#333" stroke-width="1"/>
<rect x="665.68" y="197.78" width="18.36" height="2.22" fill="#616161" opacity="0.85"><title>Control: 0.000057</title></rect>
<line x1="674.86" y1="197.96" x2="674.86" y2="197.44" stroke="#333" stroke-width="1"/>
<line x1="672.86" y1="197.96" x2="676.86" y2="197.96" stroke="#333" stroke-width="1"/>
<line x1="672.86" y1="197.44" x2="676.86" y2="197.44" stroke="#333" stroke-width="1"/>
<text x="665.68" y="214" text-anchor="end" font-size="9" fill="#7B1FA2" transform="rotate(-45,665.68,214)">Human (concept)</text>
<rect x="693.23" y="28.76" width="18.36" height="171.24" fill="#2E7D32" opacity="0.85"><title>Partner Identity: 0.004408</title></rect>
<line x1="702.41" y1="31.13" x2="702.41" y2="26.84" stroke="#333" stroke-width="1"/>
<line x1="700.41" y1="31.13" x2="704.41" y2="31.13" stroke="#333" stroke-width="1"/>
<line x1="700.41" y1="26.84" x2="704.41" y2="26.84" stroke="#333" stroke-width="1"/>
<rect x="711.59" y="196.20" width="18.36" height="3.80" fill="#616161" opacity="0.85"><title>Control: 0.000098</title></rect>
<line x1="720.77" y1="196.68" x2="720.77" y2="195.61" stroke="#333" stroke-width="1"/>
<line x1="718.77" y1="196.68" x2="722.77" y2="196.68" stroke="#333" stroke-width="1"/>
<line x1="718.77" y1="195.61" x2="722.77" y2="195.61" stroke="#333" stroke-width="1"/>
<text x="711.59" y="214" text-anchor="end" font-size="9" fill="#7B1FA2" transform="rotate(-45,711.59,214)">AI (concept)</text>
<rect x="739.14" y="47.55" width="18.36" height="152.45" fill="#2E7D32" opacity="0.85"><title>Partner Identity: 0.003924</title></rect>
<line x1="748.32" y1="50.23" x2="748.32" y2="45.15" stroke="#333" stroke-width="1"/>
<line x1="746.32" y1="50.23" x2="750.32" y2="50.23" stroke="#333" stroke-width="1"/>
<line x1="746.32" y1="45.15" x2="750.32" y2="45.15" stroke="#333" stroke-width="1"/>
<rect x="757.50" y="196.25" width="18.36" height="3.75" fill="#616161" opacity="0.85"><title>Control: 0.000097</title></rect>
<line x1="766.68" y1="196.48" x2="766.68" y2="195.97" stroke="#333" stroke-width="1"/>
<line x1="764.68" y1="196.48" x2="768.68" y2="196.48" stroke="#333" stroke-width="1"/>
<line x1="764.68" y1="195.97" x2="768.68" y2="195.97" stroke="#333" stroke-width="1"/>
<text x="757.50" y="214" text-anchor="end" font-size="9" fill="#9E9E9E" transform="rotate(-45,757.50,214)">Biological</text>
<rect x="785.05" y="47.15" width="18.36" height="152.85" fill="#2E7D32" opacity="0.85"><title>Partner Identity: 0.003935</title></rect>
<line x1="794.23" y1="49.99" x2="794.23" y2="44.63" stroke="#333" stroke-width="1"/>
<line x1="792.23" y1="49.99" x2="796.23" y2="49.99" stroke="#333" stroke-width="1"/>
<line x1="792.23" y1="44.63" x2="796.23" y2="44.63" stroke="#333" stroke-width="1"/>
<rect x="803.41" y="196.41" width="18.36" height="3.59" fill="#616161" opacity="0.85"><title>Control: 0.000092</title></rect>
<line x1="812.59" y1="196.62" x2="812.59" y2="196.18" stroke="#333" stroke-width="1"/>
<line x1="810.59" y1="196.62" x2="814.59" y2="196.62" stroke="#333" stroke-width="1"/>
<line x1="810.59" y1="196.18" x2="814.59" y2="196.18" stroke="#333" stroke-width="1"/>
<text x="803.41" y="214" text-anchor="end" font-size="9" fill="#9E9E9E" transform="rotate(-45,803.41,214)">Shapes</text>
<rect x="830.95" y="103.13" width="18.36" height="96.87" fill="#2E7D32" opacity="0.85"><title>Partner Identity: 0.002494</title></rect>
<line x1="840.14" y1="104.70" x2="840.14" y2="101.19" stroke="#333" stroke-width="1"/>
<line x1="838.14" y1="104.70" x2="842.14" y2="104.70" stroke="#333" stroke-width="1"/>
<line x1="838.14" y1="101.19" x2="842.14" y2="101.19" stroke="#333" stroke-width="1"/>
<rect x="849.32" y="195.72" width="18.36" height="4.28" fill="#616161" opacity="0.85"><title>Control: 0.000110</title></rect>
<line x1="858.50" y1="195.85" x2="858.50" y2="195.59" stroke="#333" stroke-width="1"/>
<line x1="856.50" y1="195.85" x2="860.50" y2="195.85" stroke="#333" stroke-width="1"/>
<line x1="856.50" y1="195.59" x2="860.50" y2="195.59" stroke="#333" stroke-width="1"/>
<text x="849.32" y="214" text-anchor="end" font-size="9" fill="#00BCD4" transform="rotate(-45,849.32,214)">SysPrompt (talkto human)</text>
<rect x="876.86" y="61.56" width="18.36" height="138.44" fill="#2E7D32" opacity="0.85"><title>Partner Identity: 0.003564</title></rect>
<line x1="886.05" y1="73.47" x2="886.05" y2="47.51" stroke="#333" stroke-width="1"/>
<line x1="884.05" y1="73.47" x2="888.05" y2="73.47" stroke="#333" stroke-width="1"/>
<line x1="884.05" y1="47.51" x2="888.05" y2="47.51" stroke="#333" stroke-width="1"/>
<rect x="895.23" y="195.00" width="18.36" height="5.00" fill="#616161" opacity="0.85"><title>Control: 0.000129</title></rect>
<line x1="904.41" y1="195.23" x2="904.41" y2="194.74" stroke="#333" stroke-width="1"/>
<line x1="902.41" y1="195.23" x2="906.41" y2="195.23" stroke="#333" stroke-width="1"/>
<line x1="902.41" y1="194.74" x2="906.41" y2="194.74" stroke="#333" stroke-width="1"/>
<text x="895.23" y="214" text-anchor="end" font-size="9" fill="#00BCD4" transform="rotate(-45,895.23,214)">SysPrompt (talkto AI)</text>
<rect x="922.77" y="102.71" width="18.36" height="97.29" fill="#2E7D32" opacity="0.85"><title>Partner Identity: 0.002504</title></rect>
<line x1="931.95" y1="104.63" x2="931.95" y2="100.74" stroke="#333" stroke-width="1"/>
<line x1="929.95" y1="104.63" x2="933.95" y2="104.63" stroke="#333" stroke-width="1"/>
<line x1="929.95" y1="100.74" x2="933.95" y2="100.74" stroke="#333" stroke-width="1"/>
<rect x="941.14" y="195.46" width="18.36" height="4.54" fill="#616161" opacity="0.85"><title>Control: 0.000117</title></rect>
<line x1="950.32" y1="195.66" x2="950.32" y2="195.24" stroke="#333" stroke-width="1"/>
<line x1="948.32" y1="195.66" x2="952.32" y2="195.66" stroke="#333" stroke-width="1"/>
<line x1="948.32" y1="195.24" x2="952.32" y2="195.24" stroke="#333" stroke-width="1"/>
<text x="941.14" y="214" text-anchor="end" font-size="9" fill="#00BCD4" transform="rotate(-45,941.14,214)">SysPrompt (bare human)</text>
<rect x="968.68" y="58.47" width="18.36" height="141.53" fill="#2E7D32" opacity="0.85"><title>Partner Identity: 0.003643</title></rect>
<line x1="977.86" y1="70.64" x2="977.86" y2="43.15" stroke="#333" stroke-width="1"/>
<line x1="975.86" y1="70.64" x2="979.86" y2="70.64" stroke="#333" stroke-width="1"/>
<line x1="975.86" y1="43.15" x2="979.86" y2="43.15" stroke="#333" stroke-width="1"/>
<rect x="987.05" y="195.68" width="18.36" height="4.32" fill="#616161" opacity="0.85"><title>Control: 0.000111</title></rect>
<line x1="996.23" y1="195.95" x2="996.23" y2="195.36" stroke="#333" stroke-width="1"/>
<line x1="994.23" y1="195.95" x2="998.23" y2="195.95" stroke="#333" stroke-width="1"/>
<line x1="994.23" y1="195.36" x2="998.23" y2="195.36" stroke="#333" stroke-width="1"/>
<text x="987.05" y="214" text-anchor="end" font-size="9" fill="#00BCD4" transform="rotate(-45,987.05,214)">SysPrompt (bare AI)</text>
<line x1="0" y1="200" x2="1010" y2="200" stroke="#333"/>
<line x1="0" y1="0" x2="0" y2="200" stroke="#333"/>
</g>
<rect x="70.0" y="324" width="10" height="10" fill="#2E7D32"/>
<text x="84.0" y="332" font-size="8" fill="#333">Partner Identity</text>
<rect x="272.0" y="324" width="10" height="10" fill="#616161"/>
<text x="286.0" y="332" font-size="8" fill="#333">Control</text>
</svg>