<svg viewBox="0 0 800 340" xmlns="http://www.w3.org/2000/svg" style="width:100%;max-width:800px;height:auto;font-family:Arial,sans-serif;">
<rect width="800" height="340" fill="white"/>

<g transform="translate(70,30)">
<line x1="0" y1="190.0" x2="710" y2="190.0" stroke="#eee" stroke-width="1"/>
<text x="-8" y="194.0" text-anchor="end" font-size="10" fill="#666">0.00</text>
<line x1="0" y1="152.0" x2="710" y2="152.0" stroke="#eee" stroke-width="1"/>
<text x="-8" y="156.0" text-anchor="end" font-size="10" fill="#666">0.94</text>
<line x1="0" y1="114.0" x2="710" y2="114.0" stroke="#eee" stroke-width="1"/>
<text x="-8" y="118.0" text-anchor="end" font-size="10" fill="#666">1.88</text>
<line x1="0" y1="76.0" x2="710" y2="76.0" stroke="#eee" stroke-width="1"/>
<text x="-8" y="80.0" text-anchor="end" font-size="10" fill="#666">2.82</text>
<line x1="0" y1="38.0" x2="710" y2="38.0" stroke="#eee" stroke-width="1"/>
<text x="-8" y="42.0" text-anchor="end" font-size="10" fill="#666">3.76</text>
<line x1="0" y1="0.0" x2="710" y2="0.0" stroke="#eee" stroke-width="1"/>
<text x="-8" y="4.0" text-anchor="end" font-size="10" fill="#666">4.70</text>
<text x="-50" y="95.0" text-anchor="middle" font-size="11" fill="#333" transform="rotate(-90,-50,95.0)">Mean R² (×10⁻³)</text>
<line x1="83.52941176470588" y1="0" x2="83.52941176470588" y2="190" stroke="#ddd" stroke-width="1" stroke-dasharray="4,3"/>
<rect x="6.26" y="176.77" width="14.62" height="13.23" fill="#81C784" opacity="0.85"><title>Partner Identity: 0.327 ×10⁻³</title></rect>
<line x1="13.57" y1="178.64" x2="13.57" y2="174.21" stroke="#333" stroke-width="1"/>
<line x1="11.57" y1="178.64" x2="15.57" y2="178.64" stroke="#333" stroke-width="1"/>
<line x1="11.57" y1="174.21" x2="15.57" y2="174.21" stroke="#333" stroke-width="1"/>
<rect x="22.88" y="181.66" width="14.62" height="8.34" fill="#BDBDBD" opacity="0.85"><title>Control: 0.207 ×10⁻³</title></rect>
<line x1="30.19" y1="182.75" x2="30.19" y2="180.55" stroke="#333" stroke-width="1"/>
<line x1="28.19" y1="182.75" x2="32.19" y2="182.75" stroke="#333" stroke-width="1"/>
<line x1="28.19" y1="180.55" x2="32.19" y2="180.55" stroke="#333" stroke-width="1"/>
<text x="22.9" y="204" text-anchor="end" font-size="9" fill="#9E9E9E" transform="rotate(-45,22.9,204)">Biological</text>
<rect x="48.03" y="177.72" width="14.62" height="12.28" fill="#81C784" opacity="0.85"><title>Partner Identity: 0.304 ×10⁻³</title></rect>
<line x1="55.34" y1="183.30" x2="55.34" y2="171.74" stroke="#333" stroke-width="1"/>
<line x1="53.34" y1="183.30" x2="57.34" y2="183.30" stroke="#333" stroke-width="1"/>
<line x1="53.34" y1="171.74" x2="57.34" y2="171.74" stroke="#333" stroke-width="1"/>
<rect x="64.65" y="181.67" width="14.62" height="8.33" fill="#BDBDBD" opacity="0.85"><title>Control: 0.206 ×10⁻³</title></rect>
<line x1="71.96" y1="183.57" x2="71.96" y2="179.47" stroke="#333" stroke-width="1"/>
<line x1="69.96" y1="183.57" x2="73.96" y2="183.57" stroke="#333" stroke-width="1"/>
<line x1="69.96" y1="179.47" x2="73.96" y2="179.47" stroke="#333" stroke-width="1"/>
<text x="64.6" y="204" text-anchor="end" font-size="9" fill="#9E9E9E" transform="rotate(-45,64.6,204)">Shapes</text>
<rect x="89.79" y="153.33" width="14.62" height="36.67" fill="#81C784" opacity="0.85"><title>Partner Identity: 0.908 ×10⁻³</title></rect>
<line x1="97.10" y1="161.03" x2="97.10" y2="147.37" stroke="#333" stroke-width="1"/>
<line x1="95.10" y1="161.03" x2="99.10" y2="161.03" stroke="#333" stroke-width="1"/>
<line x1="95.10" y1="147.37" x2="99.10" y2="147.37" stroke="#333" stroke-width="1"/>
<rect x="106.41" y="180.77" width="14.62" height="9.23" fill="#BDBDBD" opacity="0.85"><title>Control: 0.228 ×10⁻³</title></rect>
<line x1="113.72" y1="182.34" x2="113.72" y2="179.11" stroke="#333" stroke-width="1"/>
<line x1="111.72" y1="182.34" x2="115.72" y2="182.34" stroke="#333" stroke-width="1"/>
<line x1="111.72" y1="179.11" x2="115.72" y2="179.11" stroke="#333" stroke-width="1"/>
<text x="106.4" y="204" text-anchor="end" font-size="9" fill="#2196F3" transform="rotate(-45,106.4,204)">Attention</text>
<rect x="131.56" y="161.35" width="14.62" height="28.65" fill="#81C784" opacity="0.85"><title>Partner Identity: 0.709 ×10⁻³</title></rect>
<line x1="138.87" y1="169.45" x2="138.87" y2="146.96" stroke="#333" stroke-width="1"/>
<line x1="136.87" y1="169.45" x2="140.87" y2="169.45" stroke="#333" stroke-width="1"/>
<line x1="136.87" y1="146.96" x2="140.87" y2="146.96" stroke="#333" stroke-width="1"/>
<rect x="148.18" y="183.22" width="14.62" height="6.78" fill="#BDBDBD" opacity="0.85"><title>Control: 0.168 ×10⁻³</title></rect>
<line x1="155.49" y1="184.19" x2="155.49" y2="181.11" stroke="#333" stroke-width="1"/>
<line x1="153.49" y1="184.19" x2="157.49" y2="184.19" stroke="#333" stroke-width="1"/>
<line x1="153.49" y1="181.11" x2="157.49" y2="181.11" stroke="#333" stroke-width="1"/>
<text x="148.2" y="204" text-anchor="end" font-size="9" fill="#2196F3" transform="rotate(-45,148.2,204)">Social</text>
<rect x="173.32" y="155.17" width="14.62" height="34.83" fill="#81C784" opacity="0.85"><title>Partner Identity: 0.862 ×10⁻³</title></rect>
<line x1="180.63" y1="164.08" x2="180.63" y2="149.26" stroke="#333" stroke-width="1"/>
<line x1="178.63" y1="164.08" x2="182.63" y2="164.08" stroke="#333" stroke-width="1"/>
<line x1="178.63" y1="149.26" x2="182.63" y2="149.26" stroke="#333" stroke-width="1"/>
<rect x="189.94" y="179.77" width="14.62" height="10.23" fill="#BDBDBD" opacity="0.85"><title>Control: 0.253 ×10⁻³</title></rect>
<line x1="197.25" y1="181.91" x2="197.25" y2="178.36" stroke="#333" stroke-width="1"/>
<line x1="195.25" y1="181.91" x2="199.25" y2="181.91" stroke="#333" stroke-width="1"/>
<line x1="195.25" y1="178.36" x2="199.25" y2="178.36" stroke="#333" stroke-width="1"/>
<text x="189.9" y="204" text-anchor="end" font-size="9" fill="#2196F3" transform="rotate(-45,189.9,204)">Cognitive</text>
<rect x="215.09" y="161.05" width="14.62" height="28.95" fill="#81C784" opacity="0.85"><title>Partner Identity: 0.717 ×10⁻³</title></rect>
<line x1="222.40" y1="166.58" x2="222.40" y2="153.87" stroke="#333" stroke-width="1"/>
<line x1="220.40" y1="166.58" x2="224.40" y2="166.58" stroke="#333" stroke-width="1"/>
<line x1="220.40" y1="153.87" x2="224.40" y2="153.87" stroke="#333" stroke-width="1"/>
<rect x="231.71" y="182.81" width="14.62" height="7.19" fill="#BDBDBD" opacity="0.85"><title>Control: 0.178 ×10⁻³</title></rect>
<line x1="239.01" y1="183.87" x2="239.01" y2="181.10" stroke="#333" stroke-width="1"/>
<line x1="237.01" y1="183.87" x2="241.01" y2="183.87" stroke="#333" stroke-width="1"/>
<line x1="237.01" y1="181.10" x2="241.01" y2="181.10" stroke="#333" stroke-width="1"/>
<text x="231.7" y="204" text-anchor="end" font-size="9" fill="#2196F3" transform="rotate(-45,231.7,204)">Prediction</text>
<rect x="256.85" y="162.76" width="14.62" height="27.24" fill="#81C784" opacity="0.85"><title>Partner Identity: 0.675 ×10⁻³</title></rect>
<line x1="264.16" y1="171.46" x2="264.16" y2="153.10" stroke="#333" stroke-width="1"/>
<line x1="262.16" y1="171.46" x2="266.16" y2="171.46" stroke="#333" stroke-width="1"/>
<line x1="262.16" y1="153.10" x2="266.16" y2="153.10" stroke="#333" stroke-width="1"/>
<rect x="273.47" y="183.19" width="14.62" height="6.81" fill="#BDBDBD" opacity="0.85"><title>Control: 0.169 ×10⁻³</title></rect>
<line x1="280.78" y1="183.94" x2="280.78" y2="181.92" stroke="#333" stroke-width="1"/>
<line x1="278.78" y1="183.94" x2="282.78" y2="183.94" stroke="#333" stroke-width="1"/>
<line x1="278.78" y1="181.92" x2="282.78" y2="181.92" stroke="#333" stroke-width="1"/>
<text x="273.5" y="204" text-anchor="end" font-size="9" fill="#2196F3" transform="rotate(-45,273.5,204)">Intentions</text>
<rect x="298.62" y="168.20" width="14.62" height="21.80" fill="#81C784" opacity="0.85"><title>Partner Identity: 0.540 ×10⁻³</title></rect>
<line x1="305.93" y1="174.18" x2="305.93" y2="159.57" stroke="#333" stroke-width="1"/>
<line x1="303.93" y1="174.18" x2="307.93" y2="174.18" stroke="#333" stroke-width="1"/>
<line x1="303.93" y1="159.57" x2="307.93" y2="159.57" stroke="#333" stroke-width="1"/>
<rect x="315.24" y="184.23" width="14.62" height="5.77" fill="#BDBDBD" opacity="0.85"><title>Control: 0.143 ×10⁻³</title></rect>
<line x1="322.54" y1="185.16" x2="322.54" y2="182.36" stroke="#333" stroke-width="1"/>
<line x1="320.54" y1="185.16" x2="324.54" y2="185.16" stroke="#333" stroke-width="1"/>
<line x1="320.54" y1="182.36" x2="324.54" y2="182.36" stroke="#333" stroke-width="1"/>
<text x="315.2" y="204" text-anchor="end" font-size="9" fill="#2196F3" transform="rotate(-45,315.2,204)">Agency</text>
<rect x="340.38" y="166.53" width="14.62" height="23.47" fill="#81C784" opacity="0.85"><title>Partner Identity: 0.581 ×10⁻³</title></rect>
<line x1="347.69" y1="171.11" x2="347.69" y2="161.88" stroke="#333" stroke-width="1"/>
<line x1="345.69" y1="171.11" x2="349.69" y2="171.11" stroke="#333" stroke-width="1"/>
<line x1="345.69" y1="161.88" x2="349.69" y2="161.88" stroke="#333" stroke-width="1"/>
<rect x="357.00" y="183.35" width="14.62" height="6.65" fill="#BDBDBD" opacity="0.85"><title>Control: 0.165 ×10⁻³</title></rect>
<line x1="364.31" y1="184.14" x2="364.31" y2="181.90" stroke="#333" stroke-width="1"/>
<line x1="362.31" y1="184.14" x2="366.31" y2="184.14" stroke="#333" stroke-width="1"/>
<line x1="362.31" y1="181.90" x2="366.31" y2="181.90" stroke="#333" stroke-width="1"/>
<text x="357.0" y="204" text-anchor="end" font-size="9" fill="#2196F3" transform="rotate(-45,357.0,204)">Roles</text>
<rect x="382.15" y="172.13" width="14.62" height="17.87" fill="#81C784" opacity="0.85"><title>Partner Identity: 0.443 ×10⁻³</title></rect>
<line x1="389.46" y1="175.78" x2="389.46" y2="168.30" stroke="#333" stroke-width="1"/>
<line x1="387.46" y1="175.78" x2="391.46" y2="175.78" stroke="#333" stroke-width="1"/>
<line x1="387.46" y1="168.30" x2="391.46" y2="168.30" stroke="#333" stroke-width="1"/>
<rect x="398.76" y="181.42" width="14.62" height="8.58" fill="#BDBDBD" opacity="0.85"><title>Control: 0.212 ×10⁻³</title></rect>
<line x1="406.07" y1="182.74" x2="406.07" y2="180.25" stroke="#333" stroke-width="1"/>
<line x1="404.07" y1="182.74" x2="408.07" y2="182.74" stroke="#333" stroke-width="1"/>
<line x1="404.07" y1="180.25" x2="408.07" y2="180.25" stroke="#333" stroke-width="1"/>
<text x="398.8" y="204" text-anchor="end" font-size="9" fill="#2196F3" transform="rotate(-45,398.8,204)">Phenomenology</text>
<rect x="423.91" y="171.80" width="14.62" height="18.20" fill="#81C784" opacity="0.85"><title>Partner Identity: 0.451 ×10⁻³</title></rect>
<line x1="431.22" y1="175.25" x2="431.22" y2="167.95" stroke="#333" stroke-width="1"/>
<line x1="429.22" y1="175.25" x2="433.22" y2="175.25" stroke="#333" stroke-width="1"/>
<line x1="429.22" y1="167.95" x2="433.22" y2="167.95" stroke="#333" stroke-width="1"/>
<rect x="440.53" y="183.10" width="14.62" height="6.90" fill="#BDBDBD" opacity="0.85"><title>Control: 0.171 ×10⁻³</title></rect>
<line x1="447.84" y1="183.91" x2="447.84" y2="182.00" stroke="#333" stroke-width="1"/>
<line x1="445.84" y1="183.91" x2="449.84" y2="183.91" stroke="#333" stroke-width="1"/>
<line x1="445.84" y1="182.00" x2="449.84" y2="182.00" stroke="#333" stroke-width="1"/>
<text x="440.5" y="204" text-anchor="end" font-size="9" fill="#2196F3" transform="rotate(-45,440.5,204)">Emotions</text>
<rect x="465.68" y="177.56" width="14.62" height="12.44" fill="#81C784" opacity="0.85"><title>Partner Identity: 0.308 ×10⁻³</title></rect>
<line x1="472.99" y1="179.49" x2="472.99" y2="174.96" stroke="#333" stroke-width="1"/>
<line x1="470.99" y1="179.49" x2="474.99" y2="179.49" stroke="#333" stroke-width="1"/>
<line x1="470.99" y1="174.96" x2="474.99" y2="174.96" stroke="#333" stroke-width="1"/>
<rect x="482.29" y="181.66" width="14.62" height="8.34" fill="#BDBDBD" opacity="0.85"><title>Control: 0.207 ×10⁻³</title></rect>
<line x1="489.60" y1="182.93" x2="489.60" y2="180.43" stroke="#333" stroke-width="1"/>
<line x1="487.60" y1="182.93" x2="491.60" y2="182.93" stroke="#333" stroke-width="1"/>
<line x1="487.60" y1="180.43" x2="491.60" y2="180.43" stroke="#333" stroke-width="1"/>
<text x="482.3" y="204" text-anchor="end" font-size="9" fill="#2196F3" transform="rotate(-45,482.3,204)">Embodiment</text>
<rect x="507.44" y="172.85" width="14.62" height="17.15" fill="#81C784" opacity="0.85"><title>Partner Identity: 0.425 ×10⁻³</title></rect>
<line x1="514.75" y1="176.86" x2="514.75" y2="169.37" stroke="#333" stroke-width="1"/>
<line x1="512.75" y1="176.86" x2="516.75" y2="176.86" stroke="#333" stroke-width="1"/>
<line x1="512.75" y1="169.37" x2="516.75" y2="169.37" stroke="#333" stroke-width="1"/>
<rect x="524.06" y="180.09" width="14.62" height="9.91" fill="#BDBDBD" opacity="0.85"><title>Control: 0.245 ×10⁻³</title></rect>
<line x1="531.37" y1="181.27" x2="531.37" y2="179.10" stroke="#333" stroke-width="1"/>
<line x1="529.37" y1="181.27" x2="533.37" y2="181.27" stroke="#333" stroke-width="1"/>
<line x1="529.37" y1="179.10" x2="533.37" y2="179.10" stroke="#333" stroke-width="1"/>
<text x="524.1" y="204" text-anchor="end" font-size="9" fill="#2196F3" transform="rotate(-45,524.1,204)">Animacy</text>
<rect x="549.21" y="171.62" width="14.62" height="18.38" fill="#81C784" opacity="0.85"><title>Partner Identity: 0.455 ×10⁻³</title></rect>
<line x1="556.51" y1="174.94" x2="556.51" y2="168.12" stroke="#333" stroke-width="1"/>
<line x1="554.51" y1="174.94" x2="558.51" y2="174.94" stroke="#333" stroke-width="1"/>
<line x1="554.51" y1="168.12" x2="558.51" y2="168.12" stroke="#333" stroke-width="1"/>
<rect x="565.82" y="178.57" width="14.62" height="11.43" fill="#BDBDBD" opacity="0.85"><title>Control: 0.283 ×10⁻³</title></rect>
<line x1="573.13" y1="179.55" x2="573.13" y2="177.64" stroke="#333" stroke-width="1"/>
<line x1="571.13" y1="179.55" x2="575.13" y2="179.55" stroke="#333" stroke-width="1"/>
<line x1="571.13" y1="177.64" x2="575.13" y2="177.64" stroke="#333" stroke-width="1"/>
<text x="565.8" y="204" text-anchor="end" font-size="9" fill="#FF9800" transform="rotate(-45,565.8,204)">Expertise</text>
<rect x="590.97" y="177.32" width="14.62" height="12.68" fill="#81C784" opacity="0.85"><title>Partner Identity: 0.314 ×10⁻³</title></rect>
<line x1="598.28" y1="182.22" x2="598.28" y2="172.49" stroke="#333" stroke-width="1"/>
<line x1="596.28" y1="182.22" x2="600.28" y2="182.22" stroke="#333" stroke-width="1"/>
<line x1="596.28" y1="172.49" x2="600.28" y2="172.49" stroke="#333" stroke-width="1"/>
<rect x="607.59" y="179.77" width="14.62" height="10.23" fill="#BDBDBD" opacity="0.85"><title>Control: 0.253 ×10⁻³</title></rect>
<line x1="614.90" y1="182.15" x2="614.90" y2="177.77" stroke="#333" stroke-width="1"/>
<line x1="612.90" y1="182.15" x2="616.90" y2="182.15" stroke="#333" stroke-width="1"/>
<line x1="612.90" y1="177.77" x2="616.90" y2="177.77" stroke="#333" stroke-width="1"/>
<text x="607.6" y="204" text-anchor="end" font-size="9" fill="#FF9800" transform="rotate(-45,607.6,204)">Formality</text>
<rect x="632.74" y="178.02" width="14.62" height="11.98" fill="#81C784" opacity="0.85"><title>Partner Identity: 0.297 ×10⁻³</title></rect>
<line x1="640.04" y1="183.48" x2="640.04" y2="171.69" stroke="#333" stroke-width="1"/>
<line x1="638.04" y1="183.48" x2="642.04" y2="183.48" stroke="#333" stroke-width="1"/>
<line x1="638.04" y1="171.69" x2="642.04" y2="171.69" stroke="#333" stroke-width="1"/>
<rect x="649.35" y="179.64" width="14.62" height="10.36" fill="#BDBDBD" opacity="0.85"><title>Control: 0.257 ×10⁻³</title></rect>
<line x1="656.66" y1="182.53" x2="656.66" y2="178.12" stroke="#333" stroke-width="1"/>
<line x1="654.66" y1="182.53" x2="658.66" y2="182.53" stroke="#333" stroke-width="1"/>
<line x1="654.66" y1="178.12" x2="658.66" y2="178.12" stroke="#333" stroke-width="1"/>
<text x="649.4" y="204" text-anchor="end" font-size="9" fill="#FF9800" transform="rotate(-45,649.4,204)">Helpfulness</text>
<rect x="674.50" y="153.96" width="14.62" height="36.04" fill="#81C784" opacity="0.85"><title>Partner Identity: 0.893 ×10⁻³</title></rect>
<line x1="681.81" y1="161.52" x2="681.81" y2="142.64" stroke="#333" stroke-width="1"/>
<line x1="679.81" y1="161.52" x2="683.81" y2="161.52" stroke="#333" stroke-width="1"/>
<line x1="679.81" y1="142.64" x2="683.81" y2="142.64" stroke="#333" stroke-width="1"/>
<rect x="691.12" y="182.08" width="14.62" height="7.92" fill="#BDBDBD" opacity="0.85"><title>Control: 0.196 ×10⁻³</title></rect>
<line x1="698.43" y1="182.98" x2="698.43" y2="181.11" stroke="#333" stroke-width="1"/>
<line x1="696.43" y1="182.98" x2="700.43" y2="182.98" stroke="#333" stroke-width="1"/>
<line x1="696.43" y1="181.11" x2="700.43" y2="181.11" stroke="#333" stroke-width="1"/>
<text x="691.1" y="204" text-anchor="end" font-size="9" fill="#00BCD4" transform="rotate(-45,691.1,204)">SysPrompt</text>
<line x1="0" y1="190" x2="710" y2="190" stroke="#333"/>
<line x1="0" y1="0" x2="0" y2="190" stroke="#333"/>
</g>
<rect x="70" y="320" width="10" height="10" fill="#81C784"/>
<text x="84" y="328" font-size="9" fill="#333">Partner Identity</text>
<rect x="210" y="320" width="10" height="10" fill="#BDBDBD"/>
<text x="224" y="328" font-size="9" fill="#333">Control</text>
</svg>