<svg viewBox="0 0 800 340" xmlns="http://www.w3.org/2000/svg" style="width:100%;max-width:800px;height:auto;font-family:Arial,sans-serif;">
<rect width="800" height="340" fill="white"/>

<g transform="translate(70,30)">
<line x1="0" y1="190.0" x2="710" y2="190.0" stroke="#eee" stroke-width="1"/>
<text x="-8" y="194.0" text-anchor="end" font-size="10" fill="#666">0.00</text>
<line x1="0" y1="152.0" x2="710" y2="152.0" stroke="#eee" stroke-width="1"/>
<text x="-8" y="156.0" text-anchor="end" font-size="10" fill="#666">0.94</text>
<line x1="0" y1="114.0" x2="710" y2="114.0" stroke="#eee" stroke-width="1"/>
<text x="-8" y="118.0" text-anchor="end" font-size="10" fill="#666">1.88</text>
<line x1="0" y1="76.0" x2="710" y2="76.0" stroke="#eee" stroke-width="1"/>
<text x="-8" y="80.0" text-anchor="end" font-size="10" fill="#666">2.82</text>
<line x1="0" y1="38.0" x2="710" y2="38.0" stroke="#eee" stroke-width="1"/>
<text x="-8" y="42.0" text-anchor="end" font-size="10" fill="#666">3.76</text>
<line x1="0" y1="0.0" x2="710" y2="0.0" stroke="#eee" stroke-width="1"/>
<text x="-8" y="4.0" text-anchor="end" font-size="10" fill="#666">4.70</text>
<text x="-50" y="95.0" text-anchor="middle" font-size="11" fill="#333" transform="rotate(-90,-50,95.0)">Mean R² (×10⁻³)</text>
<line x1="83.52941176470588" y1="0" x2="83.52941176470588" y2="190" stroke="#ddd" stroke-width="1" stroke-dasharray="4,3"/>
<rect x="6.26" y="148.05" width="14.62" height="41.95" fill="#2E7D32" opacity="0.85"><title>Partner Identity: 1.039 ×10⁻³</title></rect>
<line x1="13.57" y1="154.64" x2="13.57" y2="141.53" stroke="#333" stroke-width="1"/>
<line x1="11.57" y1="154.64" x2="15.57" y2="154.64" stroke="#333" stroke-width="1"/>
<line x1="11.57" y1="141.53" x2="15.57" y2="141.53" stroke="#333" stroke-width="1"/>
<rect x="22.88" y="181.07" width="14.62" height="8.93" fill="#616161" opacity="0.85"><title>Control: 0.221 ×10⁻³</title></rect>
<line x1="30.19" y1="182.04" x2="30.19" y2="180.18" stroke="#333" stroke-width="1"/>
<line x1="28.19" y1="182.04" x2="32.19" y2="182.04" stroke="#333" stroke-width="1"/>
<line x1="28.19" y1="180.18" x2="32.19" y2="180.18" stroke="#333" stroke-width="1"/>
<text x="22.9" y="204" text-anchor="end" font-size="9" fill="#9E9E9E" transform="rotate(-45,22.9,204)">Biological</text>
<rect x="48.03" y="180.11" width="14.62" height="9.89" fill="#2E7D32" opacity="0.85"><title>Partner Identity: 0.245 ×10⁻³</title></rect>
<line x1="55.34" y1="184.41" x2="55.34" y2="173.56" stroke="#333" stroke-width="1"/>
<line x1="53.34" y1="184.41" x2="57.34" y2="184.41" stroke="#333" stroke-width="1"/>
<line x1="53.34" y1="173.56" x2="57.34" y2="173.56" stroke="#333" stroke-width="1"/>
<rect x="64.65" y="182.31" width="14.62" height="7.69" fill="#616161" opacity="0.85"><title>Control: 0.190 ×10⁻³</title></rect>
<line x1="71.96" y1="184.86" x2="71.96" y2="180.05" stroke="#333" stroke-width="1"/>
<line x1="69.96" y1="184.86" x2="73.96" y2="184.86" stroke="#333" stroke-width="1"/>
<line x1="69.96" y1="180.05" x2="73.96" y2="180.05" stroke="#333" stroke-width="1"/>
<text x="64.6" y="204" text-anchor="end" font-size="9" fill="#9E9E9E" transform="rotate(-45,64.6,204)">Shapes</text>
<rect x="89.79" y="47.04" width="14.62" height="142.96" fill="#2E7D32" opacity="0.85"><title>Partner Identity: 3.540 ×10⁻³</title></rect>
<line x1="97.10" y1="73.07" x2="97.10" y2="32.61" stroke="#333" stroke-width="1"/>
<line x1="95.10" y1="73.07" x2="99.10" y2="73.07" stroke="#333" stroke-width="1"/>
<line x1="95.10" y1="32.61" x2="99.10" y2="32.61" stroke="#333" stroke-width="1"/>
<rect x="106.41" y="178.88" width="14.62" height="11.12" fill="#616161" opacity="0.85"><title>Control: 0.275 ×10⁻³</title></rect>
<line x1="113.72" y1="180.74" x2="113.72" y2="177.61" stroke="#333" stroke-width="1"/>
<line x1="111.72" y1="180.74" x2="115.72" y2="180.74" stroke="#333" stroke-width="1"/>
<line x1="111.72" y1="177.61" x2="115.72" y2="177.61" stroke="#333" stroke-width="1"/>
<text x="106.4" y="204" text-anchor="end" font-size="9" fill="#2196F3" transform="rotate(-45,106.4,204)">Attention</text>
<rect x="131.56" y="54.07" width="14.62" height="135.93" fill="#2E7D32" opacity="0.85"><title>Partner Identity: 3.366 ×10⁻³</title></rect>
<line x1="138.87" y1="81.21" x2="138.87" y2="31.07" stroke="#333" stroke-width="1"/>
<line x1="136.87" y1="81.21" x2="140.87" y2="81.21" stroke="#333" stroke-width="1"/>
<line x1="136.87" y1="31.07" x2="140.87" y2="31.07" stroke="#333" stroke-width="1"/>
<rect x="148.18" y="178.23" width="14.62" height="11.77" fill="#616161" opacity="0.85"><title>Control: 0.291 ×10⁻³</title></rect>
<line x1="155.49" y1="180.92" x2="155.49" y2="176.70" stroke="#333" stroke-width="1"/>
<line x1="153.49" y1="180.92" x2="157.49" y2="180.92" stroke="#333" stroke-width="1"/>
<line x1="153.49" y1="176.70" x2="157.49" y2="176.70" stroke="#333" stroke-width="1"/>
<text x="148.2" y="204" text-anchor="end" font-size="9" fill="#2196F3" transform="rotate(-45,148.2,204)">Social</text>
<rect x="173.32" y="63.12" width="14.62" height="126.88" fill="#2E7D32" opacity="0.85"><title>Partner Identity: 3.142 ×10⁻³</title></rect>
<line x1="180.63" y1="83.31" x2="180.63" y2="51.51" stroke="#333" stroke-width="1"/>
<line x1="178.63" y1="83.31" x2="182.63" y2="83.31" stroke="#333" stroke-width="1"/>
<line x1="178.63" y1="51.51" x2="182.63" y2="51.51" stroke="#333" stroke-width="1"/>
<rect x="189.94" y="178.84" width="14.62" height="11.16" fill="#616161" opacity="0.85"><title>Control: 0.276 ×10⁻³</title></rect>
<line x1="197.25" y1="181.15" x2="197.25" y2="176.23" stroke="#333" stroke-width="1"/>
<line x1="195.25" y1="181.15" x2="199.25" y2="181.15" stroke="#333" stroke-width="1"/>
<line x1="195.25" y1="176.23" x2="199.25" y2="176.23" stroke="#333" stroke-width="1"/>
<text x="189.9" y="204" text-anchor="end" font-size="9" fill="#2196F3" transform="rotate(-45,189.9,204)">Cognitive</text>
<rect x="215.09" y="69.37" width="14.62" height="120.63" fill="#2E7D32" opacity="0.85"><title>Partner Identity: 2.987 ×10⁻³</title></rect>
<line x1="222.40" y1="92.30" x2="222.40" y2="52.30" stroke="#333" stroke-width="1"/>
<line x1="220.40" y1="92.30" x2="224.40" y2="92.30" stroke="#333" stroke-width="1"/>
<line x1="220.40" y1="52.30" x2="224.40" y2="52.30" stroke="#333" stroke-width="1"/>
<rect x="231.71" y="177.37" width="14.62" height="12.63" fill="#616161" opacity="0.85"><title>Control: 0.313 ×10⁻³</title></rect>
<line x1="239.01" y1="179.58" x2="239.01" y2="175.96" stroke="#333" stroke-width="1"/>
<line x1="237.01" y1="179.58" x2="241.01" y2="179.58" stroke="#333" stroke-width="1"/>
<line x1="237.01" y1="175.96" x2="241.01" y2="175.96" stroke="#333" stroke-width="1"/>
<text x="231.7" y="204" text-anchor="end" font-size="9" fill="#2196F3" transform="rotate(-45,231.7,204)">Prediction</text>
<rect x="256.85" y="75.34" width="14.62" height="114.66" fill="#2E7D32" opacity="0.85"><title>Partner Identity: 2.839 ×10⁻³</title></rect>
<line x1="264.16" y1="100.41" x2="264.16" y2="59.97" stroke="#333" stroke-width="1"/>
<line x1="262.16" y1="100.41" x2="266.16" y2="100.41" stroke="#333" stroke-width="1"/>
<line x1="262.16" y1="59.97" x2="266.16" y2="59.97" stroke="#333" stroke-width="1"/>
<rect x="273.47" y="174.55" width="14.62" height="15.45" fill="#616161" opacity="0.85"><title>Control: 0.383 ×10⁻³</title></rect>
<line x1="280.78" y1="176.94" x2="280.78" y2="173.23" stroke="#333" stroke-width="1"/>
<line x1="278.78" y1="176.94" x2="282.78" y2="176.94" stroke="#333" stroke-width="1"/>
<line x1="278.78" y1="173.23" x2="282.78" y2="173.23" stroke="#333" stroke-width="1"/>
<text x="273.5" y="204" text-anchor="end" font-size="9" fill="#2196F3" transform="rotate(-45,273.5,204)">Intentions</text>
<rect x="298.62" y="85.93" width="14.62" height="104.07" fill="#2E7D32" opacity="0.85"><title>Partner Identity: 2.577 ×10⁻³</title></rect>
<line x1="305.93" y1="107.41" x2="305.93" y2="69.42" stroke="#333" stroke-width="1"/>
<line x1="303.93" y1="107.41" x2="307.93" y2="107.41" stroke="#333" stroke-width="1"/>
<line x1="303.93" y1="69.42" x2="307.93" y2="69.42" stroke="#333" stroke-width="1"/>
<rect x="315.24" y="174.71" width="14.62" height="15.29" fill="#616161" opacity="0.85"><title>Control: 0.379 ×10⁻³</title></rect>
<line x1="322.54" y1="177.07" x2="322.54" y2="173.52" stroke="#333" stroke-width="1"/>
<line x1="320.54" y1="177.07" x2="324.54" y2="177.07" stroke="#333" stroke-width="1"/>
<line x1="320.54" y1="173.52" x2="324.54" y2="173.52" stroke="#333" stroke-width="1"/>
<text x="315.2" y="204" text-anchor="end" font-size="9" fill="#2196F3" transform="rotate(-45,315.2,204)">Agency</text>
<rect x="340.38" y="88.19" width="14.62" height="101.81" fill="#2E7D32" opacity="0.85"><title>Partner Identity: 2.521 ×10⁻³</title></rect>
<line x1="347.69" y1="110.71" x2="347.69" y2="70.82" stroke="#333" stroke-width="1"/>
<line x1="345.69" y1="110.71" x2="349.69" y2="110.71" stroke="#333" stroke-width="1"/>
<line x1="345.69" y1="70.82" x2="349.69" y2="70.82" stroke="#333" stroke-width="1"/>
<rect x="357.00" y="179.62" width="14.62" height="10.38" fill="#616161" opacity="0.85"><title>Control: 0.257 ×10⁻³</title></rect>
<line x1="364.31" y1="181.69" x2="364.31" y2="177.17" stroke="#333" stroke-width="1"/>
<line x1="362.31" y1="181.69" x2="366.31" y2="181.69" stroke="#333" stroke-width="1"/>
<line x1="362.31" y1="177.17" x2="366.31" y2="177.17" stroke="#333" stroke-width="1"/>
<text x="357.0" y="204" text-anchor="end" font-size="9" fill="#2196F3" transform="rotate(-45,357.0,204)">Roles</text>
<rect x="382.15" y="104.88" width="14.62" height="85.12" fill="#2E7D32" opacity="0.85"><title>Partner Identity: 2.108 ×10⁻³</title></rect>
<line x1="389.46" y1="120.69" x2="389.46" y2="95.82" stroke="#333" stroke-width="1"/>
<line x1="387.46" y1="120.69" x2="391.46" y2="120.69" stroke="#333" stroke-width="1"/>
<line x1="387.46" y1="95.82" x2="391.46" y2="95.82" stroke="#333" stroke-width="1"/>
<rect x="398.76" y="179.22" width="14.62" height="10.78" fill="#616161" opacity="0.85"><title>Control: 0.267 ×10⁻³</title></rect>
<line x1="406.07" y1="181.11" x2="406.07" y2="177.83" stroke="#333" stroke-width="1"/>
<line x1="404.07" y1="181.11" x2="408.07" y2="181.11" stroke="#333" stroke-width="1"/>
<line x1="404.07" y1="177.83" x2="408.07" y2="177.83" stroke="#333" stroke-width="1"/>
<text x="398.8" y="204" text-anchor="end" font-size="9" fill="#2196F3" transform="rotate(-45,398.8,204)">Phenomenology</text>
<rect x="423.91" y="109.29" width="14.62" height="80.71" fill="#2E7D32" opacity="0.85"><title>Partner Identity: 1.999 ×10⁻³</title></rect>
<line x1="431.22" y1="123.27" x2="431.22" y2="98.39" stroke="#333" stroke-width="1"/>
<line x1="429.22" y1="123.27" x2="433.22" y2="123.27" stroke="#333" stroke-width="1"/>
<line x1="429.22" y1="98.39" x2="433.22" y2="98.39" stroke="#333" stroke-width="1"/>
<rect x="440.53" y="176.28" width="14.62" height="13.72" fill="#616161" opacity="0.85"><title>Control: 0.340 ×10⁻³</title></rect>
<line x1="447.84" y1="178.09" x2="447.84" y2="175.14" stroke="#333" stroke-width="1"/>
<line x1="445.84" y1="178.09" x2="449.84" y2="178.09" stroke="#333" stroke-width="1"/>
<line x1="445.84" y1="175.14" x2="449.84" y2="175.14" stroke="#333" stroke-width="1"/>
<text x="440.5" y="204" text-anchor="end" font-size="9" fill="#2196F3" transform="rotate(-45,440.5,204)">Emotions</text>
<rect x="465.68" y="118.49" width="14.62" height="71.51" fill="#2E7D32" opacity="0.85"><title>Partner Identity: 1.771 ×10⁻³</title></rect>
<line x1="472.99" y1="129.94" x2="472.99" y2="109.74" stroke="#333" stroke-width="1"/>
<line x1="470.99" y1="129.94" x2="474.99" y2="129.94" stroke="#333" stroke-width="1"/>
<line x1="470.99" y1="109.74" x2="474.99" y2="109.74" stroke="#333" stroke-width="1"/>
<rect x="482.29" y="178.91" width="14.62" height="11.09" fill="#616161" opacity="0.85"><title>Control: 0.275 ×10⁻³</title></rect>
<line x1="489.60" y1="180.56" x2="489.60" y2="177.53" stroke="#333" stroke-width="1"/>
<line x1="487.60" y1="180.56" x2="491.60" y2="180.56" stroke="#333" stroke-width="1"/>
<line x1="487.60" y1="177.53" x2="491.60" y2="177.53" stroke="#333" stroke-width="1"/>
<text x="482.3" y="204" text-anchor="end" font-size="9" fill="#2196F3" transform="rotate(-45,482.3,204)">Embodiment</text>
<rect x="507.44" y="133.41" width="14.62" height="56.59" fill="#2E7D32" opacity="0.85"><title>Partner Identity: 1.401 ×10⁻³</title></rect>
<line x1="514.75" y1="145.41" x2="514.75" y2="125.06" stroke="#333" stroke-width="1"/>
<line x1="512.75" y1="145.41" x2="516.75" y2="145.41" stroke="#333" stroke-width="1"/>
<line x1="512.75" y1="125.06" x2="516.75" y2="125.06" stroke="#333" stroke-width="1"/>
<rect x="524.06" y="182.64" width="14.62" height="7.36" fill="#616161" opacity="0.85"><title>Control: 0.182 ×10⁻³</title></rect>
<line x1="531.37" y1="183.84" x2="531.37" y2="181.17" stroke="#333" stroke-width="1"/>
<line x1="529.37" y1="183.84" x2="533.37" y2="183.84" stroke="#333" stroke-width="1"/>
<line x1="529.37" y1="181.17" x2="533.37" y2="181.17" stroke="#333" stroke-width="1"/>
<text x="524.1" y="204" text-anchor="end" font-size="9" fill="#2196F3" transform="rotate(-45,524.1,204)">Animacy</text>
<rect x="549.21" y="144.24" width="14.62" height="45.76" fill="#2E7D32" opacity="0.85"><title>Partner Identity: 1.133 ×10⁻³</title></rect>
<line x1="556.51" y1="153.48" x2="556.51" y2="137.35" stroke="#333" stroke-width="1"/>
<line x1="554.51" y1="153.48" x2="558.51" y2="153.48" stroke="#333" stroke-width="1"/>
<line x1="554.51" y1="137.35" x2="558.51" y2="137.35" stroke="#333" stroke-width="1"/>
<rect x="565.82" y="181.38" width="14.62" height="8.62" fill="#616161" opacity="0.85"><title>Control: 0.214 ×10⁻³</title></rect>
<line x1="573.13" y1="182.40" x2="573.13" y2="180.05" stroke="#333" stroke-width="1"/>
<line x1="571.13" y1="182.40" x2="575.13" y2="182.40" stroke="#333" stroke-width="1"/>
<line x1="571.13" y1="180.05" x2="575.13" y2="180.05" stroke="#333" stroke-width="1"/>
<text x="565.8" y="204" text-anchor="end" font-size="9" fill="#FF9800" transform="rotate(-45,565.8,204)">Expertise</text>
<rect x="590.97" y="176.69" width="14.62" height="13.31" fill="#2E7D32" opacity="0.85"><title>Partner Identity: 0.330 ×10⁻³</title></rect>
<line x1="598.28" y1="181.23" x2="598.28" y2="169.35" stroke="#333" stroke-width="1"/>
<line x1="596.28" y1="181.23" x2="600.28" y2="181.23" stroke="#333" stroke-width="1"/>
<line x1="596.28" y1="169.35" x2="600.28" y2="169.35" stroke="#333" stroke-width="1"/>
<rect x="607.59" y="180.44" width="14.62" height="9.56" fill="#616161" opacity="0.85"><title>Control: 0.237 ×10⁻³</title></rect>
<line x1="614.90" y1="183.05" x2="614.90" y2="178.35" stroke="#333" stroke-width="1"/>
<line x1="612.90" y1="183.05" x2="616.90" y2="183.05" stroke="#333" stroke-width="1"/>
<line x1="612.90" y1="178.35" x2="616.90" y2="178.35" stroke="#333" stroke-width="1"/>
<text x="607.6" y="204" text-anchor="end" font-size="9" fill="#FF9800" transform="rotate(-45,607.6,204)">Formality</text>
<rect x="632.74" y="179.10" width="14.62" height="10.90" fill="#2E7D32" opacity="0.85"><title>Partner Identity: 0.270 ×10⁻³</title></rect>
<line x1="640.04" y1="183.45" x2="640.04" y2="169.82" stroke="#333" stroke-width="1"/>
<line x1="638.04" y1="183.45" x2="642.04" y2="183.45" stroke="#333" stroke-width="1"/>
<line x1="638.04" y1="169.82" x2="642.04" y2="169.82" stroke="#333" stroke-width="1"/>
<rect x="649.35" y="181.81" width="14.62" height="8.19" fill="#616161" opacity="0.85"><title>Control: 0.203 ×10⁻³</title></rect>
<line x1="656.66" y1="184.10" x2="656.66" y2="178.54" stroke="#333" stroke-width="1"/>
<line x1="654.66" y1="184.10" x2="658.66" y2="184.10" stroke="#333" stroke-width="1"/>
<line x1="654.66" y1="178.54" x2="658.66" y2="178.54" stroke="#333" stroke-width="1"/>
<text x="649.4" y="204" text-anchor="end" font-size="9" fill="#FF9800" transform="rotate(-45,649.4,204)">Helpfulness</text>
<rect x="674.50" y="71.30" width="14.62" height="118.70" fill="#2E7D32" opacity="0.85"><title>Partner Identity: 2.939 ×10⁻³</title></rect>
<line x1="681.81" y1="102.24" x2="681.81" y2="25.50" stroke="#333" stroke-width="1"/>
<line x1="679.81" y1="102.24" x2="683.81" y2="102.24" stroke="#333" stroke-width="1"/>
<line x1="679.81" y1="25.50" x2="683.81" y2="25.50" stroke="#333" stroke-width="1"/>
<rect x="691.12" y="186.92" width="14.62" height="3.08" fill="#616161" opacity="0.85"><title>Control: 0.076 ×10⁻³</title></rect>
<line x1="698.43" y1="187.10" x2="698.43" y2="186.40" stroke="#333" stroke-width="1"/>
<line x1="696.43" y1="187.10" x2="700.43" y2="187.10" stroke="#333" stroke-width="1"/>
<line x1="696.43" y1="186.40" x2="700.43" y2="186.40" stroke="#333" stroke-width="1"/>
<text x="691.1" y="204" text-anchor="end" font-size="9" fill="#00BCD4" transform="rotate(-45,691.1,204)">SysPrompt</text>
<line x1="0" y1="190" x2="710" y2="190" stroke="#333"/>
<line x1="0" y1="0" x2="0" y2="190" stroke="#333"/>
</g>
<rect x="70" y="320" width="10" height="10" fill="#2E7D32"/>
<text x="84" y="328" font-size="9" fill="#333">Partner Identity</text>
<rect x="210" y="320" width="10" height="10" fill="#616161"/>
<text x="224" y="328" font-size="9" fill="#333">Control</text>
</svg>