<svg viewBox="0 0 800 320" xmlns="http://www.w3.org/2000/svg" style="width:100%;max-width:800px;height:auto;font-family:Arial,sans-serif;">
<rect width="800" height="320" fill="white"/>

<g transform="translate(70,30)">
<line x1="0" y1="180.0" x2="710" y2="180.0" stroke="#eee" stroke-width="1"/>
<text x="-8" y="184.0" text-anchor="end" font-size="10" fill="#666">0.00</text>
<line x1="0" y1="144.0" x2="710" y2="144.0" stroke="#eee" stroke-width="1"/>
<text x="-8" y="148.0" text-anchor="end" font-size="10" fill="#666">0.94</text>
<line x1="0" y1="108.0" x2="710" y2="108.0" stroke="#eee" stroke-width="1"/>
<text x="-8" y="112.0" text-anchor="end" font-size="10" fill="#666">1.88</text>
<line x1="0" y1="72.0" x2="710" y2="72.0" stroke="#eee" stroke-width="1"/>
<text x="-8" y="76.0" text-anchor="end" font-size="10" fill="#666">2.82</text>
<line x1="0" y1="36.0" x2="710" y2="36.0" stroke="#eee" stroke-width="1"/>
<text x="-8" y="40.0" text-anchor="end" font-size="10" fill="#666">3.76</text>
<line x1="0" y1="0.0" x2="710" y2="0.0" stroke="#eee" stroke-width="1"/>
<text x="-8" y="4.0" text-anchor="end" font-size="10" fill="#666">4.70</text>
<text x="-50" y="90.0" text-anchor="middle" font-size="11" fill="#333" transform="rotate(-90,-50,90.0)">Mean R² (×10⁻³)</text>
<rect x="8.19" y="145.26" width="19.12" height="34.74" fill="#81C784" opacity="0.85"><title>Partner Identity — Attention: 0.908 ×10⁻³</title></rect>
<line x1="17.75" y1="152.56" x2="17.75" y2="139.62" stroke="#333" stroke-width="1"/>
<line x1="15.75" y1="152.56" x2="19.75" y2="152.56" stroke="#333" stroke-width="1"/>
<line x1="15.75" y1="139.62" x2="19.75" y2="139.62" stroke="#333" stroke-width="1"/>
<rect x="29.31" y="171.26" width="19.12" height="8.74" fill="#BDBDBD" opacity="0.85"><title>Control — Attention: 0.228 ×10⁻³</title></rect>
<line x1="38.87" y1="172.74" x2="38.87" y2="169.68" stroke="#333" stroke-width="1"/>
<line x1="36.87" y1="172.74" x2="40.87" y2="172.74" stroke="#333" stroke-width="1"/>
<line x1="36.87" y1="169.68" x2="40.87" y2="169.68" stroke="#333" stroke-width="1"/>
<text x="29.3" y="194" text-anchor="end" font-size="10" fill="#2196F3" transform="rotate(-30,29.3,194)">Attention</text>
<rect x="62.81" y="152.86" width="19.12" height="27.14" fill="#81C784" opacity="0.85"><title>Partner Identity — Social: 0.709 ×10⁻³</title></rect>
<line x1="72.37" y1="160.53" x2="72.37" y2="139.23" stroke="#333" stroke-width="1"/>
<line x1="70.37" y1="160.53" x2="74.37" y2="160.53" stroke="#333" stroke-width="1"/>
<line x1="70.37" y1="139.23" x2="74.37" y2="139.23" stroke="#333" stroke-width="1"/>
<rect x="83.92" y="173.58" width="19.12" height="6.42" fill="#BDBDBD" opacity="0.85"><title>Control — Social: 0.168 ×10⁻³</title></rect>
<line x1="93.48" y1="174.50" x2="93.48" y2="171.58" stroke="#333" stroke-width="1"/>
<line x1="91.48" y1="174.50" x2="95.48" y2="174.50" stroke="#333" stroke-width="1"/>
<line x1="91.48" y1="171.58" x2="95.48" y2="171.58" stroke="#333" stroke-width="1"/>
<text x="83.9" y="194" text-anchor="end" font-size="10" fill="#2196F3" transform="rotate(-30,83.9,194)">Social</text>
<rect x="117.42" y="147.01" width="19.12" height="32.99" fill="#81C784" opacity="0.85"><title>Partner Identity — Cognitive: 0.862 ×10⁻³</title></rect>
<line x1="126.98" y1="155.45" x2="126.98" y2="141.41" stroke="#333" stroke-width="1"/>
<line x1="124.98" y1="155.45" x2="128.98" y2="155.45" stroke="#333" stroke-width="1"/>
<line x1="124.98" y1="141.41" x2="128.98" y2="141.41" stroke="#333" stroke-width="1"/>
<rect x="138.54" y="170.30" width="19.12" height="9.70" fill="#BDBDBD" opacity="0.85"><title>Control — Cognitive: 0.253 ×10⁻³</title></rect>
<line x1="148.10" y1="172.33" x2="148.10" y2="168.97" stroke="#333" stroke-width="1"/>
<line x1="146.10" y1="172.33" x2="150.10" y2="172.33" stroke="#333" stroke-width="1"/>
<line x1="146.10" y1="168.97" x2="150.10" y2="168.97" stroke="#333" stroke-width="1"/>
<text x="138.5" y="194" text-anchor="end" font-size="10" fill="#2196F3" transform="rotate(-30,138.5,194)">Cognitive</text>
<rect x="172.04" y="152.57" width="19.12" height="27.43" fill="#81C784" opacity="0.85"><title>Partner Identity — Prediction: 0.717 ×10⁻³</title></rect>
<line x1="181.60" y1="157.82" x2="181.60" y2="145.77" stroke="#333" stroke-width="1"/>
<line x1="179.60" y1="157.82" x2="183.60" y2="157.82" stroke="#333" stroke-width="1"/>
<line x1="179.60" y1="145.77" x2="183.60" y2="145.77" stroke="#333" stroke-width="1"/>
<rect x="193.15" y="173.19" width="19.12" height="6.81" fill="#BDBDBD" opacity="0.85"><title>Control — Prediction: 0.178 ×10⁻³</title></rect>
<line x1="202.71" y1="174.19" x2="202.71" y2="171.56" stroke="#333" stroke-width="1"/>
<line x1="200.71" y1="174.19" x2="204.71" y2="174.19" stroke="#333" stroke-width="1"/>
<line x1="200.71" y1="171.56" x2="204.71" y2="171.56" stroke="#333" stroke-width="1"/>
<text x="193.2" y="194" text-anchor="end" font-size="10" fill="#2196F3" transform="rotate(-30,193.2,194)">Prediction</text>
<rect x="226.65" y="154.19" width="19.12" height="25.81" fill="#81C784" opacity="0.85"><title>Partner Identity — Intentions: 0.675 ×10⁻³</title></rect>
<line x1="236.21" y1="162.44" x2="236.21" y2="145.04" stroke="#333" stroke-width="1"/>
<line x1="234.21" y1="162.44" x2="238.21" y2="162.44" stroke="#333" stroke-width="1"/>
<line x1="234.21" y1="145.04" x2="238.21" y2="145.04" stroke="#333" stroke-width="1"/>
<rect x="247.77" y="173.55" width="19.12" height="6.45" fill="#BDBDBD" opacity="0.85"><title>Control — Intentions: 0.169 ×10⁻³</title></rect>
<line x1="257.33" y1="174.26" x2="257.33" y2="172.34" stroke="#333" stroke-width="1"/>
<line x1="255.33" y1="174.26" x2="259.33" y2="174.26" stroke="#333" stroke-width="1"/>
<line x1="255.33" y1="172.34" x2="259.33" y2="172.34" stroke="#333" stroke-width="1"/>
<text x="247.8" y="194" text-anchor="end" font-size="10" fill="#2196F3" transform="rotate(-30,247.8,194)">Intentions</text>
<rect x="281.27" y="159.35" width="19.12" height="20.65" fill="#81C784" opacity="0.85"><title>Partner Identity — Agency: 0.540 ×10⁻³</title></rect>
<line x1="290.83" y1="165.01" x2="290.83" y2="151.17" stroke="#333" stroke-width="1"/>
<line x1="288.83" y1="165.01" x2="292.83" y2="165.01" stroke="#333" stroke-width="1"/>
<line x1="288.83" y1="151.17" x2="292.83" y2="151.17" stroke="#333" stroke-width="1"/>
<rect x="302.38" y="174.53" width="19.12" height="5.47" fill="#BDBDBD" opacity="0.85"><title>Control — Agency: 0.143 ×10⁻³</title></rect>
<line x1="311.94" y1="175.41" x2="311.94" y2="172.76" stroke="#333" stroke-width="1"/>
<line x1="309.94" y1="175.41" x2="313.94" y2="175.41" stroke="#333" stroke-width="1"/>
<line x1="309.94" y1="172.76" x2="313.94" y2="172.76" stroke="#333" stroke-width="1"/>
<text x="302.4" y="194" text-anchor="end" font-size="10" fill="#2196F3" transform="rotate(-30,302.4,194)">Agency</text>
<rect x="335.88" y="157.76" width="19.12" height="22.24" fill="#81C784" opacity="0.85"><title>Partner Identity — Roles: 0.581 ×10⁻³</title></rect>
<line x1="345.44" y1="162.10" x2="345.44" y2="153.36" stroke="#333" stroke-width="1"/>
<line x1="343.44" y1="162.10" x2="347.44" y2="162.10" stroke="#333" stroke-width="1"/>
<line x1="343.44" y1="153.36" x2="347.44" y2="153.36" stroke="#333" stroke-width="1"/>
<rect x="357.00" y="173.70" width="19.12" height="6.30" fill="#BDBDBD" opacity="0.85"><title>Control — Roles: 0.165 ×10⁻³</title></rect>
<line x1="366.56" y1="174.45" x2="366.56" y2="172.33" stroke="#333" stroke-width="1"/>
<line x1="364.56" y1="174.45" x2="368.56" y2="174.45" stroke="#333" stroke-width="1"/>
<line x1="364.56" y1="172.33" x2="368.56" y2="172.33" stroke="#333" stroke-width="1"/>
<text x="357.0" y="194" text-anchor="end" font-size="10" fill="#2196F3" transform="rotate(-30,357.0,194)">Roles</text>
<rect x="390.50" y="163.07" width="19.12" height="16.93" fill="#81C784" opacity="0.85"><title>Partner Identity — Phenomenology: 0.443 ×10⁻³</title></rect>
<line x1="400.06" y1="166.53" x2="400.06" y2="159.44" stroke="#333" stroke-width="1"/>
<line x1="398.06" y1="166.53" x2="402.06" y2="166.53" stroke="#333" stroke-width="1"/>
<line x1="398.06" y1="159.44" x2="402.06" y2="159.44" stroke="#333" stroke-width="1"/>
<rect x="411.62" y="171.88" width="19.12" height="8.12" fill="#BDBDBD" opacity="0.85"><title>Control — Phenomenology: 0.212 ×10⁻³</title></rect>
<line x1="421.17" y1="173.12" x2="421.17" y2="170.77" stroke="#333" stroke-width="1"/>
<line x1="419.17" y1="173.12" x2="423.17" y2="173.12" stroke="#333" stroke-width="1"/>
<line x1="419.17" y1="170.77" x2="423.17" y2="170.77" stroke="#333" stroke-width="1"/>
<text x="411.6" y="194" text-anchor="end" font-size="10" fill="#2196F3" transform="rotate(-30,411.6,194)">Phenomenology</text>
<rect x="445.12" y="162.76" width="19.12" height="17.24" fill="#81C784" opacity="0.85"><title>Partner Identity — Emotions: 0.451 ×10⁻³</title></rect>
<line x1="454.67" y1="166.02" x2="454.67" y2="159.11" stroke="#333" stroke-width="1"/>
<line x1="452.67" y1="166.02" x2="456.67" y2="166.02" stroke="#333" stroke-width="1"/>
<line x1="452.67" y1="159.11" x2="456.67" y2="159.11" stroke="#333" stroke-width="1"/>
<rect x="466.23" y="173.47" width="19.12" height="6.53" fill="#BDBDBD" opacity="0.85"><title>Control — Emotions: 0.171 ×10⁻³</title></rect>
<line x1="475.79" y1="174.23" x2="475.79" y2="172.42" stroke="#333" stroke-width="1"/>
<line x1="473.79" y1="174.23" x2="477.79" y2="174.23" stroke="#333" stroke-width="1"/>
<line x1="473.79" y1="172.42" x2="477.79" y2="172.42" stroke="#333" stroke-width="1"/>
<text x="466.2" y="194" text-anchor="end" font-size="10" fill="#2196F3" transform="rotate(-30,466.2,194)">Emotions</text>
<rect x="499.73" y="168.22" width="19.12" height="11.78" fill="#81C784" opacity="0.85"><title>Partner Identity — Embodiment: 0.308 ×10⁻³</title></rect>
<line x1="509.29" y1="170.04" x2="509.29" y2="165.75" stroke="#333" stroke-width="1"/>
<line x1="507.29" y1="170.04" x2="511.29" y2="170.04" stroke="#333" stroke-width="1"/>
<line x1="507.29" y1="165.75" x2="511.29" y2="165.75" stroke="#333" stroke-width="1"/>
<rect x="520.85" y="172.10" width="19.12" height="7.90" fill="#BDBDBD" opacity="0.85"><title>Control — Embodiment: 0.207 ×10⁻³</title></rect>
<line x1="530.40" y1="173.30" x2="530.40" y2="170.93" stroke="#333" stroke-width="1"/>
<line x1="528.40" y1="173.30" x2="532.40" y2="173.30" stroke="#333" stroke-width="1"/>
<line x1="528.40" y1="170.93" x2="532.40" y2="170.93" stroke="#333" stroke-width="1"/>
<text x="520.8" y="194" text-anchor="end" font-size="10" fill="#2196F3" transform="rotate(-30,520.8,194)">Embodiment</text>
<rect x="554.35" y="163.75" width="19.12" height="16.25" fill="#81C784" opacity="0.85"><title>Partner Identity — Animacy: 0.425 ×10⁻³</title></rect>
<line x1="563.90" y1="167.55" x2="563.90" y2="160.45" stroke="#333" stroke-width="1"/>
<line x1="561.90" y1="167.55" x2="565.90" y2="167.55" stroke="#333" stroke-width="1"/>
<line x1="561.90" y1="160.45" x2="565.90" y2="160.45" stroke="#333" stroke-width="1"/>
<rect x="575.46" y="170.61" width="19.12" height="9.39" fill="#BDBDBD" opacity="0.85"><title>Control — Animacy: 0.245 ×10⁻³</title></rect>
<line x1="585.02" y1="171.73" x2="585.02" y2="169.67" stroke="#333" stroke-width="1"/>
<line x1="583.02" y1="171.73" x2="587.02" y2="171.73" stroke="#333" stroke-width="1"/>
<line x1="583.02" y1="169.67" x2="587.02" y2="169.67" stroke="#333" stroke-width="1"/>
<text x="575.5" y="194" text-anchor="end" font-size="10" fill="#2196F3" transform="rotate(-30,575.5,194)">Animacy</text>
<line x1="600.7692307692307" y1="0" x2="600.7692307692307" y2="180" stroke="#ccc" stroke-width="1" stroke-dasharray="4,3"/>
<rect x="608.96" y="167.47" width="19.12" height="12.53" fill="#81C784" opacity="0.5"><title>Partner Identity — Biological: 0.327 ×10⁻³</title></rect>
<line x1="618.52" y1="169.23" x2="618.52" y2="165.04" stroke="#333" stroke-width="1"/>
<line x1="616.52" y1="169.23" x2="620.52" y2="169.23" stroke="#333" stroke-width="1"/>
<line x1="616.52" y1="165.04" x2="620.52" y2="165.04" stroke="#333" stroke-width="1"/>
<rect x="630.08" y="172.10" width="19.12" height="7.90" fill="#BDBDBD" opacity="0.5"><title>Control — Biological: 0.207 ×10⁻³</title></rect>
<line x1="639.63" y1="173.13" x2="639.63" y2="171.05" stroke="#333" stroke-width="1"/>
<line x1="637.63" y1="173.13" x2="641.63" y2="173.13" stroke="#333" stroke-width="1"/>
<line x1="637.63" y1="171.05" x2="641.63" y2="171.05" stroke="#333" stroke-width="1"/>
<text x="630.1" y="194" text-anchor="end" font-size="10" fill="#9E9E9E" transform="rotate(-30,630.1,194)">Biological</text>
<rect x="663.58" y="168.36" width="19.12" height="11.64" fill="#81C784" opacity="0.5"><title>Partner Identity — Shapes: 0.304 ×10⁻³</title></rect>
<line x1="673.13" y1="173.65" x2="673.13" y2="162.70" stroke="#333" stroke-width="1"/>
<line x1="671.13" y1="173.65" x2="675.13" y2="173.65" stroke="#333" stroke-width="1"/>
<line x1="671.13" y1="162.70" x2="675.13" y2="162.70" stroke="#333" stroke-width="1"/>
<rect x="684.69" y="172.11" width="19.12" height="7.89" fill="#BDBDBD" opacity="0.5"><title>Control — Shapes: 0.206 ×10⁻³</title></rect>
<line x1="694.25" y1="173.91" x2="694.25" y2="170.03" stroke="#333" stroke-width="1"/>
<line x1="692.25" y1="173.91" x2="696.25" y2="173.91" stroke="#333" stroke-width="1"/>
<line x1="692.25" y1="170.03" x2="696.25" y2="170.03" stroke="#333" stroke-width="1"/>
<text x="684.7" y="194" text-anchor="end" font-size="10" fill="#9E9E9E" transform="rotate(-30,684.7,194)">Shapes</text>
<line x1="0" y1="180" x2="710" y2="180" stroke="#333"/>
<line x1="0" y1="0" x2="0" y2="180" stroke="#333"/>
</g>
<rect x="70" y="300" width="10" height="10" fill="#81C784"/>
<text x="84" y="308" font-size="9" fill="#333">Partner Identity</text>
<rect x="210" y="300" width="10" height="10" fill="#BDBDBD"/>
<text x="224" y="308" font-size="9" fill="#333">Control</text>
</svg>