<svg viewBox="0 0 800 320" xmlns="http://www.w3.org/2000/svg" style="width:100%;max-width:800px;height:auto;font-family:Arial,sans-serif;">
<rect width="800" height="320" fill="white"/>

<g transform="translate(70,30)">
<line x1="0" y1="180.0" x2="710" y2="180.0" stroke="#eee" stroke-width="1"/>
<text x="-8" y="184.0" text-anchor="end" font-size="10" fill="#666">0.00</text>
<line x1="0" y1="144.0" x2="710" y2="144.0" stroke="#eee" stroke-width="1"/>
<text x="-8" y="148.0" text-anchor="end" font-size="10" fill="#666">0.94</text>
<line x1="0" y1="108.0" x2="710" y2="108.0" stroke="#eee" stroke-width="1"/>
<text x="-8" y="112.0" text-anchor="end" font-size="10" fill="#666">1.88</text>
<line x1="0" y1="72.0" x2="710" y2="72.0" stroke="#eee" stroke-width="1"/>
<text x="-8" y="76.0" text-anchor="end" font-size="10" fill="#666">2.82</text>
<line x1="0" y1="36.0" x2="710" y2="36.0" stroke="#eee" stroke-width="1"/>
<text x="-8" y="40.0" text-anchor="end" font-size="10" fill="#666">3.76</text>
<line x1="0" y1="0.0" x2="710" y2="0.0" stroke="#eee" stroke-width="1"/>
<text x="-8" y="4.0" text-anchor="end" font-size="10" fill="#666">4.70</text>
<text x="-50" y="90.0" text-anchor="middle" font-size="11" fill="#333" transform="rotate(-90,-50,90.0)">Mean R² (×10⁻³)</text>
<rect x="8.19" y="44.57" width="19.12" height="135.43" fill="#2E7D32" opacity="0.85"><title>Partner Identity — Attention: 3.540 ×10⁻³</title></rect>
<line x1="17.75" y1="69.23" x2="17.75" y2="30.90" stroke="#333" stroke-width="1"/>
<line x1="15.75" y1="69.23" x2="19.75" y2="69.23" stroke="#333" stroke-width="1"/>
<line x1="15.75" y1="30.90" x2="19.75" y2="30.90" stroke="#333" stroke-width="1"/>
<rect x="29.31" y="169.46" width="19.12" height="10.54" fill="#616161" opacity="0.85"><title>Control — Attention: 0.275 ×10⁻³</title></rect>
<line x1="38.87" y1="171.23" x2="38.87" y2="168.26" stroke="#333" stroke-width="1"/>
<line x1="36.87" y1="171.23" x2="40.87" y2="171.23" stroke="#333" stroke-width="1"/>
<line x1="36.87" y1="168.26" x2="40.87" y2="168.26" stroke="#333" stroke-width="1"/>
<text x="29.3" y="194" text-anchor="end" font-size="10" fill="#2196F3" transform="rotate(-30,29.3,194)">Attention</text>
<rect x="62.81" y="51.22" width="19.12" height="128.78" fill="#2E7D32" opacity="0.85"><title>Partner Identity — Social: 3.366 ×10⁻³</title></rect>
<line x1="72.37" y1="76.94" x2="72.37" y2="29.44" stroke="#333" stroke-width="1"/>
<line x1="70.37" y1="76.94" x2="74.37" y2="76.94" stroke="#333" stroke-width="1"/>
<line x1="70.37" y1="29.44" x2="74.37" y2="29.44" stroke="#333" stroke-width="1"/>
<rect x="83.92" y="168.85" width="19.12" height="11.15" fill="#616161" opacity="0.85"><title>Control — Social: 0.291 ×10⁻³</title></rect>
<line x1="93.48" y1="171.40" x2="93.48" y2="167.40" stroke="#333" stroke-width="1"/>
<line x1="91.48" y1="171.40" x2="95.48" y2="171.40" stroke="#333" stroke-width="1"/>
<line x1="91.48" y1="167.40" x2="95.48" y2="167.40" stroke="#333" stroke-width="1"/>
<text x="83.9" y="194" text-anchor="end" font-size="10" fill="#2196F3" transform="rotate(-30,83.9,194)">Social</text>
<rect x="117.42" y="59.80" width="19.12" height="120.20" fill="#2E7D32" opacity="0.85"><title>Partner Identity — Cognitive: 3.142 ×10⁻³</title></rect>
<line x1="126.98" y1="78.93" x2="126.98" y2="48.80" stroke="#333" stroke-width="1"/>
<line x1="124.98" y1="78.93" x2="128.98" y2="78.93" stroke="#333" stroke-width="1"/>
<line x1="124.98" y1="48.80" x2="128.98" y2="48.80" stroke="#333" stroke-width="1"/>
<rect x="138.54" y="169.42" width="19.12" height="10.58" fill="#616161" opacity="0.85"><title>Control — Cognitive: 0.276 ×10⁻³</title></rect>
<line x1="148.10" y1="171.62" x2="148.10" y2="166.96" stroke="#333" stroke-width="1"/>
<line x1="146.10" y1="171.62" x2="150.10" y2="171.62" stroke="#333" stroke-width="1"/>
<line x1="146.10" y1="166.96" x2="150.10" y2="166.96" stroke="#333" stroke-width="1"/>
<text x="138.5" y="194" text-anchor="end" font-size="10" fill="#2196F3" transform="rotate(-30,138.5,194)">Cognitive</text>
<rect x="172.04" y="65.72" width="19.12" height="114.28" fill="#2E7D32" opacity="0.85"><title>Partner Identity — Prediction: 2.987 ×10⁻³</title></rect>
<line x1="181.60" y1="87.44" x2="181.60" y2="49.54" stroke="#333" stroke-width="1"/>
<line x1="179.60" y1="87.44" x2="183.60" y2="87.44" stroke="#333" stroke-width="1"/>
<line x1="179.60" y1="49.54" x2="183.60" y2="49.54" stroke="#333" stroke-width="1"/>
<rect x="193.15" y="168.03" width="19.12" height="11.97" fill="#616161" opacity="0.85"><title>Control — Prediction: 0.313 ×10⁻³</title></rect>
<line x1="202.71" y1="170.13" x2="202.71" y2="166.69" stroke="#333" stroke-width="1"/>
<line x1="200.71" y1="170.13" x2="204.71" y2="170.13" stroke="#333" stroke-width="1"/>
<line x1="200.71" y1="166.69" x2="204.71" y2="166.69" stroke="#333" stroke-width="1"/>
<text x="193.2" y="194" text-anchor="end" font-size="10" fill="#2196F3" transform="rotate(-30,193.2,194)">Prediction</text>
<rect x="226.65" y="71.37" width="19.12" height="108.63" fill="#2E7D32" opacity="0.85"><title>Partner Identity — Intentions: 2.839 ×10⁻³</title></rect>
<line x1="236.21" y1="95.12" x2="236.21" y2="56.82" stroke="#333" stroke-width="1"/>
<line x1="234.21" y1="95.12" x2="238.21" y2="95.12" stroke="#333" stroke-width="1"/>
<line x1="234.21" y1="56.82" x2="238.21" y2="56.82" stroke="#333" stroke-width="1"/>
<rect x="247.77" y="165.36" width="19.12" height="14.64" fill="#616161" opacity="0.85"><title>Control — Intentions: 0.383 ×10⁻³</title></rect>
<line x1="257.33" y1="167.63" x2="257.33" y2="164.12" stroke="#333" stroke-width="1"/>
<line x1="255.33" y1="167.63" x2="259.33" y2="167.63" stroke="#333" stroke-width="1"/>
<line x1="255.33" y1="164.12" x2="259.33" y2="164.12" stroke="#333" stroke-width="1"/>
<text x="247.8" y="194" text-anchor="end" font-size="10" fill="#2196F3" transform="rotate(-30,247.8,194)">Intentions</text>
<rect x="281.27" y="81.41" width="19.12" height="98.59" fill="#2E7D32" opacity="0.85"><title>Partner Identity — Agency: 2.577 ×10⁻³</title></rect>
<line x1="290.83" y1="101.76" x2="290.83" y2="65.76" stroke="#333" stroke-width="1"/>
<line x1="288.83" y1="101.76" x2="292.83" y2="101.76" stroke="#333" stroke-width="1"/>
<line x1="288.83" y1="65.76" x2="292.83" y2="65.76" stroke="#333" stroke-width="1"/>
<rect x="302.38" y="165.52" width="19.12" height="14.48" fill="#616161" opacity="0.85"><title>Control — Agency: 0.379 ×10⁻³</title></rect>
<line x1="311.94" y1="167.75" x2="311.94" y2="164.39" stroke="#333" stroke-width="1"/>
<line x1="309.94" y1="167.75" x2="313.94" y2="167.75" stroke="#333" stroke-width="1"/>
<line x1="309.94" y1="164.39" x2="313.94" y2="164.39" stroke="#333" stroke-width="1"/>
<text x="302.4" y="194" text-anchor="end" font-size="10" fill="#2196F3" transform="rotate(-30,302.4,194)">Agency</text>
<rect x="335.88" y="83.55" width="19.12" height="96.45" fill="#2E7D32" opacity="0.85"><title>Partner Identity — Roles: 2.521 ×10⁻³</title></rect>
<line x1="345.44" y1="104.88" x2="345.44" y2="67.09" stroke="#333" stroke-width="1"/>
<line x1="343.44" y1="104.88" x2="347.44" y2="104.88" stroke="#333" stroke-width="1"/>
<line x1="343.44" y1="67.09" x2="347.44" y2="67.09" stroke="#333" stroke-width="1"/>
<rect x="357.00" y="170.17" width="19.12" height="9.83" fill="#616161" opacity="0.85"><title>Control — Roles: 0.257 ×10⁻³</title></rect>
<line x1="366.56" y1="172.12" x2="366.56" y2="167.85" stroke="#333" stroke-width="1"/>
<line x1="364.56" y1="172.12" x2="368.56" y2="172.12" stroke="#333" stroke-width="1"/>
<line x1="364.56" y1="167.85" x2="368.56" y2="167.85" stroke="#333" stroke-width="1"/>
<text x="357.0" y="194" text-anchor="end" font-size="10" fill="#2196F3" transform="rotate(-30,357.0,194)">Roles</text>
<rect x="390.50" y="99.36" width="19.12" height="80.64" fill="#2E7D32" opacity="0.85"><title>Partner Identity — Phenomenology: 2.108 ×10⁻³</title></rect>
<line x1="400.06" y1="114.33" x2="400.06" y2="90.77" stroke="#333" stroke-width="1"/>
<line x1="398.06" y1="114.33" x2="402.06" y2="114.33" stroke="#333" stroke-width="1"/>
<line x1="398.06" y1="90.77" x2="402.06" y2="90.77" stroke="#333" stroke-width="1"/>
<rect x="411.62" y="169.79" width="19.12" height="10.21" fill="#616161" opacity="0.85"><title>Control — Phenomenology: 0.267 ×10⁻³</title></rect>
<line x1="421.17" y1="171.57" x2="421.17" y2="168.47" stroke="#333" stroke-width="1"/>
<line x1="419.17" y1="171.57" x2="423.17" y2="171.57" stroke="#333" stroke-width="1"/>
<line x1="419.17" y1="168.47" x2="423.17" y2="168.47" stroke="#333" stroke-width="1"/>
<text x="411.6" y="194" text-anchor="end" font-size="10" fill="#2196F3" transform="rotate(-30,411.6,194)">Phenomenology</text>
<rect x="445.12" y="103.53" width="19.12" height="76.47" fill="#2E7D32" opacity="0.85"><title>Partner Identity — Emotions: 1.999 ×10⁻³</title></rect>
<line x1="454.67" y1="116.78" x2="454.67" y2="93.21" stroke="#333" stroke-width="1"/>
<line x1="452.67" y1="116.78" x2="456.67" y2="116.78" stroke="#333" stroke-width="1"/>
<line x1="452.67" y1="93.21" x2="456.67" y2="93.21" stroke="#333" stroke-width="1"/>
<rect x="466.23" y="167.00" width="19.12" height="13.00" fill="#616161" opacity="0.85"><title>Control — Emotions: 0.340 ×10⁻³</title></rect>
<line x1="475.79" y1="168.71" x2="475.79" y2="165.92" stroke="#333" stroke-width="1"/>
<line x1="473.79" y1="168.71" x2="477.79" y2="168.71" stroke="#333" stroke-width="1"/>
<line x1="473.79" y1="165.92" x2="477.79" y2="165.92" stroke="#333" stroke-width="1"/>
<text x="466.2" y="194" text-anchor="end" font-size="10" fill="#2196F3" transform="rotate(-30,466.2,194)">Emotions</text>
<rect x="499.73" y="112.25" width="19.12" height="67.75" fill="#2E7D32" opacity="0.85"><title>Partner Identity — Embodiment: 1.771 ×10⁻³</title></rect>
<line x1="509.29" y1="123.10" x2="509.29" y2="103.97" stroke="#333" stroke-width="1"/>
<line x1="507.29" y1="123.10" x2="511.29" y2="123.10" stroke="#333" stroke-width="1"/>
<line x1="507.29" y1="103.97" x2="511.29" y2="103.97" stroke="#333" stroke-width="1"/>
<rect x="520.85" y="169.49" width="19.12" height="10.51" fill="#616161" opacity="0.85"><title>Control — Embodiment: 0.275 ×10⁻³</title></rect>
<line x1="530.40" y1="171.05" x2="530.40" y2="168.18" stroke="#333" stroke-width="1"/>
<line x1="528.40" y1="171.05" x2="532.40" y2="171.05" stroke="#333" stroke-width="1"/>
<line x1="528.40" y1="168.18" x2="532.40" y2="168.18" stroke="#333" stroke-width="1"/>
<text x="520.8" y="194" text-anchor="end" font-size="10" fill="#2196F3" transform="rotate(-30,520.8,194)">Embodiment</text>
<rect x="554.35" y="126.39" width="19.12" height="53.61" fill="#2E7D32" opacity="0.85"><title>Partner Identity — Animacy: 1.401 ×10⁻³</title></rect>
<line x1="563.90" y1="137.76" x2="563.90" y2="118.47" stroke="#333" stroke-width="1"/>
<line x1="561.90" y1="137.76" x2="565.90" y2="137.76" stroke="#333" stroke-width="1"/>
<line x1="561.90" y1="118.47" x2="565.90" y2="118.47" stroke="#333" stroke-width="1"/>
<rect x="575.46" y="173.03" width="19.12" height="6.97" fill="#616161" opacity="0.85"><title>Control — Animacy: 0.182 ×10⁻³</title></rect>
<line x1="585.02" y1="174.17" x2="585.02" y2="171.64" stroke="#333" stroke-width="1"/>
<line x1="583.02" y1="174.17" x2="587.02" y2="174.17" stroke="#333" stroke-width="1"/>
<line x1="583.02" y1="171.64" x2="587.02" y2="171.64" stroke="#333" stroke-width="1"/>
<text x="575.5" y="194" text-anchor="end" font-size="10" fill="#2196F3" transform="rotate(-30,575.5,194)">Animacy</text>
<line x1="600.7692307692307" y1="0" x2="600.7692307692307" y2="180" stroke="#ccc" stroke-width="1" stroke-dasharray="4,3"/>
<rect x="608.96" y="140.26" width="19.12" height="39.74" fill="#2E7D32" opacity="0.5"><title>Partner Identity — Biological: 1.039 ×10⁻³</title></rect>
<line x1="618.52" y1="146.50" x2="618.52" y2="134.08" stroke="#333" stroke-width="1"/>
<line x1="616.52" y1="146.50" x2="620.52" y2="146.50" stroke="#333" stroke-width="1"/>
<line x1="616.52" y1="134.08" x2="620.52" y2="134.08" stroke="#333" stroke-width="1"/>
<rect x="630.08" y="171.54" width="19.12" height="8.46" fill="#616161" opacity="0.5"><title>Control — Biological: 0.221 ×10⁻³</title></rect>
<line x1="639.63" y1="172.46" x2="639.63" y2="170.70" stroke="#333" stroke-width="1"/>
<line x1="637.63" y1="172.46" x2="641.63" y2="172.46" stroke="#333" stroke-width="1"/>
<line x1="637.63" y1="170.70" x2="641.63" y2="170.70" stroke="#333" stroke-width="1"/>
<text x="630.1" y="194" text-anchor="end" font-size="10" fill="#9E9E9E" transform="rotate(-30,630.1,194)">Biological</text>
<rect x="663.58" y="170.63" width="19.12" height="9.37" fill="#2E7D32" opacity="0.5"><title>Partner Identity — Shapes: 0.245 ×10⁻³</title></rect>
<line x1="673.13" y1="174.70" x2="673.13" y2="164.43" stroke="#333" stroke-width="1"/>
<line x1="671.13" y1="174.70" x2="675.13" y2="174.70" stroke="#333" stroke-width="1"/>
<line x1="671.13" y1="164.43" x2="675.13" y2="164.43" stroke="#333" stroke-width="1"/>
<rect x="684.69" y="172.71" width="19.12" height="7.29" fill="#616161" opacity="0.5"><title>Control — Shapes: 0.190 ×10⁻³</title></rect>
<line x1="694.25" y1="175.13" x2="694.25" y2="170.57" stroke="#333" stroke-width="1"/>
<line x1="692.25" y1="175.13" x2="696.25" y2="175.13" stroke="#333" stroke-width="1"/>
<line x1="692.25" y1="170.57" x2="696.25" y2="170.57" stroke="#333" stroke-width="1"/>
<text x="684.7" y="194" text-anchor="end" font-size="10" fill="#9E9E9E" transform="rotate(-30,684.7,194)">Shapes</text>
<line x1="0" y1="180" x2="710" y2="180" stroke="#333"/>
<line x1="0" y1="0" x2="0" y2="180" stroke="#333"/>
</g>
<rect x="70" y="300" width="10" height="10" fill="#2E7D32"/>
<text x="84" y="308" font-size="9" fill="#333">Partner Identity</text>
<rect x="210" y="300" width="10" height="10" fill="#616161"/>
<text x="224" y="308" font-size="9" fill="#333">Control</text>
</svg>