<svg viewBox="0 0 800 340" xmlns="http://www.w3.org/2000/svg" style="width:100%;max-width:800px;height:auto;font-family:Arial,sans-serif;">
<rect width="800" height="340" fill="white"/>

<g transform="translate(70,30)">
<line x1="0" y1="190.0" x2="710" y2="190.0" stroke="#eee" stroke-width="1"/>
<text x="-8" y="194.0" text-anchor="end" font-size="10" fill="#666">0.00</text>
<line x1="0" y1="152.0" x2="710" y2="152.0" stroke="#eee" stroke-width="1"/>
<text x="-8" y="156.0" text-anchor="end" font-size="10" fill="#666">1.67</text>
<line x1="0" y1="114.0" x2="710" y2="114.0" stroke="#eee" stroke-width="1"/>
<text x="-8" y="118.0" text-anchor="end" font-size="10" fill="#666">3.34</text>
<line x1="0" y1="76.0" x2="710" y2="76.0" stroke="#eee" stroke-width="1"/>
<text x="-8" y="80.0" text-anchor="end" font-size="10" fill="#666">5.01</text>
<line x1="0" y1="38.0" x2="710" y2="38.0" stroke="#eee" stroke-width="1"/>
<text x="-8" y="42.0" text-anchor="end" font-size="10" fill="#666">6.67</text>
<line x1="0" y1="0.0" x2="710" y2="0.0" stroke="#eee" stroke-width="1"/>
<text x="-8" y="4.0" text-anchor="end" font-size="10" fill="#666">8.34</text>
<text x="-50" y="95.0" text-anchor="middle" font-size="11" fill="#333" transform="rotate(-90,-50,95.0)">Mean R² (×10⁻³)</text>
<line x1="83.52941176470588" y1="0" x2="83.52941176470588" y2="190" stroke="#ddd" stroke-width="1" stroke-dasharray="4,3"/>
<rect x="6.26" y="143.68" width="14.62" height="46.32" fill="#2E7D32" opacity="0.85"><title>Partner Identity: 2.034 ×10⁻³</title></rect>
<line x1="13.57" y1="150.56" x2="13.57" y2="138.84" stroke="#333" stroke-width="1"/>
<line x1="11.57" y1="150.56" x2="15.57" y2="150.56" stroke="#333" stroke-width="1"/>
<line x1="11.57" y1="138.84" x2="15.57" y2="138.84" stroke="#333" stroke-width="1"/>
<rect x="22.88" y="184.48" width="14.62" height="5.52" fill="#616161" opacity="0.85"><title>Control: 0.242 ×10⁻³</title></rect>
<line x1="30.19" y1="185.33" x2="30.19" y2="183.51" stroke="#333" stroke-width="1"/>
<line x1="28.19" y1="185.33" x2="32.19" y2="185.33" stroke="#333" stroke-width="1"/>
<line x1="28.19" y1="183.51" x2="32.19" y2="183.51" stroke="#333" stroke-width="1"/>
<text x="22.9" y="204" text-anchor="end" font-size="9" fill="#9E9E9E" transform="rotate(-45,22.9,204)">Biological</text>
<rect x="48.03" y="176.90" width="14.62" height="13.10" fill="#2E7D32" opacity="0.85"><title>Partner Identity: 0.575 ×10⁻³</title></rect>
<line x1="55.34" y1="184.05" x2="55.34" y2="169.64" stroke="#333" stroke-width="1"/>
<line x1="53.34" y1="184.05" x2="57.34" y2="184.05" stroke="#333" stroke-width="1"/>
<line x1="53.34" y1="169.64" x2="57.34" y2="169.64" stroke="#333" stroke-width="1"/>
<rect x="64.65" y="184.78" width="14.62" height="5.22" fill="#616161" opacity="0.85"><title>Control: 0.229 ×10⁻³</title></rect>
<line x1="71.96" y1="186.81" x2="71.96" y2="182.52" stroke="#333" stroke-width="1"/>
<line x1="69.96" y1="186.81" x2="73.96" y2="186.81" stroke="#333" stroke-width="1"/>
<line x1="69.96" y1="182.52" x2="73.96" y2="182.52" stroke="#333" stroke-width="1"/>
<text x="64.6" y="204" text-anchor="end" font-size="9" fill="#9E9E9E" transform="rotate(-45,64.6,204)">Shapes</text>
<rect x="89.79" y="48.44" width="14.62" height="141.56" fill="#2E7D32" opacity="0.85"><title>Partner Identity: 6.217 ×10⁻³</title></rect>
<line x1="97.10" y1="70.22" x2="97.10" y2="38.62" stroke="#333" stroke-width="1"/>
<line x1="95.10" y1="70.22" x2="99.10" y2="70.22" stroke="#333" stroke-width="1"/>
<line x1="95.10" y1="38.62" x2="99.10" y2="38.62" stroke="#333" stroke-width="1"/>
<rect x="106.41" y="183.07" width="14.62" height="6.93" fill="#616161" opacity="0.85"><title>Control: 0.304 ×10⁻³</title></rect>
<line x1="113.72" y1="184.49" x2="113.72" y2="181.87" stroke="#333" stroke-width="1"/>
<line x1="111.72" y1="184.49" x2="115.72" y2="184.49" stroke="#333" stroke-width="1"/>
<line x1="111.72" y1="181.87" x2="115.72" y2="181.87" stroke="#333" stroke-width="1"/>
<text x="106.4" y="204" text-anchor="end" font-size="9" fill="#2196F3" transform="rotate(-45,106.4,204)">Attention</text>
<rect x="131.56" y="62.22" width="14.62" height="127.78" fill="#2E7D32" opacity="0.85"><title>Partner Identity: 5.611 ×10⁻³</title></rect>
<line x1="138.87" y1="83.69" x2="138.87" y2="47.47" stroke="#333" stroke-width="1"/>
<line x1="136.87" y1="83.69" x2="140.87" y2="83.69" stroke="#333" stroke-width="1"/>
<line x1="136.87" y1="47.47" x2="140.87" y2="47.47" stroke="#333" stroke-width="1"/>
<rect x="148.18" y="181.95" width="14.62" height="8.05" fill="#616161" opacity="0.85"><title>Control: 0.354 ×10⁻³</title></rect>
<line x1="155.49" y1="183.91" x2="155.49" y2="180.39" stroke="#333" stroke-width="1"/>
<line x1="153.49" y1="183.91" x2="157.49" y2="183.91" stroke="#333" stroke-width="1"/>
<line x1="153.49" y1="180.39" x2="157.49" y2="180.39" stroke="#333" stroke-width="1"/>
<text x="148.2" y="204" text-anchor="end" font-size="9" fill="#2196F3" transform="rotate(-45,148.2,204)">Social</text>
<rect x="173.32" y="70.00" width="14.62" height="120.00" fill="#2E7D32" opacity="0.85"><title>Partner Identity: 5.270 ×10⁻³</title></rect>
<line x1="180.63" y1="90.42" x2="180.63" y2="58.18" stroke="#333" stroke-width="1"/>
<line x1="178.63" y1="90.42" x2="182.63" y2="90.42" stroke="#333" stroke-width="1"/>
<line x1="178.63" y1="58.18" x2="182.63" y2="58.18" stroke="#333" stroke-width="1"/>
<rect x="189.94" y="182.32" width="14.62" height="7.68" fill="#616161" opacity="0.85"><title>Control: 0.337 ×10⁻³</title></rect>
<line x1="197.25" y1="183.87" x2="197.25" y2="180.65" stroke="#333" stroke-width="1"/>
<line x1="195.25" y1="183.87" x2="199.25" y2="183.87" stroke="#333" stroke-width="1"/>
<line x1="195.25" y1="180.65" x2="199.25" y2="180.65" stroke="#333" stroke-width="1"/>
<text x="189.9" y="204" text-anchor="end" font-size="9" fill="#2196F3" transform="rotate(-45,189.9,204)">Cognitive</text>
<rect x="215.09" y="64.99" width="14.62" height="125.01" fill="#2E7D32" opacity="0.85"><title>Partner Identity: 5.490 ×10⁻³</title></rect>
<line x1="222.40" y1="87.51" x2="222.40" y2="49.95" stroke="#333" stroke-width="1"/>
<line x1="220.40" y1="87.51" x2="224.40" y2="87.51" stroke="#333" stroke-width="1"/>
<line x1="220.40" y1="49.95" x2="224.40" y2="49.95" stroke="#333" stroke-width="1"/>
<rect x="231.71" y="181.94" width="14.62" height="8.06" fill="#616161" opacity="0.85"><title>Control: 0.354 ×10⁻³</title></rect>
<line x1="239.01" y1="183.91" x2="239.01" y2="180.28" stroke="#333" stroke-width="1"/>
<line x1="237.01" y1="183.91" x2="241.01" y2="183.91" stroke="#333" stroke-width="1"/>
<line x1="237.01" y1="180.28" x2="241.01" y2="180.28" stroke="#333" stroke-width="1"/>
<text x="231.7" y="204" text-anchor="end" font-size="9" fill="#2196F3" transform="rotate(-45,231.7,204)">Prediction</text>
<rect x="256.85" y="81.49" width="14.62" height="108.51" fill="#2E7D32" opacity="0.85"><title>Partner Identity: 4.765 ×10⁻³</title></rect>
<line x1="264.16" y1="100.95" x2="264.16" y2="69.31" stroke="#333" stroke-width="1"/>
<line x1="262.16" y1="100.95" x2="266.16" y2="100.95" stroke="#333" stroke-width="1"/>
<line x1="262.16" y1="69.31" x2="266.16" y2="69.31" stroke="#333" stroke-width="1"/>
<rect x="273.47" y="179.67" width="14.62" height="10.33" fill="#616161" opacity="0.85"><title>Control: 0.454 ×10⁻³</title></rect>
<line x1="280.78" y1="181.55" x2="280.78" y2="178.44" stroke="#333" stroke-width="1"/>
<line x1="278.78" y1="181.55" x2="282.78" y2="181.55" stroke="#333" stroke-width="1"/>
<line x1="278.78" y1="178.44" x2="282.78" y2="178.44" stroke="#333" stroke-width="1"/>
<text x="273.5" y="204" text-anchor="end" font-size="9" fill="#2196F3" transform="rotate(-45,273.5,204)">Intentions</text>
<rect x="298.62" y="80.31" width="14.62" height="109.69" fill="#2E7D32" opacity="0.85"><title>Partner Identity: 4.817 ×10⁻³</title></rect>
<line x1="305.93" y1="99.22" x2="305.93" y2="69.00" stroke="#333" stroke-width="1"/>
<line x1="303.93" y1="99.22" x2="307.93" y2="99.22" stroke="#333" stroke-width="1"/>
<line x1="303.93" y1="69.00" x2="307.93" y2="69.00" stroke="#333" stroke-width="1"/>
<rect x="315.24" y="180.31" width="14.62" height="9.69" fill="#616161" opacity="0.85"><title>Control: 0.425 ×10⁻³</title></rect>
<line x1="322.54" y1="182.55" x2="322.54" y2="178.66" stroke="#333" stroke-width="1"/>
<line x1="320.54" y1="182.55" x2="324.54" y2="182.55" stroke="#333" stroke-width="1"/>
<line x1="320.54" y1="178.66" x2="324.54" y2="178.66" stroke="#333" stroke-width="1"/>
<text x="315.2" y="204" text-anchor="end" font-size="9" fill="#2196F3" transform="rotate(-45,315.2,204)">Agency</text>
<rect x="340.38" y="86.31" width="14.62" height="103.69" fill="#2E7D32" opacity="0.85"><title>Partner Identity: 4.553 ×10⁻³</title></rect>
<line x1="347.69" y1="108.55" x2="347.69" y2="69.62" stroke="#333" stroke-width="1"/>
<line x1="345.69" y1="108.55" x2="349.69" y2="108.55" stroke="#333" stroke-width="1"/>
<line x1="345.69" y1="69.62" x2="349.69" y2="69.62" stroke="#333" stroke-width="1"/>
<rect x="357.00" y="183.99" width="14.62" height="6.01" fill="#616161" opacity="0.85"><title>Control: 0.264 ×10⁻³</title></rect>
<line x1="364.31" y1="185.47" x2="364.31" y2="181.80" stroke="#333" stroke-width="1"/>
<line x1="362.31" y1="185.47" x2="366.31" y2="185.47" stroke="#333" stroke-width="1"/>
<line x1="362.31" y1="181.80" x2="366.31" y2="181.80" stroke="#333" stroke-width="1"/>
<text x="357.0" y="204" text-anchor="end" font-size="9" fill="#2196F3" transform="rotate(-45,357.0,204)">Roles</text>
<rect x="382.15" y="96.36" width="14.62" height="93.64" fill="#2E7D32" opacity="0.85"><title>Partner Identity: 4.112 ×10⁻³</title></rect>
<line x1="389.46" y1="110.30" x2="389.46" y2="86.02" stroke="#333" stroke-width="1"/>
<line x1="387.46" y1="110.30" x2="391.46" y2="110.30" stroke="#333" stroke-width="1"/>
<line x1="387.46" y1="86.02" x2="391.46" y2="86.02" stroke="#333" stroke-width="1"/>
<rect x="398.76" y="183.41" width="14.62" height="6.59" fill="#616161" opacity="0.85"><title>Control: 0.289 ×10⁻³</title></rect>
<line x1="406.07" y1="184.48" x2="406.07" y2="182.46" stroke="#333" stroke-width="1"/>
<line x1="404.07" y1="184.48" x2="408.07" y2="184.48" stroke="#333" stroke-width="1"/>
<line x1="404.07" y1="182.46" x2="408.07" y2="182.46" stroke="#333" stroke-width="1"/>
<text x="398.8" y="204" text-anchor="end" font-size="9" fill="#2196F3" transform="rotate(-45,398.8,204)">Emotions</text>
<rect x="423.91" y="104.56" width="14.62" height="85.44" fill="#2E7D32" opacity="0.85"><title>Partner Identity: 3.752 ×10⁻³</title></rect>
<line x1="431.22" y1="119.02" x2="431.22" y2="98.56" stroke="#333" stroke-width="1"/>
<line x1="429.22" y1="119.02" x2="433.22" y2="119.02" stroke="#333" stroke-width="1"/>
<line x1="429.22" y1="98.56" x2="433.22" y2="98.56" stroke="#333" stroke-width="1"/>
<rect x="440.53" y="182.49" width="14.62" height="7.51" fill="#616161" opacity="0.85"><title>Control: 0.330 ×10⁻³</title></rect>
<line x1="447.84" y1="184.20" x2="447.84" y2="180.90" stroke="#333" stroke-width="1"/>
<line x1="445.84" y1="184.20" x2="449.84" y2="184.20" stroke="#333" stroke-width="1"/>
<line x1="445.84" y1="180.90" x2="449.84" y2="180.90" stroke="#333" stroke-width="1"/>
<text x="440.5" y="204" text-anchor="end" font-size="9" fill="#2196F3" transform="rotate(-45,440.5,204)">Phenomenology</text>
<rect x="465.68" y="115.53" width="14.62" height="74.47" fill="#2E7D32" opacity="0.85"><title>Partner Identity: 3.270 ×10⁻³</title></rect>
<line x1="472.99" y1="127.44" x2="472.99" y2="109.32" stroke="#333" stroke-width="1"/>
<line x1="470.99" y1="127.44" x2="474.99" y2="127.44" stroke="#333" stroke-width="1"/>
<line x1="470.99" y1="109.32" x2="474.99" y2="109.32" stroke="#333" stroke-width="1"/>
<rect x="482.29" y="182.31" width="14.62" height="7.69" fill="#616161" opacity="0.85"><title>Control: 0.338 ×10⁻³</title></rect>
<line x1="489.60" y1="184.06" x2="489.60" y2="180.79" stroke="#333" stroke-width="1"/>
<line x1="487.60" y1="184.06" x2="491.60" y2="184.06" stroke="#333" stroke-width="1"/>
<line x1="487.60" y1="180.79" x2="491.60" y2="180.79" stroke="#333" stroke-width="1"/>
<text x="482.3" y="204" text-anchor="end" font-size="9" fill="#2196F3" transform="rotate(-45,482.3,204)">Embodiment</text>
<rect x="507.44" y="123.77" width="14.62" height="66.23" fill="#2E7D32" opacity="0.85"><title>Partner Identity: 2.908 ×10⁻³</title></rect>
<line x1="514.75" y1="138.33" x2="514.75" y2="113.88" stroke="#333" stroke-width="1"/>
<line x1="512.75" y1="138.33" x2="516.75" y2="138.33" stroke="#333" stroke-width="1"/>
<line x1="512.75" y1="113.88" x2="516.75" y2="113.88" stroke="#333" stroke-width="1"/>
<rect x="524.06" y="186.05" width="14.62" height="3.95" fill="#616161" opacity="0.85"><title>Control: 0.174 ×10⁻³</title></rect>
<line x1="531.37" y1="186.75" x2="531.37" y2="184.98" stroke="#333" stroke-width="1"/>
<line x1="529.37" y1="186.75" x2="533.37" y2="186.75" stroke="#333" stroke-width="1"/>
<line x1="529.37" y1="184.98" x2="533.37" y2="184.98" stroke="#333" stroke-width="1"/>
<text x="524.1" y="204" text-anchor="end" font-size="9" fill="#2196F3" transform="rotate(-45,524.1,204)">Animacy</text>
<rect x="549.21" y="148.99" width="14.62" height="41.01" fill="#2E7D32" opacity="0.85"><title>Partner Identity: 1.801 ×10⁻³</title></rect>
<line x1="556.51" y1="158.22" x2="556.51" y2="140.50" stroke="#333" stroke-width="1"/>
<line x1="554.51" y1="158.22" x2="558.51" y2="158.22" stroke="#333" stroke-width="1"/>
<line x1="554.51" y1="140.50" x2="558.51" y2="140.50" stroke="#333" stroke-width="1"/>
<rect x="565.82" y="184.17" width="14.62" height="5.83" fill="#616161" opacity="0.85"><title>Control: 0.256 ×10⁻³</title></rect>
<line x1="573.13" y1="184.92" x2="573.13" y2="183.42" stroke="#333" stroke-width="1"/>
<line x1="571.13" y1="184.92" x2="575.13" y2="184.92" stroke="#333" stroke-width="1"/>
<line x1="571.13" y1="183.42" x2="575.13" y2="183.42" stroke="#333" stroke-width="1"/>
<text x="565.8" y="204" text-anchor="end" font-size="9" fill="#FF9800" transform="rotate(-45,565.8,204)">Expertise</text>
<rect x="590.97" y="167.96" width="14.62" height="22.04" fill="#2E7D32" opacity="0.85"><title>Partner Identity: 0.968 ×10⁻³</title></rect>
<line x1="598.28" y1="176.60" x2="598.28" y2="163.48" stroke="#333" stroke-width="1"/>
<line x1="596.28" y1="176.60" x2="600.28" y2="176.60" stroke="#333" stroke-width="1"/>
<line x1="596.28" y1="163.48" x2="600.28" y2="163.48" stroke="#333" stroke-width="1"/>
<rect x="607.59" y="185.29" width="14.62" height="4.71" fill="#616161" opacity="0.85"><title>Control: 0.207 ×10⁻³</title></rect>
<line x1="614.90" y1="187.00" x2="614.90" y2="183.29" stroke="#333" stroke-width="1"/>
<line x1="612.90" y1="187.00" x2="616.90" y2="187.00" stroke="#333" stroke-width="1"/>
<line x1="612.90" y1="183.29" x2="616.90" y2="183.29" stroke="#333" stroke-width="1"/>
<text x="607.6" y="204" text-anchor="end" font-size="9" fill="#FF9800" transform="rotate(-45,607.6,204)">Formality</text>
<rect x="632.74" y="175.98" width="14.62" height="14.02" fill="#2E7D32" opacity="0.85"><title>Partner Identity: 0.616 ×10⁻³</title></rect>
<line x1="640.04" y1="184.88" x2="640.04" y2="166.57" stroke="#333" stroke-width="1"/>
<line x1="638.04" y1="184.88" x2="642.04" y2="184.88" stroke="#333" stroke-width="1"/>
<line x1="638.04" y1="166.57" x2="642.04" y2="166.57" stroke="#333" stroke-width="1"/>
<rect x="649.35" y="186.01" width="14.62" height="3.99" fill="#616161" opacity="0.85"><title>Control: 0.175 ×10⁻³</title></rect>
<line x1="656.66" y1="186.99" x2="656.66" y2="182.99" stroke="#333" stroke-width="1"/>
<line x1="654.66" y1="186.99" x2="658.66" y2="186.99" stroke="#333" stroke-width="1"/>
<line x1="654.66" y1="182.99" x2="658.66" y2="182.99" stroke="#333" stroke-width="1"/>
<text x="649.4" y="204" text-anchor="end" font-size="9" fill="#FF9800" transform="rotate(-45,649.4,204)">Helpfulness</text>
<rect x="674.50" y="71.92" width="14.62" height="118.08" fill="#2E7D32" opacity="0.85"><title>Partner Identity: 5.185 ×10⁻³</title></rect>
<line x1="681.81" y1="103.83" x2="681.81" y2="25.50" stroke="#333" stroke-width="1"/>
<line x1="679.81" y1="103.83" x2="683.81" y2="103.83" stroke="#333" stroke-width="1"/>
<line x1="679.81" y1="25.50" x2="683.81" y2="25.50" stroke="#333" stroke-width="1"/>
<rect x="691.12" y="186.12" width="14.62" height="3.88" fill="#616161" opacity="0.85"><title>Control: 0.170 ×10⁻³</title></rect>
<line x1="698.43" y1="186.73" x2="698.43" y2="185.55" stroke="#333" stroke-width="1"/>
<line x1="696.43" y1="186.73" x2="700.43" y2="186.73" stroke="#333" stroke-width="1"/>
<line x1="696.43" y1="185.55" x2="700.43" y2="185.55" stroke="#333" stroke-width="1"/>
<text x="691.1" y="204" text-anchor="end" font-size="9" fill="#00BCD4" transform="rotate(-45,691.1,204)">SysPrompt</text>
<line x1="0" y1="190" x2="710" y2="190" stroke="#333"/>
<line x1="0" y1="0" x2="0" y2="190" stroke="#333"/>
</g>
<rect x="70" y="320" width="10" height="10" fill="#2E7D32"/>
<text x="84" y="328" font-size="9" fill="#333">Partner Identity</text>
<rect x="210" y="320" width="10" height="10" fill="#616161"/>
<text x="224" y="328" font-size="9" fill="#333">Control</text>
</svg>