<svg viewBox="0 0 800 340" xmlns="http://www.w3.org/2000/svg" style="width:100%;max-width:800px;height:auto;font-family:Arial,sans-serif;">
<rect width="800" height="340" fill="white"/>

<g transform="translate(70,30)">
<line x1="0" y1="190.0" x2="710" y2="190.0" stroke="#eee" stroke-width="1"/>
<text x="-8" y="194.0" text-anchor="end" font-size="10" fill="#666">0.00</text>
<line x1="0" y1="152.0" x2="710" y2="152.0" stroke="#eee" stroke-width="1"/>
<text x="-8" y="156.0" text-anchor="end" font-size="10" fill="#666">1.67</text>
<line x1="0" y1="114.0" x2="710" y2="114.0" stroke="#eee" stroke-width="1"/>
<text x="-8" y="118.0" text-anchor="end" font-size="10" fill="#666">3.34</text>
<line x1="0" y1="76.0" x2="710" y2="76.0" stroke="#eee" stroke-width="1"/>
<text x="-8" y="80.0" text-anchor="end" font-size="10" fill="#666">5.01</text>
<line x1="0" y1="38.0" x2="710" y2="38.0" stroke="#eee" stroke-width="1"/>
<text x="-8" y="42.0" text-anchor="end" font-size="10" fill="#666">6.67</text>
<line x1="0" y1="0.0" x2="710" y2="0.0" stroke="#eee" stroke-width="1"/>
<text x="-8" y="4.0" text-anchor="end" font-size="10" fill="#666">8.34</text>
<text x="-50" y="95.0" text-anchor="middle" font-size="11" fill="#333" transform="rotate(-90,-50,95.0)">Mean R² (×10⁻³)</text>
<line x1="83.52941176470588" y1="0" x2="83.52941176470588" y2="190" stroke="#ddd" stroke-width="1" stroke-dasharray="4,3"/>
<rect x="6.26" y="185.63" width="14.62" height="4.37" fill="#81C784" opacity="0.85"><title>Partner Identity: 0.192 ×10⁻³</title></rect>
<line x1="13.57" y1="186.44" x2="13.57" y2="184.20" stroke="#333" stroke-width="1"/>
<line x1="11.57" y1="186.44" x2="15.57" y2="186.44" stroke="#333" stroke-width="1"/>
<line x1="11.57" y1="184.20" x2="15.57" y2="184.20" stroke="#333" stroke-width="1"/>
<rect x="22.88" y="184.25" width="14.62" height="5.75" fill="#BDBDBD" opacity="0.85"><title>Control: 0.253 ×10⁻³</title></rect>
<line x1="30.19" y1="184.85" x2="30.19" y2="183.71" stroke="#333" stroke-width="1"/>
<line x1="28.19" y1="184.85" x2="32.19" y2="184.85" stroke="#333" stroke-width="1"/>
<line x1="28.19" y1="183.71" x2="32.19" y2="183.71" stroke="#333" stroke-width="1"/>
<text x="22.9" y="204" text-anchor="end" font-size="9" fill="#9E9E9E" transform="rotate(-45,22.9,204)">Biological</text>
<rect x="48.03" y="175.47" width="14.62" height="14.53" fill="#81C784" opacity="0.85"><title>Partner Identity: 0.638 ×10⁻³</title></rect>
<line x1="55.34" y1="182.71" x2="55.34" y2="170.37" stroke="#333" stroke-width="1"/>
<line x1="53.34" y1="182.71" x2="57.34" y2="182.71" stroke="#333" stroke-width="1"/>
<line x1="53.34" y1="170.37" x2="57.34" y2="170.37" stroke="#333" stroke-width="1"/>
<rect x="64.65" y="184.62" width="14.62" height="5.38" fill="#BDBDBD" opacity="0.85"><title>Control: 0.236 ×10⁻³</title></rect>
<line x1="71.96" y1="186.06" x2="71.96" y2="183.54" stroke="#333" stroke-width="1"/>
<line x1="69.96" y1="186.06" x2="73.96" y2="186.06" stroke="#333" stroke-width="1"/>
<line x1="69.96" y1="183.54" x2="73.96" y2="183.54" stroke="#333" stroke-width="1"/>
<text x="64.6" y="204" text-anchor="end" font-size="9" fill="#9E9E9E" transform="rotate(-45,64.6,204)">Shapes</text>
<rect x="89.79" y="174.58" width="14.62" height="15.42" fill="#81C784" opacity="0.85"><title>Partner Identity: 0.677 ×10⁻³</title></rect>
<line x1="97.10" y1="180.23" x2="97.10" y2="169.09" stroke="#333" stroke-width="1"/>
<line x1="95.10" y1="180.23" x2="99.10" y2="180.23" stroke="#333" stroke-width="1"/>
<line x1="95.10" y1="169.09" x2="99.10" y2="169.09" stroke="#333" stroke-width="1"/>
<rect x="106.41" y="184.58" width="14.62" height="5.42" fill="#BDBDBD" opacity="0.85"><title>Control: 0.238 ×10⁻³</title></rect>
<line x1="113.72" y1="185.31" x2="113.72" y2="183.99" stroke="#333" stroke-width="1"/>
<line x1="111.72" y1="185.31" x2="115.72" y2="185.31" stroke="#333" stroke-width="1"/>
<line x1="111.72" y1="183.99" x2="115.72" y2="183.99" stroke="#333" stroke-width="1"/>
<text x="106.4" y="204" text-anchor="end" font-size="9" fill="#2196F3" transform="rotate(-45,106.4,204)">Attention</text>
<rect x="131.56" y="178.94" width="14.62" height="11.06" fill="#81C784" opacity="0.85"><title>Partner Identity: 0.486 ×10⁻³</title></rect>
<line x1="138.87" y1="183.28" x2="138.87" y2="168.96" stroke="#333" stroke-width="1"/>
<line x1="136.87" y1="183.28" x2="140.87" y2="183.28" stroke="#333" stroke-width="1"/>
<line x1="136.87" y1="168.96" x2="140.87" y2="168.96" stroke="#333" stroke-width="1"/>
<rect x="148.18" y="185.19" width="14.62" height="4.81" fill="#BDBDBD" opacity="0.85"><title>Control: 0.211 ×10⁻³</title></rect>
<line x1="155.49" y1="185.85" x2="155.49" y2="184.25" stroke="#333" stroke-width="1"/>
<line x1="153.49" y1="185.85" x2="157.49" y2="185.85" stroke="#333" stroke-width="1"/>
<line x1="153.49" y1="184.25" x2="157.49" y2="184.25" stroke="#333" stroke-width="1"/>
<text x="148.2" y="204" text-anchor="end" font-size="9" fill="#2196F3" transform="rotate(-45,148.2,204)">Social</text>
<rect x="173.32" y="172.14" width="14.62" height="17.86" fill="#81C784" opacity="0.85"><title>Partner Identity: 0.784 ×10⁻³</title></rect>
<line x1="180.63" y1="178.30" x2="180.63" y2="168.24" stroke="#333" stroke-width="1"/>
<line x1="178.63" y1="178.30" x2="182.63" y2="178.30" stroke="#333" stroke-width="1"/>
<line x1="178.63" y1="168.24" x2="182.63" y2="168.24" stroke="#333" stroke-width="1"/>
<rect x="189.94" y="184.93" width="14.62" height="5.07" fill="#BDBDBD" opacity="0.85"><title>Control: 0.222 ×10⁻³</title></rect>
<line x1="197.25" y1="185.63" x2="197.25" y2="184.34" stroke="#333" stroke-width="1"/>
<line x1="195.25" y1="185.63" x2="199.25" y2="185.63" stroke="#333" stroke-width="1"/>
<line x1="195.25" y1="184.34" x2="199.25" y2="184.34" stroke="#333" stroke-width="1"/>
<text x="189.9" y="204" text-anchor="end" font-size="9" fill="#2196F3" transform="rotate(-45,189.9,204)">Cognitive</text>
<rect x="215.09" y="181.15" width="14.62" height="8.85" fill="#81C784" opacity="0.85"><title>Partner Identity: 0.388 ×10⁻³</title></rect>
<line x1="222.40" y1="183.90" x2="222.40" y2="173.49" stroke="#333" stroke-width="1"/>
<line x1="220.40" y1="183.90" x2="224.40" y2="183.90" stroke="#333" stroke-width="1"/>
<line x1="220.40" y1="173.49" x2="224.40" y2="173.49" stroke="#333" stroke-width="1"/>
<rect x="231.71" y="184.84" width="14.62" height="5.16" fill="#BDBDBD" opacity="0.85"><title>Control: 0.227 ×10⁻³</title></rect>
<line x1="239.01" y1="185.50" x2="239.01" y2="184.10" stroke="#333" stroke-width="1"/>
<line x1="237.01" y1="185.50" x2="241.01" y2="185.50" stroke="#333" stroke-width="1"/>
<line x1="237.01" y1="184.10" x2="241.01" y2="184.10" stroke="#333" stroke-width="1"/>
<text x="231.7" y="204" text-anchor="end" font-size="9" fill="#2196F3" transform="rotate(-45,231.7,204)">Prediction</text>
<rect x="256.85" y="178.70" width="14.62" height="11.30" fill="#81C784" opacity="0.85"><title>Partner Identity: 0.496 ×10⁻³</title></rect>
<line x1="264.16" y1="184.31" x2="264.16" y2="172.33" stroke="#333" stroke-width="1"/>
<line x1="262.16" y1="184.31" x2="266.16" y2="184.31" stroke="#333" stroke-width="1"/>
<line x1="262.16" y1="172.33" x2="266.16" y2="172.33" stroke="#333" stroke-width="1"/>
<rect x="273.47" y="185.59" width="14.62" height="4.41" fill="#BDBDBD" opacity="0.85"><title>Control: 0.194 ×10⁻³</title></rect>
<line x1="280.78" y1="186.08" x2="280.78" y2="185.01" stroke="#333" stroke-width="1"/>
<line x1="278.78" y1="186.08" x2="282.78" y2="186.08" stroke="#333" stroke-width="1"/>
<line x1="278.78" y1="185.01" x2="282.78" y2="185.01" stroke="#333" stroke-width="1"/>
<text x="273.5" y="204" text-anchor="end" font-size="9" fill="#2196F3" transform="rotate(-45,273.5,204)">Intentions</text>
<rect x="298.62" y="183.34" width="14.62" height="6.66" fill="#81C784" opacity="0.85"><title>Partner Identity: 0.292 ×10⁻³</title></rect>
<line x1="305.93" y1="185.62" x2="305.93" y2="176.73" stroke="#333" stroke-width="1"/>
<line x1="303.93" y1="185.62" x2="307.93" y2="185.62" stroke="#333" stroke-width="1"/>
<line x1="303.93" y1="176.73" x2="307.93" y2="176.73" stroke="#333" stroke-width="1"/>
<rect x="315.24" y="185.97" width="14.62" height="4.03" fill="#BDBDBD" opacity="0.85"><title>Control: 0.177 ×10⁻³</title></rect>
<line x1="322.54" y1="186.59" x2="322.54" y2="184.98" stroke="#333" stroke-width="1"/>
<line x1="320.54" y1="186.59" x2="324.54" y2="186.59" stroke="#333" stroke-width="1"/>
<line x1="320.54" y1="184.98" x2="324.54" y2="184.98" stroke="#333" stroke-width="1"/>
<text x="315.2" y="204" text-anchor="end" font-size="9" fill="#2196F3" transform="rotate(-45,315.2,204)">Agency</text>
<rect x="340.38" y="184.92" width="14.62" height="5.08" fill="#81C784" opacity="0.85"><title>Partner Identity: 0.223 ×10⁻³</title></rect>
<line x1="347.69" y1="185.82" x2="347.69" y2="182.91" stroke="#333" stroke-width="1"/>
<line x1="345.69" y1="185.82" x2="349.69" y2="185.82" stroke="#333" stroke-width="1"/>
<line x1="345.69" y1="182.91" x2="349.69" y2="182.91" stroke="#333" stroke-width="1"/>
<rect x="357.00" y="185.58" width="14.62" height="4.42" fill="#BDBDBD" opacity="0.85"><title>Control: 0.194 ×10⁻³</title></rect>
<line x1="364.31" y1="186.16" x2="364.31" y2="185.02" stroke="#333" stroke-width="1"/>
<line x1="362.31" y1="186.16" x2="366.31" y2="186.16" stroke="#333" stroke-width="1"/>
<line x1="362.31" y1="185.02" x2="366.31" y2="185.02" stroke="#333" stroke-width="1"/>
<text x="357.0" y="204" text-anchor="end" font-size="9" fill="#2196F3" transform="rotate(-45,357.0,204)">Roles</text>
<rect x="382.15" y="184.56" width="14.62" height="5.44" fill="#81C784" opacity="0.85"><title>Partner Identity: 0.239 ×10⁻³</title></rect>
<line x1="389.46" y1="185.77" x2="389.46" y2="182.41" stroke="#333" stroke-width="1"/>
<line x1="387.46" y1="185.77" x2="391.46" y2="185.77" stroke="#333" stroke-width="1"/>
<line x1="387.46" y1="182.41" x2="391.46" y2="182.41" stroke="#333" stroke-width="1"/>
<rect x="398.76" y="186.56" width="14.62" height="3.44" fill="#BDBDBD" opacity="0.85"><title>Control: 0.151 ×10⁻³</title></rect>
<line x1="406.07" y1="186.90" x2="406.07" y2="186.05" stroke="#333" stroke-width="1"/>
<line x1="404.07" y1="186.90" x2="408.07" y2="186.90" stroke="#333" stroke-width="1"/>
<line x1="404.07" y1="186.05" x2="408.07" y2="186.05" stroke="#333" stroke-width="1"/>
<text x="398.8" y="204" text-anchor="end" font-size="9" fill="#2196F3" transform="rotate(-45,398.8,204)">Emotions</text>
<rect x="423.91" y="185.53" width="14.62" height="4.47" fill="#81C784" opacity="0.85"><title>Partner Identity: 0.196 ×10⁻³</title></rect>
<line x1="431.22" y1="186.54" x2="431.22" y2="183.67" stroke="#333" stroke-width="1"/>
<line x1="429.22" y1="186.54" x2="433.22" y2="186.54" stroke="#333" stroke-width="1"/>
<line x1="429.22" y1="183.67" x2="433.22" y2="183.67" stroke="#333" stroke-width="1"/>
<rect x="440.53" y="185.52" width="14.62" height="4.48" fill="#BDBDBD" opacity="0.85"><title>Control: 0.197 ×10⁻³</title></rect>
<line x1="447.84" y1="186.15" x2="447.84" y2="184.80" stroke="#333" stroke-width="1"/>
<line x1="445.84" y1="186.15" x2="449.84" y2="186.15" stroke="#333" stroke-width="1"/>
<line x1="445.84" y1="184.80" x2="449.84" y2="184.80" stroke="#333" stroke-width="1"/>
<text x="440.5" y="204" text-anchor="end" font-size="9" fill="#2196F3" transform="rotate(-45,440.5,204)">Phenomenology</text>
<rect x="465.68" y="186.03" width="14.62" height="3.97" fill="#81C784" opacity="0.85"><title>Partner Identity: 0.174 ×10⁻³</title></rect>
<line x1="472.99" y1="187.25" x2="472.99" y2="183.55" stroke="#333" stroke-width="1"/>
<line x1="470.99" y1="187.25" x2="474.99" y2="187.25" stroke="#333" stroke-width="1"/>
<line x1="470.99" y1="183.55" x2="474.99" y2="183.55" stroke="#333" stroke-width="1"/>
<rect x="482.29" y="184.58" width="14.62" height="5.42" fill="#BDBDBD" opacity="0.85"><title>Control: 0.238 ×10⁻³</title></rect>
<line x1="489.60" y1="185.37" x2="489.60" y2="183.82" stroke="#333" stroke-width="1"/>
<line x1="487.60" y1="185.37" x2="491.60" y2="185.37" stroke="#333" stroke-width="1"/>
<line x1="487.60" y1="183.82" x2="491.60" y2="183.82" stroke="#333" stroke-width="1"/>
<text x="482.3" y="204" text-anchor="end" font-size="9" fill="#2196F3" transform="rotate(-45,482.3,204)">Embodiment</text>
<rect x="507.44" y="179.14" width="14.62" height="10.86" fill="#81C784" opacity="0.85"><title>Partner Identity: 0.477 ×10⁻³</title></rect>
<line x1="514.75" y1="182.40" x2="514.75" y2="176.06" stroke="#333" stroke-width="1"/>
<line x1="512.75" y1="182.40" x2="516.75" y2="182.40" stroke="#333" stroke-width="1"/>
<line x1="512.75" y1="176.06" x2="516.75" y2="176.06" stroke="#333" stroke-width="1"/>
<rect x="524.06" y="184.45" width="14.62" height="5.55" fill="#BDBDBD" opacity="0.85"><title>Control: 0.244 ×10⁻³</title></rect>
<line x1="531.37" y1="185.19" x2="531.37" y2="183.83" stroke="#333" stroke-width="1"/>
<line x1="529.37" y1="185.19" x2="533.37" y2="185.19" stroke="#333" stroke-width="1"/>
<line x1="529.37" y1="183.83" x2="533.37" y2="183.83" stroke="#333" stroke-width="1"/>
<text x="524.1" y="204" text-anchor="end" font-size="9" fill="#2196F3" transform="rotate(-45,524.1,204)">Animacy</text>
<rect x="549.21" y="177.27" width="14.62" height="12.73" fill="#81C784" opacity="0.85"><title>Partner Identity: 0.559 ×10⁻³</title></rect>
<line x1="556.51" y1="180.10" x2="556.51" y2="174.09" stroke="#333" stroke-width="1"/>
<line x1="554.51" y1="180.10" x2="558.51" y2="180.10" stroke="#333" stroke-width="1"/>
<line x1="554.51" y1="174.09" x2="558.51" y2="174.09" stroke="#333" stroke-width="1"/>
<rect x="565.82" y="185.21" width="14.62" height="4.79" fill="#BDBDBD" opacity="0.85"><title>Control: 0.210 ×10⁻³</title></rect>
<line x1="573.13" y1="185.67" x2="573.13" y2="184.63" stroke="#333" stroke-width="1"/>
<line x1="571.13" y1="185.67" x2="575.13" y2="185.67" stroke="#333" stroke-width="1"/>
<line x1="571.13" y1="184.63" x2="575.13" y2="184.63" stroke="#333" stroke-width="1"/>
<text x="565.8" y="204" text-anchor="end" font-size="9" fill="#FF9800" transform="rotate(-45,565.8,204)">Expertise</text>
<rect x="590.97" y="181.52" width="14.62" height="8.48" fill="#81C784" opacity="0.85"><title>Partner Identity: 0.372 ×10⁻³</title></rect>
<line x1="598.28" y1="185.65" x2="598.28" y2="178.11" stroke="#333" stroke-width="1"/>
<line x1="596.28" y1="185.65" x2="600.28" y2="185.65" stroke="#333" stroke-width="1"/>
<line x1="596.28" y1="178.11" x2="600.28" y2="178.11" stroke="#333" stroke-width="1"/>
<rect x="607.59" y="183.85" width="14.62" height="6.15" fill="#BDBDBD" opacity="0.85"><title>Control: 0.270 ×10⁻³</title></rect>
<line x1="614.90" y1="185.54" x2="614.90" y2="182.57" stroke="#333" stroke-width="1"/>
<line x1="612.90" y1="185.54" x2="616.90" y2="185.54" stroke="#333" stroke-width="1"/>
<line x1="612.90" y1="182.57" x2="616.90" y2="182.57" stroke="#333" stroke-width="1"/>
<text x="607.6" y="204" text-anchor="end" font-size="9" fill="#FF9800" transform="rotate(-45,607.6,204)">Formality</text>
<rect x="632.74" y="174.65" width="14.62" height="15.35" fill="#81C784" opacity="0.85"><title>Partner Identity: 0.674 ×10⁻³</title></rect>
<line x1="640.04" y1="184.63" x2="640.04" y2="170.69" stroke="#333" stroke-width="1"/>
<line x1="638.04" y1="184.63" x2="642.04" y2="184.63" stroke="#333" stroke-width="1"/>
<line x1="638.04" y1="170.69" x2="642.04" y2="170.69" stroke="#333" stroke-width="1"/>
<rect x="649.35" y="183.85" width="14.62" height="6.15" fill="#BDBDBD" opacity="0.85"><title>Control: 0.270 ×10⁻³</title></rect>
<line x1="656.66" y1="185.79" x2="656.66" y2="183.25" stroke="#333" stroke-width="1"/>
<line x1="654.66" y1="185.79" x2="658.66" y2="185.79" stroke="#333" stroke-width="1"/>
<line x1="654.66" y1="183.25" x2="658.66" y2="183.25" stroke="#333" stroke-width="1"/>
<text x="649.4" y="204" text-anchor="end" font-size="9" fill="#FF9800" transform="rotate(-45,649.4,204)">Helpfulness</text>
<rect x="674.50" y="169.61" width="14.62" height="20.39" fill="#81C784" opacity="0.85"><title>Partner Identity: 0.895 ×10⁻³</title></rect>
<line x1="681.81" y1="173.88" x2="681.81" y2="165.05" stroke="#333" stroke-width="1"/>
<line x1="679.81" y1="173.88" x2="683.81" y2="173.88" stroke="#333" stroke-width="1"/>
<line x1="679.81" y1="165.05" x2="683.81" y2="165.05" stroke="#333" stroke-width="1"/>
<rect x="691.12" y="185.69" width="14.62" height="4.31" fill="#BDBDBD" opacity="0.85"><title>Control: 0.189 ×10⁻³</title></rect>
<line x1="698.43" y1="186.15" x2="698.43" y2="185.16" stroke="#333" stroke-width="1"/>
<line x1="696.43" y1="186.15" x2="700.43" y2="186.15" stroke="#333" stroke-width="1"/>
<line x1="696.43" y1="185.16" x2="700.43" y2="185.16" stroke="#333" stroke-width="1"/>
<text x="691.1" y="204" text-anchor="end" font-size="9" fill="#00BCD4" transform="rotate(-45,691.1,204)">SysPrompt</text>
<line x1="0" y1="190" x2="710" y2="190" stroke="#333"/>
<line x1="0" y1="0" x2="0" y2="190" stroke="#333"/>
</g>
<rect x="70" y="320" width="10" height="10" fill="#81C784"/>
<text x="84" y="328" font-size="9" fill="#333">Partner Identity</text>
<rect x="210" y="320" width="10" height="10" fill="#BDBDBD"/>
<text x="224" y="328" font-size="9" fill="#333">Control</text>
</svg>