<svg viewBox="0 0 800 320" xmlns="http://www.w3.org/2000/svg" style="width:100%;max-width:800px;height:auto;font-family:Arial,sans-serif;">
<rect width="800" height="320" fill="white"/>

<g transform="translate(70,30)">
<line x1="0" y1="180.0" x2="710" y2="180.0" stroke="#eee" stroke-width="1"/>
<text x="-8" y="184.0" text-anchor="end" font-size="10" fill="#666">0.00</text>
<line x1="0" y1="144.0" x2="710" y2="144.0" stroke="#eee" stroke-width="1"/>
<text x="-8" y="148.0" text-anchor="end" font-size="10" fill="#666">1.67</text>
<line x1="0" y1="108.0" x2="710" y2="108.0" stroke="#eee" stroke-width="1"/>
<text x="-8" y="112.0" text-anchor="end" font-size="10" fill="#666">3.34</text>
<line x1="0" y1="72.0" x2="710" y2="72.0" stroke="#eee" stroke-width="1"/>
<text x="-8" y="76.0" text-anchor="end" font-size="10" fill="#666">5.01</text>
<line x1="0" y1="36.0" x2="710" y2="36.0" stroke="#eee" stroke-width="1"/>
<text x="-8" y="40.0" text-anchor="end" font-size="10" fill="#666">6.67</text>
<line x1="0" y1="0.0" x2="710" y2="0.0" stroke="#eee" stroke-width="1"/>
<text x="-8" y="4.0" text-anchor="end" font-size="10" fill="#666">8.34</text>
<text x="-50" y="90.0" text-anchor="middle" font-size="11" fill="#333" transform="rotate(-90,-50,90.0)">Mean R² (×10⁻³)</text>
<rect x="8.19" y="165.39" width="19.12" height="14.61" fill="#81C784" opacity="0.85"><title>Partner Identity — Attention: 0.677 ×10⁻³</title></rect>
<line x1="17.75" y1="170.74" x2="17.75" y2="160.19" stroke="#333" stroke-width="1"/>
<line x1="15.75" y1="170.74" x2="19.75" y2="170.74" stroke="#333" stroke-width="1"/>
<line x1="15.75" y1="160.19" x2="19.75" y2="160.19" stroke="#333" stroke-width="1"/>
<rect x="29.31" y="174.87" width="19.12" height="5.13" fill="#BDBDBD" opacity="0.85"><title>Control — Attention: 0.238 ×10⁻³</title></rect>
<line x1="38.87" y1="175.56" x2="38.87" y2="174.31" stroke="#333" stroke-width="1"/>
<line x1="36.87" y1="175.56" x2="40.87" y2="175.56" stroke="#333" stroke-width="1"/>
<line x1="36.87" y1="174.31" x2="40.87" y2="174.31" stroke="#333" stroke-width="1"/>
<text x="29.3" y="194" text-anchor="end" font-size="10" fill="#2196F3" transform="rotate(-30,29.3,194)">Attention</text>
<rect x="62.81" y="169.52" width="19.12" height="10.48" fill="#81C784" opacity="0.85"><title>Partner Identity — Social: 0.486 ×10⁻³</title></rect>
<line x1="72.37" y1="173.64" x2="72.37" y2="160.06" stroke="#333" stroke-width="1"/>
<line x1="70.37" y1="173.64" x2="74.37" y2="173.64" stroke="#333" stroke-width="1"/>
<line x1="70.37" y1="160.06" x2="74.37" y2="160.06" stroke="#333" stroke-width="1"/>
<rect x="83.92" y="175.45" width="19.12" height="4.55" fill="#BDBDBD" opacity="0.85"><title>Control — Social: 0.211 ×10⁻³</title></rect>
<line x1="93.48" y1="176.07" x2="93.48" y2="174.55" stroke="#333" stroke-width="1"/>
<line x1="91.48" y1="176.07" x2="95.48" y2="176.07" stroke="#333" stroke-width="1"/>
<line x1="91.48" y1="174.55" x2="95.48" y2="174.55" stroke="#333" stroke-width="1"/>
<text x="83.9" y="194" text-anchor="end" font-size="10" fill="#2196F3" transform="rotate(-30,83.9,194)">Social</text>
<rect x="117.42" y="163.08" width="19.12" height="16.92" fill="#81C784" opacity="0.85"><title>Partner Identity — Cognitive: 0.784 ×10⁻³</title></rect>
<line x1="126.98" y1="168.91" x2="126.98" y2="159.39" stroke="#333" stroke-width="1"/>
<line x1="124.98" y1="168.91" x2="128.98" y2="168.91" stroke="#333" stroke-width="1"/>
<line x1="124.98" y1="159.39" x2="128.98" y2="159.39" stroke="#333" stroke-width="1"/>
<rect x="138.54" y="175.20" width="19.12" height="4.80" fill="#BDBDBD" opacity="0.85"><title>Control — Cognitive: 0.222 ×10⁻³</title></rect>
<line x1="148.10" y1="175.86" x2="148.10" y2="174.64" stroke="#333" stroke-width="1"/>
<line x1="146.10" y1="175.86" x2="150.10" y2="175.86" stroke="#333" stroke-width="1"/>
<line x1="146.10" y1="174.64" x2="150.10" y2="174.64" stroke="#333" stroke-width="1"/>
<text x="138.5" y="194" text-anchor="end" font-size="10" fill="#2196F3" transform="rotate(-30,138.5,194)">Cognitive</text>
<rect x="172.04" y="171.62" width="19.12" height="8.38" fill="#81C784" opacity="0.85"><title>Partner Identity — Prediction: 0.388 ×10⁻³</title></rect>
<line x1="181.60" y1="174.22" x2="181.60" y2="164.36" stroke="#333" stroke-width="1"/>
<line x1="179.60" y1="174.22" x2="183.60" y2="174.22" stroke="#333" stroke-width="1"/>
<line x1="179.60" y1="164.36" x2="183.60" y2="164.36" stroke="#333" stroke-width="1"/>
<rect x="193.15" y="175.11" width="19.12" height="4.89" fill="#BDBDBD" opacity="0.85"><title>Control — Prediction: 0.227 ×10⁻³</title></rect>
<line x1="202.71" y1="175.74" x2="202.71" y2="174.41" stroke="#333" stroke-width="1"/>
<line x1="200.71" y1="175.74" x2="204.71" y2="175.74" stroke="#333" stroke-width="1"/>
<line x1="200.71" y1="174.41" x2="204.71" y2="174.41" stroke="#333" stroke-width="1"/>
<text x="193.2" y="194" text-anchor="end" font-size="10" fill="#2196F3" transform="rotate(-30,193.2,194)">Prediction</text>
<rect x="226.65" y="169.29" width="19.12" height="10.71" fill="#81C784" opacity="0.85"><title>Partner Identity — Intentions: 0.496 ×10⁻³</title></rect>
<line x1="236.21" y1="174.61" x2="236.21" y2="163.26" stroke="#333" stroke-width="1"/>
<line x1="234.21" y1="174.61" x2="238.21" y2="174.61" stroke="#333" stroke-width="1"/>
<line x1="234.21" y1="163.26" x2="238.21" y2="163.26" stroke="#333" stroke-width="1"/>
<rect x="247.77" y="175.82" width="19.12" height="4.18" fill="#BDBDBD" opacity="0.85"><title>Control — Intentions: 0.194 ×10⁻³</title></rect>
<line x1="257.33" y1="176.28" x2="257.33" y2="175.27" stroke="#333" stroke-width="1"/>
<line x1="255.33" y1="176.28" x2="259.33" y2="176.28" stroke="#333" stroke-width="1"/>
<line x1="255.33" y1="175.27" x2="259.33" y2="175.27" stroke="#333" stroke-width="1"/>
<text x="247.8" y="194" text-anchor="end" font-size="10" fill="#2196F3" transform="rotate(-30,247.8,194)">Intentions</text>
<rect x="281.27" y="173.69" width="19.12" height="6.31" fill="#81C784" opacity="0.85"><title>Partner Identity — Agency: 0.292 ×10⁻³</title></rect>
<line x1="290.83" y1="175.85" x2="290.83" y2="167.43" stroke="#333" stroke-width="1"/>
<line x1="288.83" y1="175.85" x2="292.83" y2="175.85" stroke="#333" stroke-width="1"/>
<line x1="288.83" y1="167.43" x2="292.83" y2="167.43" stroke="#333" stroke-width="1"/>
<rect x="302.38" y="176.18" width="19.12" height="3.82" fill="#BDBDBD" opacity="0.85"><title>Control — Agency: 0.177 ×10⁻³</title></rect>
<line x1="311.94" y1="176.77" x2="311.94" y2="175.24" stroke="#333" stroke-width="1"/>
<line x1="309.94" y1="176.77" x2="313.94" y2="176.77" stroke="#333" stroke-width="1"/>
<line x1="309.94" y1="175.24" x2="313.94" y2="175.24" stroke="#333" stroke-width="1"/>
<text x="302.4" y="194" text-anchor="end" font-size="10" fill="#2196F3" transform="rotate(-30,302.4,194)">Agency</text>
<rect x="335.88" y="175.18" width="19.12" height="4.82" fill="#81C784" opacity="0.85"><title>Partner Identity — Roles: 0.223 ×10⁻³</title></rect>
<line x1="345.44" y1="176.04" x2="345.44" y2="173.28" stroke="#333" stroke-width="1"/>
<line x1="343.44" y1="176.04" x2="347.44" y2="176.04" stroke="#333" stroke-width="1"/>
<line x1="343.44" y1="173.28" x2="347.44" y2="173.28" stroke="#333" stroke-width="1"/>
<rect x="357.00" y="175.82" width="19.12" height="4.18" fill="#BDBDBD" opacity="0.85"><title>Control — Roles: 0.194 ×10⁻³</title></rect>
<line x1="366.56" y1="176.36" x2="366.56" y2="175.28" stroke="#333" stroke-width="1"/>
<line x1="364.56" y1="176.36" x2="368.56" y2="176.36" stroke="#333" stroke-width="1"/>
<line x1="364.56" y1="175.28" x2="368.56" y2="175.28" stroke="#333" stroke-width="1"/>
<text x="357.0" y="194" text-anchor="end" font-size="10" fill="#2196F3" transform="rotate(-30,357.0,194)">Roles</text>
<rect x="390.50" y="174.85" width="19.12" height="5.15" fill="#81C784" opacity="0.85"><title>Partner Identity — Emotions: 0.239 ×10⁻³</title></rect>
<line x1="400.06" y1="176.00" x2="400.06" y2="172.81" stroke="#333" stroke-width="1"/>
<line x1="398.06" y1="176.00" x2="402.06" y2="176.00" stroke="#333" stroke-width="1"/>
<line x1="398.06" y1="172.81" x2="402.06" y2="172.81" stroke="#333" stroke-width="1"/>
<rect x="411.62" y="176.74" width="19.12" height="3.26" fill="#BDBDBD" opacity="0.85"><title>Control — Emotions: 0.151 ×10⁻³</title></rect>
<line x1="421.17" y1="177.06" x2="421.17" y2="176.26" stroke="#333" stroke-width="1"/>
<line x1="419.17" y1="177.06" x2="423.17" y2="177.06" stroke="#333" stroke-width="1"/>
<line x1="419.17" y1="176.26" x2="423.17" y2="176.26" stroke="#333" stroke-width="1"/>
<text x="411.6" y="194" text-anchor="end" font-size="10" fill="#2196F3" transform="rotate(-30,411.6,194)">Emotions</text>
<rect x="445.12" y="175.76" width="19.12" height="4.24" fill="#81C784" opacity="0.85"><title>Partner Identity — Phenomenology: 0.196 ×10⁻³</title></rect>
<line x1="454.67" y1="176.72" x2="454.67" y2="174.00" stroke="#333" stroke-width="1"/>
<line x1="452.67" y1="176.72" x2="456.67" y2="176.72" stroke="#333" stroke-width="1"/>
<line x1="452.67" y1="174.00" x2="456.67" y2="174.00" stroke="#333" stroke-width="1"/>
<rect x="466.23" y="175.75" width="19.12" height="4.25" fill="#BDBDBD" opacity="0.85"><title>Control — Phenomenology: 0.197 ×10⁻³</title></rect>
<line x1="475.79" y1="176.35" x2="475.79" y2="175.08" stroke="#333" stroke-width="1"/>
<line x1="473.79" y1="176.35" x2="477.79" y2="176.35" stroke="#333" stroke-width="1"/>
<line x1="473.79" y1="175.08" x2="477.79" y2="175.08" stroke="#333" stroke-width="1"/>
<text x="466.2" y="194" text-anchor="end" font-size="10" fill="#2196F3" transform="rotate(-30,466.2,194)">Phenomenology</text>
<rect x="499.73" y="176.24" width="19.12" height="3.76" fill="#81C784" opacity="0.85"><title>Partner Identity — Embodiment: 0.174 ×10⁻³</title></rect>
<line x1="509.29" y1="177.39" x2="509.29" y2="173.89" stroke="#333" stroke-width="1"/>
<line x1="507.29" y1="177.39" x2="511.29" y2="177.39" stroke="#333" stroke-width="1"/>
<line x1="507.29" y1="173.89" x2="511.29" y2="173.89" stroke="#333" stroke-width="1"/>
<rect x="520.85" y="174.87" width="19.12" height="5.13" fill="#BDBDBD" opacity="0.85"><title>Control — Embodiment: 0.238 ×10⁻³</title></rect>
<line x1="530.40" y1="175.61" x2="530.40" y2="174.15" stroke="#333" stroke-width="1"/>
<line x1="528.40" y1="175.61" x2="532.40" y2="175.61" stroke="#333" stroke-width="1"/>
<line x1="528.40" y1="174.15" x2="532.40" y2="174.15" stroke="#333" stroke-width="1"/>
<text x="520.8" y="194" text-anchor="end" font-size="10" fill="#2196F3" transform="rotate(-30,520.8,194)">Embodiment</text>
<rect x="554.35" y="169.71" width="19.12" height="10.29" fill="#81C784" opacity="0.85"><title>Partner Identity — Animacy: 0.477 ×10⁻³</title></rect>
<line x1="563.90" y1="172.80" x2="563.90" y2="166.79" stroke="#333" stroke-width="1"/>
<line x1="561.90" y1="172.80" x2="565.90" y2="172.80" stroke="#333" stroke-width="1"/>
<line x1="561.90" y1="166.79" x2="565.90" y2="166.79" stroke="#333" stroke-width="1"/>
<rect x="575.46" y="174.75" width="19.12" height="5.25" fill="#BDBDBD" opacity="0.85"><title>Control — Animacy: 0.244 ×10⁻³</title></rect>
<line x1="585.02" y1="175.45" x2="585.02" y2="174.16" stroke="#333" stroke-width="1"/>
<line x1="583.02" y1="175.45" x2="587.02" y2="175.45" stroke="#333" stroke-width="1"/>
<line x1="583.02" y1="174.16" x2="587.02" y2="174.16" stroke="#333" stroke-width="1"/>
<text x="575.5" y="194" text-anchor="end" font-size="10" fill="#2196F3" transform="rotate(-30,575.5,194)">Animacy</text>
<line x1="600.7692307692307" y1="0" x2="600.7692307692307" y2="180" stroke="#ccc" stroke-width="1" stroke-dasharray="4,3"/>
<rect x="608.96" y="175.86" width="19.12" height="4.14" fill="#81C784" opacity="0.5"><title>Partner Identity — Biological: 0.192 ×10⁻³</title></rect>
<line x1="618.52" y1="176.63" x2="618.52" y2="174.50" stroke="#333" stroke-width="1"/>
<line x1="616.52" y1="176.63" x2="620.52" y2="176.63" stroke="#333" stroke-width="1"/>
<line x1="616.52" y1="174.50" x2="620.52" y2="174.50" stroke="#333" stroke-width="1"/>
<rect x="630.08" y="174.55" width="19.12" height="5.45" fill="#BDBDBD" opacity="0.5"><title>Control — Biological: 0.253 ×10⁻³</title></rect>
<line x1="639.63" y1="175.12" x2="639.63" y2="174.04" stroke="#333" stroke-width="1"/>
<line x1="637.63" y1="175.12" x2="641.63" y2="175.12" stroke="#333" stroke-width="1"/>
<line x1="637.63" y1="174.04" x2="641.63" y2="174.04" stroke="#333" stroke-width="1"/>
<text x="630.1" y="194" text-anchor="end" font-size="10" fill="#9E9E9E" transform="rotate(-30,630.1,194)">Biological</text>
<rect x="663.58" y="166.23" width="19.12" height="13.77" fill="#81C784" opacity="0.5"><title>Partner Identity — Shapes: 0.638 ×10⁻³</title></rect>
<line x1="673.13" y1="173.09" x2="673.13" y2="161.40" stroke="#333" stroke-width="1"/>
<line x1="671.13" y1="173.09" x2="675.13" y2="173.09" stroke="#333" stroke-width="1"/>
<line x1="671.13" y1="161.40" x2="675.13" y2="161.40" stroke="#333" stroke-width="1"/>
<rect x="684.69" y="174.90" width="19.12" height="5.10" fill="#BDBDBD" opacity="0.5"><title>Control — Shapes: 0.236 ×10⁻³</title></rect>
<line x1="694.25" y1="176.27" x2="694.25" y2="173.88" stroke="#333" stroke-width="1"/>
<line x1="692.25" y1="176.27" x2="696.25" y2="176.27" stroke="#333" stroke-width="1"/>
<line x1="692.25" y1="173.88" x2="696.25" y2="173.88" stroke="#333" stroke-width="1"/>
<text x="684.7" y="194" text-anchor="end" font-size="10" fill="#9E9E9E" transform="rotate(-30,684.7,194)">Shapes</text>
<line x1="0" y1="180" x2="710" y2="180" stroke="#333"/>
<line x1="0" y1="0" x2="0" y2="180" stroke="#333"/>
</g>
<rect x="70" y="300" width="10" height="10" fill="#81C784"/>
<text x="84" y="308" font-size="9" fill="#333">Partner Identity</text>
<rect x="210" y="300" width="10" height="10" fill="#BDBDBD"/>
<text x="224" y="308" font-size="9" fill="#333">Control</text>
</svg>