<svg viewBox="0 0 800 320" xmlns="http://www.w3.org/2000/svg" style="width:100%;max-width:800px;height:auto;font-family:Arial,sans-serif;">
<rect width="800" height="320" fill="white"/>

<g transform="translate(70,30)">
<line x1="0" y1="180.0" x2="710" y2="180.0" stroke="#eee" stroke-width="1"/>
<text x="-8" y="184.0" text-anchor="end" font-size="10" fill="#666">0.00</text>
<line x1="0" y1="144.0" x2="710" y2="144.0" stroke="#eee" stroke-width="1"/>
<text x="-8" y="148.0" text-anchor="end" font-size="10" fill="#666">1.67</text>
<line x1="0" y1="108.0" x2="710" y2="108.0" stroke="#eee" stroke-width="1"/>
<text x="-8" y="112.0" text-anchor="end" font-size="10" fill="#666">3.34</text>
<line x1="0" y1="72.0" x2="710" y2="72.0" stroke="#eee" stroke-width="1"/>
<text x="-8" y="76.0" text-anchor="end" font-size="10" fill="#666">5.01</text>
<line x1="0" y1="36.0" x2="710" y2="36.0" stroke="#eee" stroke-width="1"/>
<text x="-8" y="40.0" text-anchor="end" font-size="10" fill="#666">6.67</text>
<line x1="0" y1="0.0" x2="710" y2="0.0" stroke="#eee" stroke-width="1"/>
<text x="-8" y="4.0" text-anchor="end" font-size="10" fill="#666">8.34</text>
<text x="-50" y="90.0" text-anchor="middle" font-size="11" fill="#333" transform="rotate(-90,-50,90.0)">Mean R² (×10⁻³)</text>
<rect x="8.19" y="45.89" width="19.12" height="134.11" fill="#2E7D32" opacity="0.85"><title>Partner Identity — Attention: 6.217 ×10⁻³</title></rect>
<line x1="17.75" y1="66.52" x2="17.75" y2="36.59" stroke="#333" stroke-width="1"/>
<line x1="15.75" y1="66.52" x2="19.75" y2="66.52" stroke="#333" stroke-width="1"/>
<line x1="15.75" y1="36.59" x2="19.75" y2="36.59" stroke="#333" stroke-width="1"/>
<rect x="29.31" y="173.43" width="19.12" height="6.57" fill="#616161" opacity="0.85"><title>Control — Attention: 0.304 ×10⁻³</title></rect>
<line x1="38.87" y1="174.78" x2="38.87" y2="172.30" stroke="#333" stroke-width="1"/>
<line x1="36.87" y1="174.78" x2="40.87" y2="174.78" stroke="#333" stroke-width="1"/>
<line x1="36.87" y1="172.30" x2="40.87" y2="172.30" stroke="#333" stroke-width="1"/>
<text x="29.3" y="194" text-anchor="end" font-size="10" fill="#2196F3" transform="rotate(-30,29.3,194)">Attention</text>
<rect x="62.81" y="58.94" width="19.12" height="121.06" fill="#2E7D32" opacity="0.85"><title>Partner Identity — Social: 5.611 ×10⁻³</title></rect>
<line x1="72.37" y1="79.28" x2="72.37" y2="44.97" stroke="#333" stroke-width="1"/>
<line x1="70.37" y1="79.28" x2="74.37" y2="79.28" stroke="#333" stroke-width="1"/>
<line x1="70.37" y1="44.97" x2="74.37" y2="44.97" stroke="#333" stroke-width="1"/>
<rect x="83.92" y="172.37" width="19.12" height="7.63" fill="#616161" opacity="0.85"><title>Control — Social: 0.354 ×10⁻³</title></rect>
<line x1="93.48" y1="174.23" x2="93.48" y2="170.89" stroke="#333" stroke-width="1"/>
<line x1="91.48" y1="174.23" x2="95.48" y2="174.23" stroke="#333" stroke-width="1"/>
<line x1="91.48" y1="170.89" x2="95.48" y2="170.89" stroke="#333" stroke-width="1"/>
<text x="83.9" y="194" text-anchor="end" font-size="10" fill="#2196F3" transform="rotate(-30,83.9,194)">Social</text>
<rect x="117.42" y="66.31" width="19.12" height="113.69" fill="#2E7D32" opacity="0.85"><title>Partner Identity — Cognitive: 5.270 ×10⁻³</title></rect>
<line x1="126.98" y1="85.66" x2="126.98" y2="55.12" stroke="#333" stroke-width="1"/>
<line x1="124.98" y1="85.66" x2="128.98" y2="85.66" stroke="#333" stroke-width="1"/>
<line x1="124.98" y1="55.12" x2="128.98" y2="55.12" stroke="#333" stroke-width="1"/>
<rect x="138.54" y="172.73" width="19.12" height="7.27" fill="#616161" opacity="0.85"><title>Control — Cognitive: 0.337 ×10⁻³</title></rect>
<line x1="148.10" y1="174.19" x2="148.10" y2="171.14" stroke="#333" stroke-width="1"/>
<line x1="146.10" y1="174.19" x2="150.10" y2="174.19" stroke="#333" stroke-width="1"/>
<line x1="146.10" y1="171.14" x2="150.10" y2="171.14" stroke="#333" stroke-width="1"/>
<text x="138.5" y="194" text-anchor="end" font-size="10" fill="#2196F3" transform="rotate(-30,138.5,194)">Cognitive</text>
<rect x="172.04" y="61.57" width="19.12" height="118.43" fill="#2E7D32" opacity="0.85"><title>Partner Identity — Prediction: 5.490 ×10⁻³</title></rect>
<line x1="181.60" y1="82.90" x2="181.60" y2="47.32" stroke="#333" stroke-width="1"/>
<line x1="179.60" y1="82.90" x2="183.60" y2="82.90" stroke="#333" stroke-width="1"/>
<line x1="179.60" y1="47.32" x2="183.60" y2="47.32" stroke="#333" stroke-width="1"/>
<rect x="193.15" y="172.36" width="19.12" height="7.64" fill="#616161" opacity="0.85"><title>Control — Prediction: 0.354 ×10⁻³</title></rect>
<line x1="202.71" y1="174.23" x2="202.71" y2="170.79" stroke="#333" stroke-width="1"/>
<line x1="200.71" y1="174.23" x2="204.71" y2="174.23" stroke="#333" stroke-width="1"/>
<line x1="200.71" y1="170.79" x2="204.71" y2="170.79" stroke="#333" stroke-width="1"/>
<text x="193.2" y="194" text-anchor="end" font-size="10" fill="#2196F3" transform="rotate(-30,193.2,194)">Prediction</text>
<rect x="226.65" y="77.20" width="19.12" height="102.80" fill="#2E7D32" opacity="0.85"><title>Partner Identity — Intentions: 4.765 ×10⁻³</title></rect>
<line x1="236.21" y1="95.64" x2="236.21" y2="65.66" stroke="#333" stroke-width="1"/>
<line x1="234.21" y1="95.64" x2="238.21" y2="95.64" stroke="#333" stroke-width="1"/>
<line x1="234.21" y1="65.66" x2="238.21" y2="65.66" stroke="#333" stroke-width="1"/>
<rect x="247.77" y="170.21" width="19.12" height="9.79" fill="#616161" opacity="0.85"><title>Control — Intentions: 0.454 ×10⁻³</title></rect>
<line x1="257.33" y1="171.99" x2="257.33" y2="169.04" stroke="#333" stroke-width="1"/>
<line x1="255.33" y1="171.99" x2="259.33" y2="171.99" stroke="#333" stroke-width="1"/>
<line x1="255.33" y1="169.04" x2="259.33" y2="169.04" stroke="#333" stroke-width="1"/>
<text x="247.8" y="194" text-anchor="end" font-size="10" fill="#2196F3" transform="rotate(-30,247.8,194)">Intentions</text>
<rect x="281.27" y="76.09" width="19.12" height="103.91" fill="#2E7D32" opacity="0.85"><title>Partner Identity — Agency: 4.817 ×10⁻³</title></rect>
<line x1="290.83" y1="94.00" x2="290.83" y2="65.37" stroke="#333" stroke-width="1"/>
<line x1="288.83" y1="94.00" x2="292.83" y2="94.00" stroke="#333" stroke-width="1"/>
<line x1="288.83" y1="65.37" x2="292.83" y2="65.37" stroke="#333" stroke-width="1"/>
<rect x="302.38" y="170.82" width="19.12" height="9.18" fill="#616161" opacity="0.85"><title>Control — Agency: 0.425 ×10⁻³</title></rect>
<line x1="311.94" y1="172.95" x2="311.94" y2="169.25" stroke="#333" stroke-width="1"/>
<line x1="309.94" y1="172.95" x2="313.94" y2="172.95" stroke="#333" stroke-width="1"/>
<line x1="309.94" y1="169.25" x2="313.94" y2="169.25" stroke="#333" stroke-width="1"/>
<text x="302.4" y="194" text-anchor="end" font-size="10" fill="#2196F3" transform="rotate(-30,302.4,194)">Agency</text>
<rect x="335.88" y="81.77" width="19.12" height="98.23" fill="#2E7D32" opacity="0.85"><title>Partner Identity — Roles: 4.553 ×10⁻³</title></rect>
<line x1="345.44" y1="102.84" x2="345.44" y2="65.95" stroke="#333" stroke-width="1"/>
<line x1="343.44" y1="102.84" x2="347.44" y2="102.84" stroke="#333" stroke-width="1"/>
<line x1="343.44" y1="65.95" x2="347.44" y2="65.95" stroke="#333" stroke-width="1"/>
<rect x="357.00" y="174.31" width="19.12" height="5.69" fill="#616161" opacity="0.85"><title>Control — Roles: 0.264 ×10⁻³</title></rect>
<line x1="366.56" y1="175.71" x2="366.56" y2="172.24" stroke="#333" stroke-width="1"/>
<line x1="364.56" y1="175.71" x2="368.56" y2="175.71" stroke="#333" stroke-width="1"/>
<line x1="364.56" y1="172.24" x2="368.56" y2="172.24" stroke="#333" stroke-width="1"/>
<text x="357.0" y="194" text-anchor="end" font-size="10" fill="#2196F3" transform="rotate(-30,357.0,194)">Roles</text>
<rect x="390.50" y="91.29" width="19.12" height="88.71" fill="#2E7D32" opacity="0.85"><title>Partner Identity — Emotions: 4.112 ×10⁻³</title></rect>
<line x1="400.06" y1="104.49" x2="400.06" y2="81.50" stroke="#333" stroke-width="1"/>
<line x1="398.06" y1="104.49" x2="402.06" y2="104.49" stroke="#333" stroke-width="1"/>
<line x1="398.06" y1="81.50" x2="402.06" y2="81.50" stroke="#333" stroke-width="1"/>
<rect x="411.62" y="173.76" width="19.12" height="6.24" fill="#616161" opacity="0.85"><title>Control — Emotions: 0.289 ×10⁻³</title></rect>
<line x1="421.17" y1="174.77" x2="421.17" y2="172.85" stroke="#333" stroke-width="1"/>
<line x1="419.17" y1="174.77" x2="423.17" y2="174.77" stroke="#333" stroke-width="1"/>
<line x1="419.17" y1="172.85" x2="423.17" y2="172.85" stroke="#333" stroke-width="1"/>
<text x="411.6" y="194" text-anchor="end" font-size="10" fill="#2196F3" transform="rotate(-30,411.6,194)">Emotions</text>
<rect x="445.12" y="99.06" width="19.12" height="80.94" fill="#2E7D32" opacity="0.85"><title>Partner Identity — Phenomenology: 3.752 ×10⁻³</title></rect>
<line x1="454.67" y1="112.75" x2="454.67" y2="93.37" stroke="#333" stroke-width="1"/>
<line x1="452.67" y1="112.75" x2="456.67" y2="112.75" stroke="#333" stroke-width="1"/>
<line x1="452.67" y1="93.37" x2="456.67" y2="93.37" stroke="#333" stroke-width="1"/>
<rect x="466.23" y="172.89" width="19.12" height="7.11" fill="#616161" opacity="0.85"><title>Control — Phenomenology: 0.330 ×10⁻³</title></rect>
<line x1="475.79" y1="174.50" x2="475.79" y2="171.38" stroke="#333" stroke-width="1"/>
<line x1="473.79" y1="174.50" x2="477.79" y2="174.50" stroke="#333" stroke-width="1"/>
<line x1="473.79" y1="171.38" x2="477.79" y2="171.38" stroke="#333" stroke-width="1"/>
<text x="466.2" y="194" text-anchor="end" font-size="10" fill="#2196F3" transform="rotate(-30,466.2,194)">Phenomenology</text>
<rect x="499.73" y="109.45" width="19.12" height="70.55" fill="#2E7D32" opacity="0.85"><title>Partner Identity — Embodiment: 3.270 ×10⁻³</title></rect>
<line x1="509.29" y1="120.73" x2="509.29" y2="103.57" stroke="#333" stroke-width="1"/>
<line x1="507.29" y1="120.73" x2="511.29" y2="120.73" stroke="#333" stroke-width="1"/>
<line x1="507.29" y1="103.57" x2="511.29" y2="103.57" stroke="#333" stroke-width="1"/>
<rect x="520.85" y="172.71" width="19.12" height="7.29" fill="#616161" opacity="0.85"><title>Control — Embodiment: 0.338 ×10⁻³</title></rect>
<line x1="530.40" y1="174.37" x2="530.40" y2="171.28" stroke="#333" stroke-width="1"/>
<line x1="528.40" y1="174.37" x2="532.40" y2="174.37" stroke="#333" stroke-width="1"/>
<line x1="528.40" y1="171.28" x2="532.40" y2="171.28" stroke="#333" stroke-width="1"/>
<text x="520.8" y="194" text-anchor="end" font-size="10" fill="#2196F3" transform="rotate(-30,520.8,194)">Embodiment</text>
<rect x="554.35" y="117.26" width="19.12" height="62.74" fill="#2E7D32" opacity="0.85"><title>Partner Identity — Animacy: 2.908 ×10⁻³</title></rect>
<line x1="563.90" y1="131.05" x2="563.90" y2="107.88" stroke="#333" stroke-width="1"/>
<line x1="561.90" y1="131.05" x2="565.90" y2="131.05" stroke="#333" stroke-width="1"/>
<line x1="561.90" y1="107.88" x2="565.90" y2="107.88" stroke="#333" stroke-width="1"/>
<rect x="575.46" y="176.25" width="19.12" height="3.75" fill="#616161" opacity="0.85"><title>Control — Animacy: 0.174 ×10⁻³</title></rect>
<line x1="585.02" y1="176.92" x2="585.02" y2="175.25" stroke="#333" stroke-width="1"/>
<line x1="583.02" y1="176.92" x2="587.02" y2="176.92" stroke="#333" stroke-width="1"/>
<line x1="583.02" y1="175.25" x2="587.02" y2="175.25" stroke="#333" stroke-width="1"/>
<text x="575.5" y="194" text-anchor="end" font-size="10" fill="#2196F3" transform="rotate(-30,575.5,194)">Animacy</text>
<line x1="600.7692307692307" y1="0" x2="600.7692307692307" y2="180" stroke="#ccc" stroke-width="1" stroke-dasharray="4,3"/>
<rect x="608.96" y="136.12" width="19.12" height="43.88" fill="#2E7D32" opacity="0.5"><title>Partner Identity — Biological: 2.034 ×10⁻³</title></rect>
<line x1="618.52" y1="142.63" x2="618.52" y2="131.53" stroke="#333" stroke-width="1"/>
<line x1="616.52" y1="142.63" x2="620.52" y2="142.63" stroke="#333" stroke-width="1"/>
<line x1="616.52" y1="131.53" x2="620.52" y2="131.53" stroke="#333" stroke-width="1"/>
<rect x="630.08" y="174.77" width="19.12" height="5.23" fill="#616161" opacity="0.5"><title>Control — Biological: 0.242 ×10⁻³</title></rect>
<line x1="639.63" y1="175.58" x2="639.63" y2="173.85" stroke="#333" stroke-width="1"/>
<line x1="637.63" y1="175.58" x2="641.63" y2="175.58" stroke="#333" stroke-width="1"/>
<line x1="637.63" y1="173.85" x2="641.63" y2="173.85" stroke="#333" stroke-width="1"/>
<text x="630.1" y="194" text-anchor="end" font-size="10" fill="#9E9E9E" transform="rotate(-30,630.1,194)">Biological</text>
<rect x="663.58" y="167.59" width="19.12" height="12.41" fill="#2E7D32" opacity="0.5"><title>Partner Identity — Shapes: 0.575 ×10⁻³</title></rect>
<line x1="673.13" y1="174.36" x2="673.13" y2="160.71" stroke="#333" stroke-width="1"/>
<line x1="671.13" y1="174.36" x2="675.13" y2="174.36" stroke="#333" stroke-width="1"/>
<line x1="671.13" y1="160.71" x2="675.13" y2="160.71" stroke="#333" stroke-width="1"/>
<rect x="684.69" y="175.05" width="19.12" height="4.95" fill="#616161" opacity="0.5"><title>Control — Shapes: 0.229 ×10⁻³</title></rect>
<line x1="694.25" y1="176.98" x2="694.25" y2="172.91" stroke="#333" stroke-width="1"/>
<line x1="692.25" y1="176.98" x2="696.25" y2="176.98" stroke="#333" stroke-width="1"/>
<line x1="692.25" y1="172.91" x2="696.25" y2="172.91" stroke="#333" stroke-width="1"/>
<text x="684.7" y="194" text-anchor="end" font-size="10" fill="#9E9E9E" transform="rotate(-30,684.7,194)">Shapes</text>
<line x1="0" y1="180" x2="710" y2="180" stroke="#333"/>
<line x1="0" y1="0" x2="0" y2="180" stroke="#333"/>
</g>
<rect x="70" y="300" width="10" height="10" fill="#2E7D32"/>
<text x="84" y="308" font-size="9" fill="#333">Partner Identity</text>
<rect x="210" y="300" width="10" height="10" fill="#616161"/>
<text x="224" y="308" font-size="9" fill="#333">Control</text>
</svg>