<svg viewBox="0 0 700 360" xmlns="http://www.w3.org/2000/svg" style="width:100%;max-width:700px;height:auto;font-family:Arial,sans-serif;">
<rect width="700" height="360" fill="white"/>

<g transform="translate(70,30)">
<line x1="0" y1="210.0" x2="610" y2="210.0" stroke="#eee" stroke-width="1"/>
<text x="-8" y="214.0" text-anchor="end" font-size="10" fill="#666">0.00</text>
<line x1="0" y1="168.0" x2="610" y2="168.0" stroke="#eee" stroke-width="1"/>
<text x="-8" y="172.0" text-anchor="end" font-size="10" fill="#666">1.67</text>
<line x1="0" y1="126.0" x2="610" y2="126.0" stroke="#eee" stroke-width="1"/>
<text x="-8" y="130.0" text-anchor="end" font-size="10" fill="#666">3.34</text>
<line x1="0" y1="84.0" x2="610" y2="84.0" stroke="#eee" stroke-width="1"/>
<text x="-8" y="88.0" text-anchor="end" font-size="10" fill="#666">5.01</text>
<line x1="0" y1="42.0" x2="610" y2="42.0" stroke="#eee" stroke-width="1"/>
<text x="-8" y="46.0" text-anchor="end" font-size="10" fill="#666">6.67</text>
<line x1="0" y1="0.0" x2="610" y2="0.0" stroke="#eee" stroke-width="1"/>
<text x="-8" y="4.0" text-anchor="end" font-size="10" fill="#666">8.34</text>
<text x="-50" y="105.0" text-anchor="middle" font-size="11" fill="#333" transform="rotate(-90,-50,105.0)">Mean R² (×10⁻³)</text>
<line x1="305.0" y1="0" x2="305.0" y2="210" stroke="#ccc" stroke-width="1" stroke-dasharray="4,3"/>
<rect x="22.88" y="158.81" width="53.38" height="51.19" fill="#2E7D32" opacity="0.85"><title>Partner Identity — Biological: 2.034 ×10⁻³</title></rect>
<line x1="49.56" y1="166.40" x2="49.56" y2="153.45" stroke="#333" stroke-width="1"/>
<line x1="47.56" y1="166.40" x2="51.56" y2="166.40" stroke="#333" stroke-width="1"/>
<line x1="47.56" y1="153.45" x2="51.56" y2="153.45" stroke="#333" stroke-width="1"/>
<rect x="78.25" y="203.90" width="53.38" height="6.10" fill="#616161" opacity="0.85"><title>Control — Biological: 0.242 ×10⁻³</title></rect>
<line x1="104.94" y1="204.84" x2="104.94" y2="202.82" stroke="#333" stroke-width="1"/>
<line x1="102.94" y1="204.84" x2="106.94" y2="204.84" stroke="#333" stroke-width="1"/>
<line x1="102.94" y1="202.82" x2="106.94" y2="202.82" stroke="#333" stroke-width="1"/>
<text x="78.2" y="224" text-anchor="end" font-size="10" fill="#9E9E9E" transform="rotate(-30,78.2,224)">Biological</text>
<rect x="175.38" y="195.52" width="53.38" height="14.48" fill="#2E7D32" opacity="0.85"><title>Partner Identity — Shapes: 0.575 ×10⁻³</title></rect>
<line x1="202.06" y1="203.42" x2="202.06" y2="187.50" stroke="#333" stroke-width="1"/>
<line x1="200.06" y1="203.42" x2="204.06" y2="203.42" stroke="#333" stroke-width="1"/>
<line x1="200.06" y1="187.50" x2="204.06" y2="187.50" stroke="#333" stroke-width="1"/>
<rect x="230.75" y="204.23" width="53.38" height="5.77" fill="#616161" opacity="0.85"><title>Control — Shapes: 0.229 ×10⁻³</title></rect>
<line x1="257.44" y1="206.47" x2="257.44" y2="201.73" stroke="#333" stroke-width="1"/>
<line x1="255.44" y1="206.47" x2="259.44" y2="206.47" stroke="#333" stroke-width="1"/>
<line x1="255.44" y1="201.73" x2="259.44" y2="201.73" stroke="#333" stroke-width="1"/>
<text x="230.8" y="224" text-anchor="end" font-size="10" fill="#9E9E9E" transform="rotate(-30,230.8,224)">Shapes</text>
<rect x="327.88" y="93.85" width="53.38" height="116.15" fill="#2E7D32" opacity="0.85"><title>Partner Identity — Mental: 4.615 ×10⁻³</title></rect>
<line x1="354.56" y1="114.11" x2="354.56" y2="81.38" stroke="#333" stroke-width="1"/>
<line x1="352.56" y1="114.11" x2="356.56" y2="114.11" stroke="#333" stroke-width="1"/>
<line x1="352.56" y1="81.38" x2="356.56" y2="81.38" stroke="#333" stroke-width="1"/>
<rect x="383.25" y="201.71" width="53.38" height="8.29" fill="#616161" opacity="0.85"><title>Control — Mental: 0.329 ×10⁻³</title></rect>
<line x1="409.94" y1="203.49" x2="409.94" y2="200.07" stroke="#333" stroke-width="1"/>
<line x1="407.94" y1="203.49" x2="411.94" y2="203.49" stroke="#333" stroke-width="1"/>
<line x1="407.94" y1="200.07" x2="411.94" y2="200.07" stroke="#333" stroke-width="1"/>
<text x="383.2" y="224" text-anchor="end" font-size="10" fill="#2196F3" transform="rotate(-30,383.2,224)">Mental</text>
<rect x="480.38" y="181.60" width="53.38" height="28.40" fill="#2E7D32" opacity="0.85"><title>Partner Identity — Pragmatic: 1.128 ×10⁻³</title></rect>
<line x1="507.06" y1="191.47" x2="507.06" y2="173.36" stroke="#333" stroke-width="1"/>
<line x1="505.06" y1="191.47" x2="509.06" y2="191.47" stroke="#333" stroke-width="1"/>
<line x1="505.06" y1="173.36" x2="509.06" y2="173.36" stroke="#333" stroke-width="1"/>
<rect x="535.75" y="204.65" width="53.38" height="5.35" fill="#616161" opacity="0.85"><title>Control — Pragmatic: 0.213 ×10⁻³</title></rect>
<line x1="562.44" y1="205.91" x2="562.44" y2="202.52" stroke="#333" stroke-width="1"/>
<line x1="560.44" y1="205.91" x2="564.44" y2="205.91" stroke="#333" stroke-width="1"/>
<line x1="560.44" y1="202.52" x2="564.44" y2="202.52" stroke="#333" stroke-width="1"/>
<text x="535.8" y="224" text-anchor="end" font-size="10" fill="#FF9800" transform="rotate(-30,535.8,224)">Pragmatic</text>
<line x1="0" y1="210" x2="610" y2="210" stroke="#333"/>
<line x1="0" y1="0" x2="0" y2="210" stroke="#333"/>
</g>
<text x="222" y="322" text-anchor="middle" font-size="10" fill="#666" font-style="italic">Control Dimensions</text>
<text x="528" y="322" text-anchor="middle" font-size="10" fill="#666" font-style="italic">Category Averages</text>
<rect x="70" y="340" width="10" height="10" fill="#2E7D32"/>
<text x="84" y="348" font-size="9" fill="#333">Partner Identity</text>
<rect x="210" y="340" width="10" height="10" fill="#616161"/>
<text x="224" y="348" font-size="9" fill="#333">Control</text>
</svg>