<svg viewBox="0 0 1100 360" xmlns="http://www.w3.org/2000/svg" style="width:100%;max-width:1100px;height:auto;font-family:Arial,sans-serif;">
<rect width="1100" height="360" fill="white"/>
<g transform="translate(70,30)">
<line x1="0" y1="200.0" x2="1010" y2="200.0" stroke="#eee" stroke-width="1"/>
<text x="-8" y="204.0" text-anchor="end" font-size="10" fill="#666">0.00</text>
<line x1="0" y1="160.0" x2="1010" y2="160.0" stroke="#eee" stroke-width="1"/>
<text x="-8" y="164.0" text-anchor="end" font-size="10" fill="#666">0.59</text>
<line x1="0" y1="120.0" x2="1010" y2="120.0" stroke="#eee" stroke-width="1"/>
<text x="-8" y="124.0" text-anchor="end" font-size="10" fill="#666">1.18</text>
<line x1="0" y1="80.0" x2="1010" y2="80.0" stroke="#eee" stroke-width="1"/>
<text x="-8" y="84.0" text-anchor="end" font-size="10" fill="#666">1.77</text>
<line x1="0" y1="40.0" x2="1010" y2="40.0" stroke="#eee" stroke-width="1"/>
<text x="-8" y="44.0" text-anchor="end" font-size="10" fill="#666">2.36</text>
<line x1="0" y1="0.0" x2="1010" y2="0.0" stroke="#eee" stroke-width="1"/>
<text x="-8" y="4.0" text-anchor="end" font-size="10" fill="#666">2.95</text>
<text x="-50" y="100.0" text-anchor="middle" font-size="11" fill="#333" transform="rotate(-90,-50,100.0)">Mean R² (×10⁻³)</text>
<rect x="4.21" y="68.45" width="16.83" height="131.55" fill="#2E7D32" opacity="0.85"><title>Partner Identity: 0.001942</title></rect>
<line x1="12.63" y1="200.00" x2="12.63" y2="200.00" stroke="#333" stroke-width="1"/>
<line x1="10.63" y1="200.00" x2="14.63" y2="200.00" stroke="#333" stroke-width="1"/>
<line x1="10.63" y1="200.00" x2="14.63" y2="200.00" stroke="#333" stroke-width="1"/>
<rect x="21.04" y="189.04" width="16.83" height="10.96" fill="#616161" opacity="0.85"><title>Control: 0.000162</title></rect>
<line x1="29.46" y1="200.00" x2="29.46" y2="200.00" stroke="#333" stroke-width="1"/>
<line x1="27.46" y1="200.00" x2="31.46" y2="200.00" stroke="#333" stroke-width="1"/>
<line x1="27.46" y1="200.00" x2="31.46" y2="200.00" stroke="#333" stroke-width="1"/>
<text x="21.04" y="214" text-anchor="end" font-size="9" fill="#2196F3" transform="rotate(-45,21.04,214)">Phenomenology</text>
<rect x="46.29" y="67.95" width="16.83" height="132.05" fill="#2E7D32" opacity="0.85"><title>Partner Identity: 0.001949</title></rect>
<line x1="54.71" y1="200.00" x2="54.71" y2="200.00" stroke="#333" stroke-width="1"/>
<line x1="52.71" y1="200.00" x2="56.71" y2="200.00" stroke="#333" stroke-width="1"/>
<line x1="52.71" y1="200.00" x2="56.71" y2="200.00" stroke="#333" stroke-width="1"/>
<rect x="63.13" y="189.54" width="16.83" height="10.46" fill="#616161" opacity="0.85"><title>Control: 0.000154</title></rect>
<line x1="71.54" y1="200.00" x2="71.54" y2="200.00" stroke="#333" stroke-width="1"/>
<line x1="69.54" y1="200.00" x2="73.54" y2="200.00" stroke="#333" stroke-width="1"/>
<line x1="69.54" y1="200.00" x2="73.54" y2="200.00" stroke="#333" stroke-width="1"/>
<text x="63.13" y="214" text-anchor="end" font-size="9" fill="#2196F3" transform="rotate(-45,63.13,214)">Emotions</text>
<rect x="88.38" y="71.91" width="16.83" height="128.09" fill="#2E7D32" opacity="0.85"><title>Partner Identity: 0.001891</title></rect>
<line x1="96.79" y1="200.00" x2="96.79" y2="200.00" stroke="#333" stroke-width="1"/>
<line x1="94.79" y1="200.00" x2="98.79" y2="200.00" stroke="#333" stroke-width="1"/>
<line x1="94.79" y1="200.00" x2="98.79" y2="200.00" stroke="#333" stroke-width="1"/>
<rect x="105.21" y="188.88" width="16.83" height="11.12" fill="#616161" opacity="0.85"><title>Control: 0.000164</title></rect>
<line x1="113.63" y1="200.00" x2="113.63" y2="200.00" stroke="#333" stroke-width="1"/>
<line x1="111.63" y1="200.00" x2="115.63" y2="200.00" stroke="#333" stroke-width="1"/>
<line x1="111.63" y1="200.00" x2="115.63" y2="200.00" stroke="#333" stroke-width="1"/>
<text x="105.21" y="214" text-anchor="end" font-size="9" fill="#2196F3" transform="rotate(-45,105.21,214)">Agency</text>
<rect x="130.46" y="73.22" width="16.83" height="126.78" fill="#2E7D32" opacity="0.85"><title>Partner Identity: 0.001872</title></rect>
<line x1="138.88" y1="200.00" x2="138.88" y2="200.00" stroke="#333" stroke-width="1"/>
<line x1="136.88" y1="200.00" x2="140.88" y2="200.00" stroke="#333" stroke-width="1"/>
<line x1="136.88" y1="200.00" x2="140.88" y2="200.00" stroke="#333" stroke-width="1"/>
<rect x="147.29" y="188.76" width="16.83" height="11.24" fill="#616161" opacity="0.85"><title>Control: 0.000166</title></rect>
<line x1="155.71" y1="200.00" x2="155.71" y2="200.00" stroke="#333" stroke-width="1"/>
<line x1="153.71" y1="200.00" x2="157.71" y2="200.00" stroke="#333" stroke-width="1"/>
<line x1="153.71" y1="200.00" x2="157.71" y2="200.00" stroke="#333" stroke-width="1"/>
<text x="147.29" y="214" text-anchor="end" font-size="9" fill="#2196F3" transform="rotate(-45,147.29,214)">Intentions</text>
<rect x="172.54" y="70.24" width="16.83" height="129.76" fill="#2E7D32" opacity="0.85"><title>Partner Identity: 0.001916</title></rect>
<line x1="180.96" y1="200.00" x2="180.96" y2="200.00" stroke="#333" stroke-width="1"/>
<line x1="178.96" y1="200.00" x2="182.96" y2="200.00" stroke="#333" stroke-width="1"/>
<line x1="178.96" y1="200.00" x2="182.96" y2="200.00" stroke="#333" stroke-width="1"/>
<rect x="189.38" y="188.65" width="16.83" height="11.35" fill="#616161" opacity="0.85"><title>Control: 0.000168</title></rect>
<line x1="197.79" y1="200.00" x2="197.79" y2="200.00" stroke="#333" stroke-width="1"/>
<line x1="195.79" y1="200.00" x2="199.79" y2="200.00" stroke="#333" stroke-width="1"/>
<line x1="195.79" y1="200.00" x2="199.79" y2="200.00" stroke="#333" stroke-width="1"/>
<text x="189.38" y="214" text-anchor="end" font-size="9" fill="#2196F3" transform="rotate(-45,189.38,214)">Prediction</text>
<rect x="214.63" y="71.03" width="16.83" height="128.97" fill="#2E7D32" opacity="0.85"><title>Partner Identity: 0.001904</title></rect>
<line x1="223.04" y1="200.00" x2="223.04" y2="200.00" stroke="#333" stroke-width="1"/>
<line x1="221.04" y1="200.00" x2="225.04" y2="200.00" stroke="#333" stroke-width="1"/>
<line x1="221.04" y1="200.00" x2="225.04" y2="200.00" stroke="#333" stroke-width="1"/>
<rect x="231.46" y="189.40" width="16.83" height="10.60" fill="#616161" opacity="0.85"><title>Control: 0.000157</title></rect>
<line x1="239.88" y1="200.00" x2="239.88" y2="200.00" stroke="#333" stroke-width="1"/>
<line x1="237.88" y1="200.00" x2="241.88" y2="200.00" stroke="#333" stroke-width="1"/>
<line x1="237.88" y1="200.00" x2="241.88" y2="200.00" stroke="#333" stroke-width="1"/>
<text x="231.46" y="214" text-anchor="end" font-size="9" fill="#2196F3" transform="rotate(-45,231.46,214)">Cognitive</text>
<rect x="256.71" y="85.33" width="16.83" height="114.67" fill="#2E7D32" opacity="0.85"><title>Partner Identity: 0.001693</title></rect>
<line x1="265.12" y1="200.00" x2="265.12" y2="200.00" stroke="#333" stroke-width="1"/>
<line x1="263.12" y1="200.00" x2="267.12" y2="200.00" stroke="#333" stroke-width="1"/>
<line x1="263.12" y1="200.00" x2="267.12" y2="200.00" stroke="#333" stroke-width="1"/>
<rect x="273.54" y="188.89" width="16.83" height="11.11" fill="#616161" opacity="0.85"><title>Control: 0.000164</title></rect>
<line x1="281.96" y1="200.00" x2="281.96" y2="200.00" stroke="#333" stroke-width="1"/>
<line x1="279.96" y1="200.00" x2="283.96" y2="200.00" stroke="#333" stroke-width="1"/>
<line x1="279.96" y1="200.00" x2="283.96" y2="200.00" stroke="#333" stroke-width="1"/>
<text x="273.54" y="214" text-anchor="end" font-size="9" fill="#2196F3" transform="rotate(-45,273.54,214)">Social</text>
<rect x="298.79" y="67.37" width="16.83" height="132.63" fill="#2E7D32" opacity="0.85"><title>Partner Identity: 0.001958</title></rect>
<line x1="307.21" y1="200.00" x2="307.21" y2="200.00" stroke="#333" stroke-width="1"/>
<line x1="305.21" y1="200.00" x2="309.21" y2="200.00" stroke="#333" stroke-width="1"/>
<line x1="305.21" y1="200.00" x2="309.21" y2="200.00" stroke="#333" stroke-width="1"/>
<rect x="315.62" y="189.03" width="16.83" height="10.97" fill="#616161" opacity="0.85"><title>Control: 0.000162</title></rect>
<line x1="324.04" y1="200.00" x2="324.04" y2="200.00" stroke="#333" stroke-width="1"/>
<line x1="322.04" y1="200.00" x2="326.04" y2="200.00" stroke="#333" stroke-width="1"/>
<line x1="322.04" y1="200.00" x2="326.04" y2="200.00" stroke="#333" stroke-width="1"/>
<text x="315.62" y="214" text-anchor="end" font-size="9" fill="#2196F3" transform="rotate(-45,315.62,214)">Attention</text>
<rect x="340.88" y="81.61" width="16.83" height="118.39" fill="#2E7D32" opacity="0.85"><title>Partner Identity: 0.001748</title></rect>
<line x1="349.29" y1="200.00" x2="349.29" y2="200.00" stroke="#333" stroke-width="1"/>
<line x1="347.29" y1="200.00" x2="351.29" y2="200.00" stroke="#333" stroke-width="1"/>
<line x1="347.29" y1="200.00" x2="351.29" y2="200.00" stroke="#333" stroke-width="1"/>
<rect x="357.71" y="189.18" width="16.83" height="10.82" fill="#616161" opacity="0.85"><title>Control: 0.000160</title></rect>
<line x1="366.12" y1="200.00" x2="366.12" y2="200.00" stroke="#333" stroke-width="1"/>
<line x1="364.12" y1="200.00" x2="368.12" y2="200.00" stroke="#333" stroke-width="1"/>
<line x1="364.12" y1="200.00" x2="368.12" y2="200.00" stroke="#333" stroke-width="1"/>
<text x="357.71" y="214" text-anchor="end" font-size="9" fill="#2196F3" transform="rotate(-45,357.71,214)">Beliefs</text>
<rect x="382.96" y="70.36" width="16.83" height="129.64" fill="#2E7D32" opacity="0.85"><title>Partner Identity: 0.001914</title></rect>
<line x1="391.38" y1="200.00" x2="391.38" y2="200.00" stroke="#333" stroke-width="1"/>
<line x1="389.38" y1="200.00" x2="393.38" y2="200.00" stroke="#333" stroke-width="1"/>
<line x1="389.38" y1="200.00" x2="393.38" y2="200.00" stroke="#333" stroke-width="1"/>
<rect x="399.79" y="188.98" width="16.83" height="11.02" fill="#616161" opacity="0.85"><title>Control: 0.000163</title></rect>
<line x1="408.21" y1="200.00" x2="408.21" y2="200.00" stroke="#333" stroke-width="1"/>
<line x1="406.21" y1="200.00" x2="410.21" y2="200.00" stroke="#333" stroke-width="1"/>
<line x1="406.21" y1="200.00" x2="410.21" y2="200.00" stroke="#333" stroke-width="1"/>
<text x="399.79" y="214" text-anchor="end" font-size="9" fill="#2196F3" transform="rotate(-45,399.79,214)">Desires</text>
<rect x="425.04" y="73.52" width="16.83" height="126.48" fill="#2E7D32" opacity="0.85"><title>Partner Identity: 0.001867</title></rect>
<line x1="433.46" y1="200.00" x2="433.46" y2="200.00" stroke="#333" stroke-width="1"/>
<line x1="431.46" y1="200.00" x2="435.46" y2="200.00" stroke="#333" stroke-width="1"/>
<line x1="431.46" y1="200.00" x2="435.46" y2="200.00" stroke="#333" stroke-width="1"/>
<rect x="441.88" y="189.85" width="16.83" height="10.15" fill="#616161" opacity="0.85"><title>Control: 0.000150</title></rect>
<line x1="450.29" y1="200.00" x2="450.29" y2="200.00" stroke="#333" stroke-width="1"/>
<line x1="448.29" y1="200.00" x2="452.29" y2="200.00" stroke="#333" stroke-width="1"/>
<line x1="448.29" y1="200.00" x2="452.29" y2="200.00" stroke="#333" stroke-width="1"/>
<text x="441.88" y="214" text-anchor="end" font-size="9" fill="#2196F3" transform="rotate(-45,441.88,214)">Goals</text>
<rect x="467.12" y="64.68" width="16.83" height="135.32" fill="#2E7D32" opacity="0.85"><title>Partner Identity: 0.001998</title></rect>
<line x1="475.54" y1="200.00" x2="475.54" y2="200.00" stroke="#333" stroke-width="1"/>
<line x1="473.54" y1="200.00" x2="477.54" y2="200.00" stroke="#333" stroke-width="1"/>
<line x1="473.54" y1="200.00" x2="477.54" y2="200.00" stroke="#333" stroke-width="1"/>
<rect x="483.96" y="189.05" width="16.83" height="10.95" fill="#616161" opacity="0.85"><title>Control: 0.000162</title></rect>
<line x1="492.38" y1="200.00" x2="492.38" y2="200.00" stroke="#333" stroke-width="1"/>
<line x1="490.38" y1="200.00" x2="494.38" y2="200.00" stroke="#333" stroke-width="1"/>
<line x1="490.38" y1="200.00" x2="494.38" y2="200.00" stroke="#333" stroke-width="1"/>
<text x="483.96" y="214" text-anchor="end" font-size="9" fill="#4CAF50" transform="rotate(-45,483.96,214)">Embodiment</text>
<rect x="509.21" y="53.08" width="16.83" height="146.92" fill="#2E7D32" opacity="0.85"><title>Partner Identity: 0.002169</title></rect>
<line x1="517.62" y1="200.00" x2="517.62" y2="200.00" stroke="#333" stroke-width="1"/>
<line x1="515.62" y1="200.00" x2="519.62" y2="200.00" stroke="#333" stroke-width="1"/>
<line x1="515.62" y1="200.00" x2="519.62" y2="200.00" stroke="#333" stroke-width="1"/>
<rect x="526.04" y="190.08" width="16.83" height="9.92" fill="#616161" opacity="0.85"><title>Control: 0.000146</title></rect>
<line x1="534.46" y1="200.00" x2="534.46" y2="200.00" stroke="#333" stroke-width="1"/>
<line x1="532.46" y1="200.00" x2="536.46" y2="200.00" stroke="#333" stroke-width="1"/>
<line x1="532.46" y1="200.00" x2="536.46" y2="200.00" stroke="#333" stroke-width="1"/>
<text x="526.04" y="214" text-anchor="end" font-size="9" fill="#4CAF50" transform="rotate(-45,526.04,214)">Roles</text>
<rect x="551.29" y="59.25" width="16.83" height="140.75" fill="#2E7D32" opacity="0.85"><title>Partner Identity: 0.002078</title></rect>
<line x1="559.71" y1="200.00" x2="559.71" y2="200.00" stroke="#333" stroke-width="1"/>
<line x1="557.71" y1="200.00" x2="561.71" y2="200.00" stroke="#333" stroke-width="1"/>
<line x1="557.71" y1="200.00" x2="561.71" y2="200.00" stroke="#333" stroke-width="1"/>
<rect x="568.13" y="188.54" width="16.83" height="11.46" fill="#616161" opacity="0.85"><title>Control: 0.000169</title></rect>
<line x1="576.54" y1="200.00" x2="576.54" y2="200.00" stroke="#333" stroke-width="1"/>
<line x1="574.54" y1="200.00" x2="578.54" y2="200.00" stroke="#333" stroke-width="1"/>
<line x1="574.54" y1="200.00" x2="578.54" y2="200.00" stroke="#333" stroke-width="1"/>
<text x="568.13" y="214" text-anchor="end" font-size="9" fill="#4CAF50" transform="rotate(-45,568.13,214)">Animacy</text>
<rect x="593.38" y="78.10" width="16.83" height="121.90" fill="#2E7D32" opacity="0.85"><title>Partner Identity: 0.001799</title></rect>
<line x1="601.79" y1="200.00" x2="601.79" y2="200.00" stroke="#333" stroke-width="1"/>
<line x1="599.79" y1="200.00" x2="603.79" y2="200.00" stroke="#333" stroke-width="1"/>
<line x1="599.79" y1="200.00" x2="603.79" y2="200.00" stroke="#333" stroke-width="1"/>
<rect x="610.21" y="190.40" width="16.83" height="9.60" fill="#616161" opacity="0.85"><title>Control: 0.000142</title></rect>
<line x1="618.63" y1="200.00" x2="618.63" y2="200.00" stroke="#333" stroke-width="1"/>
<line x1="616.63" y1="200.00" x2="620.63" y2="200.00" stroke="#333" stroke-width="1"/>
<line x1="616.63" y1="200.00" x2="620.63" y2="200.00" stroke="#333" stroke-width="1"/>
<text x="610.21" y="214" text-anchor="end" font-size="9" fill="#FF9800" transform="rotate(-45,610.21,214)">Formality</text>
<rect x="635.46" y="84.62" width="16.83" height="115.38" fill="#2E7D32" opacity="0.85"><title>Partner Identity: 0.001703</title></rect>
<line x1="643.88" y1="200.00" x2="643.88" y2="200.00" stroke="#333" stroke-width="1"/>
<line x1="641.88" y1="200.00" x2="645.88" y2="200.00" stroke="#333" stroke-width="1"/>
<line x1="641.88" y1="200.00" x2="645.88" y2="200.00" stroke="#333" stroke-width="1"/>
<rect x="652.29" y="188.71" width="16.83" height="11.29" fill="#616161" opacity="0.85"><title>Control: 0.000167</title></rect>
<line x1="660.71" y1="200.00" x2="660.71" y2="200.00" stroke="#333" stroke-width="1"/>
<line x1="658.71" y1="200.00" x2="662.71" y2="200.00" stroke="#333" stroke-width="1"/>
<line x1="658.71" y1="200.00" x2="662.71" y2="200.00" stroke="#333" stroke-width="1"/>
<text x="652.29" y="214" text-anchor="end" font-size="9" fill="#FF9800" transform="rotate(-45,652.29,214)">Expertise</text>
<rect x="677.54" y="89.56" width="16.83" height="110.44" fill="#2E7D32" opacity="0.85"><title>Partner Identity: 0.001630</title></rect>
<line x1="685.96" y1="200.00" x2="685.96" y2="200.00" stroke="#333" stroke-width="1"/>
<line x1="683.96" y1="200.00" x2="687.96" y2="200.00" stroke="#333" stroke-width="1"/>
<line x1="683.96" y1="200.00" x2="687.96" y2="200.00" stroke="#333" stroke-width="1"/>
<rect x="694.38" y="188.86" width="16.83" height="11.14" fill="#616161" opacity="0.85"><title>Control: 0.000164</title></rect>
<line x1="702.79" y1="200.00" x2="702.79" y2="200.00" stroke="#333" stroke-width="1"/>
<line x1="700.79" y1="200.00" x2="704.79" y2="200.00" stroke="#333" stroke-width="1"/>
<line x1="700.79" y1="200.00" x2="704.79" y2="200.00" stroke="#333" stroke-width="1"/>
<text x="694.38" y="214" text-anchor="end" font-size="9" fill="#FF9800" transform="rotate(-45,694.38,214)">Helpfulness</text>
<rect x="719.63" y="55.79" width="16.83" height="144.21" fill="#2E7D32" opacity="0.85"><title>Partner Identity: 0.002129</title></rect>
<line x1="728.04" y1="200.00" x2="728.04" y2="200.00" stroke="#333" stroke-width="1"/>
<line x1="726.04" y1="200.00" x2="730.04" y2="200.00" stroke="#333" stroke-width="1"/>
<line x1="726.04" y1="200.00" x2="730.04" y2="200.00" stroke="#333" stroke-width="1"/>
<rect x="736.46" y="190.17" width="16.83" height="9.83" fill="#616161" opacity="0.85"><title>Control: 0.000145</title></rect>
<line x1="744.88" y1="200.00" x2="744.88" y2="200.00" stroke="#333" stroke-width="1"/>
<line x1="742.88" y1="200.00" x2="746.88" y2="200.00" stroke="#333" stroke-width="1"/>
<line x1="742.88" y1="200.00" x2="746.88" y2="200.00" stroke="#333" stroke-width="1"/>
<text x="736.46" y="214" text-anchor="end" font-size="9" fill="#7B1FA2" transform="rotate(-45,736.46,214)">Human (concept)</text>
<rect x="761.71" y="26.84" width="16.83" height="173.16" fill="#2E7D32" opacity="0.85"><title>Partner Identity: 0.002556</title></rect>
<line x1="770.12" y1="200.00" x2="770.12" y2="200.00" stroke="#333" stroke-width="1"/>
<line x1="768.12" y1="200.00" x2="772.12" y2="200.00" stroke="#333" stroke-width="1"/>
<line x1="768.12" y1="200.00" x2="772.12" y2="200.00" stroke="#333" stroke-width="1"/>
<rect x="778.54" y="190.10" width="16.83" height="9.90" fill="#616161" opacity="0.85"><title>Control: 0.000146</title></rect>
<line x1="786.96" y1="200.00" x2="786.96" y2="200.00" stroke="#333" stroke-width="1"/>
<line x1="784.96" y1="200.00" x2="788.96" y2="200.00" stroke="#333" stroke-width="1"/>
<line x1="784.96" y1="200.00" x2="788.96" y2="200.00" stroke="#333" stroke-width="1"/>
<text x="778.54" y="214" text-anchor="end" font-size="9" fill="#7B1FA2" transform="rotate(-45,778.54,214)">AI (concept)</text>
<rect x="803.79" y="51.44" width="16.83" height="148.56" fill="#2E7D32" opacity="0.85"><title>Partner Identity: 0.002193</title></rect>
<line x1="812.21" y1="200.00" x2="812.21" y2="200.00" stroke="#333" stroke-width="1"/>
<line x1="810.21" y1="200.00" x2="814.21" y2="200.00" stroke="#333" stroke-width="1"/>
<line x1="810.21" y1="200.00" x2="814.21" y2="200.00" stroke="#333" stroke-width="1"/>
<rect x="820.63" y="187.94" width="16.83" height="12.06" fill="#616161" opacity="0.85"><title>Control: 0.000178</title></rect>
<line x1="829.04" y1="200.00" x2="829.04" y2="200.00" stroke="#333" stroke-width="1"/>
<line x1="827.04" y1="200.00" x2="831.04" y2="200.00" stroke="#333" stroke-width="1"/>
<line x1="827.04" y1="200.00" x2="831.04" y2="200.00" stroke="#333" stroke-width="1"/>
<text x="820.63" y="214" text-anchor="end" font-size="9" fill="#9E9E9E" transform="rotate(-45,820.63,214)">Biological</text>
<rect x="845.88" y="50.54" width="16.83" height="149.46" fill="#2E7D32" opacity="0.85"><title>Partner Identity: 0.002206</title></rect>
<line x1="854.29" y1="200.00" x2="854.29" y2="200.00" stroke="#333" stroke-width="1"/>
<line x1="852.29" y1="200.00" x2="856.29" y2="200.00" stroke="#333" stroke-width="1"/>
<line x1="852.29" y1="200.00" x2="856.29" y2="200.00" stroke="#333" stroke-width="1"/>
<rect x="862.71" y="188.73" width="16.83" height="11.27" fill="#616161" opacity="0.85"><title>Control: 0.000166</title></rect>
<line x1="871.13" y1="200.00" x2="871.13" y2="200.00" stroke="#333" stroke-width="1"/>
<line x1="869.13" y1="200.00" x2="873.13" y2="200.00" stroke="#333" stroke-width="1"/>
<line x1="869.13" y1="200.00" x2="873.13" y2="200.00" stroke="#333" stroke-width="1"/>
<text x="862.71" y="214" text-anchor="end" font-size="9" fill="#9E9E9E" transform="rotate(-45,862.71,214)">Shapes</text>
<rect x="887.96" y="49.18" width="16.83" height="150.82" fill="#2E7D32" opacity="0.85"><title>Partner Identity: 0.002226</title></rect>
<line x1="896.38" y1="200.00" x2="896.38" y2="200.00" stroke="#333" stroke-width="1"/>
<line x1="894.38" y1="200.00" x2="898.38" y2="200.00" stroke="#333" stroke-width="1"/>
<line x1="894.38" y1="200.00" x2="898.38" y2="200.00" stroke="#333" stroke-width="1"/>
<rect x="904.79" y="189.27" width="16.83" height="10.73" fill="#616161" opacity="0.85"><title>Control: 0.000158</title></rect>
<line x1="913.21" y1="200.00" x2="913.21" y2="200.00" stroke="#333" stroke-width="1"/>
<line x1="911.21" y1="200.00" x2="915.21" y2="200.00" stroke="#333" stroke-width="1"/>
<line x1="911.21" y1="200.00" x2="915.21" y2="200.00" stroke="#333" stroke-width="1"/>
<text x="904.79" y="214" text-anchor="end" font-size="9" fill="#9E9E9E" transform="rotate(-45,904.79,214)">Granite/Sandstone</text>
<rect x="930.04" y="59.06" width="16.83" height="140.94" fill="#2E7D32" opacity="0.85"><title>Partner Identity: 0.002081</title></rect>
<line x1="938.46" y1="200.00" x2="938.46" y2="200.00" stroke="#333" stroke-width="1"/>
<line x1="936.46" y1="200.00" x2="940.46" y2="200.00" stroke="#333" stroke-width="1"/>
<line x1="936.46" y1="200.00" x2="940.46" y2="200.00" stroke="#333" stroke-width="1"/>
<rect x="946.88" y="188.73" width="16.83" height="11.27" fill="#616161" opacity="0.85"><title>Control: 0.000166</title></rect>
<line x1="955.29" y1="200.00" x2="955.29" y2="200.00" stroke="#333" stroke-width="1"/>
<line x1="953.29" y1="200.00" x2="957.29" y2="200.00" stroke="#333" stroke-width="1"/>
<line x1="953.29" y1="200.00" x2="957.29" y2="200.00" stroke="#333" stroke-width="1"/>
<text x="946.88" y="214" text-anchor="end" font-size="9" fill="#9E9E9E" transform="rotate(-45,946.88,214)">Squares/Triangles</text>
<rect x="972.13" y="54.85" width="16.83" height="145.15" fill="#2E7D32" opacity="0.85"><title>Partner Identity: 0.002143</title></rect>
<line x1="980.54" y1="200.00" x2="980.54" y2="200.00" stroke="#333" stroke-width="1"/>
<line x1="978.54" y1="200.00" x2="982.54" y2="200.00" stroke="#333" stroke-width="1"/>
<line x1="978.54" y1="200.00" x2="982.54" y2="200.00" stroke="#333" stroke-width="1"/>
<rect x="988.96" y="188.47" width="16.83" height="11.53" fill="#616161" opacity="0.85"><title>Control: 0.000170</title></rect>
<line x1="997.38" y1="200.00" x2="997.38" y2="200.00" stroke="#333" stroke-width="1"/>
<line x1="995.38" y1="200.00" x2="999.38" y2="200.00" stroke="#333" stroke-width="1"/>
<line x1="995.38" y1="200.00" x2="999.38" y2="200.00" stroke="#333" stroke-width="1"/>
<text x="988.96" y="214" text-anchor="end" font-size="9" fill="#9E9E9E" transform="rotate(-45,988.96,214)">Horizontal/Vertical</text>
<line x1="0" y1="200" x2="1010" y2="200" stroke="#333"/>
<line x1="0" y1="0" x2="0" y2="200" stroke="#333"/>
</g>
<rect x="70.0" y="324" width="10" height="10" fill="#2E7D32"/>
<text x="84.0" y="332" font-size="8" fill="#333">Partner Identity</text>
<rect x="272.0" y="324" width="10" height="10" fill="#616161"/>
<text x="286.0" y="332" font-size="8" fill="#333">Control</text>
</svg>