<svg viewBox="0 0 800 340" xmlns="http://www.w3.org/2000/svg" style="width:100%;max-width:800px;height:auto;font-family:Arial,sans-serif;">
<rect width="800" height="340" fill="white"/>

<g transform="translate(70,30)">
<line x1="0" y1="190.0" x2="710" y2="190.0" stroke="#eee" stroke-width="1"/>
<text x="-8" y="194.0" text-anchor="end" font-size="10" fill="#666">0.00</text>
<line x1="0" y1="152.0" x2="710" y2="152.0" stroke="#eee" stroke-width="1"/>
<text x="-8" y="156.0" text-anchor="end" font-size="10" fill="#666">2.30</text>
<line x1="0" y1="114.0" x2="710" y2="114.0" stroke="#eee" stroke-width="1"/>
<text x="-8" y="118.0" text-anchor="end" font-size="10" fill="#666">4.60</text>
<line x1="0" y1="76.0" x2="710" y2="76.0" stroke="#eee" stroke-width="1"/>
<text x="-8" y="80.0" text-anchor="end" font-size="10" fill="#666">6.90</text>
<line x1="0" y1="38.0" x2="710" y2="38.0" stroke="#eee" stroke-width="1"/>
<text x="-8" y="42.0" text-anchor="end" font-size="10" fill="#666">9.20</text>
<line x1="0" y1="0.0" x2="710" y2="0.0" stroke="#eee" stroke-width="1"/>
<text x="-8" y="4.0" text-anchor="end" font-size="10" fill="#666">11.50</text>
<text x="-50" y="95.0" text-anchor="middle" font-size="11" fill="#333" transform="rotate(-90,-50,95.0)">Mean R² (×10⁻³)</text>
<line x1="118.33333333333333" y1="0" x2="118.33333333333333" y2="190" stroke="#ddd" stroke-width="1" stroke-dasharray="4,3"/>
<rect x="5.92" y="124.04" width="13.81" height="65.96" fill="#2E7D32" opacity="0.85"><title>Partner Identity: 3.993 ×10⁻³</title></rect>
<line x1="12.82" y1="143.84" x2="12.82" y2="117.39" stroke="#333" stroke-width="1"/>
<line x1="10.82" y1="143.84" x2="14.82" y2="143.84" stroke="#333" stroke-width="1"/>
<line x1="10.82" y1="117.39" x2="14.82" y2="117.39" stroke="#333" stroke-width="1"/>
<rect x="21.72" y="30.51" width="13.81" height="159.49" fill="#616161" opacity="0.85"><title>Control: 9.654 ×10⁻³</title></rect>
<line x1="28.62" y1="62.68" x2="28.62" y2="25.50" stroke="#333" stroke-width="1"/>
<line x1="26.62" y1="62.68" x2="30.62" y2="62.68" stroke="#333" stroke-width="1"/>
<line x1="26.62" y1="25.50" x2="30.62" y2="25.50" stroke="#333" stroke-width="1"/>
<text x="21.7" y="204" text-anchor="end" font-size="9" fill="#9E9E9E" transform="rotate(-45,21.7,204)">Human vs AI (general)</text>
<rect x="45.36" y="156.00" width="13.81" height="34.00" fill="#2E7D32" opacity="0.85"><title>Partner Identity: 2.058 ×10⁻³</title></rect>
<line x1="52.26" y1="160.69" x2="52.26" y2="153.26" stroke="#333" stroke-width="1"/>
<line x1="50.26" y1="160.69" x2="54.26" y2="160.69" stroke="#333" stroke-width="1"/>
<line x1="50.26" y1="153.26" x2="54.26" y2="153.26" stroke="#333" stroke-width="1"/>
<rect x="61.17" y="122.52" width="13.81" height="67.48" fill="#616161" opacity="0.85"><title>Control: 4.084 ×10⁻³</title></rect>
<line x1="68.07" y1="131.73" x2="68.07" y2="116.68" stroke="#333" stroke-width="1"/>
<line x1="66.07" y1="131.73" x2="70.07" y2="131.73" stroke="#333" stroke-width="1"/>
<line x1="66.07" y1="116.68" x2="70.07" y2="116.68" stroke="#333" stroke-width="1"/>
<text x="61.2" y="204" text-anchor="end" font-size="9" fill="#9E9E9E" transform="rotate(-45,61.2,204)">Biological</text>
<rect x="84.81" y="181.41" width="13.81" height="8.59" fill="#2E7D32" opacity="0.85"><title>Partner Identity: 0.520 ×10⁻³</title></rect>
<line x1="91.71" y1="184.74" x2="91.71" y2="178.58" stroke="#333" stroke-width="1"/>
<line x1="89.71" y1="184.74" x2="93.71" y2="184.74" stroke="#333" stroke-width="1"/>
<line x1="89.71" y1="178.58" x2="93.71" y2="178.58" stroke="#333" stroke-width="1"/>
<rect x="100.61" y="179.42" width="13.81" height="10.58" fill="#616161" opacity="0.85"><title>Control: 0.641 ×10⁻³</title></rect>
<line x1="107.51" y1="184.59" x2="107.51" y2="172.53" stroke="#333" stroke-width="1"/>
<line x1="105.51" y1="184.59" x2="109.51" y2="184.59" stroke="#333" stroke-width="1"/>
<line x1="105.51" y1="172.53" x2="109.51" y2="172.53" stroke="#333" stroke-width="1"/>
<text x="100.6" y="204" text-anchor="end" font-size="9" fill="#9E9E9E" transform="rotate(-45,100.6,204)">Shapes</text>
<rect x="124.25" y="147.82" width="13.81" height="42.18" fill="#2E7D32" opacity="0.85"><title>Partner Identity: 2.553 ×10⁻³</title></rect>
<line x1="131.15" y1="155.44" x2="131.15" y2="144.52" stroke="#333" stroke-width="1"/>
<line x1="129.15" y1="155.44" x2="133.15" y2="155.44" stroke="#333" stroke-width="1"/>
<line x1="129.15" y1="144.52" x2="133.15" y2="144.52" stroke="#333" stroke-width="1"/>
<rect x="140.06" y="114.97" width="13.81" height="75.03" fill="#616161" opacity="0.85"><title>Control: 4.541 ×10⁻³</title></rect>
<line x1="146.96" y1="128.85" x2="146.96" y2="106.54" stroke="#333" stroke-width="1"/>
<line x1="144.96" y1="128.85" x2="148.96" y2="128.85" stroke="#333" stroke-width="1"/>
<line x1="144.96" y1="106.54" x2="148.96" y2="106.54" stroke="#333" stroke-width="1"/>
<text x="140.1" y="204" text-anchor="end" font-size="9" fill="#2196F3" transform="rotate(-45,140.1,204)">Phenomenology</text>
<rect x="163.69" y="145.74" width="13.81" height="44.26" fill="#2E7D32" opacity="0.85"><title>Partner Identity: 2.679 ×10⁻³</title></rect>
<line x1="170.60" y1="151.28" x2="170.60" y2="143.41" stroke="#333" stroke-width="1"/>
<line x1="168.60" y1="151.28" x2="172.60" y2="151.28" stroke="#333" stroke-width="1"/>
<line x1="168.60" y1="143.41" x2="172.60" y2="143.41" stroke="#333" stroke-width="1"/>
<rect x="179.50" y="124.78" width="13.81" height="65.22" fill="#616161" opacity="0.85"><title>Control: 3.947 ×10⁻³</title></rect>
<line x1="186.40" y1="132.91" x2="186.40" y2="120.49" stroke="#333" stroke-width="1"/>
<line x1="184.40" y1="132.91" x2="188.40" y2="132.91" stroke="#333" stroke-width="1"/>
<line x1="184.40" y1="120.49" x2="188.40" y2="120.49" stroke="#333" stroke-width="1"/>
<text x="179.5" y="204" text-anchor="end" font-size="9" fill="#2196F3" transform="rotate(-45,179.5,204)">Emotions</text>
<rect x="203.14" y="135.33" width="13.81" height="54.67" fill="#2E7D32" opacity="0.85"><title>Partner Identity: 3.309 ×10⁻³</title></rect>
<line x1="210.04" y1="143.51" x2="210.04" y2="132.15" stroke="#333" stroke-width="1"/>
<line x1="208.04" y1="143.51" x2="212.04" y2="143.51" stroke="#333" stroke-width="1"/>
<line x1="208.04" y1="132.15" x2="212.04" y2="132.15" stroke="#333" stroke-width="1"/>
<rect x="218.94" y="103.21" width="13.81" height="86.79" fill="#616161" opacity="0.85"><title>Control: 5.253 ×10⁻³</title></rect>
<line x1="225.85" y1="116.64" x2="225.85" y2="97.31" stroke="#333" stroke-width="1"/>
<line x1="223.85" y1="116.64" x2="227.85" y2="116.64" stroke="#333" stroke-width="1"/>
<line x1="223.85" y1="97.31" x2="227.85" y2="97.31" stroke="#333" stroke-width="1"/>
<text x="218.9" y="204" text-anchor="end" font-size="9" fill="#2196F3" transform="rotate(-45,218.9,204)">Agency</text>
<rect x="242.58" y="142.98" width="13.81" height="47.02" fill="#2E7D32" opacity="0.85"><title>Partner Identity: 2.846 ×10⁻³</title></rect>
<line x1="249.49" y1="150.56" x2="249.49" y2="139.30" stroke="#333" stroke-width="1"/>
<line x1="247.49" y1="150.56" x2="251.49" y2="150.56" stroke="#333" stroke-width="1"/>
<line x1="247.49" y1="139.30" x2="251.49" y2="139.30" stroke="#333" stroke-width="1"/>
<rect x="258.39" y="113.15" width="13.81" height="76.85" fill="#616161" opacity="0.85"><title>Control: 4.652 ×10⁻³</title></rect>
<line x1="265.29" y1="126.98" x2="265.29" y2="104.25" stroke="#333" stroke-width="1"/>
<line x1="263.29" y1="126.98" x2="267.29" y2="126.98" stroke="#333" stroke-width="1"/>
<line x1="263.29" y1="104.25" x2="267.29" y2="104.25" stroke="#333" stroke-width="1"/>
<text x="258.4" y="204" text-anchor="end" font-size="9" fill="#2196F3" transform="rotate(-45,258.4,204)">Intentions</text>
<rect x="282.03" y="128.99" width="13.81" height="61.01" fill="#2E7D32" opacity="0.85"><title>Partner Identity: 3.693 ×10⁻³</title></rect>
<line x1="288.93" y1="138.91" x2="288.93" y2="124.46" stroke="#333" stroke-width="1"/>
<line x1="286.93" y1="138.91" x2="290.93" y2="138.91" stroke="#333" stroke-width="1"/>
<line x1="286.93" y1="124.46" x2="290.93" y2="124.46" stroke="#333" stroke-width="1"/>
<rect x="297.83" y="97.29" width="13.81" height="92.71" fill="#616161" opacity="0.85"><title>Control: 5.612 ×10⁻³</title></rect>
<line x1="304.74" y1="113.23" x2="304.74" y2="87.69" stroke="#333" stroke-width="1"/>
<line x1="302.74" y1="113.23" x2="306.74" y2="113.23" stroke="#333" stroke-width="1"/>
<line x1="302.74" y1="87.69" x2="306.74" y2="87.69" stroke="#333" stroke-width="1"/>
<text x="297.8" y="204" text-anchor="end" font-size="9" fill="#2196F3" transform="rotate(-45,297.8,204)">Prediction</text>
<rect x="321.47" y="138.78" width="13.81" height="51.22" fill="#2E7D32" opacity="0.85"><title>Partner Identity: 3.100 ×10⁻³</title></rect>
<line x1="328.38" y1="147.53" x2="328.38" y2="132.54" stroke="#333" stroke-width="1"/>
<line x1="326.38" y1="147.53" x2="330.38" y2="147.53" stroke="#333" stroke-width="1"/>
<line x1="326.38" y1="132.54" x2="330.38" y2="132.54" stroke="#333" stroke-width="1"/>
<rect x="337.28" y="118.58" width="13.81" height="71.42" fill="#616161" opacity="0.85"><title>Control: 4.323 ×10⁻³</title></rect>
<line x1="344.18" y1="130.74" x2="344.18" y2="110.21" stroke="#333" stroke-width="1"/>
<line x1="342.18" y1="130.74" x2="346.18" y2="130.74" stroke="#333" stroke-width="1"/>
<line x1="342.18" y1="110.21" x2="346.18" y2="110.21" stroke="#333" stroke-width="1"/>
<text x="337.3" y="204" text-anchor="end" font-size="9" fill="#2196F3" transform="rotate(-45,337.3,204)">Cognitive</text>
<rect x="360.92" y="129.64" width="13.81" height="60.36" fill="#2E7D32" opacity="0.85"><title>Partner Identity: 3.654 ×10⁻³</title></rect>
<line x1="367.82" y1="138.96" x2="367.82" y2="125.78" stroke="#333" stroke-width="1"/>
<line x1="365.82" y1="138.96" x2="369.82" y2="138.96" stroke="#333" stroke-width="1"/>
<line x1="365.82" y1="125.78" x2="369.82" y2="125.78" stroke="#333" stroke-width="1"/>
<rect x="376.72" y="93.97" width="13.81" height="96.03" fill="#616161" opacity="0.85"><title>Control: 5.813 ×10⁻³</title></rect>
<line x1="383.62" y1="110.52" x2="383.62" y2="84.74" stroke="#333" stroke-width="1"/>
<line x1="381.62" y1="110.52" x2="385.62" y2="110.52" stroke="#333" stroke-width="1"/>
<line x1="381.62" y1="84.74" x2="385.62" y2="84.74" stroke="#333" stroke-width="1"/>
<text x="376.7" y="204" text-anchor="end" font-size="9" fill="#2196F3" transform="rotate(-45,376.7,204)">Social</text>
<rect x="400.36" y="128.96" width="13.81" height="61.04" fill="#2E7D32" opacity="0.85"><title>Partner Identity: 3.695 ×10⁻³</title></rect>
<line x1="407.26" y1="139.09" x2="407.26" y2="123.94" stroke="#333" stroke-width="1"/>
<line x1="405.26" y1="139.09" x2="409.26" y2="139.09" stroke="#333" stroke-width="1"/>
<line x1="405.26" y1="123.94" x2="409.26" y2="123.94" stroke="#333" stroke-width="1"/>
<rect x="416.17" y="105.63" width="13.81" height="84.37" fill="#616161" opacity="0.85"><title>Control: 5.107 ×10⁻³</title></rect>
<line x1="423.07" y1="119.99" x2="423.07" y2="96.88" stroke="#333" stroke-width="1"/>
<line x1="421.07" y1="119.99" x2="425.07" y2="119.99" stroke="#333" stroke-width="1"/>
<line x1="421.07" y1="96.88" x2="425.07" y2="96.88" stroke="#333" stroke-width="1"/>
<text x="416.2" y="204" text-anchor="end" font-size="9" fill="#2196F3" transform="rotate(-45,416.2,204)">Attention</text>
<rect x="439.81" y="147.71" width="13.81" height="42.29" fill="#2E7D32" opacity="0.85"><title>Partner Identity: 2.560 ×10⁻³</title></rect>
<line x1="446.71" y1="155.71" x2="446.71" y2="143.43" stroke="#333" stroke-width="1"/>
<line x1="444.71" y1="155.71" x2="448.71" y2="155.71" stroke="#333" stroke-width="1"/>
<line x1="444.71" y1="143.43" x2="448.71" y2="143.43" stroke="#333" stroke-width="1"/>
<rect x="455.61" y="105.87" width="13.81" height="84.13" fill="#616161" opacity="0.85"><title>Control: 5.092 ×10⁻³</title></rect>
<line x1="462.51" y1="122.63" x2="462.51" y2="96.26" stroke="#333" stroke-width="1"/>
<line x1="460.51" y1="122.63" x2="464.51" y2="122.63" stroke="#333" stroke-width="1"/>
<line x1="460.51" y1="96.26" x2="464.51" y2="96.26" stroke="#333" stroke-width="1"/>
<text x="455.6" y="204" text-anchor="end" font-size="9" fill="#4CAF50" transform="rotate(-45,455.6,204)">Embodiment</text>
<rect x="479.25" y="132.61" width="13.81" height="57.39" fill="#2E7D32" opacity="0.85"><title>Partner Identity: 3.474 ×10⁻³</title></rect>
<line x1="486.15" y1="145.27" x2="486.15" y2="125.99" stroke="#333" stroke-width="1"/>
<line x1="484.15" y1="145.27" x2="488.15" y2="145.27" stroke="#333" stroke-width="1"/>
<line x1="484.15" y1="125.99" x2="488.15" y2="125.99" stroke="#333" stroke-width="1"/>
<rect x="495.06" y="84.82" width="13.81" height="105.18" fill="#616161" opacity="0.85"><title>Control: 6.367 ×10⁻³</title></rect>
<line x1="501.96" y1="107.80" x2="501.96" y2="72.04" stroke="#333" stroke-width="1"/>
<line x1="499.96" y1="107.80" x2="503.96" y2="107.80" stroke="#333" stroke-width="1"/>
<line x1="499.96" y1="72.04" x2="503.96" y2="72.04" stroke="#333" stroke-width="1"/>
<text x="495.1" y="204" text-anchor="end" font-size="9" fill="#4CAF50" transform="rotate(-45,495.1,204)">Roles</text>
<rect x="518.69" y="142.45" width="13.81" height="47.55" fill="#2E7D32" opacity="0.85"><title>Partner Identity: 2.878 ×10⁻³</title></rect>
<line x1="525.60" y1="151.66" x2="525.60" y2="138.46" stroke="#333" stroke-width="1"/>
<line x1="523.60" y1="151.66" x2="527.60" y2="151.66" stroke="#333" stroke-width="1"/>
<line x1="523.60" y1="138.46" x2="527.60" y2="138.46" stroke="#333" stroke-width="1"/>
<rect x="534.50" y="88.11" width="13.81" height="101.89" fill="#616161" opacity="0.85"><title>Control: 6.167 ×10⁻³</title></rect>
<line x1="541.40" y1="107.53" x2="541.40" y2="81.00" stroke="#333" stroke-width="1"/>
<line x1="539.40" y1="107.53" x2="543.40" y2="107.53" stroke="#333" stroke-width="1"/>
<line x1="539.40" y1="81.00" x2="543.40" y2="81.00" stroke="#333" stroke-width="1"/>
<text x="534.5" y="204" text-anchor="end" font-size="9" fill="#4CAF50" transform="rotate(-45,534.5,204)">Animacy</text>
<rect x="558.14" y="186.68" width="13.81" height="3.32" fill="#2E7D32" opacity="0.85"><title>Partner Identity: 0.201 ×10⁻³</title></rect>
<line x1="565.04" y1="187.64" x2="565.04" y2="185.06" stroke="#333" stroke-width="1"/>
<line x1="563.04" y1="187.64" x2="567.04" y2="187.64" stroke="#333" stroke-width="1"/>
<line x1="563.04" y1="185.06" x2="567.04" y2="185.06" stroke="#333" stroke-width="1"/>
<rect x="573.94" y="185.30" width="13.81" height="4.70" fill="#616161" opacity="0.85"><title>Control: 0.284 ×10⁻³</title></rect>
<line x1="580.85" y1="186.46" x2="580.85" y2="182.64" stroke="#333" stroke-width="1"/>
<line x1="578.85" y1="186.46" x2="582.85" y2="186.46" stroke="#333" stroke-width="1"/>
<line x1="578.85" y1="182.64" x2="582.85" y2="182.64" stroke="#333" stroke-width="1"/>
<text x="573.9" y="204" text-anchor="end" font-size="9" fill="#FF9800" transform="rotate(-45,573.9,204)">Formality</text>
<rect x="597.58" y="184.74" width="13.81" height="5.26" fill="#2E7D32" opacity="0.85"><title>Partner Identity: 0.318 ×10⁻³</title></rect>
<line x1="604.49" y1="185.70" x2="604.49" y2="182.98" stroke="#333" stroke-width="1"/>
<line x1="602.49" y1="185.70" x2="606.49" y2="185.70" stroke="#333" stroke-width="1"/>
<line x1="602.49" y1="182.98" x2="606.49" y2="182.98" stroke="#333" stroke-width="1"/>
<rect x="613.39" y="180.60" width="13.81" height="9.40" fill="#616161" opacity="0.85"><title>Control: 0.569 ×10⁻³</title></rect>
<line x1="620.29" y1="182.52" x2="620.29" y2="177.81" stroke="#333" stroke-width="1"/>
<line x1="618.29" y1="182.52" x2="622.29" y2="182.52" stroke="#333" stroke-width="1"/>
<line x1="618.29" y1="177.81" x2="622.29" y2="177.81" stroke="#333" stroke-width="1"/>
<text x="613.4" y="204" text-anchor="end" font-size="9" fill="#FF9800" transform="rotate(-45,613.4,204)">Expertise</text>
<rect x="637.03" y="182.54" width="13.81" height="7.46" fill="#2E7D32" opacity="0.85"><title>Partner Identity: 0.452 ×10⁻³</title></rect>
<line x1="643.93" y1="186.27" x2="643.93" y2="179.50" stroke="#333" stroke-width="1"/>
<line x1="641.93" y1="186.27" x2="645.93" y2="186.27" stroke="#333" stroke-width="1"/>
<line x1="641.93" y1="179.50" x2="645.93" y2="179.50" stroke="#333" stroke-width="1"/>
<rect x="652.83" y="184.76" width="13.81" height="5.24" fill="#616161" opacity="0.85"><title>Control: 0.317 ×10⁻³</title></rect>
<line x1="659.74" y1="186.56" x2="659.74" y2="179.07" stroke="#333" stroke-width="1"/>
<line x1="657.74" y1="186.56" x2="661.74" y2="186.56" stroke="#333" stroke-width="1"/>
<line x1="657.74" y1="179.07" x2="661.74" y2="179.07" stroke="#333" stroke-width="1"/>
<text x="652.8" y="204" text-anchor="end" font-size="9" fill="#FF9800" transform="rotate(-45,652.8,204)">Helpfulness</text>
<rect x="676.47" y="105.00" width="13.81" height="85.00" fill="#2E7D32" opacity="0.85"><title>Partner Identity: 5.145 ×10⁻³</title></rect>
<line x1="683.38" y1="117.46" x2="683.38" y2="89.25" stroke="#333" stroke-width="1"/>
<line x1="681.38" y1="117.46" x2="685.38" y2="117.46" stroke="#333" stroke-width="1"/>
<line x1="681.38" y1="89.25" x2="685.38" y2="89.25" stroke="#333" stroke-width="1"/>
<rect x="692.28" y="127.31" width="13.81" height="62.69" fill="#616161" opacity="0.85"><title>Control: 3.795 ×10⁻³</title></rect>
<line x1="699.18" y1="136.05" x2="699.18" y2="120.12" stroke="#333" stroke-width="1"/>
<line x1="697.18" y1="136.05" x2="701.18" y2="136.05" stroke="#333" stroke-width="1"/>
<line x1="697.18" y1="120.12" x2="701.18" y2="120.12" stroke="#333" stroke-width="1"/>
<text x="692.3" y="204" text-anchor="end" font-size="9" fill="#00BCD4" transform="rotate(-45,692.3,204)">SysPrompt</text>
<line x1="0" y1="190" x2="710" y2="190" stroke="#333"/>
<line x1="0" y1="0" x2="0" y2="190" stroke="#333"/>
</g>
<rect x="70" y="320" width="10" height="10" fill="#2E7D32"/>
<text x="84" y="328" font-size="9" fill="#333">Partner Identity</text>
<rect x="210" y="320" width="10" height="10" fill="#616161"/>
<text x="224" y="328" font-size="9" fill="#333">Control</text>
</svg>