<svg viewBox="0 0 800 320" xmlns="http://www.w3.org/2000/svg" style="width:100%;max-width:800px;height:auto;font-family:Arial,sans-serif;">
<rect width="800" height="320" fill="white"/>

<g transform="translate(70,30)">
<line x1="0" y1="180.0" x2="710" y2="180.0" stroke="#eee" stroke-width="1"/>
<text x="-8" y="184.0" text-anchor="end" font-size="10" fill="#666">0.00</text>
<line x1="0" y1="144.0" x2="710" y2="144.0" stroke="#eee" stroke-width="1"/>
<text x="-8" y="148.0" text-anchor="end" font-size="10" fill="#666">2.30</text>
<line x1="0" y1="108.0" x2="710" y2="108.0" stroke="#eee" stroke-width="1"/>
<text x="-8" y="112.0" text-anchor="end" font-size="10" fill="#666">4.60</text>
<line x1="0" y1="72.0" x2="710" y2="72.0" stroke="#eee" stroke-width="1"/>
<text x="-8" y="76.0" text-anchor="end" font-size="10" fill="#666">6.90</text>
<line x1="0" y1="36.0" x2="710" y2="36.0" stroke="#eee" stroke-width="1"/>
<text x="-8" y="40.0" text-anchor="end" font-size="10" fill="#666">9.20</text>
<line x1="0" y1="0.0" x2="710" y2="0.0" stroke="#eee" stroke-width="1"/>
<text x="-8" y="4.0" text-anchor="end" font-size="10" fill="#666">11.50</text>
<text x="-50" y="90.0" text-anchor="middle" font-size="11" fill="#333" transform="rotate(-90,-50,90.0)">Mean R² (×10⁻³)</text>
<rect x="17.75" y="139.93" width="41.42" height="40.07" fill="#2E7D32" opacity="0.85"><title>Partner Identity — Embodiment: 2.560 ×10⁻³</title></rect>
<line x1="38.46" y1="147.52" x2="38.46" y2="135.88" stroke="#333" stroke-width="1"/>
<line x1="36.46" y1="147.52" x2="40.46" y2="147.52" stroke="#333" stroke-width="1"/>
<line x1="36.46" y1="135.88" x2="40.46" y2="135.88" stroke="#333" stroke-width="1"/>
<rect x="61.17" y="100.30" width="41.42" height="79.70" fill="#616161" opacity="0.85"><title>Control — Embodiment: 5.092 ×10⁻³</title></rect>
<line x1="81.88" y1="116.18" x2="81.88" y2="91.19" stroke="#333" stroke-width="1"/>
<line x1="79.88" y1="116.18" x2="83.88" y2="116.18" stroke="#333" stroke-width="1"/>
<line x1="79.88" y1="91.19" x2="83.88" y2="91.19" stroke="#333" stroke-width="1"/>
<text x="61.2" y="194" text-anchor="end" font-size="10" fill="#4CAF50" transform="rotate(-30,61.2,194)">Embodiment</text>
<rect x="136.08" y="125.63" width="41.42" height="54.37" fill="#2E7D32" opacity="0.85"><title>Partner Identity — Roles: 3.474 ×10⁻³</title></rect>
<line x1="156.79" y1="137.63" x2="156.79" y2="119.35" stroke="#333" stroke-width="1"/>
<line x1="154.79" y1="137.63" x2="158.79" y2="137.63" stroke="#333" stroke-width="1"/>
<line x1="154.79" y1="119.35" x2="158.79" y2="119.35" stroke="#333" stroke-width="1"/>
<rect x="179.50" y="80.35" width="41.42" height="99.65" fill="#616161" opacity="0.85"><title>Control — Roles: 6.367 ×10⁻³</title></rect>
<line x1="200.21" y1="102.13" x2="200.21" y2="68.25" stroke="#333" stroke-width="1"/>
<line x1="198.21" y1="102.13" x2="202.21" y2="102.13" stroke="#333" stroke-width="1"/>
<line x1="198.21" y1="68.25" x2="202.21" y2="68.25" stroke="#333" stroke-width="1"/>
<text x="179.5" y="194" text-anchor="end" font-size="10" fill="#4CAF50" transform="rotate(-30,179.5,194)">Roles</text>
<rect x="254.42" y="134.95" width="41.42" height="45.05" fill="#2E7D32" opacity="0.85"><title>Partner Identity — Animacy: 2.878 ×10⁻³</title></rect>
<line x1="275.12" y1="143.68" x2="275.12" y2="131.17" stroke="#333" stroke-width="1"/>
<line x1="273.12" y1="143.68" x2="277.12" y2="143.68" stroke="#333" stroke-width="1"/>
<line x1="273.12" y1="131.17" x2="277.12" y2="131.17" stroke="#333" stroke-width="1"/>
<rect x="297.83" y="83.48" width="41.42" height="96.52" fill="#616161" opacity="0.85"><title>Control — Animacy: 6.167 ×10⁻³</title></rect>
<line x1="318.54" y1="101.87" x2="318.54" y2="76.74" stroke="#333" stroke-width="1"/>
<line x1="316.54" y1="101.87" x2="320.54" y2="101.87" stroke="#333" stroke-width="1"/>
<line x1="316.54" y1="76.74" x2="320.54" y2="76.74" stroke="#333" stroke-width="1"/>
<text x="297.8" y="194" text-anchor="end" font-size="10" fill="#4CAF50" transform="rotate(-30,297.8,194)">Animacy</text>
<line x1="355.0" y1="0" x2="355.0" y2="180" stroke="#ccc" stroke-width="1" stroke-dasharray="4,3"/>
<rect x="372.75" y="117.51" width="41.42" height="62.49" fill="#2E7D32" opacity="0.5"><title>Partner Identity — Human vs AI (general): 3.993 ×10⁻³</title></rect>
<line x1="393.46" y1="136.27" x2="393.46" y2="111.21" stroke="#333" stroke-width="1"/>
<line x1="391.46" y1="136.27" x2="395.46" y2="136.27" stroke="#333" stroke-width="1"/>
<line x1="391.46" y1="111.21" x2="395.46" y2="111.21" stroke="#333" stroke-width="1"/>
<rect x="416.17" y="28.90" width="41.42" height="151.10" fill="#616161" opacity="0.5"><title>Control — Human vs AI (general): 9.654 ×10⁻³</title></rect>
<line x1="436.88" y1="59.38" x2="436.88" y2="24.16" stroke="#333" stroke-width="1"/>
<line x1="434.88" y1="59.38" x2="438.88" y2="59.38" stroke="#333" stroke-width="1"/>
<line x1="434.88" y1="24.16" x2="438.88" y2="24.16" stroke="#333" stroke-width="1"/>
<text x="416.2" y="194" text-anchor="end" font-size="10" fill="#9E9E9E" transform="rotate(-30,416.2,194)">Human vs AI (general)</text>
<rect x="491.08" y="147.79" width="41.42" height="32.21" fill="#2E7D32" opacity="0.5"><title>Partner Identity — Biological: 2.058 ×10⁻³</title></rect>
<line x1="511.79" y1="152.24" x2="511.79" y2="145.19" stroke="#333" stroke-width="1"/>
<line x1="509.79" y1="152.24" x2="513.79" y2="152.24" stroke="#333" stroke-width="1"/>
<line x1="509.79" y1="145.19" x2="513.79" y2="145.19" stroke="#333" stroke-width="1"/>
<rect x="534.50" y="116.07" width="41.42" height="63.93" fill="#616161" opacity="0.5"><title>Control — Biological: 4.084 ×10⁻³</title></rect>
<line x1="555.21" y1="124.80" x2="555.21" y2="110.54" stroke="#333" stroke-width="1"/>
<line x1="553.21" y1="124.80" x2="557.21" y2="124.80" stroke="#333" stroke-width="1"/>
<line x1="553.21" y1="110.54" x2="557.21" y2="110.54" stroke="#333" stroke-width="1"/>
<text x="534.5" y="194" text-anchor="end" font-size="10" fill="#9E9E9E" transform="rotate(-30,534.5,194)">Biological</text>
<rect x="609.42" y="171.86" width="41.42" height="8.14" fill="#2E7D32" opacity="0.5"><title>Partner Identity — Shapes: 0.520 ×10⁻³</title></rect>
<line x1="630.12" y1="175.02" x2="630.12" y2="169.18" stroke="#333" stroke-width="1"/>
<line x1="628.12" y1="175.02" x2="632.12" y2="175.02" stroke="#333" stroke-width="1"/>
<line x1="628.12" y1="169.18" x2="632.12" y2="169.18" stroke="#333" stroke-width="1"/>
<rect x="652.83" y="169.97" width="41.42" height="10.03" fill="#616161" opacity="0.5"><title>Control — Shapes: 0.641 ×10⁻³</title></rect>
<line x1="673.54" y1="174.87" x2="673.54" y2="163.45" stroke="#333" stroke-width="1"/>
<line x1="671.54" y1="174.87" x2="675.54" y2="174.87" stroke="#333" stroke-width="1"/>
<line x1="671.54" y1="163.45" x2="675.54" y2="163.45" stroke="#333" stroke-width="1"/>
<text x="652.8" y="194" text-anchor="end" font-size="10" fill="#9E9E9E" transform="rotate(-30,652.8,194)">Shapes</text>
<line x1="0" y1="180" x2="710" y2="180" stroke="#333"/>
<line x1="0" y1="0" x2="0" y2="180" stroke="#333"/>
</g>
<rect x="70" y="300" width="10" height="10" fill="#2E7D32"/>
<text x="84" y="308" font-size="9" fill="#333">Partner Identity</text>
<rect x="210" y="300" width="10" height="10" fill="#616161"/>
<text x="224" y="308" font-size="9" fill="#333">Control</text>
</svg>