<svg viewBox="0 0 800 320" xmlns="http://www.w3.org/2000/svg" style="width:100%;max-width:800px;height:auto;font-family:Arial,sans-serif;">
<rect width="800" height="320" fill="white"/>

<g transform="translate(70,30)">
<line x1="0" y1="180.0" x2="710" y2="180.0" stroke="#eee" stroke-width="1"/>
<text x="-8" y="184.0" text-anchor="end" font-size="10" fill="#666">0.00</text>
<line x1="0" y1="144.0" x2="710" y2="144.0" stroke="#eee" stroke-width="1"/>
<text x="-8" y="148.0" text-anchor="end" font-size="10" fill="#666">2.30</text>
<line x1="0" y1="108.0" x2="710" y2="108.0" stroke="#eee" stroke-width="1"/>
<text x="-8" y="112.0" text-anchor="end" font-size="10" fill="#666">4.60</text>
<line x1="0" y1="72.0" x2="710" y2="72.0" stroke="#eee" stroke-width="1"/>
<text x="-8" y="76.0" text-anchor="end" font-size="10" fill="#666">6.90</text>
<line x1="0" y1="36.0" x2="710" y2="36.0" stroke="#eee" stroke-width="1"/>
<text x="-8" y="40.0" text-anchor="end" font-size="10" fill="#666">9.20</text>
<line x1="0" y1="0.0" x2="710" y2="0.0" stroke="#eee" stroke-width="1"/>
<text x="-8" y="4.0" text-anchor="end" font-size="10" fill="#666">11.50</text>
<text x="-50" y="90.0" text-anchor="middle" font-size="11" fill="#333" transform="rotate(-90,-50,90.0)">Mean R² (×10⁻³)</text>
<rect x="9.68" y="140.04" width="22.59" height="39.96" fill="#2E7D32" opacity="0.85"><title>Partner Identity — Phenomenology: 2.553 ×10⁻³</title></rect>
<line x1="20.98" y1="147.26" x2="20.98" y2="136.91" stroke="#333" stroke-width="1"/>
<line x1="18.98" y1="147.26" x2="22.98" y2="147.26" stroke="#333" stroke-width="1"/>
<line x1="18.98" y1="136.91" x2="22.98" y2="136.91" stroke="#333" stroke-width="1"/>
<rect x="34.27" y="108.92" width="22.59" height="71.08" fill="#616161" opacity="0.85"><title>Control — Phenomenology: 4.541 ×10⁻³</title></rect>
<line x1="45.57" y1="122.07" x2="45.57" y2="100.93" stroke="#333" stroke-width="1"/>
<line x1="43.57" y1="122.07" x2="47.57" y2="122.07" stroke="#333" stroke-width="1"/>
<line x1="43.57" y1="100.93" x2="47.57" y2="100.93" stroke="#333" stroke-width="1"/>
<text x="34.3" y="194" text-anchor="end" font-size="10" fill="#2196F3" transform="rotate(-30,34.3,194)">Phenomenology</text>
<rect x="74.23" y="138.07" width="22.59" height="41.93" fill="#2E7D32" opacity="0.85"><title>Partner Identity — Emotions: 2.679 ×10⁻³</title></rect>
<line x1="85.52" y1="143.32" x2="85.52" y2="135.86" stroke="#333" stroke-width="1"/>
<line x1="83.52" y1="143.32" x2="87.52" y2="143.32" stroke="#333" stroke-width="1"/>
<line x1="83.52" y1="135.86" x2="87.52" y2="135.86" stroke="#333" stroke-width="1"/>
<rect x="98.82" y="118.22" width="22.59" height="61.78" fill="#616161" opacity="0.85"><title>Control — Emotions: 3.947 ×10⁻³</title></rect>
<line x1="110.11" y1="125.91" x2="110.11" y2="114.15" stroke="#333" stroke-width="1"/>
<line x1="108.11" y1="125.91" x2="112.11" y2="125.91" stroke="#333" stroke-width="1"/>
<line x1="108.11" y1="114.15" x2="112.11" y2="114.15" stroke="#333" stroke-width="1"/>
<text x="98.8" y="194" text-anchor="end" font-size="10" fill="#2196F3" transform="rotate(-30,98.8,194)">Emotions</text>
<rect x="138.77" y="128.21" width="22.59" height="51.79" fill="#2E7D32" opacity="0.85"><title>Partner Identity — Agency: 3.309 ×10⁻³</title></rect>
<line x1="150.07" y1="135.96" x2="150.07" y2="125.19" stroke="#333" stroke-width="1"/>
<line x1="148.07" y1="135.96" x2="152.07" y2="135.96" stroke="#333" stroke-width="1"/>
<line x1="148.07" y1="125.19" x2="152.07" y2="125.19" stroke="#333" stroke-width="1"/>
<rect x="163.36" y="97.78" width="22.59" height="82.22" fill="#616161" opacity="0.85"><title>Control — Agency: 5.253 ×10⁻³</title></rect>
<line x1="174.66" y1="110.50" x2="174.66" y2="92.19" stroke="#333" stroke-width="1"/>
<line x1="172.66" y1="110.50" x2="176.66" y2="110.50" stroke="#333" stroke-width="1"/>
<line x1="172.66" y1="92.19" x2="176.66" y2="92.19" stroke="#333" stroke-width="1"/>
<text x="163.4" y="194" text-anchor="end" font-size="10" fill="#2196F3" transform="rotate(-30,163.4,194)">Agency</text>
<rect x="203.32" y="135.46" width="22.59" height="44.54" fill="#2E7D32" opacity="0.85"><title>Partner Identity — Intentions: 2.846 ×10⁻³</title></rect>
<line x1="214.61" y1="142.63" x2="214.61" y2="131.97" stroke="#333" stroke-width="1"/>
<line x1="212.61" y1="142.63" x2="216.61" y2="142.63" stroke="#333" stroke-width="1"/>
<line x1="212.61" y1="131.97" x2="216.61" y2="131.97" stroke="#333" stroke-width="1"/>
<rect x="227.91" y="107.20" width="22.59" height="72.80" fill="#616161" opacity="0.85"><title>Control — Intentions: 4.652 ×10⁻³</title></rect>
<line x1="239.20" y1="120.29" x2="239.20" y2="98.77" stroke="#333" stroke-width="1"/>
<line x1="237.20" y1="120.29" x2="241.20" y2="120.29" stroke="#333" stroke-width="1"/>
<line x1="237.20" y1="98.77" x2="241.20" y2="98.77" stroke="#333" stroke-width="1"/>
<text x="227.9" y="194" text-anchor="end" font-size="10" fill="#2196F3" transform="rotate(-30,227.9,194)">Intentions</text>
<rect x="267.86" y="122.20" width="22.59" height="57.80" fill="#2E7D32" opacity="0.85"><title>Partner Identity — Prediction: 3.693 ×10⁻³</title></rect>
<line x1="279.16" y1="131.60" x2="279.16" y2="117.91" stroke="#333" stroke-width="1"/>
<line x1="277.16" y1="131.60" x2="281.16" y2="131.60" stroke="#333" stroke-width="1"/>
<line x1="277.16" y1="117.91" x2="281.16" y2="117.91" stroke="#333" stroke-width="1"/>
<rect x="292.45" y="92.16" width="22.59" height="87.84" fill="#616161" opacity="0.85"><title>Control — Prediction: 5.612 ×10⁻³</title></rect>
<line x1="303.75" y1="107.27" x2="303.75" y2="83.07" stroke="#333" stroke-width="1"/>
<line x1="301.75" y1="107.27" x2="305.75" y2="107.27" stroke="#333" stroke-width="1"/>
<line x1="301.75" y1="83.07" x2="305.75" y2="83.07" stroke="#333" stroke-width="1"/>
<text x="292.5" y="194" text-anchor="end" font-size="10" fill="#2196F3" transform="rotate(-30,292.5,194)">Prediction</text>
<rect x="332.41" y="131.47" width="22.59" height="48.53" fill="#2E7D32" opacity="0.85"><title>Partner Identity — Cognitive: 3.100 ×10⁻³</title></rect>
<line x1="343.70" y1="139.77" x2="343.70" y2="125.56" stroke="#333" stroke-width="1"/>
<line x1="341.70" y1="139.77" x2="345.70" y2="139.77" stroke="#333" stroke-width="1"/>
<line x1="341.70" y1="125.56" x2="345.70" y2="125.56" stroke="#333" stroke-width="1"/>
<rect x="357.00" y="112.34" width="22.59" height="67.66" fill="#616161" opacity="0.85"><title>Control — Cognitive: 4.323 ×10⁻³</title></rect>
<line x1="368.30" y1="123.86" x2="368.30" y2="104.40" stroke="#333" stroke-width="1"/>
<line x1="366.30" y1="123.86" x2="370.30" y2="123.86" stroke="#333" stroke-width="1"/>
<line x1="366.30" y1="104.40" x2="370.30" y2="104.40" stroke="#333" stroke-width="1"/>
<text x="357.0" y="194" text-anchor="end" font-size="10" fill="#2196F3" transform="rotate(-30,357.0,194)">Cognitive</text>
<rect x="396.95" y="122.81" width="22.59" height="57.19" fill="#2E7D32" opacity="0.85"><title>Partner Identity — Social: 3.654 ×10⁻³</title></rect>
<line x1="408.25" y1="131.65" x2="408.25" y2="119.16" stroke="#333" stroke-width="1"/>
<line x1="406.25" y1="131.65" x2="410.25" y2="131.65" stroke="#333" stroke-width="1"/>
<line x1="406.25" y1="119.16" x2="410.25" y2="119.16" stroke="#333" stroke-width="1"/>
<rect x="421.55" y="89.02" width="22.59" height="90.98" fill="#616161" opacity="0.85"><title>Control — Social: 5.813 ×10⁻³</title></rect>
<line x1="432.84" y1="104.70" x2="432.84" y2="80.28" stroke="#333" stroke-width="1"/>
<line x1="430.84" y1="104.70" x2="434.84" y2="104.70" stroke="#333" stroke-width="1"/>
<line x1="430.84" y1="80.28" x2="434.84" y2="80.28" stroke="#333" stroke-width="1"/>
<text x="421.5" y="194" text-anchor="end" font-size="10" fill="#2196F3" transform="rotate(-30,421.5,194)">Social</text>
<rect x="461.50" y="122.17" width="22.59" height="57.83" fill="#2E7D32" opacity="0.85"><title>Partner Identity — Attention: 3.695 ×10⁻³</title></rect>
<line x1="472.80" y1="131.77" x2="472.80" y2="117.42" stroke="#333" stroke-width="1"/>
<line x1="470.80" y1="131.77" x2="474.80" y2="131.77" stroke="#333" stroke-width="1"/>
<line x1="470.80" y1="117.42" x2="474.80" y2="117.42" stroke="#333" stroke-width="1"/>
<rect x="486.09" y="100.07" width="22.59" height="79.93" fill="#616161" opacity="0.85"><title>Control — Attention: 5.107 ×10⁻³</title></rect>
<line x1="497.39" y1="113.68" x2="497.39" y2="91.78" stroke="#333" stroke-width="1"/>
<line x1="495.39" y1="113.68" x2="499.39" y2="113.68" stroke="#333" stroke-width="1"/>
<line x1="495.39" y1="91.78" x2="499.39" y2="91.78" stroke="#333" stroke-width="1"/>
<text x="486.1" y="194" text-anchor="end" font-size="10" fill="#2196F3" transform="rotate(-30,486.1,194)">Attention</text>
<line x1="516.3636363636364" y1="0" x2="516.3636363636364" y2="180" stroke="#ccc" stroke-width="1" stroke-dasharray="4,3"/>
<rect x="526.05" y="117.51" width="22.59" height="62.49" fill="#2E7D32" opacity="0.5"><title>Partner Identity — Human vs AI (general): 3.993 ×10⁻³</title></rect>
<line x1="537.34" y1="136.27" x2="537.34" y2="111.21" stroke="#333" stroke-width="1"/>
<line x1="535.34" y1="136.27" x2="539.34" y2="136.27" stroke="#333" stroke-width="1"/>
<line x1="535.34" y1="111.21" x2="539.34" y2="111.21" stroke="#333" stroke-width="1"/>
<rect x="550.64" y="28.90" width="22.59" height="151.10" fill="#616161" opacity="0.5"><title>Control — Human vs AI (general): 9.654 ×10⁻³</title></rect>
<line x1="561.93" y1="59.38" x2="561.93" y2="24.16" stroke="#333" stroke-width="1"/>
<line x1="559.93" y1="59.38" x2="563.93" y2="59.38" stroke="#333" stroke-width="1"/>
<line x1="559.93" y1="24.16" x2="563.93" y2="24.16" stroke="#333" stroke-width="1"/>
<text x="550.6" y="194" text-anchor="end" font-size="10" fill="#9E9E9E" transform="rotate(-30,550.6,194)">Human vs AI (general)</text>
<rect x="590.59" y="147.79" width="22.59" height="32.21" fill="#2E7D32" opacity="0.5"><title>Partner Identity — Biological: 2.058 ×10⁻³</title></rect>
<line x1="601.89" y1="152.24" x2="601.89" y2="145.19" stroke="#333" stroke-width="1"/>
<line x1="599.89" y1="152.24" x2="603.89" y2="152.24" stroke="#333" stroke-width="1"/>
<line x1="599.89" y1="145.19" x2="603.89" y2="145.19" stroke="#333" stroke-width="1"/>
<rect x="615.18" y="116.07" width="22.59" height="63.93" fill="#616161" opacity="0.5"><title>Control — Biological: 4.084 ×10⁻³</title></rect>
<line x1="626.48" y1="124.80" x2="626.48" y2="110.54" stroke="#333" stroke-width="1"/>
<line x1="624.48" y1="124.80" x2="628.48" y2="124.80" stroke="#333" stroke-width="1"/>
<line x1="624.48" y1="110.54" x2="628.48" y2="110.54" stroke="#333" stroke-width="1"/>
<text x="615.2" y="194" text-anchor="end" font-size="10" fill="#9E9E9E" transform="rotate(-30,615.2,194)">Biological</text>
<rect x="655.14" y="171.86" width="22.59" height="8.14" fill="#2E7D32" opacity="0.5"><title>Partner Identity — Shapes: 0.520 ×10⁻³</title></rect>
<line x1="666.43" y1="175.02" x2="666.43" y2="169.18" stroke="#333" stroke-width="1"/>
<line x1="664.43" y1="175.02" x2="668.43" y2="175.02" stroke="#333" stroke-width="1"/>
<line x1="664.43" y1="169.18" x2="668.43" y2="169.18" stroke="#333" stroke-width="1"/>
<rect x="679.73" y="169.97" width="22.59" height="10.03" fill="#616161" opacity="0.5"><title>Control — Shapes: 0.641 ×10⁻³</title></rect>
<line x1="691.02" y1="174.87" x2="691.02" y2="163.45" stroke="#333" stroke-width="1"/>
<line x1="689.02" y1="174.87" x2="693.02" y2="174.87" stroke="#333" stroke-width="1"/>
<line x1="689.02" y1="163.45" x2="693.02" y2="163.45" stroke="#333" stroke-width="1"/>
<text x="679.7" y="194" text-anchor="end" font-size="10" fill="#9E9E9E" transform="rotate(-30,679.7,194)">Shapes</text>
<line x1="0" y1="180" x2="710" y2="180" stroke="#333"/>
<line x1="0" y1="0" x2="0" y2="180" stroke="#333"/>
</g>
<rect x="70" y="300" width="10" height="10" fill="#2E7D32"/>
<text x="84" y="308" font-size="9" fill="#333">Partner Identity</text>
<rect x="210" y="300" width="10" height="10" fill="#616161"/>
<text x="224" y="308" font-size="9" fill="#333">Control</text>
</svg>