<svg viewBox="0 0 700 360" xmlns="http://www.w3.org/2000/svg" style="width:100%;max-width:700px;height:auto;font-family:Arial,sans-serif;">
<rect width="700" height="360" fill="white"/>

<g transform="translate(70,30)">
<line x1="0" y1="210.0" x2="610" y2="210.0" stroke="#eee" stroke-width="1"/>
<text x="-8" y="214.0" text-anchor="end" font-size="10" fill="#666">0.00</text>
<line x1="0" y1="168.0" x2="610" y2="168.0" stroke="#eee" stroke-width="1"/>
<text x="-8" y="172.0" text-anchor="end" font-size="10" fill="#666">2.30</text>
<line x1="0" y1="126.0" x2="610" y2="126.0" stroke="#eee" stroke-width="1"/>
<text x="-8" y="130.0" text-anchor="end" font-size="10" fill="#666">4.60</text>
<line x1="0" y1="84.0" x2="610" y2="84.0" stroke="#eee" stroke-width="1"/>
<text x="-8" y="88.0" text-anchor="end" font-size="10" fill="#666">6.90</text>
<line x1="0" y1="42.0" x2="610" y2="42.0" stroke="#eee" stroke-width="1"/>
<text x="-8" y="46.0" text-anchor="end" font-size="10" fill="#666">9.20</text>
<line x1="0" y1="0.0" x2="610" y2="0.0" stroke="#eee" stroke-width="1"/>
<text x="-8" y="4.0" text-anchor="end" font-size="10" fill="#666">11.50</text>
<text x="-50" y="105.0" text-anchor="middle" font-size="11" fill="#333" transform="rotate(-90,-50,105.0)">Mean R² (×10⁻³)</text>
<line x1="305.0" y1="0" x2="305.0" y2="210" stroke="#ccc" stroke-width="1" stroke-dasharray="4,3"/>
<rect x="15.25" y="137.09" width="35.58" height="72.91" fill="#2E7D32" opacity="0.85"><title>Partner Identity — Human vs AI (general): 3.993 ×10⁻³</title></rect>
<line x1="33.04" y1="158.98" x2="33.04" y2="129.75" stroke="#333" stroke-width="1"/>
<line x1="31.04" y1="158.98" x2="35.04" y2="158.98" stroke="#333" stroke-width="1"/>
<line x1="31.04" y1="129.75" x2="35.04" y2="129.75" stroke="#333" stroke-width="1"/>
<rect x="52.83" y="33.72" width="35.58" height="176.28" fill="#616161" opacity="0.85"><title>Control — Human vs AI (general): 9.654 ×10⁻³</title></rect>
<line x1="70.62" y1="69.28" x2="70.62" y2="28.18" stroke="#333" stroke-width="1"/>
<line x1="68.62" y1="69.28" x2="72.62" y2="69.28" stroke="#333" stroke-width="1"/>
<line x1="68.62" y1="28.18" x2="72.62" y2="28.18" stroke="#333" stroke-width="1"/>
<text x="52.8" y="224" text-anchor="end" font-size="10" fill="#9E9E9E" transform="rotate(-30,52.8,224)">Human vs AI (general)</text>
<rect x="116.92" y="172.42" width="35.58" height="37.58" fill="#2E7D32" opacity="0.85"><title>Partner Identity — Biological: 2.058 ×10⁻³</title></rect>
<line x1="134.71" y1="177.61" x2="134.71" y2="169.39" stroke="#333" stroke-width="1"/>
<line x1="132.71" y1="177.61" x2="136.71" y2="177.61" stroke="#333" stroke-width="1"/>
<line x1="132.71" y1="169.39" x2="136.71" y2="169.39" stroke="#333" stroke-width="1"/>
<rect x="154.50" y="135.42" width="35.58" height="74.58" fill="#616161" opacity="0.85"><title>Control — Biological: 4.084 ×10⁻³</title></rect>
<line x1="172.29" y1="145.60" x2="172.29" y2="128.96" stroke="#333" stroke-width="1"/>
<line x1="170.29" y1="145.60" x2="174.29" y2="145.60" stroke="#333" stroke-width="1"/>
<line x1="170.29" y1="128.96" x2="174.29" y2="128.96" stroke="#333" stroke-width="1"/>
<text x="154.5" y="224" text-anchor="end" font-size="10" fill="#9E9E9E" transform="rotate(-30,154.5,224)">Biological</text>
<rect x="218.58" y="200.51" width="35.58" height="9.49" fill="#2E7D32" opacity="0.85"><title>Partner Identity — Shapes: 0.520 ×10⁻³</title></rect>
<line x1="236.38" y1="204.19" x2="236.38" y2="197.38" stroke="#333" stroke-width="1"/>
<line x1="234.38" y1="204.19" x2="238.38" y2="204.19" stroke="#333" stroke-width="1"/>
<line x1="234.38" y1="197.38" x2="238.38" y2="197.38" stroke="#333" stroke-width="1"/>
<rect x="256.17" y="198.30" width="35.58" height="11.70" fill="#616161" opacity="0.85"><title>Control — Shapes: 0.641 ×10⁻³</title></rect>
<line x1="273.96" y1="204.02" x2="273.96" y2="190.69" stroke="#333" stroke-width="1"/>
<line x1="271.96" y1="204.02" x2="275.96" y2="204.02" stroke="#333" stroke-width="1"/>
<line x1="271.96" y1="190.69" x2="275.96" y2="190.69" stroke="#333" stroke-width="1"/>
<text x="256.2" y="224" text-anchor="end" font-size="10" fill="#9E9E9E" transform="rotate(-30,256.2,224)">Shapes</text>
<rect x="320.25" y="151.73" width="35.58" height="58.27" fill="#2E7D32" opacity="0.85"><title>Partner Identity — Mental: 3.191 ×10⁻³</title></rect>
<line x1="338.04" y1="161.00" x2="338.04" y2="147.29" stroke="#333" stroke-width="1"/>
<line x1="336.04" y1="161.00" x2="340.04" y2="161.00" stroke="#333" stroke-width="1"/>
<line x1="336.04" y1="147.29" x2="340.04" y2="147.29" stroke="#333" stroke-width="1"/>
<rect x="357.83" y="120.42" width="35.58" height="89.58" fill="#616161" opacity="0.85"><title>Control — Mental: 4.906 ×10⁻³</title></rect>
<line x1="375.62" y1="135.38" x2="375.62" y2="111.65" stroke="#333" stroke-width="1"/>
<line x1="373.62" y1="135.38" x2="377.62" y2="135.38" stroke="#333" stroke-width="1"/>
<line x1="373.62" y1="111.65" x2="377.62" y2="111.65" stroke="#333" stroke-width="1"/>
<text x="357.8" y="224" text-anchor="end" font-size="10" fill="#2196F3" transform="rotate(-30,357.8,224)">Mental</text>
<rect x="421.92" y="155.75" width="35.58" height="54.25" fill="#2E7D32" opacity="0.85"><title>Partner Identity — Physical: 2.971 ×10⁻³</title></rect>
<line x1="439.71" y1="166.77" x2="439.71" y2="150.27" stroke="#333" stroke-width="1"/>
<line x1="437.71" y1="166.77" x2="441.71" y2="166.77" stroke="#333" stroke-width="1"/>
<line x1="437.71" y1="150.27" x2="441.71" y2="150.27" stroke="#333" stroke-width="1"/>
<rect x="459.50" y="102.72" width="35.58" height="107.28" fill="#616161" opacity="0.85"><title>Control — Physical: 5.875 ×10⁻³</title></rect>
<line x1="477.29" y1="124.51" x2="477.29" y2="91.85" stroke="#333" stroke-width="1"/>
<line x1="475.29" y1="124.51" x2="479.29" y2="124.51" stroke="#333" stroke-width="1"/>
<line x1="475.29" y1="91.85" x2="479.29" y2="91.85" stroke="#333" stroke-width="1"/>
<text x="459.5" y="224" text-anchor="end" font-size="10" fill="#4CAF50" transform="rotate(-30,459.5,224)">Physical</text>
<rect x="523.58" y="204.09" width="35.58" height="5.91" fill="#2E7D32" opacity="0.85"><title>Partner Identity — Pragmatic: 0.324 ×10⁻³</title></rect>
<line x1="541.38" y1="206.17" x2="541.38" y2="201.73" stroke="#333" stroke-width="1"/>
<line x1="539.38" y1="206.17" x2="543.38" y2="206.17" stroke="#333" stroke-width="1"/>
<line x1="539.38" y1="201.73" x2="543.38" y2="201.73" stroke="#333" stroke-width="1"/>
<rect x="561.17" y="202.88" width="35.58" height="7.12" fill="#616161" opacity="0.85"><title>Control — Pragmatic: 0.390 ×10⁻³</title></rect>
<line x1="578.96" y1="204.67" x2="578.96" y2="198.77" stroke="#333" stroke-width="1"/>
<line x1="576.96" y1="204.67" x2="580.96" y2="204.67" stroke="#333" stroke-width="1"/>
<line x1="576.96" y1="198.77" x2="580.96" y2="198.77" stroke="#333" stroke-width="1"/>
<text x="561.2" y="224" text-anchor="end" font-size="10" fill="#FF9800" transform="rotate(-30,561.2,224)">Pragmatic</text>
<line x1="0" y1="210" x2="610" y2="210" stroke="#333"/>
<line x1="0" y1="0" x2="0" y2="210" stroke="#333"/>
</g>
<text x="222" y="322" text-anchor="middle" font-size="10" fill="#666" font-style="italic">Control Dimensions</text>
<text x="528" y="322" text-anchor="middle" font-size="10" fill="#666" font-style="italic">Category Averages</text>
<rect x="70" y="340" width="10" height="10" fill="#2E7D32"/>
<text x="84" y="348" font-size="9" fill="#333">Partner Identity</text>
<rect x="210" y="340" width="10" height="10" fill="#616161"/>
<text x="224" y="348" font-size="9" fill="#333">Control</text>
</svg>