<svg viewBox="0 0 1100 360" xmlns="http://www.w3.org/2000/svg" style="width:100%;max-width:1100px;height:auto;font-family:Arial,sans-serif;">
<rect width="1100" height="360" fill="white"/>
<g transform="translate(70,30)">
<line x1="0" y1="200.0" x2="1010" y2="200.0" stroke="#eee" stroke-width="1"/>
<text x="-8" y="204.0" text-anchor="end" font-size="10" fill="#666">0.00</text>
<line x1="0" y1="160.0" x2="1010" y2="160.0" stroke="#eee" stroke-width="1"/>
<text x="-8" y="164.0" text-anchor="end" font-size="10" fill="#666">2.30</text>
<line x1="0" y1="120.0" x2="1010" y2="120.0" stroke="#eee" stroke-width="1"/>
<text x="-8" y="124.0" text-anchor="end" font-size="10" fill="#666">4.60</text>
<line x1="0" y1="80.0" x2="1010" y2="80.0" stroke="#eee" stroke-width="1"/>
<text x="-8" y="84.0" text-anchor="end" font-size="10" fill="#666">6.90</text>
<line x1="0" y1="40.0" x2="1010" y2="40.0" stroke="#eee" stroke-width="1"/>
<text x="-8" y="44.0" text-anchor="end" font-size="10" fill="#666">9.20</text>
<line x1="0" y1="0.0" x2="1010" y2="0.0" stroke="#eee" stroke-width="1"/>
<text x="-8" y="4.0" text-anchor="end" font-size="10" fill="#666">11.50</text>
<text x="-50" y="100.0" text-anchor="middle" font-size="11" fill="#333" transform="rotate(-90,-50,100.0)">Mean R² (×10⁻³)</text>
<rect x="5.61" y="195.60" width="22.44" height="4.40" fill="#81C784" opacity="0.85"><title>Partner Identity: 0.000253</title></rect>
<line x1="16.83" y1="196.20" x2="16.83" y2="194.84" stroke="#333" stroke-width="1"/>
<line x1="14.83" y1="196.20" x2="18.83" y2="196.20" stroke="#333" stroke-width="1"/>
<line x1="14.83" y1="194.84" x2="18.83" y2="194.84" stroke="#333" stroke-width="1"/>
<rect x="28.06" y="193.47" width="22.44" height="6.53" fill="#BDBDBD" opacity="0.85"><title>Control: 0.000376</title></rect>
<line x1="39.28" y1="194.76" x2="39.28" y2="192.12" stroke="#333" stroke-width="1"/>
<line x1="37.28" y1="194.76" x2="41.28" y2="194.76" stroke="#333" stroke-width="1"/>
<line x1="37.28" y1="192.12" x2="41.28" y2="192.12" stroke="#333" stroke-width="1"/>
<text x="28.06" y="214" text-anchor="end" font-size="9" fill="#2196F3" transform="rotate(-45,28.06,214)">Phenomenology</text>
<rect x="61.72" y="195.70" width="22.44" height="4.30" fill="#81C784" opacity="0.85"><title>Partner Identity: 0.000247</title></rect>
<line x1="72.94" y1="196.32" x2="72.94" y2="194.96" stroke="#333" stroke-width="1"/>
<line x1="70.94" y1="196.32" x2="74.94" y2="196.32" stroke="#333" stroke-width="1"/>
<line x1="70.94" y1="194.96" x2="74.94" y2="194.96" stroke="#333" stroke-width="1"/>
<rect x="84.17" y="193.64" width="22.44" height="6.36" fill="#BDBDBD" opacity="0.85"><title>Control: 0.000366</title></rect>
<line x1="95.39" y1="194.74" x2="95.39" y2="192.52" stroke="#333" stroke-width="1"/>
<line x1="93.39" y1="194.74" x2="97.39" y2="194.74" stroke="#333" stroke-width="1"/>
<line x1="93.39" y1="192.52" x2="97.39" y2="192.52" stroke="#333" stroke-width="1"/>
<text x="84.17" y="214" text-anchor="end" font-size="9" fill="#2196F3" transform="rotate(-45,84.17,214)">Emotions</text>
<rect x="117.83" y="195.29" width="22.44" height="4.71" fill="#81C784" opacity="0.85"><title>Partner Identity: 0.000271</title></rect>
<line x1="129.06" y1="196.05" x2="129.06" y2="194.20" stroke="#333" stroke-width="1"/>
<line x1="127.06" y1="196.05" x2="131.06" y2="196.05" stroke="#333" stroke-width="1"/>
<line x1="127.06" y1="194.20" x2="131.06" y2="194.20" stroke="#333" stroke-width="1"/>
<rect x="140.28" y="192.28" width="22.44" height="7.72" fill="#BDBDBD" opacity="0.85"><title>Control: 0.000444</title></rect>
<line x1="151.50" y1="193.67" x2="151.50" y2="190.86" stroke="#333" stroke-width="1"/>
<line x1="149.50" y1="193.67" x2="153.50" y2="193.67" stroke="#333" stroke-width="1"/>
<line x1="149.50" y1="190.86" x2="153.50" y2="190.86" stroke="#333" stroke-width="1"/>
<text x="140.28" y="214" text-anchor="end" font-size="9" fill="#2196F3" transform="rotate(-45,140.28,214)">Agency</text>
<rect x="173.94" y="194.74" width="22.44" height="5.26" fill="#81C784" opacity="0.85"><title>Partner Identity: 0.000302</title></rect>
<line x1="185.17" y1="195.81" x2="185.17" y2="193.75" stroke="#333" stroke-width="1"/>
<line x1="183.17" y1="195.81" x2="187.17" y2="195.81" stroke="#333" stroke-width="1"/>
<line x1="183.17" y1="193.75" x2="187.17" y2="193.75" stroke="#333" stroke-width="1"/>
<rect x="196.39" y="190.27" width="22.44" height="9.73" fill="#BDBDBD" opacity="0.85"><title>Control: 0.000560</title></rect>
<line x1="207.61" y1="192.43" x2="207.61" y2="188.69" stroke="#333" stroke-width="1"/>
<line x1="205.61" y1="192.43" x2="209.61" y2="192.43" stroke="#333" stroke-width="1"/>
<line x1="205.61" y1="188.69" x2="209.61" y2="188.69" stroke="#333" stroke-width="1"/>
<text x="196.39" y="214" text-anchor="end" font-size="9" fill="#2196F3" transform="rotate(-45,196.39,214)">Intentions</text>
<rect x="230.06" y="194.15" width="22.44" height="5.85" fill="#81C784" opacity="0.85"><title>Partner Identity: 0.000336</title></rect>
<line x1="241.28" y1="195.74" x2="241.28" y2="191.94" stroke="#333" stroke-width="1"/>
<line x1="239.28" y1="195.74" x2="243.28" y2="195.74" stroke="#333" stroke-width="1"/>
<line x1="239.28" y1="191.94" x2="243.28" y2="191.94" stroke="#333" stroke-width="1"/>
<rect x="252.50" y="191.94" width="22.44" height="8.06" fill="#BDBDBD" opacity="0.85"><title>Control: 0.000464</title></rect>
<line x1="263.72" y1="193.68" x2="263.72" y2="189.78" stroke="#333" stroke-width="1"/>
<line x1="261.72" y1="193.68" x2="265.72" y2="193.68" stroke="#333" stroke-width="1"/>
<line x1="261.72" y1="189.78" x2="265.72" y2="189.78" stroke="#333" stroke-width="1"/>
<text x="252.50" y="214" text-anchor="end" font-size="9" fill="#2196F3" transform="rotate(-45,252.50,214)">Prediction</text>
<rect x="286.17" y="192.99" width="22.44" height="7.01" fill="#81C784" opacity="0.85"><title>Partner Identity: 0.000403</title></rect>
<line x1="297.39" y1="194.03" x2="297.39" y2="192.16" stroke="#333" stroke-width="1"/>
<line x1="295.39" y1="194.03" x2="299.39" y2="194.03" stroke="#333" stroke-width="1"/>
<line x1="295.39" y1="192.16" x2="299.39" y2="192.16" stroke="#333" stroke-width="1"/>
<rect x="308.61" y="190.88" width="22.44" height="9.12" fill="#BDBDBD" opacity="0.85"><title>Control: 0.000525</title></rect>
<line x1="319.83" y1="192.46" x2="319.83" y2="189.94" stroke="#333" stroke-width="1"/>
<line x1="317.83" y1="192.46" x2="321.83" y2="192.46" stroke="#333" stroke-width="1"/>
<line x1="317.83" y1="189.94" x2="321.83" y2="189.94" stroke="#333" stroke-width="1"/>
<text x="308.61" y="214" text-anchor="end" font-size="9" fill="#2196F3" transform="rotate(-45,308.61,214)">Cognitive</text>
<rect x="342.28" y="191.43" width="22.44" height="8.57" fill="#81C784" opacity="0.85"><title>Partner Identity: 0.000493</title></rect>
<line x1="353.50" y1="193.36" x2="353.50" y2="189.90" stroke="#333" stroke-width="1"/>
<line x1="351.50" y1="193.36" x2="355.50" y2="193.36" stroke="#333" stroke-width="1"/>
<line x1="351.50" y1="189.90" x2="355.50" y2="189.90" stroke="#333" stroke-width="1"/>
<rect x="364.72" y="190.19" width="22.44" height="9.81" fill="#BDBDBD" opacity="0.85"><title>Control: 0.000564</title></rect>
<line x1="375.94" y1="192.19" x2="375.94" y2="188.34" stroke="#333" stroke-width="1"/>
<line x1="373.94" y1="192.19" x2="377.94" y2="192.19" stroke="#333" stroke-width="1"/>
<line x1="373.94" y1="188.34" x2="377.94" y2="188.34" stroke="#333" stroke-width="1"/>
<text x="364.72" y="214" text-anchor="end" font-size="9" fill="#2196F3" transform="rotate(-45,364.72,214)">Social</text>
<rect x="398.39" y="193.02" width="22.44" height="6.98" fill="#81C784" opacity="0.85"><title>Partner Identity: 0.000401</title></rect>
<line x1="409.61" y1="194.24" x2="409.61" y2="192.03" stroke="#333" stroke-width="1"/>
<line x1="407.61" y1="194.24" x2="411.61" y2="194.24" stroke="#333" stroke-width="1"/>
<line x1="407.61" y1="192.03" x2="411.61" y2="192.03" stroke="#333" stroke-width="1"/>
<rect x="420.83" y="191.36" width="22.44" height="8.64" fill="#BDBDBD" opacity="0.85"><title>Control: 0.000497</title></rect>
<line x1="432.06" y1="192.85" x2="432.06" y2="190.30" stroke="#333" stroke-width="1"/>
<line x1="430.06" y1="192.85" x2="434.06" y2="192.85" stroke="#333" stroke-width="1"/>
<line x1="430.06" y1="190.30" x2="434.06" y2="190.30" stroke="#333" stroke-width="1"/>
<text x="420.83" y="214" text-anchor="end" font-size="9" fill="#2196F3" transform="rotate(-45,420.83,214)">Attention</text>
<rect x="454.50" y="195.66" width="22.44" height="4.34" fill="#81C784" opacity="0.85"><title>Partner Identity: 0.000250</title></rect>
<line x1="465.72" y1="196.29" x2="465.72" y2="195.00" stroke="#333" stroke-width="1"/>
<line x1="463.72" y1="196.29" x2="467.72" y2="196.29" stroke="#333" stroke-width="1"/>
<line x1="463.72" y1="195.00" x2="467.72" y2="195.00" stroke="#333" stroke-width="1"/>
<rect x="476.94" y="193.92" width="22.44" height="6.08" fill="#BDBDBD" opacity="0.85"><title>Control: 0.000350</title></rect>
<line x1="488.17" y1="194.86" x2="488.17" y2="192.96" stroke="#333" stroke-width="1"/>
<line x1="486.17" y1="194.86" x2="490.17" y2="194.86" stroke="#333" stroke-width="1"/>
<line x1="486.17" y1="192.96" x2="490.17" y2="192.96" stroke="#333" stroke-width="1"/>
<text x="476.94" y="214" text-anchor="end" font-size="9" fill="#4CAF50" transform="rotate(-45,476.94,214)">Embodiment</text>
<rect x="510.61" y="195.10" width="22.44" height="4.90" fill="#81C784" opacity="0.85"><title>Partner Identity: 0.000282</title></rect>
<line x1="521.83" y1="195.77" x2="521.83" y2="194.17" stroke="#333" stroke-width="1"/>
<line x1="519.83" y1="195.77" x2="523.83" y2="195.77" stroke="#333" stroke-width="1"/>
<line x1="519.83" y1="194.17" x2="523.83" y2="194.17" stroke="#333" stroke-width="1"/>
<rect x="533.06" y="192.01" width="22.44" height="7.99" fill="#BDBDBD" opacity="0.85"><title>Control: 0.000459</title></rect>
<line x1="544.28" y1="193.35" x2="544.28" y2="190.72" stroke="#333" stroke-width="1"/>
<line x1="542.28" y1="193.35" x2="546.28" y2="193.35" stroke="#333" stroke-width="1"/>
<line x1="542.28" y1="190.72" x2="546.28" y2="190.72" stroke="#333" stroke-width="1"/>
<text x="533.06" y="214" text-anchor="end" font-size="9" fill="#4CAF50" transform="rotate(-45,533.06,214)">Roles</text>
<rect x="566.72" y="194.68" width="22.44" height="5.32" fill="#81C784" opacity="0.85"><title>Partner Identity: 0.000306</title></rect>
<line x1="577.94" y1="195.53" x2="577.94" y2="193.95" stroke="#333" stroke-width="1"/>
<line x1="575.94" y1="195.53" x2="579.94" y2="195.53" stroke="#333" stroke-width="1"/>
<line x1="575.94" y1="193.95" x2="579.94" y2="193.95" stroke="#333" stroke-width="1"/>
<rect x="589.17" y="192.34" width="22.44" height="7.66" fill="#BDBDBD" opacity="0.85"><title>Control: 0.000441</title></rect>
<line x1="600.39" y1="193.68" x2="600.39" y2="191.29" stroke="#333" stroke-width="1"/>
<line x1="598.39" y1="193.68" x2="602.39" y2="193.68" stroke="#333" stroke-width="1"/>
<line x1="598.39" y1="191.29" x2="602.39" y2="191.29" stroke="#333" stroke-width="1"/>
<text x="589.17" y="214" text-anchor="end" font-size="9" fill="#4CAF50" transform="rotate(-45,589.17,214)">Animacy</text>
<rect x="622.83" y="194.40" width="22.44" height="5.60" fill="#81C784" opacity="0.85"><title>Partner Identity: 0.000322</title></rect>
<line x1="634.06" y1="196.01" x2="634.06" y2="193.11" stroke="#333" stroke-width="1"/>
<line x1="632.06" y1="196.01" x2="636.06" y2="196.01" stroke="#333" stroke-width="1"/>
<line x1="632.06" y1="193.11" x2="636.06" y2="193.11" stroke="#333" stroke-width="1"/>
<rect x="645.28" y="195.85" width="22.44" height="4.15" fill="#BDBDBD" opacity="0.85"><title>Control: 0.000239</title></rect>
<line x1="656.50" y1="197.01" x2="656.50" y2="194.28" stroke="#333" stroke-width="1"/>
<line x1="654.50" y1="197.01" x2="658.50" y2="197.01" stroke="#333" stroke-width="1"/>
<line x1="654.50" y1="194.28" x2="658.50" y2="194.28" stroke="#333" stroke-width="1"/>
<text x="645.28" y="214" text-anchor="end" font-size="9" fill="#FF9800" transform="rotate(-45,645.28,214)">Formality</text>
<rect x="678.94" y="194.26" width="22.44" height="5.74" fill="#81C784" opacity="0.85"><title>Partner Identity: 0.000330</title></rect>
<line x1="690.17" y1="195.04" x2="690.17" y2="193.24" stroke="#333" stroke-width="1"/>
<line x1="688.17" y1="195.04" x2="692.17" y2="195.04" stroke="#333" stroke-width="1"/>
<line x1="688.17" y1="193.24" x2="692.17" y2="193.24" stroke="#333" stroke-width="1"/>
<rect x="701.39" y="192.36" width="22.44" height="7.64" fill="#BDBDBD" opacity="0.85"><title>Control: 0.000439</title></rect>
<line x1="712.61" y1="193.30" x2="712.61" y2="191.47" stroke="#333" stroke-width="1"/>
<line x1="710.61" y1="193.30" x2="714.61" y2="193.30" stroke="#333" stroke-width="1"/>
<line x1="710.61" y1="191.47" x2="714.61" y2="191.47" stroke="#333" stroke-width="1"/>
<text x="701.39" y="214" text-anchor="end" font-size="9" fill="#FF9800" transform="rotate(-45,701.39,214)">Expertise</text>
<rect x="735.06" y="193.47" width="22.44" height="6.53" fill="#81C784" opacity="0.85"><title>Partner Identity: 0.000375</title></rect>
<line x1="746.28" y1="195.76" x2="746.28" y2="192.28" stroke="#333" stroke-width="1"/>
<line x1="744.28" y1="195.76" x2="748.28" y2="195.76" stroke="#333" stroke-width="1"/>
<line x1="744.28" y1="192.28" x2="748.28" y2="192.28" stroke="#333" stroke-width="1"/>
<rect x="757.50" y="192.40" width="22.44" height="7.60" fill="#BDBDBD" opacity="0.85"><title>Control: 0.000437</title></rect>
<line x1="768.72" y1="195.45" x2="768.72" y2="191.06" stroke="#333" stroke-width="1"/>
<line x1="766.72" y1="195.45" x2="770.72" y2="195.45" stroke="#333" stroke-width="1"/>
<line x1="766.72" y1="191.06" x2="770.72" y2="191.06" stroke="#333" stroke-width="1"/>
<text x="757.50" y="214" text-anchor="end" font-size="9" fill="#FF9800" transform="rotate(-45,757.50,214)">Helpfulness</text>
<rect x="791.17" y="194.45" width="22.44" height="5.55" fill="#81C784" opacity="0.85"><title>Partner Identity: 0.000319</title></rect>
<line x1="802.39" y1="195.68" x2="802.39" y2="192.96" stroke="#333" stroke-width="1"/>
<line x1="800.39" y1="195.68" x2="804.39" y2="195.68" stroke="#333" stroke-width="1"/>
<line x1="800.39" y1="192.96" x2="804.39" y2="192.96" stroke="#333" stroke-width="1"/>
<rect x="813.61" y="186.78" width="22.44" height="13.22" fill="#BDBDBD" opacity="0.85"><title>Control: 0.000760</title></rect>
<line x1="824.83" y1="190.22" x2="824.83" y2="184.46" stroke="#333" stroke-width="1"/>
<line x1="822.83" y1="190.22" x2="826.83" y2="190.22" stroke="#333" stroke-width="1"/>
<line x1="822.83" y1="184.46" x2="826.83" y2="184.46" stroke="#333" stroke-width="1"/>
<text x="813.61" y="214" text-anchor="end" font-size="9" fill="#9E9E9E" transform="rotate(-45,813.61,214)">Baseline</text>
<rect x="847.28" y="195.26" width="22.44" height="4.74" fill="#81C784" opacity="0.85"><title>Partner Identity: 0.000273</title></rect>
<line x1="858.50" y1="195.82" x2="858.50" y2="194.66" stroke="#333" stroke-width="1"/>
<line x1="856.50" y1="195.82" x2="860.50" y2="195.82" stroke="#333" stroke-width="1"/>
<line x1="856.50" y1="194.66" x2="860.50" y2="194.66" stroke="#333" stroke-width="1"/>
<rect x="869.72" y="195.40" width="22.44" height="4.60" fill="#BDBDBD" opacity="0.85"><title>Control: 0.000265</title></rect>
<line x1="880.94" y1="195.99" x2="880.94" y2="194.66" stroke="#333" stroke-width="1"/>
<line x1="878.94" y1="195.99" x2="882.94" y2="195.99" stroke="#333" stroke-width="1"/>
<line x1="878.94" y1="194.66" x2="882.94" y2="194.66" stroke="#333" stroke-width="1"/>
<text x="869.72" y="214" text-anchor="end" font-size="9" fill="#9E9E9E" transform="rotate(-45,869.72,214)">Biological</text>
<rect x="903.39" y="195.27" width="22.44" height="4.73" fill="#81C784" opacity="0.85"><title>Partner Identity: 0.000272</title></rect>
<line x1="914.61" y1="196.87" x2="914.61" y2="193.93" stroke="#333" stroke-width="1"/>
<line x1="912.61" y1="196.87" x2="916.61" y2="196.87" stroke="#333" stroke-width="1"/>
<line x1="912.61" y1="193.93" x2="916.61" y2="193.93" stroke="#333" stroke-width="1"/>
<rect x="925.83" y="191.75" width="22.44" height="8.25" fill="#BDBDBD" opacity="0.85"><title>Control: 0.000475</title></rect>
<line x1="937.06" y1="195.00" x2="937.06" y2="189.86" stroke="#333" stroke-width="1"/>
<line x1="935.06" y1="195.00" x2="939.06" y2="195.00" stroke="#333" stroke-width="1"/>
<line x1="935.06" y1="189.86" x2="939.06" y2="189.86" stroke="#333" stroke-width="1"/>
<text x="925.83" y="214" text-anchor="end" font-size="9" fill="#9E9E9E" transform="rotate(-45,925.83,214)">Shapes</text>
<rect x="959.50" y="188.90" width="22.44" height="11.10" fill="#81C784" opacity="0.85"><title>Partner Identity: 0.000638</title></rect>
<line x1="970.72" y1="190.47" x2="970.72" y2="187.08" stroke="#333" stroke-width="1"/>
<line x1="968.72" y1="190.47" x2="972.72" y2="190.47" stroke="#333" stroke-width="1"/>
<line x1="968.72" y1="187.08" x2="972.72" y2="187.08" stroke="#333" stroke-width="1"/>
<rect x="981.94" y="190.11" width="22.44" height="9.89" fill="#BDBDBD" opacity="0.85"><title>Control: 0.000569</title></rect>
<line x1="993.17" y1="191.02" x2="993.17" y2="189.33" stroke="#333" stroke-width="1"/>
<line x1="991.17" y1="191.02" x2="995.17" y2="191.02" stroke="#333" stroke-width="1"/>
<line x1="991.17" y1="189.33" x2="995.17" y2="189.33" stroke="#333" stroke-width="1"/>
<text x="981.94" y="214" text-anchor="end" font-size="9" fill="#00BCD4" transform="rotate(-45,981.94,214)">SysPrompt (labeled)</text>
<line x1="0" y1="200" x2="1010" y2="200" stroke="#333"/>
<line x1="0" y1="0" x2="0" y2="200" stroke="#333"/>
</g>
<rect x="70.0" y="324" width="10" height="10" fill="#81C784"/>
<text x="84.0" y="332" font-size="8" fill="#333">Partner Identity</text>
<rect x="272.0" y="324" width="10" height="10" fill="#BDBDBD"/>
<text x="286.0" y="332" font-size="8" fill="#333">Control</text>
</svg>