<svg viewBox="0 0 1100 360" xmlns="http://www.w3.org/2000/svg" style="width:100%;max-width:1100px;height:auto;font-family:Arial,sans-serif;">
<rect width="1100" height="360" fill="white"/>
<g transform="translate(70,30)">
<line x1="0" y1="200.0" x2="1010" y2="200.0" stroke="#eee" stroke-width="1"/>
<text x="-8" y="204.0" text-anchor="end" font-size="10" fill="#666">0.00</text>
<line x1="0" y1="160.0" x2="1010" y2="160.0" stroke="#eee" stroke-width="1"/>
<text x="-8" y="164.0" text-anchor="end" font-size="10" fill="#666">2.30</text>
<line x1="0" y1="120.0" x2="1010" y2="120.0" stroke="#eee" stroke-width="1"/>
<text x="-8" y="124.0" text-anchor="end" font-size="10" fill="#666">4.60</text>
<line x1="0" y1="80.0" x2="1010" y2="80.0" stroke="#eee" stroke-width="1"/>
<text x="-8" y="84.0" text-anchor="end" font-size="10" fill="#666">6.90</text>
<line x1="0" y1="40.0" x2="1010" y2="40.0" stroke="#eee" stroke-width="1"/>
<text x="-8" y="44.0" text-anchor="end" font-size="10" fill="#666">9.20</text>
<line x1="0" y1="0.0" x2="1010" y2="0.0" stroke="#eee" stroke-width="1"/>
<text x="-8" y="4.0" text-anchor="end" font-size="10" fill="#666">11.50</text>
<text x="-50" y="100.0" text-anchor="middle" font-size="11" fill="#333" transform="rotate(-90,-50,100.0)">Mean R² (×10⁻³)</text>
<rect x="5.61" y="155.60" width="22.44" height="44.40" fill="#2E7D32" opacity="0.85"><title>Partner Identity: 0.002553</title></rect>
<line x1="16.83" y1="163.63" x2="16.83" y2="152.12" stroke="#333" stroke-width="1"/>
<line x1="14.83" y1="163.63" x2="18.83" y2="163.63" stroke="#333" stroke-width="1"/>
<line x1="14.83" y1="152.12" x2="18.83" y2="152.12" stroke="#333" stroke-width="1"/>
<rect x="28.06" y="121.03" width="22.44" height="78.97" fill="#616161" opacity="0.85"><title>Control: 0.004541</title></rect>
<line x1="39.28" y1="135.63" x2="39.28" y2="112.14" stroke="#333" stroke-width="1"/>
<line x1="37.28" y1="135.63" x2="41.28" y2="135.63" stroke="#333" stroke-width="1"/>
<line x1="37.28" y1="112.14" x2="41.28" y2="112.14" stroke="#333" stroke-width="1"/>
<text x="28.06" y="214" text-anchor="end" font-size="9" fill="#2196F3" transform="rotate(-45,28.06,214)">Phenomenology</text>
<rect x="61.72" y="153.41" width="22.44" height="46.59" fill="#2E7D32" opacity="0.85"><title>Partner Identity: 0.002679</title></rect>
<line x1="72.94" y1="159.25" x2="72.94" y2="150.95" stroke="#333" stroke-width="1"/>
<line x1="70.94" y1="159.25" x2="74.94" y2="159.25" stroke="#333" stroke-width="1"/>
<line x1="70.94" y1="150.95" x2="74.94" y2="150.95" stroke="#333" stroke-width="1"/>
<rect x="84.17" y="131.35" width="22.44" height="68.65" fill="#616161" opacity="0.85"><title>Control: 0.003947</title></rect>
<line x1="95.39" y1="139.90" x2="95.39" y2="126.83" stroke="#333" stroke-width="1"/>
<line x1="93.39" y1="139.90" x2="97.39" y2="139.90" stroke="#333" stroke-width="1"/>
<line x1="93.39" y1="126.83" x2="97.39" y2="126.83" stroke="#333" stroke-width="1"/>
<text x="84.17" y="214" text-anchor="end" font-size="9" fill="#2196F3" transform="rotate(-45,84.17,214)">Emotions</text>
<rect x="117.83" y="142.45" width="22.44" height="57.55" fill="#2E7D32" opacity="0.85"><title>Partner Identity: 0.003309</title></rect>
<line x1="129.06" y1="151.07" x2="129.06" y2="139.10" stroke="#333" stroke-width="1"/>
<line x1="127.06" y1="151.07" x2="131.06" y2="151.07" stroke="#333" stroke-width="1"/>
<line x1="127.06" y1="139.10" x2="131.06" y2="139.10" stroke="#333" stroke-width="1"/>
<rect x="140.28" y="108.64" width="22.44" height="91.36" fill="#616161" opacity="0.85"><title>Control: 0.005253</title></rect>
<line x1="151.50" y1="122.78" x2="151.50" y2="102.43" stroke="#333" stroke-width="1"/>
<line x1="149.50" y1="122.78" x2="153.50" y2="122.78" stroke="#333" stroke-width="1"/>
<line x1="149.50" y1="102.43" x2="153.50" y2="102.43" stroke="#333" stroke-width="1"/>
<text x="140.28" y="214" text-anchor="end" font-size="9" fill="#2196F3" transform="rotate(-45,140.28,214)">Agency</text>
<rect x="173.94" y="150.51" width="22.44" height="49.49" fill="#2E7D32" opacity="0.85"><title>Partner Identity: 0.002846</title></rect>
<line x1="185.17" y1="158.48" x2="185.17" y2="146.63" stroke="#333" stroke-width="1"/>
<line x1="183.17" y1="158.48" x2="187.17" y2="158.48" stroke="#333" stroke-width="1"/>
<line x1="183.17" y1="146.63" x2="187.17" y2="146.63" stroke="#333" stroke-width="1"/>
<rect x="196.39" y="119.11" width="22.44" height="80.89" fill="#616161" opacity="0.85"><title>Control: 0.004652</title></rect>
<line x1="207.61" y1="133.66" x2="207.61" y2="109.74" stroke="#333" stroke-width="1"/>
<line x1="205.61" y1="133.66" x2="209.61" y2="133.66" stroke="#333" stroke-width="1"/>
<line x1="205.61" y1="109.74" x2="209.61" y2="109.74" stroke="#333" stroke-width="1"/>
<text x="196.39" y="214" text-anchor="end" font-size="9" fill="#2196F3" transform="rotate(-45,196.39,214)">Intentions</text>
<rect x="230.06" y="135.78" width="22.44" height="64.22" fill="#2E7D32" opacity="0.85"><title>Partner Identity: 0.003693</title></rect>
<line x1="241.28" y1="146.22" x2="241.28" y2="131.01" stroke="#333" stroke-width="1"/>
<line x1="239.28" y1="146.22" x2="243.28" y2="146.22" stroke="#333" stroke-width="1"/>
<line x1="239.28" y1="131.01" x2="243.28" y2="131.01" stroke="#333" stroke-width="1"/>
<rect x="252.50" y="102.41" width="22.44" height="97.59" fill="#616161" opacity="0.85"><title>Control: 0.005612</title></rect>
<line x1="263.72" y1="119.19" x2="263.72" y2="92.30" stroke="#333" stroke-width="1"/>
<line x1="261.72" y1="119.19" x2="265.72" y2="119.19" stroke="#333" stroke-width="1"/>
<line x1="261.72" y1="92.30" x2="265.72" y2="92.30" stroke="#333" stroke-width="1"/>
<text x="252.50" y="214" text-anchor="end" font-size="9" fill="#2196F3" transform="rotate(-45,252.50,214)">Prediction</text>
<rect x="286.17" y="146.08" width="22.44" height="53.92" fill="#2E7D32" opacity="0.85"><title>Partner Identity: 0.003100</title></rect>
<line x1="297.39" y1="155.30" x2="297.39" y2="139.52" stroke="#333" stroke-width="1"/>
<line x1="295.39" y1="155.30" x2="299.39" y2="155.30" stroke="#333" stroke-width="1"/>
<line x1="295.39" y1="139.52" x2="299.39" y2="139.52" stroke="#333" stroke-width="1"/>
<rect x="308.61" y="124.82" width="22.44" height="75.18" fill="#616161" opacity="0.85"><title>Control: 0.004323</title></rect>
<line x1="319.83" y1="137.63" x2="319.83" y2="116.01" stroke="#333" stroke-width="1"/>
<line x1="317.83" y1="137.63" x2="321.83" y2="137.63" stroke="#333" stroke-width="1"/>
<line x1="317.83" y1="116.01" x2="321.83" y2="116.01" stroke="#333" stroke-width="1"/>
<text x="308.61" y="214" text-anchor="end" font-size="9" fill="#2196F3" transform="rotate(-45,308.61,214)">Cognitive</text>
<rect x="342.28" y="136.46" width="22.44" height="63.54" fill="#2E7D32" opacity="0.85"><title>Partner Identity: 0.003654</title></rect>
<line x1="353.50" y1="146.28" x2="353.50" y2="132.40" stroke="#333" stroke-width="1"/>
<line x1="351.50" y1="146.28" x2="355.50" y2="146.28" stroke="#333" stroke-width="1"/>
<line x1="351.50" y1="132.40" x2="355.50" y2="132.40" stroke="#333" stroke-width="1"/>
<rect x="364.72" y="98.91" width="22.44" height="101.09" fill="#616161" opacity="0.85"><title>Control: 0.005813</title></rect>
<line x1="375.94" y1="116.33" x2="375.94" y2="89.20" stroke="#333" stroke-width="1"/>
<line x1="373.94" y1="116.33" x2="377.94" y2="116.33" stroke="#333" stroke-width="1"/>
<line x1="373.94" y1="89.20" x2="377.94" y2="89.20" stroke="#333" stroke-width="1"/>
<text x="364.72" y="214" text-anchor="end" font-size="9" fill="#2196F3" transform="rotate(-45,364.72,214)">Social</text>
<rect x="398.39" y="135.75" width="22.44" height="64.25" fill="#2E7D32" opacity="0.85"><title>Partner Identity: 0.003695</title></rect>
<line x1="409.61" y1="146.41" x2="409.61" y2="130.46" stroke="#333" stroke-width="1"/>
<line x1="407.61" y1="146.41" x2="411.61" y2="146.41" stroke="#333" stroke-width="1"/>
<line x1="407.61" y1="130.46" x2="411.61" y2="130.46" stroke="#333" stroke-width="1"/>
<rect x="420.83" y="111.19" width="22.44" height="88.81" fill="#616161" opacity="0.85"><title>Control: 0.005107</title></rect>
<line x1="432.06" y1="126.31" x2="432.06" y2="101.98" stroke="#333" stroke-width="1"/>
<line x1="430.06" y1="126.31" x2="434.06" y2="126.31" stroke="#333" stroke-width="1"/>
<line x1="430.06" y1="101.98" x2="434.06" y2="101.98" stroke="#333" stroke-width="1"/>
<text x="420.83" y="214" text-anchor="end" font-size="9" fill="#2196F3" transform="rotate(-45,420.83,214)">Attention</text>
<rect x="454.50" y="155.48" width="22.44" height="44.52" fill="#2E7D32" opacity="0.85"><title>Partner Identity: 0.002560</title></rect>
<line x1="465.72" y1="163.91" x2="465.72" y2="150.98" stroke="#333" stroke-width="1"/>
<line x1="463.72" y1="163.91" x2="467.72" y2="163.91" stroke="#333" stroke-width="1"/>
<line x1="463.72" y1="150.98" x2="467.72" y2="150.98" stroke="#333" stroke-width="1"/>
<rect x="476.94" y="111.45" width="22.44" height="88.55" fill="#616161" opacity="0.85"><title>Control: 0.005092</title></rect>
<line x1="488.17" y1="129.09" x2="488.17" y2="101.33" stroke="#333" stroke-width="1"/>
<line x1="486.17" y1="129.09" x2="490.17" y2="129.09" stroke="#333" stroke-width="1"/>
<line x1="486.17" y1="101.33" x2="490.17" y2="101.33" stroke="#333" stroke-width="1"/>
<text x="476.94" y="214" text-anchor="end" font-size="9" fill="#4CAF50" transform="rotate(-45,476.94,214)">Embodiment</text>
<rect x="510.61" y="139.59" width="22.44" height="60.41" fill="#2E7D32" opacity="0.85"><title>Partner Identity: 0.003474</title></rect>
<line x1="521.83" y1="152.92" x2="521.83" y2="132.62" stroke="#333" stroke-width="1"/>
<line x1="519.83" y1="152.92" x2="523.83" y2="152.92" stroke="#333" stroke-width="1"/>
<line x1="519.83" y1="132.62" x2="523.83" y2="132.62" stroke="#333" stroke-width="1"/>
<rect x="533.06" y="89.28" width="22.44" height="110.72" fill="#616161" opacity="0.85"><title>Control: 0.006367</title></rect>
<line x1="544.28" y1="113.47" x2="544.28" y2="75.84" stroke="#333" stroke-width="1"/>
<line x1="542.28" y1="113.47" x2="546.28" y2="113.47" stroke="#333" stroke-width="1"/>
<line x1="542.28" y1="75.84" x2="546.28" y2="75.84" stroke="#333" stroke-width="1"/>
<text x="533.06" y="214" text-anchor="end" font-size="9" fill="#4CAF50" transform="rotate(-45,533.06,214)">Roles</text>
<rect x="566.72" y="149.94" width="22.44" height="50.06" fill="#2E7D32" opacity="0.85"><title>Partner Identity: 0.002878</title></rect>
<line x1="577.94" y1="159.65" x2="577.94" y2="145.75" stroke="#333" stroke-width="1"/>
<line x1="575.94" y1="159.65" x2="579.94" y2="159.65" stroke="#333" stroke-width="1"/>
<line x1="575.94" y1="145.75" x2="579.94" y2="145.75" stroke="#333" stroke-width="1"/>
<rect x="589.17" y="92.75" width="22.44" height="107.25" fill="#616161" opacity="0.85"><title>Control: 0.006167</title></rect>
<line x1="600.39" y1="113.19" x2="600.39" y2="85.26" stroke="#333" stroke-width="1"/>
<line x1="598.39" y1="113.19" x2="602.39" y2="113.19" stroke="#333" stroke-width="1"/>
<line x1="598.39" y1="85.26" x2="602.39" y2="85.26" stroke="#333" stroke-width="1"/>
<text x="589.17" y="214" text-anchor="end" font-size="9" fill="#4CAF50" transform="rotate(-45,589.17,214)">Animacy</text>
<rect x="622.83" y="196.50" width="22.44" height="3.50" fill="#2E7D32" opacity="0.85"><title>Partner Identity: 0.000201</title></rect>
<line x1="634.06" y1="197.52" x2="634.06" y2="194.80" stroke="#333" stroke-width="1"/>
<line x1="632.06" y1="197.52" x2="636.06" y2="197.52" stroke="#333" stroke-width="1"/>
<line x1="632.06" y1="194.80" x2="636.06" y2="194.80" stroke="#333" stroke-width="1"/>
<rect x="645.28" y="195.05" width="22.44" height="4.95" fill="#616161" opacity="0.85"><title>Control: 0.000284</title></rect>
<line x1="656.50" y1="196.27" x2="656.50" y2="192.25" stroke="#333" stroke-width="1"/>
<line x1="654.50" y1="196.27" x2="658.50" y2="196.27" stroke="#333" stroke-width="1"/>
<line x1="654.50" y1="192.25" x2="658.50" y2="192.25" stroke="#333" stroke-width="1"/>
<text x="645.28" y="214" text-anchor="end" font-size="9" fill="#FF9800" transform="rotate(-45,645.28,214)">Formality</text>
<rect x="678.94" y="194.46" width="22.44" height="5.54" fill="#2E7D32" opacity="0.85"><title>Partner Identity: 0.000318</title></rect>
<line x1="690.17" y1="195.47" x2="690.17" y2="192.61" stroke="#333" stroke-width="1"/>
<line x1="688.17" y1="195.47" x2="692.17" y2="195.47" stroke="#333" stroke-width="1"/>
<line x1="688.17" y1="192.61" x2="692.17" y2="192.61" stroke="#333" stroke-width="1"/>
<rect x="701.39" y="190.11" width="22.44" height="9.89" fill="#616161" opacity="0.85"><title>Control: 0.000569</title></rect>
<line x1="712.61" y1="192.13" x2="712.61" y2="187.17" stroke="#333" stroke-width="1"/>
<line x1="710.61" y1="192.13" x2="714.61" y2="192.13" stroke="#333" stroke-width="1"/>
<line x1="710.61" y1="187.17" x2="714.61" y2="187.17" stroke="#333" stroke-width="1"/>
<text x="701.39" y="214" text-anchor="end" font-size="9" fill="#FF9800" transform="rotate(-45,701.39,214)">Expertise</text>
<rect x="735.06" y="192.15" width="22.44" height="7.85" fill="#2E7D32" opacity="0.85"><title>Partner Identity: 0.000452</title></rect>
<line x1="746.28" y1="196.07" x2="746.28" y2="188.95" stroke="#333" stroke-width="1"/>
<line x1="744.28" y1="196.07" x2="748.28" y2="196.07" stroke="#333" stroke-width="1"/>
<line x1="744.28" y1="188.95" x2="748.28" y2="188.95" stroke="#333" stroke-width="1"/>
<rect x="757.50" y="194.49" width="22.44" height="5.51" fill="#616161" opacity="0.85"><title>Control: 0.000317</title></rect>
<line x1="768.72" y1="196.38" x2="768.72" y2="188.50" stroke="#333" stroke-width="1"/>
<line x1="766.72" y1="196.38" x2="770.72" y2="196.38" stroke="#333" stroke-width="1"/>
<line x1="766.72" y1="188.50" x2="770.72" y2="188.50" stroke="#333" stroke-width="1"/>
<text x="757.50" y="214" text-anchor="end" font-size="9" fill="#FF9800" transform="rotate(-45,757.50,214)">Helpfulness</text>
<rect x="791.17" y="130.56" width="22.44" height="69.44" fill="#2E7D32" opacity="0.85"><title>Partner Identity: 0.003993</title></rect>
<line x1="802.39" y1="151.41" x2="802.39" y2="123.57" stroke="#333" stroke-width="1"/>
<line x1="800.39" y1="151.41" x2="804.39" y2="151.41" stroke="#333" stroke-width="1"/>
<line x1="800.39" y1="123.57" x2="804.39" y2="123.57" stroke="#333" stroke-width="1"/>
<rect x="813.61" y="32.11" width="22.44" height="167.89" fill="#616161" opacity="0.85"><title>Control: 0.009654</title></rect>
<line x1="824.83" y1="65.98" x2="824.83" y2="26.84" stroke="#333" stroke-width="1"/>
<line x1="822.83" y1="65.98" x2="826.83" y2="65.98" stroke="#333" stroke-width="1"/>
<line x1="822.83" y1="26.84" x2="826.83" y2="26.84" stroke="#333" stroke-width="1"/>
<text x="813.61" y="214" text-anchor="end" font-size="9" fill="#9E9E9E" transform="rotate(-45,813.61,214)">Baseline</text>
<rect x="847.28" y="164.21" width="22.44" height="35.79" fill="#2E7D32" opacity="0.85"><title>Partner Identity: 0.002058</title></rect>
<line x1="858.50" y1="169.15" x2="858.50" y2="161.32" stroke="#333" stroke-width="1"/>
<line x1="856.50" y1="169.15" x2="860.50" y2="169.15" stroke="#333" stroke-width="1"/>
<line x1="856.50" y1="161.32" x2="860.50" y2="161.32" stroke="#333" stroke-width="1"/>
<rect x="869.72" y="128.97" width="22.44" height="71.03" fill="#616161" opacity="0.85"><title>Control: 0.004084</title></rect>
<line x1="880.94" y1="138.66" x2="880.94" y2="122.82" stroke="#333" stroke-width="1"/>
<line x1="878.94" y1="138.66" x2="882.94" y2="138.66" stroke="#333" stroke-width="1"/>
<line x1="878.94" y1="122.82" x2="882.94" y2="122.82" stroke="#333" stroke-width="1"/>
<text x="869.72" y="214" text-anchor="end" font-size="9" fill="#9E9E9E" transform="rotate(-45,869.72,214)">Biological</text>
<rect x="903.39" y="190.96" width="22.44" height="9.04" fill="#2E7D32" opacity="0.85"><title>Partner Identity: 0.000520</title></rect>
<line x1="914.61" y1="194.47" x2="914.61" y2="187.98" stroke="#333" stroke-width="1"/>
<line x1="912.61" y1="194.47" x2="916.61" y2="194.47" stroke="#333" stroke-width="1"/>
<line x1="912.61" y1="187.98" x2="916.61" y2="187.98" stroke="#333" stroke-width="1"/>
<rect x="925.83" y="188.86" width="22.44" height="11.14" fill="#616161" opacity="0.85"><title>Control: 0.000641</title></rect>
<line x1="937.06" y1="194.30" x2="937.06" y2="181.61" stroke="#333" stroke-width="1"/>
<line x1="935.06" y1="194.30" x2="939.06" y2="194.30" stroke="#333" stroke-width="1"/>
<line x1="935.06" y1="181.61" x2="939.06" y2="181.61" stroke="#333" stroke-width="1"/>
<text x="925.83" y="214" text-anchor="end" font-size="9" fill="#9E9E9E" transform="rotate(-45,925.83,214)">Shapes</text>
<rect x="959.50" y="110.53" width="22.44" height="89.47" fill="#2E7D32" opacity="0.85"><title>Partner Identity: 0.005145</title></rect>
<line x1="970.72" y1="123.64" x2="970.72" y2="93.95" stroke="#333" stroke-width="1"/>
<line x1="968.72" y1="123.64" x2="972.72" y2="123.64" stroke="#333" stroke-width="1"/>
<line x1="968.72" y1="93.95" x2="972.72" y2="93.95" stroke="#333" stroke-width="1"/>
<rect x="981.94" y="134.01" width="22.44" height="65.99" fill="#616161" opacity="0.85"><title>Control: 0.003795</title></rect>
<line x1="993.17" y1="143.21" x2="993.17" y2="126.45" stroke="#333" stroke-width="1"/>
<line x1="991.17" y1="143.21" x2="995.17" y2="143.21" stroke="#333" stroke-width="1"/>
<line x1="991.17" y1="126.45" x2="995.17" y2="126.45" stroke="#333" stroke-width="1"/>
<text x="981.94" y="214" text-anchor="end" font-size="9" fill="#00BCD4" transform="rotate(-45,981.94,214)">SysPrompt (labeled)</text>
<line x1="0" y1="200" x2="1010" y2="200" stroke="#333"/>
<line x1="0" y1="0" x2="0" y2="200" stroke="#333"/>
</g>
<rect x="70.0" y="324" width="10" height="10" fill="#2E7D32"/>
<text x="84.0" y="332" font-size="8" fill="#333">Partner Identity</text>
<rect x="272.0" y="324" width="10" height="10" fill="#616161"/>
<text x="286.0" y="332" font-size="8" fill="#333">Control</text>
</svg>