<svg viewBox="0 0 1100 628" xmlns="http://www.w3.org/2000/svg" style="width:100%;max-width:1100px;height:auto;font-family:Arial,sans-serif;">
<rect width="1100" height="628" fill="white"/>
<text x="386.2" y="130" text-anchor="start" font-size="10" fill="#333" transform="rotate(-55,386.2,130)">Partner Identity</text>
<text x="808.8" y="130" text-anchor="start" font-size="10" fill="#333" transform="rotate(-55,808.8,130)">Control</text>
<text x="167" y="157.0" text-anchor="end" font-size="10" fill="#2196F3">Phenomenology</text>
<rect x="175.0" y="140.0" width="422.5" height="26" fill="rgb(186,215,188)" stroke="white" stroke-width="1"><title>Partner Identity — Phenomenology: R²=0.002553</title></rect>
<text x="386.2" y="157.0" text-anchor="middle" font-size="8" fill="#333">2.55</text>
<rect x="597.5" y="140.0" width="422.5" height="26" fill="rgb(176,176,176)" stroke="white" stroke-width="1"><title>Control — Phenomenology: R²=0.004541</title></rect>
<text x="808.8" y="157.0" text-anchor="middle" font-size="8" fill="#333">4.54</text>
<text x="167" y="183.0" text-anchor="end" font-size="10" fill="#2196F3">Emotions</text>
<rect x="175.0" y="166.0" width="422.5" height="26" fill="rgb(184,214,186)" stroke="white" stroke-width="1"><title>Partner Identity — Emotions: R²=0.002679</title></rect>
<text x="386.2" y="183.0" text-anchor="middle" font-size="8" fill="#333">2.68</text>
<rect x="597.5" y="166.0" width="422.5" height="26" fill="rgb(184,184,184)" stroke="white" stroke-width="1"><title>Control — Emotions: R²=0.003947</title></rect>
<text x="808.8" y="183.0" text-anchor="middle" font-size="8" fill="#333">3.95</text>
<text x="167" y="209.0" text-anchor="end" font-size="10" fill="#2196F3">Agency</text>
<rect x="175.0" y="192.0" width="422.5" height="26" fill="rgb(173,207,175)" stroke="white" stroke-width="1"><title>Partner Identity — Agency: R²=0.003309</title></rect>
<text x="386.2" y="209.0" text-anchor="middle" font-size="8" fill="#333">3.31</text>
<rect x="597.5" y="192.0" width="422.5" height="26" fill="rgb(167,167,167)" stroke="white" stroke-width="1"><title>Control — Agency: R²=0.005253</title></rect>
<text x="808.8" y="209.0" text-anchor="middle" font-size="8" fill="#fff">5.25</text>
<text x="167" y="235.0" text-anchor="end" font-size="10" fill="#2196F3">Intentions</text>
<rect x="175.0" y="218.0" width="422.5" height="26" fill="rgb(181,212,183)" stroke="white" stroke-width="1"><title>Partner Identity — Intentions: R²=0.002846</title></rect>
<text x="386.2" y="235.0" text-anchor="middle" font-size="8" fill="#333">2.85</text>
<rect x="597.5" y="218.0" width="422.5" height="26" fill="rgb(175,175,175)" stroke="white" stroke-width="1"><title>Control — Intentions: R²=0.004652</title></rect>
<text x="808.8" y="235.0" text-anchor="middle" font-size="8" fill="#333">4.65</text>
<text x="167" y="261.0" text-anchor="end" font-size="10" fill="#2196F3">Prediction</text>
<rect x="175.0" y="244.0" width="422.5" height="26" fill="rgb(166,202,168)" stroke="white" stroke-width="1"><title>Partner Identity — Prediction: R²=0.003693</title></rect>
<text x="386.2" y="261.0" text-anchor="middle" font-size="8" fill="#333">3.69</text>
<rect x="597.5" y="244.0" width="422.5" height="26" fill="rgb(162,162,162)" stroke="white" stroke-width="1"><title>Control — Prediction: R²=0.005612</title></rect>
<text x="808.8" y="261.0" text-anchor="middle" font-size="8" fill="#fff">5.61</text>
<text x="167" y="287.0" text-anchor="end" font-size="10" fill="#2196F3">Cognitive</text>
<rect x="175.0" y="270.0" width="422.5" height="26" fill="rgb(176,209,178)" stroke="white" stroke-width="1"><title>Partner Identity — Cognitive: R²=0.003100</title></rect>
<text x="386.2" y="287.0" text-anchor="middle" font-size="8" fill="#333">3.10</text>
<rect x="597.5" y="270.0" width="422.5" height="26" fill="rgb(179,179,179)" stroke="white" stroke-width="1"><title>Control — Cognitive: R²=0.004323</title></rect>
<text x="808.8" y="287.0" text-anchor="middle" font-size="8" fill="#333">4.32</text>
<text x="167" y="313.0" text-anchor="end" font-size="10" fill="#2196F3">Social</text>
<rect x="175.0" y="296.0" width="422.5" height="26" fill="rgb(166,203,169)" stroke="white" stroke-width="1"><title>Partner Identity — Social: R²=0.003654</title></rect>
<text x="386.2" y="313.0" text-anchor="middle" font-size="8" fill="#333">3.65</text>
<rect x="597.5" y="296.0" width="422.5" height="26" fill="rgb(159,159,159)" stroke="white" stroke-width="1"><title>Control — Social: R²=0.005813</title></rect>
<text x="808.8" y="313.0" text-anchor="middle" font-size="8" fill="#fff">5.81</text>
<text x="167" y="339.0" text-anchor="end" font-size="10" fill="#2196F3">Attention</text>
<rect x="175.0" y="322.0" width="422.5" height="26" fill="rgb(166,202,168)" stroke="white" stroke-width="1"><title>Partner Identity — Attention: R²=0.003695</title></rect>
<text x="386.2" y="339.0" text-anchor="middle" font-size="8" fill="#333">3.69</text>
<rect x="597.5" y="322.0" width="422.5" height="26" fill="rgb(169,169,169)" stroke="white" stroke-width="1"><title>Control — Attention: R²=0.005107</title></rect>
<text x="808.8" y="339.0" text-anchor="middle" font-size="8" fill="#333">5.11</text>
<line x1="175" y1="348" x2="1020.0" y2="348" stroke="#999" stroke-width="1.5"/>
<text x="167" y="365.0" text-anchor="end" font-size="10" fill="#4CAF50">Embodiment</text>
<rect x="175.0" y="348.0" width="422.5" height="26" fill="rgb(186,215,188)" stroke="white" stroke-width="1"><title>Partner Identity — Embodiment: R²=0.002560</title></rect>
<text x="386.2" y="365.0" text-anchor="middle" font-size="8" fill="#333">2.56</text>
<rect x="597.5" y="348.0" width="422.5" height="26" fill="rgb(169,169,169)" stroke="white" stroke-width="1"><title>Control — Embodiment: R²=0.005092</title></rect>
<text x="808.8" y="365.0" text-anchor="middle" font-size="8" fill="#333">5.09</text>
<text x="167" y="391.0" text-anchor="end" font-size="10" fill="#4CAF50">Roles</text>
<rect x="175.0" y="374.0" width="422.5" height="26" fill="rgb(170,205,172)" stroke="white" stroke-width="1"><title>Partner Identity — Roles: R²=0.003474</title></rect>
<text x="386.2" y="391.0" text-anchor="middle" font-size="8" fill="#333">3.47</text>
<rect x="597.5" y="374.0" width="422.5" height="26" fill="rgb(152,152,152)" stroke="white" stroke-width="1"><title>Control — Roles: R²=0.006367</title></rect>
<text x="808.8" y="391.0" text-anchor="middle" font-size="8" fill="#fff">6.37</text>
<text x="167" y="417.0" text-anchor="end" font-size="10" fill="#4CAF50">Animacy</text>
<rect x="175.0" y="400.0" width="422.5" height="26" fill="rgb(180,211,182)" stroke="white" stroke-width="1"><title>Partner Identity — Animacy: R²=0.002878</title></rect>
<text x="386.2" y="417.0" text-anchor="middle" font-size="8" fill="#333">2.88</text>
<rect x="597.5" y="400.0" width="422.5" height="26" fill="rgb(154,154,154)" stroke="white" stroke-width="1"><title>Control — Animacy: R²=0.006167</title></rect>
<text x="808.8" y="417.0" text-anchor="middle" font-size="8" fill="#fff">6.17</text>
<line x1="175" y1="426" x2="1020.0" y2="426" stroke="#999" stroke-width="1.5"/>
<text x="167" y="443.0" text-anchor="end" font-size="10" fill="#FF9800">Formality</text>
<rect x="175.0" y="426.0" width="422.5" height="26" fill="rgb(228,242,229)" stroke="white" stroke-width="1"><title>Partner Identity — Formality: R²=0.000201</title></rect>
<text x="386.2" y="443.0" text-anchor="middle" font-size="8" fill="#333">0.20</text>
<rect x="597.5" y="426.0" width="422.5" height="26" fill="rgb(234,234,234)" stroke="white" stroke-width="1"><title>Control — Formality: R²=0.000284</title></rect>
<text x="808.8" y="443.0" text-anchor="middle" font-size="8" fill="#333">0.28</text>
<text x="167" y="469.0" text-anchor="end" font-size="10" fill="#FF9800">Expertise</text>
<rect x="175.0" y="452.0" width="422.5" height="26" fill="rgb(226,241,227)" stroke="white" stroke-width="1"><title>Partner Identity — Expertise: R²=0.000318</title></rect>
<text x="386.2" y="469.0" text-anchor="middle" font-size="8" fill="#333">0.32</text>
<rect x="597.5" y="452.0" width="422.5" height="26" fill="rgb(230,230,230)" stroke="white" stroke-width="1"><title>Control — Expertise: R²=0.000569</title></rect>
<text x="808.8" y="469.0" text-anchor="middle" font-size="8" fill="#333">0.57</text>
<text x="167" y="495.0" text-anchor="end" font-size="10" fill="#FF9800">Helpfulness</text>
<rect x="175.0" y="478.0" width="422.5" height="26" fill="rgb(223,239,225)" stroke="white" stroke-width="1"><title>Partner Identity — Helpfulness: R²=0.000452</title></rect>
<text x="386.2" y="495.0" text-anchor="middle" font-size="8" fill="#333">0.45</text>
<rect x="597.5" y="478.0" width="422.5" height="26" fill="rgb(233,233,233)" stroke="white" stroke-width="1"><title>Control — Helpfulness: R²=0.000317</title></rect>
<text x="808.8" y="495.0" text-anchor="middle" font-size="8" fill="#333">0.32</text>
<line x1="175" y1="504" x2="1020.0" y2="504" stroke="#999" stroke-width="1.5"/>
<text x="167" y="521.0" text-anchor="end" font-size="10" fill="#9E9E9E">Baseline</text>
<rect x="175.0" y="504.0" width="422.5" height="26" fill="rgb(160,199,163)" stroke="white" stroke-width="1"><title>Partner Identity — Baseline: R²=0.003993</title></rect>
<text x="386.2" y="521.0" text-anchor="middle" font-size="8" fill="#333">3.99</text>
<rect x="597.5" y="504.0" width="422.5" height="26" fill="rgb(107,107,107)" stroke="white" stroke-width="1"><title>Control — Baseline: R²=0.009654</title></rect>
<text x="808.8" y="521.0" text-anchor="middle" font-size="8" fill="#fff">9.65</text>
<text x="167" y="547.0" text-anchor="end" font-size="10" fill="#9E9E9E">Biological</text>
<rect x="175.0" y="530.0" width="422.5" height="26" fill="rgb(195,221,196)" stroke="white" stroke-width="1"><title>Partner Identity — Biological: R²=0.002058</title></rect>
<text x="386.2" y="547.0" text-anchor="middle" font-size="8" fill="#333">2.06</text>
<rect x="597.5" y="530.0" width="422.5" height="26" fill="rgb(182,182,182)" stroke="white" stroke-width="1"><title>Control — Biological: R²=0.004084</title></rect>
<text x="808.8" y="547.0" text-anchor="middle" font-size="8" fill="#333">4.08</text>
<text x="167" y="573.0" text-anchor="end" font-size="10" fill="#9E9E9E">Shapes</text>
<rect x="175.0" y="556.0" width="422.5" height="26" fill="rgb(222,239,223)" stroke="white" stroke-width="1"><title>Partner Identity — Shapes: R²=0.000520</title></rect>
<text x="386.2" y="573.0" text-anchor="middle" font-size="8" fill="#333">0.52</text>
<rect x="597.5" y="556.0" width="422.5" height="26" fill="rgb(229,229,229)" stroke="white" stroke-width="1"><title>Control — Shapes: R²=0.000641</title></rect>
<text x="808.8" y="573.0" text-anchor="middle" font-size="8" fill="#333">0.64</text>
<line x1="175" y1="582" x2="1020.0" y2="582" stroke="#999" stroke-width="1.5"/>
<text x="167" y="599.0" text-anchor="end" font-size="10" fill="#00BCD4">SysPrompt (labeled)</text>
<rect x="175.0" y="582.0" width="422.5" height="26" fill="rgb(140,185,142)" stroke="white" stroke-width="1"><title>Partner Identity — SysPrompt (labeled): R²=0.005145</title></rect>
<text x="386.2" y="599.0" text-anchor="middle" font-size="8" fill="#333">5.14</text>
<rect x="597.5" y="582.0" width="422.5" height="26" fill="rgb(186,186,186)" stroke="white" stroke-width="1"><title>Control — SysPrompt (labeled): R²=0.003795</title></rect>
<text x="808.8" y="599.0" text-anchor="middle" font-size="8" fill="#333">3.79</text>
<rect x="1035.0" y="608.0" width="12" height="10.6" fill="rgb(232,245,233)"/>
<rect x="1035.0" y="598.4" width="12" height="10.6" fill="rgb(228,242,229)"/>
<rect x="1035.0" y="588.9" width="12" height="10.6" fill="rgb(224,240,225)"/>
<rect x="1035.0" y="579.3" width="12" height="10.6" fill="rgb(220,237,221)"/>
<rect x="1035.0" y="569.8" width="12" height="10.6" fill="rgb(216,235,218)"/>
<rect x="1035.0" y="560.2" width="12" height="10.6" fill="rgb(213,232,214)"/>
<rect x="1035.0" y="550.7" width="12" height="10.6" fill="rgb(209,230,210)"/>
<rect x="1035.0" y="541.1" width="12" height="10.6" fill="rgb(205,227,206)"/>
<rect x="1035.0" y="531.6" width="12" height="10.6" fill="rgb(201,225,203)"/>
<rect x="1035.0" y="522.0" width="12" height="10.6" fill="rgb(197,222,199)"/>
<rect x="1035.0" y="512.5" width="12" height="10.6" fill="rgb(194,220,195)"/>
<rect x="1035.0" y="502.9" width="12" height="10.6" fill="rgb(190,218,191)"/>
<rect x="1035.0" y="493.4" width="12" height="10.6" fill="rgb(186,215,188)"/>
<rect x="1035.0" y="483.8" width="12" height="10.6" fill="rgb(182,213,184)"/>
<rect x="1035.0" y="474.3" width="12" height="10.6" fill="rgb(178,210,180)"/>
<rect x="1035.0" y="464.7" width="12" height="10.6" fill="rgb(175,208,176)"/>
<rect x="1035.0" y="455.2" width="12" height="10.6" fill="rgb(171,205,173)"/>
<rect x="1035.0" y="445.6" width="12" height="10.6" fill="rgb(167,203,169)"/>
<rect x="1035.0" y="436.1" width="12" height="10.6" fill="rgb(163,200,165)"/>
<rect x="1035.0" y="426.5" width="12" height="10.6" fill="rgb(159,198,162)"/>
<rect x="1035.0" y="417.0" width="12" height="10.6" fill="rgb(156,196,158)"/>
<rect x="1035.0" y="407.4" width="12" height="10.6" fill="rgb(152,193,154)"/>
<rect x="1035.0" y="397.9" width="12" height="10.6" fill="rgb(148,191,150)"/>
<rect x="1035.0" y="388.3" width="12" height="10.6" fill="rgb(144,188,147)"/>
<rect x="1035.0" y="378.8" width="12" height="10.6" fill="rgb(140,186,143)"/>
<rect x="1035.0" y="369.2" width="12" height="10.6" fill="rgb(137,183,139)"/>
<rect x="1035.0" y="359.7" width="12" height="10.6" fill="rgb(133,181,135)"/>
<rect x="1035.0" y="350.1" width="12" height="10.6" fill="rgb(129,178,132)"/>
<rect x="1035.0" y="340.6" width="12" height="10.6" fill="rgb(125,176,128)"/>
<rect x="1035.0" y="331.0" width="12" height="10.6" fill="rgb(121,173,124)"/>
<rect x="1035.0" y="321.5" width="12" height="10.6" fill="rgb(118,171,120)"/>
<rect x="1035.0" y="311.9" width="12" height="10.6" fill="rgb(114,169,117)"/>
<rect x="1035.0" y="302.4" width="12" height="10.6" fill="rgb(110,166,113)"/>
<rect x="1035.0" y="292.8" width="12" height="10.6" fill="rgb(106,164,109)"/>
<rect x="1035.0" y="283.3" width="12" height="10.6" fill="rgb(102,161,106)"/>
<rect x="1035.0" y="273.7" width="12" height="10.6" fill="rgb(99,159,102)"/>
<rect x="1035.0" y="264.2" width="12" height="10.6" fill="rgb(95,156,98)"/>
<rect x="1035.0" y="254.6" width="12" height="10.6" fill="rgb(91,154,94)"/>
<rect x="1035.0" y="245.1" width="12" height="10.6" fill="rgb(87,151,91)"/>
<rect x="1035.0" y="235.5" width="12" height="10.6" fill="rgb(83,149,87)"/>
<rect x="1035.0" y="226.0" width="12" height="10.6" fill="rgb(80,147,83)"/>
<rect x="1035.0" y="216.4" width="12" height="10.6" fill="rgb(76,144,79)"/>
<rect x="1035.0" y="206.9" width="12" height="10.6" fill="rgb(72,142,76)"/>
<rect x="1035.0" y="197.3" width="12" height="10.6" fill="rgb(68,139,72)"/>
<rect x="1035.0" y="187.8" width="12" height="10.6" fill="rgb(64,137,68)"/>
<rect x="1035.0" y="178.2" width="12" height="10.6" fill="rgb(61,134,64)"/>
<rect x="1035.0" y="168.7" width="12" height="10.6" fill="rgb(57,132,61)"/>
<rect x="1035.0" y="159.1" width="12" height="10.6" fill="rgb(53,129,57)"/>
<rect x="1035.0" y="149.6" width="12" height="10.6" fill="rgb(49,127,53)"/>
<rect x="1035.0" y="140.0" width="12" height="10.6" fill="rgb(46,125,50)"/>
<text x="1041.0" y="136" text-anchor="middle" font-size="7" fill="#333">Partner Identity</text>
<text x="1050.0" y="144" font-size="7" fill="#333">10.45</text>
<text x="1050.0" y="612" font-size="7" fill="#333">0.00</text>
<text x="1050.0" y="378.0" font-size="7" fill="#666">×10⁻³</text>
<rect x="1077.0" y="608.0" width="12" height="10.6" fill="rgb(238,238,238)"/>
<rect x="1077.0" y="598.4" width="12" height="10.6" fill="rgb(235,235,235)"/>
<rect x="1077.0" y="588.9" width="12" height="10.6" fill="rgb(232,232,232)"/>
<rect x="1077.0" y="579.3" width="12" height="10.6" fill="rgb(229,229,229)"/>
<rect x="1077.0" y="569.8" width="12" height="10.6" fill="rgb(226,226,226)"/>
<rect x="1077.0" y="560.2" width="12" height="10.6" fill="rgb(223,223,223)"/>
<rect x="1077.0" y="550.7" width="12" height="10.6" fill="rgb(220,220,220)"/>
<rect x="1077.0" y="541.1" width="12" height="10.6" fill="rgb(217,217,217)"/>
<rect x="1077.0" y="531.6" width="12" height="10.6" fill="rgb(214,214,214)"/>
<rect x="1077.0" y="522.0" width="12" height="10.6" fill="rgb(212,212,212)"/>
<rect x="1077.0" y="512.5" width="12" height="10.6" fill="rgb(209,209,209)"/>
<rect x="1077.0" y="502.9" width="12" height="10.6" fill="rgb(206,206,206)"/>
<rect x="1077.0" y="493.4" width="12" height="10.6" fill="rgb(203,203,203)"/>
<rect x="1077.0" y="483.8" width="12" height="10.6" fill="rgb(200,200,200)"/>
<rect x="1077.0" y="474.3" width="12" height="10.6" fill="rgb(197,197,197)"/>
<rect x="1077.0" y="464.7" width="12" height="10.6" fill="rgb(194,194,194)"/>
<rect x="1077.0" y="455.2" width="12" height="10.6" fill="rgb(191,191,191)"/>
<rect x="1077.0" y="445.6" width="12" height="10.6" fill="rgb(189,189,189)"/>
<rect x="1077.0" y="436.1" width="12" height="10.6" fill="rgb(186,186,186)"/>
<rect x="1077.0" y="426.5" width="12" height="10.6" fill="rgb(183,183,183)"/>
<rect x="1077.0" y="417.0" width="12" height="10.6" fill="rgb(180,180,180)"/>
<rect x="1077.0" y="407.4" width="12" height="10.6" fill="rgb(177,177,177)"/>
<rect x="1077.0" y="397.9" width="12" height="10.6" fill="rgb(174,174,174)"/>
<rect x="1077.0" y="388.3" width="12" height="10.6" fill="rgb(171,171,171)"/>
<rect x="1077.0" y="378.8" width="12" height="10.6" fill="rgb(168,168,168)"/>
<rect x="1077.0" y="369.2" width="12" height="10.6" fill="rgb(166,166,166)"/>
<rect x="1077.0" y="359.7" width="12" height="10.6" fill="rgb(163,163,163)"/>
<rect x="1077.0" y="350.1" width="12" height="10.6" fill="rgb(160,160,160)"/>
<rect x="1077.0" y="340.6" width="12" height="10.6" fill="rgb(157,157,157)"/>
<rect x="1077.0" y="331.0" width="12" height="10.6" fill="rgb(154,154,154)"/>
<rect x="1077.0" y="321.5" width="12" height="10.6" fill="rgb(151,151,151)"/>
<rect x="1077.0" y="311.9" width="12" height="10.6" fill="rgb(148,148,148)"/>
<rect x="1077.0" y="302.4" width="12" height="10.6" fill="rgb(145,145,145)"/>
<rect x="1077.0" y="292.8" width="12" height="10.6" fill="rgb(143,143,143)"/>
<rect x="1077.0" y="283.3" width="12" height="10.6" fill="rgb(140,140,140)"/>
<rect x="1077.0" y="273.7" width="12" height="10.6" fill="rgb(137,137,137)"/>
<rect x="1077.0" y="264.2" width="12" height="10.6" fill="rgb(134,134,134)"/>
<rect x="1077.0" y="254.6" width="12" height="10.6" fill="rgb(131,131,131)"/>
<rect x="1077.0" y="245.1" width="12" height="10.6" fill="rgb(128,128,128)"/>
<rect x="1077.0" y="235.5" width="12" height="10.6" fill="rgb(125,125,125)"/>
<rect x="1077.0" y="226.0" width="12" height="10.6" fill="rgb(122,122,122)"/>
<rect x="1077.0" y="216.4" width="12" height="10.6" fill="rgb(120,120,120)"/>
<rect x="1077.0" y="206.9" width="12" height="10.6" fill="rgb(117,117,117)"/>
<rect x="1077.0" y="197.3" width="12" height="10.6" fill="rgb(114,114,114)"/>
<rect x="1077.0" y="187.8" width="12" height="10.6" fill="rgb(111,111,111)"/>
<rect x="1077.0" y="178.2" width="12" height="10.6" fill="rgb(108,108,108)"/>
<rect x="1077.0" y="168.7" width="12" height="10.6" fill="rgb(105,105,105)"/>
<rect x="1077.0" y="159.1" width="12" height="10.6" fill="rgb(102,102,102)"/>
<rect x="1077.0" y="149.6" width="12" height="10.6" fill="rgb(99,99,99)"/>
<rect x="1077.0" y="140.0" width="12" height="10.6" fill="rgb(97,97,97)"/>
<text x="1083.0" y="136" text-anchor="middle" font-size="7" fill="#333">Control</text>
</svg>