<svg viewBox="0 0 1100 360" xmlns="http://www.w3.org/2000/svg" style="width:100%;max-width:1100px;height:auto;font-family:Arial,sans-serif;">
<rect width="1100" height="360" fill="white"/>
<g transform="translate(70,30)">
<line x1="0" y1="200.0" x2="1010" y2="200.0" stroke="#eee" stroke-width="1"/>
<text x="-8" y="204.0" text-anchor="end" font-size="10" fill="#666">0.00</text>
<line x1="0" y1="160.0" x2="1010" y2="160.0" stroke="#eee" stroke-width="1"/>
<text x="-8" y="164.0" text-anchor="end" font-size="10" fill="#666">0.61</text>
<line x1="0" y1="120.0" x2="1010" y2="120.0" stroke="#eee" stroke-width="1"/>
<text x="-8" y="124.0" text-anchor="end" font-size="10" fill="#666">1.22</text>
<line x1="0" y1="80.0" x2="1010" y2="80.0" stroke="#eee" stroke-width="1"/>
<text x="-8" y="84.0" text-anchor="end" font-size="10" fill="#666">1.83</text>
<line x1="0" y1="40.0" x2="1010" y2="40.0" stroke="#eee" stroke-width="1"/>
<text x="-8" y="44.0" text-anchor="end" font-size="10" fill="#666">2.44</text>
<line x1="0" y1="0.0" x2="1010" y2="0.0" stroke="#eee" stroke-width="1"/>
<text x="-8" y="4.0" text-anchor="end" font-size="10" fill="#666">3.05</text>
<text x="-50" y="100.0" text-anchor="middle" font-size="11" fill="#333" transform="rotate(-90,-50,100.0)">Mean R² (×10⁻³)</text>
<rect x="10.10" y="68.15" width="40.40" height="131.85" fill="#81C784" opacity="0.85"><title>Partner Identity: 0.002009</title></rect>
<line x1="30.30" y1="72.92" x2="30.30" y2="63.66" stroke="#333" stroke-width="1"/>
<line x1="28.30" y1="72.92" x2="32.30" y2="72.92" stroke="#333" stroke-width="1"/>
<line x1="28.30" y1="63.66" x2="32.30" y2="63.66" stroke="#333" stroke-width="1"/>
<rect x="50.50" y="184.84" width="40.40" height="15.16" fill="#BDBDBD" opacity="0.85"><title>Control: 0.000231</title></rect>
<line x1="70.70" y1="184.98" x2="70.70" y2="184.67" stroke="#333" stroke-width="1"/>
<line x1="68.70" y1="184.98" x2="72.70" y2="184.98" stroke="#333" stroke-width="1"/>
<line x1="68.70" y1="184.67" x2="72.70" y2="184.67" stroke="#333" stroke-width="1"/>
<text x="50.50" y="214" text-anchor="end" font-size="9" fill="#2196F3" transform="rotate(-45,50.50,214)">Phenomenology</text>
<rect x="111.10" y="75.64" width="40.40" height="124.36" fill="#81C784" opacity="0.85"><title>Partner Identity: 0.001895</title></rect>
<line x1="131.30" y1="81.29" x2="131.30" y2="70.61" stroke="#333" stroke-width="1"/>
<line x1="129.30" y1="81.29" x2="133.30" y2="81.29" stroke="#333" stroke-width="1"/>
<line x1="129.30" y1="70.61" x2="133.30" y2="70.61" stroke="#333" stroke-width="1"/>
<rect x="151.50" y="184.91" width="40.40" height="15.09" fill="#BDBDBD" opacity="0.85"><title>Control: 0.000230</title></rect>
<line x1="171.70" y1="185.05" x2="171.70" y2="184.78" stroke="#333" stroke-width="1"/>
<line x1="169.70" y1="185.05" x2="173.70" y2="185.05" stroke="#333" stroke-width="1"/>
<line x1="169.70" y1="184.78" x2="173.70" y2="184.78" stroke="#333" stroke-width="1"/>
<text x="151.50" y="214" text-anchor="end" font-size="9" fill="#2196F3" transform="rotate(-45,151.50,214)">Emotions</text>
<rect x="212.10" y="62.44" width="40.40" height="137.56" fill="#81C784" opacity="0.85"><title>Partner Identity: 0.002096</title></rect>
<line x1="232.30" y1="69.26" x2="232.30" y2="55.38" stroke="#333" stroke-width="1"/>
<line x1="230.30" y1="69.26" x2="234.30" y2="69.26" stroke="#333" stroke-width="1"/>
<line x1="230.30" y1="55.38" x2="234.30" y2="55.38" stroke="#333" stroke-width="1"/>
<rect x="252.50" y="184.79" width="40.40" height="15.21" fill="#BDBDBD" opacity="0.85"><title>Control: 0.000232</title></rect>
<line x1="272.70" y1="185.00" x2="272.70" y2="184.58" stroke="#333" stroke-width="1"/>
<line x1="270.70" y1="185.00" x2="274.70" y2="185.00" stroke="#333" stroke-width="1"/>
<line x1="270.70" y1="184.58" x2="274.70" y2="184.58" stroke="#333" stroke-width="1"/>
<text x="252.50" y="214" text-anchor="end" font-size="9" fill="#2196F3" transform="rotate(-45,252.50,214)">Agency</text>
<rect x="313.10" y="77.26" width="40.40" height="122.74" fill="#81C784" opacity="0.85"><title>Partner Identity: 0.001870</title></rect>
<line x1="333.30" y1="81.80" x2="333.30" y2="72.58" stroke="#333" stroke-width="1"/>
<line x1="331.30" y1="81.80" x2="335.30" y2="81.80" stroke="#333" stroke-width="1"/>
<line x1="331.30" y1="72.58" x2="335.30" y2="72.58" stroke="#333" stroke-width="1"/>
<rect x="353.50" y="185.01" width="40.40" height="14.99" fill="#BDBDBD" opacity="0.85"><title>Control: 0.000228</title></rect>
<line x1="373.70" y1="185.14" x2="373.70" y2="184.88" stroke="#333" stroke-width="1"/>
<line x1="371.70" y1="185.14" x2="375.70" y2="185.14" stroke="#333" stroke-width="1"/>
<line x1="371.70" y1="184.88" x2="375.70" y2="184.88" stroke="#333" stroke-width="1"/>
<text x="353.50" y="214" text-anchor="end" font-size="9" fill="#2196F3" transform="rotate(-45,353.50,214)">Intentions</text>
<rect x="414.10" y="60.72" width="40.40" height="139.28" fill="#81C784" opacity="0.85"><title>Partner Identity: 0.002122</title></rect>
<line x1="434.30" y1="67.56" x2="434.30" y2="53.26" stroke="#333" stroke-width="1"/>
<line x1="432.30" y1="67.56" x2="436.30" y2="67.56" stroke="#333" stroke-width="1"/>
<line x1="432.30" y1="53.26" x2="436.30" y2="53.26" stroke="#333" stroke-width="1"/>
<rect x="454.50" y="185.14" width="40.40" height="14.86" fill="#BDBDBD" opacity="0.85"><title>Control: 0.000226</title></rect>
<line x1="474.70" y1="185.38" x2="474.70" y2="184.84" stroke="#333" stroke-width="1"/>
<line x1="472.70" y1="185.38" x2="476.70" y2="185.38" stroke="#333" stroke-width="1"/>
<line x1="472.70" y1="184.84" x2="476.70" y2="184.84" stroke="#333" stroke-width="1"/>
<text x="454.50" y="214" text-anchor="end" font-size="9" fill="#2196F3" transform="rotate(-45,454.50,214)">Prediction</text>
<rect x="515.10" y="66.62" width="40.40" height="133.38" fill="#81C784" opacity="0.85"><title>Partner Identity: 0.002032</title></rect>
<line x1="535.30" y1="71.39" x2="535.30" y2="62.13" stroke="#333" stroke-width="1"/>
<line x1="533.30" y1="71.39" x2="537.30" y2="71.39" stroke="#333" stroke-width="1"/>
<line x1="533.30" y1="62.13" x2="537.30" y2="62.13" stroke="#333" stroke-width="1"/>
<rect x="555.50" y="185.02" width="40.40" height="14.98" fill="#BDBDBD" opacity="0.85"><title>Control: 0.000228</title></rect>
<line x1="575.70" y1="185.27" x2="575.70" y2="184.79" stroke="#333" stroke-width="1"/>
<line x1="573.70" y1="185.27" x2="577.70" y2="185.27" stroke="#333" stroke-width="1"/>
<line x1="573.70" y1="184.79" x2="577.70" y2="184.79" stroke="#333" stroke-width="1"/>
<text x="555.50" y="214" text-anchor="end" font-size="9" fill="#2196F3" transform="rotate(-45,555.50,214)">Cognitive</text>
<rect x="616.10" y="77.58" width="40.40" height="122.42" fill="#81C784" opacity="0.85"><title>Partner Identity: 0.001865</title></rect>
<line x1="636.30" y1="81.11" x2="636.30" y2="74.55" stroke="#333" stroke-width="1"/>
<line x1="634.30" y1="81.11" x2="638.30" y2="81.11" stroke="#333" stroke-width="1"/>
<line x1="634.30" y1="74.55" x2="638.30" y2="74.55" stroke="#333" stroke-width="1"/>
<rect x="656.50" y="185.13" width="40.40" height="14.87" fill="#BDBDBD" opacity="0.85"><title>Control: 0.000227</title></rect>
<line x1="676.70" y1="185.32" x2="676.70" y2="184.92" stroke="#333" stroke-width="1"/>
<line x1="674.70" y1="185.32" x2="678.70" y2="185.32" stroke="#333" stroke-width="1"/>
<line x1="674.70" y1="184.92" x2="678.70" y2="184.92" stroke="#333" stroke-width="1"/>
<text x="656.50" y="214" text-anchor="end" font-size="9" fill="#2196F3" transform="rotate(-45,656.50,214)">Social</text>
<rect x="717.10" y="71.46" width="40.40" height="128.54" fill="#81C784" opacity="0.85"><title>Partner Identity: 0.001959</title></rect>
<line x1="737.30" y1="75.02" x2="737.30" y2="67.83" stroke="#333" stroke-width="1"/>
<line x1="735.30" y1="75.02" x2="739.30" y2="75.02" stroke="#333" stroke-width="1"/>
<line x1="735.30" y1="67.83" x2="739.30" y2="67.83" stroke="#333" stroke-width="1"/>
<rect x="757.50" y="185.26" width="40.40" height="14.74" fill="#BDBDBD" opacity="0.85"><title>Control: 0.000225</title></rect>
<line x1="777.70" y1="185.48" x2="777.70" y2="185.04" stroke="#333" stroke-width="1"/>
<line x1="775.70" y1="185.48" x2="779.70" y2="185.48" stroke="#333" stroke-width="1"/>
<line x1="775.70" y1="185.04" x2="779.70" y2="185.04" stroke="#333" stroke-width="1"/>
<text x="757.50" y="214" text-anchor="end" font-size="9" fill="#4CAF50" transform="rotate(-45,757.50,214)">Embodiment</text>
<rect x="818.10" y="72.50" width="40.40" height="127.50" fill="#81C784" opacity="0.85"><title>Partner Identity: 0.001943</title></rect>
<line x1="838.30" y1="76.82" x2="838.30" y2="69.02" stroke="#333" stroke-width="1"/>
<line x1="836.30" y1="76.82" x2="840.30" y2="76.82" stroke="#333" stroke-width="1"/>
<line x1="836.30" y1="69.02" x2="840.30" y2="69.02" stroke="#333" stroke-width="1"/>
<rect x="858.50" y="185.28" width="40.40" height="14.72" fill="#BDBDBD" opacity="0.85"><title>Control: 0.000224</title></rect>
<line x1="878.70" y1="185.43" x2="878.70" y2="185.14" stroke="#333" stroke-width="1"/>
<line x1="876.70" y1="185.43" x2="880.70" y2="185.43" stroke="#333" stroke-width="1"/>
<line x1="876.70" y1="185.14" x2="880.70" y2="185.14" stroke="#333" stroke-width="1"/>
<text x="858.50" y="214" text-anchor="end" font-size="9" fill="#4CAF50" transform="rotate(-45,858.50,214)">Roles</text>
<rect x="919.10" y="79.46" width="40.40" height="120.54" fill="#81C784" opacity="0.85"><title>Partner Identity: 0.001837</title></rect>
<line x1="939.30" y1="83.68" x2="939.30" y2="75.29" stroke="#333" stroke-width="1"/>
<line x1="937.30" y1="83.68" x2="941.30" y2="83.68" stroke="#333" stroke-width="1"/>
<line x1="937.30" y1="75.29" x2="941.30" y2="75.29" stroke="#333" stroke-width="1"/>
<rect x="959.50" y="185.24" width="40.40" height="14.76" fill="#BDBDBD" opacity="0.85"><title>Control: 0.000225</title></rect>
<line x1="979.70" y1="185.43" x2="979.70" y2="185.02" stroke="#333" stroke-width="1"/>
<line x1="977.70" y1="185.43" x2="981.70" y2="185.43" stroke="#333" stroke-width="1"/>
<line x1="977.70" y1="185.02" x2="981.70" y2="185.02" stroke="#333" stroke-width="1"/>
<text x="959.50" y="214" text-anchor="end" font-size="9" fill="#4CAF50" transform="rotate(-45,959.50,214)">Animacy</text>
<line x1="0" y1="200" x2="1010" y2="200" stroke="#333"/>
<line x1="0" y1="0" x2="0" y2="200" stroke="#333"/>
</g>
<rect x="70.0" y="324" width="10" height="10" fill="#81C784"/>
<text x="84.0" y="332" font-size="8" fill="#333">Partner Identity</text>
<rect x="272.0" y="324" width="10" height="10" fill="#BDBDBD"/>
<text x="286.0" y="332" font-size="8" fill="#333">Control</text>
</svg>