<svg viewBox="0 0 1100 360" xmlns="http://www.w3.org/2000/svg" style="width:100%;max-width:1100px;height:auto;font-family:Arial,sans-serif;">
<rect width="1100" height="360" fill="white"/>
<g transform="translate(70,30)">
<line x1="0" y1="200.0" x2="1010" y2="200.0" stroke="#eee" stroke-width="1"/>
<text x="-8" y="204.0" text-anchor="end" font-size="10" fill="#666">0.00</text>
<line x1="0" y1="160.0" x2="1010" y2="160.0" stroke="#eee" stroke-width="1"/>
<text x="-8" y="164.0" text-anchor="end" font-size="10" fill="#666">0.61</text>
<line x1="0" y1="120.0" x2="1010" y2="120.0" stroke="#eee" stroke-width="1"/>
<text x="-8" y="124.0" text-anchor="end" font-size="10" fill="#666">1.22</text>
<line x1="0" y1="80.0" x2="1010" y2="80.0" stroke="#eee" stroke-width="1"/>
<text x="-8" y="84.0" text-anchor="end" font-size="10" fill="#666">1.83</text>
<line x1="0" y1="40.0" x2="1010" y2="40.0" stroke="#eee" stroke-width="1"/>
<text x="-8" y="44.0" text-anchor="end" font-size="10" fill="#666">2.44</text>
<line x1="0" y1="0.0" x2="1010" y2="0.0" stroke="#eee" stroke-width="1"/>
<text x="-8" y="4.0" text-anchor="end" font-size="10" fill="#666">3.05</text>
<text x="-50" y="100.0" text-anchor="middle" font-size="11" fill="#333" transform="rotate(-90,-50,100.0)">Mean R² (×10⁻³)</text>
<rect x="10.10" y="38.72" width="40.40" height="161.28" fill="#2E7D32" opacity="0.85"><title>Partner Identity: 0.002458</title></rect>
<line x1="30.30" y1="43.72" x2="30.30" y2="33.94" stroke="#333" stroke-width="1"/>
<line x1="28.30" y1="43.72" x2="32.30" y2="43.72" stroke="#333" stroke-width="1"/>
<line x1="28.30" y1="33.94" x2="32.30" y2="33.94" stroke="#333" stroke-width="1"/>
<rect x="50.50" y="190.00" width="40.40" height="10.00" fill="#616161" opacity="0.85"><title>Control: 0.000152</title></rect>
<line x1="70.70" y1="190.09" x2="70.70" y2="189.91" stroke="#333" stroke-width="1"/>
<line x1="68.70" y1="190.09" x2="72.70" y2="190.09" stroke="#333" stroke-width="1"/>
<line x1="68.70" y1="189.91" x2="72.70" y2="189.91" stroke="#333" stroke-width="1"/>
<text x="50.50" y="214" text-anchor="end" font-size="9" fill="#2196F3" transform="rotate(-45,50.50,214)">Phenomenology</text>
<rect x="111.10" y="46.48" width="40.40" height="153.52" fill="#2E7D32" opacity="0.85"><title>Partner Identity: 0.002339</title></rect>
<line x1="131.30" y1="52.05" x2="131.30" y2="41.50" stroke="#333" stroke-width="1"/>
<line x1="129.30" y1="52.05" x2="133.30" y2="52.05" stroke="#333" stroke-width="1"/>
<line x1="129.30" y1="41.50" x2="133.30" y2="41.50" stroke="#333" stroke-width="1"/>
<rect x="151.50" y="189.70" width="40.40" height="10.30" fill="#616161" opacity="0.85"><title>Control: 0.000157</title></rect>
<line x1="171.70" y1="189.87" x2="171.70" y2="189.55" stroke="#333" stroke-width="1"/>
<line x1="169.70" y1="189.87" x2="173.70" y2="189.87" stroke="#333" stroke-width="1"/>
<line x1="169.70" y1="189.55" x2="173.70" y2="189.55" stroke="#333" stroke-width="1"/>
<text x="151.50" y="214" text-anchor="end" font-size="9" fill="#2196F3" transform="rotate(-45,151.50,214)">Emotions</text>
<rect x="212.10" y="33.28" width="40.40" height="166.72" fill="#2E7D32" opacity="0.85"><title>Partner Identity: 0.002540</title></rect>
<line x1="232.30" y1="39.23" x2="232.30" y2="26.98" stroke="#333" stroke-width="1"/>
<line x1="230.30" y1="39.23" x2="234.30" y2="39.23" stroke="#333" stroke-width="1"/>
<line x1="230.30" y1="26.98" x2="234.30" y2="26.98" stroke="#333" stroke-width="1"/>
<rect x="252.50" y="189.94" width="40.40" height="10.06" fill="#616161" opacity="0.85"><title>Control: 0.000153</title></rect>
<line x1="272.70" y1="190.14" x2="272.70" y2="189.70" stroke="#333" stroke-width="1"/>
<line x1="270.70" y1="190.14" x2="274.70" y2="190.14" stroke="#333" stroke-width="1"/>
<line x1="270.70" y1="189.70" x2="274.70" y2="189.70" stroke="#333" stroke-width="1"/>
<text x="252.50" y="214" text-anchor="end" font-size="9" fill="#2196F3" transform="rotate(-45,252.50,214)">Agency</text>
<rect x="313.10" y="49.92" width="40.40" height="150.08" fill="#2E7D32" opacity="0.85"><title>Partner Identity: 0.002287</title></rect>
<line x1="333.30" y1="54.80" x2="333.30" y2="44.98" stroke="#333" stroke-width="1"/>
<line x1="331.30" y1="54.80" x2="335.30" y2="54.80" stroke="#333" stroke-width="1"/>
<line x1="331.30" y1="44.98" x2="335.30" y2="44.98" stroke="#333" stroke-width="1"/>
<rect x="353.50" y="189.86" width="40.40" height="10.14" fill="#616161" opacity="0.85"><title>Control: 0.000154</title></rect>
<line x1="373.70" y1="190.02" x2="373.70" y2="189.71" stroke="#333" stroke-width="1"/>
<line x1="371.70" y1="190.02" x2="375.70" y2="190.02" stroke="#333" stroke-width="1"/>
<line x1="371.70" y1="189.71" x2="375.70" y2="189.71" stroke="#333" stroke-width="1"/>
<text x="353.50" y="214" text-anchor="end" font-size="9" fill="#2196F3" transform="rotate(-45,353.50,214)">Intentions</text>
<rect x="414.10" y="32.01" width="40.40" height="167.99" fill="#2E7D32" opacity="0.85"><title>Partner Identity: 0.002560</title></rect>
<line x1="434.30" y1="37.17" x2="434.30" y2="26.84" stroke="#333" stroke-width="1"/>
<line x1="432.30" y1="37.17" x2="436.30" y2="37.17" stroke="#333" stroke-width="1"/>
<line x1="432.30" y1="26.84" x2="436.30" y2="26.84" stroke="#333" stroke-width="1"/>
<rect x="454.50" y="190.08" width="40.40" height="9.92" fill="#616161" opacity="0.85"><title>Control: 0.000151</title></rect>
<line x1="474.70" y1="190.30" x2="474.70" y2="189.86" stroke="#333" stroke-width="1"/>
<line x1="472.70" y1="190.30" x2="476.70" y2="190.30" stroke="#333" stroke-width="1"/>
<line x1="472.70" y1="189.86" x2="476.70" y2="189.86" stroke="#333" stroke-width="1"/>
<text x="454.50" y="214" text-anchor="end" font-size="9" fill="#2196F3" transform="rotate(-45,454.50,214)">Prediction</text>
<rect x="515.10" y="35.17" width="40.40" height="164.83" fill="#2E7D32" opacity="0.85"><title>Partner Identity: 0.002512</title></rect>
<line x1="535.30" y1="39.27" x2="535.30" y2="31.39" stroke="#333" stroke-width="1"/>
<line x1="533.30" y1="39.27" x2="537.30" y2="39.27" stroke="#333" stroke-width="1"/>
<line x1="533.30" y1="31.39" x2="537.30" y2="31.39" stroke="#333" stroke-width="1"/>
<rect x="555.50" y="190.04" width="40.40" height="9.96" fill="#616161" opacity="0.85"><title>Control: 0.000152</title></rect>
<line x1="575.70" y1="190.17" x2="575.70" y2="189.92" stroke="#333" stroke-width="1"/>
<line x1="573.70" y1="190.17" x2="577.70" y2="190.17" stroke="#333" stroke-width="1"/>
<line x1="573.70" y1="189.92" x2="577.70" y2="189.92" stroke="#333" stroke-width="1"/>
<text x="555.50" y="214" text-anchor="end" font-size="9" fill="#2196F3" transform="rotate(-45,555.50,214)">Cognitive</text>
<rect x="616.10" y="49.59" width="40.40" height="150.41" fill="#2E7D32" opacity="0.85"><title>Partner Identity: 0.002292</title></rect>
<line x1="636.30" y1="53.32" x2="636.30" y2="46.10" stroke="#333" stroke-width="1"/>
<line x1="634.30" y1="53.32" x2="638.30" y2="53.32" stroke="#333" stroke-width="1"/>
<line x1="634.30" y1="46.10" x2="638.30" y2="46.10" stroke="#333" stroke-width="1"/>
<rect x="656.50" y="189.56" width="40.40" height="10.44" fill="#616161" opacity="0.85"><title>Control: 0.000159</title></rect>
<line x1="676.70" y1="189.74" x2="676.70" y2="189.37" stroke="#333" stroke-width="1"/>
<line x1="674.70" y1="189.74" x2="678.70" y2="189.74" stroke="#333" stroke-width="1"/>
<line x1="674.70" y1="189.37" x2="678.70" y2="189.37" stroke="#333" stroke-width="1"/>
<text x="656.50" y="214" text-anchor="end" font-size="9" fill="#2196F3" transform="rotate(-45,656.50,214)">Social</text>
<rect x="717.10" y="43.55" width="40.40" height="156.45" fill="#2E7D32" opacity="0.85"><title>Partner Identity: 0.002384</title></rect>
<line x1="737.30" y1="46.28" x2="737.30" y2="41.09" stroke="#333" stroke-width="1"/>
<line x1="735.30" y1="46.28" x2="739.30" y2="46.28" stroke="#333" stroke-width="1"/>
<line x1="735.30" y1="41.09" x2="739.30" y2="41.09" stroke="#333" stroke-width="1"/>
<rect x="757.50" y="189.99" width="40.40" height="10.01" fill="#616161" opacity="0.85"><title>Control: 0.000152</title></rect>
<line x1="777.70" y1="190.18" x2="777.70" y2="189.81" stroke="#333" stroke-width="1"/>
<line x1="775.70" y1="190.18" x2="779.70" y2="190.18" stroke="#333" stroke-width="1"/>
<line x1="775.70" y1="189.81" x2="779.70" y2="189.81" stroke="#333" stroke-width="1"/>
<text x="757.50" y="214" text-anchor="end" font-size="9" fill="#4CAF50" transform="rotate(-45,757.50,214)">Embodiment</text>
<rect x="818.10" y="46.15" width="40.40" height="153.85" fill="#2E7D32" opacity="0.85"><title>Partner Identity: 0.002344</title></rect>
<line x1="838.30" y1="50.57" x2="838.30" y2="42.81" stroke="#333" stroke-width="1"/>
<line x1="836.30" y1="50.57" x2="840.30" y2="50.57" stroke="#333" stroke-width="1"/>
<line x1="836.30" y1="42.81" x2="840.30" y2="42.81" stroke="#333" stroke-width="1"/>
<rect x="858.50" y="189.79" width="40.40" height="10.21" fill="#616161" opacity="0.85"><title>Control: 0.000156</title></rect>
<line x1="878.70" y1="189.97" x2="878.70" y2="189.59" stroke="#333" stroke-width="1"/>
<line x1="876.70" y1="189.97" x2="880.70" y2="189.97" stroke="#333" stroke-width="1"/>
<line x1="876.70" y1="189.59" x2="880.70" y2="189.59" stroke="#333" stroke-width="1"/>
<text x="858.50" y="214" text-anchor="end" font-size="9" fill="#4CAF50" transform="rotate(-45,858.50,214)">Roles</text>
<rect x="919.10" y="51.42" width="40.40" height="148.58" fill="#2E7D32" opacity="0.85"><title>Partner Identity: 0.002264</title></rect>
<line x1="939.30" y1="55.60" x2="939.30" y2="47.18" stroke="#333" stroke-width="1"/>
<line x1="937.30" y1="55.60" x2="941.30" y2="55.60" stroke="#333" stroke-width="1"/>
<line x1="937.30" y1="47.18" x2="941.30" y2="47.18" stroke="#333" stroke-width="1"/>
<rect x="959.50" y="189.80" width="40.40" height="10.20" fill="#616161" opacity="0.85"><title>Control: 0.000155</title></rect>
<line x1="979.70" y1="189.96" x2="979.70" y2="189.65" stroke="#333" stroke-width="1"/>
<line x1="977.70" y1="189.96" x2="981.70" y2="189.96" stroke="#333" stroke-width="1"/>
<line x1="977.70" y1="189.65" x2="981.70" y2="189.65" stroke="#333" stroke-width="1"/>
<text x="959.50" y="214" text-anchor="end" font-size="9" fill="#4CAF50" transform="rotate(-45,959.50,214)">Animacy</text>
<line x1="0" y1="200" x2="1010" y2="200" stroke="#333"/>
<line x1="0" y1="0" x2="0" y2="200" stroke="#333"/>
</g>
<rect x="70.0" y="324" width="10" height="10" fill="#2E7D32"/>
<text x="84.0" y="332" font-size="8" fill="#333">Partner Identity</text>
<rect x="272.0" y="324" width="10" height="10" fill="#616161"/>
<text x="286.0" y="332" font-size="8" fill="#333">Control</text>
</svg>