<svg viewBox="0 0 800 340" xmlns="http://www.w3.org/2000/svg" style="width:100%;max-width:800px;height:auto;font-family:Arial,sans-serif;">
<rect width="800" height="340" fill="white"/>

<g transform="translate(70,30)">
<line x1="0" y1="190.0" x2="710" y2="190.0" stroke="#eee" stroke-width="1"/>
<text x="-8" y="194.0" text-anchor="end" font-size="10" fill="#666">0.00</text>
<line x1="0" y1="152.0" x2="710" y2="152.0" stroke="#eee" stroke-width="1"/>
<text x="-8" y="156.0" text-anchor="end" font-size="10" fill="#666">0.94</text>
<line x1="0" y1="114.0" x2="710" y2="114.0" stroke="#eee" stroke-width="1"/>
<text x="-8" y="118.0" text-anchor="end" font-size="10" fill="#666">1.88</text>
<line x1="0" y1="76.0" x2="710" y2="76.0" stroke="#eee" stroke-width="1"/>
<text x="-8" y="80.0" text-anchor="end" font-size="10" fill="#666">2.82</text>
<line x1="0" y1="38.0" x2="710" y2="38.0" stroke="#eee" stroke-width="1"/>
<text x="-8" y="42.0" text-anchor="end" font-size="10" fill="#666">3.76</text>
<line x1="0" y1="0.0" x2="710" y2="0.0" stroke="#eee" stroke-width="1"/>
<text x="-8" y="4.0" text-anchor="end" font-size="10" fill="#666">4.70</text>
<text x="-50" y="95.0" text-anchor="middle" font-size="11" fill="#333" transform="rotate(-90,-50,95.0)">Mean R² (×10⁻³)</text>
<line x1="88.75" y1="0" x2="88.75" y2="190" stroke="#ddd" stroke-width="1" stroke-dasharray="4,3"/>
<rect x="6.66" y="176.77" width="15.53" height="13.23" fill="#81C784" opacity="0.85"><title>Partner Identity: 0.327 ×10⁻³</title></rect>
<line x1="14.42" y1="178.64" x2="14.42" y2="174.21" stroke="#333" stroke-width="1"/>
<line x1="12.42" y1="178.64" x2="16.42" y2="178.64" stroke="#333" stroke-width="1"/>
<line x1="12.42" y1="174.21" x2="16.42" y2="174.21" stroke="#333" stroke-width="1"/>
<rect x="24.19" y="181.66" width="15.53" height="8.34" fill="#BDBDBD" opacity="0.85"><title>Control: 0.207 ×10⁻³</title></rect>
<line x1="31.95" y1="182.75" x2="31.95" y2="180.55" stroke="#333" stroke-width="1"/>
<line x1="29.95" y1="182.75" x2="33.95" y2="182.75" stroke="#333" stroke-width="1"/>
<line x1="29.95" y1="180.55" x2="33.95" y2="180.55" stroke="#333" stroke-width="1"/>
<text x="24.2" y="204" text-anchor="end" font-size="9" fill="#9E9E9E" transform="rotate(-45,24.2,204)">Biological</text>
<rect x="51.03" y="177.72" width="15.53" height="12.28" fill="#81C784" opacity="0.85"><title>Partner Identity: 0.304 ×10⁻³</title></rect>
<line x1="58.80" y1="183.30" x2="58.80" y2="171.74" stroke="#333" stroke-width="1"/>
<line x1="56.80" y1="183.30" x2="60.80" y2="183.30" stroke="#333" stroke-width="1"/>
<line x1="56.80" y1="171.74" x2="60.80" y2="171.74" stroke="#333" stroke-width="1"/>
<rect x="68.56" y="181.67" width="15.53" height="8.33" fill="#BDBDBD" opacity="0.85"><title>Control: 0.206 ×10⁻³</title></rect>
<line x1="76.33" y1="183.57" x2="76.33" y2="179.47" stroke="#333" stroke-width="1"/>
<line x1="74.33" y1="183.57" x2="78.33" y2="183.57" stroke="#333" stroke-width="1"/>
<line x1="74.33" y1="179.47" x2="78.33" y2="179.47" stroke="#333" stroke-width="1"/>
<text x="68.6" y="204" text-anchor="end" font-size="9" fill="#9E9E9E" transform="rotate(-45,68.6,204)">Shapes</text>
<rect x="95.41" y="153.33" width="15.53" height="36.67" fill="#81C784" opacity="0.85"><title>Partner Identity: 0.908 ×10⁻³</title></rect>
<line x1="103.17" y1="161.03" x2="103.17" y2="147.37" stroke="#333" stroke-width="1"/>
<line x1="101.17" y1="161.03" x2="105.17" y2="161.03" stroke="#333" stroke-width="1"/>
<line x1="101.17" y1="147.37" x2="105.17" y2="147.37" stroke="#333" stroke-width="1"/>
<rect x="112.94" y="180.77" width="15.53" height="9.23" fill="#BDBDBD" opacity="0.85"><title>Control: 0.228 ×10⁻³</title></rect>
<line x1="120.70" y1="182.34" x2="120.70" y2="179.11" stroke="#333" stroke-width="1"/>
<line x1="118.70" y1="182.34" x2="122.70" y2="182.34" stroke="#333" stroke-width="1"/>
<line x1="118.70" y1="179.11" x2="122.70" y2="179.11" stroke="#333" stroke-width="1"/>
<text x="112.9" y="204" text-anchor="end" font-size="9" fill="#2196F3" transform="rotate(-45,112.9,204)">Attention</text>
<rect x="139.78" y="161.35" width="15.53" height="28.65" fill="#81C784" opacity="0.85"><title>Partner Identity: 0.709 ×10⁻³</title></rect>
<line x1="147.55" y1="169.45" x2="147.55" y2="146.96" stroke="#333" stroke-width="1"/>
<line x1="145.55" y1="169.45" x2="149.55" y2="169.45" stroke="#333" stroke-width="1"/>
<line x1="145.55" y1="146.96" x2="149.55" y2="146.96" stroke="#333" stroke-width="1"/>
<rect x="157.31" y="183.22" width="15.53" height="6.78" fill="#BDBDBD" opacity="0.85"><title>Control: 0.168 ×10⁻³</title></rect>
<line x1="165.08" y1="184.19" x2="165.08" y2="181.11" stroke="#333" stroke-width="1"/>
<line x1="163.08" y1="184.19" x2="167.08" y2="184.19" stroke="#333" stroke-width="1"/>
<line x1="163.08" y1="181.11" x2="167.08" y2="181.11" stroke="#333" stroke-width="1"/>
<text x="157.3" y="204" text-anchor="end" font-size="9" fill="#2196F3" transform="rotate(-45,157.3,204)">Social</text>
<rect x="184.16" y="155.17" width="15.53" height="34.83" fill="#81C784" opacity="0.85"><title>Partner Identity: 0.862 ×10⁻³</title></rect>
<line x1="191.92" y1="164.08" x2="191.92" y2="149.26" stroke="#333" stroke-width="1"/>
<line x1="189.92" y1="164.08" x2="193.92" y2="164.08" stroke="#333" stroke-width="1"/>
<line x1="189.92" y1="149.26" x2="193.92" y2="149.26" stroke="#333" stroke-width="1"/>
<rect x="201.69" y="179.77" width="15.53" height="10.23" fill="#BDBDBD" opacity="0.85"><title>Control: 0.253 ×10⁻³</title></rect>
<line x1="209.45" y1="181.91" x2="209.45" y2="178.36" stroke="#333" stroke-width="1"/>
<line x1="207.45" y1="181.91" x2="211.45" y2="181.91" stroke="#333" stroke-width="1"/>
<line x1="207.45" y1="178.36" x2="211.45" y2="178.36" stroke="#333" stroke-width="1"/>
<text x="201.7" y="204" text-anchor="end" font-size="9" fill="#2196F3" transform="rotate(-45,201.7,204)">Cognitive</text>
<rect x="228.53" y="161.05" width="15.53" height="28.95" fill="#81C784" opacity="0.85"><title>Partner Identity: 0.717 ×10⁻³</title></rect>
<line x1="236.30" y1="166.58" x2="236.30" y2="153.87" stroke="#333" stroke-width="1"/>
<line x1="234.30" y1="166.58" x2="238.30" y2="166.58" stroke="#333" stroke-width="1"/>
<line x1="234.30" y1="153.87" x2="238.30" y2="153.87" stroke="#333" stroke-width="1"/>
<rect x="246.06" y="182.81" width="15.53" height="7.19" fill="#BDBDBD" opacity="0.85"><title>Control: 0.178 ×10⁻³</title></rect>
<line x1="253.83" y1="183.87" x2="253.83" y2="181.10" stroke="#333" stroke-width="1"/>
<line x1="251.83" y1="183.87" x2="255.83" y2="183.87" stroke="#333" stroke-width="1"/>
<line x1="251.83" y1="181.10" x2="255.83" y2="181.10" stroke="#333" stroke-width="1"/>
<text x="246.1" y="204" text-anchor="end" font-size="9" fill="#2196F3" transform="rotate(-45,246.1,204)">Prediction</text>
<rect x="272.91" y="162.76" width="15.53" height="27.24" fill="#81C784" opacity="0.85"><title>Partner Identity: 0.675 ×10⁻³</title></rect>
<line x1="280.67" y1="171.46" x2="280.67" y2="153.10" stroke="#333" stroke-width="1"/>
<line x1="278.67" y1="171.46" x2="282.67" y2="171.46" stroke="#333" stroke-width="1"/>
<line x1="278.67" y1="153.10" x2="282.67" y2="153.10" stroke="#333" stroke-width="1"/>
<rect x="290.44" y="183.19" width="15.53" height="6.81" fill="#BDBDBD" opacity="0.85"><title>Control: 0.169 ×10⁻³</title></rect>
<line x1="298.20" y1="183.94" x2="298.20" y2="181.92" stroke="#333" stroke-width="1"/>
<line x1="296.20" y1="183.94" x2="300.20" y2="183.94" stroke="#333" stroke-width="1"/>
<line x1="296.20" y1="181.92" x2="300.20" y2="181.92" stroke="#333" stroke-width="1"/>
<text x="290.4" y="204" text-anchor="end" font-size="9" fill="#2196F3" transform="rotate(-45,290.4,204)">Intentions</text>
<rect x="317.28" y="168.20" width="15.53" height="21.80" fill="#81C784" opacity="0.85"><title>Partner Identity: 0.540 ×10⁻³</title></rect>
<line x1="325.05" y1="174.18" x2="325.05" y2="159.57" stroke="#333" stroke-width="1"/>
<line x1="323.05" y1="174.18" x2="327.05" y2="174.18" stroke="#333" stroke-width="1"/>
<line x1="323.05" y1="159.57" x2="327.05" y2="159.57" stroke="#333" stroke-width="1"/>
<rect x="334.81" y="184.23" width="15.53" height="5.77" fill="#BDBDBD" opacity="0.85"><title>Control: 0.143 ×10⁻³</title></rect>
<line x1="342.58" y1="185.16" x2="342.58" y2="182.36" stroke="#333" stroke-width="1"/>
<line x1="340.58" y1="185.16" x2="344.58" y2="185.16" stroke="#333" stroke-width="1"/>
<line x1="340.58" y1="182.36" x2="344.58" y2="182.36" stroke="#333" stroke-width="1"/>
<text x="334.8" y="204" text-anchor="end" font-size="9" fill="#2196F3" transform="rotate(-45,334.8,204)">Agency</text>
<rect x="361.66" y="166.53" width="15.53" height="23.47" fill="#81C784" opacity="0.85"><title>Partner Identity: 0.581 ×10⁻³</title></rect>
<line x1="369.42" y1="171.11" x2="369.42" y2="161.88" stroke="#333" stroke-width="1"/>
<line x1="367.42" y1="171.11" x2="371.42" y2="171.11" stroke="#333" stroke-width="1"/>
<line x1="367.42" y1="161.88" x2="371.42" y2="161.88" stroke="#333" stroke-width="1"/>
<rect x="379.19" y="183.35" width="15.53" height="6.65" fill="#BDBDBD" opacity="0.85"><title>Control: 0.165 ×10⁻³</title></rect>
<line x1="386.95" y1="184.14" x2="386.95" y2="181.90" stroke="#333" stroke-width="1"/>
<line x1="384.95" y1="184.14" x2="388.95" y2="184.14" stroke="#333" stroke-width="1"/>
<line x1="384.95" y1="181.90" x2="388.95" y2="181.90" stroke="#333" stroke-width="1"/>
<text x="379.2" y="204" text-anchor="end" font-size="9" fill="#2196F3" transform="rotate(-45,379.2,204)">Roles</text>
<rect x="406.03" y="172.13" width="15.53" height="17.87" fill="#81C784" opacity="0.85"><title>Partner Identity: 0.443 ×10⁻³</title></rect>
<line x1="413.80" y1="175.78" x2="413.80" y2="168.30" stroke="#333" stroke-width="1"/>
<line x1="411.80" y1="175.78" x2="415.80" y2="175.78" stroke="#333" stroke-width="1"/>
<line x1="411.80" y1="168.30" x2="415.80" y2="168.30" stroke="#333" stroke-width="1"/>
<rect x="423.56" y="181.42" width="15.53" height="8.58" fill="#BDBDBD" opacity="0.85"><title>Control: 0.212 ×10⁻³</title></rect>
<line x1="431.33" y1="182.74" x2="431.33" y2="180.25" stroke="#333" stroke-width="1"/>
<line x1="429.33" y1="182.74" x2="433.33" y2="182.74" stroke="#333" stroke-width="1"/>
<line x1="429.33" y1="180.25" x2="433.33" y2="180.25" stroke="#333" stroke-width="1"/>
<text x="423.6" y="204" text-anchor="end" font-size="9" fill="#2196F3" transform="rotate(-45,423.6,204)">Phenomenology</text>
<rect x="450.41" y="171.80" width="15.53" height="18.20" fill="#81C784" opacity="0.85"><title>Partner Identity: 0.451 ×10⁻³</title></rect>
<line x1="458.17" y1="175.25" x2="458.17" y2="167.95" stroke="#333" stroke-width="1"/>
<line x1="456.17" y1="175.25" x2="460.17" y2="175.25" stroke="#333" stroke-width="1"/>
<line x1="456.17" y1="167.95" x2="460.17" y2="167.95" stroke="#333" stroke-width="1"/>
<rect x="467.94" y="183.10" width="15.53" height="6.90" fill="#BDBDBD" opacity="0.85"><title>Control: 0.171 ×10⁻³</title></rect>
<line x1="475.70" y1="183.91" x2="475.70" y2="182.00" stroke="#333" stroke-width="1"/>
<line x1="473.70" y1="183.91" x2="477.70" y2="183.91" stroke="#333" stroke-width="1"/>
<line x1="473.70" y1="182.00" x2="477.70" y2="182.00" stroke="#333" stroke-width="1"/>
<text x="467.9" y="204" text-anchor="end" font-size="9" fill="#2196F3" transform="rotate(-45,467.9,204)">Emotions</text>
<rect x="494.78" y="177.56" width="15.53" height="12.44" fill="#81C784" opacity="0.85"><title>Partner Identity: 0.308 ×10⁻³</title></rect>
<line x1="502.55" y1="179.49" x2="502.55" y2="174.96" stroke="#333" stroke-width="1"/>
<line x1="500.55" y1="179.49" x2="504.55" y2="179.49" stroke="#333" stroke-width="1"/>
<line x1="500.55" y1="174.96" x2="504.55" y2="174.96" stroke="#333" stroke-width="1"/>
<rect x="512.31" y="181.66" width="15.53" height="8.34" fill="#BDBDBD" opacity="0.85"><title>Control: 0.207 ×10⁻³</title></rect>
<line x1="520.08" y1="182.93" x2="520.08" y2="180.43" stroke="#333" stroke-width="1"/>
<line x1="518.08" y1="182.93" x2="522.08" y2="182.93" stroke="#333" stroke-width="1"/>
<line x1="518.08" y1="180.43" x2="522.08" y2="180.43" stroke="#333" stroke-width="1"/>
<text x="512.3" y="204" text-anchor="end" font-size="9" fill="#2196F3" transform="rotate(-45,512.3,204)">Embodiment</text>
<rect x="539.16" y="171.62" width="15.53" height="18.38" fill="#81C784" opacity="0.85"><title>Partner Identity: 0.455 ×10⁻³</title></rect>
<line x1="546.92" y1="174.94" x2="546.92" y2="168.12" stroke="#333" stroke-width="1"/>
<line x1="544.92" y1="174.94" x2="548.92" y2="174.94" stroke="#333" stroke-width="1"/>
<line x1="544.92" y1="168.12" x2="548.92" y2="168.12" stroke="#333" stroke-width="1"/>
<rect x="556.69" y="178.57" width="15.53" height="11.43" fill="#BDBDBD" opacity="0.85"><title>Control: 0.283 ×10⁻³</title></rect>
<line x1="564.45" y1="179.55" x2="564.45" y2="177.64" stroke="#333" stroke-width="1"/>
<line x1="562.45" y1="179.55" x2="566.45" y2="179.55" stroke="#333" stroke-width="1"/>
<line x1="562.45" y1="177.64" x2="566.45" y2="177.64" stroke="#333" stroke-width="1"/>
<text x="556.7" y="204" text-anchor="end" font-size="9" fill="#FF9800" transform="rotate(-45,556.7,204)">Expertise</text>
<rect x="583.53" y="177.32" width="15.53" height="12.68" fill="#81C784" opacity="0.85"><title>Partner Identity: 0.314 ×10⁻³</title></rect>
<line x1="591.30" y1="182.22" x2="591.30" y2="172.49" stroke="#333" stroke-width="1"/>
<line x1="589.30" y1="182.22" x2="593.30" y2="182.22" stroke="#333" stroke-width="1"/>
<line x1="589.30" y1="172.49" x2="593.30" y2="172.49" stroke="#333" stroke-width="1"/>
<rect x="601.06" y="179.77" width="15.53" height="10.23" fill="#BDBDBD" opacity="0.85"><title>Control: 0.253 ×10⁻³</title></rect>
<line x1="608.83" y1="182.15" x2="608.83" y2="177.77" stroke="#333" stroke-width="1"/>
<line x1="606.83" y1="182.15" x2="610.83" y2="182.15" stroke="#333" stroke-width="1"/>
<line x1="606.83" y1="177.77" x2="610.83" y2="177.77" stroke="#333" stroke-width="1"/>
<text x="601.1" y="204" text-anchor="end" font-size="9" fill="#FF9800" transform="rotate(-45,601.1,204)">Formality</text>
<rect x="627.91" y="178.02" width="15.53" height="11.98" fill="#81C784" opacity="0.85"><title>Partner Identity: 0.297 ×10⁻³</title></rect>
<line x1="635.67" y1="183.48" x2="635.67" y2="171.69" stroke="#333" stroke-width="1"/>
<line x1="633.67" y1="183.48" x2="637.67" y2="183.48" stroke="#333" stroke-width="1"/>
<line x1="633.67" y1="171.69" x2="637.67" y2="171.69" stroke="#333" stroke-width="1"/>
<rect x="645.44" y="179.64" width="15.53" height="10.36" fill="#BDBDBD" opacity="0.85"><title>Control: 0.257 ×10⁻³</title></rect>
<line x1="653.20" y1="182.53" x2="653.20" y2="178.12" stroke="#333" stroke-width="1"/>
<line x1="651.20" y1="182.53" x2="655.20" y2="182.53" stroke="#333" stroke-width="1"/>
<line x1="651.20" y1="178.12" x2="655.20" y2="178.12" stroke="#333" stroke-width="1"/>
<text x="645.4" y="204" text-anchor="end" font-size="9" fill="#FF9800" transform="rotate(-45,645.4,204)">Helpfulness</text>
<rect x="672.28" y="153.96" width="15.53" height="36.04" fill="#81C784" opacity="0.85"><title>Partner Identity: 0.893 ×10⁻³</title></rect>
<line x1="680.05" y1="161.52" x2="680.05" y2="142.64" stroke="#333" stroke-width="1"/>
<line x1="678.05" y1="161.52" x2="682.05" y2="161.52" stroke="#333" stroke-width="1"/>
<line x1="678.05" y1="142.64" x2="682.05" y2="142.64" stroke="#333" stroke-width="1"/>
<rect x="689.81" y="182.08" width="15.53" height="7.92" fill="#BDBDBD" opacity="0.85"><title>Control: 0.196 ×10⁻³</title></rect>
<line x1="697.58" y1="182.98" x2="697.58" y2="181.11" stroke="#333" stroke-width="1"/>
<line x1="695.58" y1="182.98" x2="699.58" y2="182.98" stroke="#333" stroke-width="1"/>
<line x1="695.58" y1="181.11" x2="699.58" y2="181.11" stroke="#333" stroke-width="1"/>
<text x="689.8" y="204" text-anchor="end" font-size="9" fill="#00BCD4" transform="rotate(-45,689.8,204)">SysPrompt</text>
<line x1="0" y1="190" x2="710" y2="190" stroke="#333"/>
<line x1="0" y1="0" x2="0" y2="190" stroke="#333"/>
</g>
<rect x="70" y="320" width="10" height="10" fill="#81C784"/>
<text x="84" y="328" font-size="9" fill="#333">Partner Identity</text>
<rect x="210" y="320" width="10" height="10" fill="#BDBDBD"/>
<text x="224" y="328" font-size="9" fill="#333">Control</text>
</svg>