<svg viewBox="0 0 800 340" xmlns="http://www.w3.org/2000/svg" style="width:100%;max-width:800px;height:auto;font-family:Arial,sans-serif;">
<rect width="800" height="340" fill="white"/>

<g transform="translate(70,30)">
<line x1="0" y1="190.0" x2="710" y2="190.0" stroke="#eee" stroke-width="1"/>
<text x="-8" y="194.0" text-anchor="end" font-size="10" fill="#666">0.00</text>
<line x1="0" y1="152.0" x2="710" y2="152.0" stroke="#eee" stroke-width="1"/>
<text x="-8" y="156.0" text-anchor="end" font-size="10" fill="#666">0.94</text>
<line x1="0" y1="114.0" x2="710" y2="114.0" stroke="#eee" stroke-width="1"/>
<text x="-8" y="118.0" text-anchor="end" font-size="10" fill="#666">1.88</text>
<line x1="0" y1="76.0" x2="710" y2="76.0" stroke="#eee" stroke-width="1"/>
<text x="-8" y="80.0" text-anchor="end" font-size="10" fill="#666">2.82</text>
<line x1="0" y1="38.0" x2="710" y2="38.0" stroke="#eee" stroke-width="1"/>
<text x="-8" y="42.0" text-anchor="end" font-size="10" fill="#666">3.76</text>
<line x1="0" y1="0.0" x2="710" y2="0.0" stroke="#eee" stroke-width="1"/>
<text x="-8" y="4.0" text-anchor="end" font-size="10" fill="#666">4.70</text>
<text x="-50" y="95.0" text-anchor="middle" font-size="11" fill="#333" transform="rotate(-90,-50,95.0)">Mean R² (×10⁻³)</text>
<line x1="88.75" y1="0" x2="88.75" y2="190" stroke="#ddd" stroke-width="1" stroke-dasharray="4,3"/>
<rect x="6.66" y="148.05" width="15.53" height="41.95" fill="#2E7D32" opacity="0.85"><title>Partner Identity: 1.039 ×10⁻³</title></rect>
<line x1="14.42" y1="154.64" x2="14.42" y2="141.53" stroke="#333" stroke-width="1"/>
<line x1="12.42" y1="154.64" x2="16.42" y2="154.64" stroke="#333" stroke-width="1"/>
<line x1="12.42" y1="141.53" x2="16.42" y2="141.53" stroke="#333" stroke-width="1"/>
<rect x="24.19" y="181.07" width="15.53" height="8.93" fill="#616161" opacity="0.85"><title>Control: 0.221 ×10⁻³</title></rect>
<line x1="31.95" y1="182.04" x2="31.95" y2="180.18" stroke="#333" stroke-width="1"/>
<line x1="29.95" y1="182.04" x2="33.95" y2="182.04" stroke="#333" stroke-width="1"/>
<line x1="29.95" y1="180.18" x2="33.95" y2="180.18" stroke="#333" stroke-width="1"/>
<text x="24.2" y="204" text-anchor="end" font-size="9" fill="#9E9E9E" transform="rotate(-45,24.2,204)">Biological</text>
<rect x="51.03" y="180.11" width="15.53" height="9.89" fill="#2E7D32" opacity="0.85"><title>Partner Identity: 0.245 ×10⁻³</title></rect>
<line x1="58.80" y1="184.41" x2="58.80" y2="173.56" stroke="#333" stroke-width="1"/>
<line x1="56.80" y1="184.41" x2="60.80" y2="184.41" stroke="#333" stroke-width="1"/>
<line x1="56.80" y1="173.56" x2="60.80" y2="173.56" stroke="#333" stroke-width="1"/>
<rect x="68.56" y="182.31" width="15.53" height="7.69" fill="#616161" opacity="0.85"><title>Control: 0.190 ×10⁻³</title></rect>
<line x1="76.33" y1="184.86" x2="76.33" y2="180.05" stroke="#333" stroke-width="1"/>
<line x1="74.33" y1="184.86" x2="78.33" y2="184.86" stroke="#333" stroke-width="1"/>
<line x1="74.33" y1="180.05" x2="78.33" y2="180.05" stroke="#333" stroke-width="1"/>
<text x="68.6" y="204" text-anchor="end" font-size="9" fill="#9E9E9E" transform="rotate(-45,68.6,204)">Shapes</text>
<rect x="95.41" y="47.04" width="15.53" height="142.96" fill="#2E7D32" opacity="0.85"><title>Partner Identity: 3.540 ×10⁻³</title></rect>
<line x1="103.17" y1="73.07" x2="103.17" y2="32.61" stroke="#333" stroke-width="1"/>
<line x1="101.17" y1="73.07" x2="105.17" y2="73.07" stroke="#333" stroke-width="1"/>
<line x1="101.17" y1="32.61" x2="105.17" y2="32.61" stroke="#333" stroke-width="1"/>
<rect x="112.94" y="178.88" width="15.53" height="11.12" fill="#616161" opacity="0.85"><title>Control: 0.275 ×10⁻³</title></rect>
<line x1="120.70" y1="180.74" x2="120.70" y2="177.61" stroke="#333" stroke-width="1"/>
<line x1="118.70" y1="180.74" x2="122.70" y2="180.74" stroke="#333" stroke-width="1"/>
<line x1="118.70" y1="177.61" x2="122.70" y2="177.61" stroke="#333" stroke-width="1"/>
<text x="112.9" y="204" text-anchor="end" font-size="9" fill="#2196F3" transform="rotate(-45,112.9,204)">Attention</text>
<rect x="139.78" y="54.07" width="15.53" height="135.93" fill="#2E7D32" opacity="0.85"><title>Partner Identity: 3.366 ×10⁻³</title></rect>
<line x1="147.55" y1="81.21" x2="147.55" y2="31.07" stroke="#333" stroke-width="1"/>
<line x1="145.55" y1="81.21" x2="149.55" y2="81.21" stroke="#333" stroke-width="1"/>
<line x1="145.55" y1="31.07" x2="149.55" y2="31.07" stroke="#333" stroke-width="1"/>
<rect x="157.31" y="178.23" width="15.53" height="11.77" fill="#616161" opacity="0.85"><title>Control: 0.291 ×10⁻³</title></rect>
<line x1="165.08" y1="180.92" x2="165.08" y2="176.70" stroke="#333" stroke-width="1"/>
<line x1="163.08" y1="180.92" x2="167.08" y2="180.92" stroke="#333" stroke-width="1"/>
<line x1="163.08" y1="176.70" x2="167.08" y2="176.70" stroke="#333" stroke-width="1"/>
<text x="157.3" y="204" text-anchor="end" font-size="9" fill="#2196F3" transform="rotate(-45,157.3,204)">Social</text>
<rect x="184.16" y="63.12" width="15.53" height="126.88" fill="#2E7D32" opacity="0.85"><title>Partner Identity: 3.142 ×10⁻³</title></rect>
<line x1="191.92" y1="83.31" x2="191.92" y2="51.51" stroke="#333" stroke-width="1"/>
<line x1="189.92" y1="83.31" x2="193.92" y2="83.31" stroke="#333" stroke-width="1"/>
<line x1="189.92" y1="51.51" x2="193.92" y2="51.51" stroke="#333" stroke-width="1"/>
<rect x="201.69" y="178.84" width="15.53" height="11.16" fill="#616161" opacity="0.85"><title>Control: 0.276 ×10⁻³</title></rect>
<line x1="209.45" y1="181.15" x2="209.45" y2="176.23" stroke="#333" stroke-width="1"/>
<line x1="207.45" y1="181.15" x2="211.45" y2="181.15" stroke="#333" stroke-width="1"/>
<line x1="207.45" y1="176.23" x2="211.45" y2="176.23" stroke="#333" stroke-width="1"/>
<text x="201.7" y="204" text-anchor="end" font-size="9" fill="#2196F3" transform="rotate(-45,201.7,204)">Cognitive</text>
<rect x="228.53" y="69.37" width="15.53" height="120.63" fill="#2E7D32" opacity="0.85"><title>Partner Identity: 2.987 ×10⁻³</title></rect>
<line x1="236.30" y1="92.30" x2="236.30" y2="52.30" stroke="#333" stroke-width="1"/>
<line x1="234.30" y1="92.30" x2="238.30" y2="92.30" stroke="#333" stroke-width="1"/>
<line x1="234.30" y1="52.30" x2="238.30" y2="52.30" stroke="#333" stroke-width="1"/>
<rect x="246.06" y="177.37" width="15.53" height="12.63" fill="#616161" opacity="0.85"><title>Control: 0.313 ×10⁻³</title></rect>
<line x1="253.83" y1="179.58" x2="253.83" y2="175.96" stroke="#333" stroke-width="1"/>
<line x1="251.83" y1="179.58" x2="255.83" y2="179.58" stroke="#333" stroke-width="1"/>
<line x1="251.83" y1="175.96" x2="255.83" y2="175.96" stroke="#333" stroke-width="1"/>
<text x="246.1" y="204" text-anchor="end" font-size="9" fill="#2196F3" transform="rotate(-45,246.1,204)">Prediction</text>
<rect x="272.91" y="75.34" width="15.53" height="114.66" fill="#2E7D32" opacity="0.85"><title>Partner Identity: 2.839 ×10⁻³</title></rect>
<line x1="280.67" y1="100.41" x2="280.67" y2="59.97" stroke="#333" stroke-width="1"/>
<line x1="278.67" y1="100.41" x2="282.67" y2="100.41" stroke="#333" stroke-width="1"/>
<line x1="278.67" y1="59.97" x2="282.67" y2="59.97" stroke="#333" stroke-width="1"/>
<rect x="290.44" y="174.55" width="15.53" height="15.45" fill="#616161" opacity="0.85"><title>Control: 0.383 ×10⁻³</title></rect>
<line x1="298.20" y1="176.94" x2="298.20" y2="173.23" stroke="#333" stroke-width="1"/>
<line x1="296.20" y1="176.94" x2="300.20" y2="176.94" stroke="#333" stroke-width="1"/>
<line x1="296.20" y1="173.23" x2="300.20" y2="173.23" stroke="#333" stroke-width="1"/>
<text x="290.4" y="204" text-anchor="end" font-size="9" fill="#2196F3" transform="rotate(-45,290.4,204)">Intentions</text>
<rect x="317.28" y="85.93" width="15.53" height="104.07" fill="#2E7D32" opacity="0.85"><title>Partner Identity: 2.577 ×10⁻³</title></rect>
<line x1="325.05" y1="107.41" x2="325.05" y2="69.42" stroke="#333" stroke-width="1"/>
<line x1="323.05" y1="107.41" x2="327.05" y2="107.41" stroke="#333" stroke-width="1"/>
<line x1="323.05" y1="69.42" x2="327.05" y2="69.42" stroke="#333" stroke-width="1"/>
<rect x="334.81" y="174.71" width="15.53" height="15.29" fill="#616161" opacity="0.85"><title>Control: 0.379 ×10⁻³</title></rect>
<line x1="342.58" y1="177.07" x2="342.58" y2="173.52" stroke="#333" stroke-width="1"/>
<line x1="340.58" y1="177.07" x2="344.58" y2="177.07" stroke="#333" stroke-width="1"/>
<line x1="340.58" y1="173.52" x2="344.58" y2="173.52" stroke="#333" stroke-width="1"/>
<text x="334.8" y="204" text-anchor="end" font-size="9" fill="#2196F3" transform="rotate(-45,334.8,204)">Agency</text>
<rect x="361.66" y="88.19" width="15.53" height="101.81" fill="#2E7D32" opacity="0.85"><title>Partner Identity: 2.521 ×10⁻³</title></rect>
<line x1="369.42" y1="110.71" x2="369.42" y2="70.82" stroke="#333" stroke-width="1"/>
<line x1="367.42" y1="110.71" x2="371.42" y2="110.71" stroke="#333" stroke-width="1"/>
<line x1="367.42" y1="70.82" x2="371.42" y2="70.82" stroke="#333" stroke-width="1"/>
<rect x="379.19" y="179.62" width="15.53" height="10.38" fill="#616161" opacity="0.85"><title>Control: 0.257 ×10⁻³</title></rect>
<line x1="386.95" y1="181.69" x2="386.95" y2="177.17" stroke="#333" stroke-width="1"/>
<line x1="384.95" y1="181.69" x2="388.95" y2="181.69" stroke="#333" stroke-width="1"/>
<line x1="384.95" y1="177.17" x2="388.95" y2="177.17" stroke="#333" stroke-width="1"/>
<text x="379.2" y="204" text-anchor="end" font-size="9" fill="#2196F3" transform="rotate(-45,379.2,204)">Roles</text>
<rect x="406.03" y="104.88" width="15.53" height="85.12" fill="#2E7D32" opacity="0.85"><title>Partner Identity: 2.108 ×10⁻³</title></rect>
<line x1="413.80" y1="120.69" x2="413.80" y2="95.82" stroke="#333" stroke-width="1"/>
<line x1="411.80" y1="120.69" x2="415.80" y2="120.69" stroke="#333" stroke-width="1"/>
<line x1="411.80" y1="95.82" x2="415.80" y2="95.82" stroke="#333" stroke-width="1"/>
<rect x="423.56" y="179.22" width="15.53" height="10.78" fill="#616161" opacity="0.85"><title>Control: 0.267 ×10⁻³</title></rect>
<line x1="431.33" y1="181.11" x2="431.33" y2="177.83" stroke="#333" stroke-width="1"/>
<line x1="429.33" y1="181.11" x2="433.33" y2="181.11" stroke="#333" stroke-width="1"/>
<line x1="429.33" y1="177.83" x2="433.33" y2="177.83" stroke="#333" stroke-width="1"/>
<text x="423.6" y="204" text-anchor="end" font-size="9" fill="#2196F3" transform="rotate(-45,423.6,204)">Phenomenology</text>
<rect x="450.41" y="109.29" width="15.53" height="80.71" fill="#2E7D32" opacity="0.85"><title>Partner Identity: 1.999 ×10⁻³</title></rect>
<line x1="458.17" y1="123.27" x2="458.17" y2="98.39" stroke="#333" stroke-width="1"/>
<line x1="456.17" y1="123.27" x2="460.17" y2="123.27" stroke="#333" stroke-width="1"/>
<line x1="456.17" y1="98.39" x2="460.17" y2="98.39" stroke="#333" stroke-width="1"/>
<rect x="467.94" y="176.28" width="15.53" height="13.72" fill="#616161" opacity="0.85"><title>Control: 0.340 ×10⁻³</title></rect>
<line x1="475.70" y1="178.09" x2="475.70" y2="175.14" stroke="#333" stroke-width="1"/>
<line x1="473.70" y1="178.09" x2="477.70" y2="178.09" stroke="#333" stroke-width="1"/>
<line x1="473.70" y1="175.14" x2="477.70" y2="175.14" stroke="#333" stroke-width="1"/>
<text x="467.9" y="204" text-anchor="end" font-size="9" fill="#2196F3" transform="rotate(-45,467.9,204)">Emotions</text>
<rect x="494.78" y="118.49" width="15.53" height="71.51" fill="#2E7D32" opacity="0.85"><title>Partner Identity: 1.771 ×10⁻³</title></rect>
<line x1="502.55" y1="129.94" x2="502.55" y2="109.74" stroke="#333" stroke-width="1"/>
<line x1="500.55" y1="129.94" x2="504.55" y2="129.94" stroke="#333" stroke-width="1"/>
<line x1="500.55" y1="109.74" x2="504.55" y2="109.74" stroke="#333" stroke-width="1"/>
<rect x="512.31" y="178.91" width="15.53" height="11.09" fill="#616161" opacity="0.85"><title>Control: 0.275 ×10⁻³</title></rect>
<line x1="520.08" y1="180.56" x2="520.08" y2="177.53" stroke="#333" stroke-width="1"/>
<line x1="518.08" y1="180.56" x2="522.08" y2="180.56" stroke="#333" stroke-width="1"/>
<line x1="518.08" y1="177.53" x2="522.08" y2="177.53" stroke="#333" stroke-width="1"/>
<text x="512.3" y="204" text-anchor="end" font-size="9" fill="#2196F3" transform="rotate(-45,512.3,204)">Embodiment</text>
<rect x="539.16" y="144.24" width="15.53" height="45.76" fill="#2E7D32" opacity="0.85"><title>Partner Identity: 1.133 ×10⁻³</title></rect>
<line x1="546.92" y1="153.48" x2="546.92" y2="137.35" stroke="#333" stroke-width="1"/>
<line x1="544.92" y1="153.48" x2="548.92" y2="153.48" stroke="#333" stroke-width="1"/>
<line x1="544.92" y1="137.35" x2="548.92" y2="137.35" stroke="#333" stroke-width="1"/>
<rect x="556.69" y="181.38" width="15.53" height="8.62" fill="#616161" opacity="0.85"><title>Control: 0.214 ×10⁻³</title></rect>
<line x1="564.45" y1="182.40" x2="564.45" y2="180.05" stroke="#333" stroke-width="1"/>
<line x1="562.45" y1="182.40" x2="566.45" y2="182.40" stroke="#333" stroke-width="1"/>
<line x1="562.45" y1="180.05" x2="566.45" y2="180.05" stroke="#333" stroke-width="1"/>
<text x="556.7" y="204" text-anchor="end" font-size="9" fill="#FF9800" transform="rotate(-45,556.7,204)">Expertise</text>
<rect x="583.53" y="176.69" width="15.53" height="13.31" fill="#2E7D32" opacity="0.85"><title>Partner Identity: 0.330 ×10⁻³</title></rect>
<line x1="591.30" y1="181.23" x2="591.30" y2="169.35" stroke="#333" stroke-width="1"/>
<line x1="589.30" y1="181.23" x2="593.30" y2="181.23" stroke="#333" stroke-width="1"/>
<line x1="589.30" y1="169.35" x2="593.30" y2="169.35" stroke="#333" stroke-width="1"/>
<rect x="601.06" y="180.44" width="15.53" height="9.56" fill="#616161" opacity="0.85"><title>Control: 0.237 ×10⁻³</title></rect>
<line x1="608.83" y1="183.05" x2="608.83" y2="178.35" stroke="#333" stroke-width="1"/>
<line x1="606.83" y1="183.05" x2="610.83" y2="183.05" stroke="#333" stroke-width="1"/>
<line x1="606.83" y1="178.35" x2="610.83" y2="178.35" stroke="#333" stroke-width="1"/>
<text x="601.1" y="204" text-anchor="end" font-size="9" fill="#FF9800" transform="rotate(-45,601.1,204)">Formality</text>
<rect x="627.91" y="179.10" width="15.53" height="10.90" fill="#2E7D32" opacity="0.85"><title>Partner Identity: 0.270 ×10⁻³</title></rect>
<line x1="635.67" y1="183.45" x2="635.67" y2="169.82" stroke="#333" stroke-width="1"/>
<line x1="633.67" y1="183.45" x2="637.67" y2="183.45" stroke="#333" stroke-width="1"/>
<line x1="633.67" y1="169.82" x2="637.67" y2="169.82" stroke="#333" stroke-width="1"/>
<rect x="645.44" y="181.81" width="15.53" height="8.19" fill="#616161" opacity="0.85"><title>Control: 0.203 ×10⁻³</title></rect>
<line x1="653.20" y1="184.10" x2="653.20" y2="178.54" stroke="#333" stroke-width="1"/>
<line x1="651.20" y1="184.10" x2="655.20" y2="184.10" stroke="#333" stroke-width="1"/>
<line x1="651.20" y1="178.54" x2="655.20" y2="178.54" stroke="#333" stroke-width="1"/>
<text x="645.4" y="204" text-anchor="end" font-size="9" fill="#FF9800" transform="rotate(-45,645.4,204)">Helpfulness</text>
<rect x="672.28" y="71.30" width="15.53" height="118.70" fill="#2E7D32" opacity="0.85"><title>Partner Identity: 2.939 ×10⁻³</title></rect>
<line x1="680.05" y1="102.24" x2="680.05" y2="25.50" stroke="#333" stroke-width="1"/>
<line x1="678.05" y1="102.24" x2="682.05" y2="102.24" stroke="#333" stroke-width="1"/>
<line x1="678.05" y1="25.50" x2="682.05" y2="25.50" stroke="#333" stroke-width="1"/>
<rect x="689.81" y="186.92" width="15.53" height="3.08" fill="#616161" opacity="0.85"><title>Control: 0.076 ×10⁻³</title></rect>
<line x1="697.58" y1="187.10" x2="697.58" y2="186.40" stroke="#333" stroke-width="1"/>
<line x1="695.58" y1="187.10" x2="699.58" y2="187.10" stroke="#333" stroke-width="1"/>
<line x1="695.58" y1="186.40" x2="699.58" y2="186.40" stroke="#333" stroke-width="1"/>
<text x="689.8" y="204" text-anchor="end" font-size="9" fill="#00BCD4" transform="rotate(-45,689.8,204)">SysPrompt</text>
<line x1="0" y1="190" x2="710" y2="190" stroke="#333"/>
<line x1="0" y1="0" x2="0" y2="190" stroke="#333"/>
</g>
<rect x="70" y="320" width="10" height="10" fill="#2E7D32"/>
<text x="84" y="328" font-size="9" fill="#333">Partner Identity</text>
<rect x="210" y="320" width="10" height="10" fill="#616161"/>
<text x="224" y="328" font-size="9" fill="#333">Control</text>
</svg>