<svg viewBox="0 0 800 340" xmlns="http://www.w3.org/2000/svg" style="width:100%;max-width:800px;height:auto;font-family:Arial,sans-serif;">
<rect width="800" height="340" fill="white"/>

<g transform="translate(70,30)">
<line x1="0" y1="190.0" x2="710" y2="190.0" stroke="#eee" stroke-width="1"/>
<text x="-8" y="194.0" text-anchor="end" font-size="10" fill="#666">0.00</text>
<line x1="0" y1="152.0" x2="710" y2="152.0" stroke="#eee" stroke-width="1"/>
<text x="-8" y="156.0" text-anchor="end" font-size="10" fill="#666">1.65</text>
<line x1="0" y1="114.0" x2="710" y2="114.0" stroke="#eee" stroke-width="1"/>
<text x="-8" y="118.0" text-anchor="end" font-size="10" fill="#666">3.30</text>
<line x1="0" y1="76.0" x2="710" y2="76.0" stroke="#eee" stroke-width="1"/>
<text x="-8" y="80.0" text-anchor="end" font-size="10" fill="#666">4.95</text>
<line x1="0" y1="38.0" x2="710" y2="38.0" stroke="#eee" stroke-width="1"/>
<text x="-8" y="42.0" text-anchor="end" font-size="10" fill="#666">6.60</text>
<line x1="0" y1="0.0" x2="710" y2="0.0" stroke="#eee" stroke-width="1"/>
<text x="-8" y="4.0" text-anchor="end" font-size="10" fill="#666">8.25</text>
<text x="-50" y="95.0" text-anchor="middle" font-size="11" fill="#333" transform="rotate(-90,-50,95.0)">Mean R² (×10⁻³)</text>
<line x1="88.75" y1="0" x2="88.75" y2="190" stroke="#ddd" stroke-width="1" stroke-dasharray="4,3"/>
<rect x="6.66" y="183.71" width="15.53" height="6.29" fill="#81C784" opacity="0.85"><title>Partner Identity: 0.273 ×10⁻³</title></rect>
<line x1="14.42" y1="184.46" x2="14.42" y2="182.92" stroke="#333" stroke-width="1"/>
<line x1="12.42" y1="184.46" x2="16.42" y2="184.46" stroke="#333" stroke-width="1"/>
<line x1="12.42" y1="182.92" x2="16.42" y2="182.92" stroke="#333" stroke-width="1"/>
<rect x="24.19" y="183.90" width="15.53" height="6.10" fill="#BDBDBD" opacity="0.85"><title>Control: 0.265 ×10⁻³</title></rect>
<line x1="31.95" y1="184.69" x2="31.95" y2="182.93" stroke="#333" stroke-width="1"/>
<line x1="29.95" y1="184.69" x2="33.95" y2="184.69" stroke="#333" stroke-width="1"/>
<line x1="29.95" y1="182.93" x2="33.95" y2="182.93" stroke="#333" stroke-width="1"/>
<text x="24.2" y="204" text-anchor="end" font-size="9" fill="#9E9E9E" transform="rotate(-45,24.2,204)">Biological</text>
<rect x="51.03" y="183.73" width="15.53" height="6.27" fill="#81C784" opacity="0.85"><title>Partner Identity: 0.272 ×10⁻³</title></rect>
<line x1="58.80" y1="185.86" x2="58.80" y2="181.95" stroke="#333" stroke-width="1"/>
<line x1="56.80" y1="185.86" x2="60.80" y2="185.86" stroke="#333" stroke-width="1"/>
<line x1="56.80" y1="181.95" x2="60.80" y2="181.95" stroke="#333" stroke-width="1"/>
<rect x="68.56" y="179.06" width="15.53" height="10.94" fill="#BDBDBD" opacity="0.85"><title>Control: 0.475 ×10⁻³</title></rect>
<line x1="76.33" y1="183.38" x2="76.33" y2="176.57" stroke="#333" stroke-width="1"/>
<line x1="74.33" y1="183.38" x2="78.33" y2="183.38" stroke="#333" stroke-width="1"/>
<line x1="74.33" y1="176.57" x2="78.33" y2="176.57" stroke="#333" stroke-width="1"/>
<text x="68.6" y="204" text-anchor="end" font-size="9" fill="#9E9E9E" transform="rotate(-45,68.6,204)">Shapes</text>
<rect x="95.41" y="178.65" width="15.53" height="11.35" fill="#81C784" opacity="0.85"><title>Partner Identity: 0.493 ×10⁻³</title></rect>
<line x1="103.17" y1="181.20" x2="103.17" y2="176.62" stroke="#333" stroke-width="1"/>
<line x1="101.17" y1="181.20" x2="105.17" y2="181.20" stroke="#333" stroke-width="1"/>
<line x1="101.17" y1="176.62" x2="105.17" y2="176.62" stroke="#333" stroke-width="1"/>
<rect x="112.94" y="177.00" width="15.53" height="13.00" fill="#BDBDBD" opacity="0.85"><title>Control: 0.564 ×10⁻³</title></rect>
<line x1="120.70" y1="179.66" x2="120.70" y2="174.56" stroke="#333" stroke-width="1"/>
<line x1="118.70" y1="179.66" x2="122.70" y2="179.66" stroke="#333" stroke-width="1"/>
<line x1="118.70" y1="174.56" x2="122.70" y2="174.56" stroke="#333" stroke-width="1"/>
<text x="112.9" y="204" text-anchor="end" font-size="9" fill="#2196F3" transform="rotate(-45,112.9,204)">Social</text>
<rect x="139.78" y="180.76" width="15.53" height="9.24" fill="#81C784" opacity="0.85"><title>Partner Identity: 0.401 ×10⁻³</title></rect>
<line x1="147.55" y1="182.37" x2="147.55" y2="179.44" stroke="#333" stroke-width="1"/>
<line x1="145.55" y1="182.37" x2="149.55" y2="182.37" stroke="#333" stroke-width="1"/>
<line x1="145.55" y1="179.44" x2="149.55" y2="179.44" stroke="#333" stroke-width="1"/>
<rect x="157.31" y="178.56" width="15.53" height="11.44" fill="#BDBDBD" opacity="0.85"><title>Control: 0.497 ×10⁻³</title></rect>
<line x1="165.08" y1="180.52" x2="165.08" y2="177.15" stroke="#333" stroke-width="1"/>
<line x1="163.08" y1="180.52" x2="167.08" y2="180.52" stroke="#333" stroke-width="1"/>
<line x1="163.08" y1="177.15" x2="167.08" y2="177.15" stroke="#333" stroke-width="1"/>
<text x="157.3" y="204" text-anchor="end" font-size="9" fill="#2196F3" transform="rotate(-45,157.3,204)">Attention</text>
<rect x="184.16" y="182.25" width="15.53" height="7.75" fill="#81C784" opacity="0.85"><title>Partner Identity: 0.336 ×10⁻³</title></rect>
<line x1="191.92" y1="184.36" x2="191.92" y2="179.32" stroke="#333" stroke-width="1"/>
<line x1="189.92" y1="184.36" x2="193.92" y2="184.36" stroke="#333" stroke-width="1"/>
<line x1="189.92" y1="179.32" x2="193.92" y2="179.32" stroke="#333" stroke-width="1"/>
<rect x="201.69" y="179.32" width="15.53" height="10.68" fill="#BDBDBD" opacity="0.85"><title>Control: 0.464 ×10⁻³</title></rect>
<line x1="209.45" y1="181.62" x2="209.45" y2="176.46" stroke="#333" stroke-width="1"/>
<line x1="207.45" y1="181.62" x2="211.45" y2="181.62" stroke="#333" stroke-width="1"/>
<line x1="207.45" y1="176.46" x2="211.45" y2="176.46" stroke="#333" stroke-width="1"/>
<text x="201.7" y="204" text-anchor="end" font-size="9" fill="#2196F3" transform="rotate(-45,201.7,204)">Prediction</text>
<rect x="228.53" y="183.51" width="15.53" height="6.49" fill="#81C784" opacity="0.85"><title>Partner Identity: 0.282 ×10⁻³</title></rect>
<line x1="236.30" y1="184.40" x2="236.30" y2="182.28" stroke="#333" stroke-width="1"/>
<line x1="234.30" y1="184.40" x2="238.30" y2="184.40" stroke="#333" stroke-width="1"/>
<line x1="234.30" y1="182.28" x2="238.30" y2="182.28" stroke="#333" stroke-width="1"/>
<rect x="246.06" y="179.41" width="15.53" height="10.59" fill="#BDBDBD" opacity="0.85"><title>Control: 0.459 ×10⁻³</title></rect>
<line x1="253.83" y1="181.19" x2="253.83" y2="177.71" stroke="#333" stroke-width="1"/>
<line x1="251.83" y1="181.19" x2="255.83" y2="181.19" stroke="#333" stroke-width="1"/>
<line x1="251.83" y1="177.71" x2="255.83" y2="177.71" stroke="#333" stroke-width="1"/>
<text x="246.1" y="204" text-anchor="end" font-size="9" fill="#2196F3" transform="rotate(-45,246.1,204)">Roles</text>
<rect x="272.91" y="183.76" width="15.53" height="6.24" fill="#81C784" opacity="0.85"><title>Partner Identity: 0.271 ×10⁻³</title></rect>
<line x1="280.67" y1="184.77" x2="280.67" y2="182.32" stroke="#333" stroke-width="1"/>
<line x1="278.67" y1="184.77" x2="282.67" y2="184.77" stroke="#333" stroke-width="1"/>
<line x1="278.67" y1="182.32" x2="282.67" y2="182.32" stroke="#333" stroke-width="1"/>
<rect x="290.44" y="179.77" width="15.53" height="10.23" fill="#BDBDBD" opacity="0.85"><title>Control: 0.444 ×10⁻³</title></rect>
<line x1="298.20" y1="181.61" x2="298.20" y2="177.89" stroke="#333" stroke-width="1"/>
<line x1="296.20" y1="181.61" x2="300.20" y2="181.61" stroke="#333" stroke-width="1"/>
<line x1="296.20" y1="177.89" x2="300.20" y2="177.89" stroke="#333" stroke-width="1"/>
<text x="290.4" y="204" text-anchor="end" font-size="9" fill="#2196F3" transform="rotate(-45,290.4,204)">Agency</text>
<rect x="317.28" y="180.72" width="15.53" height="9.28" fill="#81C784" opacity="0.85"><title>Partner Identity: 0.403 ×10⁻³</title></rect>
<line x1="325.05" y1="182.10" x2="325.05" y2="179.62" stroke="#333" stroke-width="1"/>
<line x1="323.05" y1="182.10" x2="327.05" y2="182.10" stroke="#333" stroke-width="1"/>
<line x1="323.05" y1="179.62" x2="327.05" y2="179.62" stroke="#333" stroke-width="1"/>
<rect x="334.81" y="177.91" width="15.53" height="12.09" fill="#BDBDBD" opacity="0.85"><title>Control: 0.525 ×10⁻³</title></rect>
<line x1="342.58" y1="180.01" x2="342.58" y2="176.67" stroke="#333" stroke-width="1"/>
<line x1="340.58" y1="180.01" x2="344.58" y2="180.01" stroke="#333" stroke-width="1"/>
<line x1="340.58" y1="176.67" x2="344.58" y2="176.67" stroke="#333" stroke-width="1"/>
<text x="334.8" y="204" text-anchor="end" font-size="9" fill="#2196F3" transform="rotate(-45,334.8,204)">Cognitive</text>
<rect x="361.66" y="183.04" width="15.53" height="6.96" fill="#81C784" opacity="0.85"><title>Partner Identity: 0.302 ×10⁻³</title></rect>
<line x1="369.42" y1="184.44" x2="369.42" y2="181.72" stroke="#333" stroke-width="1"/>
<line x1="367.42" y1="184.44" x2="371.42" y2="184.44" stroke="#333" stroke-width="1"/>
<line x1="367.42" y1="181.72" x2="371.42" y2="181.72" stroke="#333" stroke-width="1"/>
<rect x="379.19" y="177.10" width="15.53" height="12.90" fill="#BDBDBD" opacity="0.85"><title>Control: 0.560 ×10⁻³</title></rect>
<line x1="386.95" y1="179.98" x2="386.95" y2="175.01" stroke="#333" stroke-width="1"/>
<line x1="384.95" y1="179.98" x2="388.95" y2="179.98" stroke="#333" stroke-width="1"/>
<line x1="384.95" y1="175.01" x2="388.95" y2="175.01" stroke="#333" stroke-width="1"/>
<text x="379.2" y="204" text-anchor="end" font-size="9" fill="#2196F3" transform="rotate(-45,379.2,204)">Intentions</text>
<rect x="406.03" y="184.30" width="15.53" height="5.70" fill="#81C784" opacity="0.85"><title>Partner Identity: 0.247 ×10⁻³</title></rect>
<line x1="413.80" y1="185.12" x2="413.80" y2="183.32" stroke="#333" stroke-width="1"/>
<line x1="411.80" y1="185.12" x2="415.80" y2="185.12" stroke="#333" stroke-width="1"/>
<line x1="411.80" y1="183.32" x2="415.80" y2="183.32" stroke="#333" stroke-width="1"/>
<rect x="423.56" y="181.57" width="15.53" height="8.43" fill="#BDBDBD" opacity="0.85"><title>Control: 0.366 ×10⁻³</title></rect>
<line x1="431.33" y1="183.04" x2="431.33" y2="180.10" stroke="#333" stroke-width="1"/>
<line x1="429.33" y1="183.04" x2="433.33" y2="183.04" stroke="#333" stroke-width="1"/>
<line x1="429.33" y1="180.10" x2="433.33" y2="180.10" stroke="#333" stroke-width="1"/>
<text x="423.6" y="204" text-anchor="end" font-size="9" fill="#2196F3" transform="rotate(-45,423.6,204)">Emotions</text>
<rect x="450.41" y="184.25" width="15.53" height="5.75" fill="#81C784" opacity="0.85"><title>Partner Identity: 0.250 ×10⁻³</title></rect>
<line x1="458.17" y1="185.09" x2="458.17" y2="183.37" stroke="#333" stroke-width="1"/>
<line x1="456.17" y1="185.09" x2="460.17" y2="185.09" stroke="#333" stroke-width="1"/>
<line x1="456.17" y1="183.37" x2="460.17" y2="183.37" stroke="#333" stroke-width="1"/>
<rect x="467.94" y="181.95" width="15.53" height="8.05" fill="#BDBDBD" opacity="0.85"><title>Control: 0.350 ×10⁻³</title></rect>
<line x1="475.70" y1="183.20" x2="475.70" y2="180.68" stroke="#333" stroke-width="1"/>
<line x1="473.70" y1="183.20" x2="477.70" y2="183.20" stroke="#333" stroke-width="1"/>
<line x1="473.70" y1="180.68" x2="477.70" y2="180.68" stroke="#333" stroke-width="1"/>
<text x="467.9" y="204" text-anchor="end" font-size="9" fill="#2196F3" transform="rotate(-45,467.9,204)">Embodiment</text>
<rect x="494.78" y="184.17" width="15.53" height="5.83" fill="#81C784" opacity="0.85"><title>Partner Identity: 0.253 ×10⁻³</title></rect>
<line x1="502.55" y1="184.96" x2="502.55" y2="183.16" stroke="#333" stroke-width="1"/>
<line x1="500.55" y1="184.96" x2="504.55" y2="184.96" stroke="#333" stroke-width="1"/>
<line x1="500.55" y1="183.16" x2="504.55" y2="183.16" stroke="#333" stroke-width="1"/>
<rect x="512.31" y="181.34" width="15.53" height="8.66" fill="#BDBDBD" opacity="0.85"><title>Control: 0.376 ×10⁻³</title></rect>
<line x1="520.08" y1="183.06" x2="520.08" y2="179.55" stroke="#333" stroke-width="1"/>
<line x1="518.08" y1="183.06" x2="522.08" y2="183.06" stroke="#333" stroke-width="1"/>
<line x1="518.08" y1="179.55" x2="522.08" y2="179.55" stroke="#333" stroke-width="1"/>
<text x="512.3" y="204" text-anchor="end" font-size="9" fill="#2196F3" transform="rotate(-45,512.3,204)">Phenomenology</text>
<rect x="539.16" y="181.35" width="15.53" height="8.65" fill="#81C784" opacity="0.85"><title>Partner Identity: 0.375 ×10⁻³</title></rect>
<line x1="546.92" y1="184.39" x2="546.92" y2="179.77" stroke="#333" stroke-width="1"/>
<line x1="544.92" y1="184.39" x2="548.92" y2="184.39" stroke="#333" stroke-width="1"/>
<line x1="544.92" y1="179.77" x2="548.92" y2="179.77" stroke="#333" stroke-width="1"/>
<rect x="556.69" y="179.93" width="15.53" height="10.07" fill="#BDBDBD" opacity="0.85"><title>Control: 0.437 ×10⁻³</title></rect>
<line x1="564.45" y1="183.97" x2="564.45" y2="178.15" stroke="#333" stroke-width="1"/>
<line x1="562.45" y1="183.97" x2="566.45" y2="183.97" stroke="#333" stroke-width="1"/>
<line x1="562.45" y1="178.15" x2="566.45" y2="178.15" stroke="#333" stroke-width="1"/>
<text x="556.7" y="204" text-anchor="end" font-size="9" fill="#FF9800" transform="rotate(-45,556.7,204)">Helpfulness</text>
<rect x="583.53" y="182.40" width="15.53" height="7.60" fill="#81C784" opacity="0.85"><title>Partner Identity: 0.330 ×10⁻³</title></rect>
<line x1="591.30" y1="183.42" x2="591.30" y2="181.04" stroke="#333" stroke-width="1"/>
<line x1="589.30" y1="183.42" x2="593.30" y2="183.42" stroke="#333" stroke-width="1"/>
<line x1="589.30" y1="181.04" x2="593.30" y2="181.04" stroke="#333" stroke-width="1"/>
<rect x="601.06" y="179.88" width="15.53" height="10.12" fill="#BDBDBD" opacity="0.85"><title>Control: 0.439 ×10⁻³</title></rect>
<line x1="608.83" y1="181.12" x2="608.83" y2="178.70" stroke="#333" stroke-width="1"/>
<line x1="606.83" y1="181.12" x2="610.83" y2="181.12" stroke="#333" stroke-width="1"/>
<line x1="606.83" y1="178.70" x2="610.83" y2="178.70" stroke="#333" stroke-width="1"/>
<text x="601.1" y="204" text-anchor="end" font-size="9" fill="#FF9800" transform="rotate(-45,601.1,204)">Expertise</text>
<rect x="627.91" y="182.59" width="15.53" height="7.41" fill="#81C784" opacity="0.85"><title>Partner Identity: 0.322 ×10⁻³</title></rect>
<line x1="635.67" y1="184.71" x2="635.67" y2="180.87" stroke="#333" stroke-width="1"/>
<line x1="633.67" y1="184.71" x2="637.67" y2="184.71" stroke="#333" stroke-width="1"/>
<line x1="633.67" y1="180.87" x2="637.67" y2="180.87" stroke="#333" stroke-width="1"/>
<rect x="645.44" y="184.50" width="15.53" height="5.50" fill="#BDBDBD" opacity="0.85"><title>Control: 0.239 ×10⁻³</title></rect>
<line x1="653.20" y1="186.04" x2="653.20" y2="182.42" stroke="#333" stroke-width="1"/>
<line x1="651.20" y1="186.04" x2="655.20" y2="186.04" stroke="#333" stroke-width="1"/>
<line x1="651.20" y1="182.42" x2="655.20" y2="182.42" stroke="#333" stroke-width="1"/>
<text x="645.4" y="204" text-anchor="end" font-size="9" fill="#FF9800" transform="rotate(-45,645.4,204)">Formality</text>
<rect x="672.28" y="175.29" width="15.53" height="14.71" fill="#81C784" opacity="0.85"><title>Partner Identity: 0.638 ×10⁻³</title></rect>
<line x1="680.05" y1="177.37" x2="680.05" y2="172.89" stroke="#333" stroke-width="1"/>
<line x1="678.05" y1="177.37" x2="682.05" y2="177.37" stroke="#333" stroke-width="1"/>
<line x1="678.05" y1="172.89" x2="682.05" y2="172.89" stroke="#333" stroke-width="1"/>
<rect x="689.81" y="176.90" width="15.53" height="13.10" fill="#BDBDBD" opacity="0.85"><title>Control: 0.569 ×10⁻³</title></rect>
<line x1="697.58" y1="178.10" x2="697.58" y2="175.86" stroke="#333" stroke-width="1"/>
<line x1="695.58" y1="178.10" x2="699.58" y2="178.10" stroke="#333" stroke-width="1"/>
<line x1="695.58" y1="175.86" x2="699.58" y2="175.86" stroke="#333" stroke-width="1"/>
<text x="689.8" y="204" text-anchor="end" font-size="9" fill="#00BCD4" transform="rotate(-45,689.8,204)">SysPrompt</text>
<line x1="0" y1="190" x2="710" y2="190" stroke="#333"/>
<line x1="0" y1="0" x2="0" y2="190" stroke="#333"/>
</g>
<rect x="70" y="320" width="10" height="10" fill="#81C784"/>
<text x="84" y="328" font-size="9" fill="#333">Partner Identity</text>
<rect x="210" y="320" width="10" height="10" fill="#BDBDBD"/>
<text x="224" y="328" font-size="9" fill="#333">Control</text>
</svg>