<svg viewBox="0 0 800 340" xmlns="http://www.w3.org/2000/svg" style="width:100%;max-width:800px;height:auto;font-family:Arial,sans-serif;">
<rect width="800" height="340" fill="white"/>

<g transform="translate(70,30)">
<line x1="0" y1="190.0" x2="710" y2="190.0" stroke="#eee" stroke-width="1"/>
<text x="-8" y="194.0" text-anchor="end" font-size="10" fill="#666">0.00</text>
<line x1="0" y1="152.0" x2="710" y2="152.0" stroke="#eee" stroke-width="1"/>
<text x="-8" y="156.0" text-anchor="end" font-size="10" fill="#666">1.65</text>
<line x1="0" y1="114.0" x2="710" y2="114.0" stroke="#eee" stroke-width="1"/>
<text x="-8" y="118.0" text-anchor="end" font-size="10" fill="#666">3.30</text>
<line x1="0" y1="76.0" x2="710" y2="76.0" stroke="#eee" stroke-width="1"/>
<text x="-8" y="80.0" text-anchor="end" font-size="10" fill="#666">4.95</text>
<line x1="0" y1="38.0" x2="710" y2="38.0" stroke="#eee" stroke-width="1"/>
<text x="-8" y="42.0" text-anchor="end" font-size="10" fill="#666">6.60</text>
<line x1="0" y1="0.0" x2="710" y2="0.0" stroke="#eee" stroke-width="1"/>
<text x="-8" y="4.0" text-anchor="end" font-size="10" fill="#666">8.25</text>
<text x="-50" y="95.0" text-anchor="middle" font-size="11" fill="#333" transform="rotate(-90,-50,95.0)">Mean R² (×10⁻³)</text>
<line x1="88.75" y1="0" x2="88.75" y2="190" stroke="#ddd" stroke-width="1" stroke-dasharray="4,3"/>
<rect x="6.66" y="142.58" width="15.53" height="47.42" fill="#2E7D32" opacity="0.85"><title>Partner Identity: 2.058 ×10⁻³</title></rect>
<line x1="14.42" y1="149.13" x2="14.42" y2="138.76" stroke="#333" stroke-width="1"/>
<line x1="12.42" y1="149.13" x2="16.42" y2="149.13" stroke="#333" stroke-width="1"/>
<line x1="12.42" y1="138.76" x2="16.42" y2="138.76" stroke="#333" stroke-width="1"/>
<rect x="24.19" y="95.89" width="15.53" height="94.11" fill="#616161" opacity="0.85"><title>Control: 4.084 ×10⁻³</title></rect>
<line x1="31.95" y1="108.74" x2="31.95" y2="87.75" stroke="#333" stroke-width="1"/>
<line x1="29.95" y1="108.74" x2="33.95" y2="108.74" stroke="#333" stroke-width="1"/>
<line x1="29.95" y1="87.75" x2="33.95" y2="87.75" stroke="#333" stroke-width="1"/>
<text x="24.2" y="204" text-anchor="end" font-size="9" fill="#9E9E9E" transform="rotate(-45,24.2,204)">Biological</text>
<rect x="51.03" y="178.02" width="15.53" height="11.98" fill="#2E7D32" opacity="0.85"><title>Partner Identity: 0.520 ×10⁻³</title></rect>
<line x1="58.80" y1="182.67" x2="58.80" y2="174.07" stroke="#333" stroke-width="1"/>
<line x1="56.80" y1="182.67" x2="60.80" y2="182.67" stroke="#333" stroke-width="1"/>
<line x1="56.80" y1="174.07" x2="60.80" y2="174.07" stroke="#333" stroke-width="1"/>
<rect x="68.56" y="175.24" width="15.53" height="14.76" fill="#616161" opacity="0.85"><title>Control: 0.641 ×10⁻³</title></rect>
<line x1="76.33" y1="182.45" x2="76.33" y2="165.64" stroke="#333" stroke-width="1"/>
<line x1="74.33" y1="182.45" x2="78.33" y2="182.45" stroke="#333" stroke-width="1"/>
<line x1="74.33" y1="165.64" x2="78.33" y2="165.64" stroke="#333" stroke-width="1"/>
<text x="68.6" y="204" text-anchor="end" font-size="9" fill="#9E9E9E" transform="rotate(-45,68.6,204)">Shapes</text>
<rect x="95.41" y="105.82" width="15.53" height="84.18" fill="#2E7D32" opacity="0.85"><title>Partner Identity: 3.654 ×10⁻³</title></rect>
<line x1="103.17" y1="118.83" x2="103.17" y2="100.44" stroke="#333" stroke-width="1"/>
<line x1="101.17" y1="118.83" x2="105.17" y2="118.83" stroke="#333" stroke-width="1"/>
<line x1="101.17" y1="100.44" x2="105.17" y2="100.44" stroke="#333" stroke-width="1"/>
<rect x="112.94" y="56.07" width="15.53" height="133.93" fill="#616161" opacity="0.85"><title>Control: 5.813 ×10⁻³</title></rect>
<line x1="120.70" y1="79.15" x2="120.70" y2="43.20" stroke="#333" stroke-width="1"/>
<line x1="118.70" y1="79.15" x2="122.70" y2="79.15" stroke="#333" stroke-width="1"/>
<line x1="118.70" y1="43.20" x2="122.70" y2="43.20" stroke="#333" stroke-width="1"/>
<text x="112.9" y="204" text-anchor="end" font-size="9" fill="#2196F3" transform="rotate(-45,112.9,204)">Social</text>
<rect x="139.78" y="104.88" width="15.53" height="85.12" fill="#2E7D32" opacity="0.85"><title>Partner Identity: 3.695 ×10⁻³</title></rect>
<line x1="147.55" y1="119.00" x2="147.55" y2="97.87" stroke="#333" stroke-width="1"/>
<line x1="145.55" y1="119.00" x2="149.55" y2="119.00" stroke="#333" stroke-width="1"/>
<line x1="145.55" y1="97.87" x2="149.55" y2="97.87" stroke="#333" stroke-width="1"/>
<rect x="157.31" y="72.33" width="15.53" height="117.67" fill="#616161" opacity="0.85"><title>Control: 5.107 ×10⁻³</title></rect>
<line x1="165.08" y1="92.37" x2="165.08" y2="60.13" stroke="#333" stroke-width="1"/>
<line x1="163.08" y1="92.37" x2="167.08" y2="92.37" stroke="#333" stroke-width="1"/>
<line x1="163.08" y1="60.13" x2="167.08" y2="60.13" stroke="#333" stroke-width="1"/>
<text x="157.3" y="204" text-anchor="end" font-size="9" fill="#2196F3" transform="rotate(-45,157.3,204)">Attention</text>
<rect x="184.16" y="104.91" width="15.53" height="85.09" fill="#2E7D32" opacity="0.85"><title>Partner Identity: 3.693 ×10⁻³</title></rect>
<line x1="191.92" y1="118.75" x2="191.92" y2="98.60" stroke="#333" stroke-width="1"/>
<line x1="189.92" y1="118.75" x2="193.92" y2="118.75" stroke="#333" stroke-width="1"/>
<line x1="189.92" y1="98.60" x2="193.92" y2="98.60" stroke="#333" stroke-width="1"/>
<rect x="201.69" y="60.70" width="15.53" height="129.30" fill="#616161" opacity="0.85"><title>Control: 5.612 ×10⁻³</title></rect>
<line x1="209.45" y1="82.94" x2="209.45" y2="47.31" stroke="#333" stroke-width="1"/>
<line x1="207.45" y1="82.94" x2="211.45" y2="82.94" stroke="#333" stroke-width="1"/>
<line x1="207.45" y1="47.31" x2="211.45" y2="47.31" stroke="#333" stroke-width="1"/>
<text x="201.7" y="204" text-anchor="end" font-size="9" fill="#2196F3" transform="rotate(-45,201.7,204)">Prediction</text>
<rect x="228.53" y="109.96" width="15.53" height="80.04" fill="#2E7D32" opacity="0.85"><title>Partner Identity: 3.474 ×10⁻³</title></rect>
<line x1="236.30" y1="127.62" x2="236.30" y2="100.72" stroke="#333" stroke-width="1"/>
<line x1="234.30" y1="127.62" x2="238.30" y2="127.62" stroke="#333" stroke-width="1"/>
<line x1="234.30" y1="100.72" x2="238.30" y2="100.72" stroke="#333" stroke-width="1"/>
<rect x="246.06" y="43.31" width="15.53" height="146.69" fill="#616161" opacity="0.85"><title>Control: 6.367 ×10⁻³</title></rect>
<line x1="253.83" y1="75.36" x2="253.83" y2="25.50" stroke="#333" stroke-width="1"/>
<line x1="251.83" y1="75.36" x2="255.83" y2="75.36" stroke="#333" stroke-width="1"/>
<line x1="251.83" y1="25.50" x2="255.83" y2="25.50" stroke="#333" stroke-width="1"/>
<text x="246.1" y="204" text-anchor="end" font-size="9" fill="#2196F3" transform="rotate(-45,246.1,204)">Roles</text>
<rect x="272.91" y="113.76" width="15.53" height="76.24" fill="#2E7D32" opacity="0.85"><title>Partner Identity: 3.309 ×10⁻³</title></rect>
<line x1="280.67" y1="125.17" x2="280.67" y2="109.32" stroke="#333" stroke-width="1"/>
<line x1="278.67" y1="125.17" x2="282.67" y2="125.17" stroke="#333" stroke-width="1"/>
<line x1="278.67" y1="109.32" x2="282.67" y2="109.32" stroke="#333" stroke-width="1"/>
<rect x="290.44" y="68.96" width="15.53" height="121.04" fill="#616161" opacity="0.85"><title>Control: 5.253 ×10⁻³</title></rect>
<line x1="298.20" y1="87.69" x2="298.20" y2="60.74" stroke="#333" stroke-width="1"/>
<line x1="296.20" y1="87.69" x2="300.20" y2="87.69" stroke="#333" stroke-width="1"/>
<line x1="296.20" y1="60.74" x2="300.20" y2="60.74" stroke="#333" stroke-width="1"/>
<text x="290.4" y="204" text-anchor="end" font-size="9" fill="#2196F3" transform="rotate(-45,290.4,204)">Agency</text>
<rect x="317.28" y="118.57" width="15.53" height="71.43" fill="#2E7D32" opacity="0.85"><title>Partner Identity: 3.100 ×10⁻³</title></rect>
<line x1="325.05" y1="130.77" x2="325.05" y2="109.86" stroke="#333" stroke-width="1"/>
<line x1="323.05" y1="130.77" x2="327.05" y2="130.77" stroke="#333" stroke-width="1"/>
<line x1="323.05" y1="109.86" x2="327.05" y2="109.86" stroke="#333" stroke-width="1"/>
<rect x="334.81" y="90.40" width="15.53" height="99.60" fill="#616161" opacity="0.85"><title>Control: 4.323 ×10⁻³</title></rect>
<line x1="342.58" y1="107.36" x2="342.58" y2="78.72" stroke="#333" stroke-width="1"/>
<line x1="340.58" y1="107.36" x2="344.58" y2="107.36" stroke="#333" stroke-width="1"/>
<line x1="340.58" y1="78.72" x2="344.58" y2="78.72" stroke="#333" stroke-width="1"/>
<text x="334.8" y="204" text-anchor="end" font-size="9" fill="#2196F3" transform="rotate(-45,334.8,204)">Cognitive</text>
<rect x="361.66" y="124.43" width="15.53" height="65.57" fill="#2E7D32" opacity="0.85"><title>Partner Identity: 2.846 ×10⁻³</title></rect>
<line x1="369.42" y1="134.99" x2="369.42" y2="119.29" stroke="#333" stroke-width="1"/>
<line x1="367.42" y1="134.99" x2="371.42" y2="134.99" stroke="#333" stroke-width="1"/>
<line x1="367.42" y1="119.29" x2="371.42" y2="119.29" stroke="#333" stroke-width="1"/>
<rect x="379.19" y="82.83" width="15.53" height="107.17" fill="#616161" opacity="0.85"><title>Control: 4.652 ×10⁻³</title></rect>
<line x1="386.95" y1="102.11" x2="386.95" y2="70.42" stroke="#333" stroke-width="1"/>
<line x1="384.95" y1="102.11" x2="388.95" y2="102.11" stroke="#333" stroke-width="1"/>
<line x1="384.95" y1="70.42" x2="388.95" y2="70.42" stroke="#333" stroke-width="1"/>
<text x="379.2" y="204" text-anchor="end" font-size="9" fill="#2196F3" transform="rotate(-45,379.2,204)">Intentions</text>
<rect x="406.03" y="128.27" width="15.53" height="61.73" fill="#2E7D32" opacity="0.85"><title>Partner Identity: 2.679 ×10⁻³</title></rect>
<line x1="413.80" y1="136.01" x2="413.80" y2="125.02" stroke="#333" stroke-width="1"/>
<line x1="411.80" y1="136.01" x2="415.80" y2="136.01" stroke="#333" stroke-width="1"/>
<line x1="411.80" y1="125.02" x2="415.80" y2="125.02" stroke="#333" stroke-width="1"/>
<rect x="423.56" y="99.05" width="15.53" height="90.95" fill="#616161" opacity="0.85"><title>Control: 3.947 ×10⁻³</title></rect>
<line x1="431.33" y1="110.38" x2="431.33" y2="93.06" stroke="#333" stroke-width="1"/>
<line x1="429.33" y1="110.38" x2="433.33" y2="110.38" stroke="#333" stroke-width="1"/>
<line x1="429.33" y1="93.06" x2="433.33" y2="93.06" stroke="#333" stroke-width="1"/>
<text x="423.6" y="204" text-anchor="end" font-size="9" fill="#2196F3" transform="rotate(-45,423.6,204)">Emotions</text>
<rect x="450.41" y="131.02" width="15.53" height="58.98" fill="#2E7D32" opacity="0.85"><title>Partner Identity: 2.560 ×10⁻³</title></rect>
<line x1="458.17" y1="142.18" x2="458.17" y2="125.05" stroke="#333" stroke-width="1"/>
<line x1="456.17" y1="142.18" x2="460.17" y2="142.18" stroke="#333" stroke-width="1"/>
<line x1="456.17" y1="125.05" x2="460.17" y2="125.05" stroke="#333" stroke-width="1"/>
<rect x="467.94" y="72.68" width="15.53" height="117.32" fill="#616161" opacity="0.85"><title>Control: 5.092 ×10⁻³</title></rect>
<line x1="475.70" y1="96.05" x2="475.70" y2="59.27" stroke="#333" stroke-width="1"/>
<line x1="473.70" y1="96.05" x2="477.70" y2="96.05" stroke="#333" stroke-width="1"/>
<line x1="473.70" y1="59.27" x2="477.70" y2="59.27" stroke="#333" stroke-width="1"/>
<text x="467.9" y="204" text-anchor="end" font-size="9" fill="#2196F3" transform="rotate(-45,467.9,204)">Embodiment</text>
<rect x="494.78" y="131.17" width="15.53" height="58.83" fill="#2E7D32" opacity="0.85"><title>Partner Identity: 2.553 ×10⁻³</title></rect>
<line x1="502.55" y1="141.81" x2="502.55" y2="126.57" stroke="#333" stroke-width="1"/>
<line x1="500.55" y1="141.81" x2="504.55" y2="141.81" stroke="#333" stroke-width="1"/>
<line x1="500.55" y1="126.57" x2="504.55" y2="126.57" stroke="#333" stroke-width="1"/>
<rect x="512.31" y="85.37" width="15.53" height="104.63" fill="#616161" opacity="0.85"><title>Control: 4.541 ×10⁻³</title></rect>
<line x1="520.08" y1="104.72" x2="520.08" y2="73.60" stroke="#333" stroke-width="1"/>
<line x1="518.08" y1="104.72" x2="522.08" y2="104.72" stroke="#333" stroke-width="1"/>
<line x1="518.08" y1="73.60" x2="522.08" y2="73.60" stroke="#333" stroke-width="1"/>
<text x="512.3" y="204" text-anchor="end" font-size="9" fill="#2196F3" transform="rotate(-45,512.3,204)">Phenomenology</text>
<rect x="539.16" y="179.60" width="15.53" height="10.40" fill="#2E7D32" opacity="0.85"><title>Partner Identity: 0.452 ×10⁻³</title></rect>
<line x1="546.92" y1="184.80" x2="546.92" y2="175.36" stroke="#333" stroke-width="1"/>
<line x1="544.92" y1="184.80" x2="548.92" y2="184.80" stroke="#333" stroke-width="1"/>
<line x1="544.92" y1="175.36" x2="548.92" y2="175.36" stroke="#333" stroke-width="1"/>
<rect x="556.69" y="182.69" width="15.53" height="7.31" fill="#616161" opacity="0.85"><title>Control: 0.317 ×10⁻³</title></rect>
<line x1="564.45" y1="185.20" x2="564.45" y2="174.76" stroke="#333" stroke-width="1"/>
<line x1="562.45" y1="185.20" x2="566.45" y2="185.20" stroke="#333" stroke-width="1"/>
<line x1="562.45" y1="174.76" x2="566.45" y2="174.76" stroke="#333" stroke-width="1"/>
<text x="556.7" y="204" text-anchor="end" font-size="9" fill="#FF9800" transform="rotate(-45,556.7,204)">Helpfulness</text>
<rect x="583.53" y="182.66" width="15.53" height="7.34" fill="#2E7D32" opacity="0.85"><title>Partner Identity: 0.318 ×10⁻³</title></rect>
<line x1="591.30" y1="184.00" x2="591.30" y2="180.22" stroke="#333" stroke-width="1"/>
<line x1="589.30" y1="184.00" x2="593.30" y2="184.00" stroke="#333" stroke-width="1"/>
<line x1="589.30" y1="180.22" x2="593.30" y2="180.22" stroke="#333" stroke-width="1"/>
<rect x="601.06" y="176.90" width="15.53" height="13.10" fill="#616161" opacity="0.85"><title>Control: 0.569 ×10⁻³</title></rect>
<line x1="608.83" y1="179.57" x2="608.83" y2="173.00" stroke="#333" stroke-width="1"/>
<line x1="606.83" y1="179.57" x2="610.83" y2="179.57" stroke="#333" stroke-width="1"/>
<line x1="606.83" y1="173.00" x2="610.83" y2="173.00" stroke="#333" stroke-width="1"/>
<text x="601.1" y="204" text-anchor="end" font-size="9" fill="#FF9800" transform="rotate(-45,601.1,204)">Expertise</text>
<rect x="627.91" y="185.37" width="15.53" height="4.63" fill="#2E7D32" opacity="0.85"><title>Partner Identity: 0.201 ×10⁻³</title></rect>
<line x1="635.67" y1="186.71" x2="635.67" y2="183.11" stroke="#333" stroke-width="1"/>
<line x1="633.67" y1="186.71" x2="637.67" y2="186.71" stroke="#333" stroke-width="1"/>
<line x1="633.67" y1="183.11" x2="637.67" y2="183.11" stroke="#333" stroke-width="1"/>
<rect x="645.44" y="183.45" width="15.53" height="6.55" fill="#616161" opacity="0.85"><title>Control: 0.284 ×10⁻³</title></rect>
<line x1="653.20" y1="185.06" x2="653.20" y2="179.73" stroke="#333" stroke-width="1"/>
<line x1="651.20" y1="185.06" x2="655.20" y2="185.06" stroke="#333" stroke-width="1"/>
<line x1="651.20" y1="179.73" x2="655.20" y2="179.73" stroke="#333" stroke-width="1"/>
<text x="645.4" y="204" text-anchor="end" font-size="9" fill="#FF9800" transform="rotate(-45,645.4,204)">Formality</text>
<rect x="672.28" y="71.46" width="15.53" height="118.54" fill="#2E7D32" opacity="0.85"><title>Partner Identity: 5.145 ×10⁻³</title></rect>
<line x1="680.05" y1="88.84" x2="680.05" y2="49.50" stroke="#333" stroke-width="1"/>
<line x1="678.05" y1="88.84" x2="682.05" y2="88.84" stroke="#333" stroke-width="1"/>
<line x1="678.05" y1="49.50" x2="682.05" y2="49.50" stroke="#333" stroke-width="1"/>
<rect x="689.81" y="102.57" width="15.53" height="87.43" fill="#616161" opacity="0.85"><title>Control: 3.795 ×10⁻³</title></rect>
<line x1="697.58" y1="114.76" x2="697.58" y2="92.55" stroke="#333" stroke-width="1"/>
<line x1="695.58" y1="114.76" x2="699.58" y2="114.76" stroke="#333" stroke-width="1"/>
<line x1="695.58" y1="92.55" x2="699.58" y2="92.55" stroke="#333" stroke-width="1"/>
<text x="689.8" y="204" text-anchor="end" font-size="9" fill="#00BCD4" transform="rotate(-45,689.8,204)">SysPrompt</text>
<line x1="0" y1="190" x2="710" y2="190" stroke="#333"/>
<line x1="0" y1="0" x2="0" y2="190" stroke="#333"/>
</g>
<rect x="70" y="320" width="10" height="10" fill="#2E7D32"/>
<text x="84" y="328" font-size="9" fill="#333">Partner Identity</text>
<rect x="210" y="320" width="10" height="10" fill="#616161"/>
<text x="224" y="328" font-size="9" fill="#333">Control</text>
</svg>