<svg viewBox="0 0 800 320" xmlns="http://www.w3.org/2000/svg" style="width:100%;max-width:800px;height:auto;font-family:Arial,sans-serif;">
<rect width="800" height="320" fill="white"/>

<g transform="translate(70,30)">
<line x1="0" y1="180.0" x2="710" y2="180.0" stroke="#eee" stroke-width="1"/>
<text x="-8" y="184.0" text-anchor="end" font-size="10" fill="#666">0.00</text>
<line x1="0" y1="144.0" x2="710" y2="144.0" stroke="#eee" stroke-width="1"/>
<text x="-8" y="148.0" text-anchor="end" font-size="10" fill="#666">1.65</text>
<line x1="0" y1="108.0" x2="710" y2="108.0" stroke="#eee" stroke-width="1"/>
<text x="-8" y="112.0" text-anchor="end" font-size="10" fill="#666">3.30</text>
<line x1="0" y1="72.0" x2="710" y2="72.0" stroke="#eee" stroke-width="1"/>
<text x="-8" y="76.0" text-anchor="end" font-size="10" fill="#666">4.95</text>
<line x1="0" y1="36.0" x2="710" y2="36.0" stroke="#eee" stroke-width="1"/>
<text x="-8" y="40.0" text-anchor="end" font-size="10" fill="#666">6.60</text>
<line x1="0" y1="0.0" x2="710" y2="0.0" stroke="#eee" stroke-width="1"/>
<text x="-8" y="4.0" text-anchor="end" font-size="10" fill="#666">8.25</text>
<text x="-50" y="90.0" text-anchor="middle" font-size="11" fill="#333" transform="rotate(-90,-50,90.0)">Mean R² (×10⁻³)</text>
<rect x="8.88" y="100.25" width="20.71" height="79.75" fill="#2E7D32" opacity="0.85"><title>Partner Identity — Social: 3.654 ×10⁻³</title></rect>
<line x1="19.23" y1="112.57" x2="19.23" y2="95.15" stroke="#333" stroke-width="1"/>
<line x1="17.23" y1="112.57" x2="21.23" y2="112.57" stroke="#333" stroke-width="1"/>
<line x1="17.23" y1="95.15" x2="21.23" y2="95.15" stroke="#333" stroke-width="1"/>
<rect x="31.58" y="53.12" width="20.71" height="126.88" fill="#616161" opacity="0.85"><title>Control — Social: 5.813 ×10⁻³</title></rect>
<line x1="41.94" y1="74.99" x2="41.94" y2="40.93" stroke="#333" stroke-width="1"/>
<line x1="39.94" y1="74.99" x2="43.94" y2="74.99" stroke="#333" stroke-width="1"/>
<line x1="39.94" y1="40.93" x2="43.94" y2="40.93" stroke="#333" stroke-width="1"/>
<text x="31.6" y="194" text-anchor="end" font-size="10" fill="#2196F3" transform="rotate(-30,31.6,194)">Social</text>
<rect x="68.04" y="99.36" width="20.71" height="80.64" fill="#2E7D32" opacity="0.85"><title>Partner Identity — Attention: 3.695 ×10⁻³</title></rect>
<line x1="78.40" y1="112.74" x2="78.40" y2="92.72" stroke="#333" stroke-width="1"/>
<line x1="76.40" y1="112.74" x2="80.40" y2="112.74" stroke="#333" stroke-width="1"/>
<line x1="76.40" y1="92.72" x2="80.40" y2="92.72" stroke="#333" stroke-width="1"/>
<rect x="90.75" y="68.53" width="20.71" height="111.47" fill="#616161" opacity="0.85"><title>Control — Attention: 5.107 ×10⁻³</title></rect>
<line x1="101.10" y1="87.50" x2="101.10" y2="56.97" stroke="#333" stroke-width="1"/>
<line x1="99.10" y1="87.50" x2="103.10" y2="87.50" stroke="#333" stroke-width="1"/>
<line x1="99.10" y1="56.97" x2="103.10" y2="56.97" stroke="#333" stroke-width="1"/>
<text x="90.7" y="194" text-anchor="end" font-size="10" fill="#2196F3" transform="rotate(-30,90.7,194)">Attention</text>
<rect x="127.21" y="99.39" width="20.71" height="80.61" fill="#2E7D32" opacity="0.85"><title>Partner Identity — Prediction: 3.693 ×10⁻³</title></rect>
<line x1="137.56" y1="112.50" x2="137.56" y2="93.41" stroke="#333" stroke-width="1"/>
<line x1="135.56" y1="112.50" x2="139.56" y2="112.50" stroke="#333" stroke-width="1"/>
<line x1="135.56" y1="93.41" x2="139.56" y2="93.41" stroke="#333" stroke-width="1"/>
<rect x="149.92" y="57.50" width="20.71" height="122.50" fill="#616161" opacity="0.85"><title>Control — Prediction: 5.612 ×10⁻³</title></rect>
<line x1="160.27" y1="78.58" x2="160.27" y2="44.82" stroke="#333" stroke-width="1"/>
<line x1="158.27" y1="78.58" x2="162.27" y2="78.58" stroke="#333" stroke-width="1"/>
<line x1="158.27" y1="44.82" x2="162.27" y2="44.82" stroke="#333" stroke-width="1"/>
<text x="149.9" y="194" text-anchor="end" font-size="10" fill="#2196F3" transform="rotate(-30,149.9,194)">Prediction</text>
<rect x="186.38" y="104.18" width="20.71" height="75.82" fill="#2E7D32" opacity="0.85"><title>Partner Identity — Roles: 3.474 ×10⁻³</title></rect>
<line x1="196.73" y1="120.91" x2="196.73" y2="95.42" stroke="#333" stroke-width="1"/>
<line x1="194.73" y1="120.91" x2="198.73" y2="120.91" stroke="#333" stroke-width="1"/>
<line x1="194.73" y1="95.42" x2="198.73" y2="95.42" stroke="#333" stroke-width="1"/>
<rect x="209.08" y="41.03" width="20.71" height="138.97" fill="#616161" opacity="0.85"><title>Control — Roles: 6.367 ×10⁻³</title></rect>
<line x1="219.44" y1="71.40" x2="219.44" y2="24.16" stroke="#333" stroke-width="1"/>
<line x1="217.44" y1="71.40" x2="221.44" y2="71.40" stroke="#333" stroke-width="1"/>
<line x1="217.44" y1="24.16" x2="221.44" y2="24.16" stroke="#333" stroke-width="1"/>
<text x="209.1" y="194" text-anchor="end" font-size="10" fill="#2196F3" transform="rotate(-30,209.1,194)">Roles</text>
<rect x="245.54" y="107.77" width="20.71" height="72.23" fill="#2E7D32" opacity="0.85"><title>Partner Identity — Agency: 3.309 ×10⁻³</title></rect>
<line x1="255.90" y1="118.58" x2="255.90" y2="103.57" stroke="#333" stroke-width="1"/>
<line x1="253.90" y1="118.58" x2="257.90" y2="118.58" stroke="#333" stroke-width="1"/>
<line x1="253.90" y1="103.57" x2="257.90" y2="103.57" stroke="#333" stroke-width="1"/>
<rect x="268.25" y="65.33" width="20.71" height="114.67" fill="#616161" opacity="0.85"><title>Control — Agency: 5.253 ×10⁻³</title></rect>
<line x1="278.60" y1="83.07" x2="278.60" y2="57.54" stroke="#333" stroke-width="1"/>
<line x1="276.60" y1="83.07" x2="280.60" y2="83.07" stroke="#333" stroke-width="1"/>
<line x1="276.60" y1="57.54" x2="280.60" y2="57.54" stroke="#333" stroke-width="1"/>
<text x="268.2" y="194" text-anchor="end" font-size="10" fill="#2196F3" transform="rotate(-30,268.2,194)">Agency</text>
<rect x="304.71" y="112.33" width="20.71" height="67.67" fill="#2E7D32" opacity="0.85"><title>Partner Identity — Cognitive: 3.100 ×10⁻³</title></rect>
<line x1="315.06" y1="123.89" x2="315.06" y2="104.08" stroke="#333" stroke-width="1"/>
<line x1="313.06" y1="123.89" x2="317.06" y2="123.89" stroke="#333" stroke-width="1"/>
<line x1="313.06" y1="104.08" x2="317.06" y2="104.08" stroke="#333" stroke-width="1"/>
<rect x="327.42" y="85.64" width="20.71" height="94.36" fill="#616161" opacity="0.85"><title>Control — Cognitive: 4.323 ×10⁻³</title></rect>
<line x1="337.77" y1="101.71" x2="337.77" y2="74.57" stroke="#333" stroke-width="1"/>
<line x1="335.77" y1="101.71" x2="339.77" y2="101.71" stroke="#333" stroke-width="1"/>
<line x1="335.77" y1="74.57" x2="339.77" y2="74.57" stroke="#333" stroke-width="1"/>
<text x="327.4" y="194" text-anchor="end" font-size="10" fill="#2196F3" transform="rotate(-30,327.4,194)">Cognitive</text>
<rect x="363.88" y="117.88" width="20.71" height="62.12" fill="#2E7D32" opacity="0.85"><title>Partner Identity — Intentions: 2.846 ×10⁻³</title></rect>
<line x1="374.23" y1="127.89" x2="374.23" y2="113.01" stroke="#333" stroke-width="1"/>
<line x1="372.23" y1="127.89" x2="376.23" y2="127.89" stroke="#333" stroke-width="1"/>
<line x1="372.23" y1="113.01" x2="376.23" y2="113.01" stroke="#333" stroke-width="1"/>
<rect x="386.58" y="78.47" width="20.71" height="101.53" fill="#616161" opacity="0.85"><title>Control — Intentions: 4.652 ×10⁻³</title></rect>
<line x1="396.94" y1="96.73" x2="396.94" y2="66.71" stroke="#333" stroke-width="1"/>
<line x1="394.94" y1="96.73" x2="398.94" y2="96.73" stroke="#333" stroke-width="1"/>
<line x1="394.94" y1="66.71" x2="398.94" y2="66.71" stroke="#333" stroke-width="1"/>
<text x="386.6" y="194" text-anchor="end" font-size="10" fill="#2196F3" transform="rotate(-30,386.6,194)">Intentions</text>
<rect x="423.04" y="121.52" width="20.71" height="58.48" fill="#2E7D32" opacity="0.85"><title>Partner Identity — Emotions: 2.679 ×10⁻³</title></rect>
<line x1="433.40" y1="128.85" x2="433.40" y2="118.44" stroke="#333" stroke-width="1"/>
<line x1="431.40" y1="128.85" x2="435.40" y2="128.85" stroke="#333" stroke-width="1"/>
<line x1="431.40" y1="118.44" x2="435.40" y2="118.44" stroke="#333" stroke-width="1"/>
<rect x="445.75" y="93.84" width="20.71" height="86.16" fill="#616161" opacity="0.85"><title>Control — Emotions: 3.947 ×10⁻³</title></rect>
<line x1="456.10" y1="104.57" x2="456.10" y2="88.16" stroke="#333" stroke-width="1"/>
<line x1="454.10" y1="104.57" x2="458.10" y2="104.57" stroke="#333" stroke-width="1"/>
<line x1="454.10" y1="88.16" x2="458.10" y2="88.16" stroke="#333" stroke-width="1"/>
<text x="445.7" y="194" text-anchor="end" font-size="10" fill="#2196F3" transform="rotate(-30,445.7,194)">Emotions</text>
<rect x="482.21" y="124.12" width="20.71" height="55.88" fill="#2E7D32" opacity="0.85"><title>Partner Identity — Embodiment: 2.560 ×10⁻³</title></rect>
<line x1="492.56" y1="134.70" x2="492.56" y2="118.47" stroke="#333" stroke-width="1"/>
<line x1="490.56" y1="134.70" x2="494.56" y2="134.70" stroke="#333" stroke-width="1"/>
<line x1="490.56" y1="118.47" x2="494.56" y2="118.47" stroke="#333" stroke-width="1"/>
<rect x="504.92" y="68.85" width="20.71" height="111.15" fill="#616161" opacity="0.85"><title>Control — Embodiment: 5.092 ×10⁻³</title></rect>
<line x1="515.27" y1="91.00" x2="515.27" y2="56.15" stroke="#333" stroke-width="1"/>
<line x1="513.27" y1="91.00" x2="517.27" y2="91.00" stroke="#333" stroke-width="1"/>
<line x1="513.27" y1="56.15" x2="517.27" y2="56.15" stroke="#333" stroke-width="1"/>
<text x="504.9" y="194" text-anchor="end" font-size="10" fill="#2196F3" transform="rotate(-30,504.9,194)">Embodiment</text>
<rect x="541.38" y="124.27" width="20.71" height="55.73" fill="#2E7D32" opacity="0.85"><title>Partner Identity — Phenomenology: 2.553 ×10⁻³</title></rect>
<line x1="551.73" y1="134.34" x2="551.73" y2="119.91" stroke="#333" stroke-width="1"/>
<line x1="549.73" y1="134.34" x2="553.73" y2="134.34" stroke="#333" stroke-width="1"/>
<line x1="549.73" y1="119.91" x2="553.73" y2="119.91" stroke="#333" stroke-width="1"/>
<rect x="564.08" y="80.88" width="20.71" height="99.12" fill="#616161" opacity="0.85"><title>Control — Phenomenology: 4.541 ×10⁻³</title></rect>
<line x1="574.44" y1="99.21" x2="574.44" y2="69.73" stroke="#333" stroke-width="1"/>
<line x1="572.44" y1="99.21" x2="576.44" y2="99.21" stroke="#333" stroke-width="1"/>
<line x1="572.44" y1="69.73" x2="576.44" y2="69.73" stroke="#333" stroke-width="1"/>
<text x="564.1" y="194" text-anchor="end" font-size="10" fill="#2196F3" transform="rotate(-30,564.1,194)">Phenomenology</text>
<line x1="591.6666666666666" y1="0" x2="591.6666666666666" y2="180" stroke="#ccc" stroke-width="1" stroke-dasharray="4,3"/>
<rect x="600.54" y="135.08" width="20.71" height="44.92" fill="#2E7D32" opacity="0.5"><title>Partner Identity — Biological: 2.058 ×10⁻³</title></rect>
<line x1="610.90" y1="141.28" x2="610.90" y2="131.45" stroke="#333" stroke-width="1"/>
<line x1="608.90" y1="141.28" x2="612.90" y2="141.28" stroke="#333" stroke-width="1"/>
<line x1="608.90" y1="131.45" x2="612.90" y2="131.45" stroke="#333" stroke-width="1"/>
<rect x="623.25" y="90.84" width="20.71" height="89.16" fill="#616161" opacity="0.5"><title>Control — Biological: 4.084 ×10⁻³</title></rect>
<line x1="633.60" y1="103.01" x2="633.60" y2="83.13" stroke="#333" stroke-width="1"/>
<line x1="631.60" y1="103.01" x2="635.60" y2="103.01" stroke="#333" stroke-width="1"/>
<line x1="631.60" y1="83.13" x2="635.60" y2="83.13" stroke="#333" stroke-width="1"/>
<text x="623.2" y="194" text-anchor="end" font-size="10" fill="#9E9E9E" transform="rotate(-30,623.2,194)">Biological</text>
<rect x="659.71" y="168.65" width="20.71" height="11.35" fill="#2E7D32" opacity="0.5"><title>Partner Identity — Shapes: 0.520 ×10⁻³</title></rect>
<line x1="670.06" y1="173.05" x2="670.06" y2="164.91" stroke="#333" stroke-width="1"/>
<line x1="668.06" y1="173.05" x2="672.06" y2="173.05" stroke="#333" stroke-width="1"/>
<line x1="668.06" y1="164.91" x2="672.06" y2="164.91" stroke="#333" stroke-width="1"/>
<rect x="682.42" y="166.02" width="20.71" height="13.98" fill="#616161" opacity="0.5"><title>Control — Shapes: 0.641 ×10⁻³</title></rect>
<line x1="692.77" y1="172.85" x2="692.77" y2="156.92" stroke="#333" stroke-width="1"/>
<line x1="690.77" y1="172.85" x2="694.77" y2="172.85" stroke="#333" stroke-width="1"/>
<line x1="690.77" y1="156.92" x2="694.77" y2="156.92" stroke="#333" stroke-width="1"/>
<text x="682.4" y="194" text-anchor="end" font-size="10" fill="#9E9E9E" transform="rotate(-30,682.4,194)">Shapes</text>
<line x1="0" y1="180" x2="710" y2="180" stroke="#333"/>
<line x1="0" y1="0" x2="0" y2="180" stroke="#333"/>
</g>
<rect x="70" y="300" width="10" height="10" fill="#2E7D32"/>
<text x="84" y="308" font-size="9" fill="#333">Partner Identity</text>
<rect x="210" y="300" width="10" height="10" fill="#616161"/>
<text x="224" y="308" font-size="9" fill="#333">Control</text>
</svg>