<svg viewBox="0 0 800 320" xmlns="http://www.w3.org/2000/svg" style="width:100%;max-width:800px;height:auto;font-family:Arial,sans-serif;">
<rect width="800" height="320" fill="white"/>

<g transform="translate(70,30)">
<line x1="0" y1="180.0" x2="710" y2="180.0" stroke="#eee" stroke-width="1"/>
<text x="-8" y="184.0" text-anchor="end" font-size="10" fill="#666">0.00</text>
<line x1="0" y1="144.0" x2="710" y2="144.0" stroke="#eee" stroke-width="1"/>
<text x="-8" y="148.0" text-anchor="end" font-size="10" fill="#666">1.65</text>
<line x1="0" y1="108.0" x2="710" y2="108.0" stroke="#eee" stroke-width="1"/>
<text x="-8" y="112.0" text-anchor="end" font-size="10" fill="#666">3.30</text>
<line x1="0" y1="72.0" x2="710" y2="72.0" stroke="#eee" stroke-width="1"/>
<text x="-8" y="76.0" text-anchor="end" font-size="10" fill="#666">4.95</text>
<line x1="0" y1="36.0" x2="710" y2="36.0" stroke="#eee" stroke-width="1"/>
<text x="-8" y="40.0" text-anchor="end" font-size="10" fill="#666">6.60</text>
<line x1="0" y1="0.0" x2="710" y2="0.0" stroke="#eee" stroke-width="1"/>
<text x="-8" y="4.0" text-anchor="end" font-size="10" fill="#666">8.25</text>
<text x="-50" y="90.0" text-anchor="middle" font-size="11" fill="#333" transform="rotate(-90,-50,90.0)">Mean R² (×10⁻³)</text>
<rect x="26.62" y="174.55" width="62.12" height="5.45" fill="#81C784" opacity="0.85"><title>Partner Identity — Embodiment: 0.250 ×10⁻³</title></rect>
<line x1="57.69" y1="175.35" x2="57.69" y2="173.72" stroke="#333" stroke-width="1"/>
<line x1="55.69" y1="175.35" x2="59.69" y2="175.35" stroke="#333" stroke-width="1"/>
<line x1="55.69" y1="173.72" x2="59.69" y2="173.72" stroke="#333" stroke-width="1"/>
<rect x="90.75" y="172.37" width="62.12" height="7.63" fill="#BDBDBD" opacity="0.85"><title>Control — Embodiment: 0.350 ×10⁻³</title></rect>
<line x1="121.81" y1="173.55" x2="121.81" y2="171.17" stroke="#333" stroke-width="1"/>
<line x1="119.81" y1="173.55" x2="123.81" y2="173.55" stroke="#333" stroke-width="1"/>
<line x1="119.81" y1="171.17" x2="123.81" y2="171.17" stroke="#333" stroke-width="1"/>
<text x="90.8" y="194" text-anchor="end" font-size="10" fill="#4CAF50" transform="rotate(-30,90.8,194)">Embodiment</text>
<rect x="204.12" y="173.85" width="62.12" height="6.15" fill="#81C784" opacity="0.85"><title>Partner Identity — Roles: 0.282 ×10⁻³</title></rect>
<line x1="235.19" y1="174.69" x2="235.19" y2="172.69" stroke="#333" stroke-width="1"/>
<line x1="233.19" y1="174.69" x2="237.19" y2="174.69" stroke="#333" stroke-width="1"/>
<line x1="233.19" y1="172.69" x2="237.19" y2="172.69" stroke="#333" stroke-width="1"/>
<rect x="268.25" y="169.97" width="62.12" height="10.03" fill="#BDBDBD" opacity="0.85"><title>Control — Roles: 0.459 ×10⁻³</title></rect>
<line x1="299.31" y1="171.65" x2="299.31" y2="168.35" stroke="#333" stroke-width="1"/>
<line x1="297.31" y1="171.65" x2="301.31" y2="171.65" stroke="#333" stroke-width="1"/>
<line x1="297.31" y1="168.35" x2="301.31" y2="168.35" stroke="#333" stroke-width="1"/>
<text x="268.2" y="194" text-anchor="end" font-size="10" fill="#4CAF50" transform="rotate(-30,268.2,194)">Roles</text>
<line x1="355.0" y1="0" x2="355.0" y2="180" stroke="#ccc" stroke-width="1" stroke-dasharray="4,3"/>
<rect x="381.62" y="174.04" width="62.12" height="5.96" fill="#81C784" opacity="0.5"><title>Partner Identity — Biological: 0.273 ×10⁻³</title></rect>
<line x1="412.69" y1="174.75" x2="412.69" y2="173.29" stroke="#333" stroke-width="1"/>
<line x1="410.69" y1="174.75" x2="414.69" y2="174.75" stroke="#333" stroke-width="1"/>
<line x1="410.69" y1="173.29" x2="414.69" y2="173.29" stroke="#333" stroke-width="1"/>
<rect x="445.75" y="174.22" width="62.12" height="5.78" fill="#BDBDBD" opacity="0.5"><title>Control — Biological: 0.265 ×10⁻³</title></rect>
<line x1="476.81" y1="174.97" x2="476.81" y2="173.30" stroke="#333" stroke-width="1"/>
<line x1="474.81" y1="174.97" x2="478.81" y2="174.97" stroke="#333" stroke-width="1"/>
<line x1="474.81" y1="173.30" x2="478.81" y2="173.30" stroke="#333" stroke-width="1"/>
<text x="445.8" y="194" text-anchor="end" font-size="10" fill="#9E9E9E" transform="rotate(-30,445.8,194)">Biological</text>
<rect x="559.12" y="174.06" width="62.12" height="5.94" fill="#81C784" opacity="0.5"><title>Partner Identity — Shapes: 0.272 ×10⁻³</title></rect>
<line x1="590.19" y1="176.08" x2="590.19" y2="172.38" stroke="#333" stroke-width="1"/>
<line x1="588.19" y1="176.08" x2="592.19" y2="176.08" stroke="#333" stroke-width="1"/>
<line x1="588.19" y1="172.38" x2="592.19" y2="172.38" stroke="#333" stroke-width="1"/>
<rect x="623.25" y="169.64" width="62.12" height="10.36" fill="#BDBDBD" opacity="0.5"><title>Control — Shapes: 0.475 ×10⁻³</title></rect>
<line x1="654.31" y1="173.73" x2="654.31" y2="167.27" stroke="#333" stroke-width="1"/>
<line x1="652.31" y1="173.73" x2="656.31" y2="173.73" stroke="#333" stroke-width="1"/>
<line x1="652.31" y1="167.27" x2="656.31" y2="167.27" stroke="#333" stroke-width="1"/>
<text x="623.2" y="194" text-anchor="end" font-size="10" fill="#9E9E9E" transform="rotate(-30,623.2,194)">Shapes</text>
<line x1="0" y1="180" x2="710" y2="180" stroke="#333"/>
<line x1="0" y1="0" x2="0" y2="180" stroke="#333"/>
</g>
<rect x="70" y="300" width="10" height="10" fill="#81C784"/>
<text x="84" y="308" font-size="9" fill="#333">Partner Identity</text>
<rect x="210" y="300" width="10" height="10" fill="#BDBDBD"/>
<text x="224" y="308" font-size="9" fill="#333">Control</text>
</svg>