<svg viewBox="0 0 1100 360" xmlns="http://www.w3.org/2000/svg" style="width:100%;max-width:1100px;height:auto;font-family:Arial,sans-serif;">
<rect width="1100" height="360" fill="white"/>
<g transform="translate(70,30)">
<line x1="0" y1="200.0" x2="1010" y2="200.0" stroke="#eee" stroke-width="1"/>
<text x="-8" y="204.0" text-anchor="end" font-size="10" fill="#666">0.00</text>
<line x1="0" y1="160.0" x2="1010" y2="160.0" stroke="#eee" stroke-width="1"/>
<text x="-8" y="164.0" text-anchor="end" font-size="10" fill="#666">0.14</text>
<line x1="0" y1="120.0" x2="1010" y2="120.0" stroke="#eee" stroke-width="1"/>
<text x="-8" y="124.0" text-anchor="end" font-size="10" fill="#666">0.28</text>
<line x1="0" y1="80.0" x2="1010" y2="80.0" stroke="#eee" stroke-width="1"/>
<text x="-8" y="84.0" text-anchor="end" font-size="10" fill="#666">0.42</text>
<line x1="0" y1="40.0" x2="1010" y2="40.0" stroke="#eee" stroke-width="1"/>
<text x="-8" y="44.0" text-anchor="end" font-size="10" fill="#666">0.56</text>
<line x1="0" y1="0.0" x2="1010" y2="0.0" stroke="#eee" stroke-width="1"/>
<text x="-8" y="4.0" text-anchor="end" font-size="10" fill="#666">0.70</text>
<text x="-50" y="100.0" text-anchor="middle" font-size="11" fill="#333" transform="rotate(-90,-50,100.0)">Mean R² (×10⁻³)</text>
<rect x="4.59" y="107.59" width="18.36" height="92.41" fill="#81C784" opacity="0.85"><title>Partner Identity: 0.000321</title></rect>
<line x1="13.77" y1="109.43" x2="13.77" y2="105.77" stroke="#333" stroke-width="1"/>
<line x1="11.77" y1="109.43" x2="15.77" y2="109.43" stroke="#333" stroke-width="1"/>
<line x1="11.77" y1="105.77" x2="15.77" y2="105.77" stroke="#333" stroke-width="1"/>
<rect x="22.95" y="112.38" width="18.36" height="87.62" fill="#BDBDBD" opacity="0.85"><title>Control: 0.000305</title></rect>
<line x1="32.14" y1="113.84" x2="32.14" y2="110.94" stroke="#333" stroke-width="1"/>
<line x1="30.14" y1="113.84" x2="34.14" y2="113.84" stroke="#333" stroke-width="1"/>
<line x1="30.14" y1="110.94" x2="34.14" y2="110.94" stroke="#333" stroke-width="1"/>
<text x="22.95" y="214" text-anchor="end" font-size="9" fill="#2196F3" transform="rotate(-45,22.95,214)">Phenomenology</text>
<rect x="50.50" y="105.27" width="18.36" height="94.73" fill="#81C784" opacity="0.85"><title>Partner Identity: 0.000329</title></rect>
<line x1="59.68" y1="107.02" x2="59.68" y2="103.66" stroke="#333" stroke-width="1"/>
<line x1="57.68" y1="107.02" x2="61.68" y2="107.02" stroke="#333" stroke-width="1"/>
<line x1="57.68" y1="103.66" x2="61.68" y2="103.66" stroke="#333" stroke-width="1"/>
<rect x="68.86" y="110.86" width="18.36" height="89.14" fill="#BDBDBD" opacity="0.85"><title>Control: 0.000310</title></rect>
<line x1="78.05" y1="112.59" x2="78.05" y2="109.13" stroke="#333" stroke-width="1"/>
<line x1="76.05" y1="112.59" x2="80.05" y2="112.59" stroke="#333" stroke-width="1"/>
<line x1="76.05" y1="109.13" x2="80.05" y2="109.13" stroke="#333" stroke-width="1"/>
<text x="68.86" y="214" text-anchor="end" font-size="9" fill="#2196F3" transform="rotate(-45,68.86,214)">Emotions</text>
<rect x="96.41" y="104.48" width="18.36" height="95.52" fill="#81C784" opacity="0.85"><title>Partner Identity: 0.000332</title></rect>
<line x1="105.59" y1="106.36" x2="105.59" y2="102.67" stroke="#333" stroke-width="1"/>
<line x1="103.59" y1="106.36" x2="107.59" y2="106.36" stroke="#333" stroke-width="1"/>
<line x1="103.59" y1="102.67" x2="107.59" y2="102.67" stroke="#333" stroke-width="1"/>
<rect x="114.77" y="111.04" width="18.36" height="88.96" fill="#BDBDBD" opacity="0.85"><title>Control: 0.000309</title></rect>
<line x1="123.95" y1="112.96" x2="123.95" y2="109.10" stroke="#333" stroke-width="1"/>
<line x1="121.95" y1="112.96" x2="125.95" y2="112.96" stroke="#333" stroke-width="1"/>
<line x1="121.95" y1="109.10" x2="125.95" y2="109.10" stroke="#333" stroke-width="1"/>
<text x="114.77" y="214" text-anchor="end" font-size="9" fill="#2196F3" transform="rotate(-45,114.77,214)">Agency</text>
<rect x="142.32" y="105.10" width="18.36" height="94.90" fill="#81C784" opacity="0.85"><title>Partner Identity: 0.000330</title></rect>
<line x1="151.50" y1="107.12" x2="151.50" y2="103.33" stroke="#333" stroke-width="1"/>
<line x1="149.50" y1="107.12" x2="153.50" y2="107.12" stroke="#333" stroke-width="1"/>
<line x1="149.50" y1="103.33" x2="153.50" y2="103.33" stroke="#333" stroke-width="1"/>
<rect x="160.68" y="114.29" width="18.36" height="85.71" fill="#BDBDBD" opacity="0.85"><title>Control: 0.000298</title></rect>
<line x1="169.86" y1="115.88" x2="169.86" y2="112.81" stroke="#333" stroke-width="1"/>
<line x1="167.86" y1="115.88" x2="171.86" y2="115.88" stroke="#333" stroke-width="1"/>
<line x1="167.86" y1="112.81" x2="171.86" y2="112.81" stroke="#333" stroke-width="1"/>
<text x="160.68" y="214" text-anchor="end" font-size="9" fill="#2196F3" transform="rotate(-45,160.68,214)">Intentions</text>
<rect x="188.23" y="101.01" width="18.36" height="98.99" fill="#81C784" opacity="0.85"><title>Partner Identity: 0.000344</title></rect>
<line x1="197.41" y1="103.80" x2="197.41" y2="98.00" stroke="#333" stroke-width="1"/>
<line x1="195.41" y1="103.80" x2="199.41" y2="103.80" stroke="#333" stroke-width="1"/>
<line x1="195.41" y1="98.00" x2="199.41" y2="98.00" stroke="#333" stroke-width="1"/>
<rect x="206.59" y="109.47" width="18.36" height="90.53" fill="#BDBDBD" opacity="0.85"><title>Control: 0.000315</title></rect>
<line x1="215.77" y1="111.96" x2="215.77" y2="106.60" stroke="#333" stroke-width="1"/>
<line x1="213.77" y1="111.96" x2="217.77" y2="111.96" stroke="#333" stroke-width="1"/>
<line x1="213.77" y1="106.60" x2="217.77" y2="106.60" stroke="#333" stroke-width="1"/>
<text x="206.59" y="214" text-anchor="end" font-size="9" fill="#2196F3" transform="rotate(-45,206.59,214)">Prediction</text>
<rect x="234.14" y="106.03" width="18.36" height="93.97" fill="#81C784" opacity="0.85"><title>Partner Identity: 0.000327</title></rect>
<line x1="243.32" y1="108.34" x2="243.32" y2="103.77" stroke="#333" stroke-width="1"/>
<line x1="241.32" y1="108.34" x2="245.32" y2="108.34" stroke="#333" stroke-width="1"/>
<line x1="241.32" y1="103.77" x2="245.32" y2="103.77" stroke="#333" stroke-width="1"/>
<rect x="252.50" y="113.73" width="18.36" height="86.27" fill="#BDBDBD" opacity="0.85"><title>Control: 0.000300</title></rect>
<line x1="261.68" y1="115.44" x2="261.68" y2="112.15" stroke="#333" stroke-width="1"/>
<line x1="259.68" y1="115.44" x2="263.68" y2="115.44" stroke="#333" stroke-width="1"/>
<line x1="259.68" y1="112.15" x2="263.68" y2="112.15" stroke="#333" stroke-width="1"/>
<text x="252.50" y="214" text-anchor="end" font-size="9" fill="#2196F3" transform="rotate(-45,252.50,214)">Cognitive</text>
<rect x="280.05" y="101.63" width="18.36" height="98.37" fill="#81C784" opacity="0.85"><title>Partner Identity: 0.000342</title></rect>
<line x1="289.23" y1="103.77" x2="289.23" y2="99.75" stroke="#333" stroke-width="1"/>
<line x1="287.23" y1="103.77" x2="291.23" y2="103.77" stroke="#333" stroke-width="1"/>
<line x1="287.23" y1="99.75" x2="291.23" y2="99.75" stroke="#333" stroke-width="1"/>
<rect x="298.41" y="112.37" width="18.36" height="87.63" fill="#BDBDBD" opacity="0.85"><title>Control: 0.000305</title></rect>
<line x1="307.59" y1="114.22" x2="307.59" y2="110.53" stroke="#333" stroke-width="1"/>
<line x1="305.59" y1="114.22" x2="309.59" y2="114.22" stroke="#333" stroke-width="1"/>
<line x1="305.59" y1="110.53" x2="309.59" y2="110.53" stroke="#333" stroke-width="1"/>
<text x="298.41" y="214" text-anchor="end" font-size="9" fill="#2196F3" transform="rotate(-45,298.41,214)">Social</text>
<rect x="325.95" y="108.98" width="18.36" height="91.02" fill="#81C784" opacity="0.85"><title>Partner Identity: 0.000317</title></rect>
<line x1="335.14" y1="110.79" x2="335.14" y2="106.96" stroke="#333" stroke-width="1"/>
<line x1="333.14" y1="110.79" x2="337.14" y2="110.79" stroke="#333" stroke-width="1"/>
<line x1="333.14" y1="106.96" x2="337.14" y2="106.96" stroke="#333" stroke-width="1"/>
<rect x="344.32" y="113.95" width="18.36" height="86.05" fill="#BDBDBD" opacity="0.85"><title>Control: 0.000299</title></rect>
<line x1="353.50" y1="115.18" x2="353.50" y2="112.66" stroke="#333" stroke-width="1"/>
<line x1="351.50" y1="115.18" x2="355.50" y2="115.18" stroke="#333" stroke-width="1"/>
<line x1="351.50" y1="112.66" x2="355.50" y2="112.66" stroke="#333" stroke-width="1"/>
<text x="344.32" y="214" text-anchor="end" font-size="9" fill="#2196F3" transform="rotate(-45,344.32,214)">Attention</text>
<rect x="371.86" y="107.52" width="18.36" height="92.48" fill="#81C784" opacity="0.85"><title>Partner Identity: 0.000322</title></rect>
<line x1="381.05" y1="109.72" x2="381.05" y2="105.12" stroke="#333" stroke-width="1"/>
<line x1="379.05" y1="109.72" x2="383.05" y2="109.72" stroke="#333" stroke-width="1"/>
<line x1="379.05" y1="105.12" x2="383.05" y2="105.12" stroke="#333" stroke-width="1"/>
<rect x="390.23" y="110.03" width="18.36" height="89.97" fill="#BDBDBD" opacity="0.85"><title>Control: 0.000313</title></rect>
<line x1="399.41" y1="112.10" x2="399.41" y2="107.95" stroke="#333" stroke-width="1"/>
<line x1="397.41" y1="112.10" x2="401.41" y2="112.10" stroke="#333" stroke-width="1"/>
<line x1="397.41" y1="107.95" x2="401.41" y2="107.95" stroke="#333" stroke-width="1"/>
<text x="390.23" y="214" text-anchor="end" font-size="9" fill="#4CAF50" transform="rotate(-45,390.23,214)">Embodiment</text>
<rect x="417.77" y="108.93" width="18.36" height="91.07" fill="#81C784" opacity="0.85"><title>Partner Identity: 0.000317</title></rect>
<line x1="426.95" y1="110.63" x2="426.95" y2="107.26" stroke="#333" stroke-width="1"/>
<line x1="424.95" y1="110.63" x2="428.95" y2="110.63" stroke="#333" stroke-width="1"/>
<line x1="424.95" y1="107.26" x2="428.95" y2="107.26" stroke="#333" stroke-width="1"/>
<rect x="436.14" y="117.74" width="18.36" height="82.26" fill="#BDBDBD" opacity="0.85"><title>Control: 0.000286</title></rect>
<line x1="445.32" y1="119.55" x2="445.32" y2="115.88" stroke="#333" stroke-width="1"/>
<line x1="443.32" y1="119.55" x2="447.32" y2="119.55" stroke="#333" stroke-width="1"/>
<line x1="443.32" y1="115.88" x2="447.32" y2="115.88" stroke="#333" stroke-width="1"/>
<text x="436.14" y="214" text-anchor="end" font-size="9" fill="#4CAF50" transform="rotate(-45,436.14,214)">Roles</text>
<rect x="463.68" y="109.98" width="18.36" height="90.02" fill="#81C784" opacity="0.85"><title>Partner Identity: 0.000313</title></rect>
<line x1="472.86" y1="112.01" x2="472.86" y2="107.98" stroke="#333" stroke-width="1"/>
<line x1="470.86" y1="112.01" x2="474.86" y2="112.01" stroke="#333" stroke-width="1"/>
<line x1="470.86" y1="107.98" x2="474.86" y2="107.98" stroke="#333" stroke-width="1"/>
<rect x="482.05" y="112.76" width="18.36" height="87.24" fill="#BDBDBD" opacity="0.85"><title>Control: 0.000303</title></rect>
<line x1="491.23" y1="114.57" x2="491.23" y2="111.20" stroke="#333" stroke-width="1"/>
<line x1="489.23" y1="114.57" x2="493.23" y2="114.57" stroke="#333" stroke-width="1"/>
<line x1="489.23" y1="111.20" x2="493.23" y2="111.20" stroke="#333" stroke-width="1"/>
<text x="482.05" y="214" text-anchor="end" font-size="9" fill="#4CAF50" transform="rotate(-45,482.05,214)">Animacy</text>
<rect x="509.59" y="108.83" width="18.36" height="91.17" fill="#81C784" opacity="0.85"><title>Partner Identity: 0.000317</title></rect>
<line x1="518.77" y1="110.51" x2="518.77" y2="107.11" stroke="#333" stroke-width="1"/>
<line x1="516.77" y1="110.51" x2="520.77" y2="110.51" stroke="#333" stroke-width="1"/>
<line x1="516.77" y1="107.11" x2="520.77" y2="107.11" stroke="#333" stroke-width="1"/>
<rect x="527.95" y="118.23" width="18.36" height="81.77" fill="#BDBDBD" opacity="0.85"><title>Control: 0.000284</title></rect>
<line x1="537.14" y1="120.03" x2="537.14" y2="116.33" stroke="#333" stroke-width="1"/>
<line x1="535.14" y1="120.03" x2="539.14" y2="120.03" stroke="#333" stroke-width="1"/>
<line x1="535.14" y1="116.33" x2="539.14" y2="116.33" stroke="#333" stroke-width="1"/>
<text x="527.95" y="214" text-anchor="end" font-size="9" fill="#FF9800" transform="rotate(-45,527.95,214)">Formality</text>
<rect x="555.50" y="106.63" width="18.36" height="93.37" fill="#81C784" opacity="0.85"><title>Partner Identity: 0.000325</title></rect>
<line x1="564.68" y1="108.94" x2="564.68" y2="104.27" stroke="#333" stroke-width="1"/>
<line x1="562.68" y1="108.94" x2="566.68" y2="108.94" stroke="#333" stroke-width="1"/>
<line x1="562.68" y1="104.27" x2="566.68" y2="104.27" stroke="#333" stroke-width="1"/>
<rect x="573.86" y="116.52" width="18.36" height="83.48" fill="#BDBDBD" opacity="0.85"><title>Control: 0.000290</title></rect>
<line x1="583.05" y1="118.36" x2="583.05" y2="114.55" stroke="#333" stroke-width="1"/>
<line x1="581.05" y1="118.36" x2="585.05" y2="118.36" stroke="#333" stroke-width="1"/>
<line x1="581.05" y1="114.55" x2="585.05" y2="114.55" stroke="#333" stroke-width="1"/>
<text x="573.86" y="214" text-anchor="end" font-size="9" fill="#FF9800" transform="rotate(-45,573.86,214)">Expertise</text>
<rect x="601.41" y="106.50" width="18.36" height="93.50" fill="#81C784" opacity="0.85"><title>Partner Identity: 0.000325</title></rect>
<line x1="610.59" y1="107.95" x2="610.59" y2="105.02" stroke="#333" stroke-width="1"/>
<line x1="608.59" y1="107.95" x2="612.59" y2="107.95" stroke="#333" stroke-width="1"/>
<line x1="608.59" y1="105.02" x2="612.59" y2="105.02" stroke="#333" stroke-width="1"/>
<rect x="619.77" y="118.57" width="18.36" height="81.43" fill="#BDBDBD" opacity="0.85"><title>Control: 0.000283</title></rect>
<line x1="628.95" y1="120.11" x2="628.95" y2="117.07" stroke="#333" stroke-width="1"/>
<line x1="626.95" y1="120.11" x2="630.95" y2="120.11" stroke="#333" stroke-width="1"/>
<line x1="626.95" y1="117.07" x2="630.95" y2="117.07" stroke="#333" stroke-width="1"/>
<text x="619.77" y="214" text-anchor="end" font-size="9" fill="#FF9800" transform="rotate(-45,619.77,214)">Helpfulness</text>
<rect x="647.32" y="104.20" width="18.36" height="95.80" fill="#81C784" opacity="0.85"><title>Partner Identity: 0.000333</title></rect>
<line x1="656.50" y1="106.53" x2="656.50" y2="101.89" stroke="#333" stroke-width="1"/>
<line x1="654.50" y1="106.53" x2="658.50" y2="106.53" stroke="#333" stroke-width="1"/>
<line x1="654.50" y1="101.89" x2="658.50" y2="101.89" stroke="#333" stroke-width="1"/>
<rect x="665.68" y="114.16" width="18.36" height="85.84" fill="#BDBDBD" opacity="0.85"><title>Control: 0.000299</title></rect>
<line x1="674.86" y1="116.46" x2="674.86" y2="111.78" stroke="#333" stroke-width="1"/>
<line x1="672.86" y1="116.46" x2="676.86" y2="116.46" stroke="#333" stroke-width="1"/>
<line x1="672.86" y1="111.78" x2="676.86" y2="111.78" stroke="#333" stroke-width="1"/>
<text x="665.68" y="214" text-anchor="end" font-size="9" fill="#7B1FA2" transform="rotate(-45,665.68,214)">Human (concept)</text>
<rect x="693.23" y="109.35" width="18.36" height="90.65" fill="#81C784" opacity="0.85"><title>Partner Identity: 0.000315</title></rect>
<line x1="702.41" y1="111.44" x2="702.41" y2="107.15" stroke="#333" stroke-width="1"/>
<line x1="700.41" y1="111.44" x2="704.41" y2="111.44" stroke="#333" stroke-width="1"/>
<line x1="700.41" y1="107.15" x2="704.41" y2="107.15" stroke="#333" stroke-width="1"/>
<rect x="711.59" y="117.36" width="18.36" height="82.64" fill="#BDBDBD" opacity="0.85"><title>Control: 0.000287</title></rect>
<line x1="720.77" y1="119.23" x2="720.77" y2="115.60" stroke="#333" stroke-width="1"/>
<line x1="718.77" y1="119.23" x2="722.77" y2="119.23" stroke="#333" stroke-width="1"/>
<line x1="718.77" y1="115.60" x2="722.77" y2="115.60" stroke="#333" stroke-width="1"/>
<text x="711.59" y="214" text-anchor="end" font-size="9" fill="#7B1FA2" transform="rotate(-45,711.59,214)">AI (concept)</text>
<rect x="739.14" y="110.53" width="18.36" height="89.47" fill="#81C784" opacity="0.85"><title>Partner Identity: 0.000311</title></rect>
<line x1="748.32" y1="112.59" x2="748.32" y2="108.60" stroke="#333" stroke-width="1"/>
<line x1="746.32" y1="112.59" x2="750.32" y2="112.59" stroke="#333" stroke-width="1"/>
<line x1="746.32" y1="108.60" x2="750.32" y2="108.60" stroke="#333" stroke-width="1"/>
<rect x="757.50" y="110.90" width="18.36" height="89.10" fill="#BDBDBD" opacity="0.85"><title>Control: 0.000310</title></rect>
<line x1="766.68" y1="112.77" x2="766.68" y2="109.15" stroke="#333" stroke-width="1"/>
<line x1="764.68" y1="112.77" x2="768.68" y2="112.77" stroke="#333" stroke-width="1"/>
<line x1="764.68" y1="109.15" x2="768.68" y2="109.15" stroke="#333" stroke-width="1"/>
<text x="757.50" y="214" text-anchor="end" font-size="9" fill="#9E9E9E" transform="rotate(-45,757.50,214)">Biological</text>
<rect x="785.05" y="110.67" width="18.36" height="89.33" fill="#81C784" opacity="0.85"><title>Partner Identity: 0.000311</title></rect>
<line x1="794.23" y1="112.21" x2="794.23" y2="109.30" stroke="#333" stroke-width="1"/>
<line x1="792.23" y1="112.21" x2="796.23" y2="112.21" stroke="#333" stroke-width="1"/>
<line x1="792.23" y1="109.30" x2="796.23" y2="109.30" stroke="#333" stroke-width="1"/>
<rect x="803.41" y="110.10" width="18.36" height="89.90" fill="#BDBDBD" opacity="0.85"><title>Control: 0.000313</title></rect>
<line x1="812.59" y1="111.62" x2="812.59" y2="108.67" stroke="#333" stroke-width="1"/>
<line x1="810.59" y1="111.62" x2="814.59" y2="111.62" stroke="#333" stroke-width="1"/>
<line x1="810.59" y1="108.67" x2="814.59" y2="108.67" stroke="#333" stroke-width="1"/>
<text x="803.41" y="214" text-anchor="end" font-size="9" fill="#9E9E9E" transform="rotate(-45,803.41,214)">Shapes</text>
<rect x="830.95" y="91.78" width="18.36" height="108.22" fill="#81C784" opacity="0.85"><title>Partner Identity: 0.000376</title></rect>
<line x1="840.14" y1="92.98" x2="840.14" y2="90.47" stroke="#333" stroke-width="1"/>
<line x1="838.14" y1="92.98" x2="842.14" y2="92.98" stroke="#333" stroke-width="1"/>
<line x1="838.14" y1="90.47" x2="842.14" y2="90.47" stroke="#333" stroke-width="1"/>
<rect x="849.32" y="99.09" width="18.36" height="100.91" fill="#BDBDBD" opacity="0.85"><title>Control: 0.000351</title></rect>
<line x1="858.50" y1="99.69" x2="858.50" y2="98.44" stroke="#333" stroke-width="1"/>
<line x1="856.50" y1="99.69" x2="860.50" y2="99.69" stroke="#333" stroke-width="1"/>
<line x1="856.50" y1="98.44" x2="860.50" y2="98.44" stroke="#333" stroke-width="1"/>
<text x="849.32" y="214" text-anchor="end" font-size="9" fill="#00BCD4" transform="rotate(-45,849.32,214)">SysPrompt (talkto human)</text>
<rect x="876.86" y="87.01" width="18.36" height="112.99" fill="#81C784" opacity="0.85"><title>Partner Identity: 0.000393</title></rect>
<line x1="886.05" y1="89.08" x2="886.05" y2="84.90" stroke="#333" stroke-width="1"/>
<line x1="884.05" y1="89.08" x2="888.05" y2="89.08" stroke="#333" stroke-width="1"/>
<line x1="884.05" y1="84.90" x2="888.05" y2="84.90" stroke="#333" stroke-width="1"/>
<rect x="895.23" y="97.43" width="18.36" height="102.57" fill="#BDBDBD" opacity="0.85"><title>Control: 0.000357</title></rect>
<line x1="904.41" y1="100.09" x2="904.41" y2="95.09" stroke="#333" stroke-width="1"/>
<line x1="902.41" y1="100.09" x2="906.41" y2="100.09" stroke="#333" stroke-width="1"/>
<line x1="902.41" y1="95.09" x2="906.41" y2="95.09" stroke="#333" stroke-width="1"/>
<text x="895.23" y="214" text-anchor="end" font-size="9" fill="#00BCD4" transform="rotate(-45,895.23,214)">SysPrompt (talkto AI)</text>
<rect x="922.77" y="101.79" width="18.36" height="98.21" fill="#81C784" opacity="0.85"><title>Partner Identity: 0.000342</title></rect>
<line x1="931.95" y1="102.96" x2="931.95" y2="100.69" stroke="#333" stroke-width="1"/>
<line x1="929.95" y1="102.96" x2="933.95" y2="102.96" stroke="#333" stroke-width="1"/>
<line x1="929.95" y1="100.69" x2="933.95" y2="100.69" stroke="#333" stroke-width="1"/>
<rect x="941.14" y="112.24" width="18.36" height="87.76" fill="#BDBDBD" opacity="0.85"><title>Control: 0.000305</title></rect>
<line x1="950.32" y1="112.82" x2="950.32" y2="111.65" stroke="#333" stroke-width="1"/>
<line x1="948.32" y1="112.82" x2="952.32" y2="112.82" stroke="#333" stroke-width="1"/>
<line x1="948.32" y1="111.65" x2="952.32" y2="111.65" stroke="#333" stroke-width="1"/>
<text x="941.14" y="214" text-anchor="end" font-size="9" fill="#00BCD4" transform="rotate(-45,941.14,214)">SysPrompt (bare human)</text>
<rect x="968.68" y="99.49" width="18.36" height="100.51" fill="#81C784" opacity="0.85"><title>Partner Identity: 0.000350</title></rect>
<line x1="977.86" y1="101.21" x2="977.86" y2="97.75" stroke="#333" stroke-width="1"/>
<line x1="975.86" y1="101.21" x2="979.86" y2="101.21" stroke="#333" stroke-width="1"/>
<line x1="975.86" y1="97.75" x2="979.86" y2="97.75" stroke="#333" stroke-width="1"/>
<rect x="987.05" y="108.34" width="18.36" height="91.66" fill="#BDBDBD" opacity="0.85"><title>Control: 0.000319</title></rect>
<line x1="996.23" y1="110.47" x2="996.23" y2="106.40" stroke="#333" stroke-width="1"/>
<line x1="994.23" y1="110.47" x2="998.23" y2="110.47" stroke="#333" stroke-width="1"/>
<line x1="994.23" y1="106.40" x2="998.23" y2="106.40" stroke="#333" stroke-width="1"/>
<text x="987.05" y="214" text-anchor="end" font-size="9" fill="#00BCD4" transform="rotate(-45,987.05,214)">SysPrompt (bare AI)</text>
<line x1="0" y1="200" x2="1010" y2="200" stroke="#333"/>
<line x1="0" y1="0" x2="0" y2="200" stroke="#333"/>
</g>
<rect x="70.0" y="324" width="10" height="10" fill="#81C784"/>
<text x="84.0" y="332" font-size="8" fill="#333">Partner Identity</text>
<rect x="272.0" y="324" width="10" height="10" fill="#BDBDBD"/>
<text x="286.0" y="332" font-size="8" fill="#333">Control</text>
</svg>