<svg viewBox="0 0 1100 340" xmlns="http://www.w3.org/2000/svg" style="width:100%;max-width:1100px;height:auto;font-family:Arial,sans-serif;">
<rect width="1100" height="340" fill="white"/>
<g transform="translate(70,30)">
<line x1="0" y1="230.0" x2="1010" y2="230.0" stroke="#eee"/>
<text x="-8" y="234.0" text-anchor="end" font-size="10" fill="#666">0.00</text>
<line x1="0" y1="184.0" x2="1010" y2="184.0" stroke="#eee"/>
<text x="-8" y="188.0" text-anchor="end" font-size="10" fill="#666">0.08</text>
<line x1="0" y1="138.0" x2="1010" y2="138.0" stroke="#eee"/>
<text x="-8" y="142.0" text-anchor="end" font-size="10" fill="#666">0.16</text>
<line x1="0" y1="92.0" x2="1010" y2="92.0" stroke="#eee"/>
<text x="-8" y="96.0" text-anchor="end" font-size="10" fill="#666">0.24</text>
<line x1="0" y1="46.0" x2="1010" y2="46.0" stroke="#eee"/>
<text x="-8" y="50.0" text-anchor="end" font-size="10" fill="#666">0.33</text>
<line x1="0" y1="0.0" x2="1010" y2="0.0" stroke="#eee"/>
<text x="-8" y="4.0" text-anchor="end" font-size="10" fill="#666">0.41</text>
<text x="-50" y="115.0" text-anchor="middle" font-size="11" fill="#333" transform="rotate(-90,-50,115.0)">Mean R² (×10⁻³)</text>
<rect x="75.8" y="43.1" width="176.8" height="186.9" fill="#81C784" opacity="0.85"><title>Metacognitive: 0.330 ×10⁻³</title></rect>
<rect x="254.5" y="44.7" width="176.8" height="185.3" fill="#2E7D32" opacity="0.85"><title>Operational: 0.327 ×10⁻³</title></rect>
<text x="252.5" y="244" text-anchor="end" font-size="10" fill="#333" transform="rotate(-35,252.5,244)">Partner Identity</text>
<rect x="580.8" y="57.4" width="176.8" height="172.6" fill="#BDBDBD" opacity="0.85"><title>Metacognitive: 0.305 ×10⁻³</title></rect>
<rect x="759.5" y="30.0" width="176.8" height="200.0" fill="#616161" opacity="0.85"><title>Operational: 0.354 ×10⁻³</title></rect>
<text x="757.5" y="244" text-anchor="end" font-size="10" fill="#333" transform="rotate(-35,757.5,244)">Control</text>
<line x1="0" y1="230" x2="1010" y2="230" stroke="#333"/>
<line x1="0" y1="0" x2="0" y2="230" stroke="#333"/>
</g>
<rect x="70" y="320" width="10" height="10" fill="#81C784"/>
<text x="84" y="328" font-size="10">Metacognitive (lighter)</text>
<rect x="210" y="320" width="10" height="10" fill="#2E7D32"/>
<text x="224" y="328" font-size="10">Operational (darker)</text>
</svg>