<svg viewBox="0 0 800 340" xmlns="http://www.w3.org/2000/svg" style="width:100%;max-width:800px;height:auto;font-family:Arial,sans-serif;">
<rect width="800" height="340" fill="white"/>

<g transform="translate(70,30)">
<line x1="0" y1="190.0" x2="710" y2="190.0" stroke="#eee" stroke-width="1"/>
<text x="-8" y="194.0" text-anchor="end" font-size="10" fill="#666">0.00</text>
<line x1="0" y1="152.0" x2="710" y2="152.0" stroke="#eee" stroke-width="1"/>
<text x="-8" y="156.0" text-anchor="end" font-size="10" fill="#666">1.67</text>
<line x1="0" y1="114.0" x2="710" y2="114.0" stroke="#eee" stroke-width="1"/>
<text x="-8" y="118.0" text-anchor="end" font-size="10" fill="#666">3.34</text>
<line x1="0" y1="76.0" x2="710" y2="76.0" stroke="#eee" stroke-width="1"/>
<text x="-8" y="80.0" text-anchor="end" font-size="10" fill="#666">5.01</text>
<line x1="0" y1="38.0" x2="710" y2="38.0" stroke="#eee" stroke-width="1"/>
<text x="-8" y="42.0" text-anchor="end" font-size="10" fill="#666">6.67</text>
<line x1="0" y1="0.0" x2="710" y2="0.0" stroke="#eee" stroke-width="1"/>
<text x="-8" y="4.0" text-anchor="end" font-size="10" fill="#666">8.34</text>
<text x="-50" y="95.0" text-anchor="middle" font-size="11" fill="#333" transform="rotate(-90,-50,95.0)">Mean R² (×10⁻³)</text>
<line x1="118.33333333333333" y1="0" x2="118.33333333333333" y2="190" stroke="#ddd" stroke-width="1" stroke-dasharray="4,3"/>
<rect x="5.92" y="82.04" width="13.81" height="107.96" fill="#2E7D32" opacity="0.85"><title>Partner Identity: 4.741 ×10⁻³</title></rect>
<line x1="12.82" y1="107.03" x2="12.82" y2="71.20" stroke="#333" stroke-width="1"/>
<line x1="10.82" y1="107.03" x2="14.82" y2="107.03" stroke="#333" stroke-width="1"/>
<line x1="10.82" y1="71.20" x2="14.82" y2="71.20" stroke="#333" stroke-width="1"/>
<rect x="21.72" y="185.96" width="13.81" height="4.04" fill="#616161" opacity="0.85"><title>Control: 0.178 ×10⁻³</title></rect>
<line x1="28.62" y1="186.88" x2="28.62" y2="184.41" stroke="#333" stroke-width="1"/>
<line x1="26.62" y1="186.88" x2="30.62" y2="186.88" stroke="#333" stroke-width="1"/>
<line x1="26.62" y1="184.41" x2="30.62" y2="184.41" stroke="#333" stroke-width="1"/>
<text x="21.7" y="204" text-anchor="end" font-size="9" fill="#9E9E9E" transform="rotate(-45,21.7,204)">Human vs AI (general)</text>
<rect x="45.36" y="143.68" width="13.81" height="46.32" fill="#2E7D32" opacity="0.85"><title>Partner Identity: 2.034 ×10⁻³</title></rect>
<line x1="52.26" y1="150.56" x2="52.26" y2="138.84" stroke="#333" stroke-width="1"/>
<line x1="50.26" y1="150.56" x2="54.26" y2="150.56" stroke="#333" stroke-width="1"/>
<line x1="50.26" y1="138.84" x2="54.26" y2="138.84" stroke="#333" stroke-width="1"/>
<rect x="61.17" y="184.48" width="13.81" height="5.52" fill="#616161" opacity="0.85"><title>Control: 0.242 ×10⁻³</title></rect>
<line x1="68.07" y1="185.33" x2="68.07" y2="183.51" stroke="#333" stroke-width="1"/>
<line x1="66.07" y1="185.33" x2="70.07" y2="185.33" stroke="#333" stroke-width="1"/>
<line x1="66.07" y1="183.51" x2="70.07" y2="183.51" stroke="#333" stroke-width="1"/>
<text x="61.2" y="204" text-anchor="end" font-size="9" fill="#9E9E9E" transform="rotate(-45,61.2,204)">Biological</text>
<rect x="84.81" y="176.90" width="13.81" height="13.10" fill="#2E7D32" opacity="0.85"><title>Partner Identity: 0.575 ×10⁻³</title></rect>
<line x1="91.71" y1="184.05" x2="91.71" y2="169.64" stroke="#333" stroke-width="1"/>
<line x1="89.71" y1="184.05" x2="93.71" y2="184.05" stroke="#333" stroke-width="1"/>
<line x1="89.71" y1="169.64" x2="93.71" y2="169.64" stroke="#333" stroke-width="1"/>
<rect x="100.61" y="184.78" width="13.81" height="5.22" fill="#616161" opacity="0.85"><title>Control: 0.229 ×10⁻³</title></rect>
<line x1="107.51" y1="186.81" x2="107.51" y2="182.52" stroke="#333" stroke-width="1"/>
<line x1="105.51" y1="186.81" x2="109.51" y2="186.81" stroke="#333" stroke-width="1"/>
<line x1="105.51" y1="182.52" x2="109.51" y2="182.52" stroke="#333" stroke-width="1"/>
<text x="100.6" y="204" text-anchor="end" font-size="9" fill="#9E9E9E" transform="rotate(-45,100.6,204)">Shapes</text>
<rect x="124.25" y="104.56" width="13.81" height="85.44" fill="#2E7D32" opacity="0.85"><title>Partner Identity: 3.752 ×10⁻³</title></rect>
<line x1="131.15" y1="119.02" x2="131.15" y2="98.56" stroke="#333" stroke-width="1"/>
<line x1="129.15" y1="119.02" x2="133.15" y2="119.02" stroke="#333" stroke-width="1"/>
<line x1="129.15" y1="98.56" x2="133.15" y2="98.56" stroke="#333" stroke-width="1"/>
<rect x="140.06" y="182.49" width="13.81" height="7.51" fill="#616161" opacity="0.85"><title>Control: 0.330 ×10⁻³</title></rect>
<line x1="146.96" y1="184.20" x2="146.96" y2="180.90" stroke="#333" stroke-width="1"/>
<line x1="144.96" y1="184.20" x2="148.96" y2="184.20" stroke="#333" stroke-width="1"/>
<line x1="144.96" y1="180.90" x2="148.96" y2="180.90" stroke="#333" stroke-width="1"/>
<text x="140.1" y="204" text-anchor="end" font-size="9" fill="#2196F3" transform="rotate(-45,140.1,204)">Phenomenology</text>
<rect x="163.69" y="96.36" width="13.81" height="93.64" fill="#2E7D32" opacity="0.85"><title>Partner Identity: 4.112 ×10⁻³</title></rect>
<line x1="170.60" y1="110.30" x2="170.60" y2="86.02" stroke="#333" stroke-width="1"/>
<line x1="168.60" y1="110.30" x2="172.60" y2="110.30" stroke="#333" stroke-width="1"/>
<line x1="168.60" y1="86.02" x2="172.60" y2="86.02" stroke="#333" stroke-width="1"/>
<rect x="179.50" y="183.41" width="13.81" height="6.59" fill="#616161" opacity="0.85"><title>Control: 0.289 ×10⁻³</title></rect>
<line x1="186.40" y1="184.48" x2="186.40" y2="182.46" stroke="#333" stroke-width="1"/>
<line x1="184.40" y1="184.48" x2="188.40" y2="184.48" stroke="#333" stroke-width="1"/>
<line x1="184.40" y1="182.46" x2="188.40" y2="182.46" stroke="#333" stroke-width="1"/>
<text x="179.5" y="204" text-anchor="end" font-size="9" fill="#2196F3" transform="rotate(-45,179.5,204)">Emotions</text>
<rect x="203.14" y="80.31" width="13.81" height="109.69" fill="#2E7D32" opacity="0.85"><title>Partner Identity: 4.817 ×10⁻³</title></rect>
<line x1="210.04" y1="99.22" x2="210.04" y2="69.00" stroke="#333" stroke-width="1"/>
<line x1="208.04" y1="99.22" x2="212.04" y2="99.22" stroke="#333" stroke-width="1"/>
<line x1="208.04" y1="69.00" x2="212.04" y2="69.00" stroke="#333" stroke-width="1"/>
<rect x="218.94" y="180.31" width="13.81" height="9.69" fill="#616161" opacity="0.85"><title>Control: 0.425 ×10⁻³</title></rect>
<line x1="225.85" y1="182.55" x2="225.85" y2="178.66" stroke="#333" stroke-width="1"/>
<line x1="223.85" y1="182.55" x2="227.85" y2="182.55" stroke="#333" stroke-width="1"/>
<line x1="223.85" y1="178.66" x2="227.85" y2="178.66" stroke="#333" stroke-width="1"/>
<text x="218.9" y="204" text-anchor="end" font-size="9" fill="#2196F3" transform="rotate(-45,218.9,204)">Agency</text>
<rect x="242.58" y="81.49" width="13.81" height="108.51" fill="#2E7D32" opacity="0.85"><title>Partner Identity: 4.765 ×10⁻³</title></rect>
<line x1="249.49" y1="100.95" x2="249.49" y2="69.31" stroke="#333" stroke-width="1"/>
<line x1="247.49" y1="100.95" x2="251.49" y2="100.95" stroke="#333" stroke-width="1"/>
<line x1="247.49" y1="69.31" x2="251.49" y2="69.31" stroke="#333" stroke-width="1"/>
<rect x="258.39" y="179.67" width="13.81" height="10.33" fill="#616161" opacity="0.85"><title>Control: 0.454 ×10⁻³</title></rect>
<line x1="265.29" y1="181.55" x2="265.29" y2="178.44" stroke="#333" stroke-width="1"/>
<line x1="263.29" y1="181.55" x2="267.29" y2="181.55" stroke="#333" stroke-width="1"/>
<line x1="263.29" y1="178.44" x2="267.29" y2="178.44" stroke="#333" stroke-width="1"/>
<text x="258.4" y="204" text-anchor="end" font-size="9" fill="#2196F3" transform="rotate(-45,258.4,204)">Intentions</text>
<rect x="282.03" y="64.99" width="13.81" height="125.01" fill="#2E7D32" opacity="0.85"><title>Partner Identity: 5.490 ×10⁻³</title></rect>
<line x1="288.93" y1="87.51" x2="288.93" y2="49.95" stroke="#333" stroke-width="1"/>
<line x1="286.93" y1="87.51" x2="290.93" y2="87.51" stroke="#333" stroke-width="1"/>
<line x1="286.93" y1="49.95" x2="290.93" y2="49.95" stroke="#333" stroke-width="1"/>
<rect x="297.83" y="181.94" width="13.81" height="8.06" fill="#616161" opacity="0.85"><title>Control: 0.354 ×10⁻³</title></rect>
<line x1="304.74" y1="183.91" x2="304.74" y2="180.28" stroke="#333" stroke-width="1"/>
<line x1="302.74" y1="183.91" x2="306.74" y2="183.91" stroke="#333" stroke-width="1"/>
<line x1="302.74" y1="180.28" x2="306.74" y2="180.28" stroke="#333" stroke-width="1"/>
<text x="297.8" y="204" text-anchor="end" font-size="9" fill="#2196F3" transform="rotate(-45,297.8,204)">Prediction</text>
<rect x="321.47" y="70.00" width="13.81" height="120.00" fill="#2E7D32" opacity="0.85"><title>Partner Identity: 5.270 ×10⁻³</title></rect>
<line x1="328.38" y1="90.42" x2="328.38" y2="58.18" stroke="#333" stroke-width="1"/>
<line x1="326.38" y1="90.42" x2="330.38" y2="90.42" stroke="#333" stroke-width="1"/>
<line x1="326.38" y1="58.18" x2="330.38" y2="58.18" stroke="#333" stroke-width="1"/>
<rect x="337.28" y="182.32" width="13.81" height="7.68" fill="#616161" opacity="0.85"><title>Control: 0.337 ×10⁻³</title></rect>
<line x1="344.18" y1="183.87" x2="344.18" y2="180.65" stroke="#333" stroke-width="1"/>
<line x1="342.18" y1="183.87" x2="346.18" y2="183.87" stroke="#333" stroke-width="1"/>
<line x1="342.18" y1="180.65" x2="346.18" y2="180.65" stroke="#333" stroke-width="1"/>
<text x="337.3" y="204" text-anchor="end" font-size="9" fill="#2196F3" transform="rotate(-45,337.3,204)">Cognitive</text>
<rect x="360.92" y="62.22" width="13.81" height="127.78" fill="#2E7D32" opacity="0.85"><title>Partner Identity: 5.611 ×10⁻³</title></rect>
<line x1="367.82" y1="83.69" x2="367.82" y2="47.47" stroke="#333" stroke-width="1"/>
<line x1="365.82" y1="83.69" x2="369.82" y2="83.69" stroke="#333" stroke-width="1"/>
<line x1="365.82" y1="47.47" x2="369.82" y2="47.47" stroke="#333" stroke-width="1"/>
<rect x="376.72" y="181.95" width="13.81" height="8.05" fill="#616161" opacity="0.85"><title>Control: 0.354 ×10⁻³</title></rect>
<line x1="383.62" y1="183.91" x2="383.62" y2="180.39" stroke="#333" stroke-width="1"/>
<line x1="381.62" y1="183.91" x2="385.62" y2="183.91" stroke="#333" stroke-width="1"/>
<line x1="381.62" y1="180.39" x2="385.62" y2="180.39" stroke="#333" stroke-width="1"/>
<text x="376.7" y="204" text-anchor="end" font-size="9" fill="#2196F3" transform="rotate(-45,376.7,204)">Social</text>
<rect x="400.36" y="48.44" width="13.81" height="141.56" fill="#2E7D32" opacity="0.85"><title>Partner Identity: 6.217 ×10⁻³</title></rect>
<line x1="407.26" y1="70.22" x2="407.26" y2="38.62" stroke="#333" stroke-width="1"/>
<line x1="405.26" y1="70.22" x2="409.26" y2="70.22" stroke="#333" stroke-width="1"/>
<line x1="405.26" y1="38.62" x2="409.26" y2="38.62" stroke="#333" stroke-width="1"/>
<rect x="416.17" y="183.07" width="13.81" height="6.93" fill="#616161" opacity="0.85"><title>Control: 0.304 ×10⁻³</title></rect>
<line x1="423.07" y1="184.49" x2="423.07" y2="181.87" stroke="#333" stroke-width="1"/>
<line x1="421.07" y1="184.49" x2="425.07" y2="184.49" stroke="#333" stroke-width="1"/>
<line x1="421.07" y1="181.87" x2="425.07" y2="181.87" stroke="#333" stroke-width="1"/>
<text x="416.2" y="204" text-anchor="end" font-size="9" fill="#2196F3" transform="rotate(-45,416.2,204)">Attention</text>
<rect x="439.81" y="115.53" width="13.81" height="74.47" fill="#2E7D32" opacity="0.85"><title>Partner Identity: 3.270 ×10⁻³</title></rect>
<line x1="446.71" y1="127.44" x2="446.71" y2="109.32" stroke="#333" stroke-width="1"/>
<line x1="444.71" y1="127.44" x2="448.71" y2="127.44" stroke="#333" stroke-width="1"/>
<line x1="444.71" y1="109.32" x2="448.71" y2="109.32" stroke="#333" stroke-width="1"/>
<rect x="455.61" y="182.31" width="13.81" height="7.69" fill="#616161" opacity="0.85"><title>Control: 0.338 ×10⁻³</title></rect>
<line x1="462.51" y1="184.06" x2="462.51" y2="180.79" stroke="#333" stroke-width="1"/>
<line x1="460.51" y1="184.06" x2="464.51" y2="184.06" stroke="#333" stroke-width="1"/>
<line x1="460.51" y1="180.79" x2="464.51" y2="180.79" stroke="#333" stroke-width="1"/>
<text x="455.6" y="204" text-anchor="end" font-size="9" fill="#4CAF50" transform="rotate(-45,455.6,204)">Embodiment</text>
<rect x="479.25" y="86.31" width="13.81" height="103.69" fill="#2E7D32" opacity="0.85"><title>Partner Identity: 4.553 ×10⁻³</title></rect>
<line x1="486.15" y1="108.55" x2="486.15" y2="69.62" stroke="#333" stroke-width="1"/>
<line x1="484.15" y1="108.55" x2="488.15" y2="108.55" stroke="#333" stroke-width="1"/>
<line x1="484.15" y1="69.62" x2="488.15" y2="69.62" stroke="#333" stroke-width="1"/>
<rect x="495.06" y="183.99" width="13.81" height="6.01" fill="#616161" opacity="0.85"><title>Control: 0.264 ×10⁻³</title></rect>
<line x1="501.96" y1="185.47" x2="501.96" y2="181.80" stroke="#333" stroke-width="1"/>
<line x1="499.96" y1="185.47" x2="503.96" y2="185.47" stroke="#333" stroke-width="1"/>
<line x1="499.96" y1="181.80" x2="503.96" y2="181.80" stroke="#333" stroke-width="1"/>
<text x="495.1" y="204" text-anchor="end" font-size="9" fill="#4CAF50" transform="rotate(-45,495.1,204)">Roles</text>
<rect x="518.69" y="123.77" width="13.81" height="66.23" fill="#2E7D32" opacity="0.85"><title>Partner Identity: 2.908 ×10⁻³</title></rect>
<line x1="525.60" y1="138.33" x2="525.60" y2="113.88" stroke="#333" stroke-width="1"/>
<line x1="523.60" y1="138.33" x2="527.60" y2="138.33" stroke="#333" stroke-width="1"/>
<line x1="523.60" y1="113.88" x2="527.60" y2="113.88" stroke="#333" stroke-width="1"/>
<rect x="534.50" y="186.05" width="13.81" height="3.95" fill="#616161" opacity="0.85"><title>Control: 0.174 ×10⁻³</title></rect>
<line x1="541.40" y1="186.75" x2="541.40" y2="184.98" stroke="#333" stroke-width="1"/>
<line x1="539.40" y1="186.75" x2="543.40" y2="186.75" stroke="#333" stroke-width="1"/>
<line x1="539.40" y1="184.98" x2="543.40" y2="184.98" stroke="#333" stroke-width="1"/>
<text x="534.5" y="204" text-anchor="end" font-size="9" fill="#4CAF50" transform="rotate(-45,534.5,204)">Animacy</text>
<rect x="558.14" y="167.96" width="13.81" height="22.04" fill="#2E7D32" opacity="0.85"><title>Partner Identity: 0.968 ×10⁻³</title></rect>
<line x1="565.04" y1="176.60" x2="565.04" y2="163.48" stroke="#333" stroke-width="1"/>
<line x1="563.04" y1="176.60" x2="567.04" y2="176.60" stroke="#333" stroke-width="1"/>
<line x1="563.04" y1="163.48" x2="567.04" y2="163.48" stroke="#333" stroke-width="1"/>
<rect x="573.94" y="185.29" width="13.81" height="4.71" fill="#616161" opacity="0.85"><title>Control: 0.207 ×10⁻³</title></rect>
<line x1="580.85" y1="187.00" x2="580.85" y2="183.29" stroke="#333" stroke-width="1"/>
<line x1="578.85" y1="187.00" x2="582.85" y2="187.00" stroke="#333" stroke-width="1"/>
<line x1="578.85" y1="183.29" x2="582.85" y2="183.29" stroke="#333" stroke-width="1"/>
<text x="573.9" y="204" text-anchor="end" font-size="9" fill="#FF9800" transform="rotate(-45,573.9,204)">Formality</text>
<rect x="597.58" y="148.99" width="13.81" height="41.01" fill="#2E7D32" opacity="0.85"><title>Partner Identity: 1.801 ×10⁻³</title></rect>
<line x1="604.49" y1="158.22" x2="604.49" y2="140.50" stroke="#333" stroke-width="1"/>
<line x1="602.49" y1="158.22" x2="606.49" y2="158.22" stroke="#333" stroke-width="1"/>
<line x1="602.49" y1="140.50" x2="606.49" y2="140.50" stroke="#333" stroke-width="1"/>
<rect x="613.39" y="184.17" width="13.81" height="5.83" fill="#616161" opacity="0.85"><title>Control: 0.256 ×10⁻³</title></rect>
<line x1="620.29" y1="184.92" x2="620.29" y2="183.42" stroke="#333" stroke-width="1"/>
<line x1="618.29" y1="184.92" x2="622.29" y2="184.92" stroke="#333" stroke-width="1"/>
<line x1="618.29" y1="183.42" x2="622.29" y2="183.42" stroke="#333" stroke-width="1"/>
<text x="613.4" y="204" text-anchor="end" font-size="9" fill="#FF9800" transform="rotate(-45,613.4,204)">Expertise</text>
<rect x="637.03" y="175.98" width="13.81" height="14.02" fill="#2E7D32" opacity="0.85"><title>Partner Identity: 0.616 ×10⁻³</title></rect>
<line x1="643.93" y1="184.88" x2="643.93" y2="166.57" stroke="#333" stroke-width="1"/>
<line x1="641.93" y1="184.88" x2="645.93" y2="184.88" stroke="#333" stroke-width="1"/>
<line x1="641.93" y1="166.57" x2="645.93" y2="166.57" stroke="#333" stroke-width="1"/>
<rect x="652.83" y="186.01" width="13.81" height="3.99" fill="#616161" opacity="0.85"><title>Control: 0.175 ×10⁻³</title></rect>
<line x1="659.74" y1="186.99" x2="659.74" y2="182.99" stroke="#333" stroke-width="1"/>
<line x1="657.74" y1="186.99" x2="661.74" y2="186.99" stroke="#333" stroke-width="1"/>
<line x1="657.74" y1="182.99" x2="661.74" y2="182.99" stroke="#333" stroke-width="1"/>
<text x="652.8" y="204" text-anchor="end" font-size="9" fill="#FF9800" transform="rotate(-45,652.8,204)">Helpfulness</text>
<rect x="676.47" y="71.92" width="13.81" height="118.08" fill="#2E7D32" opacity="0.85"><title>Partner Identity: 5.185 ×10⁻³</title></rect>
<line x1="683.38" y1="103.83" x2="683.38" y2="25.50" stroke="#333" stroke-width="1"/>
<line x1="681.38" y1="103.83" x2="685.38" y2="103.83" stroke="#333" stroke-width="1"/>
<line x1="681.38" y1="25.50" x2="685.38" y2="25.50" stroke="#333" stroke-width="1"/>
<rect x="692.28" y="186.12" width="13.81" height="3.88" fill="#616161" opacity="0.85"><title>Control: 0.170 ×10⁻³</title></rect>
<line x1="699.18" y1="186.73" x2="699.18" y2="185.55" stroke="#333" stroke-width="1"/>
<line x1="697.18" y1="186.73" x2="701.18" y2="186.73" stroke="#333" stroke-width="1"/>
<line x1="697.18" y1="185.55" x2="701.18" y2="185.55" stroke="#333" stroke-width="1"/>
<text x="692.3" y="204" text-anchor="end" font-size="9" fill="#00BCD4" transform="rotate(-45,692.3,204)">SysPrompt</text>
<line x1="0" y1="190" x2="710" y2="190" stroke="#333"/>
<line x1="0" y1="0" x2="0" y2="190" stroke="#333"/>
</g>
<rect x="70" y="320" width="10" height="10" fill="#2E7D32"/>
<text x="84" y="328" font-size="9" fill="#333">Partner Identity</text>
<rect x="210" y="320" width="10" height="10" fill="#616161"/>
<text x="224" y="328" font-size="9" fill="#333">Control</text>
</svg>