<svg viewBox="0 0 800 340" xmlns="http://www.w3.org/2000/svg" style="width:100%;max-width:800px;height:auto;font-family:Arial,sans-serif;">
<rect width="800" height="340" fill="white"/>

<g transform="translate(70,30)">
<line x1="0" y1="190.0" x2="710" y2="190.0" stroke="#eee" stroke-width="1"/>
<text x="-8" y="194.0" text-anchor="end" font-size="10" fill="#666">0.00</text>
<line x1="0" y1="152.0" x2="710" y2="152.0" stroke="#eee" stroke-width="1"/>
<text x="-8" y="156.0" text-anchor="end" font-size="10" fill="#666">1.67</text>
<line x1="0" y1="114.0" x2="710" y2="114.0" stroke="#eee" stroke-width="1"/>
<text x="-8" y="118.0" text-anchor="end" font-size="10" fill="#666">3.34</text>
<line x1="0" y1="76.0" x2="710" y2="76.0" stroke="#eee" stroke-width="1"/>
<text x="-8" y="80.0" text-anchor="end" font-size="10" fill="#666">5.01</text>
<line x1="0" y1="38.0" x2="710" y2="38.0" stroke="#eee" stroke-width="1"/>
<text x="-8" y="42.0" text-anchor="end" font-size="10" fill="#666">6.67</text>
<line x1="0" y1="0.0" x2="710" y2="0.0" stroke="#eee" stroke-width="1"/>
<text x="-8" y="4.0" text-anchor="end" font-size="10" fill="#666">8.34</text>
<text x="-50" y="95.0" text-anchor="middle" font-size="11" fill="#333" transform="rotate(-90,-50,95.0)">Mean R² (×10⁻³)</text>
<line x1="118.33333333333333" y1="0" x2="118.33333333333333" y2="190" stroke="#ddd" stroke-width="1" stroke-dasharray="4,3"/>
<rect x="5.92" y="176.65" width="13.81" height="13.35" fill="#81C784" opacity="0.85"><title>Partner Identity: 0.586 ×10⁻³</title></rect>
<line x1="12.82" y1="180.90" x2="12.82" y2="173.05" stroke="#333" stroke-width="1"/>
<line x1="10.82" y1="180.90" x2="14.82" y2="180.90" stroke="#333" stroke-width="1"/>
<line x1="10.82" y1="173.05" x2="14.82" y2="173.05" stroke="#333" stroke-width="1"/>
<rect x="21.72" y="184.55" width="13.81" height="5.45" fill="#BDBDBD" opacity="0.85"><title>Control: 0.239 ×10⁻³</title></rect>
<line x1="28.62" y1="185.55" x2="28.62" y2="183.40" stroke="#333" stroke-width="1"/>
<line x1="26.62" y1="185.55" x2="30.62" y2="185.55" stroke="#333" stroke-width="1"/>
<line x1="26.62" y1="183.40" x2="30.62" y2="183.40" stroke="#333" stroke-width="1"/>
<text x="21.7" y="204" text-anchor="end" font-size="9" fill="#9E9E9E" transform="rotate(-45,21.7,204)">Human vs AI (general)</text>
<rect x="45.36" y="185.63" width="13.81" height="4.37" fill="#81C784" opacity="0.85"><title>Partner Identity: 0.192 ×10⁻³</title></rect>
<line x1="52.26" y1="186.44" x2="52.26" y2="184.20" stroke="#333" stroke-width="1"/>
<line x1="50.26" y1="186.44" x2="54.26" y2="186.44" stroke="#333" stroke-width="1"/>
<line x1="50.26" y1="184.20" x2="54.26" y2="184.20" stroke="#333" stroke-width="1"/>
<rect x="61.17" y="184.25" width="13.81" height="5.75" fill="#BDBDBD" opacity="0.85"><title>Control: 0.253 ×10⁻³</title></rect>
<line x1="68.07" y1="184.85" x2="68.07" y2="183.71" stroke="#333" stroke-width="1"/>
<line x1="66.07" y1="184.85" x2="70.07" y2="184.85" stroke="#333" stroke-width="1"/>
<line x1="66.07" y1="183.71" x2="70.07" y2="183.71" stroke="#333" stroke-width="1"/>
<text x="61.2" y="204" text-anchor="end" font-size="9" fill="#9E9E9E" transform="rotate(-45,61.2,204)">Biological</text>
<rect x="84.81" y="175.47" width="13.81" height="14.53" fill="#81C784" opacity="0.85"><title>Partner Identity: 0.638 ×10⁻³</title></rect>
<line x1="91.71" y1="182.71" x2="91.71" y2="170.37" stroke="#333" stroke-width="1"/>
<line x1="89.71" y1="182.71" x2="93.71" y2="182.71" stroke="#333" stroke-width="1"/>
<line x1="89.71" y1="170.37" x2="93.71" y2="170.37" stroke="#333" stroke-width="1"/>
<rect x="100.61" y="184.62" width="13.81" height="5.38" fill="#BDBDBD" opacity="0.85"><title>Control: 0.236 ×10⁻³</title></rect>
<line x1="107.51" y1="186.06" x2="107.51" y2="183.54" stroke="#333" stroke-width="1"/>
<line x1="105.51" y1="186.06" x2="109.51" y2="186.06" stroke="#333" stroke-width="1"/>
<line x1="105.51" y1="183.54" x2="109.51" y2="183.54" stroke="#333" stroke-width="1"/>
<text x="100.6" y="204" text-anchor="end" font-size="9" fill="#9E9E9E" transform="rotate(-45,100.6,204)">Shapes</text>
<rect x="124.25" y="185.53" width="13.81" height="4.47" fill="#81C784" opacity="0.85"><title>Partner Identity: 0.196 ×10⁻³</title></rect>
<line x1="131.15" y1="186.54" x2="131.15" y2="183.67" stroke="#333" stroke-width="1"/>
<line x1="129.15" y1="186.54" x2="133.15" y2="186.54" stroke="#333" stroke-width="1"/>
<line x1="129.15" y1="183.67" x2="133.15" y2="183.67" stroke="#333" stroke-width="1"/>
<rect x="140.06" y="185.52" width="13.81" height="4.48" fill="#BDBDBD" opacity="0.85"><title>Control: 0.197 ×10⁻³</title></rect>
<line x1="146.96" y1="186.15" x2="146.96" y2="184.80" stroke="#333" stroke-width="1"/>
<line x1="144.96" y1="186.15" x2="148.96" y2="186.15" stroke="#333" stroke-width="1"/>
<line x1="144.96" y1="184.80" x2="148.96" y2="184.80" stroke="#333" stroke-width="1"/>
<text x="140.1" y="204" text-anchor="end" font-size="9" fill="#2196F3" transform="rotate(-45,140.1,204)">Phenomenology</text>
<rect x="163.69" y="184.56" width="13.81" height="5.44" fill="#81C784" opacity="0.85"><title>Partner Identity: 0.239 ×10⁻³</title></rect>
<line x1="170.60" y1="185.77" x2="170.60" y2="182.41" stroke="#333" stroke-width="1"/>
<line x1="168.60" y1="185.77" x2="172.60" y2="185.77" stroke="#333" stroke-width="1"/>
<line x1="168.60" y1="182.41" x2="172.60" y2="182.41" stroke="#333" stroke-width="1"/>
<rect x="179.50" y="186.56" width="13.81" height="3.44" fill="#BDBDBD" opacity="0.85"><title>Control: 0.151 ×10⁻³</title></rect>
<line x1="186.40" y1="186.90" x2="186.40" y2="186.05" stroke="#333" stroke-width="1"/>
<line x1="184.40" y1="186.90" x2="188.40" y2="186.90" stroke="#333" stroke-width="1"/>
<line x1="184.40" y1="186.05" x2="188.40" y2="186.05" stroke="#333" stroke-width="1"/>
<text x="179.5" y="204" text-anchor="end" font-size="9" fill="#2196F3" transform="rotate(-45,179.5,204)">Emotions</text>
<rect x="203.14" y="183.34" width="13.81" height="6.66" fill="#81C784" opacity="0.85"><title>Partner Identity: 0.292 ×10⁻³</title></rect>
<line x1="210.04" y1="185.62" x2="210.04" y2="176.73" stroke="#333" stroke-width="1"/>
<line x1="208.04" y1="185.62" x2="212.04" y2="185.62" stroke="#333" stroke-width="1"/>
<line x1="208.04" y1="176.73" x2="212.04" y2="176.73" stroke="#333" stroke-width="1"/>
<rect x="218.94" y="185.97" width="13.81" height="4.03" fill="#BDBDBD" opacity="0.85"><title>Control: 0.177 ×10⁻³</title></rect>
<line x1="225.85" y1="186.59" x2="225.85" y2="184.98" stroke="#333" stroke-width="1"/>
<line x1="223.85" y1="186.59" x2="227.85" y2="186.59" stroke="#333" stroke-width="1"/>
<line x1="223.85" y1="184.98" x2="227.85" y2="184.98" stroke="#333" stroke-width="1"/>
<text x="218.9" y="204" text-anchor="end" font-size="9" fill="#2196F3" transform="rotate(-45,218.9,204)">Agency</text>
<rect x="242.58" y="178.70" width="13.81" height="11.30" fill="#81C784" opacity="0.85"><title>Partner Identity: 0.496 ×10⁻³</title></rect>
<line x1="249.49" y1="184.31" x2="249.49" y2="172.33" stroke="#333" stroke-width="1"/>
<line x1="247.49" y1="184.31" x2="251.49" y2="184.31" stroke="#333" stroke-width="1"/>
<line x1="247.49" y1="172.33" x2="251.49" y2="172.33" stroke="#333" stroke-width="1"/>
<rect x="258.39" y="185.59" width="13.81" height="4.41" fill="#BDBDBD" opacity="0.85"><title>Control: 0.194 ×10⁻³</title></rect>
<line x1="265.29" y1="186.08" x2="265.29" y2="185.01" stroke="#333" stroke-width="1"/>
<line x1="263.29" y1="186.08" x2="267.29" y2="186.08" stroke="#333" stroke-width="1"/>
<line x1="263.29" y1="185.01" x2="267.29" y2="185.01" stroke="#333" stroke-width="1"/>
<text x="258.4" y="204" text-anchor="end" font-size="9" fill="#2196F3" transform="rotate(-45,258.4,204)">Intentions</text>
<rect x="282.03" y="181.15" width="13.81" height="8.85" fill="#81C784" opacity="0.85"><title>Partner Identity: 0.388 ×10⁻³</title></rect>
<line x1="288.93" y1="183.90" x2="288.93" y2="173.49" stroke="#333" stroke-width="1"/>
<line x1="286.93" y1="183.90" x2="290.93" y2="183.90" stroke="#333" stroke-width="1"/>
<line x1="286.93" y1="173.49" x2="290.93" y2="173.49" stroke="#333" stroke-width="1"/>
<rect x="297.83" y="184.84" width="13.81" height="5.16" fill="#BDBDBD" opacity="0.85"><title>Control: 0.227 ×10⁻³</title></rect>
<line x1="304.74" y1="185.50" x2="304.74" y2="184.10" stroke="#333" stroke-width="1"/>
<line x1="302.74" y1="185.50" x2="306.74" y2="185.50" stroke="#333" stroke-width="1"/>
<line x1="302.74" y1="184.10" x2="306.74" y2="184.10" stroke="#333" stroke-width="1"/>
<text x="297.8" y="204" text-anchor="end" font-size="9" fill="#2196F3" transform="rotate(-45,297.8,204)">Prediction</text>
<rect x="321.47" y="172.14" width="13.81" height="17.86" fill="#81C784" opacity="0.85"><title>Partner Identity: 0.784 ×10⁻³</title></rect>
<line x1="328.38" y1="178.30" x2="328.38" y2="168.24" stroke="#333" stroke-width="1"/>
<line x1="326.38" y1="178.30" x2="330.38" y2="178.30" stroke="#333" stroke-width="1"/>
<line x1="326.38" y1="168.24" x2="330.38" y2="168.24" stroke="#333" stroke-width="1"/>
<rect x="337.28" y="184.93" width="13.81" height="5.07" fill="#BDBDBD" opacity="0.85"><title>Control: 0.222 ×10⁻³</title></rect>
<line x1="344.18" y1="185.63" x2="344.18" y2="184.34" stroke="#333" stroke-width="1"/>
<line x1="342.18" y1="185.63" x2="346.18" y2="185.63" stroke="#333" stroke-width="1"/>
<line x1="342.18" y1="184.34" x2="346.18" y2="184.34" stroke="#333" stroke-width="1"/>
<text x="337.3" y="204" text-anchor="end" font-size="9" fill="#2196F3" transform="rotate(-45,337.3,204)">Cognitive</text>
<rect x="360.92" y="178.94" width="13.81" height="11.06" fill="#81C784" opacity="0.85"><title>Partner Identity: 0.486 ×10⁻³</title></rect>
<line x1="367.82" y1="183.28" x2="367.82" y2="168.96" stroke="#333" stroke-width="1"/>
<line x1="365.82" y1="183.28" x2="369.82" y2="183.28" stroke="#333" stroke-width="1"/>
<line x1="365.82" y1="168.96" x2="369.82" y2="168.96" stroke="#333" stroke-width="1"/>
<rect x="376.72" y="185.19" width="13.81" height="4.81" fill="#BDBDBD" opacity="0.85"><title>Control: 0.211 ×10⁻³</title></rect>
<line x1="383.62" y1="185.85" x2="383.62" y2="184.25" stroke="#333" stroke-width="1"/>
<line x1="381.62" y1="185.85" x2="385.62" y2="185.85" stroke="#333" stroke-width="1"/>
<line x1="381.62" y1="184.25" x2="385.62" y2="184.25" stroke="#333" stroke-width="1"/>
<text x="376.7" y="204" text-anchor="end" font-size="9" fill="#2196F3" transform="rotate(-45,376.7,204)">Social</text>
<rect x="400.36" y="174.58" width="13.81" height="15.42" fill="#81C784" opacity="0.85"><title>Partner Identity: 0.677 ×10⁻³</title></rect>
<line x1="407.26" y1="180.23" x2="407.26" y2="169.09" stroke="#333" stroke-width="1"/>
<line x1="405.26" y1="180.23" x2="409.26" y2="180.23" stroke="#333" stroke-width="1"/>
<line x1="405.26" y1="169.09" x2="409.26" y2="169.09" stroke="#333" stroke-width="1"/>
<rect x="416.17" y="184.58" width="13.81" height="5.42" fill="#BDBDBD" opacity="0.85"><title>Control: 0.238 ×10⁻³</title></rect>
<line x1="423.07" y1="185.31" x2="423.07" y2="183.99" stroke="#333" stroke-width="1"/>
<line x1="421.07" y1="185.31" x2="425.07" y2="185.31" stroke="#333" stroke-width="1"/>
<line x1="421.07" y1="183.99" x2="425.07" y2="183.99" stroke="#333" stroke-width="1"/>
<text x="416.2" y="204" text-anchor="end" font-size="9" fill="#2196F3" transform="rotate(-45,416.2,204)">Attention</text>
<rect x="439.81" y="186.03" width="13.81" height="3.97" fill="#81C784" opacity="0.85"><title>Partner Identity: 0.174 ×10⁻³</title></rect>
<line x1="446.71" y1="187.25" x2="446.71" y2="183.55" stroke="#333" stroke-width="1"/>
<line x1="444.71" y1="187.25" x2="448.71" y2="187.25" stroke="#333" stroke-width="1"/>
<line x1="444.71" y1="183.55" x2="448.71" y2="183.55" stroke="#333" stroke-width="1"/>
<rect x="455.61" y="184.58" width="13.81" height="5.42" fill="#BDBDBD" opacity="0.85"><title>Control: 0.238 ×10⁻³</title></rect>
<line x1="462.51" y1="185.37" x2="462.51" y2="183.82" stroke="#333" stroke-width="1"/>
<line x1="460.51" y1="185.37" x2="464.51" y2="185.37" stroke="#333" stroke-width="1"/>
<line x1="460.51" y1="183.82" x2="464.51" y2="183.82" stroke="#333" stroke-width="1"/>
<text x="455.6" y="204" text-anchor="end" font-size="9" fill="#4CAF50" transform="rotate(-45,455.6,204)">Embodiment</text>
<rect x="479.25" y="184.92" width="13.81" height="5.08" fill="#81C784" opacity="0.85"><title>Partner Identity: 0.223 ×10⁻³</title></rect>
<line x1="486.15" y1="185.82" x2="486.15" y2="182.91" stroke="#333" stroke-width="1"/>
<line x1="484.15" y1="185.82" x2="488.15" y2="185.82" stroke="#333" stroke-width="1"/>
<line x1="484.15" y1="182.91" x2="488.15" y2="182.91" stroke="#333" stroke-width="1"/>
<rect x="495.06" y="185.58" width="13.81" height="4.42" fill="#BDBDBD" opacity="0.85"><title>Control: 0.194 ×10⁻³</title></rect>
<line x1="501.96" y1="186.16" x2="501.96" y2="185.02" stroke="#333" stroke-width="1"/>
<line x1="499.96" y1="186.16" x2="503.96" y2="186.16" stroke="#333" stroke-width="1"/>
<line x1="499.96" y1="185.02" x2="503.96" y2="185.02" stroke="#333" stroke-width="1"/>
<text x="495.1" y="204" text-anchor="end" font-size="9" fill="#4CAF50" transform="rotate(-45,495.1,204)">Roles</text>
<rect x="518.69" y="179.14" width="13.81" height="10.86" fill="#81C784" opacity="0.85"><title>Partner Identity: 0.477 ×10⁻³</title></rect>
<line x1="525.60" y1="182.40" x2="525.60" y2="176.06" stroke="#333" stroke-width="1"/>
<line x1="523.60" y1="182.40" x2="527.60" y2="182.40" stroke="#333" stroke-width="1"/>
<line x1="523.60" y1="176.06" x2="527.60" y2="176.06" stroke="#333" stroke-width="1"/>
<rect x="534.50" y="184.45" width="13.81" height="5.55" fill="#BDBDBD" opacity="0.85"><title>Control: 0.244 ×10⁻³</title></rect>
<line x1="541.40" y1="185.19" x2="541.40" y2="183.83" stroke="#333" stroke-width="1"/>
<line x1="539.40" y1="185.19" x2="543.40" y2="185.19" stroke="#333" stroke-width="1"/>
<line x1="539.40" y1="183.83" x2="543.40" y2="183.83" stroke="#333" stroke-width="1"/>
<text x="534.5" y="204" text-anchor="end" font-size="9" fill="#4CAF50" transform="rotate(-45,534.5,204)">Animacy</text>
<rect x="558.14" y="181.52" width="13.81" height="8.48" fill="#81C784" opacity="0.85"><title>Partner Identity: 0.372 ×10⁻³</title></rect>
<line x1="565.04" y1="185.65" x2="565.04" y2="178.11" stroke="#333" stroke-width="1"/>
<line x1="563.04" y1="185.65" x2="567.04" y2="185.65" stroke="#333" stroke-width="1"/>
<line x1="563.04" y1="178.11" x2="567.04" y2="178.11" stroke="#333" stroke-width="1"/>
<rect x="573.94" y="183.85" width="13.81" height="6.15" fill="#BDBDBD" opacity="0.85"><title>Control: 0.270 ×10⁻³</title></rect>
<line x1="580.85" y1="185.54" x2="580.85" y2="182.57" stroke="#333" stroke-width="1"/>
<line x1="578.85" y1="185.54" x2="582.85" y2="185.54" stroke="#333" stroke-width="1"/>
<line x1="578.85" y1="182.57" x2="582.85" y2="182.57" stroke="#333" stroke-width="1"/>
<text x="573.9" y="204" text-anchor="end" font-size="9" fill="#FF9800" transform="rotate(-45,573.9,204)">Formality</text>
<rect x="597.58" y="177.27" width="13.81" height="12.73" fill="#81C784" opacity="0.85"><title>Partner Identity: 0.559 ×10⁻³</title></rect>
<line x1="604.49" y1="180.10" x2="604.49" y2="174.09" stroke="#333" stroke-width="1"/>
<line x1="602.49" y1="180.10" x2="606.49" y2="180.10" stroke="#333" stroke-width="1"/>
<line x1="602.49" y1="174.09" x2="606.49" y2="174.09" stroke="#333" stroke-width="1"/>
<rect x="613.39" y="185.21" width="13.81" height="4.79" fill="#BDBDBD" opacity="0.85"><title>Control: 0.210 ×10⁻³</title></rect>
<line x1="620.29" y1="185.67" x2="620.29" y2="184.63" stroke="#333" stroke-width="1"/>
<line x1="618.29" y1="185.67" x2="622.29" y2="185.67" stroke="#333" stroke-width="1"/>
<line x1="618.29" y1="184.63" x2="622.29" y2="184.63" stroke="#333" stroke-width="1"/>
<text x="613.4" y="204" text-anchor="end" font-size="9" fill="#FF9800" transform="rotate(-45,613.4,204)">Expertise</text>
<rect x="637.03" y="174.65" width="13.81" height="15.35" fill="#81C784" opacity="0.85"><title>Partner Identity: 0.674 ×10⁻³</title></rect>
<line x1="643.93" y1="184.63" x2="643.93" y2="170.69" stroke="#333" stroke-width="1"/>
<line x1="641.93" y1="184.63" x2="645.93" y2="184.63" stroke="#333" stroke-width="1"/>
<line x1="641.93" y1="170.69" x2="645.93" y2="170.69" stroke="#333" stroke-width="1"/>
<rect x="652.83" y="183.85" width="13.81" height="6.15" fill="#BDBDBD" opacity="0.85"><title>Control: 0.270 ×10⁻³</title></rect>
<line x1="659.74" y1="185.79" x2="659.74" y2="183.25" stroke="#333" stroke-width="1"/>
<line x1="657.74" y1="185.79" x2="661.74" y2="185.79" stroke="#333" stroke-width="1"/>
<line x1="657.74" y1="183.25" x2="661.74" y2="183.25" stroke="#333" stroke-width="1"/>
<text x="652.8" y="204" text-anchor="end" font-size="9" fill="#FF9800" transform="rotate(-45,652.8,204)">Helpfulness</text>
<rect x="676.47" y="169.61" width="13.81" height="20.39" fill="#81C784" opacity="0.85"><title>Partner Identity: 0.895 ×10⁻³</title></rect>
<line x1="683.38" y1="173.88" x2="683.38" y2="165.05" stroke="#333" stroke-width="1"/>
<line x1="681.38" y1="173.88" x2="685.38" y2="173.88" stroke="#333" stroke-width="1"/>
<line x1="681.38" y1="165.05" x2="685.38" y2="165.05" stroke="#333" stroke-width="1"/>
<rect x="692.28" y="185.69" width="13.81" height="4.31" fill="#BDBDBD" opacity="0.85"><title>Control: 0.189 ×10⁻³</title></rect>
<line x1="699.18" y1="186.15" x2="699.18" y2="185.16" stroke="#333" stroke-width="1"/>
<line x1="697.18" y1="186.15" x2="701.18" y2="186.15" stroke="#333" stroke-width="1"/>
<line x1="697.18" y1="185.16" x2="701.18" y2="185.16" stroke="#333" stroke-width="1"/>
<text x="692.3" y="204" text-anchor="end" font-size="9" fill="#00BCD4" transform="rotate(-45,692.3,204)">SysPrompt</text>
<line x1="0" y1="190" x2="710" y2="190" stroke="#333"/>
<line x1="0" y1="0" x2="0" y2="190" stroke="#333"/>
</g>
<rect x="70" y="320" width="10" height="10" fill="#81C784"/>
<text x="84" y="328" font-size="9" fill="#333">Partner Identity</text>
<rect x="210" y="320" width="10" height="10" fill="#BDBDBD"/>
<text x="224" y="328" font-size="9" fill="#333">Control</text>
</svg>