<svg viewBox="0 0 800 320" xmlns="http://www.w3.org/2000/svg" style="width:100%;max-width:800px;height:auto;font-family:Arial,sans-serif;">
<rect width="800" height="320" fill="white"/>

<g transform="translate(70,30)">
<line x1="0" y1="180.0" x2="710" y2="180.0" stroke="#eee" stroke-width="1"/>
<text x="-8" y="184.0" text-anchor="end" font-size="10" fill="#666">0.00</text>
<line x1="0" y1="144.0" x2="710" y2="144.0" stroke="#eee" stroke-width="1"/>
<text x="-8" y="148.0" text-anchor="end" font-size="10" fill="#666">1.67</text>
<line x1="0" y1="108.0" x2="710" y2="108.0" stroke="#eee" stroke-width="1"/>
<text x="-8" y="112.0" text-anchor="end" font-size="10" fill="#666">3.34</text>
<line x1="0" y1="72.0" x2="710" y2="72.0" stroke="#eee" stroke-width="1"/>
<text x="-8" y="76.0" text-anchor="end" font-size="10" fill="#666">5.01</text>
<line x1="0" y1="36.0" x2="710" y2="36.0" stroke="#eee" stroke-width="1"/>
<text x="-8" y="40.0" text-anchor="end" font-size="10" fill="#666">6.67</text>
<line x1="0" y1="0.0" x2="710" y2="0.0" stroke="#eee" stroke-width="1"/>
<text x="-8" y="4.0" text-anchor="end" font-size="10" fill="#666">8.34</text>
<text x="-50" y="90.0" text-anchor="middle" font-size="11" fill="#333" transform="rotate(-90,-50,90.0)">Mean R² (×10⁻³)</text>
<rect x="9.68" y="175.76" width="22.59" height="4.24" fill="#81C784" opacity="0.85"><title>Partner Identity — Phenomenology: 0.196 ×10⁻³</title></rect>
<line x1="20.98" y1="176.72" x2="20.98" y2="174.00" stroke="#333" stroke-width="1"/>
<line x1="18.98" y1="176.72" x2="22.98" y2="176.72" stroke="#333" stroke-width="1"/>
<line x1="18.98" y1="174.00" x2="22.98" y2="174.00" stroke="#333" stroke-width="1"/>
<rect x="34.27" y="175.75" width="22.59" height="4.25" fill="#BDBDBD" opacity="0.85"><title>Control — Phenomenology: 0.197 ×10⁻³</title></rect>
<line x1="45.57" y1="176.35" x2="45.57" y2="175.08" stroke="#333" stroke-width="1"/>
<line x1="43.57" y1="176.35" x2="47.57" y2="176.35" stroke="#333" stroke-width="1"/>
<line x1="43.57" y1="175.08" x2="47.57" y2="175.08" stroke="#333" stroke-width="1"/>
<text x="34.3" y="194" text-anchor="end" font-size="10" fill="#2196F3" transform="rotate(-30,34.3,194)">Phenomenology</text>
<rect x="74.23" y="174.85" width="22.59" height="5.15" fill="#81C784" opacity="0.85"><title>Partner Identity — Emotions: 0.239 ×10⁻³</title></rect>
<line x1="85.52" y1="176.00" x2="85.52" y2="172.81" stroke="#333" stroke-width="1"/>
<line x1="83.52" y1="176.00" x2="87.52" y2="176.00" stroke="#333" stroke-width="1"/>
<line x1="83.52" y1="172.81" x2="87.52" y2="172.81" stroke="#333" stroke-width="1"/>
<rect x="98.82" y="176.74" width="22.59" height="3.26" fill="#BDBDBD" opacity="0.85"><title>Control — Emotions: 0.151 ×10⁻³</title></rect>
<line x1="110.11" y1="177.06" x2="110.11" y2="176.26" stroke="#333" stroke-width="1"/>
<line x1="108.11" y1="177.06" x2="112.11" y2="177.06" stroke="#333" stroke-width="1"/>
<line x1="108.11" y1="176.26" x2="112.11" y2="176.26" stroke="#333" stroke-width="1"/>
<text x="98.8" y="194" text-anchor="end" font-size="10" fill="#2196F3" transform="rotate(-30,98.8,194)">Emotions</text>
<rect x="138.77" y="173.69" width="22.59" height="6.31" fill="#81C784" opacity="0.85"><title>Partner Identity — Agency: 0.292 ×10⁻³</title></rect>
<line x1="150.07" y1="175.85" x2="150.07" y2="167.43" stroke="#333" stroke-width="1"/>
<line x1="148.07" y1="175.85" x2="152.07" y2="175.85" stroke="#333" stroke-width="1"/>
<line x1="148.07" y1="167.43" x2="152.07" y2="167.43" stroke="#333" stroke-width="1"/>
<rect x="163.36" y="176.18" width="22.59" height="3.82" fill="#BDBDBD" opacity="0.85"><title>Control — Agency: 0.177 ×10⁻³</title></rect>
<line x1="174.66" y1="176.77" x2="174.66" y2="175.24" stroke="#333" stroke-width="1"/>
<line x1="172.66" y1="176.77" x2="176.66" y2="176.77" stroke="#333" stroke-width="1"/>
<line x1="172.66" y1="175.24" x2="176.66" y2="175.24" stroke="#333" stroke-width="1"/>
<text x="163.4" y="194" text-anchor="end" font-size="10" fill="#2196F3" transform="rotate(-30,163.4,194)">Agency</text>
<rect x="203.32" y="169.29" width="22.59" height="10.71" fill="#81C784" opacity="0.85"><title>Partner Identity — Intentions: 0.496 ×10⁻³</title></rect>
<line x1="214.61" y1="174.61" x2="214.61" y2="163.26" stroke="#333" stroke-width="1"/>
<line x1="212.61" y1="174.61" x2="216.61" y2="174.61" stroke="#333" stroke-width="1"/>
<line x1="212.61" y1="163.26" x2="216.61" y2="163.26" stroke="#333" stroke-width="1"/>
<rect x="227.91" y="175.82" width="22.59" height="4.18" fill="#BDBDBD" opacity="0.85"><title>Control — Intentions: 0.194 ×10⁻³</title></rect>
<line x1="239.20" y1="176.28" x2="239.20" y2="175.27" stroke="#333" stroke-width="1"/>
<line x1="237.20" y1="176.28" x2="241.20" y2="176.28" stroke="#333" stroke-width="1"/>
<line x1="237.20" y1="175.27" x2="241.20" y2="175.27" stroke="#333" stroke-width="1"/>
<text x="227.9" y="194" text-anchor="end" font-size="10" fill="#2196F3" transform="rotate(-30,227.9,194)">Intentions</text>
<rect x="267.86" y="171.62" width="22.59" height="8.38" fill="#81C784" opacity="0.85"><title>Partner Identity — Prediction: 0.388 ×10⁻³</title></rect>
<line x1="279.16" y1="174.22" x2="279.16" y2="164.36" stroke="#333" stroke-width="1"/>
<line x1="277.16" y1="174.22" x2="281.16" y2="174.22" stroke="#333" stroke-width="1"/>
<line x1="277.16" y1="164.36" x2="281.16" y2="164.36" stroke="#333" stroke-width="1"/>
<rect x="292.45" y="175.11" width="22.59" height="4.89" fill="#BDBDBD" opacity="0.85"><title>Control — Prediction: 0.227 ×10⁻³</title></rect>
<line x1="303.75" y1="175.74" x2="303.75" y2="174.41" stroke="#333" stroke-width="1"/>
<line x1="301.75" y1="175.74" x2="305.75" y2="175.74" stroke="#333" stroke-width="1"/>
<line x1="301.75" y1="174.41" x2="305.75" y2="174.41" stroke="#333" stroke-width="1"/>
<text x="292.5" y="194" text-anchor="end" font-size="10" fill="#2196F3" transform="rotate(-30,292.5,194)">Prediction</text>
<rect x="332.41" y="163.08" width="22.59" height="16.92" fill="#81C784" opacity="0.85"><title>Partner Identity — Cognitive: 0.784 ×10⁻³</title></rect>
<line x1="343.70" y1="168.91" x2="343.70" y2="159.39" stroke="#333" stroke-width="1"/>
<line x1="341.70" y1="168.91" x2="345.70" y2="168.91" stroke="#333" stroke-width="1"/>
<line x1="341.70" y1="159.39" x2="345.70" y2="159.39" stroke="#333" stroke-width="1"/>
<rect x="357.00" y="175.20" width="22.59" height="4.80" fill="#BDBDBD" opacity="0.85"><title>Control — Cognitive: 0.222 ×10⁻³</title></rect>
<line x1="368.30" y1="175.86" x2="368.30" y2="174.64" stroke="#333" stroke-width="1"/>
<line x1="366.30" y1="175.86" x2="370.30" y2="175.86" stroke="#333" stroke-width="1"/>
<line x1="366.30" y1="174.64" x2="370.30" y2="174.64" stroke="#333" stroke-width="1"/>
<text x="357.0" y="194" text-anchor="end" font-size="10" fill="#2196F3" transform="rotate(-30,357.0,194)">Cognitive</text>
<rect x="396.95" y="169.52" width="22.59" height="10.48" fill="#81C784" opacity="0.85"><title>Partner Identity — Social: 0.486 ×10⁻³</title></rect>
<line x1="408.25" y1="173.64" x2="408.25" y2="160.06" stroke="#333" stroke-width="1"/>
<line x1="406.25" y1="173.64" x2="410.25" y2="173.64" stroke="#333" stroke-width="1"/>
<line x1="406.25" y1="160.06" x2="410.25" y2="160.06" stroke="#333" stroke-width="1"/>
<rect x="421.55" y="175.45" width="22.59" height="4.55" fill="#BDBDBD" opacity="0.85"><title>Control — Social: 0.211 ×10⁻³</title></rect>
<line x1="432.84" y1="176.07" x2="432.84" y2="174.55" stroke="#333" stroke-width="1"/>
<line x1="430.84" y1="176.07" x2="434.84" y2="176.07" stroke="#333" stroke-width="1"/>
<line x1="430.84" y1="174.55" x2="434.84" y2="174.55" stroke="#333" stroke-width="1"/>
<text x="421.5" y="194" text-anchor="end" font-size="10" fill="#2196F3" transform="rotate(-30,421.5,194)">Social</text>
<rect x="461.50" y="165.39" width="22.59" height="14.61" fill="#81C784" opacity="0.85"><title>Partner Identity — Attention: 0.677 ×10⁻³</title></rect>
<line x1="472.80" y1="170.74" x2="472.80" y2="160.19" stroke="#333" stroke-width="1"/>
<line x1="470.80" y1="170.74" x2="474.80" y2="170.74" stroke="#333" stroke-width="1"/>
<line x1="470.80" y1="160.19" x2="474.80" y2="160.19" stroke="#333" stroke-width="1"/>
<rect x="486.09" y="174.87" width="22.59" height="5.13" fill="#BDBDBD" opacity="0.85"><title>Control — Attention: 0.238 ×10⁻³</title></rect>
<line x1="497.39" y1="175.56" x2="497.39" y2="174.31" stroke="#333" stroke-width="1"/>
<line x1="495.39" y1="175.56" x2="499.39" y2="175.56" stroke="#333" stroke-width="1"/>
<line x1="495.39" y1="174.31" x2="499.39" y2="174.31" stroke="#333" stroke-width="1"/>
<text x="486.1" y="194" text-anchor="end" font-size="10" fill="#2196F3" transform="rotate(-30,486.1,194)">Attention</text>
<line x1="516.3636363636364" y1="0" x2="516.3636363636364" y2="180" stroke="#ccc" stroke-width="1" stroke-dasharray="4,3"/>
<rect x="526.05" y="167.36" width="22.59" height="12.64" fill="#81C784" opacity="0.5"><title>Partner Identity — Human vs AI (general): 0.586 ×10⁻³</title></rect>
<line x1="537.34" y1="171.38" x2="537.34" y2="163.94" stroke="#333" stroke-width="1"/>
<line x1="535.34" y1="171.38" x2="539.34" y2="171.38" stroke="#333" stroke-width="1"/>
<line x1="535.34" y1="163.94" x2="539.34" y2="163.94" stroke="#333" stroke-width="1"/>
<rect x="550.64" y="174.84" width="22.59" height="5.16" fill="#BDBDBD" opacity="0.5"><title>Control — Human vs AI (general): 0.239 ×10⁻³</title></rect>
<line x1="561.93" y1="175.78" x2="561.93" y2="173.75" stroke="#333" stroke-width="1"/>
<line x1="559.93" y1="175.78" x2="563.93" y2="175.78" stroke="#333" stroke-width="1"/>
<line x1="559.93" y1="173.75" x2="563.93" y2="173.75" stroke="#333" stroke-width="1"/>
<text x="550.6" y="194" text-anchor="end" font-size="10" fill="#9E9E9E" transform="rotate(-30,550.6,194)">Human vs AI (general)</text>
<rect x="590.59" y="175.86" width="22.59" height="4.14" fill="#81C784" opacity="0.5"><title>Partner Identity — Biological: 0.192 ×10⁻³</title></rect>
<line x1="601.89" y1="176.63" x2="601.89" y2="174.50" stroke="#333" stroke-width="1"/>
<line x1="599.89" y1="176.63" x2="603.89" y2="176.63" stroke="#333" stroke-width="1"/>
<line x1="599.89" y1="174.50" x2="603.89" y2="174.50" stroke="#333" stroke-width="1"/>
<rect x="615.18" y="174.55" width="22.59" height="5.45" fill="#BDBDBD" opacity="0.5"><title>Control — Biological: 0.253 ×10⁻³</title></rect>
<line x1="626.48" y1="175.12" x2="626.48" y2="174.04" stroke="#333" stroke-width="1"/>
<line x1="624.48" y1="175.12" x2="628.48" y2="175.12" stroke="#333" stroke-width="1"/>
<line x1="624.48" y1="174.04" x2="628.48" y2="174.04" stroke="#333" stroke-width="1"/>
<text x="615.2" y="194" text-anchor="end" font-size="10" fill="#9E9E9E" transform="rotate(-30,615.2,194)">Biological</text>
<rect x="655.14" y="166.23" width="22.59" height="13.77" fill="#81C784" opacity="0.5"><title>Partner Identity — Shapes: 0.638 ×10⁻³</title></rect>
<line x1="666.43" y1="173.09" x2="666.43" y2="161.40" stroke="#333" stroke-width="1"/>
<line x1="664.43" y1="173.09" x2="668.43" y2="173.09" stroke="#333" stroke-width="1"/>
<line x1="664.43" y1="161.40" x2="668.43" y2="161.40" stroke="#333" stroke-width="1"/>
<rect x="679.73" y="174.90" width="22.59" height="5.10" fill="#BDBDBD" opacity="0.5"><title>Control — Shapes: 0.236 ×10⁻³</title></rect>
<line x1="691.02" y1="176.27" x2="691.02" y2="173.88" stroke="#333" stroke-width="1"/>
<line x1="689.02" y1="176.27" x2="693.02" y2="176.27" stroke="#333" stroke-width="1"/>
<line x1="689.02" y1="173.88" x2="693.02" y2="173.88" stroke="#333" stroke-width="1"/>
<text x="679.7" y="194" text-anchor="end" font-size="10" fill="#9E9E9E" transform="rotate(-30,679.7,194)">Shapes</text>
<line x1="0" y1="180" x2="710" y2="180" stroke="#333"/>
<line x1="0" y1="0" x2="0" y2="180" stroke="#333"/>
</g>
<rect x="70" y="300" width="10" height="10" fill="#81C784"/>
<text x="84" y="308" font-size="9" fill="#333">Partner Identity</text>
<rect x="210" y="300" width="10" height="10" fill="#BDBDBD"/>
<text x="224" y="308" font-size="9" fill="#333">Control</text>
</svg>