<svg viewBox="0 0 800 320" xmlns="http://www.w3.org/2000/svg" style="width:100%;max-width:800px;height:auto;font-family:Arial,sans-serif;">
<rect width="800" height="320" fill="white"/>

<g transform="translate(70,30)">
<line x1="0" y1="180.0" x2="710" y2="180.0" stroke="#eee" stroke-width="1"/>
<text x="-8" y="184.0" text-anchor="end" font-size="10" fill="#666">0.00</text>
<line x1="0" y1="144.0" x2="710" y2="144.0" stroke="#eee" stroke-width="1"/>
<text x="-8" y="148.0" text-anchor="end" font-size="10" fill="#666">1.67</text>
<line x1="0" y1="108.0" x2="710" y2="108.0" stroke="#eee" stroke-width="1"/>
<text x="-8" y="112.0" text-anchor="end" font-size="10" fill="#666">3.34</text>
<line x1="0" y1="72.0" x2="710" y2="72.0" stroke="#eee" stroke-width="1"/>
<text x="-8" y="76.0" text-anchor="end" font-size="10" fill="#666">5.01</text>
<line x1="0" y1="36.0" x2="710" y2="36.0" stroke="#eee" stroke-width="1"/>
<text x="-8" y="40.0" text-anchor="end" font-size="10" fill="#666">6.67</text>
<line x1="0" y1="0.0" x2="710" y2="0.0" stroke="#eee" stroke-width="1"/>
<text x="-8" y="4.0" text-anchor="end" font-size="10" fill="#666">8.34</text>
<text x="-50" y="90.0" text-anchor="middle" font-size="11" fill="#333" transform="rotate(-90,-50,90.0)">Mean R² (×10⁻³)</text>
<rect x="9.68" y="99.06" width="22.59" height="80.94" fill="#2E7D32" opacity="0.85"><title>Partner Identity — Phenomenology: 3.752 ×10⁻³</title></rect>
<line x1="20.98" y1="112.75" x2="20.98" y2="93.37" stroke="#333" stroke-width="1"/>
<line x1="18.98" y1="112.75" x2="22.98" y2="112.75" stroke="#333" stroke-width="1"/>
<line x1="18.98" y1="93.37" x2="22.98" y2="93.37" stroke="#333" stroke-width="1"/>
<rect x="34.27" y="172.89" width="22.59" height="7.11" fill="#616161" opacity="0.85"><title>Control — Phenomenology: 0.330 ×10⁻³</title></rect>
<line x1="45.57" y1="174.50" x2="45.57" y2="171.38" stroke="#333" stroke-width="1"/>
<line x1="43.57" y1="174.50" x2="47.57" y2="174.50" stroke="#333" stroke-width="1"/>
<line x1="43.57" y1="171.38" x2="47.57" y2="171.38" stroke="#333" stroke-width="1"/>
<text x="34.3" y="194" text-anchor="end" font-size="10" fill="#2196F3" transform="rotate(-30,34.3,194)">Phenomenology</text>
<rect x="74.23" y="91.29" width="22.59" height="88.71" fill="#2E7D32" opacity="0.85"><title>Partner Identity — Emotions: 4.112 ×10⁻³</title></rect>
<line x1="85.52" y1="104.49" x2="85.52" y2="81.50" stroke="#333" stroke-width="1"/>
<line x1="83.52" y1="104.49" x2="87.52" y2="104.49" stroke="#333" stroke-width="1"/>
<line x1="83.52" y1="81.50" x2="87.52" y2="81.50" stroke="#333" stroke-width="1"/>
<rect x="98.82" y="173.76" width="22.59" height="6.24" fill="#616161" opacity="0.85"><title>Control — Emotions: 0.289 ×10⁻³</title></rect>
<line x1="110.11" y1="174.77" x2="110.11" y2="172.85" stroke="#333" stroke-width="1"/>
<line x1="108.11" y1="174.77" x2="112.11" y2="174.77" stroke="#333" stroke-width="1"/>
<line x1="108.11" y1="172.85" x2="112.11" y2="172.85" stroke="#333" stroke-width="1"/>
<text x="98.8" y="194" text-anchor="end" font-size="10" fill="#2196F3" transform="rotate(-30,98.8,194)">Emotions</text>
<rect x="138.77" y="76.09" width="22.59" height="103.91" fill="#2E7D32" opacity="0.85"><title>Partner Identity — Agency: 4.817 ×10⁻³</title></rect>
<line x1="150.07" y1="94.00" x2="150.07" y2="65.37" stroke="#333" stroke-width="1"/>
<line x1="148.07" y1="94.00" x2="152.07" y2="94.00" stroke="#333" stroke-width="1"/>
<line x1="148.07" y1="65.37" x2="152.07" y2="65.37" stroke="#333" stroke-width="1"/>
<rect x="163.36" y="170.82" width="22.59" height="9.18" fill="#616161" opacity="0.85"><title>Control — Agency: 0.425 ×10⁻³</title></rect>
<line x1="174.66" y1="172.95" x2="174.66" y2="169.25" stroke="#333" stroke-width="1"/>
<line x1="172.66" y1="172.95" x2="176.66" y2="172.95" stroke="#333" stroke-width="1"/>
<line x1="172.66" y1="169.25" x2="176.66" y2="169.25" stroke="#333" stroke-width="1"/>
<text x="163.4" y="194" text-anchor="end" font-size="10" fill="#2196F3" transform="rotate(-30,163.4,194)">Agency</text>
<rect x="203.32" y="77.20" width="22.59" height="102.80" fill="#2E7D32" opacity="0.85"><title>Partner Identity — Intentions: 4.765 ×10⁻³</title></rect>
<line x1="214.61" y1="95.64" x2="214.61" y2="65.66" stroke="#333" stroke-width="1"/>
<line x1="212.61" y1="95.64" x2="216.61" y2="95.64" stroke="#333" stroke-width="1"/>
<line x1="212.61" y1="65.66" x2="216.61" y2="65.66" stroke="#333" stroke-width="1"/>
<rect x="227.91" y="170.21" width="22.59" height="9.79" fill="#616161" opacity="0.85"><title>Control — Intentions: 0.454 ×10⁻³</title></rect>
<line x1="239.20" y1="171.99" x2="239.20" y2="169.04" stroke="#333" stroke-width="1"/>
<line x1="237.20" y1="171.99" x2="241.20" y2="171.99" stroke="#333" stroke-width="1"/>
<line x1="237.20" y1="169.04" x2="241.20" y2="169.04" stroke="#333" stroke-width="1"/>
<text x="227.9" y="194" text-anchor="end" font-size="10" fill="#2196F3" transform="rotate(-30,227.9,194)">Intentions</text>
<rect x="267.86" y="61.57" width="22.59" height="118.43" fill="#2E7D32" opacity="0.85"><title>Partner Identity — Prediction: 5.490 ×10⁻³</title></rect>
<line x1="279.16" y1="82.90" x2="279.16" y2="47.32" stroke="#333" stroke-width="1"/>
<line x1="277.16" y1="82.90" x2="281.16" y2="82.90" stroke="#333" stroke-width="1"/>
<line x1="277.16" y1="47.32" x2="281.16" y2="47.32" stroke="#333" stroke-width="1"/>
<rect x="292.45" y="172.36" width="22.59" height="7.64" fill="#616161" opacity="0.85"><title>Control — Prediction: 0.354 ×10⁻³</title></rect>
<line x1="303.75" y1="174.23" x2="303.75" y2="170.79" stroke="#333" stroke-width="1"/>
<line x1="301.75" y1="174.23" x2="305.75" y2="174.23" stroke="#333" stroke-width="1"/>
<line x1="301.75" y1="170.79" x2="305.75" y2="170.79" stroke="#333" stroke-width="1"/>
<text x="292.5" y="194" text-anchor="end" font-size="10" fill="#2196F3" transform="rotate(-30,292.5,194)">Prediction</text>
<rect x="332.41" y="66.31" width="22.59" height="113.69" fill="#2E7D32" opacity="0.85"><title>Partner Identity — Cognitive: 5.270 ×10⁻³</title></rect>
<line x1="343.70" y1="85.66" x2="343.70" y2="55.12" stroke="#333" stroke-width="1"/>
<line x1="341.70" y1="85.66" x2="345.70" y2="85.66" stroke="#333" stroke-width="1"/>
<line x1="341.70" y1="55.12" x2="345.70" y2="55.12" stroke="#333" stroke-width="1"/>
<rect x="357.00" y="172.73" width="22.59" height="7.27" fill="#616161" opacity="0.85"><title>Control — Cognitive: 0.337 ×10⁻³</title></rect>
<line x1="368.30" y1="174.19" x2="368.30" y2="171.14" stroke="#333" stroke-width="1"/>
<line x1="366.30" y1="174.19" x2="370.30" y2="174.19" stroke="#333" stroke-width="1"/>
<line x1="366.30" y1="171.14" x2="370.30" y2="171.14" stroke="#333" stroke-width="1"/>
<text x="357.0" y="194" text-anchor="end" font-size="10" fill="#2196F3" transform="rotate(-30,357.0,194)">Cognitive</text>
<rect x="396.95" y="58.94" width="22.59" height="121.06" fill="#2E7D32" opacity="0.85"><title>Partner Identity — Social: 5.611 ×10⁻³</title></rect>
<line x1="408.25" y1="79.28" x2="408.25" y2="44.97" stroke="#333" stroke-width="1"/>
<line x1="406.25" y1="79.28" x2="410.25" y2="79.28" stroke="#333" stroke-width="1"/>
<line x1="406.25" y1="44.97" x2="410.25" y2="44.97" stroke="#333" stroke-width="1"/>
<rect x="421.55" y="172.37" width="22.59" height="7.63" fill="#616161" opacity="0.85"><title>Control — Social: 0.354 ×10⁻³</title></rect>
<line x1="432.84" y1="174.23" x2="432.84" y2="170.89" stroke="#333" stroke-width="1"/>
<line x1="430.84" y1="174.23" x2="434.84" y2="174.23" stroke="#333" stroke-width="1"/>
<line x1="430.84" y1="170.89" x2="434.84" y2="170.89" stroke="#333" stroke-width="1"/>
<text x="421.5" y="194" text-anchor="end" font-size="10" fill="#2196F3" transform="rotate(-30,421.5,194)">Social</text>
<rect x="461.50" y="45.89" width="22.59" height="134.11" fill="#2E7D32" opacity="0.85"><title>Partner Identity — Attention: 6.217 ×10⁻³</title></rect>
<line x1="472.80" y1="66.52" x2="472.80" y2="36.59" stroke="#333" stroke-width="1"/>
<line x1="470.80" y1="66.52" x2="474.80" y2="66.52" stroke="#333" stroke-width="1"/>
<line x1="470.80" y1="36.59" x2="474.80" y2="36.59" stroke="#333" stroke-width="1"/>
<rect x="486.09" y="173.43" width="22.59" height="6.57" fill="#616161" opacity="0.85"><title>Control — Attention: 0.304 ×10⁻³</title></rect>
<line x1="497.39" y1="174.78" x2="497.39" y2="172.30" stroke="#333" stroke-width="1"/>
<line x1="495.39" y1="174.78" x2="499.39" y2="174.78" stroke="#333" stroke-width="1"/>
<line x1="495.39" y1="172.30" x2="499.39" y2="172.30" stroke="#333" stroke-width="1"/>
<text x="486.1" y="194" text-anchor="end" font-size="10" fill="#2196F3" transform="rotate(-30,486.1,194)">Attention</text>
<line x1="516.3636363636364" y1="0" x2="516.3636363636364" y2="180" stroke="#ccc" stroke-width="1" stroke-dasharray="4,3"/>
<rect x="526.05" y="77.72" width="22.59" height="102.28" fill="#2E7D32" opacity="0.5"><title>Partner Identity — Human vs AI (general): 4.741 ×10⁻³</title></rect>
<line x1="537.34" y1="101.40" x2="537.34" y2="67.46" stroke="#333" stroke-width="1"/>
<line x1="535.34" y1="101.40" x2="539.34" y2="101.40" stroke="#333" stroke-width="1"/>
<line x1="535.34" y1="67.46" x2="539.34" y2="67.46" stroke="#333" stroke-width="1"/>
<rect x="550.64" y="176.17" width="22.59" height="3.83" fill="#616161" opacity="0.5"><title>Control — Human vs AI (general): 0.178 ×10⁻³</title></rect>
<line x1="561.93" y1="177.05" x2="561.93" y2="174.70" stroke="#333" stroke-width="1"/>
<line x1="559.93" y1="177.05" x2="563.93" y2="177.05" stroke="#333" stroke-width="1"/>
<line x1="559.93" y1="174.70" x2="563.93" y2="174.70" stroke="#333" stroke-width="1"/>
<text x="550.6" y="194" text-anchor="end" font-size="10" fill="#9E9E9E" transform="rotate(-30,550.6,194)">Human vs AI (general)</text>
<rect x="590.59" y="136.12" width="22.59" height="43.88" fill="#2E7D32" opacity="0.5"><title>Partner Identity — Biological: 2.034 ×10⁻³</title></rect>
<line x1="601.89" y1="142.63" x2="601.89" y2="131.53" stroke="#333" stroke-width="1"/>
<line x1="599.89" y1="142.63" x2="603.89" y2="142.63" stroke="#333" stroke-width="1"/>
<line x1="599.89" y1="131.53" x2="603.89" y2="131.53" stroke="#333" stroke-width="1"/>
<rect x="615.18" y="174.77" width="22.59" height="5.23" fill="#616161" opacity="0.5"><title>Control — Biological: 0.242 ×10⁻³</title></rect>
<line x1="626.48" y1="175.58" x2="626.48" y2="173.85" stroke="#333" stroke-width="1"/>
<line x1="624.48" y1="175.58" x2="628.48" y2="175.58" stroke="#333" stroke-width="1"/>
<line x1="624.48" y1="173.85" x2="628.48" y2="173.85" stroke="#333" stroke-width="1"/>
<text x="615.2" y="194" text-anchor="end" font-size="10" fill="#9E9E9E" transform="rotate(-30,615.2,194)">Biological</text>
<rect x="655.14" y="167.59" width="22.59" height="12.41" fill="#2E7D32" opacity="0.5"><title>Partner Identity — Shapes: 0.575 ×10⁻³</title></rect>
<line x1="666.43" y1="174.36" x2="666.43" y2="160.71" stroke="#333" stroke-width="1"/>
<line x1="664.43" y1="174.36" x2="668.43" y2="174.36" stroke="#333" stroke-width="1"/>
<line x1="664.43" y1="160.71" x2="668.43" y2="160.71" stroke="#333" stroke-width="1"/>
<rect x="679.73" y="175.05" width="22.59" height="4.95" fill="#616161" opacity="0.5"><title>Control — Shapes: 0.229 ×10⁻³</title></rect>
<line x1="691.02" y1="176.98" x2="691.02" y2="172.91" stroke="#333" stroke-width="1"/>
<line x1="689.02" y1="176.98" x2="693.02" y2="176.98" stroke="#333" stroke-width="1"/>
<line x1="689.02" y1="172.91" x2="693.02" y2="172.91" stroke="#333" stroke-width="1"/>
<text x="679.7" y="194" text-anchor="end" font-size="10" fill="#9E9E9E" transform="rotate(-30,679.7,194)">Shapes</text>
<line x1="0" y1="180" x2="710" y2="180" stroke="#333"/>
<line x1="0" y1="0" x2="0" y2="180" stroke="#333"/>
</g>
<rect x="70" y="300" width="10" height="10" fill="#2E7D32"/>
<text x="84" y="308" font-size="9" fill="#333">Partner Identity</text>
<rect x="210" y="300" width="10" height="10" fill="#616161"/>
<text x="224" y="308" font-size="9" fill="#333">Control</text>
</svg>