<svg viewBox="0 0 1100 360" xmlns="http://www.w3.org/2000/svg" style="width:100%;max-width:1100px;height:auto;font-family:Arial,sans-serif;">
<rect width="1100" height="360" fill="white"/>
<g transform="translate(70,30)">
<line x1="0" y1="200.0" x2="1010" y2="200.0" stroke="#eee" stroke-width="1"/>
<text x="-8" y="204.0" text-anchor="end" font-size="10" fill="#666">0.00</text>
<line x1="0" y1="160.0" x2="1010" y2="160.0" stroke="#eee" stroke-width="1"/>
<text x="-8" y="164.0" text-anchor="end" font-size="10" fill="#666">1.67</text>
<line x1="0" y1="120.0" x2="1010" y2="120.0" stroke="#eee" stroke-width="1"/>
<text x="-8" y="124.0" text-anchor="end" font-size="10" fill="#666">3.34</text>
<line x1="0" y1="80.0" x2="1010" y2="80.0" stroke="#eee" stroke-width="1"/>
<text x="-8" y="84.0" text-anchor="end" font-size="10" fill="#666">5.01</text>
<line x1="0" y1="40.0" x2="1010" y2="40.0" stroke="#eee" stroke-width="1"/>
<text x="-8" y="44.0" text-anchor="end" font-size="10" fill="#666">6.67</text>
<line x1="0" y1="0.0" x2="1010" y2="0.0" stroke="#eee" stroke-width="1"/>
<text x="-8" y="4.0" text-anchor="end" font-size="10" fill="#666">8.34</text>
<text x="-50" y="100.0" text-anchor="middle" font-size="11" fill="#333" transform="rotate(-90,-50,100.0)">Mean R² (×10⁻³)</text>
<rect x="5.61" y="195.29" width="22.44" height="4.71" fill="#81C784" opacity="0.85"><title>Partner Identity: 0.000196</title></rect>
<line x1="16.83" y1="196.36" x2="16.83" y2="193.33" stroke="#333" stroke-width="1"/>
<line x1="14.83" y1="196.36" x2="18.83" y2="196.36" stroke="#333" stroke-width="1"/>
<line x1="14.83" y1="193.33" x2="18.83" y2="193.33" stroke="#333" stroke-width="1"/>
<rect x="28.06" y="195.28" width="22.44" height="4.72" fill="#BDBDBD" opacity="0.85"><title>Control: 0.000197</title></rect>
<line x1="39.28" y1="195.95" x2="39.28" y2="194.53" stroke="#333" stroke-width="1"/>
<line x1="37.28" y1="195.95" x2="41.28" y2="195.95" stroke="#333" stroke-width="1"/>
<line x1="37.28" y1="194.53" x2="41.28" y2="194.53" stroke="#333" stroke-width="1"/>
<text x="28.06" y="214" text-anchor="end" font-size="9" fill="#2196F3" transform="rotate(-45,28.06,214)">Phenomenology</text>
<rect x="61.72" y="194.27" width="22.44" height="5.73" fill="#81C784" opacity="0.85"><title>Partner Identity: 0.000239</title></rect>
<line x1="72.94" y1="195.55" x2="72.94" y2="192.01" stroke="#333" stroke-width="1"/>
<line x1="70.94" y1="195.55" x2="74.94" y2="195.55" stroke="#333" stroke-width="1"/>
<line x1="70.94" y1="192.01" x2="74.94" y2="192.01" stroke="#333" stroke-width="1"/>
<rect x="84.17" y="196.38" width="22.44" height="3.62" fill="#BDBDBD" opacity="0.85"><title>Control: 0.000151</title></rect>
<line x1="95.39" y1="196.74" x2="95.39" y2="195.84" stroke="#333" stroke-width="1"/>
<line x1="93.39" y1="196.74" x2="97.39" y2="196.74" stroke="#333" stroke-width="1"/>
<line x1="93.39" y1="195.84" x2="97.39" y2="195.84" stroke="#333" stroke-width="1"/>
<text x="84.17" y="214" text-anchor="end" font-size="9" fill="#2196F3" transform="rotate(-45,84.17,214)">Emotions</text>
<rect x="117.83" y="192.99" width="22.44" height="7.01" fill="#81C784" opacity="0.85"><title>Partner Identity: 0.000292</title></rect>
<line x1="129.06" y1="195.38" x2="129.06" y2="186.03" stroke="#333" stroke-width="1"/>
<line x1="127.06" y1="195.38" x2="131.06" y2="195.38" stroke="#333" stroke-width="1"/>
<line x1="127.06" y1="186.03" x2="131.06" y2="186.03" stroke="#333" stroke-width="1"/>
<rect x="140.28" y="195.75" width="22.44" height="4.25" fill="#BDBDBD" opacity="0.85"><title>Control: 0.000177</title></rect>
<line x1="151.50" y1="196.41" x2="151.50" y2="194.71" stroke="#333" stroke-width="1"/>
<line x1="149.50" y1="196.41" x2="153.50" y2="196.41" stroke="#333" stroke-width="1"/>
<line x1="149.50" y1="194.71" x2="153.50" y2="194.71" stroke="#333" stroke-width="1"/>
<text x="140.28" y="214" text-anchor="end" font-size="9" fill="#2196F3" transform="rotate(-45,140.28,214)">Agency</text>
<rect x="173.94" y="188.10" width="22.44" height="11.90" fill="#81C784" opacity="0.85"><title>Partner Identity: 0.000496</title></rect>
<line x1="185.17" y1="194.01" x2="185.17" y2="181.40" stroke="#333" stroke-width="1"/>
<line x1="183.17" y1="194.01" x2="187.17" y2="194.01" stroke="#333" stroke-width="1"/>
<line x1="183.17" y1="181.40" x2="187.17" y2="181.40" stroke="#333" stroke-width="1"/>
<rect x="196.39" y="195.36" width="22.44" height="4.64" fill="#BDBDBD" opacity="0.85"><title>Control: 0.000194</title></rect>
<line x1="207.61" y1="195.87" x2="207.61" y2="194.75" stroke="#333" stroke-width="1"/>
<line x1="205.61" y1="195.87" x2="209.61" y2="195.87" stroke="#333" stroke-width="1"/>
<line x1="205.61" y1="194.75" x2="209.61" y2="194.75" stroke="#333" stroke-width="1"/>
<text x="196.39" y="214" text-anchor="end" font-size="9" fill="#2196F3" transform="rotate(-45,196.39,214)">Intentions</text>
<rect x="230.06" y="190.69" width="22.44" height="9.31" fill="#81C784" opacity="0.85"><title>Partner Identity: 0.000388</title></rect>
<line x1="241.28" y1="193.58" x2="241.28" y2="182.62" stroke="#333" stroke-width="1"/>
<line x1="239.28" y1="193.58" x2="243.28" y2="193.58" stroke="#333" stroke-width="1"/>
<line x1="239.28" y1="182.62" x2="243.28" y2="182.62" stroke="#333" stroke-width="1"/>
<rect x="252.50" y="194.57" width="22.44" height="5.43" fill="#BDBDBD" opacity="0.85"><title>Control: 0.000227</title></rect>
<line x1="263.72" y1="195.27" x2="263.72" y2="193.78" stroke="#333" stroke-width="1"/>
<line x1="261.72" y1="195.27" x2="265.72" y2="195.27" stroke="#333" stroke-width="1"/>
<line x1="261.72" y1="193.78" x2="265.72" y2="193.78" stroke="#333" stroke-width="1"/>
<text x="252.50" y="214" text-anchor="end" font-size="9" fill="#2196F3" transform="rotate(-45,252.50,214)">Prediction</text>
<rect x="286.17" y="181.20" width="22.44" height="18.80" fill="#81C784" opacity="0.85"><title>Partner Identity: 0.000784</title></rect>
<line x1="297.39" y1="187.68" x2="297.39" y2="177.10" stroke="#333" stroke-width="1"/>
<line x1="295.39" y1="187.68" x2="299.39" y2="187.68" stroke="#333" stroke-width="1"/>
<line x1="295.39" y1="177.10" x2="299.39" y2="177.10" stroke="#333" stroke-width="1"/>
<rect x="308.61" y="194.67" width="22.44" height="5.33" fill="#BDBDBD" opacity="0.85"><title>Control: 0.000222</title></rect>
<line x1="319.83" y1="195.40" x2="319.83" y2="194.04" stroke="#333" stroke-width="1"/>
<line x1="317.83" y1="195.40" x2="321.83" y2="195.40" stroke="#333" stroke-width="1"/>
<line x1="317.83" y1="194.04" x2="321.83" y2="194.04" stroke="#333" stroke-width="1"/>
<text x="308.61" y="214" text-anchor="end" font-size="9" fill="#2196F3" transform="rotate(-45,308.61,214)">Cognitive</text>
<rect x="342.28" y="188.35" width="22.44" height="11.65" fill="#81C784" opacity="0.85"><title>Partner Identity: 0.000486</title></rect>
<line x1="353.50" y1="192.93" x2="353.50" y2="177.85" stroke="#333" stroke-width="1"/>
<line x1="351.50" y1="192.93" x2="355.50" y2="192.93" stroke="#333" stroke-width="1"/>
<line x1="351.50" y1="177.85" x2="355.50" y2="177.85" stroke="#333" stroke-width="1"/>
<rect x="364.72" y="194.94" width="22.44" height="5.06" fill="#BDBDBD" opacity="0.85"><title>Control: 0.000211</title></rect>
<line x1="375.94" y1="195.63" x2="375.94" y2="193.95" stroke="#333" stroke-width="1"/>
<line x1="373.94" y1="195.63" x2="377.94" y2="195.63" stroke="#333" stroke-width="1"/>
<line x1="373.94" y1="193.95" x2="377.94" y2="193.95" stroke="#333" stroke-width="1"/>
<text x="364.72" y="214" text-anchor="end" font-size="9" fill="#2196F3" transform="rotate(-45,364.72,214)">Social</text>
<rect x="398.39" y="183.77" width="22.44" height="16.23" fill="#81C784" opacity="0.85"><title>Partner Identity: 0.000677</title></rect>
<line x1="409.61" y1="189.71" x2="409.61" y2="177.99" stroke="#333" stroke-width="1"/>
<line x1="407.61" y1="189.71" x2="411.61" y2="189.71" stroke="#333" stroke-width="1"/>
<line x1="407.61" y1="177.99" x2="411.61" y2="177.99" stroke="#333" stroke-width="1"/>
<rect x="420.83" y="194.30" width="22.44" height="5.70" fill="#BDBDBD" opacity="0.85"><title>Control: 0.000238</title></rect>
<line x1="432.06" y1="195.06" x2="432.06" y2="193.67" stroke="#333" stroke-width="1"/>
<line x1="430.06" y1="195.06" x2="434.06" y2="195.06" stroke="#333" stroke-width="1"/>
<line x1="430.06" y1="193.67" x2="434.06" y2="193.67" stroke="#333" stroke-width="1"/>
<text x="420.83" y="214" text-anchor="end" font-size="9" fill="#2196F3" transform="rotate(-45,420.83,214)">Attention</text>
<rect x="454.50" y="195.83" width="22.44" height="4.17" fill="#81C784" opacity="0.85"><title>Partner Identity: 0.000174</title></rect>
<line x1="465.72" y1="197.10" x2="465.72" y2="193.21" stroke="#333" stroke-width="1"/>
<line x1="463.72" y1="197.10" x2="467.72" y2="197.10" stroke="#333" stroke-width="1"/>
<line x1="463.72" y1="193.21" x2="467.72" y2="193.21" stroke="#333" stroke-width="1"/>
<rect x="476.94" y="194.30" width="22.44" height="5.70" fill="#BDBDBD" opacity="0.85"><title>Control: 0.000238</title></rect>
<line x1="488.17" y1="195.13" x2="488.17" y2="193.50" stroke="#333" stroke-width="1"/>
<line x1="486.17" y1="195.13" x2="490.17" y2="195.13" stroke="#333" stroke-width="1"/>
<line x1="486.17" y1="193.50" x2="490.17" y2="193.50" stroke="#333" stroke-width="1"/>
<text x="476.94" y="214" text-anchor="end" font-size="9" fill="#4CAF50" transform="rotate(-45,476.94,214)">Embodiment</text>
<rect x="510.61" y="194.65" width="22.44" height="5.35" fill="#81C784" opacity="0.85"><title>Partner Identity: 0.000223</title></rect>
<line x1="521.83" y1="195.60" x2="521.83" y2="192.53" stroke="#333" stroke-width="1"/>
<line x1="519.83" y1="195.60" x2="523.83" y2="195.60" stroke="#333" stroke-width="1"/>
<line x1="519.83" y1="192.53" x2="523.83" y2="192.53" stroke="#333" stroke-width="1"/>
<rect x="533.06" y="195.35" width="22.44" height="4.65" fill="#BDBDBD" opacity="0.85"><title>Control: 0.000194</title></rect>
<line x1="544.28" y1="195.96" x2="544.28" y2="194.76" stroke="#333" stroke-width="1"/>
<line x1="542.28" y1="195.96" x2="546.28" y2="195.96" stroke="#333" stroke-width="1"/>
<line x1="542.28" y1="194.76" x2="546.28" y2="194.76" stroke="#333" stroke-width="1"/>
<text x="533.06" y="214" text-anchor="end" font-size="9" fill="#4CAF50" transform="rotate(-45,533.06,214)">Roles</text>
<rect x="566.72" y="188.57" width="22.44" height="11.43" fill="#81C784" opacity="0.85"><title>Partner Identity: 0.000477</title></rect>
<line x1="577.94" y1="192.00" x2="577.94" y2="185.32" stroke="#333" stroke-width="1"/>
<line x1="575.94" y1="192.00" x2="579.94" y2="192.00" stroke="#333" stroke-width="1"/>
<line x1="575.94" y1="185.32" x2="579.94" y2="185.32" stroke="#333" stroke-width="1"/>
<rect x="589.17" y="194.16" width="22.44" height="5.84" fill="#BDBDBD" opacity="0.85"><title>Control: 0.000244</title></rect>
<line x1="600.39" y1="194.94" x2="600.39" y2="193.51" stroke="#333" stroke-width="1"/>
<line x1="598.39" y1="194.94" x2="602.39" y2="194.94" stroke="#333" stroke-width="1"/>
<line x1="598.39" y1="193.51" x2="602.39" y2="193.51" stroke="#333" stroke-width="1"/>
<text x="589.17" y="214" text-anchor="end" font-size="9" fill="#4CAF50" transform="rotate(-45,589.17,214)">Animacy</text>
<rect x="622.83" y="191.07" width="22.44" height="8.93" fill="#81C784" opacity="0.85"><title>Partner Identity: 0.000372</title></rect>
<line x1="634.06" y1="195.42" x2="634.06" y2="187.49" stroke="#333" stroke-width="1"/>
<line x1="632.06" y1="195.42" x2="636.06" y2="195.42" stroke="#333" stroke-width="1"/>
<line x1="632.06" y1="187.49" x2="636.06" y2="187.49" stroke="#333" stroke-width="1"/>
<rect x="645.28" y="193.53" width="22.44" height="6.47" fill="#BDBDBD" opacity="0.85"><title>Control: 0.000270</title></rect>
<line x1="656.50" y1="195.30" x2="656.50" y2="192.18" stroke="#333" stroke-width="1"/>
<line x1="654.50" y1="195.30" x2="658.50" y2="195.30" stroke="#333" stroke-width="1"/>
<line x1="654.50" y1="192.18" x2="658.50" y2="192.18" stroke="#333" stroke-width="1"/>
<text x="645.28" y="214" text-anchor="end" font-size="9" fill="#FF9800" transform="rotate(-45,645.28,214)">Formality</text>
<rect x="678.94" y="186.60" width="22.44" height="13.40" fill="#81C784" opacity="0.85"><title>Partner Identity: 0.000559</title></rect>
<line x1="690.17" y1="189.58" x2="690.17" y2="183.26" stroke="#333" stroke-width="1"/>
<line x1="688.17" y1="189.58" x2="692.17" y2="189.58" stroke="#333" stroke-width="1"/>
<line x1="688.17" y1="183.26" x2="692.17" y2="183.26" stroke="#333" stroke-width="1"/>
<rect x="701.39" y="194.96" width="22.44" height="5.04" fill="#BDBDBD" opacity="0.85"><title>Control: 0.000210</title></rect>
<line x1="712.61" y1="195.44" x2="712.61" y2="194.34" stroke="#333" stroke-width="1"/>
<line x1="710.61" y1="195.44" x2="714.61" y2="195.44" stroke="#333" stroke-width="1"/>
<line x1="710.61" y1="194.34" x2="714.61" y2="194.34" stroke="#333" stroke-width="1"/>
<text x="701.39" y="214" text-anchor="end" font-size="9" fill="#FF9800" transform="rotate(-45,701.39,214)">Expertise</text>
<rect x="735.06" y="183.84" width="22.44" height="16.16" fill="#81C784" opacity="0.85"><title>Partner Identity: 0.000674</title></rect>
<line x1="746.28" y1="194.35" x2="746.28" y2="179.67" stroke="#333" stroke-width="1"/>
<line x1="744.28" y1="194.35" x2="748.28" y2="194.35" stroke="#333" stroke-width="1"/>
<line x1="744.28" y1="179.67" x2="748.28" y2="179.67" stroke="#333" stroke-width="1"/>
<rect x="757.50" y="193.52" width="22.44" height="6.48" fill="#BDBDBD" opacity="0.85"><title>Control: 0.000270</title></rect>
<line x1="768.72" y1="195.56" x2="768.72" y2="192.89" stroke="#333" stroke-width="1"/>
<line x1="766.72" y1="195.56" x2="770.72" y2="195.56" stroke="#333" stroke-width="1"/>
<line x1="766.72" y1="192.89" x2="770.72" y2="192.89" stroke="#333" stroke-width="1"/>
<text x="757.50" y="214" text-anchor="end" font-size="9" fill="#FF9800" transform="rotate(-45,757.50,214)">Helpfulness</text>
<rect x="791.17" y="185.95" width="22.44" height="14.05" fill="#81C784" opacity="0.85"><title>Partner Identity: 0.000586</title></rect>
<line x1="802.39" y1="190.43" x2="802.39" y2="182.16" stroke="#333" stroke-width="1"/>
<line x1="800.39" y1="190.43" x2="804.39" y2="190.43" stroke="#333" stroke-width="1"/>
<line x1="800.39" y1="182.16" x2="804.39" y2="182.16" stroke="#333" stroke-width="1"/>
<rect x="813.61" y="194.26" width="22.44" height="5.74" fill="#BDBDBD" opacity="0.85"><title>Control: 0.000239</title></rect>
<line x1="824.83" y1="195.31" x2="824.83" y2="193.05" stroke="#333" stroke-width="1"/>
<line x1="822.83" y1="195.31" x2="826.83" y2="195.31" stroke="#333" stroke-width="1"/>
<line x1="822.83" y1="193.05" x2="826.83" y2="193.05" stroke="#333" stroke-width="1"/>
<text x="813.61" y="214" text-anchor="end" font-size="9" fill="#9E9E9E" transform="rotate(-45,813.61,214)">Baseline</text>
<rect x="847.28" y="195.40" width="22.44" height="4.60" fill="#81C784" opacity="0.85"><title>Partner Identity: 0.000192</title></rect>
<line x1="858.50" y1="196.25" x2="858.50" y2="193.89" stroke="#333" stroke-width="1"/>
<line x1="856.50" y1="196.25" x2="860.50" y2="196.25" stroke="#333" stroke-width="1"/>
<line x1="856.50" y1="193.89" x2="860.50" y2="193.89" stroke="#333" stroke-width="1"/>
<rect x="869.72" y="193.95" width="22.44" height="6.05" fill="#BDBDBD" opacity="0.85"><title>Control: 0.000253</title></rect>
<line x1="880.94" y1="194.58" x2="880.94" y2="193.38" stroke="#333" stroke-width="1"/>
<line x1="878.94" y1="194.58" x2="882.94" y2="194.58" stroke="#333" stroke-width="1"/>
<line x1="878.94" y1="193.38" x2="882.94" y2="193.38" stroke="#333" stroke-width="1"/>
<text x="869.72" y="214" text-anchor="end" font-size="9" fill="#9E9E9E" transform="rotate(-45,869.72,214)">Biological</text>
<rect x="903.39" y="184.70" width="22.44" height="15.30" fill="#81C784" opacity="0.85"><title>Partner Identity: 0.000638</title></rect>
<line x1="914.61" y1="192.32" x2="914.61" y2="179.33" stroke="#333" stroke-width="1"/>
<line x1="912.61" y1="192.32" x2="916.61" y2="192.32" stroke="#333" stroke-width="1"/>
<line x1="912.61" y1="179.33" x2="916.61" y2="179.33" stroke="#333" stroke-width="1"/>
<rect x="925.83" y="194.34" width="22.44" height="5.66" fill="#BDBDBD" opacity="0.85"><title>Control: 0.000236</title></rect>
<line x1="937.06" y1="195.86" x2="937.06" y2="193.20" stroke="#333" stroke-width="1"/>
<line x1="935.06" y1="195.86" x2="939.06" y2="195.86" stroke="#333" stroke-width="1"/>
<line x1="935.06" y1="193.20" x2="939.06" y2="193.20" stroke="#333" stroke-width="1"/>
<text x="925.83" y="214" text-anchor="end" font-size="9" fill="#9E9E9E" transform="rotate(-45,925.83,214)">Shapes</text>
<rect x="959.50" y="178.54" width="22.44" height="21.46" fill="#81C784" opacity="0.85"><title>Partner Identity: 0.000895</title></rect>
<line x1="970.72" y1="183.03" x2="970.72" y2="173.74" stroke="#333" stroke-width="1"/>
<line x1="968.72" y1="183.03" x2="972.72" y2="183.03" stroke="#333" stroke-width="1"/>
<line x1="968.72" y1="173.74" x2="972.72" y2="173.74" stroke="#333" stroke-width="1"/>
<rect x="981.94" y="195.47" width="22.44" height="4.53" fill="#BDBDBD" opacity="0.85"><title>Control: 0.000189</title></rect>
<line x1="993.17" y1="195.95" x2="993.17" y2="194.90" stroke="#333" stroke-width="1"/>
<line x1="991.17" y1="195.95" x2="995.17" y2="195.95" stroke="#333" stroke-width="1"/>
<line x1="991.17" y1="194.90" x2="995.17" y2="194.90" stroke="#333" stroke-width="1"/>
<text x="981.94" y="214" text-anchor="end" font-size="9" fill="#00BCD4" transform="rotate(-45,981.94,214)">SysPrompt (labeled)</text>
<line x1="0" y1="200" x2="1010" y2="200" stroke="#333"/>
<line x1="0" y1="0" x2="0" y2="200" stroke="#333"/>
</g>
<rect x="70.0" y="324" width="10" height="10" fill="#81C784"/>
<text x="84.0" y="332" font-size="8" fill="#333">Partner Identity</text>
<rect x="272.0" y="324" width="10" height="10" fill="#BDBDBD"/>
<text x="286.0" y="332" font-size="8" fill="#333">Control</text>
</svg>