<svg viewBox="0 0 1100 360" xmlns="http://www.w3.org/2000/svg" style="width:100%;max-width:1100px;height:auto;font-family:Arial,sans-serif;">
<rect width="1100" height="360" fill="white"/>
<g transform="translate(70,30)">
<line x1="0" y1="200.0" x2="1010" y2="200.0" stroke="#eee" stroke-width="1"/>
<text x="-8" y="204.0" text-anchor="end" font-size="10" fill="#666">0.00</text>
<line x1="0" y1="160.0" x2="1010" y2="160.0" stroke="#eee" stroke-width="1"/>
<text x="-8" y="164.0" text-anchor="end" font-size="10" fill="#666">1.67</text>
<line x1="0" y1="120.0" x2="1010" y2="120.0" stroke="#eee" stroke-width="1"/>
<text x="-8" y="124.0" text-anchor="end" font-size="10" fill="#666">3.34</text>
<line x1="0" y1="80.0" x2="1010" y2="80.0" stroke="#eee" stroke-width="1"/>
<text x="-8" y="84.0" text-anchor="end" font-size="10" fill="#666">5.01</text>
<line x1="0" y1="40.0" x2="1010" y2="40.0" stroke="#eee" stroke-width="1"/>
<text x="-8" y="44.0" text-anchor="end" font-size="10" fill="#666">6.67</text>
<line x1="0" y1="0.0" x2="1010" y2="0.0" stroke="#eee" stroke-width="1"/>
<text x="-8" y="4.0" text-anchor="end" font-size="10" fill="#666">8.34</text>
<text x="-50" y="100.0" text-anchor="middle" font-size="11" fill="#333" transform="rotate(-90,-50,100.0)">Mean R² (×10⁻³)</text>
<rect x="5.61" y="110.07" width="22.44" height="89.93" fill="#2E7D32" opacity="0.85"><title>Partner Identity: 0.003752</title></rect>
<line x1="16.83" y1="125.28" x2="16.83" y2="103.75" stroke="#333" stroke-width="1"/>
<line x1="14.83" y1="125.28" x2="18.83" y2="125.28" stroke="#333" stroke-width="1"/>
<line x1="14.83" y1="103.75" x2="18.83" y2="103.75" stroke="#333" stroke-width="1"/>
<rect x="28.06" y="192.09" width="22.44" height="7.91" fill="#616161" opacity="0.85"><title>Control: 0.000330</title></rect>
<line x1="39.28" y1="193.89" x2="39.28" y2="190.42" stroke="#333" stroke-width="1"/>
<line x1="37.28" y1="193.89" x2="41.28" y2="193.89" stroke="#333" stroke-width="1"/>
<line x1="37.28" y1="190.42" x2="41.28" y2="190.42" stroke="#333" stroke-width="1"/>
<text x="28.06" y="214" text-anchor="end" font-size="9" fill="#2196F3" transform="rotate(-45,28.06,214)">Phenomenology</text>
<rect x="61.72" y="101.44" width="22.44" height="98.56" fill="#2E7D32" opacity="0.85"><title>Partner Identity: 0.004112</title></rect>
<line x1="72.94" y1="116.11" x2="72.94" y2="90.55" stroke="#333" stroke-width="1"/>
<line x1="70.94" y1="116.11" x2="74.94" y2="116.11" stroke="#333" stroke-width="1"/>
<line x1="70.94" y1="90.55" x2="74.94" y2="90.55" stroke="#333" stroke-width="1"/>
<rect x="84.17" y="193.07" width="22.44" height="6.93" fill="#616161" opacity="0.85"><title>Control: 0.000289</title></rect>
<line x1="95.39" y1="194.19" x2="95.39" y2="192.06" stroke="#333" stroke-width="1"/>
<line x1="93.39" y1="194.19" x2="97.39" y2="194.19" stroke="#333" stroke-width="1"/>
<line x1="93.39" y1="192.06" x2="97.39" y2="192.06" stroke="#333" stroke-width="1"/>
<text x="84.17" y="214" text-anchor="end" font-size="9" fill="#2196F3" transform="rotate(-45,84.17,214)">Emotions</text>
<rect x="117.83" y="84.54" width="22.44" height="115.46" fill="#2E7D32" opacity="0.85"><title>Partner Identity: 0.004817</title></rect>
<line x1="129.06" y1="104.44" x2="129.06" y2="72.63" stroke="#333" stroke-width="1"/>
<line x1="127.06" y1="104.44" x2="131.06" y2="104.44" stroke="#333" stroke-width="1"/>
<line x1="127.06" y1="72.63" x2="131.06" y2="72.63" stroke="#333" stroke-width="1"/>
<rect x="140.28" y="189.80" width="22.44" height="10.20" fill="#616161" opacity="0.85"><title>Control: 0.000425</title></rect>
<line x1="151.50" y1="192.16" x2="151.50" y2="188.06" stroke="#333" stroke-width="1"/>
<line x1="149.50" y1="192.16" x2="153.50" y2="192.16" stroke="#333" stroke-width="1"/>
<line x1="149.50" y1="188.06" x2="153.50" y2="188.06" stroke="#333" stroke-width="1"/>
<text x="140.28" y="214" text-anchor="end" font-size="9" fill="#2196F3" transform="rotate(-45,140.28,214)">Agency</text>
<rect x="173.94" y="85.78" width="22.44" height="114.22" fill="#2E7D32" opacity="0.85"><title>Partner Identity: 0.004765</title></rect>
<line x1="185.17" y1="106.26" x2="185.17" y2="72.95" stroke="#333" stroke-width="1"/>
<line x1="183.17" y1="106.26" x2="187.17" y2="106.26" stroke="#333" stroke-width="1"/>
<line x1="183.17" y1="72.95" x2="187.17" y2="72.95" stroke="#333" stroke-width="1"/>
<rect x="196.39" y="189.13" width="22.44" height="10.87" fill="#616161" opacity="0.85"><title>Control: 0.000454</title></rect>
<line x1="207.61" y1="191.10" x2="207.61" y2="187.83" stroke="#333" stroke-width="1"/>
<line x1="205.61" y1="191.10" x2="209.61" y2="191.10" stroke="#333" stroke-width="1"/>
<line x1="205.61" y1="187.83" x2="209.61" y2="187.83" stroke="#333" stroke-width="1"/>
<text x="196.39" y="214" text-anchor="end" font-size="9" fill="#2196F3" transform="rotate(-45,196.39,214)">Intentions</text>
<rect x="230.06" y="68.41" width="22.44" height="131.59" fill="#2E7D32" opacity="0.85"><title>Partner Identity: 0.005490</title></rect>
<line x1="241.28" y1="92.11" x2="241.28" y2="52.58" stroke="#333" stroke-width="1"/>
<line x1="239.28" y1="92.11" x2="243.28" y2="92.11" stroke="#333" stroke-width="1"/>
<line x1="239.28" y1="52.58" x2="243.28" y2="52.58" stroke="#333" stroke-width="1"/>
<rect x="252.50" y="191.51" width="22.44" height="8.49" fill="#616161" opacity="0.85"><title>Control: 0.000354</title></rect>
<line x1="263.72" y1="193.59" x2="263.72" y2="189.77" stroke="#333" stroke-width="1"/>
<line x1="261.72" y1="193.59" x2="265.72" y2="193.59" stroke="#333" stroke-width="1"/>
<line x1="261.72" y1="189.77" x2="265.72" y2="189.77" stroke="#333" stroke-width="1"/>
<text x="252.50" y="214" text-anchor="end" font-size="9" fill="#2196F3" transform="rotate(-45,252.50,214)">Prediction</text>
<rect x="286.17" y="73.68" width="22.44" height="126.32" fill="#2E7D32" opacity="0.85"><title>Partner Identity: 0.005270</title></rect>
<line x1="297.39" y1="95.18" x2="297.39" y2="61.24" stroke="#333" stroke-width="1"/>
<line x1="295.39" y1="95.18" x2="299.39" y2="95.18" stroke="#333" stroke-width="1"/>
<line x1="295.39" y1="61.24" x2="299.39" y2="61.24" stroke="#333" stroke-width="1"/>
<rect x="308.61" y="191.92" width="22.44" height="8.08" fill="#616161" opacity="0.85"><title>Control: 0.000337</title></rect>
<line x1="319.83" y1="193.55" x2="319.83" y2="190.16" stroke="#333" stroke-width="1"/>
<line x1="317.83" y1="193.55" x2="321.83" y2="193.55" stroke="#333" stroke-width="1"/>
<line x1="317.83" y1="190.16" x2="321.83" y2="190.16" stroke="#333" stroke-width="1"/>
<text x="308.61" y="214" text-anchor="end" font-size="9" fill="#2196F3" transform="rotate(-45,308.61,214)">Cognitive</text>
<rect x="342.28" y="65.49" width="22.44" height="134.51" fill="#2E7D32" opacity="0.85"><title>Partner Identity: 0.005611</title></rect>
<line x1="353.50" y1="88.09" x2="353.50" y2="49.97" stroke="#333" stroke-width="1"/>
<line x1="351.50" y1="88.09" x2="355.50" y2="88.09" stroke="#333" stroke-width="1"/>
<line x1="351.50" y1="49.97" x2="355.50" y2="49.97" stroke="#333" stroke-width="1"/>
<rect x="364.72" y="191.52" width="22.44" height="8.48" fill="#616161" opacity="0.85"><title>Control: 0.000354</title></rect>
<line x1="375.94" y1="193.59" x2="375.94" y2="189.88" stroke="#333" stroke-width="1"/>
<line x1="373.94" y1="193.59" x2="377.94" y2="193.59" stroke="#333" stroke-width="1"/>
<line x1="373.94" y1="189.88" x2="377.94" y2="189.88" stroke="#333" stroke-width="1"/>
<text x="364.72" y="214" text-anchor="end" font-size="9" fill="#2196F3" transform="rotate(-45,364.72,214)">Social</text>
<rect x="398.39" y="50.98" width="22.44" height="149.02" fill="#2E7D32" opacity="0.85"><title>Partner Identity: 0.006217</title></rect>
<line x1="409.61" y1="73.91" x2="409.61" y2="40.66" stroke="#333" stroke-width="1"/>
<line x1="407.61" y1="73.91" x2="411.61" y2="73.91" stroke="#333" stroke-width="1"/>
<line x1="407.61" y1="40.66" x2="411.61" y2="40.66" stroke="#333" stroke-width="1"/>
<rect x="420.83" y="192.70" width="22.44" height="7.30" fill="#616161" opacity="0.85"><title>Control: 0.000304</title></rect>
<line x1="432.06" y1="194.20" x2="432.06" y2="191.44" stroke="#333" stroke-width="1"/>
<line x1="430.06" y1="194.20" x2="434.06" y2="194.20" stroke="#333" stroke-width="1"/>
<line x1="430.06" y1="191.44" x2="434.06" y2="191.44" stroke="#333" stroke-width="1"/>
<text x="420.83" y="214" text-anchor="end" font-size="9" fill="#2196F3" transform="rotate(-45,420.83,214)">Attention</text>
<rect x="454.50" y="121.61" width="22.44" height="78.39" fill="#2E7D32" opacity="0.85"><title>Partner Identity: 0.003270</title></rect>
<line x1="465.72" y1="134.15" x2="465.72" y2="115.07" stroke="#333" stroke-width="1"/>
<line x1="463.72" y1="134.15" x2="467.72" y2="134.15" stroke="#333" stroke-width="1"/>
<line x1="463.72" y1="115.07" x2="467.72" y2="115.07" stroke="#333" stroke-width="1"/>
<rect x="476.94" y="191.90" width="22.44" height="8.10" fill="#616161" opacity="0.85"><title>Control: 0.000338</title></rect>
<line x1="488.17" y1="193.74" x2="488.17" y2="190.31" stroke="#333" stroke-width="1"/>
<line x1="486.17" y1="193.74" x2="490.17" y2="193.74" stroke="#333" stroke-width="1"/>
<line x1="486.17" y1="190.31" x2="490.17" y2="190.31" stroke="#333" stroke-width="1"/>
<text x="476.94" y="214" text-anchor="end" font-size="9" fill="#4CAF50" transform="rotate(-45,476.94,214)">Embodiment</text>
<rect x="510.61" y="90.85" width="22.44" height="109.15" fill="#2E7D32" opacity="0.85"><title>Partner Identity: 0.004553</title></rect>
<line x1="521.83" y1="114.26" x2="521.83" y2="73.28" stroke="#333" stroke-width="1"/>
<line x1="519.83" y1="114.26" x2="523.83" y2="114.26" stroke="#333" stroke-width="1"/>
<line x1="519.83" y1="73.28" x2="523.83" y2="73.28" stroke="#333" stroke-width="1"/>
<rect x="533.06" y="193.67" width="22.44" height="6.33" fill="#616161" opacity="0.85"><title>Control: 0.000264</title></rect>
<line x1="544.28" y1="195.23" x2="544.28" y2="191.37" stroke="#333" stroke-width="1"/>
<line x1="542.28" y1="195.23" x2="546.28" y2="195.23" stroke="#333" stroke-width="1"/>
<line x1="542.28" y1="191.37" x2="546.28" y2="191.37" stroke="#333" stroke-width="1"/>
<text x="533.06" y="214" text-anchor="end" font-size="9" fill="#4CAF50" transform="rotate(-45,533.06,214)">Roles</text>
<rect x="566.72" y="130.29" width="22.44" height="69.71" fill="#2E7D32" opacity="0.85"><title>Partner Identity: 0.002908</title></rect>
<line x1="577.94" y1="145.61" x2="577.94" y2="119.87" stroke="#333" stroke-width="1"/>
<line x1="575.94" y1="145.61" x2="579.94" y2="145.61" stroke="#333" stroke-width="1"/>
<line x1="575.94" y1="119.87" x2="579.94" y2="119.87" stroke="#333" stroke-width="1"/>
<rect x="589.17" y="195.84" width="22.44" height="4.16" fill="#616161" opacity="0.85"><title>Control: 0.000174</title></rect>
<line x1="600.39" y1="196.58" x2="600.39" y2="194.72" stroke="#333" stroke-width="1"/>
<line x1="598.39" y1="196.58" x2="602.39" y2="196.58" stroke="#333" stroke-width="1"/>
<line x1="598.39" y1="194.72" x2="602.39" y2="194.72" stroke="#333" stroke-width="1"/>
<text x="589.17" y="214" text-anchor="end" font-size="9" fill="#4CAF50" transform="rotate(-45,589.17,214)">Animacy</text>
<rect x="622.83" y="176.80" width="22.44" height="23.20" fill="#2E7D32" opacity="0.85"><title>Partner Identity: 0.000968</title></rect>
<line x1="634.06" y1="185.90" x2="634.06" y2="172.08" stroke="#333" stroke-width="1"/>
<line x1="632.06" y1="185.90" x2="636.06" y2="185.90" stroke="#333" stroke-width="1"/>
<line x1="632.06" y1="172.08" x2="636.06" y2="172.08" stroke="#333" stroke-width="1"/>
<rect x="645.28" y="195.04" width="22.44" height="4.96" fill="#616161" opacity="0.85"><title>Control: 0.000207</title></rect>
<line x1="656.50" y1="196.84" x2="656.50" y2="192.94" stroke="#333" stroke-width="1"/>
<line x1="654.50" y1="196.84" x2="658.50" y2="196.84" stroke="#333" stroke-width="1"/>
<line x1="654.50" y1="192.94" x2="658.50" y2="192.94" stroke="#333" stroke-width="1"/>
<text x="645.28" y="214" text-anchor="end" font-size="9" fill="#FF9800" transform="rotate(-45,645.28,214)">Formality</text>
<rect x="678.94" y="156.83" width="22.44" height="43.17" fill="#2E7D32" opacity="0.85"><title>Partner Identity: 0.001801</title></rect>
<line x1="690.17" y1="166.54" x2="690.17" y2="147.89" stroke="#333" stroke-width="1"/>
<line x1="688.17" y1="166.54" x2="692.17" y2="166.54" stroke="#333" stroke-width="1"/>
<line x1="688.17" y1="147.89" x2="692.17" y2="147.89" stroke="#333" stroke-width="1"/>
<rect x="701.39" y="193.86" width="22.44" height="6.14" fill="#616161" opacity="0.85"><title>Control: 0.000256</title></rect>
<line x1="712.61" y1="194.66" x2="712.61" y2="193.07" stroke="#333" stroke-width="1"/>
<line x1="710.61" y1="194.66" x2="714.61" y2="194.66" stroke="#333" stroke-width="1"/>
<line x1="710.61" y1="193.07" x2="714.61" y2="193.07" stroke="#333" stroke-width="1"/>
<text x="701.39" y="214" text-anchor="end" font-size="9" fill="#FF9800" transform="rotate(-45,701.39,214)">Expertise</text>
<rect x="735.06" y="185.24" width="22.44" height="14.76" fill="#2E7D32" opacity="0.85"><title>Partner Identity: 0.000616</title></rect>
<line x1="746.28" y1="194.61" x2="746.28" y2="175.33" stroke="#333" stroke-width="1"/>
<line x1="744.28" y1="194.61" x2="748.28" y2="194.61" stroke="#333" stroke-width="1"/>
<line x1="744.28" y1="175.33" x2="748.28" y2="175.33" stroke="#333" stroke-width="1"/>
<rect x="757.50" y="195.80" width="22.44" height="4.20" fill="#616161" opacity="0.85"><title>Control: 0.000175</title></rect>
<line x1="768.72" y1="196.83" x2="768.72" y2="192.62" stroke="#333" stroke-width="1"/>
<line x1="766.72" y1="196.83" x2="770.72" y2="196.83" stroke="#333" stroke-width="1"/>
<line x1="766.72" y1="192.62" x2="770.72" y2="192.62" stroke="#333" stroke-width="1"/>
<text x="757.50" y="214" text-anchor="end" font-size="9" fill="#FF9800" transform="rotate(-45,757.50,214)">Helpfulness</text>
<rect x="791.17" y="86.35" width="22.44" height="113.65" fill="#2E7D32" opacity="0.85"><title>Partner Identity: 0.004741</title></rect>
<line x1="802.39" y1="112.67" x2="802.39" y2="74.95" stroke="#333" stroke-width="1"/>
<line x1="800.39" y1="112.67" x2="804.39" y2="112.67" stroke="#333" stroke-width="1"/>
<line x1="800.39" y1="74.95" x2="804.39" y2="74.95" stroke="#333" stroke-width="1"/>
<rect x="813.61" y="195.74" width="22.44" height="4.26" fill="#616161" opacity="0.85"><title>Control: 0.000178</title></rect>
<line x1="824.83" y1="196.72" x2="824.83" y2="194.11" stroke="#333" stroke-width="1"/>
<line x1="822.83" y1="196.72" x2="826.83" y2="196.72" stroke="#333" stroke-width="1"/>
<line x1="822.83" y1="194.11" x2="826.83" y2="194.11" stroke="#333" stroke-width="1"/>
<text x="813.61" y="214" text-anchor="end" font-size="9" fill="#9E9E9E" transform="rotate(-45,813.61,214)">Baseline</text>
<rect x="847.28" y="151.25" width="22.44" height="48.75" fill="#2E7D32" opacity="0.85"><title>Partner Identity: 0.002034</title></rect>
<line x1="858.50" y1="158.48" x2="858.50" y2="146.14" stroke="#333" stroke-width="1"/>
<line x1="856.50" y1="158.48" x2="860.50" y2="158.48" stroke="#333" stroke-width="1"/>
<line x1="856.50" y1="146.14" x2="860.50" y2="146.14" stroke="#333" stroke-width="1"/>
<rect x="869.72" y="194.19" width="22.44" height="5.81" fill="#616161" opacity="0.85"><title>Control: 0.000242</title></rect>
<line x1="880.94" y1="195.08" x2="880.94" y2="193.16" stroke="#333" stroke-width="1"/>
<line x1="878.94" y1="195.08" x2="882.94" y2="195.08" stroke="#333" stroke-width="1"/>
<line x1="878.94" y1="193.16" x2="882.94" y2="193.16" stroke="#333" stroke-width="1"/>
<text x="869.72" y="214" text-anchor="end" font-size="9" fill="#9E9E9E" transform="rotate(-45,869.72,214)">Biological</text>
<rect x="903.39" y="186.21" width="22.44" height="13.79" fill="#2E7D32" opacity="0.85"><title>Partner Identity: 0.000575</title></rect>
<line x1="914.61" y1="193.74" x2="914.61" y2="178.57" stroke="#333" stroke-width="1"/>
<line x1="912.61" y1="193.74" x2="916.61" y2="193.74" stroke="#333" stroke-width="1"/>
<line x1="912.61" y1="178.57" x2="916.61" y2="178.57" stroke="#333" stroke-width="1"/>
<rect x="925.83" y="194.50" width="22.44" height="5.50" fill="#616161" opacity="0.85"><title>Control: 0.000229</title></rect>
<line x1="937.06" y1="196.64" x2="937.06" y2="192.12" stroke="#333" stroke-width="1"/>
<line x1="935.06" y1="196.64" x2="939.06" y2="196.64" stroke="#333" stroke-width="1"/>
<line x1="935.06" y1="192.12" x2="939.06" y2="192.12" stroke="#333" stroke-width="1"/>
<text x="925.83" y="214" text-anchor="end" font-size="9" fill="#9E9E9E" transform="rotate(-45,925.83,214)">Shapes</text>
<rect x="959.50" y="75.70" width="22.44" height="124.30" fill="#2E7D32" opacity="0.85"><title>Partner Identity: 0.005185</title></rect>
<line x1="970.72" y1="109.30" x2="970.72" y2="26.84" stroke="#333" stroke-width="1"/>
<line x1="968.72" y1="109.30" x2="972.72" y2="109.30" stroke="#333" stroke-width="1"/>
<line x1="968.72" y1="26.84" x2="972.72" y2="26.84" stroke="#333" stroke-width="1"/>
<rect x="981.94" y="195.92" width="22.44" height="4.08" fill="#616161" opacity="0.85"><title>Control: 0.000170</title></rect>
<line x1="993.17" y1="196.55" x2="993.17" y2="195.31" stroke="#333" stroke-width="1"/>
<line x1="991.17" y1="196.55" x2="995.17" y2="196.55" stroke="#333" stroke-width="1"/>
<line x1="991.17" y1="195.31" x2="995.17" y2="195.31" stroke="#333" stroke-width="1"/>
<text x="981.94" y="214" text-anchor="end" font-size="9" fill="#00BCD4" transform="rotate(-45,981.94,214)">SysPrompt (labeled)</text>
<line x1="0" y1="200" x2="1010" y2="200" stroke="#333"/>
<line x1="0" y1="0" x2="0" y2="200" stroke="#333"/>
</g>
<rect x="70.0" y="324" width="10" height="10" fill="#2E7D32"/>
<text x="84.0" y="332" font-size="8" fill="#333">Partner Identity</text>
<rect x="272.0" y="324" width="10" height="10" fill="#616161"/>
<text x="286.0" y="332" font-size="8" fill="#333">Control</text>
</svg>