<svg viewBox="0 0 1100 360" xmlns="http://www.w3.org/2000/svg" style="width:100%;max-width:1100px;height:auto;font-family:Arial,sans-serif;">
<rect width="1100" height="360" fill="white"/>
<g transform="translate(70,30)">
<line x1="0" y1="200.0" x2="1010" y2="200.0" stroke="#eee" stroke-width="1"/>
<text x="-8" y="204.0" text-anchor="end" font-size="10" fill="#666">0.00</text>
<line x1="0" y1="160.0" x2="1010" y2="160.0" stroke="#eee" stroke-width="1"/>
<text x="-8" y="164.0" text-anchor="end" font-size="10" fill="#666">1.35</text>
<line x1="0" y1="120.0" x2="1010" y2="120.0" stroke="#eee" stroke-width="1"/>
<text x="-8" y="124.0" text-anchor="end" font-size="10" fill="#666">2.71</text>
<line x1="0" y1="80.0" x2="1010" y2="80.0" stroke="#eee" stroke-width="1"/>
<text x="-8" y="84.0" text-anchor="end" font-size="10" fill="#666">4.06</text>
<line x1="0" y1="40.0" x2="1010" y2="40.0" stroke="#eee" stroke-width="1"/>
<text x="-8" y="44.0" text-anchor="end" font-size="10" fill="#666">5.41</text>
<line x1="0" y1="0.0" x2="1010" y2="0.0" stroke="#eee" stroke-width="1"/>
<text x="-8" y="4.0" text-anchor="end" font-size="10" fill="#666">6.76</text>
<text x="-50" y="100.0" text-anchor="middle" font-size="11" fill="#333" transform="rotate(-90,-50,100.0)">Mean R² (×10⁻³)</text>
<rect x="5.61" y="186.07" width="22.44" height="13.93" fill="#2E7D32" opacity="0.85"><title>Partner Identity: 0.000471</title></rect>
<line x1="16.83" y1="189.56" x2="16.83" y2="173.76" stroke="#333" stroke-width="1"/>
<line x1="14.83" y1="189.56" x2="18.83" y2="189.56" stroke="#333" stroke-width="1"/>
<line x1="14.83" y1="173.76" x2="18.83" y2="173.76" stroke="#333" stroke-width="1"/>
<rect x="28.06" y="183.61" width="22.44" height="16.39" fill="#616161" opacity="0.85"><title>Control: 0.000554</title></rect>
<line x1="39.28" y1="186.93" x2="39.28" y2="173.31" stroke="#333" stroke-width="1"/>
<line x1="37.28" y1="186.93" x2="41.28" y2="186.93" stroke="#333" stroke-width="1"/>
<line x1="37.28" y1="173.31" x2="41.28" y2="173.31" stroke="#333" stroke-width="1"/>
<text x="28.06" y="214" text-anchor="end" font-size="9" fill="#2196F3" transform="rotate(-45,28.06,214)">Phenomenology</text>
<rect x="61.72" y="180.14" width="22.44" height="19.86" fill="#2E7D32" opacity="0.85"><title>Partner Identity: 0.000672</title></rect>
<line x1="72.94" y1="184.04" x2="72.94" y2="167.16" stroke="#333" stroke-width="1"/>
<line x1="70.94" y1="184.04" x2="74.94" y2="184.04" stroke="#333" stroke-width="1"/>
<line x1="70.94" y1="167.16" x2="74.94" y2="167.16" stroke="#333" stroke-width="1"/>
<rect x="84.17" y="182.03" width="22.44" height="17.97" fill="#616161" opacity="0.85"><title>Control: 0.000607</title></rect>
<line x1="95.39" y1="185.37" x2="95.39" y2="173.40" stroke="#333" stroke-width="1"/>
<line x1="93.39" y1="185.37" x2="97.39" y2="185.37" stroke="#333" stroke-width="1"/>
<line x1="93.39" y1="173.40" x2="97.39" y2="173.40" stroke="#333" stroke-width="1"/>
<text x="84.17" y="214" text-anchor="end" font-size="9" fill="#2196F3" transform="rotate(-45,84.17,214)">Emotions</text>
<rect x="117.83" y="171.72" width="22.44" height="28.28" fill="#2E7D32" opacity="0.85"><title>Partner Identity: 0.000956</title></rect>
<line x1="129.06" y1="176.89" x2="129.06" y2="158.90" stroke="#333" stroke-width="1"/>
<line x1="127.06" y1="176.89" x2="131.06" y2="176.89" stroke="#333" stroke-width="1"/>
<line x1="127.06" y1="158.90" x2="131.06" y2="158.90" stroke="#333" stroke-width="1"/>
<rect x="140.28" y="176.43" width="22.44" height="23.57" fill="#616161" opacity="0.85"><title>Control: 0.000797</title></rect>
<line x1="151.50" y1="180.35" x2="151.50" y2="161.69" stroke="#333" stroke-width="1"/>
<line x1="149.50" y1="180.35" x2="153.50" y2="180.35" stroke="#333" stroke-width="1"/>
<line x1="149.50" y1="161.69" x2="153.50" y2="161.69" stroke="#333" stroke-width="1"/>
<text x="140.28" y="214" text-anchor="end" font-size="9" fill="#2196F3" transform="rotate(-45,140.28,214)">Agency</text>
<rect x="173.94" y="175.97" width="22.44" height="24.03" fill="#2E7D32" opacity="0.85"><title>Partner Identity: 0.000812</title></rect>
<line x1="185.17" y1="180.57" x2="185.17" y2="163.92" stroke="#333" stroke-width="1"/>
<line x1="183.17" y1="180.57" x2="187.17" y2="180.57" stroke="#333" stroke-width="1"/>
<line x1="183.17" y1="163.92" x2="187.17" y2="163.92" stroke="#333" stroke-width="1"/>
<rect x="196.39" y="175.45" width="22.44" height="24.55" fill="#616161" opacity="0.85"><title>Control: 0.000830</title></rect>
<line x1="207.61" y1="179.43" x2="207.61" y2="163.25" stroke="#333" stroke-width="1"/>
<line x1="205.61" y1="179.43" x2="209.61" y2="179.43" stroke="#333" stroke-width="1"/>
<line x1="205.61" y1="163.25" x2="209.61" y2="163.25" stroke="#333" stroke-width="1"/>
<text x="196.39" y="214" text-anchor="end" font-size="9" fill="#2196F3" transform="rotate(-45,196.39,214)">Intentions</text>
<rect x="230.06" y="168.53" width="22.44" height="31.47" fill="#2E7D32" opacity="0.85"><title>Partner Identity: 0.001064</title></rect>
<line x1="241.28" y1="175.24" x2="241.28" y2="151.02" stroke="#333" stroke-width="1"/>
<line x1="239.28" y1="175.24" x2="243.28" y2="175.24" stroke="#333" stroke-width="1"/>
<line x1="239.28" y1="151.02" x2="243.28" y2="151.02" stroke="#333" stroke-width="1"/>
<rect x="252.50" y="177.93" width="22.44" height="22.07" fill="#616161" opacity="0.85"><title>Control: 0.000746</title></rect>
<line x1="263.72" y1="181.26" x2="263.72" y2="159.46" stroke="#333" stroke-width="1"/>
<line x1="261.72" y1="181.26" x2="265.72" y2="181.26" stroke="#333" stroke-width="1"/>
<line x1="261.72" y1="159.46" x2="265.72" y2="159.46" stroke="#333" stroke-width="1"/>
<text x="252.50" y="214" text-anchor="end" font-size="9" fill="#2196F3" transform="rotate(-45,252.50,214)">Prediction</text>
<rect x="286.17" y="175.04" width="22.44" height="24.96" fill="#2E7D32" opacity="0.85"><title>Partner Identity: 0.000844</title></rect>
<line x1="297.39" y1="180.41" x2="297.39" y2="159.31" stroke="#333" stroke-width="1"/>
<line x1="295.39" y1="180.41" x2="299.39" y2="180.41" stroke="#333" stroke-width="1"/>
<line x1="295.39" y1="159.31" x2="299.39" y2="159.31" stroke="#333" stroke-width="1"/>
<rect x="308.61" y="178.09" width="22.44" height="21.91" fill="#616161" opacity="0.85"><title>Control: 0.000741</title></rect>
<line x1="319.83" y1="184.24" x2="319.83" y2="165.46" stroke="#333" stroke-width="1"/>
<line x1="317.83" y1="184.24" x2="321.83" y2="184.24" stroke="#333" stroke-width="1"/>
<line x1="317.83" y1="165.46" x2="321.83" y2="165.46" stroke="#333" stroke-width="1"/>
<text x="308.61" y="214" text-anchor="end" font-size="9" fill="#2196F3" transform="rotate(-45,308.61,214)">Cognitive</text>
<rect x="342.28" y="170.71" width="22.44" height="29.29" fill="#2E7D32" opacity="0.85"><title>Partner Identity: 0.000991</title></rect>
<line x1="353.50" y1="177.41" x2="353.50" y2="154.22" stroke="#333" stroke-width="1"/>
<line x1="351.50" y1="177.41" x2="355.50" y2="177.41" stroke="#333" stroke-width="1"/>
<line x1="351.50" y1="154.22" x2="355.50" y2="154.22" stroke="#333" stroke-width="1"/>
<rect x="364.72" y="182.07" width="22.44" height="17.93" fill="#616161" opacity="0.85"><title>Control: 0.000606</title></rect>
<line x1="375.94" y1="185.58" x2="375.94" y2="162.34" stroke="#333" stroke-width="1"/>
<line x1="373.94" y1="185.58" x2="377.94" y2="185.58" stroke="#333" stroke-width="1"/>
<line x1="373.94" y1="162.34" x2="377.94" y2="162.34" stroke="#333" stroke-width="1"/>
<text x="364.72" y="214" text-anchor="end" font-size="9" fill="#2196F3" transform="rotate(-45,364.72,214)">Social</text>
<rect x="398.39" y="167.91" width="22.44" height="32.09" fill="#2E7D32" opacity="0.85"><title>Partner Identity: 0.001085</title></rect>
<line x1="409.61" y1="174.30" x2="409.61" y2="150.46" stroke="#333" stroke-width="1"/>
<line x1="407.61" y1="174.30" x2="411.61" y2="174.30" stroke="#333" stroke-width="1"/>
<line x1="407.61" y1="150.46" x2="411.61" y2="150.46" stroke="#333" stroke-width="1"/>
<rect x="420.83" y="180.44" width="22.44" height="19.56" fill="#616161" opacity="0.85"><title>Control: 0.000661</title></rect>
<line x1="432.06" y1="183.45" x2="432.06" y2="165.79" stroke="#333" stroke-width="1"/>
<line x1="430.06" y1="183.45" x2="434.06" y2="183.45" stroke="#333" stroke-width="1"/>
<line x1="430.06" y1="165.79" x2="434.06" y2="165.79" stroke="#333" stroke-width="1"/>
<text x="420.83" y="214" text-anchor="end" font-size="9" fill="#2196F3" transform="rotate(-45,420.83,214)">Attention</text>
<rect x="454.50" y="186.80" width="22.44" height="13.20" fill="#2E7D32" opacity="0.85"><title>Partner Identity: 0.000446</title></rect>
<line x1="465.72" y1="189.97" x2="465.72" y2="174.37" stroke="#333" stroke-width="1"/>
<line x1="463.72" y1="189.97" x2="467.72" y2="189.97" stroke="#333" stroke-width="1"/>
<line x1="463.72" y1="174.37" x2="467.72" y2="174.37" stroke="#333" stroke-width="1"/>
<rect x="476.94" y="175.44" width="22.44" height="24.56" fill="#616161" opacity="0.85"><title>Control: 0.000831</title></rect>
<line x1="488.17" y1="181.34" x2="488.17" y2="161.42" stroke="#333" stroke-width="1"/>
<line x1="486.17" y1="181.34" x2="490.17" y2="181.34" stroke="#333" stroke-width="1"/>
<line x1="486.17" y1="161.42" x2="490.17" y2="161.42" stroke="#333" stroke-width="1"/>
<text x="476.94" y="214" text-anchor="end" font-size="9" fill="#4CAF50" transform="rotate(-45,476.94,214)">Embodiment</text>
<rect x="510.61" y="179.61" width="22.44" height="20.39" fill="#2E7D32" opacity="0.85"><title>Partner Identity: 0.000689</title></rect>
<line x1="521.83" y1="186.01" x2="521.83" y2="159.78" stroke="#333" stroke-width="1"/>
<line x1="519.83" y1="186.01" x2="523.83" y2="186.01" stroke="#333" stroke-width="1"/>
<line x1="519.83" y1="159.78" x2="523.83" y2="159.78" stroke="#333" stroke-width="1"/>
<rect x="533.06" y="174.09" width="22.44" height="25.91" fill="#616161" opacity="0.85"><title>Control: 0.000876</title></rect>
<line x1="544.28" y1="180.78" x2="544.28" y2="154.13" stroke="#333" stroke-width="1"/>
<line x1="542.28" y1="180.78" x2="546.28" y2="180.78" stroke="#333" stroke-width="1"/>
<line x1="542.28" y1="154.13" x2="546.28" y2="154.13" stroke="#333" stroke-width="1"/>
<text x="533.06" y="214" text-anchor="end" font-size="9" fill="#4CAF50" transform="rotate(-45,533.06,214)">Roles</text>
<rect x="566.72" y="186.29" width="22.44" height="13.71" fill="#2E7D32" opacity="0.85"><title>Partner Identity: 0.000464</title></rect>
<line x1="577.94" y1="190.78" x2="577.94" y2="172.39" stroke="#333" stroke-width="1"/>
<line x1="575.94" y1="190.78" x2="579.94" y2="190.78" stroke="#333" stroke-width="1"/>
<line x1="575.94" y1="172.39" x2="579.94" y2="172.39" stroke="#333" stroke-width="1"/>
<rect x="589.17" y="178.00" width="22.44" height="22.00" fill="#616161" opacity="0.85"><title>Control: 0.000744</title></rect>
<line x1="600.39" y1="184.34" x2="600.39" y2="161.01" stroke="#333" stroke-width="1"/>
<line x1="598.39" y1="184.34" x2="602.39" y2="184.34" stroke="#333" stroke-width="1"/>
<line x1="598.39" y1="161.01" x2="602.39" y2="161.01" stroke="#333" stroke-width="1"/>
<text x="589.17" y="214" text-anchor="end" font-size="9" fill="#4CAF50" transform="rotate(-45,589.17,214)">Animacy</text>
<rect x="622.83" y="192.73" width="22.44" height="7.27" fill="#2E7D32" opacity="0.85"><title>Partner Identity: 0.000246</title></rect>
<line x1="634.06" y1="195.03" x2="634.06" y2="189.65" stroke="#333" stroke-width="1"/>
<line x1="632.06" y1="195.03" x2="636.06" y2="195.03" stroke="#333" stroke-width="1"/>
<line x1="632.06" y1="189.65" x2="636.06" y2="189.65" stroke="#333" stroke-width="1"/>
<rect x="645.28" y="177.96" width="22.44" height="22.04" fill="#616161" opacity="0.85"><title>Control: 0.000745</title></rect>
<line x1="656.50" y1="189.65" x2="656.50" y2="168.94" stroke="#333" stroke-width="1"/>
<line x1="654.50" y1="189.65" x2="658.50" y2="189.65" stroke="#333" stroke-width="1"/>
<line x1="654.50" y1="168.94" x2="658.50" y2="168.94" stroke="#333" stroke-width="1"/>
<text x="645.28" y="214" text-anchor="end" font-size="9" fill="#FF9800" transform="rotate(-45,645.28,214)">Formality</text>
<rect x="678.94" y="189.09" width="22.44" height="10.91" fill="#2E7D32" opacity="0.85"><title>Partner Identity: 0.000369</title></rect>
<line x1="690.17" y1="192.42" x2="690.17" y2="184.97" stroke="#333" stroke-width="1"/>
<line x1="688.17" y1="192.42" x2="692.17" y2="192.42" stroke="#333" stroke-width="1"/>
<line x1="688.17" y1="184.97" x2="692.17" y2="184.97" stroke="#333" stroke-width="1"/>
<rect x="701.39" y="181.87" width="22.44" height="18.13" fill="#616161" opacity="0.85"><title>Control: 0.000613</title></rect>
<line x1="712.61" y1="187.40" x2="712.61" y2="177.27" stroke="#333" stroke-width="1"/>
<line x1="710.61" y1="187.40" x2="714.61" y2="187.40" stroke="#333" stroke-width="1"/>
<line x1="710.61" y1="177.27" x2="714.61" y2="177.27" stroke="#333" stroke-width="1"/>
<text x="701.39" y="214" text-anchor="end" font-size="9" fill="#FF9800" transform="rotate(-45,701.39,214)">Expertise</text>
<rect x="735.06" y="178.97" width="22.44" height="21.03" fill="#2E7D32" opacity="0.85"><title>Partner Identity: 0.000711</title></rect>
<line x1="746.28" y1="190.11" x2="746.28" y2="173.97" stroke="#333" stroke-width="1"/>
<line x1="744.28" y1="190.11" x2="748.28" y2="190.11" stroke="#333" stroke-width="1"/>
<line x1="744.28" y1="173.97" x2="748.28" y2="173.97" stroke="#333" stroke-width="1"/>
<rect x="757.50" y="184.42" width="22.44" height="15.58" fill="#616161" opacity="0.85"><title>Control: 0.000527</title></rect>
<line x1="768.72" y1="190.79" x2="768.72" y2="177.01" stroke="#333" stroke-width="1"/>
<line x1="766.72" y1="190.79" x2="770.72" y2="190.79" stroke="#333" stroke-width="1"/>
<line x1="766.72" y1="177.01" x2="770.72" y2="177.01" stroke="#333" stroke-width="1"/>
<text x="757.50" y="214" text-anchor="end" font-size="9" fill="#FF9800" transform="rotate(-45,757.50,214)">Helpfulness</text>
<rect x="791.17" y="133.12" width="22.44" height="66.88" fill="#2E7D32" opacity="0.85"><title>Partner Identity: 0.002261</title></rect>
<line x1="802.39" y1="194.10" x2="802.39" y2="153.71" stroke="#333" stroke-width="1"/>
<line x1="800.39" y1="194.10" x2="804.39" y2="194.10" stroke="#333" stroke-width="1"/>
<line x1="800.39" y1="153.71" x2="804.39" y2="153.71" stroke="#333" stroke-width="1"/>
<rect x="813.61" y="26.84" width="22.44" height="173.16" fill="#616161" opacity="0.85"><title>Control: 0.005855</title></rect>
<line x1="824.83" y1="190.82" x2="824.83" y2="130.42" stroke="#333" stroke-width="1"/>
<line x1="822.83" y1="190.82" x2="826.83" y2="190.82" stroke="#333" stroke-width="1"/>
<line x1="822.83" y1="130.42" x2="826.83" y2="130.42" stroke="#333" stroke-width="1"/>
<text x="813.61" y="214" text-anchor="end" font-size="9" fill="#9E9E9E" transform="rotate(-45,813.61,214)">Baseline</text>
<rect x="847.28" y="186.93" width="22.44" height="13.07" fill="#2E7D32" opacity="0.85"><title>Partner Identity: 0.000442</title></rect>
<line x1="858.50" y1="189.11" x2="858.50" y2="177.34" stroke="#333" stroke-width="1"/>
<line x1="856.50" y1="189.11" x2="860.50" y2="189.11" stroke="#333" stroke-width="1"/>
<line x1="856.50" y1="177.34" x2="860.50" y2="177.34" stroke="#333" stroke-width="1"/>
<rect x="869.72" y="184.87" width="22.44" height="15.13" fill="#616161" opacity="0.85"><title>Control: 0.000512</title></rect>
<line x1="880.94" y1="186.06" x2="880.94" y2="172.18" stroke="#333" stroke-width="1"/>
<line x1="878.94" y1="186.06" x2="882.94" y2="186.06" stroke="#333" stroke-width="1"/>
<line x1="878.94" y1="172.18" x2="882.94" y2="172.18" stroke="#333" stroke-width="1"/>
<text x="869.72" y="214" text-anchor="end" font-size="9" fill="#9E9E9E" transform="rotate(-45,869.72,214)">Biological</text>
<rect x="903.39" y="181.88" width="22.44" height="18.12" fill="#2E7D32" opacity="0.85"><title>Partner Identity: 0.000613</title></rect>
<line x1="914.61" y1="190.13" x2="914.61" y2="175.88" stroke="#333" stroke-width="1"/>
<line x1="912.61" y1="190.13" x2="916.61" y2="190.13" stroke="#333" stroke-width="1"/>
<line x1="912.61" y1="175.88" x2="916.61" y2="175.88" stroke="#333" stroke-width="1"/>
<rect x="925.83" y="176.47" width="22.44" height="23.53" fill="#616161" opacity="0.85"><title>Control: 0.000796</title></rect>
<line x1="937.06" y1="189.38" x2="937.06" y2="160.15" stroke="#333" stroke-width="1"/>
<line x1="935.06" y1="189.38" x2="939.06" y2="189.38" stroke="#333" stroke-width="1"/>
<line x1="935.06" y1="160.15" x2="939.06" y2="160.15" stroke="#333" stroke-width="1"/>
<text x="925.83" y="214" text-anchor="end" font-size="9" fill="#9E9E9E" transform="rotate(-45,925.83,214)">Shapes</text>
<rect x="959.50" y="130.01" width="22.44" height="69.99" fill="#2E7D32" opacity="0.85"><title>Partner Identity: 0.002366</title></rect>
<line x1="970.72" y1="144.09" x2="970.72" y2="97.28" stroke="#333" stroke-width="1"/>
<line x1="968.72" y1="144.09" x2="972.72" y2="144.09" stroke="#333" stroke-width="1"/>
<line x1="968.72" y1="97.28" x2="972.72" y2="97.28" stroke="#333" stroke-width="1"/>
<rect x="981.94" y="186.18" width="22.44" height="13.82" fill="#616161" opacity="0.85"><title>Control: 0.000467</title></rect>
<line x1="993.17" y1="188.76" x2="993.17" y2="174.28" stroke="#333" stroke-width="1"/>
<line x1="991.17" y1="188.76" x2="995.17" y2="188.76" stroke="#333" stroke-width="1"/>
<line x1="991.17" y1="174.28" x2="995.17" y2="174.28" stroke="#333" stroke-width="1"/>
<text x="981.94" y="214" text-anchor="end" font-size="9" fill="#00BCD4" transform="rotate(-45,981.94,214)">SysPrompt (labeled)</text>
<line x1="0" y1="200" x2="1010" y2="200" stroke="#333"/>
<line x1="0" y1="0" x2="0" y2="200" stroke="#333"/>
</g>
<rect x="70.0" y="324" width="10" height="10" fill="#2E7D32"/>
<text x="84.0" y="332" font-size="8" fill="#333">Partner Identity</text>
<rect x="272.0" y="324" width="10" height="10" fill="#616161"/>
<text x="286.0" y="332" font-size="8" fill="#333">Control</text>
</svg>