<svg viewBox="0 0 800 320" xmlns="http://www.w3.org/2000/svg" style="width:100%;max-width:800px;height:auto;font-family:Arial,sans-serif;">
<rect width="800" height="320" fill="white"/>

<g transform="translate(70,30)">
<line x1="0" y1="180.0" x2="710" y2="180.0" stroke="#eee" stroke-width="1"/>
<text x="-8" y="184.0" text-anchor="end" font-size="10" fill="#666">0.00</text>
<line x1="0" y1="144.0" x2="710" y2="144.0" stroke="#eee" stroke-width="1"/>
<text x="-8" y="148.0" text-anchor="end" font-size="10" fill="#666">1.61</text>
<line x1="0" y1="108.0" x2="710" y2="108.0" stroke="#eee" stroke-width="1"/>
<text x="-8" y="112.0" text-anchor="end" font-size="10" fill="#666">3.23</text>
<line x1="0" y1="72.0" x2="710" y2="72.0" stroke="#eee" stroke-width="1"/>
<text x="-8" y="76.0" text-anchor="end" font-size="10" fill="#666">4.84</text>
<line x1="0" y1="36.0" x2="710" y2="36.0" stroke="#eee" stroke-width="1"/>
<text x="-8" y="40.0" text-anchor="end" font-size="10" fill="#666">6.46</text>
<line x1="0" y1="0.0" x2="710" y2="0.0" stroke="#eee" stroke-width="1"/>
<text x="-8" y="4.0" text-anchor="end" font-size="10" fill="#666">8.07</text>
<text x="-50" y="90.0" text-anchor="middle" font-size="11" fill="#333" transform="rotate(-90,-50,90.0)">Mean R² (×10⁻³)</text>
<rect x="26.62" y="173.80" width="62.12" height="6.20" fill="#81C784" opacity="0.85"><title>Partner Identity — Embodiment: 0.278 ×10⁻³</title></rect>
<line x1="57.69" y1="175.60" x2="57.69" y2="171.47" stroke="#333" stroke-width="1"/>
<line x1="55.69" y1="175.60" x2="59.69" y2="175.60" stroke="#333" stroke-width="1"/>
<line x1="55.69" y1="171.47" x2="59.69" y2="171.47" stroke="#333" stroke-width="1"/>
<rect x="90.75" y="172.94" width="62.12" height="7.06" fill="#BDBDBD" opacity="0.85"><title>Control — Embodiment: 0.317 ×10⁻³</title></rect>
<line x1="121.81" y1="174.17" x2="121.81" y2="171.52" stroke="#333" stroke-width="1"/>
<line x1="119.81" y1="174.17" x2="123.81" y2="174.17" stroke="#333" stroke-width="1"/>
<line x1="119.81" y1="171.52" x2="123.81" y2="171.52" stroke="#333" stroke-width="1"/>
<text x="90.8" y="194" text-anchor="end" font-size="10" fill="#4CAF50" transform="rotate(-30,90.8,194)">Embodiment</text>
<rect x="204.12" y="173.92" width="62.12" height="6.08" fill="#81C784" opacity="0.85"><title>Partner Identity — Roles: 0.273 ×10⁻³</title></rect>
<line x1="235.19" y1="175.40" x2="235.19" y2="171.29" stroke="#333" stroke-width="1"/>
<line x1="233.19" y1="175.40" x2="237.19" y2="175.40" stroke="#333" stroke-width="1"/>
<line x1="233.19" y1="171.29" x2="237.19" y2="171.29" stroke="#333" stroke-width="1"/>
<rect x="268.25" y="173.23" width="62.12" height="6.77" fill="#BDBDBD" opacity="0.85"><title>Control — Roles: 0.304 ×10⁻³</title></rect>
<line x1="299.31" y1="174.84" x2="299.31" y2="170.96" stroke="#333" stroke-width="1"/>
<line x1="297.31" y1="174.84" x2="301.31" y2="174.84" stroke="#333" stroke-width="1"/>
<line x1="297.31" y1="170.96" x2="301.31" y2="170.96" stroke="#333" stroke-width="1"/>
<text x="268.2" y="194" text-anchor="end" font-size="10" fill="#4CAF50" transform="rotate(-30,268.2,194)">Roles</text>
<line x1="355.0" y1="0" x2="355.0" y2="180" stroke="#ccc" stroke-width="1" stroke-dasharray="4,3"/>
<rect x="381.62" y="174.53" width="62.12" height="5.47" fill="#81C784" opacity="0.5"><title>Partner Identity — Biological: 0.245 ×10⁻³</title></rect>
<line x1="412.69" y1="175.85" x2="412.69" y2="172.63" stroke="#333" stroke-width="1"/>
<line x1="410.69" y1="175.85" x2="414.69" y2="175.85" stroke="#333" stroke-width="1"/>
<line x1="410.69" y1="172.63" x2="414.69" y2="172.63" stroke="#333" stroke-width="1"/>
<rect x="445.75" y="173.48" width="62.12" height="6.52" fill="#BDBDBD" opacity="0.5"><title>Control — Biological: 0.293 ×10⁻³</title></rect>
<line x1="476.81" y1="174.45" x2="476.81" y2="172.46" stroke="#333" stroke-width="1"/>
<line x1="474.81" y1="174.45" x2="478.81" y2="174.45" stroke="#333" stroke-width="1"/>
<line x1="474.81" y1="172.46" x2="478.81" y2="172.46" stroke="#333" stroke-width="1"/>
<text x="445.8" y="194" text-anchor="end" font-size="10" fill="#9E9E9E" transform="rotate(-30,445.8,194)">Biological</text>
<rect x="559.12" y="169.65" width="62.12" height="10.35" fill="#81C784" opacity="0.5"><title>Partner Identity — Shapes: 0.464 ×10⁻³</title></rect>
<line x1="590.19" y1="173.59" x2="590.19" y2="165.20" stroke="#333" stroke-width="1"/>
<line x1="588.19" y1="173.59" x2="592.19" y2="173.59" stroke="#333" stroke-width="1"/>
<line x1="588.19" y1="165.20" x2="592.19" y2="165.20" stroke="#333" stroke-width="1"/>
<rect x="623.25" y="176.07" width="62.12" height="3.93" fill="#BDBDBD" opacity="0.5"><title>Control — Shapes: 0.176 ×10⁻³</title></rect>
<line x1="654.31" y1="177.17" x2="654.31" y2="173.99" stroke="#333" stroke-width="1"/>
<line x1="652.31" y1="177.17" x2="656.31" y2="177.17" stroke="#333" stroke-width="1"/>
<line x1="652.31" y1="173.99" x2="656.31" y2="173.99" stroke="#333" stroke-width="1"/>
<text x="623.2" y="194" text-anchor="end" font-size="10" fill="#9E9E9E" transform="rotate(-30,623.2,194)">Shapes</text>
<line x1="0" y1="180" x2="710" y2="180" stroke="#333"/>
<line x1="0" y1="0" x2="0" y2="180" stroke="#333"/>
</g>
<rect x="70" y="300" width="10" height="10" fill="#81C784"/>
<text x="84" y="308" font-size="9" fill="#333">Partner Identity</text>
<rect x="210" y="300" width="10" height="10" fill="#BDBDBD"/>
<text x="224" y="308" font-size="9" fill="#333">Control</text>
</svg>