<svg viewBox="0 0 800 320" xmlns="http://www.w3.org/2000/svg" style="width:100%;max-width:800px;height:auto;font-family:Arial,sans-serif;">
<rect width="800" height="320" fill="white"/>

<g transform="translate(70,30)">
<line x1="0" y1="180.0" x2="710" y2="180.0" stroke="#eee" stroke-width="1"/>
<text x="-8" y="184.0" text-anchor="end" font-size="10" fill="#666">0.00</text>
<line x1="0" y1="144.0" x2="710" y2="144.0" stroke="#eee" stroke-width="1"/>
<text x="-8" y="148.0" text-anchor="end" font-size="10" fill="#666">1.61</text>
<line x1="0" y1="108.0" x2="710" y2="108.0" stroke="#eee" stroke-width="1"/>
<text x="-8" y="112.0" text-anchor="end" font-size="10" fill="#666">3.23</text>
<line x1="0" y1="72.0" x2="710" y2="72.0" stroke="#eee" stroke-width="1"/>
<text x="-8" y="76.0" text-anchor="end" font-size="10" fill="#666">4.84</text>
<line x1="0" y1="36.0" x2="710" y2="36.0" stroke="#eee" stroke-width="1"/>
<text x="-8" y="40.0" text-anchor="end" font-size="10" fill="#666">6.46</text>
<line x1="0" y1="0.0" x2="710" y2="0.0" stroke="#eee" stroke-width="1"/>
<text x="-8" y="4.0" text-anchor="end" font-size="10" fill="#666">8.07</text>
<text x="-50" y="90.0" text-anchor="middle" font-size="11" fill="#333" transform="rotate(-90,-50,90.0)">Mean R² (×10⁻³)</text>
<rect x="21.30" y="127.58" width="49.70" height="52.42" fill="#2E7D32" opacity="0.85"><title>Partner Identity — Expertise: 2.351 ×10⁻³</title></rect>
<line x1="46.15" y1="137.77" x2="46.15" y2="119.74" stroke="#333" stroke-width="1"/>
<line x1="44.15" y1="137.77" x2="48.15" y2="137.77" stroke="#333" stroke-width="1"/>
<line x1="44.15" y1="119.74" x2="48.15" y2="119.74" stroke="#333" stroke-width="1"/>
<rect x="73.00" y="159.02" width="49.70" height="20.98" fill="#616161" opacity="0.85"><title>Control — Expertise: 0.941 ×10⁻³</title></rect>
<line x1="97.85" y1="163.01" x2="97.85" y2="156.08" stroke="#333" stroke-width="1"/>
<line x1="95.85" y1="163.01" x2="99.85" y2="163.01" stroke="#333" stroke-width="1"/>
<line x1="95.85" y1="156.08" x2="99.85" y2="156.08" stroke="#333" stroke-width="1"/>
<text x="73.0" y="194" text-anchor="end" font-size="10" fill="#FF9800" transform="rotate(-30,73.0,194)">Expertise</text>
<rect x="163.30" y="151.46" width="49.70" height="28.54" fill="#2E7D32" opacity="0.85"><title>Partner Identity — Formality: 1.280 ×10⁻³</title></rect>
<line x1="188.15" y1="165.19" x2="188.15" y2="144.62" stroke="#333" stroke-width="1"/>
<line x1="186.15" y1="165.19" x2="190.15" y2="165.19" stroke="#333" stroke-width="1"/>
<line x1="186.15" y1="144.62" x2="190.15" y2="144.62" stroke="#333" stroke-width="1"/>
<rect x="215.00" y="168.69" width="49.70" height="11.31" fill="#616161" opacity="0.85"><title>Control — Formality: 0.507 ×10⁻³</title></rect>
<line x1="239.85" y1="176.18" x2="239.85" y2="160.40" stroke="#333" stroke-width="1"/>
<line x1="237.85" y1="176.18" x2="241.85" y2="176.18" stroke="#333" stroke-width="1"/>
<line x1="237.85" y1="160.40" x2="241.85" y2="160.40" stroke="#333" stroke-width="1"/>
<text x="215.0" y="194" text-anchor="end" font-size="10" fill="#FF9800" transform="rotate(-30,215.0,194)">Formality</text>
<rect x="305.30" y="167.30" width="49.70" height="12.70" fill="#2E7D32" opacity="0.85"><title>Partner Identity — Helpfulness: 0.570 ×10⁻³</title></rect>
<line x1="330.15" y1="174.68" x2="330.15" y2="160.42" stroke="#333" stroke-width="1"/>
<line x1="328.15" y1="174.68" x2="332.15" y2="174.68" stroke="#333" stroke-width="1"/>
<line x1="328.15" y1="160.42" x2="332.15" y2="160.42" stroke="#333" stroke-width="1"/>
<rect x="357.00" y="167.02" width="49.70" height="12.98" fill="#616161" opacity="0.85"><title>Control — Helpfulness: 0.582 ×10⁻³</title></rect>
<line x1="381.85" y1="173.87" x2="381.85" y2="157.21" stroke="#333" stroke-width="1"/>
<line x1="379.85" y1="173.87" x2="383.85" y2="173.87" stroke="#333" stroke-width="1"/>
<line x1="379.85" y1="157.21" x2="383.85" y2="157.21" stroke="#333" stroke-width="1"/>
<text x="357.0" y="194" text-anchor="end" font-size="10" fill="#FF9800" transform="rotate(-30,357.0,194)">Helpfulness</text>
<line x1="426.0" y1="0" x2="426.0" y2="180" stroke="#ccc" stroke-width="1" stroke-dasharray="4,3"/>
<rect x="447.30" y="124.40" width="49.70" height="55.60" fill="#2E7D32" opacity="0.5"><title>Partner Identity — Biological: 2.494 ×10⁻³</title></rect>
<line x1="472.15" y1="131.95" x2="472.15" y2="119.19" stroke="#333" stroke-width="1"/>
<line x1="470.15" y1="131.95" x2="474.15" y2="131.95" stroke="#333" stroke-width="1"/>
<line x1="470.15" y1="119.19" x2="474.15" y2="119.19" stroke="#333" stroke-width="1"/>
<rect x="499.00" y="161.84" width="49.70" height="18.16" fill="#616161" opacity="0.5"><title>Control — Biological: 0.814 ×10⁻³</title></rect>
<line x1="523.85" y1="166.57" x2="523.85" y2="156.40" stroke="#333" stroke-width="1"/>
<line x1="521.85" y1="166.57" x2="525.85" y2="166.57" stroke="#333" stroke-width="1"/>
<line x1="521.85" y1="156.40" x2="525.85" y2="156.40" stroke="#333" stroke-width="1"/>
<text x="499.0" y="194" text-anchor="end" font-size="10" fill="#9E9E9E" transform="rotate(-30,499.0,194)">Biological</text>
<rect x="589.30" y="168.47" width="49.70" height="11.53" fill="#2E7D32" opacity="0.5"><title>Partner Identity — Shapes: 0.517 ×10⁻³</title></rect>
<line x1="614.15" y1="174.08" x2="614.15" y2="163.10" stroke="#333" stroke-width="1"/>
<line x1="612.15" y1="174.08" x2="616.15" y2="174.08" stroke="#333" stroke-width="1"/>
<line x1="612.15" y1="163.10" x2="616.15" y2="163.10" stroke="#333" stroke-width="1"/>
<rect x="641.00" y="172.30" width="49.70" height="7.70" fill="#616161" opacity="0.5"><title>Control — Shapes: 0.345 ×10⁻³</title></rect>
<line x1="665.85" y1="176.56" x2="665.85" y2="160.44" stroke="#333" stroke-width="1"/>
<line x1="663.85" y1="176.56" x2="667.85" y2="176.56" stroke="#333" stroke-width="1"/>
<line x1="663.85" y1="160.44" x2="667.85" y2="160.44" stroke="#333" stroke-width="1"/>
<text x="641.0" y="194" text-anchor="end" font-size="10" fill="#9E9E9E" transform="rotate(-30,641.0,194)">Shapes</text>
<line x1="0" y1="180" x2="710" y2="180" stroke="#333"/>
<line x1="0" y1="0" x2="0" y2="180" stroke="#333"/>
</g>
<rect x="70" y="300" width="10" height="10" fill="#2E7D32"/>
<text x="84" y="308" font-size="9" fill="#333">Partner Identity</text>
<rect x="210" y="300" width="10" height="10" fill="#616161"/>
<text x="224" y="308" font-size="9" fill="#333">Control</text>
</svg>