<svg viewBox="0 0 800 320" xmlns="http://www.w3.org/2000/svg" style="width:100%;max-width:800px;height:auto;font-family:Arial,sans-serif;">
<rect width="800" height="320" fill="white"/>

<g transform="translate(70,30)">
<line x1="0" y1="180.0" x2="710" y2="180.0" stroke="#eee" stroke-width="1"/>
<text x="-8" y="184.0" text-anchor="end" font-size="10" fill="#666">0.00</text>
<line x1="0" y1="144.0" x2="710" y2="144.0" stroke="#eee" stroke-width="1"/>
<text x="-8" y="148.0" text-anchor="end" font-size="10" fill="#666">1.65</text>
<line x1="0" y1="108.0" x2="710" y2="108.0" stroke="#eee" stroke-width="1"/>
<text x="-8" y="112.0" text-anchor="end" font-size="10" fill="#666">3.30</text>
<line x1="0" y1="72.0" x2="710" y2="72.0" stroke="#eee" stroke-width="1"/>
<text x="-8" y="76.0" text-anchor="end" font-size="10" fill="#666">4.95</text>
<line x1="0" y1="36.0" x2="710" y2="36.0" stroke="#eee" stroke-width="1"/>
<text x="-8" y="40.0" text-anchor="end" font-size="10" fill="#666">6.60</text>
<line x1="0" y1="0.0" x2="710" y2="0.0" stroke="#eee" stroke-width="1"/>
<text x="-8" y="4.0" text-anchor="end" font-size="10" fill="#666">8.25</text>
<text x="-50" y="90.0" text-anchor="middle" font-size="11" fill="#333" transform="rotate(-90,-50,90.0)">Mean R² (×10⁻³)</text>
<rect x="8.88" y="169.25" width="20.71" height="10.75" fill="#81C784" opacity="0.85"><title>Partner Identity — Social: 0.493 ×10⁻³</title></rect>
<line x1="19.23" y1="171.67" x2="19.23" y2="167.33" stroke="#333" stroke-width="1"/>
<line x1="17.23" y1="171.67" x2="21.23" y2="171.67" stroke="#333" stroke-width="1"/>
<line x1="17.23" y1="167.33" x2="21.23" y2="167.33" stroke="#333" stroke-width="1"/>
<rect x="31.58" y="167.68" width="20.71" height="12.32" fill="#BDBDBD" opacity="0.85"><title>Control — Social: 0.564 ×10⁻³</title></rect>
<line x1="41.94" y1="170.20" x2="41.94" y2="165.37" stroke="#333" stroke-width="1"/>
<line x1="39.94" y1="170.20" x2="43.94" y2="170.20" stroke="#333" stroke-width="1"/>
<line x1="39.94" y1="165.37" x2="43.94" y2="165.37" stroke="#333" stroke-width="1"/>
<text x="31.6" y="194" text-anchor="end" font-size="10" fill="#2196F3" transform="rotate(-30,31.6,194)">Social</text>
<rect x="68.04" y="171.24" width="20.71" height="8.76" fill="#81C784" opacity="0.85"><title>Partner Identity — Attention: 0.401 ×10⁻³</title></rect>
<line x1="78.40" y1="172.77" x2="78.40" y2="170.00" stroke="#333" stroke-width="1"/>
<line x1="76.40" y1="172.77" x2="80.40" y2="172.77" stroke="#333" stroke-width="1"/>
<line x1="76.40" y1="170.00" x2="80.40" y2="170.00" stroke="#333" stroke-width="1"/>
<rect x="90.75" y="169.16" width="20.71" height="10.84" fill="#BDBDBD" opacity="0.85"><title>Control — Attention: 0.497 ×10⁻³</title></rect>
<line x1="101.10" y1="171.02" x2="101.10" y2="167.83" stroke="#333" stroke-width="1"/>
<line x1="99.10" y1="171.02" x2="103.10" y2="171.02" stroke="#333" stroke-width="1"/>
<line x1="99.10" y1="167.83" x2="103.10" y2="167.83" stroke="#333" stroke-width="1"/>
<text x="90.7" y="194" text-anchor="end" font-size="10" fill="#2196F3" transform="rotate(-30,90.7,194)">Attention</text>
<rect x="127.21" y="172.66" width="20.71" height="7.34" fill="#81C784" opacity="0.85"><title>Partner Identity — Prediction: 0.336 ×10⁻³</title></rect>
<line x1="137.56" y1="174.66" x2="137.56" y2="169.88" stroke="#333" stroke-width="1"/>
<line x1="135.56" y1="174.66" x2="139.56" y2="174.66" stroke="#333" stroke-width="1"/>
<line x1="135.56" y1="169.88" x2="139.56" y2="169.88" stroke="#333" stroke-width="1"/>
<rect x="149.92" y="169.88" width="20.71" height="10.12" fill="#BDBDBD" opacity="0.85"><title>Control — Prediction: 0.464 ×10⁻³</title></rect>
<line x1="160.27" y1="172.06" x2="160.27" y2="167.17" stroke="#333" stroke-width="1"/>
<line x1="158.27" y1="172.06" x2="162.27" y2="172.06" stroke="#333" stroke-width="1"/>
<line x1="158.27" y1="167.17" x2="162.27" y2="167.17" stroke="#333" stroke-width="1"/>
<text x="149.9" y="194" text-anchor="end" font-size="10" fill="#2196F3" transform="rotate(-30,149.9,194)">Prediction</text>
<rect x="186.38" y="173.85" width="20.71" height="6.15" fill="#81C784" opacity="0.85"><title>Partner Identity — Roles: 0.282 ×10⁻³</title></rect>
<line x1="196.73" y1="174.69" x2="196.73" y2="172.69" stroke="#333" stroke-width="1"/>
<line x1="194.73" y1="174.69" x2="198.73" y2="174.69" stroke="#333" stroke-width="1"/>
<line x1="194.73" y1="172.69" x2="198.73" y2="172.69" stroke="#333" stroke-width="1"/>
<rect x="209.08" y="169.97" width="20.71" height="10.03" fill="#BDBDBD" opacity="0.85"><title>Control — Roles: 0.459 ×10⁻³</title></rect>
<line x1="219.44" y1="171.65" x2="219.44" y2="168.35" stroke="#333" stroke-width="1"/>
<line x1="217.44" y1="171.65" x2="221.44" y2="171.65" stroke="#333" stroke-width="1"/>
<line x1="217.44" y1="168.35" x2="221.44" y2="168.35" stroke="#333" stroke-width="1"/>
<text x="209.1" y="194" text-anchor="end" font-size="10" fill="#2196F3" transform="rotate(-30,209.1,194)">Roles</text>
<rect x="245.54" y="174.09" width="20.71" height="5.91" fill="#81C784" opacity="0.85"><title>Partner Identity — Agency: 0.271 ×10⁻³</title></rect>
<line x1="255.90" y1="175.05" x2="255.90" y2="172.73" stroke="#333" stroke-width="1"/>
<line x1="253.90" y1="175.05" x2="257.90" y2="175.05" stroke="#333" stroke-width="1"/>
<line x1="253.90" y1="172.73" x2="257.90" y2="172.73" stroke="#333" stroke-width="1"/>
<rect x="268.25" y="170.30" width="20.71" height="9.70" fill="#BDBDBD" opacity="0.85"><title>Control — Agency: 0.444 ×10⁻³</title></rect>
<line x1="278.60" y1="172.06" x2="278.60" y2="168.53" stroke="#333" stroke-width="1"/>
<line x1="276.60" y1="172.06" x2="280.60" y2="172.06" stroke="#333" stroke-width="1"/>
<line x1="276.60" y1="168.53" x2="280.60" y2="168.53" stroke="#333" stroke-width="1"/>
<text x="268.2" y="194" text-anchor="end" font-size="10" fill="#2196F3" transform="rotate(-30,268.2,194)">Agency</text>
<rect x="304.71" y="171.21" width="20.71" height="8.79" fill="#81C784" opacity="0.85"><title>Partner Identity — Cognitive: 0.403 ×10⁻³</title></rect>
<line x1="315.06" y1="172.51" x2="315.06" y2="170.17" stroke="#333" stroke-width="1"/>
<line x1="313.06" y1="172.51" x2="317.06" y2="172.51" stroke="#333" stroke-width="1"/>
<line x1="313.06" y1="170.17" x2="317.06" y2="170.17" stroke="#333" stroke-width="1"/>
<rect x="327.42" y="168.55" width="20.71" height="11.45" fill="#BDBDBD" opacity="0.85"><title>Control — Cognitive: 0.525 ×10⁻³</title></rect>
<line x1="337.77" y1="170.54" x2="337.77" y2="167.37" stroke="#333" stroke-width="1"/>
<line x1="335.77" y1="170.54" x2="339.77" y2="170.54" stroke="#333" stroke-width="1"/>
<line x1="335.77" y1="167.37" x2="339.77" y2="167.37" stroke="#333" stroke-width="1"/>
<text x="327.4" y="194" text-anchor="end" font-size="10" fill="#2196F3" transform="rotate(-30,327.4,194)">Cognitive</text>
<rect x="363.88" y="173.40" width="20.71" height="6.60" fill="#81C784" opacity="0.85"><title>Partner Identity — Intentions: 0.302 ×10⁻³</title></rect>
<line x1="374.23" y1="174.74" x2="374.23" y2="172.16" stroke="#333" stroke-width="1"/>
<line x1="372.23" y1="174.74" x2="376.23" y2="174.74" stroke="#333" stroke-width="1"/>
<line x1="372.23" y1="172.16" x2="376.23" y2="172.16" stroke="#333" stroke-width="1"/>
<rect x="386.58" y="167.78" width="20.71" height="12.22" fill="#BDBDBD" opacity="0.85"><title>Control — Intentions: 0.560 ×10⁻³</title></rect>
<line x1="396.94" y1="170.50" x2="396.94" y2="165.80" stroke="#333" stroke-width="1"/>
<line x1="394.94" y1="170.50" x2="398.94" y2="170.50" stroke="#333" stroke-width="1"/>
<line x1="394.94" y1="165.80" x2="398.94" y2="165.80" stroke="#333" stroke-width="1"/>
<text x="386.6" y="194" text-anchor="end" font-size="10" fill="#2196F3" transform="rotate(-30,386.6,194)">Intentions</text>
<rect x="423.04" y="174.60" width="20.71" height="5.40" fill="#81C784" opacity="0.85"><title>Partner Identity — Emotions: 0.247 ×10⁻³</title></rect>
<line x1="433.40" y1="175.38" x2="433.40" y2="173.67" stroke="#333" stroke-width="1"/>
<line x1="431.40" y1="175.38" x2="435.40" y2="175.38" stroke="#333" stroke-width="1"/>
<line x1="431.40" y1="173.67" x2="435.40" y2="173.67" stroke="#333" stroke-width="1"/>
<rect x="445.75" y="172.02" width="20.71" height="7.98" fill="#BDBDBD" opacity="0.85"><title>Control — Emotions: 0.366 ×10⁻³</title></rect>
<line x1="456.10" y1="173.40" x2="456.10" y2="170.62" stroke="#333" stroke-width="1"/>
<line x1="454.10" y1="173.40" x2="458.10" y2="173.40" stroke="#333" stroke-width="1"/>
<line x1="454.10" y1="170.62" x2="458.10" y2="170.62" stroke="#333" stroke-width="1"/>
<text x="445.7" y="194" text-anchor="end" font-size="10" fill="#2196F3" transform="rotate(-30,445.7,194)">Emotions</text>
<rect x="482.21" y="174.55" width="20.71" height="5.45" fill="#81C784" opacity="0.85"><title>Partner Identity — Embodiment: 0.250 ×10⁻³</title></rect>
<line x1="492.56" y1="175.35" x2="492.56" y2="173.72" stroke="#333" stroke-width="1"/>
<line x1="490.56" y1="175.35" x2="494.56" y2="175.35" stroke="#333" stroke-width="1"/>
<line x1="490.56" y1="173.72" x2="494.56" y2="173.72" stroke="#333" stroke-width="1"/>
<rect x="504.92" y="172.37" width="20.71" height="7.63" fill="#BDBDBD" opacity="0.85"><title>Control — Embodiment: 0.350 ×10⁻³</title></rect>
<line x1="515.27" y1="173.55" x2="515.27" y2="171.17" stroke="#333" stroke-width="1"/>
<line x1="513.27" y1="173.55" x2="517.27" y2="173.55" stroke="#333" stroke-width="1"/>
<line x1="513.27" y1="171.17" x2="517.27" y2="171.17" stroke="#333" stroke-width="1"/>
<text x="504.9" y="194" text-anchor="end" font-size="10" fill="#2196F3" transform="rotate(-30,504.9,194)">Embodiment</text>
<rect x="541.38" y="174.47" width="20.71" height="5.53" fill="#81C784" opacity="0.85"><title>Partner Identity — Phenomenology: 0.253 ×10⁻³</title></rect>
<line x1="551.73" y1="175.23" x2="551.73" y2="173.52" stroke="#333" stroke-width="1"/>
<line x1="549.73" y1="175.23" x2="553.73" y2="175.23" stroke="#333" stroke-width="1"/>
<line x1="549.73" y1="173.52" x2="553.73" y2="173.52" stroke="#333" stroke-width="1"/>
<rect x="564.08" y="171.80" width="20.71" height="8.20" fill="#BDBDBD" opacity="0.85"><title>Control — Phenomenology: 0.376 ×10⁻³</title></rect>
<line x1="574.44" y1="173.42" x2="574.44" y2="170.10" stroke="#333" stroke-width="1"/>
<line x1="572.44" y1="173.42" x2="576.44" y2="173.42" stroke="#333" stroke-width="1"/>
<line x1="572.44" y1="170.10" x2="576.44" y2="170.10" stroke="#333" stroke-width="1"/>
<text x="564.1" y="194" text-anchor="end" font-size="10" fill="#2196F3" transform="rotate(-30,564.1,194)">Phenomenology</text>
<line x1="591.6666666666666" y1="0" x2="591.6666666666666" y2="180" stroke="#ccc" stroke-width="1" stroke-dasharray="4,3"/>
<rect x="600.54" y="174.04" width="20.71" height="5.96" fill="#81C784" opacity="0.5"><title>Partner Identity — Biological: 0.273 ×10⁻³</title></rect>
<line x1="610.90" y1="174.75" x2="610.90" y2="173.29" stroke="#333" stroke-width="1"/>
<line x1="608.90" y1="174.75" x2="612.90" y2="174.75" stroke="#333" stroke-width="1"/>
<line x1="608.90" y1="173.29" x2="612.90" y2="173.29" stroke="#333" stroke-width="1"/>
<rect x="623.25" y="174.22" width="20.71" height="5.78" fill="#BDBDBD" opacity="0.5"><title>Control — Biological: 0.265 ×10⁻³</title></rect>
<line x1="633.60" y1="174.97" x2="633.60" y2="173.30" stroke="#333" stroke-width="1"/>
<line x1="631.60" y1="174.97" x2="635.60" y2="174.97" stroke="#333" stroke-width="1"/>
<line x1="631.60" y1="173.30" x2="635.60" y2="173.30" stroke="#333" stroke-width="1"/>
<text x="623.2" y="194" text-anchor="end" font-size="10" fill="#9E9E9E" transform="rotate(-30,623.2,194)">Biological</text>
<rect x="659.71" y="174.06" width="20.71" height="5.94" fill="#81C784" opacity="0.5"><title>Partner Identity — Shapes: 0.272 ×10⁻³</title></rect>
<line x1="670.06" y1="176.08" x2="670.06" y2="172.38" stroke="#333" stroke-width="1"/>
<line x1="668.06" y1="176.08" x2="672.06" y2="176.08" stroke="#333" stroke-width="1"/>
<line x1="668.06" y1="172.38" x2="672.06" y2="172.38" stroke="#333" stroke-width="1"/>
<rect x="682.42" y="169.64" width="20.71" height="10.36" fill="#BDBDBD" opacity="0.5"><title>Control — Shapes: 0.475 ×10⁻³</title></rect>
<line x1="692.77" y1="173.73" x2="692.77" y2="167.27" stroke="#333" stroke-width="1"/>
<line x1="690.77" y1="173.73" x2="694.77" y2="173.73" stroke="#333" stroke-width="1"/>
<line x1="690.77" y1="167.27" x2="694.77" y2="167.27" stroke="#333" stroke-width="1"/>
<text x="682.4" y="194" text-anchor="end" font-size="10" fill="#9E9E9E" transform="rotate(-30,682.4,194)">Shapes</text>
<line x1="0" y1="180" x2="710" y2="180" stroke="#333"/>
<line x1="0" y1="0" x2="0" y2="180" stroke="#333"/>
</g>
<rect x="70" y="300" width="10" height="10" fill="#81C784"/>
<text x="84" y="308" font-size="9" fill="#333">Partner Identity</text>
<rect x="210" y="300" width="10" height="10" fill="#BDBDBD"/>
<text x="224" y="308" font-size="9" fill="#333">Control</text>
</svg>