<svg viewBox="0 0 800 340" xmlns="http://www.w3.org/2000/svg" style="width:100%;max-width:800px;height:auto;font-family:Arial,sans-serif;">
<rect width="800" height="340" fill="white"/>

<g transform="translate(70,30)">
<line x1="0" y1="190.0" x2="710" y2="190.0" stroke="#eee" stroke-width="1"/>
<text x="-8" y="194.0" text-anchor="end" font-size="10" fill="#666">0.00</text>
<line x1="0" y1="152.0" x2="710" y2="152.0" stroke="#eee" stroke-width="1"/>
<text x="-8" y="156.0" text-anchor="end" font-size="10" fill="#666">2.24</text>
<line x1="0" y1="114.0" x2="710" y2="114.0" stroke="#eee" stroke-width="1"/>
<text x="-8" y="118.0" text-anchor="end" font-size="10" fill="#666">4.47</text>
<line x1="0" y1="76.0" x2="710" y2="76.0" stroke="#eee" stroke-width="1"/>
<text x="-8" y="80.0" text-anchor="end" font-size="10" fill="#666">6.71</text>
<line x1="0" y1="38.0" x2="710" y2="38.0" stroke="#eee" stroke-width="1"/>
<text x="-8" y="42.0" text-anchor="end" font-size="10" fill="#666">8.94</text>
<line x1="0" y1="0.0" x2="710" y2="0.0" stroke="#eee" stroke-width="1"/>
<text x="-8" y="4.0" text-anchor="end" font-size="10" fill="#666">11.18</text>
<text x="-50" y="95.0" text-anchor="middle" font-size="11" fill="#333" transform="rotate(-90,-50,95.0)">Mean R² (×10⁻³)</text>
<line x1="88.75" y1="0" x2="88.75" y2="190" stroke="#ddd" stroke-width="1" stroke-dasharray="4,3"/>
<rect x="6.66" y="130.72" width="15.53" height="59.28" fill="#2E7D32" opacity="0.85"><title>Partner Identity: 3.487 ×10⁻³</title></rect>
<line x1="14.42" y1="138.65" x2="14.42" y2="124.47" stroke="#333" stroke-width="1"/>
<line x1="12.42" y1="138.65" x2="16.42" y2="138.65" stroke="#333" stroke-width="1"/>
<line x1="12.42" y1="124.47" x2="16.42" y2="124.47" stroke="#333" stroke-width="1"/>
<rect x="24.19" y="165.28" width="15.53" height="24.72" fill="#616161" opacity="0.85"><title>Control: 1.454 ×10⁻³</title></rect>
<line x1="31.95" y1="170.80" x2="31.95" y2="160.54" stroke="#333" stroke-width="1"/>
<line x1="29.95" y1="170.80" x2="33.95" y2="170.80" stroke="#333" stroke-width="1"/>
<line x1="29.95" y1="160.54" x2="33.95" y2="160.54" stroke="#333" stroke-width="1"/>
<text x="24.2" y="204" text-anchor="end" font-size="9" fill="#9E9E9E" transform="rotate(-45,24.2,204)">Biological</text>
<rect x="51.03" y="180.40" width="15.53" height="9.60" fill="#2E7D32" opacity="0.85"><title>Partner Identity: 0.565 ×10⁻³</title></rect>
<line x1="58.80" y1="185.47" x2="58.80" y2="171.72" stroke="#333" stroke-width="1"/>
<line x1="56.80" y1="185.47" x2="60.80" y2="185.47" stroke="#333" stroke-width="1"/>
<line x1="56.80" y1="171.72" x2="60.80" y2="171.72" stroke="#333" stroke-width="1"/>
<rect x="68.56" y="184.94" width="15.53" height="5.06" fill="#616161" opacity="0.85"><title>Control: 0.298 ×10⁻³</title></rect>
<line x1="76.33" y1="187.03" x2="76.33" y2="180.30" stroke="#333" stroke-width="1"/>
<line x1="74.33" y1="187.03" x2="78.33" y2="187.03" stroke="#333" stroke-width="1"/>
<line x1="74.33" y1="180.30" x2="78.33" y2="180.30" stroke="#333" stroke-width="1"/>
<text x="68.6" y="204" text-anchor="end" font-size="9" fill="#9E9E9E" transform="rotate(-45,68.6,204)">Shapes</text>
<rect x="95.41" y="33.92" width="15.53" height="156.08" fill="#2E7D32" opacity="0.85"><title>Partner Identity: 9.183 ×10⁻³</title></rect>
<line x1="103.17" y1="55.08" x2="103.17" y2="25.50" stroke="#333" stroke-width="1"/>
<line x1="101.17" y1="55.08" x2="105.17" y2="55.08" stroke="#333" stroke-width="1"/>
<line x1="101.17" y1="25.50" x2="105.17" y2="25.50" stroke="#333" stroke-width="1"/>
<rect x="112.94" y="162.77" width="15.53" height="27.23" fill="#616161" opacity="0.85"><title>Control: 1.602 ×10⁻³</title></rect>
<line x1="120.70" y1="171.71" x2="120.70" y2="155.27" stroke="#333" stroke-width="1"/>
<line x1="118.70" y1="171.71" x2="122.70" y2="171.71" stroke="#333" stroke-width="1"/>
<line x1="118.70" y1="155.27" x2="122.70" y2="155.27" stroke="#333" stroke-width="1"/>
<text x="112.9" y="204" text-anchor="end" font-size="9" fill="#2196F3" transform="rotate(-45,112.9,204)">Social</text>
<rect x="139.78" y="40.13" width="15.53" height="149.87" fill="#2E7D32" opacity="0.85"><title>Partner Identity: 8.817 ×10⁻³</title></rect>
<line x1="147.55" y1="61.26" x2="147.55" y2="31.98" stroke="#333" stroke-width="1"/>
<line x1="145.55" y1="61.26" x2="149.55" y2="61.26" stroke="#333" stroke-width="1"/>
<line x1="145.55" y1="31.98" x2="149.55" y2="31.98" stroke="#333" stroke-width="1"/>
<rect x="157.31" y="170.23" width="15.53" height="19.77" fill="#616161" opacity="0.85"><title>Control: 1.163 ×10⁻³</title></rect>
<line x1="165.08" y1="176.18" x2="165.08" y2="165.19" stroke="#333" stroke-width="1"/>
<line x1="163.08" y1="176.18" x2="167.08" y2="176.18" stroke="#333" stroke-width="1"/>
<line x1="163.08" y1="165.19" x2="167.08" y2="165.19" stroke="#333" stroke-width="1"/>
<text x="157.3" y="204" text-anchor="end" font-size="9" fill="#2196F3" transform="rotate(-45,157.3,204)">Attention</text>
<rect x="184.16" y="42.18" width="15.53" height="147.82" fill="#2E7D32" opacity="0.85"><title>Partner Identity: 8.696 ×10⁻³</title></rect>
<line x1="191.92" y1="62.91" x2="191.92" y2="33.72" stroke="#333" stroke-width="1"/>
<line x1="189.92" y1="62.91" x2="193.92" y2="62.91" stroke="#333" stroke-width="1"/>
<line x1="189.92" y1="33.72" x2="193.92" y2="33.72" stroke="#333" stroke-width="1"/>
<rect x="201.69" y="168.92" width="15.53" height="21.08" fill="#616161" opacity="0.85"><title>Control: 1.240 ×10⁻³</title></rect>
<line x1="209.45" y1="174.24" x2="209.45" y2="163.63" stroke="#333" stroke-width="1"/>
<line x1="207.45" y1="174.24" x2="211.45" y2="174.24" stroke="#333" stroke-width="1"/>
<line x1="207.45" y1="163.63" x2="211.45" y2="163.63" stroke="#333" stroke-width="1"/>
<text x="201.7" y="204" text-anchor="end" font-size="9" fill="#2196F3" transform="rotate(-45,201.7,204)">Prediction</text>
<rect x="228.53" y="55.62" width="15.53" height="134.38" fill="#2E7D32" opacity="0.85"><title>Partner Identity: 7.906 ×10⁻³</title></rect>
<line x1="236.30" y1="72.40" x2="236.30" y2="50.10" stroke="#333" stroke-width="1"/>
<line x1="234.30" y1="72.40" x2="238.30" y2="72.40" stroke="#333" stroke-width="1"/>
<line x1="234.30" y1="50.10" x2="238.30" y2="50.10" stroke="#333" stroke-width="1"/>
<rect x="246.06" y="167.03" width="15.53" height="22.97" fill="#616161" opacity="0.85"><title>Control: 1.351 ×10⁻³</title></rect>
<line x1="253.83" y1="173.37" x2="253.83" y2="162.10" stroke="#333" stroke-width="1"/>
<line x1="251.83" y1="173.37" x2="255.83" y2="173.37" stroke="#333" stroke-width="1"/>
<line x1="251.83" y1="162.10" x2="255.83" y2="162.10" stroke="#333" stroke-width="1"/>
<text x="246.1" y="204" text-anchor="end" font-size="9" fill="#2196F3" transform="rotate(-45,246.1,204)">Agency</text>
<rect x="272.91" y="62.51" width="15.53" height="127.49" fill="#2E7D32" opacity="0.85"><title>Partner Identity: 7.500 ×10⁻³</title></rect>
<line x1="280.67" y1="80.37" x2="280.67" y2="53.97" stroke="#333" stroke-width="1"/>
<line x1="278.67" y1="80.37" x2="282.67" y2="80.37" stroke="#333" stroke-width="1"/>
<line x1="278.67" y1="53.97" x2="282.67" y2="53.97" stroke="#333" stroke-width="1"/>
<rect x="290.44" y="173.58" width="15.53" height="16.42" fill="#616161" opacity="0.85"><title>Control: 0.966 ×10⁻³</title></rect>
<line x1="298.20" y1="179.04" x2="298.20" y2="167.99" stroke="#333" stroke-width="1"/>
<line x1="296.20" y1="179.04" x2="300.20" y2="179.04" stroke="#333" stroke-width="1"/>
<line x1="296.20" y1="167.99" x2="300.20" y2="167.99" stroke="#333" stroke-width="1"/>
<text x="290.4" y="204" text-anchor="end" font-size="9" fill="#2196F3" transform="rotate(-45,290.4,204)">Cognitive</text>
<rect x="317.28" y="59.59" width="15.53" height="130.41" fill="#2E7D32" opacity="0.85"><title>Partner Identity: 7.672 ×10⁻³</title></rect>
<line x1="325.05" y1="83.59" x2="325.05" y2="47.95" stroke="#333" stroke-width="1"/>
<line x1="323.05" y1="83.59" x2="327.05" y2="83.59" stroke="#333" stroke-width="1"/>
<line x1="323.05" y1="47.95" x2="327.05" y2="47.95" stroke="#333" stroke-width="1"/>
<rect x="334.81" y="169.09" width="15.53" height="20.91" fill="#616161" opacity="0.85"><title>Control: 1.230 ×10⁻³</title></rect>
<line x1="342.58" y1="174.81" x2="342.58" y2="162.99" stroke="#333" stroke-width="1"/>
<line x1="340.58" y1="174.81" x2="344.58" y2="174.81" stroke="#333" stroke-width="1"/>
<line x1="340.58" y1="162.99" x2="344.58" y2="162.99" stroke="#333" stroke-width="1"/>
<text x="334.8" y="204" text-anchor="end" font-size="9" fill="#2196F3" transform="rotate(-45,334.8,204)">Roles</text>
<rect x="361.66" y="62.67" width="15.53" height="127.33" fill="#2E7D32" opacity="0.85"><title>Partner Identity: 7.491 ×10⁻³</title></rect>
<line x1="369.42" y1="82.10" x2="369.42" y2="52.64" stroke="#333" stroke-width="1"/>
<line x1="367.42" y1="82.10" x2="371.42" y2="82.10" stroke="#333" stroke-width="1"/>
<line x1="367.42" y1="52.64" x2="371.42" y2="52.64" stroke="#333" stroke-width="1"/>
<rect x="379.19" y="166.10" width="15.53" height="23.90" fill="#616161" opacity="0.85"><title>Control: 1.406 ×10⁻³</title></rect>
<line x1="386.95" y1="172.95" x2="386.95" y2="161.54" stroke="#333" stroke-width="1"/>
<line x1="384.95" y1="172.95" x2="388.95" y2="172.95" stroke="#333" stroke-width="1"/>
<line x1="384.95" y1="161.54" x2="388.95" y2="161.54" stroke="#333" stroke-width="1"/>
<text x="379.2" y="204" text-anchor="end" font-size="9" fill="#2196F3" transform="rotate(-45,379.2,204)">Intentions</text>
<rect x="406.03" y="76.18" width="15.53" height="113.82" fill="#2E7D32" opacity="0.85"><title>Partner Identity: 6.696 ×10⁻³</title></rect>
<line x1="413.80" y1="89.33" x2="413.80" y2="68.51" stroke="#333" stroke-width="1"/>
<line x1="411.80" y1="89.33" x2="415.80" y2="89.33" stroke="#333" stroke-width="1"/>
<line x1="411.80" y1="68.51" x2="415.80" y2="68.51" stroke="#333" stroke-width="1"/>
<rect x="423.56" y="170.09" width="15.53" height="19.91" fill="#616161" opacity="0.85"><title>Control: 1.172 ×10⁻³</title></rect>
<line x1="431.33" y1="173.78" x2="431.33" y2="167.28" stroke="#333" stroke-width="1"/>
<line x1="429.33" y1="173.78" x2="433.33" y2="173.78" stroke="#333" stroke-width="1"/>
<line x1="429.33" y1="167.28" x2="433.33" y2="167.28" stroke="#333" stroke-width="1"/>
<text x="423.6" y="204" text-anchor="end" font-size="9" fill="#2196F3" transform="rotate(-45,423.6,204)">Emotions</text>
<rect x="450.41" y="90.77" width="15.53" height="99.23" fill="#2E7D32" opacity="0.85"><title>Partner Identity: 5.838 ×10⁻³</title></rect>
<line x1="458.17" y1="107.63" x2="458.17" y2="82.06" stroke="#333" stroke-width="1"/>
<line x1="456.17" y1="107.63" x2="460.17" y2="107.63" stroke="#333" stroke-width="1"/>
<line x1="456.17" y1="82.06" x2="460.17" y2="82.06" stroke="#333" stroke-width="1"/>
<rect x="467.94" y="165.62" width="15.53" height="24.38" fill="#616161" opacity="0.85"><title>Control: 1.435 ×10⁻³</title></rect>
<line x1="475.70" y1="171.70" x2="475.70" y2="159.92" stroke="#333" stroke-width="1"/>
<line x1="473.70" y1="171.70" x2="477.70" y2="171.70" stroke="#333" stroke-width="1"/>
<line x1="473.70" y1="159.92" x2="477.70" y2="159.92" stroke="#333" stroke-width="1"/>
<text x="467.9" y="204" text-anchor="end" font-size="9" fill="#2196F3" transform="rotate(-45,467.9,204)">Embodiment</text>
<rect x="494.78" y="92.45" width="15.53" height="97.55" fill="#2E7D32" opacity="0.85"><title>Partner Identity: 5.739 ×10⁻³</title></rect>
<line x1="502.55" y1="109.07" x2="502.55" y2="86.25" stroke="#333" stroke-width="1"/>
<line x1="500.55" y1="109.07" x2="504.55" y2="109.07" stroke="#333" stroke-width="1"/>
<line x1="500.55" y1="86.25" x2="504.55" y2="86.25" stroke="#333" stroke-width="1"/>
<rect x="512.31" y="167.78" width="15.53" height="22.22" fill="#616161" opacity="0.85"><title>Control: 1.307 ×10⁻³</title></rect>
<line x1="520.08" y1="174.30" x2="520.08" y2="162.76" stroke="#333" stroke-width="1"/>
<line x1="518.08" y1="174.30" x2="522.08" y2="174.30" stroke="#333" stroke-width="1"/>
<line x1="518.08" y1="162.76" x2="522.08" y2="162.76" stroke="#333" stroke-width="1"/>
<text x="512.3" y="204" text-anchor="end" font-size="9" fill="#2196F3" transform="rotate(-45,512.3,204)">Phenomenology</text>
<rect x="539.16" y="116.45" width="15.53" height="73.55" fill="#2E7D32" opacity="0.85"><title>Partner Identity: 4.327 ×10⁻³</title></rect>
<line x1="546.92" y1="130.95" x2="546.92" y2="104.76" stroke="#333" stroke-width="1"/>
<line x1="544.92" y1="130.95" x2="548.92" y2="130.95" stroke="#333" stroke-width="1"/>
<line x1="544.92" y1="104.76" x2="548.92" y2="104.76" stroke="#333" stroke-width="1"/>
<rect x="556.69" y="187.89" width="15.53" height="2.11" fill="#616161" opacity="0.85"><title>Control: 0.124 ×10⁻³</title></rect>
<line x1="564.45" y1="188.07" x2="564.45" y2="186.96" stroke="#333" stroke-width="1"/>
<line x1="562.45" y1="188.07" x2="566.45" y2="188.07" stroke="#333" stroke-width="1"/>
<line x1="562.45" y1="186.96" x2="566.45" y2="186.96" stroke="#333" stroke-width="1"/>
<text x="556.7" y="204" text-anchor="end" font-size="9" fill="#FF9800" transform="rotate(-45,556.7,204)">Expertise</text>
<rect x="583.53" y="163.34" width="15.53" height="26.66" fill="#2E7D32" opacity="0.85"><title>Partner Identity: 1.569 ×10⁻³</title></rect>
<line x1="591.30" y1="179.18" x2="591.30" y2="152.12" stroke="#333" stroke-width="1"/>
<line x1="589.30" y1="179.18" x2="593.30" y2="179.18" stroke="#333" stroke-width="1"/>
<line x1="589.30" y1="152.12" x2="593.30" y2="152.12" stroke="#333" stroke-width="1"/>
<rect x="601.06" y="179.70" width="15.53" height="10.30" fill="#616161" opacity="0.85"><title>Control: 0.606 ×10⁻³</title></rect>
<line x1="608.83" y1="184.76" x2="608.83" y2="175.25" stroke="#333" stroke-width="1"/>
<line x1="606.83" y1="184.76" x2="610.83" y2="184.76" stroke="#333" stroke-width="1"/>
<line x1="606.83" y1="175.25" x2="610.83" y2="175.25" stroke="#333" stroke-width="1"/>
<text x="601.1" y="204" text-anchor="end" font-size="9" fill="#FF9800" transform="rotate(-45,601.1,204)">Formality</text>
<rect x="627.91" y="176.50" width="15.53" height="13.50" fill="#2E7D32" opacity="0.85"><title>Partner Identity: 0.794 ×10⁻³</title></rect>
<line x1="635.67" y1="185.20" x2="635.67" y2="167.57" stroke="#333" stroke-width="1"/>
<line x1="633.67" y1="185.20" x2="637.67" y2="185.20" stroke="#333" stroke-width="1"/>
<line x1="633.67" y1="167.57" x2="637.67" y2="167.57" stroke="#333" stroke-width="1"/>
<rect x="645.44" y="177.38" width="15.53" height="12.62" fill="#616161" opacity="0.85"><title>Control: 0.742 ×10⁻³</title></rect>
<line x1="653.20" y1="184.49" x2="653.20" y2="172.08" stroke="#333" stroke-width="1"/>
<line x1="651.20" y1="184.49" x2="655.20" y2="184.49" stroke="#333" stroke-width="1"/>
<line x1="651.20" y1="172.08" x2="655.20" y2="172.08" stroke="#333" stroke-width="1"/>
<text x="645.4" y="204" text-anchor="end" font-size="9" fill="#FF9800" transform="rotate(-45,645.4,204)">Helpfulness</text>
<rect x="672.28" y="64.55" width="15.53" height="125.45" fill="#2E7D32" opacity="0.85"><title>Partner Identity: 7.380 ×10⁻³</title></rect>
<line x1="680.05" y1="89.36" x2="680.05" y2="33.22" stroke="#333" stroke-width="1"/>
<line x1="678.05" y1="89.36" x2="682.05" y2="89.36" stroke="#333" stroke-width="1"/>
<line x1="678.05" y1="33.22" x2="682.05" y2="33.22" stroke="#333" stroke-width="1"/>
<rect x="689.81" y="183.09" width="15.53" height="6.91" fill="#616161" opacity="0.85"><title>Control: 0.407 ×10⁻³</title></rect>
<line x1="697.58" y1="184.12" x2="697.58" y2="181.96" stroke="#333" stroke-width="1"/>
<line x1="695.58" y1="184.12" x2="699.58" y2="184.12" stroke="#333" stroke-width="1"/>
<line x1="695.58" y1="181.96" x2="699.58" y2="181.96" stroke="#333" stroke-width="1"/>
<text x="689.8" y="204" text-anchor="end" font-size="9" fill="#00BCD4" transform="rotate(-45,689.8,204)">SysPrompt</text>
<line x1="0" y1="190" x2="710" y2="190" stroke="#333"/>
<line x1="0" y1="0" x2="0" y2="190" stroke="#333"/>
</g>
<rect x="70" y="320" width="10" height="10" fill="#2E7D32"/>
<text x="84" y="328" font-size="9" fill="#333">Partner Identity</text>
<rect x="210" y="320" width="10" height="10" fill="#616161"/>
<text x="224" y="328" font-size="9" fill="#333">Control</text>
</svg>