<svg viewBox="0 0 800 320" xmlns="http://www.w3.org/2000/svg" style="width:100%;max-width:800px;height:auto;font-family:Arial,sans-serif;">
<rect width="800" height="320" fill="white"/>

<g transform="translate(70,30)">
<line x1="0" y1="180.0" x2="710" y2="180.0" stroke="#eee" stroke-width="1"/>
<text x="-8" y="184.0" text-anchor="end" font-size="10" fill="#666">0.00</text>
<line x1="0" y1="144.0" x2="710" y2="144.0" stroke="#eee" stroke-width="1"/>
<text x="-8" y="148.0" text-anchor="end" font-size="10" fill="#666">2.24</text>
<line x1="0" y1="108.0" x2="710" y2="108.0" stroke="#eee" stroke-width="1"/>
<text x="-8" y="112.0" text-anchor="end" font-size="10" fill="#666">4.47</text>
<line x1="0" y1="72.0" x2="710" y2="72.0" stroke="#eee" stroke-width="1"/>
<text x="-8" y="76.0" text-anchor="end" font-size="10" fill="#666">6.71</text>
<line x1="0" y1="36.0" x2="710" y2="36.0" stroke="#eee" stroke-width="1"/>
<text x="-8" y="40.0" text-anchor="end" font-size="10" fill="#666">8.94</text>
<line x1="0" y1="0.0" x2="710" y2="0.0" stroke="#eee" stroke-width="1"/>
<text x="-8" y="4.0" text-anchor="end" font-size="10" fill="#666">11.18</text>
<text x="-50" y="90.0" text-anchor="middle" font-size="11" fill="#333" transform="rotate(-90,-50,90.0)">Mean R² (×10⁻³)</text>
<rect x="8.88" y="172.25" width="20.71" height="7.75" fill="#81C784" opacity="0.85"><title>Partner Identity — Social: 0.481 ×10⁻³</title></rect>
<line x1="19.23" y1="174.90" x2="19.23" y2="168.00" stroke="#333" stroke-width="1"/>
<line x1="17.23" y1="174.90" x2="21.23" y2="174.90" stroke="#333" stroke-width="1"/>
<line x1="17.23" y1="168.00" x2="21.23" y2="168.00" stroke="#333" stroke-width="1"/>
<rect x="31.58" y="169.45" width="20.71" height="10.55" fill="#BDBDBD" opacity="0.85"><title>Control — Social: 0.655 ×10⁻³</title></rect>
<line x1="41.94" y1="172.20" x2="41.94" y2="167.28" stroke="#333" stroke-width="1"/>
<line x1="39.94" y1="172.20" x2="43.94" y2="172.20" stroke="#333" stroke-width="1"/>
<line x1="39.94" y1="167.28" x2="43.94" y2="167.28" stroke="#333" stroke-width="1"/>
<text x="31.6" y="194" text-anchor="end" font-size="10" fill="#2196F3" transform="rotate(-30,31.6,194)">Social</text>
<rect x="68.04" y="170.50" width="20.71" height="9.50" fill="#81C784" opacity="0.85"><title>Partner Identity — Attention: 0.590 ×10⁻³</title></rect>
<line x1="78.40" y1="173.42" x2="78.40" y2="168.25" stroke="#333" stroke-width="1"/>
<line x1="76.40" y1="173.42" x2="80.40" y2="173.42" stroke="#333" stroke-width="1"/>
<line x1="76.40" y1="168.25" x2="80.40" y2="168.25" stroke="#333" stroke-width="1"/>
<rect x="90.75" y="168.62" width="20.71" height="11.38" fill="#BDBDBD" opacity="0.85"><title>Control — Attention: 0.707 ×10⁻³</title></rect>
<line x1="101.10" y1="171.10" x2="101.10" y2="166.82" stroke="#333" stroke-width="1"/>
<line x1="99.10" y1="171.10" x2="103.10" y2="171.10" stroke="#333" stroke-width="1"/>
<line x1="99.10" y1="166.82" x2="103.10" y2="166.82" stroke="#333" stroke-width="1"/>
<text x="90.7" y="194" text-anchor="end" font-size="10" fill="#2196F3" transform="rotate(-30,90.7,194)">Attention</text>
<rect x="127.21" y="174.12" width="20.71" height="5.88" fill="#81C784" opacity="0.85"><title>Partner Identity — Prediction: 0.365 ×10⁻³</title></rect>
<line x1="137.56" y1="176.23" x2="137.56" y2="170.06" stroke="#333" stroke-width="1"/>
<line x1="135.56" y1="176.23" x2="139.56" y2="176.23" stroke="#333" stroke-width="1"/>
<line x1="135.56" y1="170.06" x2="139.56" y2="170.06" stroke="#333" stroke-width="1"/>
<rect x="149.92" y="169.80" width="20.71" height="10.20" fill="#BDBDBD" opacity="0.85"><title>Control — Prediction: 0.633 ×10⁻³</title></rect>
<line x1="160.27" y1="172.64" x2="160.27" y2="166.83" stroke="#333" stroke-width="1"/>
<line x1="158.27" y1="172.64" x2="162.27" y2="172.64" stroke="#333" stroke-width="1"/>
<line x1="158.27" y1="166.83" x2="162.27" y2="166.83" stroke="#333" stroke-width="1"/>
<text x="149.9" y="194" text-anchor="end" font-size="10" fill="#2196F3" transform="rotate(-30,149.9,194)">Prediction</text>
<rect x="186.38" y="174.45" width="20.71" height="5.55" fill="#81C784" opacity="0.85"><title>Partner Identity — Agency: 0.344 ×10⁻³</title></rect>
<line x1="196.73" y1="175.97" x2="196.73" y2="171.75" stroke="#333" stroke-width="1"/>
<line x1="194.73" y1="175.97" x2="198.73" y2="175.97" stroke="#333" stroke-width="1"/>
<line x1="194.73" y1="171.75" x2="198.73" y2="171.75" stroke="#333" stroke-width="1"/>
<rect x="209.08" y="170.23" width="20.71" height="9.77" fill="#BDBDBD" opacity="0.85"><title>Control — Agency: 0.607 ×10⁻³</title></rect>
<line x1="219.44" y1="172.76" x2="219.44" y2="168.14" stroke="#333" stroke-width="1"/>
<line x1="217.44" y1="172.76" x2="221.44" y2="172.76" stroke="#333" stroke-width="1"/>
<line x1="217.44" y1="168.14" x2="221.44" y2="168.14" stroke="#333" stroke-width="1"/>
<text x="209.1" y="194" text-anchor="end" font-size="10" fill="#2196F3" transform="rotate(-30,209.1,194)">Agency</text>
<rect x="245.54" y="171.47" width="20.71" height="8.53" fill="#81C784" opacity="0.85"><title>Partner Identity — Cognitive: 0.529 ×10⁻³</title></rect>
<line x1="255.90" y1="173.85" x2="255.90" y2="169.35" stroke="#333" stroke-width="1"/>
<line x1="253.90" y1="173.85" x2="257.90" y2="173.85" stroke="#333" stroke-width="1"/>
<line x1="253.90" y1="169.35" x2="257.90" y2="169.35" stroke="#333" stroke-width="1"/>
<rect x="268.25" y="169.83" width="20.71" height="10.17" fill="#BDBDBD" opacity="0.85"><title>Control — Cognitive: 0.632 ×10⁻³</title></rect>
<line x1="278.60" y1="172.49" x2="278.60" y2="167.30" stroke="#333" stroke-width="1"/>
<line x1="276.60" y1="172.49" x2="280.60" y2="172.49" stroke="#333" stroke-width="1"/>
<line x1="276.60" y1="167.30" x2="280.60" y2="167.30" stroke="#333" stroke-width="1"/>
<text x="268.2" y="194" text-anchor="end" font-size="10" fill="#2196F3" transform="rotate(-30,268.2,194)">Cognitive</text>
<rect x="304.71" y="175.30" width="20.71" height="4.70" fill="#81C784" opacity="0.85"><title>Partner Identity — Roles: 0.292 ×10⁻³</title></rect>
<line x1="315.06" y1="176.47" x2="315.06" y2="172.93" stroke="#333" stroke-width="1"/>
<line x1="313.06" y1="176.47" x2="317.06" y2="176.47" stroke="#333" stroke-width="1"/>
<line x1="313.06" y1="172.93" x2="317.06" y2="172.93" stroke="#333" stroke-width="1"/>
<rect x="327.42" y="170.77" width="20.71" height="9.23" fill="#BDBDBD" opacity="0.85"><title>Control — Roles: 0.573 ×10⁻³</title></rect>
<line x1="337.77" y1="173.85" x2="337.77" y2="167.05" stroke="#333" stroke-width="1"/>
<line x1="335.77" y1="173.85" x2="339.77" y2="173.85" stroke="#333" stroke-width="1"/>
<line x1="335.77" y1="167.05" x2="339.77" y2="167.05" stroke="#333" stroke-width="1"/>
<text x="327.4" y="194" text-anchor="end" font-size="10" fill="#2196F3" transform="rotate(-30,327.4,194)">Roles</text>
<rect x="363.88" y="172.71" width="20.71" height="7.29" fill="#81C784" opacity="0.85"><title>Partner Identity — Intentions: 0.453 ×10⁻³</title></rect>
<line x1="374.23" y1="175.52" x2="374.23" y2="170.14" stroke="#333" stroke-width="1"/>
<line x1="372.23" y1="175.52" x2="376.23" y2="175.52" stroke="#333" stroke-width="1"/>
<line x1="372.23" y1="170.14" x2="376.23" y2="170.14" stroke="#333" stroke-width="1"/>
<rect x="386.58" y="167.29" width="20.71" height="12.71" fill="#BDBDBD" opacity="0.85"><title>Control — Intentions: 0.789 ×10⁻³</title></rect>
<line x1="396.94" y1="170.30" x2="396.94" y2="165.33" stroke="#333" stroke-width="1"/>
<line x1="394.94" y1="170.30" x2="398.94" y2="170.30" stroke="#333" stroke-width="1"/>
<line x1="394.94" y1="165.33" x2="398.94" y2="165.33" stroke="#333" stroke-width="1"/>
<text x="386.6" y="194" text-anchor="end" font-size="10" fill="#2196F3" transform="rotate(-30,386.6,194)">Intentions</text>
<rect x="423.04" y="175.86" width="20.71" height="4.14" fill="#81C784" opacity="0.85"><title>Partner Identity — Emotions: 0.257 ×10⁻³</title></rect>
<line x1="433.40" y1="176.96" x2="433.40" y2="174.09" stroke="#333" stroke-width="1"/>
<line x1="431.40" y1="176.96" x2="435.40" y2="176.96" stroke="#333" stroke-width="1"/>
<line x1="431.40" y1="174.09" x2="435.40" y2="174.09" stroke="#333" stroke-width="1"/>
<rect x="445.75" y="171.50" width="20.71" height="8.50" fill="#BDBDBD" opacity="0.85"><title>Control — Emotions: 0.528 ×10⁻³</title></rect>
<line x1="456.10" y1="173.55" x2="456.10" y2="169.69" stroke="#333" stroke-width="1"/>
<line x1="454.10" y1="173.55" x2="458.10" y2="173.55" stroke="#333" stroke-width="1"/>
<line x1="454.10" y1="169.69" x2="458.10" y2="169.69" stroke="#333" stroke-width="1"/>
<text x="445.7" y="194" text-anchor="end" font-size="10" fill="#2196F3" transform="rotate(-30,445.7,194)">Emotions</text>
<rect x="482.21" y="176.92" width="20.71" height="3.08" fill="#81C784" opacity="0.85"><title>Partner Identity — Embodiment: 0.191 ×10⁻³</title></rect>
<line x1="492.56" y1="177.43" x2="492.56" y2="176.16" stroke="#333" stroke-width="1"/>
<line x1="490.56" y1="177.43" x2="494.56" y2="177.43" stroke="#333" stroke-width="1"/>
<line x1="490.56" y1="176.16" x2="494.56" y2="176.16" stroke="#333" stroke-width="1"/>
<rect x="504.92" y="172.45" width="20.71" height="7.55" fill="#BDBDBD" opacity="0.85"><title>Control — Embodiment: 0.469 ×10⁻³</title></rect>
<line x1="515.27" y1="174.40" x2="515.27" y2="170.56" stroke="#333" stroke-width="1"/>
<line x1="513.27" y1="174.40" x2="517.27" y2="174.40" stroke="#333" stroke-width="1"/>
<line x1="513.27" y1="170.56" x2="517.27" y2="170.56" stroke="#333" stroke-width="1"/>
<text x="504.9" y="194" text-anchor="end" font-size="10" fill="#2196F3" transform="rotate(-30,504.9,194)">Embodiment</text>
<rect x="541.38" y="175.56" width="20.71" height="4.44" fill="#81C784" opacity="0.85"><title>Partner Identity — Phenomenology: 0.276 ×10⁻³</title></rect>
<line x1="551.73" y1="176.49" x2="551.73" y2="174.26" stroke="#333" stroke-width="1"/>
<line x1="549.73" y1="176.49" x2="553.73" y2="176.49" stroke="#333" stroke-width="1"/>
<line x1="549.73" y1="174.26" x2="553.73" y2="174.26" stroke="#333" stroke-width="1"/>
<rect x="564.08" y="169.81" width="20.71" height="10.19" fill="#BDBDBD" opacity="0.85"><title>Control — Phenomenology: 0.633 ×10⁻³</title></rect>
<line x1="574.44" y1="173.11" x2="574.44" y2="166.71" stroke="#333" stroke-width="1"/>
<line x1="572.44" y1="173.11" x2="576.44" y2="173.11" stroke="#333" stroke-width="1"/>
<line x1="572.44" y1="166.71" x2="576.44" y2="166.71" stroke="#333" stroke-width="1"/>
<text x="564.1" y="194" text-anchor="end" font-size="10" fill="#2196F3" transform="rotate(-30,564.1,194)">Phenomenology</text>
<line x1="591.6666666666666" y1="0" x2="591.6666666666666" y2="180" stroke="#ccc" stroke-width="1" stroke-dasharray="4,3"/>
<rect x="600.54" y="176.64" width="20.71" height="3.36" fill="#81C784" opacity="0.5"><title>Partner Identity — Biological: 0.209 ×10⁻³</title></rect>
<line x1="610.90" y1="177.12" x2="610.90" y2="176.01" stroke="#333" stroke-width="1"/>
<line x1="608.90" y1="177.12" x2="612.90" y2="177.12" stroke="#333" stroke-width="1"/>
<line x1="608.90" y1="176.01" x2="612.90" y2="176.01" stroke="#333" stroke-width="1"/>
<rect x="623.25" y="173.47" width="20.71" height="6.53" fill="#BDBDBD" opacity="0.5"><title>Control — Biological: 0.405 ×10⁻³</title></rect>
<line x1="633.60" y1="174.67" x2="633.60" y2="172.22" stroke="#333" stroke-width="1"/>
<line x1="631.60" y1="174.67" x2="635.60" y2="174.67" stroke="#333" stroke-width="1"/>
<line x1="631.60" y1="172.22" x2="635.60" y2="172.22" stroke="#333" stroke-width="1"/>
<text x="623.2" y="194" text-anchor="end" font-size="10" fill="#9E9E9E" transform="rotate(-30,623.2,194)">Biological</text>
<rect x="659.71" y="169.48" width="20.71" height="10.52" fill="#81C784" opacity="0.5"><title>Partner Identity — Shapes: 0.653 ×10⁻³</title></rect>
<line x1="670.06" y1="173.89" x2="670.06" y2="166.99" stroke="#333" stroke-width="1"/>
<line x1="668.06" y1="173.89" x2="672.06" y2="173.89" stroke="#333" stroke-width="1"/>
<line x1="668.06" y1="166.99" x2="672.06" y2="166.99" stroke="#333" stroke-width="1"/>
<rect x="682.42" y="174.40" width="20.71" height="5.60" fill="#BDBDBD" opacity="0.5"><title>Control — Shapes: 0.348 ×10⁻³</title></rect>
<line x1="692.77" y1="176.55" x2="692.77" y2="172.83" stroke="#333" stroke-width="1"/>
<line x1="690.77" y1="176.55" x2="694.77" y2="176.55" stroke="#333" stroke-width="1"/>
<line x1="690.77" y1="172.83" x2="694.77" y2="172.83" stroke="#333" stroke-width="1"/>
<text x="682.4" y="194" text-anchor="end" font-size="10" fill="#9E9E9E" transform="rotate(-30,682.4,194)">Shapes</text>
<line x1="0" y1="180" x2="710" y2="180" stroke="#333"/>
<line x1="0" y1="0" x2="0" y2="180" stroke="#333"/>
</g>
<rect x="70" y="300" width="10" height="10" fill="#81C784"/>
<text x="84" y="308" font-size="9" fill="#333">Partner Identity</text>
<rect x="210" y="300" width="10" height="10" fill="#BDBDBD"/>
<text x="224" y="308" font-size="9" fill="#333">Control</text>
</svg>