<svg viewBox="0 0 800 320" xmlns="http://www.w3.org/2000/svg" style="width:100%;max-width:800px;height:auto;font-family:Arial,sans-serif;">
<rect width="800" height="320" fill="white"/>

<g transform="translate(70,30)">
<line x1="0" y1="180.0" x2="710" y2="180.0" stroke="#eee" stroke-width="1"/>
<text x="-8" y="184.0" text-anchor="end" font-size="10" fill="#666">0.00</text>
<line x1="0" y1="144.0" x2="710" y2="144.0" stroke="#eee" stroke-width="1"/>
<text x="-8" y="148.0" text-anchor="end" font-size="10" fill="#666">2.24</text>
<line x1="0" y1="108.0" x2="710" y2="108.0" stroke="#eee" stroke-width="1"/>
<text x="-8" y="112.0" text-anchor="end" font-size="10" fill="#666">4.47</text>
<line x1="0" y1="72.0" x2="710" y2="72.0" stroke="#eee" stroke-width="1"/>
<text x="-8" y="76.0" text-anchor="end" font-size="10" fill="#666">6.71</text>
<line x1="0" y1="36.0" x2="710" y2="36.0" stroke="#eee" stroke-width="1"/>
<text x="-8" y="40.0" text-anchor="end" font-size="10" fill="#666">8.94</text>
<line x1="0" y1="0.0" x2="710" y2="0.0" stroke="#eee" stroke-width="1"/>
<text x="-8" y="4.0" text-anchor="end" font-size="10" fill="#666">11.18</text>
<text x="-50" y="90.0" text-anchor="middle" font-size="11" fill="#333" transform="rotate(-90,-50,90.0)">Mean R² (×10⁻³)</text>
<rect x="26.62" y="85.99" width="62.12" height="94.01" fill="#2E7D32" opacity="0.85"><title>Partner Identity — Embodiment: 5.838 ×10⁻³</title></rect>
<line x1="57.69" y1="101.96" x2="57.69" y2="77.74" stroke="#333" stroke-width="1"/>
<line x1="55.69" y1="101.96" x2="59.69" y2="101.96" stroke="#333" stroke-width="1"/>
<line x1="55.69" y1="77.74" x2="59.69" y2="77.74" stroke="#333" stroke-width="1"/>
<rect x="90.75" y="156.90" width="62.12" height="23.10" fill="#616161" opacity="0.85"><title>Control — Embodiment: 1.435 ×10⁻³</title></rect>
<line x1="121.81" y1="162.66" x2="121.81" y2="151.51" stroke="#333" stroke-width="1"/>
<line x1="119.81" y1="162.66" x2="123.81" y2="162.66" stroke="#333" stroke-width="1"/>
<line x1="119.81" y1="151.51" x2="123.81" y2="151.51" stroke="#333" stroke-width="1"/>
<text x="90.8" y="194" text-anchor="end" font-size="10" fill="#4CAF50" transform="rotate(-30,90.8,194)">Embodiment</text>
<rect x="204.12" y="56.45" width="62.12" height="123.55" fill="#2E7D32" opacity="0.85"><title>Partner Identity — Roles: 7.672 ×10⁻³</title></rect>
<line x1="235.19" y1="79.19" x2="235.19" y2="45.43" stroke="#333" stroke-width="1"/>
<line x1="233.19" y1="79.19" x2="237.19" y2="79.19" stroke="#333" stroke-width="1"/>
<line x1="233.19" y1="45.43" x2="237.19" y2="45.43" stroke="#333" stroke-width="1"/>
<rect x="268.25" y="160.19" width="62.12" height="19.81" fill="#616161" opacity="0.85"><title>Control — Roles: 1.230 ×10⁻³</title></rect>
<line x1="299.31" y1="165.61" x2="299.31" y2="154.41" stroke="#333" stroke-width="1"/>
<line x1="297.31" y1="165.61" x2="301.31" y2="165.61" stroke="#333" stroke-width="1"/>
<line x1="297.31" y1="154.41" x2="301.31" y2="154.41" stroke="#333" stroke-width="1"/>
<text x="268.2" y="194" text-anchor="end" font-size="10" fill="#4CAF50" transform="rotate(-30,268.2,194)">Roles</text>
<line x1="355.0" y1="0" x2="355.0" y2="180" stroke="#ccc" stroke-width="1" stroke-dasharray="4,3"/>
<rect x="381.62" y="123.84" width="62.12" height="56.16" fill="#2E7D32" opacity="0.5"><title>Partner Identity — Biological: 3.487 ×10⁻³</title></rect>
<line x1="412.69" y1="131.35" x2="412.69" y2="117.92" stroke="#333" stroke-width="1"/>
<line x1="410.69" y1="131.35" x2="414.69" y2="131.35" stroke="#333" stroke-width="1"/>
<line x1="410.69" y1="117.92" x2="414.69" y2="117.92" stroke="#333" stroke-width="1"/>
<rect x="445.75" y="156.58" width="62.12" height="23.42" fill="#616161" opacity="0.5"><title>Control — Biological: 1.454 ×10⁻³</title></rect>
<line x1="476.81" y1="161.81" x2="476.81" y2="152.09" stroke="#333" stroke-width="1"/>
<line x1="474.81" y1="161.81" x2="478.81" y2="161.81" stroke="#333" stroke-width="1"/>
<line x1="474.81" y1="152.09" x2="478.81" y2="152.09" stroke="#333" stroke-width="1"/>
<text x="445.8" y="194" text-anchor="end" font-size="10" fill="#9E9E9E" transform="rotate(-30,445.8,194)">Biological</text>
<rect x="559.12" y="170.90" width="62.12" height="9.10" fill="#2E7D32" opacity="0.5"><title>Partner Identity — Shapes: 0.565 ×10⁻³</title></rect>
<line x1="590.19" y1="175.71" x2="590.19" y2="162.68" stroke="#333" stroke-width="1"/>
<line x1="588.19" y1="175.71" x2="592.19" y2="175.71" stroke="#333" stroke-width="1"/>
<line x1="588.19" y1="162.68" x2="592.19" y2="162.68" stroke="#333" stroke-width="1"/>
<rect x="623.25" y="175.20" width="62.12" height="4.80" fill="#616161" opacity="0.5"><title>Control — Shapes: 0.298 ×10⁻³</title></rect>
<line x1="654.31" y1="177.19" x2="654.31" y2="170.81" stroke="#333" stroke-width="1"/>
<line x1="652.31" y1="177.19" x2="656.31" y2="177.19" stroke="#333" stroke-width="1"/>
<line x1="652.31" y1="170.81" x2="656.31" y2="170.81" stroke="#333" stroke-width="1"/>
<text x="623.2" y="194" text-anchor="end" font-size="10" fill="#9E9E9E" transform="rotate(-30,623.2,194)">Shapes</text>
<line x1="0" y1="180" x2="710" y2="180" stroke="#333"/>
<line x1="0" y1="0" x2="0" y2="180" stroke="#333"/>
</g>
<rect x="70" y="300" width="10" height="10" fill="#2E7D32"/>
<text x="84" y="308" font-size="9" fill="#333">Partner Identity</text>
<rect x="210" y="300" width="10" height="10" fill="#616161"/>
<text x="224" y="308" font-size="9" fill="#333">Control</text>
</svg>