<svg viewBox="0 0 800 320" xmlns="http://www.w3.org/2000/svg" style="width:100%;max-width:800px;height:auto;font-family:Arial,sans-serif;">
<rect width="800" height="320" fill="white"/>

<g transform="translate(70,30)">
<line x1="0" y1="180.0" x2="710" y2="180.0" stroke="#eee" stroke-width="1"/>
<text x="-8" y="184.0" text-anchor="end" font-size="10" fill="#666">0.00</text>
<line x1="0" y1="144.0" x2="710" y2="144.0" stroke="#eee" stroke-width="1"/>
<text x="-8" y="148.0" text-anchor="end" font-size="10" fill="#666">0.94</text>
<line x1="0" y1="108.0" x2="710" y2="108.0" stroke="#eee" stroke-width="1"/>
<text x="-8" y="112.0" text-anchor="end" font-size="10" fill="#666">1.88</text>
<line x1="0" y1="72.0" x2="710" y2="72.0" stroke="#eee" stroke-width="1"/>
<text x="-8" y="76.0" text-anchor="end" font-size="10" fill="#666">2.82</text>
<line x1="0" y1="36.0" x2="710" y2="36.0" stroke="#eee" stroke-width="1"/>
<text x="-8" y="40.0" text-anchor="end" font-size="10" fill="#666">3.76</text>
<line x1="0" y1="0.0" x2="710" y2="0.0" stroke="#eee" stroke-width="1"/>
<text x="-8" y="4.0" text-anchor="end" font-size="10" fill="#666">4.70</text>
<text x="-50" y="90.0" text-anchor="middle" font-size="11" fill="#333" transform="rotate(-90,-50,90.0)">Mean R² (×10⁻³)</text>
<rect x="8.88" y="145.26" width="20.71" height="34.74" fill="#81C784" opacity="0.85"><title>Partner Identity — Attention: 0.908 ×10⁻³</title></rect>
<line x1="19.23" y1="152.56" x2="19.23" y2="139.62" stroke="#333" stroke-width="1"/>
<line x1="17.23" y1="152.56" x2="21.23" y2="152.56" stroke="#333" stroke-width="1"/>
<line x1="17.23" y1="139.62" x2="21.23" y2="139.62" stroke="#333" stroke-width="1"/>
<rect x="31.58" y="171.26" width="20.71" height="8.74" fill="#BDBDBD" opacity="0.85"><title>Control — Attention: 0.228 ×10⁻³</title></rect>
<line x1="41.94" y1="172.74" x2="41.94" y2="169.68" stroke="#333" stroke-width="1"/>
<line x1="39.94" y1="172.74" x2="43.94" y2="172.74" stroke="#333" stroke-width="1"/>
<line x1="39.94" y1="169.68" x2="43.94" y2="169.68" stroke="#333" stroke-width="1"/>
<text x="31.6" y="194" text-anchor="end" font-size="10" fill="#2196F3" transform="rotate(-30,31.6,194)">Attention</text>
<rect x="68.04" y="152.86" width="20.71" height="27.14" fill="#81C784" opacity="0.85"><title>Partner Identity — Social: 0.709 ×10⁻³</title></rect>
<line x1="78.40" y1="160.53" x2="78.40" y2="139.23" stroke="#333" stroke-width="1"/>
<line x1="76.40" y1="160.53" x2="80.40" y2="160.53" stroke="#333" stroke-width="1"/>
<line x1="76.40" y1="139.23" x2="80.40" y2="139.23" stroke="#333" stroke-width="1"/>
<rect x="90.75" y="173.58" width="20.71" height="6.42" fill="#BDBDBD" opacity="0.85"><title>Control — Social: 0.168 ×10⁻³</title></rect>
<line x1="101.10" y1="174.50" x2="101.10" y2="171.58" stroke="#333" stroke-width="1"/>
<line x1="99.10" y1="174.50" x2="103.10" y2="174.50" stroke="#333" stroke-width="1"/>
<line x1="99.10" y1="171.58" x2="103.10" y2="171.58" stroke="#333" stroke-width="1"/>
<text x="90.7" y="194" text-anchor="end" font-size="10" fill="#2196F3" transform="rotate(-30,90.7,194)">Social</text>
<rect x="127.21" y="147.01" width="20.71" height="32.99" fill="#81C784" opacity="0.85"><title>Partner Identity — Cognitive: 0.862 ×10⁻³</title></rect>
<line x1="137.56" y1="155.45" x2="137.56" y2="141.41" stroke="#333" stroke-width="1"/>
<line x1="135.56" y1="155.45" x2="139.56" y2="155.45" stroke="#333" stroke-width="1"/>
<line x1="135.56" y1="141.41" x2="139.56" y2="141.41" stroke="#333" stroke-width="1"/>
<rect x="149.92" y="170.30" width="20.71" height="9.70" fill="#BDBDBD" opacity="0.85"><title>Control — Cognitive: 0.253 ×10⁻³</title></rect>
<line x1="160.27" y1="172.33" x2="160.27" y2="168.97" stroke="#333" stroke-width="1"/>
<line x1="158.27" y1="172.33" x2="162.27" y2="172.33" stroke="#333" stroke-width="1"/>
<line x1="158.27" y1="168.97" x2="162.27" y2="168.97" stroke="#333" stroke-width="1"/>
<text x="149.9" y="194" text-anchor="end" font-size="10" fill="#2196F3" transform="rotate(-30,149.9,194)">Cognitive</text>
<rect x="186.38" y="152.57" width="20.71" height="27.43" fill="#81C784" opacity="0.85"><title>Partner Identity — Prediction: 0.717 ×10⁻³</title></rect>
<line x1="196.73" y1="157.82" x2="196.73" y2="145.77" stroke="#333" stroke-width="1"/>
<line x1="194.73" y1="157.82" x2="198.73" y2="157.82" stroke="#333" stroke-width="1"/>
<line x1="194.73" y1="145.77" x2="198.73" y2="145.77" stroke="#333" stroke-width="1"/>
<rect x="209.08" y="173.19" width="20.71" height="6.81" fill="#BDBDBD" opacity="0.85"><title>Control — Prediction: 0.178 ×10⁻³</title></rect>
<line x1="219.44" y1="174.19" x2="219.44" y2="171.56" stroke="#333" stroke-width="1"/>
<line x1="217.44" y1="174.19" x2="221.44" y2="174.19" stroke="#333" stroke-width="1"/>
<line x1="217.44" y1="171.56" x2="221.44" y2="171.56" stroke="#333" stroke-width="1"/>
<text x="209.1" y="194" text-anchor="end" font-size="10" fill="#2196F3" transform="rotate(-30,209.1,194)">Prediction</text>
<rect x="245.54" y="154.19" width="20.71" height="25.81" fill="#81C784" opacity="0.85"><title>Partner Identity — Intentions: 0.675 ×10⁻³</title></rect>
<line x1="255.90" y1="162.44" x2="255.90" y2="145.04" stroke="#333" stroke-width="1"/>
<line x1="253.90" y1="162.44" x2="257.90" y2="162.44" stroke="#333" stroke-width="1"/>
<line x1="253.90" y1="145.04" x2="257.90" y2="145.04" stroke="#333" stroke-width="1"/>
<rect x="268.25" y="173.55" width="20.71" height="6.45" fill="#BDBDBD" opacity="0.85"><title>Control — Intentions: 0.169 ×10⁻³</title></rect>
<line x1="278.60" y1="174.26" x2="278.60" y2="172.34" stroke="#333" stroke-width="1"/>
<line x1="276.60" y1="174.26" x2="280.60" y2="174.26" stroke="#333" stroke-width="1"/>
<line x1="276.60" y1="172.34" x2="280.60" y2="172.34" stroke="#333" stroke-width="1"/>
<text x="268.2" y="194" text-anchor="end" font-size="10" fill="#2196F3" transform="rotate(-30,268.2,194)">Intentions</text>
<rect x="304.71" y="159.35" width="20.71" height="20.65" fill="#81C784" opacity="0.85"><title>Partner Identity — Agency: 0.540 ×10⁻³</title></rect>
<line x1="315.06" y1="165.01" x2="315.06" y2="151.17" stroke="#333" stroke-width="1"/>
<line x1="313.06" y1="165.01" x2="317.06" y2="165.01" stroke="#333" stroke-width="1"/>
<line x1="313.06" y1="151.17" x2="317.06" y2="151.17" stroke="#333" stroke-width="1"/>
<rect x="327.42" y="174.53" width="20.71" height="5.47" fill="#BDBDBD" opacity="0.85"><title>Control — Agency: 0.143 ×10⁻³</title></rect>
<line x1="337.77" y1="175.41" x2="337.77" y2="172.76" stroke="#333" stroke-width="1"/>
<line x1="335.77" y1="175.41" x2="339.77" y2="175.41" stroke="#333" stroke-width="1"/>
<line x1="335.77" y1="172.76" x2="339.77" y2="172.76" stroke="#333" stroke-width="1"/>
<text x="327.4" y="194" text-anchor="end" font-size="10" fill="#2196F3" transform="rotate(-30,327.4,194)">Agency</text>
<rect x="363.88" y="157.76" width="20.71" height="22.24" fill="#81C784" opacity="0.85"><title>Partner Identity — Roles: 0.581 ×10⁻³</title></rect>
<line x1="374.23" y1="162.10" x2="374.23" y2="153.36" stroke="#333" stroke-width="1"/>
<line x1="372.23" y1="162.10" x2="376.23" y2="162.10" stroke="#333" stroke-width="1"/>
<line x1="372.23" y1="153.36" x2="376.23" y2="153.36" stroke="#333" stroke-width="1"/>
<rect x="386.58" y="173.70" width="20.71" height="6.30" fill="#BDBDBD" opacity="0.85"><title>Control — Roles: 0.165 ×10⁻³</title></rect>
<line x1="396.94" y1="174.45" x2="396.94" y2="172.33" stroke="#333" stroke-width="1"/>
<line x1="394.94" y1="174.45" x2="398.94" y2="174.45" stroke="#333" stroke-width="1"/>
<line x1="394.94" y1="172.33" x2="398.94" y2="172.33" stroke="#333" stroke-width="1"/>
<text x="386.6" y="194" text-anchor="end" font-size="10" fill="#2196F3" transform="rotate(-30,386.6,194)">Roles</text>
<rect x="423.04" y="163.07" width="20.71" height="16.93" fill="#81C784" opacity="0.85"><title>Partner Identity — Phenomenology: 0.443 ×10⁻³</title></rect>
<line x1="433.40" y1="166.53" x2="433.40" y2="159.44" stroke="#333" stroke-width="1"/>
<line x1="431.40" y1="166.53" x2="435.40" y2="166.53" stroke="#333" stroke-width="1"/>
<line x1="431.40" y1="159.44" x2="435.40" y2="159.44" stroke="#333" stroke-width="1"/>
<rect x="445.75" y="171.88" width="20.71" height="8.12" fill="#BDBDBD" opacity="0.85"><title>Control — Phenomenology: 0.212 ×10⁻³</title></rect>
<line x1="456.10" y1="173.12" x2="456.10" y2="170.77" stroke="#333" stroke-width="1"/>
<line x1="454.10" y1="173.12" x2="458.10" y2="173.12" stroke="#333" stroke-width="1"/>
<line x1="454.10" y1="170.77" x2="458.10" y2="170.77" stroke="#333" stroke-width="1"/>
<text x="445.7" y="194" text-anchor="end" font-size="10" fill="#2196F3" transform="rotate(-30,445.7,194)">Phenomenology</text>
<rect x="482.21" y="162.76" width="20.71" height="17.24" fill="#81C784" opacity="0.85"><title>Partner Identity — Emotions: 0.451 ×10⁻³</title></rect>
<line x1="492.56" y1="166.02" x2="492.56" y2="159.11" stroke="#333" stroke-width="1"/>
<line x1="490.56" y1="166.02" x2="494.56" y2="166.02" stroke="#333" stroke-width="1"/>
<line x1="490.56" y1="159.11" x2="494.56" y2="159.11" stroke="#333" stroke-width="1"/>
<rect x="504.92" y="173.47" width="20.71" height="6.53" fill="#BDBDBD" opacity="0.85"><title>Control — Emotions: 0.171 ×10⁻³</title></rect>
<line x1="515.27" y1="174.23" x2="515.27" y2="172.42" stroke="#333" stroke-width="1"/>
<line x1="513.27" y1="174.23" x2="517.27" y2="174.23" stroke="#333" stroke-width="1"/>
<line x1="513.27" y1="172.42" x2="517.27" y2="172.42" stroke="#333" stroke-width="1"/>
<text x="504.9" y="194" text-anchor="end" font-size="10" fill="#2196F3" transform="rotate(-30,504.9,194)">Emotions</text>
<rect x="541.38" y="168.22" width="20.71" height="11.78" fill="#81C784" opacity="0.85"><title>Partner Identity — Embodiment: 0.308 ×10⁻³</title></rect>
<line x1="551.73" y1="170.04" x2="551.73" y2="165.75" stroke="#333" stroke-width="1"/>
<line x1="549.73" y1="170.04" x2="553.73" y2="170.04" stroke="#333" stroke-width="1"/>
<line x1="549.73" y1="165.75" x2="553.73" y2="165.75" stroke="#333" stroke-width="1"/>
<rect x="564.08" y="172.10" width="20.71" height="7.90" fill="#BDBDBD" opacity="0.85"><title>Control — Embodiment: 0.207 ×10⁻³</title></rect>
<line x1="574.44" y1="173.30" x2="574.44" y2="170.93" stroke="#333" stroke-width="1"/>
<line x1="572.44" y1="173.30" x2="576.44" y2="173.30" stroke="#333" stroke-width="1"/>
<line x1="572.44" y1="170.93" x2="576.44" y2="170.93" stroke="#333" stroke-width="1"/>
<text x="564.1" y="194" text-anchor="end" font-size="10" fill="#2196F3" transform="rotate(-30,564.1,194)">Embodiment</text>
<line x1="591.6666666666666" y1="0" x2="591.6666666666666" y2="180" stroke="#ccc" stroke-width="1" stroke-dasharray="4,3"/>
<rect x="600.54" y="167.47" width="20.71" height="12.53" fill="#81C784" opacity="0.5"><title>Partner Identity — Biological: 0.327 ×10⁻³</title></rect>
<line x1="610.90" y1="169.23" x2="610.90" y2="165.04" stroke="#333" stroke-width="1"/>
<line x1="608.90" y1="169.23" x2="612.90" y2="169.23" stroke="#333" stroke-width="1"/>
<line x1="608.90" y1="165.04" x2="612.90" y2="165.04" stroke="#333" stroke-width="1"/>
<rect x="623.25" y="172.10" width="20.71" height="7.90" fill="#BDBDBD" opacity="0.5"><title>Control — Biological: 0.207 ×10⁻³</title></rect>
<line x1="633.60" y1="173.13" x2="633.60" y2="171.05" stroke="#333" stroke-width="1"/>
<line x1="631.60" y1="173.13" x2="635.60" y2="173.13" stroke="#333" stroke-width="1"/>
<line x1="631.60" y1="171.05" x2="635.60" y2="171.05" stroke="#333" stroke-width="1"/>
<text x="623.2" y="194" text-anchor="end" font-size="10" fill="#9E9E9E" transform="rotate(-30,623.2,194)">Biological</text>
<rect x="659.71" y="168.36" width="20.71" height="11.64" fill="#81C784" opacity="0.5"><title>Partner Identity — Shapes: 0.304 ×10⁻³</title></rect>
<line x1="670.06" y1="173.65" x2="670.06" y2="162.70" stroke="#333" stroke-width="1"/>
<line x1="668.06" y1="173.65" x2="672.06" y2="173.65" stroke="#333" stroke-width="1"/>
<line x1="668.06" y1="162.70" x2="672.06" y2="162.70" stroke="#333" stroke-width="1"/>
<rect x="682.42" y="172.11" width="20.71" height="7.89" fill="#BDBDBD" opacity="0.5"><title>Control — Shapes: 0.206 ×10⁻³</title></rect>
<line x1="692.77" y1="173.91" x2="692.77" y2="170.03" stroke="#333" stroke-width="1"/>
<line x1="690.77" y1="173.91" x2="694.77" y2="173.91" stroke="#333" stroke-width="1"/>
<line x1="690.77" y1="170.03" x2="694.77" y2="170.03" stroke="#333" stroke-width="1"/>
<text x="682.4" y="194" text-anchor="end" font-size="10" fill="#9E9E9E" transform="rotate(-30,682.4,194)">Shapes</text>
<line x1="0" y1="180" x2="710" y2="180" stroke="#333"/>
<line x1="0" y1="0" x2="0" y2="180" stroke="#333"/>
</g>
<rect x="70" y="300" width="10" height="10" fill="#81C784"/>
<text x="84" y="308" font-size="9" fill="#333">Partner Identity</text>
<rect x="210" y="300" width="10" height="10" fill="#BDBDBD"/>
<text x="224" y="308" font-size="9" fill="#333">Control</text>
</svg>