<svg viewBox="0 0 800 320" xmlns="http://www.w3.org/2000/svg" style="width:100%;max-width:800px;height:auto;font-family:Arial,sans-serif;">
<rect width="800" height="320" fill="white"/>

<g transform="translate(70,30)">
<line x1="0" y1="180.0" x2="710" y2="180.0" stroke="#eee" stroke-width="1"/>
<text x="-8" y="184.0" text-anchor="end" font-size="10" fill="#666">0.00</text>
<line x1="0" y1="144.0" x2="710" y2="144.0" stroke="#eee" stroke-width="1"/>
<text x="-8" y="148.0" text-anchor="end" font-size="10" fill="#666">0.94</text>
<line x1="0" y1="108.0" x2="710" y2="108.0" stroke="#eee" stroke-width="1"/>
<text x="-8" y="112.0" text-anchor="end" font-size="10" fill="#666">1.88</text>
<line x1="0" y1="72.0" x2="710" y2="72.0" stroke="#eee" stroke-width="1"/>
<text x="-8" y="76.0" text-anchor="end" font-size="10" fill="#666">2.82</text>
<line x1="0" y1="36.0" x2="710" y2="36.0" stroke="#eee" stroke-width="1"/>
<text x="-8" y="40.0" text-anchor="end" font-size="10" fill="#666">3.76</text>
<line x1="0" y1="0.0" x2="710" y2="0.0" stroke="#eee" stroke-width="1"/>
<text x="-8" y="4.0" text-anchor="end" font-size="10" fill="#666">4.70</text>
<text x="-50" y="90.0" text-anchor="middle" font-size="11" fill="#333" transform="rotate(-90,-50,90.0)">Mean R² (×10⁻³)</text>
<rect x="26.62" y="168.22" width="62.12" height="11.78" fill="#81C784" opacity="0.85"><title>Partner Identity — Embodiment: 0.308 ×10⁻³</title></rect>
<line x1="57.69" y1="170.04" x2="57.69" y2="165.75" stroke="#333" stroke-width="1"/>
<line x1="55.69" y1="170.04" x2="59.69" y2="170.04" stroke="#333" stroke-width="1"/>
<line x1="55.69" y1="165.75" x2="59.69" y2="165.75" stroke="#333" stroke-width="1"/>
<rect x="90.75" y="172.10" width="62.12" height="7.90" fill="#BDBDBD" opacity="0.85"><title>Control — Embodiment: 0.207 ×10⁻³</title></rect>
<line x1="121.81" y1="173.30" x2="121.81" y2="170.93" stroke="#333" stroke-width="1"/>
<line x1="119.81" y1="173.30" x2="123.81" y2="173.30" stroke="#333" stroke-width="1"/>
<line x1="119.81" y1="170.93" x2="123.81" y2="170.93" stroke="#333" stroke-width="1"/>
<text x="90.8" y="194" text-anchor="end" font-size="10" fill="#4CAF50" transform="rotate(-30,90.8,194)">Embodiment</text>
<rect x="204.12" y="157.76" width="62.12" height="22.24" fill="#81C784" opacity="0.85"><title>Partner Identity — Roles: 0.581 ×10⁻³</title></rect>
<line x1="235.19" y1="162.10" x2="235.19" y2="153.36" stroke="#333" stroke-width="1"/>
<line x1="233.19" y1="162.10" x2="237.19" y2="162.10" stroke="#333" stroke-width="1"/>
<line x1="233.19" y1="153.36" x2="237.19" y2="153.36" stroke="#333" stroke-width="1"/>
<rect x="268.25" y="173.70" width="62.12" height="6.30" fill="#BDBDBD" opacity="0.85"><title>Control — Roles: 0.165 ×10⁻³</title></rect>
<line x1="299.31" y1="174.45" x2="299.31" y2="172.33" stroke="#333" stroke-width="1"/>
<line x1="297.31" y1="174.45" x2="301.31" y2="174.45" stroke="#333" stroke-width="1"/>
<line x1="297.31" y1="172.33" x2="301.31" y2="172.33" stroke="#333" stroke-width="1"/>
<text x="268.2" y="194" text-anchor="end" font-size="10" fill="#4CAF50" transform="rotate(-30,268.2,194)">Roles</text>
<line x1="355.0" y1="0" x2="355.0" y2="180" stroke="#ccc" stroke-width="1" stroke-dasharray="4,3"/>
<rect x="381.62" y="167.47" width="62.12" height="12.53" fill="#81C784" opacity="0.5"><title>Partner Identity — Biological: 0.327 ×10⁻³</title></rect>
<line x1="412.69" y1="169.23" x2="412.69" y2="165.04" stroke="#333" stroke-width="1"/>
<line x1="410.69" y1="169.23" x2="414.69" y2="169.23" stroke="#333" stroke-width="1"/>
<line x1="410.69" y1="165.04" x2="414.69" y2="165.04" stroke="#333" stroke-width="1"/>
<rect x="445.75" y="172.10" width="62.12" height="7.90" fill="#BDBDBD" opacity="0.5"><title>Control — Biological: 0.207 ×10⁻³</title></rect>
<line x1="476.81" y1="173.13" x2="476.81" y2="171.05" stroke="#333" stroke-width="1"/>
<line x1="474.81" y1="173.13" x2="478.81" y2="173.13" stroke="#333" stroke-width="1"/>
<line x1="474.81" y1="171.05" x2="478.81" y2="171.05" stroke="#333" stroke-width="1"/>
<text x="445.8" y="194" text-anchor="end" font-size="10" fill="#9E9E9E" transform="rotate(-30,445.8,194)">Biological</text>
<rect x="559.12" y="168.36" width="62.12" height="11.64" fill="#81C784" opacity="0.5"><title>Partner Identity — Shapes: 0.304 ×10⁻³</title></rect>
<line x1="590.19" y1="173.65" x2="590.19" y2="162.70" stroke="#333" stroke-width="1"/>
<line x1="588.19" y1="173.65" x2="592.19" y2="173.65" stroke="#333" stroke-width="1"/>
<line x1="588.19" y1="162.70" x2="592.19" y2="162.70" stroke="#333" stroke-width="1"/>
<rect x="623.25" y="172.11" width="62.12" height="7.89" fill="#BDBDBD" opacity="0.5"><title>Control — Shapes: 0.206 ×10⁻³</title></rect>
<line x1="654.31" y1="173.91" x2="654.31" y2="170.03" stroke="#333" stroke-width="1"/>
<line x1="652.31" y1="173.91" x2="656.31" y2="173.91" stroke="#333" stroke-width="1"/>
<line x1="652.31" y1="170.03" x2="656.31" y2="170.03" stroke="#333" stroke-width="1"/>
<text x="623.2" y="194" text-anchor="end" font-size="10" fill="#9E9E9E" transform="rotate(-30,623.2,194)">Shapes</text>
<line x1="0" y1="180" x2="710" y2="180" stroke="#333"/>
<line x1="0" y1="0" x2="0" y2="180" stroke="#333"/>
</g>
<rect x="70" y="300" width="10" height="10" fill="#81C784"/>
<text x="84" y="308" font-size="9" fill="#333">Partner Identity</text>
<rect x="210" y="300" width="10" height="10" fill="#BDBDBD"/>
<text x="224" y="308" font-size="9" fill="#333">Control</text>
</svg>