<svg viewBox="0 0 800 340" xmlns="http://www.w3.org/2000/svg" style="width:100%;max-width:800px;height:auto;font-family:Arial,sans-serif;">
<rect width="800" height="340" fill="white"/>

<g transform="translate(70,30)">
<line x1="0" y1="190.0" x2="710" y2="190.0" stroke="#eee" stroke-width="1"/>
<text x="-8" y="194.0" text-anchor="end" font-size="10" fill="#666">0.00</text>
<line x1="0" y1="152.0" x2="710" y2="152.0" stroke="#eee" stroke-width="1"/>
<text x="-8" y="156.0" text-anchor="end" font-size="10" fill="#666">2.24</text>
<line x1="0" y1="114.0" x2="710" y2="114.0" stroke="#eee" stroke-width="1"/>
<text x="-8" y="118.0" text-anchor="end" font-size="10" fill="#666">4.47</text>
<line x1="0" y1="76.0" x2="710" y2="76.0" stroke="#eee" stroke-width="1"/>
<text x="-8" y="80.0" text-anchor="end" font-size="10" fill="#666">6.71</text>
<line x1="0" y1="38.0" x2="710" y2="38.0" stroke="#eee" stroke-width="1"/>
<text x="-8" y="42.0" text-anchor="end" font-size="10" fill="#666">8.94</text>
<line x1="0" y1="0.0" x2="710" y2="0.0" stroke="#eee" stroke-width="1"/>
<text x="-8" y="4.0" text-anchor="end" font-size="10" fill="#666">11.18</text>
<text x="-50" y="95.0" text-anchor="middle" font-size="11" fill="#333" transform="rotate(-90,-50,95.0)">Mean R² (×10⁻³)</text>
<line x1="118.33333333333333" y1="0" x2="118.33333333333333" y2="190" stroke="#ddd" stroke-width="1" stroke-dasharray="4,3"/>
<rect x="5.92" y="181.23" width="13.81" height="8.77" fill="#81C784" opacity="0.85"><title>Partner Identity: 0.516 ×10⁻³</title></rect>
<line x1="12.82" y1="183.11" x2="12.82" y2="179.62" stroke="#333" stroke-width="1"/>
<line x1="10.82" y1="183.11" x2="14.82" y2="183.11" stroke="#333" stroke-width="1"/>
<line x1="10.82" y1="179.62" x2="14.82" y2="179.62" stroke="#333" stroke-width="1"/>
<rect x="21.72" y="181.86" width="13.81" height="8.14" fill="#BDBDBD" opacity="0.85"><title>Control: 0.479 ×10⁻³</title></rect>
<line x1="28.62" y1="184.52" x2="28.62" y2="179.84" stroke="#333" stroke-width="1"/>
<line x1="26.62" y1="184.52" x2="30.62" y2="184.52" stroke="#333" stroke-width="1"/>
<line x1="26.62" y1="179.84" x2="30.62" y2="179.84" stroke="#333" stroke-width="1"/>
<text x="21.7" y="204" text-anchor="end" font-size="9" fill="#9E9E9E" transform="rotate(-45,21.7,204)">Human vs AI (general)</text>
<rect x="45.36" y="186.45" width="13.81" height="3.55" fill="#81C784" opacity="0.85"><title>Partner Identity: 0.209 ×10⁻³</title></rect>
<line x1="52.26" y1="186.96" x2="52.26" y2="185.79" stroke="#333" stroke-width="1"/>
<line x1="50.26" y1="186.96" x2="54.26" y2="186.96" stroke="#333" stroke-width="1"/>
<line x1="50.26" y1="185.79" x2="54.26" y2="185.79" stroke="#333" stroke-width="1"/>
<rect x="61.17" y="183.11" width="13.81" height="6.89" fill="#BDBDBD" opacity="0.85"><title>Control: 0.405 ×10⁻³</title></rect>
<line x1="68.07" y1="184.38" x2="68.07" y2="181.79" stroke="#333" stroke-width="1"/>
<line x1="66.07" y1="184.38" x2="70.07" y2="184.38" stroke="#333" stroke-width="1"/>
<line x1="66.07" y1="181.79" x2="70.07" y2="181.79" stroke="#333" stroke-width="1"/>
<text x="61.2" y="204" text-anchor="end" font-size="9" fill="#9E9E9E" transform="rotate(-45,61.2,204)">Biological</text>
<rect x="84.81" y="178.89" width="13.81" height="11.11" fill="#81C784" opacity="0.85"><title>Partner Identity: 0.653 ×10⁻³</title></rect>
<line x1="91.71" y1="183.55" x2="91.71" y2="176.27" stroke="#333" stroke-width="1"/>
<line x1="89.71" y1="183.55" x2="93.71" y2="183.55" stroke="#333" stroke-width="1"/>
<line x1="89.71" y1="176.27" x2="93.71" y2="176.27" stroke="#333" stroke-width="1"/>
<rect x="100.61" y="184.08" width="13.81" height="5.92" fill="#BDBDBD" opacity="0.85"><title>Control: 0.348 ×10⁻³</title></rect>
<line x1="107.51" y1="186.35" x2="107.51" y2="182.43" stroke="#333" stroke-width="1"/>
<line x1="105.51" y1="186.35" x2="109.51" y2="186.35" stroke="#333" stroke-width="1"/>
<line x1="105.51" y1="182.43" x2="109.51" y2="182.43" stroke="#333" stroke-width="1"/>
<text x="100.6" y="204" text-anchor="end" font-size="9" fill="#9E9E9E" transform="rotate(-45,100.6,204)">Shapes</text>
<rect x="124.25" y="185.31" width="13.81" height="4.69" fill="#81C784" opacity="0.85"><title>Partner Identity: 0.276 ×10⁻³</title></rect>
<line x1="131.15" y1="186.30" x2="131.15" y2="183.94" stroke="#333" stroke-width="1"/>
<line x1="129.15" y1="186.30" x2="133.15" y2="186.30" stroke="#333" stroke-width="1"/>
<line x1="129.15" y1="183.94" x2="133.15" y2="183.94" stroke="#333" stroke-width="1"/>
<rect x="140.06" y="179.24" width="13.81" height="10.76" fill="#BDBDBD" opacity="0.85"><title>Control: 0.633 ×10⁻³</title></rect>
<line x1="146.96" y1="182.72" x2="146.96" y2="175.98" stroke="#333" stroke-width="1"/>
<line x1="144.96" y1="182.72" x2="148.96" y2="182.72" stroke="#333" stroke-width="1"/>
<line x1="144.96" y1="175.98" x2="148.96" y2="175.98" stroke="#333" stroke-width="1"/>
<text x="140.1" y="204" text-anchor="end" font-size="9" fill="#2196F3" transform="rotate(-45,140.1,204)">Phenomenology</text>
<rect x="163.69" y="185.63" width="13.81" height="4.37" fill="#81C784" opacity="0.85"><title>Partner Identity: 0.257 ×10⁻³</title></rect>
<line x1="170.60" y1="186.79" x2="170.60" y2="183.76" stroke="#333" stroke-width="1"/>
<line x1="168.60" y1="186.79" x2="172.60" y2="186.79" stroke="#333" stroke-width="1"/>
<line x1="168.60" y1="183.76" x2="172.60" y2="183.76" stroke="#333" stroke-width="1"/>
<rect x="179.50" y="181.03" width="13.81" height="8.97" fill="#BDBDBD" opacity="0.85"><title>Control: 0.528 ×10⁻³</title></rect>
<line x1="186.40" y1="183.19" x2="186.40" y2="179.12" stroke="#333" stroke-width="1"/>
<line x1="184.40" y1="183.19" x2="188.40" y2="183.19" stroke="#333" stroke-width="1"/>
<line x1="184.40" y1="179.12" x2="188.40" y2="179.12" stroke="#333" stroke-width="1"/>
<text x="179.5" y="204" text-anchor="end" font-size="9" fill="#2196F3" transform="rotate(-45,179.5,204)">Emotions</text>
<rect x="203.14" y="184.15" width="13.81" height="5.85" fill="#81C784" opacity="0.85"><title>Partner Identity: 0.344 ×10⁻³</title></rect>
<line x1="210.04" y1="185.74" x2="210.04" y2="181.29" stroke="#333" stroke-width="1"/>
<line x1="208.04" y1="185.74" x2="212.04" y2="185.74" stroke="#333" stroke-width="1"/>
<line x1="208.04" y1="181.29" x2="212.04" y2="181.29" stroke="#333" stroke-width="1"/>
<rect x="218.94" y="179.68" width="13.81" height="10.32" fill="#BDBDBD" opacity="0.85"><title>Control: 0.607 ×10⁻³</title></rect>
<line x1="225.85" y1="182.36" x2="225.85" y2="177.49" stroke="#333" stroke-width="1"/>
<line x1="223.85" y1="182.36" x2="227.85" y2="182.36" stroke="#333" stroke-width="1"/>
<line x1="223.85" y1="177.49" x2="227.85" y2="177.49" stroke="#333" stroke-width="1"/>
<text x="218.9" y="204" text-anchor="end" font-size="9" fill="#2196F3" transform="rotate(-45,218.9,204)">Agency</text>
<rect x="242.58" y="182.31" width="13.81" height="7.69" fill="#81C784" opacity="0.85"><title>Partner Identity: 0.453 ×10⁻³</title></rect>
<line x1="249.49" y1="185.27" x2="249.49" y2="179.60" stroke="#333" stroke-width="1"/>
<line x1="247.49" y1="185.27" x2="251.49" y2="185.27" stroke="#333" stroke-width="1"/>
<line x1="247.49" y1="179.60" x2="251.49" y2="179.60" stroke="#333" stroke-width="1"/>
<rect x="258.39" y="176.59" width="13.81" height="13.41" fill="#BDBDBD" opacity="0.85"><title>Control: 0.789 ×10⁻³</title></rect>
<line x1="265.29" y1="179.76" x2="265.29" y2="174.52" stroke="#333" stroke-width="1"/>
<line x1="263.29" y1="179.76" x2="267.29" y2="179.76" stroke="#333" stroke-width="1"/>
<line x1="263.29" y1="174.52" x2="267.29" y2="174.52" stroke="#333" stroke-width="1"/>
<text x="258.4" y="204" text-anchor="end" font-size="9" fill="#2196F3" transform="rotate(-45,258.4,204)">Intentions</text>
<rect x="282.03" y="183.79" width="13.81" height="6.21" fill="#81C784" opacity="0.85"><title>Partner Identity: 0.365 ×10⁻³</title></rect>
<line x1="288.93" y1="186.02" x2="288.93" y2="179.50" stroke="#333" stroke-width="1"/>
<line x1="286.93" y1="186.02" x2="290.93" y2="186.02" stroke="#333" stroke-width="1"/>
<line x1="286.93" y1="179.50" x2="290.93" y2="179.50" stroke="#333" stroke-width="1"/>
<rect x="297.83" y="179.23" width="13.81" height="10.77" fill="#BDBDBD" opacity="0.85"><title>Control: 0.633 ×10⁻³</title></rect>
<line x1="304.74" y1="182.23" x2="304.74" y2="176.10" stroke="#333" stroke-width="1"/>
<line x1="302.74" y1="182.23" x2="306.74" y2="182.23" stroke="#333" stroke-width="1"/>
<line x1="302.74" y1="176.10" x2="306.74" y2="176.10" stroke="#333" stroke-width="1"/>
<text x="297.8" y="204" text-anchor="end" font-size="9" fill="#2196F3" transform="rotate(-45,297.8,204)">Prediction</text>
<rect x="321.47" y="181.00" width="13.81" height="9.00" fill="#81C784" opacity="0.85"><title>Partner Identity: 0.529 ×10⁻³</title></rect>
<line x1="328.38" y1="183.51" x2="328.38" y2="178.76" stroke="#333" stroke-width="1"/>
<line x1="326.38" y1="183.51" x2="330.38" y2="183.51" stroke="#333" stroke-width="1"/>
<line x1="326.38" y1="178.76" x2="330.38" y2="178.76" stroke="#333" stroke-width="1"/>
<rect x="337.28" y="179.26" width="13.81" height="10.74" fill="#BDBDBD" opacity="0.85"><title>Control: 0.632 ×10⁻³</title></rect>
<line x1="344.18" y1="182.07" x2="344.18" y2="176.60" stroke="#333" stroke-width="1"/>
<line x1="342.18" y1="182.07" x2="346.18" y2="182.07" stroke="#333" stroke-width="1"/>
<line x1="342.18" y1="176.60" x2="346.18" y2="176.60" stroke="#333" stroke-width="1"/>
<text x="337.3" y="204" text-anchor="end" font-size="9" fill="#2196F3" transform="rotate(-45,337.3,204)">Cognitive</text>
<rect x="360.92" y="181.82" width="13.81" height="8.18" fill="#81C784" opacity="0.85"><title>Partner Identity: 0.481 ×10⁻³</title></rect>
<line x1="367.82" y1="184.62" x2="367.82" y2="177.34" stroke="#333" stroke-width="1"/>
<line x1="365.82" y1="184.62" x2="369.82" y2="184.62" stroke="#333" stroke-width="1"/>
<line x1="365.82" y1="177.34" x2="369.82" y2="177.34" stroke="#333" stroke-width="1"/>
<rect x="376.72" y="178.87" width="13.81" height="11.13" fill="#BDBDBD" opacity="0.85"><title>Control: 0.655 ×10⁻³</title></rect>
<line x1="383.62" y1="181.77" x2="383.62" y2="176.58" stroke="#333" stroke-width="1"/>
<line x1="381.62" y1="181.77" x2="385.62" y2="181.77" stroke="#333" stroke-width="1"/>
<line x1="381.62" y1="176.58" x2="385.62" y2="176.58" stroke="#333" stroke-width="1"/>
<text x="376.7" y="204" text-anchor="end" font-size="9" fill="#2196F3" transform="rotate(-45,376.7,204)">Social</text>
<rect x="400.36" y="179.97" width="13.81" height="10.03" fill="#81C784" opacity="0.85"><title>Partner Identity: 0.590 ×10⁻³</title></rect>
<line x1="407.26" y1="183.05" x2="407.26" y2="177.60" stroke="#333" stroke-width="1"/>
<line x1="405.26" y1="183.05" x2="409.26" y2="183.05" stroke="#333" stroke-width="1"/>
<line x1="405.26" y1="177.60" x2="409.26" y2="177.60" stroke="#333" stroke-width="1"/>
<rect x="416.17" y="177.99" width="13.81" height="12.01" fill="#BDBDBD" opacity="0.85"><title>Control: 0.707 ×10⁻³</title></rect>
<line x1="423.07" y1="180.61" x2="423.07" y2="176.09" stroke="#333" stroke-width="1"/>
<line x1="421.07" y1="180.61" x2="425.07" y2="180.61" stroke="#333" stroke-width="1"/>
<line x1="421.07" y1="176.09" x2="425.07" y2="176.09" stroke="#333" stroke-width="1"/>
<text x="416.2" y="204" text-anchor="end" font-size="9" fill="#2196F3" transform="rotate(-45,416.2,204)">Attention</text>
<rect x="439.81" y="186.75" width="13.81" height="3.25" fill="#81C784" opacity="0.85"><title>Partner Identity: 0.191 ×10⁻³</title></rect>
<line x1="446.71" y1="187.29" x2="446.71" y2="185.95" stroke="#333" stroke-width="1"/>
<line x1="444.71" y1="187.29" x2="448.71" y2="187.29" stroke="#333" stroke-width="1"/>
<line x1="444.71" y1="185.95" x2="448.71" y2="185.95" stroke="#333" stroke-width="1"/>
<rect x="455.61" y="182.04" width="13.81" height="7.96" fill="#BDBDBD" opacity="0.85"><title>Control: 0.469 ×10⁻³</title></rect>
<line x1="462.51" y1="184.09" x2="462.51" y2="180.03" stroke="#333" stroke-width="1"/>
<line x1="460.51" y1="184.09" x2="464.51" y2="184.09" stroke="#333" stroke-width="1"/>
<line x1="460.51" y1="180.03" x2="464.51" y2="180.03" stroke="#333" stroke-width="1"/>
<text x="455.6" y="204" text-anchor="end" font-size="9" fill="#4CAF50" transform="rotate(-45,455.6,204)">Embodiment</text>
<rect x="479.25" y="185.04" width="13.81" height="4.96" fill="#81C784" opacity="0.85"><title>Partner Identity: 0.292 ×10⁻³</title></rect>
<line x1="486.15" y1="186.28" x2="486.15" y2="182.54" stroke="#333" stroke-width="1"/>
<line x1="484.15" y1="186.28" x2="488.15" y2="186.28" stroke="#333" stroke-width="1"/>
<line x1="484.15" y1="182.54" x2="488.15" y2="182.54" stroke="#333" stroke-width="1"/>
<rect x="495.06" y="180.26" width="13.81" height="9.74" fill="#BDBDBD" opacity="0.85"><title>Control: 0.573 ×10⁻³</title></rect>
<line x1="501.96" y1="183.51" x2="501.96" y2="176.33" stroke="#333" stroke-width="1"/>
<line x1="499.96" y1="183.51" x2="503.96" y2="183.51" stroke="#333" stroke-width="1"/>
<line x1="499.96" y1="176.33" x2="503.96" y2="176.33" stroke="#333" stroke-width="1"/>
<text x="495.1" y="204" text-anchor="end" font-size="9" fill="#4CAF50" transform="rotate(-45,495.1,204)">Roles</text>
<rect x="518.69" y="184.73" width="13.81" height="5.27" fill="#81C784" opacity="0.85"><title>Partner Identity: 0.310 ×10⁻³</title></rect>
<line x1="525.60" y1="185.90" x2="525.60" y2="183.46" stroke="#333" stroke-width="1"/>
<line x1="523.60" y1="185.90" x2="527.60" y2="185.90" stroke="#333" stroke-width="1"/>
<line x1="523.60" y1="183.46" x2="527.60" y2="183.46" stroke="#333" stroke-width="1"/>
<rect x="534.50" y="185.64" width="13.81" height="4.36" fill="#BDBDBD" opacity="0.85"><title>Control: 0.256 ×10⁻³</title></rect>
<line x1="541.40" y1="186.54" x2="541.40" y2="184.33" stroke="#333" stroke-width="1"/>
<line x1="539.40" y1="186.54" x2="543.40" y2="186.54" stroke="#333" stroke-width="1"/>
<line x1="539.40" y1="184.33" x2="543.40" y2="184.33" stroke="#333" stroke-width="1"/>
<text x="534.5" y="204" text-anchor="end" font-size="9" fill="#4CAF50" transform="rotate(-45,534.5,204)">Animacy</text>
<rect x="558.14" y="182.12" width="13.81" height="7.88" fill="#81C784" opacity="0.85"><title>Partner Identity: 0.464 ×10⁻³</title></rect>
<line x1="565.04" y1="184.87" x2="565.04" y2="180.70" stroke="#333" stroke-width="1"/>
<line x1="563.04" y1="184.87" x2="567.04" y2="184.87" stroke="#333" stroke-width="1"/>
<line x1="563.04" y1="180.70" x2="567.04" y2="180.70" stroke="#333" stroke-width="1"/>
<rect x="573.94" y="182.78" width="13.81" height="7.22" fill="#BDBDBD" opacity="0.85"><title>Control: 0.425 ×10⁻³</title></rect>
<line x1="580.85" y1="185.48" x2="580.85" y2="180.27" stroke="#333" stroke-width="1"/>
<line x1="578.85" y1="185.48" x2="582.85" y2="185.48" stroke="#333" stroke-width="1"/>
<line x1="578.85" y1="180.27" x2="582.85" y2="180.27" stroke="#333" stroke-width="1"/>
<text x="573.9" y="204" text-anchor="end" font-size="9" fill="#FF9800" transform="rotate(-45,573.9,204)">Formality</text>
<rect x="597.58" y="179.97" width="13.81" height="10.03" fill="#81C784" opacity="0.85"><title>Partner Identity: 0.590 ×10⁻³</title></rect>
<line x1="604.49" y1="182.24" x2="604.49" y2="177.59" stroke="#333" stroke-width="1"/>
<line x1="602.49" y1="182.24" x2="606.49" y2="182.24" stroke="#333" stroke-width="1"/>
<line x1="602.49" y1="177.59" x2="606.49" y2="177.59" stroke="#333" stroke-width="1"/>
<rect x="613.39" y="186.39" width="13.81" height="3.61" fill="#BDBDBD" opacity="0.85"><title>Control: 0.213 ×10⁻³</title></rect>
<line x1="620.29" y1="186.87" x2="620.29" y2="185.69" stroke="#333" stroke-width="1"/>
<line x1="618.29" y1="186.87" x2="622.29" y2="186.87" stroke="#333" stroke-width="1"/>
<line x1="618.29" y1="185.69" x2="622.29" y2="185.69" stroke="#333" stroke-width="1"/>
<text x="613.4" y="204" text-anchor="end" font-size="9" fill="#FF9800" transform="rotate(-45,613.4,204)">Expertise</text>
<rect x="637.03" y="184.11" width="13.81" height="5.89" fill="#81C784" opacity="0.85"><title>Partner Identity: 0.346 ×10⁻³</title></rect>
<line x1="643.93" y1="186.83" x2="643.93" y2="181.36" stroke="#333" stroke-width="1"/>
<line x1="641.93" y1="186.83" x2="645.93" y2="186.83" stroke="#333" stroke-width="1"/>
<line x1="641.93" y1="181.36" x2="645.93" y2="181.36" stroke="#333" stroke-width="1"/>
<rect x="652.83" y="185.78" width="13.81" height="4.22" fill="#BDBDBD" opacity="0.85"><title>Control: 0.249 ×10⁻³</title></rect>
<line x1="659.74" y1="187.24" x2="659.74" y2="183.72" stroke="#333" stroke-width="1"/>
<line x1="657.74" y1="187.24" x2="661.74" y2="187.24" stroke="#333" stroke-width="1"/>
<line x1="657.74" y1="183.72" x2="661.74" y2="183.72" stroke="#333" stroke-width="1"/>
<text x="652.8" y="204" text-anchor="end" font-size="9" fill="#FF9800" transform="rotate(-45,652.8,204)">Helpfulness</text>
<rect x="676.47" y="172.96" width="13.81" height="17.04" fill="#81C784" opacity="0.85"><title>Partner Identity: 1.002 ×10⁻³</title></rect>
<line x1="683.38" y1="175.87" x2="683.38" y2="169.52" stroke="#333" stroke-width="1"/>
<line x1="681.38" y1="175.87" x2="685.38" y2="175.87" stroke="#333" stroke-width="1"/>
<line x1="681.38" y1="169.52" x2="685.38" y2="169.52" stroke="#333" stroke-width="1"/>
<rect x="692.28" y="185.01" width="13.81" height="4.99" fill="#BDBDBD" opacity="0.85"><title>Control: 0.293 ×10⁻³</title></rect>
<line x1="699.18" y1="185.85" x2="699.18" y2="184.22" stroke="#333" stroke-width="1"/>
<line x1="697.18" y1="185.85" x2="701.18" y2="185.85" stroke="#333" stroke-width="1"/>
<line x1="697.18" y1="184.22" x2="701.18" y2="184.22" stroke="#333" stroke-width="1"/>
<text x="692.3" y="204" text-anchor="end" font-size="9" fill="#00BCD4" transform="rotate(-45,692.3,204)">SysPrompt</text>
<line x1="0" y1="190" x2="710" y2="190" stroke="#333"/>
<line x1="0" y1="0" x2="0" y2="190" stroke="#333"/>
</g>
<rect x="70" y="320" width="10" height="10" fill="#81C784"/>
<text x="84" y="328" font-size="9" fill="#333">Partner Identity</text>
<rect x="210" y="320" width="10" height="10" fill="#BDBDBD"/>
<text x="224" y="328" font-size="9" fill="#333">Control</text>
</svg>