<svg viewBox="0 0 800 340" xmlns="http://www.w3.org/2000/svg" style="width:100%;max-width:800px;height:auto;font-family:Arial,sans-serif;">
<rect width="800" height="340" fill="white"/>

<g transform="translate(70,30)">
<line x1="0" y1="190.0" x2="710" y2="190.0" stroke="#eee" stroke-width="1"/>
<text x="-8" y="194.0" text-anchor="end" font-size="10" fill="#666">0.00</text>
<line x1="0" y1="152.0" x2="710" y2="152.0" stroke="#eee" stroke-width="1"/>
<text x="-8" y="156.0" text-anchor="end" font-size="10" fill="#666">2.24</text>
<line x1="0" y1="114.0" x2="710" y2="114.0" stroke="#eee" stroke-width="1"/>
<text x="-8" y="118.0" text-anchor="end" font-size="10" fill="#666">4.47</text>
<line x1="0" y1="76.0" x2="710" y2="76.0" stroke="#eee" stroke-width="1"/>
<text x="-8" y="80.0" text-anchor="end" font-size="10" fill="#666">6.71</text>
<line x1="0" y1="38.0" x2="710" y2="38.0" stroke="#eee" stroke-width="1"/>
<text x="-8" y="42.0" text-anchor="end" font-size="10" fill="#666">8.94</text>
<line x1="0" y1="0.0" x2="710" y2="0.0" stroke="#eee" stroke-width="1"/>
<text x="-8" y="4.0" text-anchor="end" font-size="10" fill="#666">11.18</text>
<text x="-50" y="95.0" text-anchor="middle" font-size="11" fill="#333" transform="rotate(-90,-50,95.0)">Mean R² (×10⁻³)</text>
<line x1="118.33333333333333" y1="0" x2="118.33333333333333" y2="190" stroke="#ddd" stroke-width="1" stroke-dasharray="4,3"/>
<rect x="5.92" y="65.88" width="13.81" height="124.12" fill="#2E7D32" opacity="0.85"><title>Partner Identity: 7.302 ×10⁻³</title></rect>
<line x1="12.82" y1="94.03" x2="12.82" y2="57.55" stroke="#333" stroke-width="1"/>
<line x1="10.82" y1="94.03" x2="14.82" y2="94.03" stroke="#333" stroke-width="1"/>
<line x1="10.82" y1="57.55" x2="14.82" y2="57.55" stroke="#333" stroke-width="1"/>
<rect x="21.72" y="166.00" width="13.81" height="24.00" fill="#616161" opacity="0.85"><title>Control: 1.412 ×10⁻³</title></rect>
<line x1="28.62" y1="174.20" x2="28.62" y2="159.03" stroke="#333" stroke-width="1"/>
<line x1="26.62" y1="174.20" x2="30.62" y2="174.20" stroke="#333" stroke-width="1"/>
<line x1="26.62" y1="159.03" x2="30.62" y2="159.03" stroke="#333" stroke-width="1"/>
<text x="21.7" y="204" text-anchor="end" font-size="9" fill="#9E9E9E" transform="rotate(-45,21.7,204)">Human vs AI (general)</text>
<rect x="45.36" y="130.72" width="13.81" height="59.28" fill="#2E7D32" opacity="0.85"><title>Partner Identity: 3.487 ×10⁻³</title></rect>
<line x1="52.26" y1="138.65" x2="52.26" y2="124.47" stroke="#333" stroke-width="1"/>
<line x1="50.26" y1="138.65" x2="54.26" y2="138.65" stroke="#333" stroke-width="1"/>
<line x1="50.26" y1="124.47" x2="54.26" y2="124.47" stroke="#333" stroke-width="1"/>
<rect x="61.17" y="165.28" width="13.81" height="24.72" fill="#616161" opacity="0.85"><title>Control: 1.454 ×10⁻³</title></rect>
<line x1="68.07" y1="170.80" x2="68.07" y2="160.54" stroke="#333" stroke-width="1"/>
<line x1="66.07" y1="170.80" x2="70.07" y2="170.80" stroke="#333" stroke-width="1"/>
<line x1="66.07" y1="160.54" x2="70.07" y2="160.54" stroke="#333" stroke-width="1"/>
<text x="61.2" y="204" text-anchor="end" font-size="9" fill="#9E9E9E" transform="rotate(-45,61.2,204)">Biological</text>
<rect x="84.81" y="180.40" width="13.81" height="9.60" fill="#2E7D32" opacity="0.85"><title>Partner Identity: 0.565 ×10⁻³</title></rect>
<line x1="91.71" y1="185.47" x2="91.71" y2="171.72" stroke="#333" stroke-width="1"/>
<line x1="89.71" y1="185.47" x2="93.71" y2="185.47" stroke="#333" stroke-width="1"/>
<line x1="89.71" y1="171.72" x2="93.71" y2="171.72" stroke="#333" stroke-width="1"/>
<rect x="100.61" y="184.94" width="13.81" height="5.06" fill="#616161" opacity="0.85"><title>Control: 0.298 ×10⁻³</title></rect>
<line x1="107.51" y1="187.03" x2="107.51" y2="180.30" stroke="#333" stroke-width="1"/>
<line x1="105.51" y1="187.03" x2="109.51" y2="187.03" stroke="#333" stroke-width="1"/>
<line x1="105.51" y1="180.30" x2="109.51" y2="180.30" stroke="#333" stroke-width="1"/>
<text x="100.6" y="204" text-anchor="end" font-size="9" fill="#9E9E9E" transform="rotate(-45,100.6,204)">Shapes</text>
<rect x="124.25" y="92.45" width="13.81" height="97.55" fill="#2E7D32" opacity="0.85"><title>Partner Identity: 5.739 ×10⁻³</title></rect>
<line x1="131.15" y1="109.07" x2="131.15" y2="86.25" stroke="#333" stroke-width="1"/>
<line x1="129.15" y1="109.07" x2="133.15" y2="109.07" stroke="#333" stroke-width="1"/>
<line x1="129.15" y1="86.25" x2="133.15" y2="86.25" stroke="#333" stroke-width="1"/>
<rect x="140.06" y="167.78" width="13.81" height="22.22" fill="#616161" opacity="0.85"><title>Control: 1.307 ×10⁻³</title></rect>
<line x1="146.96" y1="174.30" x2="146.96" y2="162.76" stroke="#333" stroke-width="1"/>
<line x1="144.96" y1="174.30" x2="148.96" y2="174.30" stroke="#333" stroke-width="1"/>
<line x1="144.96" y1="162.76" x2="148.96" y2="162.76" stroke="#333" stroke-width="1"/>
<text x="140.1" y="204" text-anchor="end" font-size="9" fill="#2196F3" transform="rotate(-45,140.1,204)">Phenomenology</text>
<rect x="163.69" y="76.18" width="13.81" height="113.82" fill="#2E7D32" opacity="0.85"><title>Partner Identity: 6.696 ×10⁻³</title></rect>
<line x1="170.60" y1="89.33" x2="170.60" y2="68.51" stroke="#333" stroke-width="1"/>
<line x1="168.60" y1="89.33" x2="172.60" y2="89.33" stroke="#333" stroke-width="1"/>
<line x1="168.60" y1="68.51" x2="172.60" y2="68.51" stroke="#333" stroke-width="1"/>
<rect x="179.50" y="170.09" width="13.81" height="19.91" fill="#616161" opacity="0.85"><title>Control: 1.172 ×10⁻³</title></rect>
<line x1="186.40" y1="173.78" x2="186.40" y2="167.28" stroke="#333" stroke-width="1"/>
<line x1="184.40" y1="173.78" x2="188.40" y2="173.78" stroke="#333" stroke-width="1"/>
<line x1="184.40" y1="167.28" x2="188.40" y2="167.28" stroke="#333" stroke-width="1"/>
<text x="179.5" y="204" text-anchor="end" font-size="9" fill="#2196F3" transform="rotate(-45,179.5,204)">Emotions</text>
<rect x="203.14" y="55.62" width="13.81" height="134.38" fill="#2E7D32" opacity="0.85"><title>Partner Identity: 7.906 ×10⁻³</title></rect>
<line x1="210.04" y1="72.40" x2="210.04" y2="50.10" stroke="#333" stroke-width="1"/>
<line x1="208.04" y1="72.40" x2="212.04" y2="72.40" stroke="#333" stroke-width="1"/>
<line x1="208.04" y1="50.10" x2="212.04" y2="50.10" stroke="#333" stroke-width="1"/>
<rect x="218.94" y="167.03" width="13.81" height="22.97" fill="#616161" opacity="0.85"><title>Control: 1.351 ×10⁻³</title></rect>
<line x1="225.85" y1="173.37" x2="225.85" y2="162.10" stroke="#333" stroke-width="1"/>
<line x1="223.85" y1="173.37" x2="227.85" y2="173.37" stroke="#333" stroke-width="1"/>
<line x1="223.85" y1="162.10" x2="227.85" y2="162.10" stroke="#333" stroke-width="1"/>
<text x="218.9" y="204" text-anchor="end" font-size="9" fill="#2196F3" transform="rotate(-45,218.9,204)">Agency</text>
<rect x="242.58" y="62.67" width="13.81" height="127.33" fill="#2E7D32" opacity="0.85"><title>Partner Identity: 7.491 ×10⁻³</title></rect>
<line x1="249.49" y1="82.10" x2="249.49" y2="52.64" stroke="#333" stroke-width="1"/>
<line x1="247.49" y1="82.10" x2="251.49" y2="82.10" stroke="#333" stroke-width="1"/>
<line x1="247.49" y1="52.64" x2="251.49" y2="52.64" stroke="#333" stroke-width="1"/>
<rect x="258.39" y="166.10" width="13.81" height="23.90" fill="#616161" opacity="0.85"><title>Control: 1.406 ×10⁻³</title></rect>
<line x1="265.29" y1="172.95" x2="265.29" y2="161.54" stroke="#333" stroke-width="1"/>
<line x1="263.29" y1="172.95" x2="267.29" y2="172.95" stroke="#333" stroke-width="1"/>
<line x1="263.29" y1="161.54" x2="267.29" y2="161.54" stroke="#333" stroke-width="1"/>
<text x="258.4" y="204" text-anchor="end" font-size="9" fill="#2196F3" transform="rotate(-45,258.4,204)">Intentions</text>
<rect x="282.03" y="42.18" width="13.81" height="147.82" fill="#2E7D32" opacity="0.85"><title>Partner Identity: 8.696 ×10⁻³</title></rect>
<line x1="288.93" y1="62.91" x2="288.93" y2="33.72" stroke="#333" stroke-width="1"/>
<line x1="286.93" y1="62.91" x2="290.93" y2="62.91" stroke="#333" stroke-width="1"/>
<line x1="286.93" y1="33.72" x2="290.93" y2="33.72" stroke="#333" stroke-width="1"/>
<rect x="297.83" y="168.92" width="13.81" height="21.08" fill="#616161" opacity="0.85"><title>Control: 1.240 ×10⁻³</title></rect>
<line x1="304.74" y1="174.24" x2="304.74" y2="163.63" stroke="#333" stroke-width="1"/>
<line x1="302.74" y1="174.24" x2="306.74" y2="174.24" stroke="#333" stroke-width="1"/>
<line x1="302.74" y1="163.63" x2="306.74" y2="163.63" stroke="#333" stroke-width="1"/>
<text x="297.8" y="204" text-anchor="end" font-size="9" fill="#2196F3" transform="rotate(-45,297.8,204)">Prediction</text>
<rect x="321.47" y="62.51" width="13.81" height="127.49" fill="#2E7D32" opacity="0.85"><title>Partner Identity: 7.500 ×10⁻³</title></rect>
<line x1="328.38" y1="80.37" x2="328.38" y2="53.97" stroke="#333" stroke-width="1"/>
<line x1="326.38" y1="80.37" x2="330.38" y2="80.37" stroke="#333" stroke-width="1"/>
<line x1="326.38" y1="53.97" x2="330.38" y2="53.97" stroke="#333" stroke-width="1"/>
<rect x="337.28" y="173.58" width="13.81" height="16.42" fill="#616161" opacity="0.85"><title>Control: 0.966 ×10⁻³</title></rect>
<line x1="344.18" y1="179.04" x2="344.18" y2="167.99" stroke="#333" stroke-width="1"/>
<line x1="342.18" y1="179.04" x2="346.18" y2="179.04" stroke="#333" stroke-width="1"/>
<line x1="342.18" y1="167.99" x2="346.18" y2="167.99" stroke="#333" stroke-width="1"/>
<text x="337.3" y="204" text-anchor="end" font-size="9" fill="#2196F3" transform="rotate(-45,337.3,204)">Cognitive</text>
<rect x="360.92" y="33.92" width="13.81" height="156.08" fill="#2E7D32" opacity="0.85"><title>Partner Identity: 9.183 ×10⁻³</title></rect>
<line x1="367.82" y1="55.08" x2="367.82" y2="25.50" stroke="#333" stroke-width="1"/>
<line x1="365.82" y1="55.08" x2="369.82" y2="55.08" stroke="#333" stroke-width="1"/>
<line x1="365.82" y1="25.50" x2="369.82" y2="25.50" stroke="#333" stroke-width="1"/>
<rect x="376.72" y="162.77" width="13.81" height="27.23" fill="#616161" opacity="0.85"><title>Control: 1.602 ×10⁻³</title></rect>
<line x1="383.62" y1="171.71" x2="383.62" y2="155.27" stroke="#333" stroke-width="1"/>
<line x1="381.62" y1="171.71" x2="385.62" y2="171.71" stroke="#333" stroke-width="1"/>
<line x1="381.62" y1="155.27" x2="385.62" y2="155.27" stroke="#333" stroke-width="1"/>
<text x="376.7" y="204" text-anchor="end" font-size="9" fill="#2196F3" transform="rotate(-45,376.7,204)">Social</text>
<rect x="400.36" y="40.13" width="13.81" height="149.87" fill="#2E7D32" opacity="0.85"><title>Partner Identity: 8.817 ×10⁻³</title></rect>
<line x1="407.26" y1="61.26" x2="407.26" y2="31.98" stroke="#333" stroke-width="1"/>
<line x1="405.26" y1="61.26" x2="409.26" y2="61.26" stroke="#333" stroke-width="1"/>
<line x1="405.26" y1="31.98" x2="409.26" y2="31.98" stroke="#333" stroke-width="1"/>
<rect x="416.17" y="170.23" width="13.81" height="19.77" fill="#616161" opacity="0.85"><title>Control: 1.163 ×10⁻³</title></rect>
<line x1="423.07" y1="176.18" x2="423.07" y2="165.19" stroke="#333" stroke-width="1"/>
<line x1="421.07" y1="176.18" x2="425.07" y2="176.18" stroke="#333" stroke-width="1"/>
<line x1="421.07" y1="165.19" x2="425.07" y2="165.19" stroke="#333" stroke-width="1"/>
<text x="416.2" y="204" text-anchor="end" font-size="9" fill="#2196F3" transform="rotate(-45,416.2,204)">Attention</text>
<rect x="439.81" y="90.77" width="13.81" height="99.23" fill="#2E7D32" opacity="0.85"><title>Partner Identity: 5.838 ×10⁻³</title></rect>
<line x1="446.71" y1="107.63" x2="446.71" y2="82.06" stroke="#333" stroke-width="1"/>
<line x1="444.71" y1="107.63" x2="448.71" y2="107.63" stroke="#333" stroke-width="1"/>
<line x1="444.71" y1="82.06" x2="448.71" y2="82.06" stroke="#333" stroke-width="1"/>
<rect x="455.61" y="165.62" width="13.81" height="24.38" fill="#616161" opacity="0.85"><title>Control: 1.435 ×10⁻³</title></rect>
<line x1="462.51" y1="171.70" x2="462.51" y2="159.92" stroke="#333" stroke-width="1"/>
<line x1="460.51" y1="171.70" x2="464.51" y2="171.70" stroke="#333" stroke-width="1"/>
<line x1="460.51" y1="159.92" x2="464.51" y2="159.92" stroke="#333" stroke-width="1"/>
<text x="455.6" y="204" text-anchor="end" font-size="9" fill="#4CAF50" transform="rotate(-45,455.6,204)">Embodiment</text>
<rect x="479.25" y="59.59" width="13.81" height="130.41" fill="#2E7D32" opacity="0.85"><title>Partner Identity: 7.672 ×10⁻³</title></rect>
<line x1="486.15" y1="83.59" x2="486.15" y2="47.95" stroke="#333" stroke-width="1"/>
<line x1="484.15" y1="83.59" x2="488.15" y2="83.59" stroke="#333" stroke-width="1"/>
<line x1="484.15" y1="47.95" x2="488.15" y2="47.95" stroke="#333" stroke-width="1"/>
<rect x="495.06" y="169.09" width="13.81" height="20.91" fill="#616161" opacity="0.85"><title>Control: 1.230 ×10⁻³</title></rect>
<line x1="501.96" y1="174.81" x2="501.96" y2="162.99" stroke="#333" stroke-width="1"/>
<line x1="499.96" y1="174.81" x2="503.96" y2="174.81" stroke="#333" stroke-width="1"/>
<line x1="499.96" y1="162.99" x2="503.96" y2="162.99" stroke="#333" stroke-width="1"/>
<text x="495.1" y="204" text-anchor="end" font-size="9" fill="#4CAF50" transform="rotate(-45,495.1,204)">Roles</text>
<rect x="518.69" y="101.60" width="13.81" height="88.40" fill="#2E7D32" opacity="0.85"><title>Partner Identity: 5.201 ×10⁻³</title></rect>
<line x1="525.60" y1="121.40" x2="525.60" y2="90.82" stroke="#333" stroke-width="1"/>
<line x1="523.60" y1="121.40" x2="527.60" y2="121.40" stroke="#333" stroke-width="1"/>
<line x1="523.60" y1="90.82" x2="527.60" y2="90.82" stroke="#333" stroke-width="1"/>
<rect x="534.50" y="171.39" width="13.81" height="18.61" fill="#616161" opacity="0.85"><title>Control: 1.095 ×10⁻³</title></rect>
<line x1="541.40" y1="174.62" x2="541.40" y2="167.64" stroke="#333" stroke-width="1"/>
<line x1="539.40" y1="174.62" x2="543.40" y2="174.62" stroke="#333" stroke-width="1"/>
<line x1="539.40" y1="167.64" x2="543.40" y2="167.64" stroke="#333" stroke-width="1"/>
<text x="534.5" y="204" text-anchor="end" font-size="9" fill="#4CAF50" transform="rotate(-45,534.5,204)">Animacy</text>
<rect x="558.14" y="163.34" width="13.81" height="26.66" fill="#2E7D32" opacity="0.85"><title>Partner Identity: 1.569 ×10⁻³</title></rect>
<line x1="565.04" y1="179.18" x2="565.04" y2="152.12" stroke="#333" stroke-width="1"/>
<line x1="563.04" y1="179.18" x2="567.04" y2="179.18" stroke="#333" stroke-width="1"/>
<line x1="563.04" y1="152.12" x2="567.04" y2="152.12" stroke="#333" stroke-width="1"/>
<rect x="573.94" y="179.70" width="13.81" height="10.30" fill="#616161" opacity="0.85"><title>Control: 0.606 ×10⁻³</title></rect>
<line x1="580.85" y1="184.76" x2="580.85" y2="175.25" stroke="#333" stroke-width="1"/>
<line x1="578.85" y1="184.76" x2="582.85" y2="184.76" stroke="#333" stroke-width="1"/>
<line x1="578.85" y1="175.25" x2="582.85" y2="175.25" stroke="#333" stroke-width="1"/>
<text x="573.9" y="204" text-anchor="end" font-size="9" fill="#FF9800" transform="rotate(-45,573.9,204)">Formality</text>
<rect x="597.58" y="116.45" width="13.81" height="73.55" fill="#2E7D32" opacity="0.85"><title>Partner Identity: 4.327 ×10⁻³</title></rect>
<line x1="604.49" y1="130.95" x2="604.49" y2="104.76" stroke="#333" stroke-width="1"/>
<line x1="602.49" y1="130.95" x2="606.49" y2="130.95" stroke="#333" stroke-width="1"/>
<line x1="602.49" y1="104.76" x2="606.49" y2="104.76" stroke="#333" stroke-width="1"/>
<rect x="613.39" y="187.89" width="13.81" height="2.11" fill="#616161" opacity="0.85"><title>Control: 0.124 ×10⁻³</title></rect>
<line x1="620.29" y1="188.07" x2="620.29" y2="186.96" stroke="#333" stroke-width="1"/>
<line x1="618.29" y1="188.07" x2="622.29" y2="188.07" stroke="#333" stroke-width="1"/>
<line x1="618.29" y1="186.96" x2="622.29" y2="186.96" stroke="#333" stroke-width="1"/>
<text x="613.4" y="204" text-anchor="end" font-size="9" fill="#FF9800" transform="rotate(-45,613.4,204)">Expertise</text>
<rect x="637.03" y="176.50" width="13.81" height="13.50" fill="#2E7D32" opacity="0.85"><title>Partner Identity: 0.794 ×10⁻³</title></rect>
<line x1="643.93" y1="185.20" x2="643.93" y2="167.57" stroke="#333" stroke-width="1"/>
<line x1="641.93" y1="185.20" x2="645.93" y2="185.20" stroke="#333" stroke-width="1"/>
<line x1="641.93" y1="167.57" x2="645.93" y2="167.57" stroke="#333" stroke-width="1"/>
<rect x="652.83" y="177.38" width="13.81" height="12.62" fill="#616161" opacity="0.85"><title>Control: 0.742 ×10⁻³</title></rect>
<line x1="659.74" y1="184.49" x2="659.74" y2="172.08" stroke="#333" stroke-width="1"/>
<line x1="657.74" y1="184.49" x2="661.74" y2="184.49" stroke="#333" stroke-width="1"/>
<line x1="657.74" y1="172.08" x2="661.74" y2="172.08" stroke="#333" stroke-width="1"/>
<text x="652.8" y="204" text-anchor="end" font-size="9" fill="#FF9800" transform="rotate(-45,652.8,204)">Helpfulness</text>
<rect x="676.47" y="64.55" width="13.81" height="125.45" fill="#2E7D32" opacity="0.85"><title>Partner Identity: 7.380 ×10⁻³</title></rect>
<line x1="683.38" y1="89.36" x2="683.38" y2="33.22" stroke="#333" stroke-width="1"/>
<line x1="681.38" y1="89.36" x2="685.38" y2="89.36" stroke="#333" stroke-width="1"/>
<line x1="681.38" y1="33.22" x2="685.38" y2="33.22" stroke="#333" stroke-width="1"/>
<rect x="692.28" y="183.09" width="13.81" height="6.91" fill="#616161" opacity="0.85"><title>Control: 0.407 ×10⁻³</title></rect>
<line x1="699.18" y1="184.12" x2="699.18" y2="181.96" stroke="#333" stroke-width="1"/>
<line x1="697.18" y1="184.12" x2="701.18" y2="184.12" stroke="#333" stroke-width="1"/>
<line x1="697.18" y1="181.96" x2="701.18" y2="181.96" stroke="#333" stroke-width="1"/>
<text x="692.3" y="204" text-anchor="end" font-size="9" fill="#00BCD4" transform="rotate(-45,692.3,204)">SysPrompt</text>
<line x1="0" y1="190" x2="710" y2="190" stroke="#333"/>
<line x1="0" y1="0" x2="0" y2="190" stroke="#333"/>
</g>
<rect x="70" y="320" width="10" height="10" fill="#2E7D32"/>
<text x="84" y="328" font-size="9" fill="#333">Partner Identity</text>
<rect x="210" y="320" width="10" height="10" fill="#616161"/>
<text x="224" y="328" font-size="9" fill="#333">Control</text>
</svg>