<svg viewBox="0 0 800 320" xmlns="http://www.w3.org/2000/svg" style="width:100%;max-width:800px;height:auto;font-family:Arial,sans-serif;">
<rect width="800" height="320" fill="white"/>

<g transform="translate(70,30)">
<line x1="0" y1="180.0" x2="710" y2="180.0" stroke="#eee" stroke-width="1"/>
<text x="-8" y="184.0" text-anchor="end" font-size="10" fill="#666">0.00</text>
<line x1="0" y1="144.0" x2="710" y2="144.0" stroke="#eee" stroke-width="1"/>
<text x="-8" y="148.0" text-anchor="end" font-size="10" fill="#666">2.24</text>
<line x1="0" y1="108.0" x2="710" y2="108.0" stroke="#eee" stroke-width="1"/>
<text x="-8" y="112.0" text-anchor="end" font-size="10" fill="#666">4.47</text>
<line x1="0" y1="72.0" x2="710" y2="72.0" stroke="#eee" stroke-width="1"/>
<text x="-8" y="76.0" text-anchor="end" font-size="10" fill="#666">6.71</text>
<line x1="0" y1="36.0" x2="710" y2="36.0" stroke="#eee" stroke-width="1"/>
<text x="-8" y="40.0" text-anchor="end" font-size="10" fill="#666">8.94</text>
<line x1="0" y1="0.0" x2="710" y2="0.0" stroke="#eee" stroke-width="1"/>
<text x="-8" y="4.0" text-anchor="end" font-size="10" fill="#666">11.18</text>
<text x="-50" y="90.0" text-anchor="middle" font-size="11" fill="#333" transform="rotate(-90,-50,90.0)">Mean R² (×10⁻³)</text>
<rect x="17.75" y="154.74" width="41.42" height="25.26" fill="#2E7D32" opacity="0.85"><title>Partner Identity — Formality: 1.569 ×10⁻³</title></rect>
<line x1="38.46" y1="169.75" x2="38.46" y2="144.11" stroke="#333" stroke-width="1"/>
<line x1="36.46" y1="169.75" x2="40.46" y2="169.75" stroke="#333" stroke-width="1"/>
<line x1="36.46" y1="144.11" x2="40.46" y2="144.11" stroke="#333" stroke-width="1"/>
<rect x="61.17" y="170.24" width="41.42" height="9.76" fill="#616161" opacity="0.85"><title>Control — Formality: 0.606 ×10⁻³</title></rect>
<line x1="81.88" y1="175.04" x2="81.88" y2="166.03" stroke="#333" stroke-width="1"/>
<line x1="79.88" y1="175.04" x2="83.88" y2="175.04" stroke="#333" stroke-width="1"/>
<line x1="79.88" y1="166.03" x2="83.88" y2="166.03" stroke="#333" stroke-width="1"/>
<text x="61.2" y="194" text-anchor="end" font-size="10" fill="#FF9800" transform="rotate(-30,61.2,194)">Formality</text>
<rect x="136.08" y="110.32" width="41.42" height="69.68" fill="#2E7D32" opacity="0.85"><title>Partner Identity — Expertise: 4.327 ×10⁻³</title></rect>
<line x1="156.79" y1="124.06" x2="156.79" y2="99.25" stroke="#333" stroke-width="1"/>
<line x1="154.79" y1="124.06" x2="158.79" y2="124.06" stroke="#333" stroke-width="1"/>
<line x1="154.79" y1="99.25" x2="158.79" y2="99.25" stroke="#333" stroke-width="1"/>
<rect x="179.50" y="178.01" width="41.42" height="1.99" fill="#616161" opacity="0.85"><title>Control — Expertise: 0.124 ×10⁻³</title></rect>
<line x1="200.21" y1="178.17" x2="200.21" y2="177.12" stroke="#333" stroke-width="1"/>
<line x1="198.21" y1="178.17" x2="202.21" y2="178.17" stroke="#333" stroke-width="1"/>
<line x1="198.21" y1="177.12" x2="202.21" y2="177.12" stroke="#333" stroke-width="1"/>
<text x="179.5" y="194" text-anchor="end" font-size="10" fill="#FF9800" transform="rotate(-30,179.5,194)">Expertise</text>
<rect x="254.42" y="167.22" width="41.42" height="12.78" fill="#2E7D32" opacity="0.85"><title>Partner Identity — Helpfulness: 0.794 ×10⁻³</title></rect>
<line x1="275.12" y1="175.45" x2="275.12" y2="158.75" stroke="#333" stroke-width="1"/>
<line x1="273.12" y1="175.45" x2="277.12" y2="175.45" stroke="#333" stroke-width="1"/>
<line x1="273.12" y1="158.75" x2="277.12" y2="158.75" stroke="#333" stroke-width="1"/>
<rect x="297.83" y="168.05" width="41.42" height="11.95" fill="#616161" opacity="0.85"><title>Control — Helpfulness: 0.742 ×10⁻³</title></rect>
<line x1="318.54" y1="174.78" x2="318.54" y2="163.02" stroke="#333" stroke-width="1"/>
<line x1="316.54" y1="174.78" x2="320.54" y2="174.78" stroke="#333" stroke-width="1"/>
<line x1="316.54" y1="163.02" x2="320.54" y2="163.02" stroke="#333" stroke-width="1"/>
<text x="297.8" y="194" text-anchor="end" font-size="10" fill="#FF9800" transform="rotate(-30,297.8,194)">Helpfulness</text>
<line x1="355.0" y1="0" x2="355.0" y2="180" stroke="#ccc" stroke-width="1" stroke-dasharray="4,3"/>
<rect x="372.75" y="62.41" width="41.42" height="117.59" fill="#2E7D32" opacity="0.5"><title>Partner Identity — Human vs AI (general): 7.302 ×10⁻³</title></rect>
<line x1="393.46" y1="89.09" x2="393.46" y2="54.52" stroke="#333" stroke-width="1"/>
<line x1="391.46" y1="89.09" x2="395.46" y2="89.09" stroke="#333" stroke-width="1"/>
<line x1="391.46" y1="54.52" x2="395.46" y2="54.52" stroke="#333" stroke-width="1"/>
<rect x="416.17" y="157.26" width="41.42" height="22.74" fill="#616161" opacity="0.5"><title>Control — Human vs AI (general): 1.412 ×10⁻³</title></rect>
<line x1="436.88" y1="165.04" x2="436.88" y2="150.66" stroke="#333" stroke-width="1"/>
<line x1="434.88" y1="165.04" x2="438.88" y2="165.04" stroke="#333" stroke-width="1"/>
<line x1="434.88" y1="150.66" x2="438.88" y2="150.66" stroke="#333" stroke-width="1"/>
<text x="416.2" y="194" text-anchor="end" font-size="10" fill="#9E9E9E" transform="rotate(-30,416.2,194)">Human vs AI (general)</text>
<rect x="491.08" y="123.84" width="41.42" height="56.16" fill="#2E7D32" opacity="0.5"><title>Partner Identity — Biological: 3.487 ×10⁻³</title></rect>
<line x1="511.79" y1="131.35" x2="511.79" y2="117.92" stroke="#333" stroke-width="1"/>
<line x1="509.79" y1="131.35" x2="513.79" y2="131.35" stroke="#333" stroke-width="1"/>
<line x1="509.79" y1="117.92" x2="513.79" y2="117.92" stroke="#333" stroke-width="1"/>
<rect x="534.50" y="156.58" width="41.42" height="23.42" fill="#616161" opacity="0.5"><title>Control — Biological: 1.454 ×10⁻³</title></rect>
<line x1="555.21" y1="161.81" x2="555.21" y2="152.09" stroke="#333" stroke-width="1"/>
<line x1="553.21" y1="161.81" x2="557.21" y2="161.81" stroke="#333" stroke-width="1"/>
<line x1="553.21" y1="152.09" x2="557.21" y2="152.09" stroke="#333" stroke-width="1"/>
<text x="534.5" y="194" text-anchor="end" font-size="10" fill="#9E9E9E" transform="rotate(-30,534.5,194)">Biological</text>
<rect x="609.42" y="170.90" width="41.42" height="9.10" fill="#2E7D32" opacity="0.5"><title>Partner Identity — Shapes: 0.565 ×10⁻³</title></rect>
<line x1="630.12" y1="175.71" x2="630.12" y2="162.68" stroke="#333" stroke-width="1"/>
<line x1="628.12" y1="175.71" x2="632.12" y2="175.71" stroke="#333" stroke-width="1"/>
<line x1="628.12" y1="162.68" x2="632.12" y2="162.68" stroke="#333" stroke-width="1"/>
<rect x="652.83" y="175.20" width="41.42" height="4.80" fill="#616161" opacity="0.5"><title>Control — Shapes: 0.298 ×10⁻³</title></rect>
<line x1="673.54" y1="177.19" x2="673.54" y2="170.81" stroke="#333" stroke-width="1"/>
<line x1="671.54" y1="177.19" x2="675.54" y2="177.19" stroke="#333" stroke-width="1"/>
<line x1="671.54" y1="170.81" x2="675.54" y2="170.81" stroke="#333" stroke-width="1"/>
<text x="652.8" y="194" text-anchor="end" font-size="10" fill="#9E9E9E" transform="rotate(-30,652.8,194)">Shapes</text>
<line x1="0" y1="180" x2="710" y2="180" stroke="#333"/>
<line x1="0" y1="0" x2="0" y2="180" stroke="#333"/>
</g>
<rect x="70" y="300" width="10" height="10" fill="#2E7D32"/>
<text x="84" y="308" font-size="9" fill="#333">Partner Identity</text>
<rect x="210" y="300" width="10" height="10" fill="#616161"/>
<text x="224" y="308" font-size="9" fill="#333">Control</text>
</svg>