<svg viewBox="0 0 800 320" xmlns="http://www.w3.org/2000/svg" style="width:100%;max-width:800px;height:auto;font-family:Arial,sans-serif;">
<rect width="800" height="320" fill="white"/>

<g transform="translate(70,30)">
<line x1="0" y1="180.0" x2="710" y2="180.0" stroke="#eee" stroke-width="1"/>
<text x="-8" y="184.0" text-anchor="end" font-size="10" fill="#666">0.00</text>
<line x1="0" y1="144.0" x2="710" y2="144.0" stroke="#eee" stroke-width="1"/>
<text x="-8" y="148.0" text-anchor="end" font-size="10" fill="#666">2.24</text>
<line x1="0" y1="108.0" x2="710" y2="108.0" stroke="#eee" stroke-width="1"/>
<text x="-8" y="112.0" text-anchor="end" font-size="10" fill="#666">4.47</text>
<line x1="0" y1="72.0" x2="710" y2="72.0" stroke="#eee" stroke-width="1"/>
<text x="-8" y="76.0" text-anchor="end" font-size="10" fill="#666">6.71</text>
<line x1="0" y1="36.0" x2="710" y2="36.0" stroke="#eee" stroke-width="1"/>
<text x="-8" y="40.0" text-anchor="end" font-size="10" fill="#666">8.94</text>
<line x1="0" y1="0.0" x2="710" y2="0.0" stroke="#eee" stroke-width="1"/>
<text x="-8" y="4.0" text-anchor="end" font-size="10" fill="#666">11.18</text>
<text x="-50" y="90.0" text-anchor="middle" font-size="11" fill="#333" transform="rotate(-90,-50,90.0)">Mean R² (×10⁻³)</text>
<rect x="9.68" y="175.56" width="22.59" height="4.44" fill="#81C784" opacity="0.85"><title>Partner Identity — Phenomenology: 0.276 ×10⁻³</title></rect>
<line x1="20.98" y1="176.49" x2="20.98" y2="174.26" stroke="#333" stroke-width="1"/>
<line x1="18.98" y1="176.49" x2="22.98" y2="176.49" stroke="#333" stroke-width="1"/>
<line x1="18.98" y1="174.26" x2="22.98" y2="174.26" stroke="#333" stroke-width="1"/>
<rect x="34.27" y="169.81" width="22.59" height="10.19" fill="#BDBDBD" opacity="0.85"><title>Control — Phenomenology: 0.633 ×10⁻³</title></rect>
<line x1="45.57" y1="173.11" x2="45.57" y2="166.71" stroke="#333" stroke-width="1"/>
<line x1="43.57" y1="173.11" x2="47.57" y2="173.11" stroke="#333" stroke-width="1"/>
<line x1="43.57" y1="166.71" x2="47.57" y2="166.71" stroke="#333" stroke-width="1"/>
<text x="34.3" y="194" text-anchor="end" font-size="10" fill="#2196F3" transform="rotate(-30,34.3,194)">Phenomenology</text>
<rect x="74.23" y="175.86" width="22.59" height="4.14" fill="#81C784" opacity="0.85"><title>Partner Identity — Emotions: 0.257 ×10⁻³</title></rect>
<line x1="85.52" y1="176.96" x2="85.52" y2="174.09" stroke="#333" stroke-width="1"/>
<line x1="83.52" y1="176.96" x2="87.52" y2="176.96" stroke="#333" stroke-width="1"/>
<line x1="83.52" y1="174.09" x2="87.52" y2="174.09" stroke="#333" stroke-width="1"/>
<rect x="98.82" y="171.50" width="22.59" height="8.50" fill="#BDBDBD" opacity="0.85"><title>Control — Emotions: 0.528 ×10⁻³</title></rect>
<line x1="110.11" y1="173.55" x2="110.11" y2="169.69" stroke="#333" stroke-width="1"/>
<line x1="108.11" y1="173.55" x2="112.11" y2="173.55" stroke="#333" stroke-width="1"/>
<line x1="108.11" y1="169.69" x2="112.11" y2="169.69" stroke="#333" stroke-width="1"/>
<text x="98.8" y="194" text-anchor="end" font-size="10" fill="#2196F3" transform="rotate(-30,98.8,194)">Emotions</text>
<rect x="138.77" y="174.45" width="22.59" height="5.55" fill="#81C784" opacity="0.85"><title>Partner Identity — Agency: 0.344 ×10⁻³</title></rect>
<line x1="150.07" y1="175.97" x2="150.07" y2="171.75" stroke="#333" stroke-width="1"/>
<line x1="148.07" y1="175.97" x2="152.07" y2="175.97" stroke="#333" stroke-width="1"/>
<line x1="148.07" y1="171.75" x2="152.07" y2="171.75" stroke="#333" stroke-width="1"/>
<rect x="163.36" y="170.23" width="22.59" height="9.77" fill="#BDBDBD" opacity="0.85"><title>Control — Agency: 0.607 ×10⁻³</title></rect>
<line x1="174.66" y1="172.76" x2="174.66" y2="168.14" stroke="#333" stroke-width="1"/>
<line x1="172.66" y1="172.76" x2="176.66" y2="172.76" stroke="#333" stroke-width="1"/>
<line x1="172.66" y1="168.14" x2="176.66" y2="168.14" stroke="#333" stroke-width="1"/>
<text x="163.4" y="194" text-anchor="end" font-size="10" fill="#2196F3" transform="rotate(-30,163.4,194)">Agency</text>
<rect x="203.32" y="172.71" width="22.59" height="7.29" fill="#81C784" opacity="0.85"><title>Partner Identity — Intentions: 0.453 ×10⁻³</title></rect>
<line x1="214.61" y1="175.52" x2="214.61" y2="170.14" stroke="#333" stroke-width="1"/>
<line x1="212.61" y1="175.52" x2="216.61" y2="175.52" stroke="#333" stroke-width="1"/>
<line x1="212.61" y1="170.14" x2="216.61" y2="170.14" stroke="#333" stroke-width="1"/>
<rect x="227.91" y="167.29" width="22.59" height="12.71" fill="#BDBDBD" opacity="0.85"><title>Control — Intentions: 0.789 ×10⁻³</title></rect>
<line x1="239.20" y1="170.30" x2="239.20" y2="165.33" stroke="#333" stroke-width="1"/>
<line x1="237.20" y1="170.30" x2="241.20" y2="170.30" stroke="#333" stroke-width="1"/>
<line x1="237.20" y1="165.33" x2="241.20" y2="165.33" stroke="#333" stroke-width="1"/>
<text x="227.9" y="194" text-anchor="end" font-size="10" fill="#2196F3" transform="rotate(-30,227.9,194)">Intentions</text>
<rect x="267.86" y="174.12" width="22.59" height="5.88" fill="#81C784" opacity="0.85"><title>Partner Identity — Prediction: 0.365 ×10⁻³</title></rect>
<line x1="279.16" y1="176.23" x2="279.16" y2="170.06" stroke="#333" stroke-width="1"/>
<line x1="277.16" y1="176.23" x2="281.16" y2="176.23" stroke="#333" stroke-width="1"/>
<line x1="277.16" y1="170.06" x2="281.16" y2="170.06" stroke="#333" stroke-width="1"/>
<rect x="292.45" y="169.80" width="22.59" height="10.20" fill="#BDBDBD" opacity="0.85"><title>Control — Prediction: 0.633 ×10⁻³</title></rect>
<line x1="303.75" y1="172.64" x2="303.75" y2="166.83" stroke="#333" stroke-width="1"/>
<line x1="301.75" y1="172.64" x2="305.75" y2="172.64" stroke="#333" stroke-width="1"/>
<line x1="301.75" y1="166.83" x2="305.75" y2="166.83" stroke="#333" stroke-width="1"/>
<text x="292.5" y="194" text-anchor="end" font-size="10" fill="#2196F3" transform="rotate(-30,292.5,194)">Prediction</text>
<rect x="332.41" y="171.47" width="22.59" height="8.53" fill="#81C784" opacity="0.85"><title>Partner Identity — Cognitive: 0.529 ×10⁻³</title></rect>
<line x1="343.70" y1="173.85" x2="343.70" y2="169.35" stroke="#333" stroke-width="1"/>
<line x1="341.70" y1="173.85" x2="345.70" y2="173.85" stroke="#333" stroke-width="1"/>
<line x1="341.70" y1="169.35" x2="345.70" y2="169.35" stroke="#333" stroke-width="1"/>
<rect x="357.00" y="169.83" width="22.59" height="10.17" fill="#BDBDBD" opacity="0.85"><title>Control — Cognitive: 0.632 ×10⁻³</title></rect>
<line x1="368.30" y1="172.49" x2="368.30" y2="167.30" stroke="#333" stroke-width="1"/>
<line x1="366.30" y1="172.49" x2="370.30" y2="172.49" stroke="#333" stroke-width="1"/>
<line x1="366.30" y1="167.30" x2="370.30" y2="167.30" stroke="#333" stroke-width="1"/>
<text x="357.0" y="194" text-anchor="end" font-size="10" fill="#2196F3" transform="rotate(-30,357.0,194)">Cognitive</text>
<rect x="396.95" y="172.25" width="22.59" height="7.75" fill="#81C784" opacity="0.85"><title>Partner Identity — Social: 0.481 ×10⁻³</title></rect>
<line x1="408.25" y1="174.90" x2="408.25" y2="168.00" stroke="#333" stroke-width="1"/>
<line x1="406.25" y1="174.90" x2="410.25" y2="174.90" stroke="#333" stroke-width="1"/>
<line x1="406.25" y1="168.00" x2="410.25" y2="168.00" stroke="#333" stroke-width="1"/>
<rect x="421.55" y="169.45" width="22.59" height="10.55" fill="#BDBDBD" opacity="0.85"><title>Control — Social: 0.655 ×10⁻³</title></rect>
<line x1="432.84" y1="172.20" x2="432.84" y2="167.28" stroke="#333" stroke-width="1"/>
<line x1="430.84" y1="172.20" x2="434.84" y2="172.20" stroke="#333" stroke-width="1"/>
<line x1="430.84" y1="167.28" x2="434.84" y2="167.28" stroke="#333" stroke-width="1"/>
<text x="421.5" y="194" text-anchor="end" font-size="10" fill="#2196F3" transform="rotate(-30,421.5,194)">Social</text>
<rect x="461.50" y="170.50" width="22.59" height="9.50" fill="#81C784" opacity="0.85"><title>Partner Identity — Attention: 0.590 ×10⁻³</title></rect>
<line x1="472.80" y1="173.42" x2="472.80" y2="168.25" stroke="#333" stroke-width="1"/>
<line x1="470.80" y1="173.42" x2="474.80" y2="173.42" stroke="#333" stroke-width="1"/>
<line x1="470.80" y1="168.25" x2="474.80" y2="168.25" stroke="#333" stroke-width="1"/>
<rect x="486.09" y="168.62" width="22.59" height="11.38" fill="#BDBDBD" opacity="0.85"><title>Control — Attention: 0.707 ×10⁻³</title></rect>
<line x1="497.39" y1="171.10" x2="497.39" y2="166.82" stroke="#333" stroke-width="1"/>
<line x1="495.39" y1="171.10" x2="499.39" y2="171.10" stroke="#333" stroke-width="1"/>
<line x1="495.39" y1="166.82" x2="499.39" y2="166.82" stroke="#333" stroke-width="1"/>
<text x="486.1" y="194" text-anchor="end" font-size="10" fill="#2196F3" transform="rotate(-30,486.1,194)">Attention</text>
<line x1="516.3636363636364" y1="0" x2="516.3636363636364" y2="180" stroke="#ccc" stroke-width="1" stroke-dasharray="4,3"/>
<rect x="526.05" y="171.69" width="22.59" height="8.31" fill="#81C784" opacity="0.5"><title>Partner Identity — Human vs AI (general): 0.516 ×10⁻³</title></rect>
<line x1="537.34" y1="173.47" x2="537.34" y2="170.17" stroke="#333" stroke-width="1"/>
<line x1="535.34" y1="173.47" x2="539.34" y2="173.47" stroke="#333" stroke-width="1"/>
<line x1="535.34" y1="170.17" x2="539.34" y2="170.17" stroke="#333" stroke-width="1"/>
<rect x="550.64" y="172.29" width="22.59" height="7.71" fill="#BDBDBD" opacity="0.5"><title>Control — Human vs AI (general): 0.479 ×10⁻³</title></rect>
<line x1="561.93" y1="174.81" x2="561.93" y2="170.37" stroke="#333" stroke-width="1"/>
<line x1="559.93" y1="174.81" x2="563.93" y2="174.81" stroke="#333" stroke-width="1"/>
<line x1="559.93" y1="170.37" x2="563.93" y2="170.37" stroke="#333" stroke-width="1"/>
<text x="550.6" y="194" text-anchor="end" font-size="10" fill="#9E9E9E" transform="rotate(-30,550.6,194)">Human vs AI (general)</text>
<rect x="590.59" y="176.64" width="22.59" height="3.36" fill="#81C784" opacity="0.5"><title>Partner Identity — Biological: 0.209 ×10⁻³</title></rect>
<line x1="601.89" y1="177.12" x2="601.89" y2="176.01" stroke="#333" stroke-width="1"/>
<line x1="599.89" y1="177.12" x2="603.89" y2="177.12" stroke="#333" stroke-width="1"/>
<line x1="599.89" y1="176.01" x2="603.89" y2="176.01" stroke="#333" stroke-width="1"/>
<rect x="615.18" y="173.47" width="22.59" height="6.53" fill="#BDBDBD" opacity="0.5"><title>Control — Biological: 0.405 ×10⁻³</title></rect>
<line x1="626.48" y1="174.67" x2="626.48" y2="172.22" stroke="#333" stroke-width="1"/>
<line x1="624.48" y1="174.67" x2="628.48" y2="174.67" stroke="#333" stroke-width="1"/>
<line x1="624.48" y1="172.22" x2="628.48" y2="172.22" stroke="#333" stroke-width="1"/>
<text x="615.2" y="194" text-anchor="end" font-size="10" fill="#9E9E9E" transform="rotate(-30,615.2,194)">Biological</text>
<rect x="655.14" y="169.48" width="22.59" height="10.52" fill="#81C784" opacity="0.5"><title>Partner Identity — Shapes: 0.653 ×10⁻³</title></rect>
<line x1="666.43" y1="173.89" x2="666.43" y2="166.99" stroke="#333" stroke-width="1"/>
<line x1="664.43" y1="173.89" x2="668.43" y2="173.89" stroke="#333" stroke-width="1"/>
<line x1="664.43" y1="166.99" x2="668.43" y2="166.99" stroke="#333" stroke-width="1"/>
<rect x="679.73" y="174.40" width="22.59" height="5.60" fill="#BDBDBD" opacity="0.5"><title>Control — Shapes: 0.348 ×10⁻³</title></rect>
<line x1="691.02" y1="176.55" x2="691.02" y2="172.83" stroke="#333" stroke-width="1"/>
<line x1="689.02" y1="176.55" x2="693.02" y2="176.55" stroke="#333" stroke-width="1"/>
<line x1="689.02" y1="172.83" x2="693.02" y2="172.83" stroke="#333" stroke-width="1"/>
<text x="679.7" y="194" text-anchor="end" font-size="10" fill="#9E9E9E" transform="rotate(-30,679.7,194)">Shapes</text>
<line x1="0" y1="180" x2="710" y2="180" stroke="#333"/>
<line x1="0" y1="0" x2="0" y2="180" stroke="#333"/>
</g>
<rect x="70" y="300" width="10" height="10" fill="#81C784"/>
<text x="84" y="308" font-size="9" fill="#333">Partner Identity</text>
<rect x="210" y="300" width="10" height="10" fill="#BDBDBD"/>
<text x="224" y="308" font-size="9" fill="#333">Control</text>
</svg>