<svg viewBox="0 0 700 360" xmlns="http://www.w3.org/2000/svg" style="width:100%;max-width:700px;height:auto;font-family:Arial,sans-serif;">
<rect width="700" height="360" fill="white"/>

<g transform="translate(70,30)">
<line x1="0" y1="210.0" x2="610" y2="210.0" stroke="#eee" stroke-width="1"/>
<text x="-8" y="214.0" text-anchor="end" font-size="10" fill="#666">0.00</text>
<line x1="0" y1="168.0" x2="610" y2="168.0" stroke="#eee" stroke-width="1"/>
<text x="-8" y="172.0" text-anchor="end" font-size="10" fill="#666">0.94</text>
<line x1="0" y1="126.0" x2="610" y2="126.0" stroke="#eee" stroke-width="1"/>
<text x="-8" y="130.0" text-anchor="end" font-size="10" fill="#666">1.88</text>
<line x1="0" y1="84.0" x2="610" y2="84.0" stroke="#eee" stroke-width="1"/>
<text x="-8" y="88.0" text-anchor="end" font-size="10" fill="#666">2.82</text>
<line x1="0" y1="42.0" x2="610" y2="42.0" stroke="#eee" stroke-width="1"/>
<text x="-8" y="46.0" text-anchor="end" font-size="10" fill="#666">3.76</text>
<line x1="0" y1="0.0" x2="610" y2="0.0" stroke="#eee" stroke-width="1"/>
<text x="-8" y="4.0" text-anchor="end" font-size="10" fill="#666">4.70</text>
<text x="-50" y="105.0" text-anchor="middle" font-size="11" fill="#333" transform="rotate(-90,-50,105.0)">Mean R² (×10⁻³)</text>
<line x1="305.0" y1="0" x2="305.0" y2="210" stroke="#ccc" stroke-width="1" stroke-dasharray="4,3"/>
<rect x="22.88" y="163.64" width="53.38" height="46.36" fill="#2E7D32" opacity="0.85"><title>Partner Identity — Biological: 1.039 ×10⁻³</title></rect>
<line x1="49.56" y1="170.91" x2="49.56" y2="156.42" stroke="#333" stroke-width="1"/>
<line x1="47.56" y1="170.91" x2="51.56" y2="170.91" stroke="#333" stroke-width="1"/>
<line x1="47.56" y1="156.42" x2="51.56" y2="156.42" stroke="#333" stroke-width="1"/>
<rect x="78.25" y="200.13" width="53.38" height="9.87" fill="#616161" opacity="0.85"><title>Control — Biological: 0.221 ×10⁻³</title></rect>
<line x1="104.94" y1="201.20" x2="104.94" y2="199.15" stroke="#333" stroke-width="1"/>
<line x1="102.94" y1="201.20" x2="106.94" y2="201.20" stroke="#333" stroke-width="1"/>
<line x1="102.94" y1="199.15" x2="106.94" y2="199.15" stroke="#333" stroke-width="1"/>
<text x="78.2" y="224" text-anchor="end" font-size="10" fill="#9E9E9E" transform="rotate(-30,78.2,224)">Biological</text>
<rect x="175.38" y="199.06" width="53.38" height="10.94" fill="#2E7D32" opacity="0.85"><title>Partner Identity — Shapes: 0.245 ×10⁻³</title></rect>
<line x1="202.06" y1="203.82" x2="202.06" y2="191.83" stroke="#333" stroke-width="1"/>
<line x1="200.06" y1="203.82" x2="204.06" y2="203.82" stroke="#333" stroke-width="1"/>
<line x1="200.06" y1="191.83" x2="204.06" y2="191.83" stroke="#333" stroke-width="1"/>
<rect x="230.75" y="201.50" width="53.38" height="8.50" fill="#616161" opacity="0.85"><title>Control — Shapes: 0.190 ×10⁻³</title></rect>
<line x1="257.44" y1="204.32" x2="257.44" y2="199.00" stroke="#333" stroke-width="1"/>
<line x1="255.44" y1="204.32" x2="259.44" y2="204.32" stroke="#333" stroke-width="1"/>
<line x1="255.44" y1="199.00" x2="259.44" y2="199.00" stroke="#333" stroke-width="1"/>
<text x="230.8" y="224" text-anchor="end" font-size="10" fill="#9E9E9E" transform="rotate(-30,230.8,224)">Shapes</text>
<rect x="327.88" y="95.37" width="53.38" height="114.63" fill="#2E7D32" opacity="0.85"><title>Partner Identity — Mental: 2.568 ×10⁻³</title></rect>
<line x1="354.56" y1="117.33" x2="354.56" y2="80.05" stroke="#333" stroke-width="1"/>
<line x1="352.56" y1="117.33" x2="356.56" y2="117.33" stroke="#333" stroke-width="1"/>
<line x1="352.56" y1="80.05" x2="356.56" y2="80.05" stroke="#333" stroke-width="1"/>
<rect x="383.25" y="196.86" width="53.38" height="13.14" fill="#616161" opacity="0.85"><title>Control — Mental: 0.294 ×10⁻³</title></rect>
<line x1="409.94" y1="199.12" x2="409.94" y2="195.14" stroke="#333" stroke-width="1"/>
<line x1="407.94" y1="199.12" x2="411.94" y2="199.12" stroke="#333" stroke-width="1"/>
<line x1="407.94" y1="195.14" x2="411.94" y2="195.14" stroke="#333" stroke-width="1"/>
<text x="383.2" y="224" text-anchor="end" font-size="10" fill="#2196F3" transform="rotate(-30,383.2,224)">Mental</text>
<rect x="480.38" y="184.22" width="53.38" height="25.78" fill="#2E7D32" opacity="0.85"><title>Partner Identity — Pragmatic: 0.578 ×10⁻³</title></rect>
<line x1="507.06" y1="190.90" x2="507.06" y2="175.56" stroke="#333" stroke-width="1"/>
<line x1="505.06" y1="190.90" x2="509.06" y2="190.90" stroke="#333" stroke-width="1"/>
<line x1="505.06" y1="175.56" x2="509.06" y2="175.56" stroke="#333" stroke-width="1"/>
<rect x="535.75" y="200.28" width="53.38" height="9.72" fill="#616161" opacity="0.85"><title>Control — Pragmatic: 0.218 ×10⁻³</title></rect>
<line x1="562.44" y1="202.47" x2="562.44" y2="197.82" stroke="#333" stroke-width="1"/>
<line x1="560.44" y1="202.47" x2="564.44" y2="202.47" stroke="#333" stroke-width="1"/>
<line x1="560.44" y1="197.82" x2="564.44" y2="197.82" stroke="#333" stroke-width="1"/>
<text x="535.8" y="224" text-anchor="end" font-size="10" fill="#FF9800" transform="rotate(-30,535.8,224)">Pragmatic</text>
<line x1="0" y1="210" x2="610" y2="210" stroke="#333"/>
<line x1="0" y1="0" x2="0" y2="210" stroke="#333"/>
</g>
<text x="222" y="322" text-anchor="middle" font-size="10" fill="#666" font-style="italic">Control Dimensions</text>
<text x="528" y="322" text-anchor="middle" font-size="10" fill="#666" font-style="italic">Category Averages</text>
<rect x="70" y="340" width="10" height="10" fill="#2E7D32"/>
<text x="84" y="348" font-size="9" fill="#333">Partner Identity</text>
<rect x="210" y="340" width="10" height="10" fill="#616161"/>
<text x="224" y="348" font-size="9" fill="#333">Control</text>
</svg>