<svg viewBox="0 0 1100 360" xmlns="http://www.w3.org/2000/svg" style="width:100%;max-width:1100px;height:auto;font-family:Arial,sans-serif;">
<rect width="1100" height="360" fill="white"/>
<g transform="translate(70,30)">
<line x1="0" y1="200.0" x2="1010" y2="200.0" stroke="#eee" stroke-width="1"/>
<text x="-8" y="204.0" text-anchor="end" font-size="10" fill="#666">0.00</text>
<line x1="0" y1="160.0" x2="1010" y2="160.0" stroke="#eee" stroke-width="1"/>
<text x="-8" y="164.0" text-anchor="end" font-size="10" fill="#666">0.64</text>
<line x1="0" y1="120.0" x2="1010" y2="120.0" stroke="#eee" stroke-width="1"/>
<text x="-8" y="124.0" text-anchor="end" font-size="10" fill="#666">1.28</text>
<line x1="0" y1="80.0" x2="1010" y2="80.0" stroke="#eee" stroke-width="1"/>
<text x="-8" y="84.0" text-anchor="end" font-size="10" fill="#666">1.92</text>
<line x1="0" y1="40.0" x2="1010" y2="40.0" stroke="#eee" stroke-width="1"/>
<text x="-8" y="44.0" text-anchor="end" font-size="10" fill="#666">2.56</text>
<line x1="0" y1="0.0" x2="1010" y2="0.0" stroke="#eee" stroke-width="1"/>
<text x="-8" y="4.0" text-anchor="end" font-size="10" fill="#666">3.20</text>
<text x="-50" y="100.0" text-anchor="middle" font-size="11" fill="#333" transform="rotate(-90,-50,100.0)">Mean R² (×10⁻³)</text>
<rect x="4.59" y="89.93" width="18.36" height="110.07" fill="#81C784" opacity="0.85"><title>Partner Identity: 0.001762</title></rect>
<line x1="13.77" y1="92.22" x2="13.77" y2="87.75" stroke="#333" stroke-width="1"/>
<line x1="11.77" y1="92.22" x2="15.77" y2="92.22" stroke="#333" stroke-width="1"/>
<line x1="11.77" y1="87.75" x2="15.77" y2="87.75" stroke="#333" stroke-width="1"/>
<rect x="22.95" y="185.80" width="18.36" height="14.20" fill="#BDBDBD" opacity="0.85"><title>Control: 0.000227</title></rect>
<line x1="32.14" y1="185.98" x2="32.14" y2="185.64" stroke="#333" stroke-width="1"/>
<line x1="30.14" y1="185.98" x2="34.14" y2="185.98" stroke="#333" stroke-width="1"/>
<line x1="30.14" y1="185.64" x2="34.14" y2="185.64" stroke="#333" stroke-width="1"/>
<text x="22.95" y="214" text-anchor="end" font-size="9" fill="#2196F3" transform="rotate(-45,22.95,214)">Phenomenology</text>
<rect x="50.50" y="92.17" width="18.36" height="107.83" fill="#81C784" opacity="0.85"><title>Partner Identity: 0.001726</title></rect>
<line x1="59.68" y1="95.48" x2="59.68" y2="88.76" stroke="#333" stroke-width="1"/>
<line x1="57.68" y1="95.48" x2="61.68" y2="95.48" stroke="#333" stroke-width="1"/>
<line x1="57.68" y1="88.76" x2="61.68" y2="88.76" stroke="#333" stroke-width="1"/>
<rect x="68.86" y="185.51" width="18.36" height="14.49" fill="#BDBDBD" opacity="0.85"><title>Control: 0.000232</title></rect>
<line x1="78.05" y1="185.72" x2="78.05" y2="185.31" stroke="#333" stroke-width="1"/>
<line x1="76.05" y1="185.72" x2="80.05" y2="185.72" stroke="#333" stroke-width="1"/>
<line x1="76.05" y1="185.31" x2="80.05" y2="185.31" stroke="#333" stroke-width="1"/>
<text x="68.86" y="214" text-anchor="end" font-size="9" fill="#2196F3" transform="rotate(-45,68.86,214)">Emotions</text>
<rect x="96.41" y="94.44" width="18.36" height="105.56" fill="#81C784" opacity="0.85"><title>Partner Identity: 0.001689</title></rect>
<line x1="105.59" y1="97.29" x2="105.59" y2="92.09" stroke="#333" stroke-width="1"/>
<line x1="103.59" y1="97.29" x2="107.59" y2="97.29" stroke="#333" stroke-width="1"/>
<line x1="103.59" y1="92.09" x2="107.59" y2="92.09" stroke="#333" stroke-width="1"/>
<rect x="114.77" y="186.76" width="18.36" height="13.24" fill="#BDBDBD" opacity="0.85"><title>Control: 0.000212</title></rect>
<line x1="123.95" y1="187.09" x2="123.95" y2="186.45" stroke="#333" stroke-width="1"/>
<line x1="121.95" y1="187.09" x2="125.95" y2="187.09" stroke="#333" stroke-width="1"/>
<line x1="121.95" y1="186.45" x2="125.95" y2="186.45" stroke="#333" stroke-width="1"/>
<text x="114.77" y="214" text-anchor="end" font-size="9" fill="#2196F3" transform="rotate(-45,114.77,214)">Agency</text>
<rect x="142.32" y="97.69" width="18.36" height="102.31" fill="#81C784" opacity="0.85"><title>Partner Identity: 0.001637</title></rect>
<line x1="151.50" y1="99.97" x2="151.50" y2="95.79" stroke="#333" stroke-width="1"/>
<line x1="149.50" y1="99.97" x2="153.50" y2="99.97" stroke="#333" stroke-width="1"/>
<line x1="149.50" y1="95.79" x2="153.50" y2="95.79" stroke="#333" stroke-width="1"/>
<rect x="160.68" y="186.51" width="18.36" height="13.49" fill="#BDBDBD" opacity="0.85"><title>Control: 0.000216</title></rect>
<line x1="169.86" y1="186.75" x2="169.86" y2="186.27" stroke="#333" stroke-width="1"/>
<line x1="167.86" y1="186.75" x2="171.86" y2="186.75" stroke="#333" stroke-width="1"/>
<line x1="167.86" y1="186.27" x2="171.86" y2="186.27" stroke="#333" stroke-width="1"/>
<text x="160.68" y="214" text-anchor="end" font-size="9" fill="#2196F3" transform="rotate(-45,160.68,214)">Intentions</text>
<rect x="188.23" y="95.99" width="18.36" height="104.01" fill="#81C784" opacity="0.85"><title>Partner Identity: 0.001665</title></rect>
<line x1="197.41" y1="99.41" x2="197.41" y2="92.77" stroke="#333" stroke-width="1"/>
<line x1="195.41" y1="99.41" x2="199.41" y2="99.41" stroke="#333" stroke-width="1"/>
<line x1="195.41" y1="92.77" x2="199.41" y2="92.77" stroke="#333" stroke-width="1"/>
<rect x="206.59" y="186.57" width="18.36" height="13.43" fill="#BDBDBD" opacity="0.85"><title>Control: 0.000215</title></rect>
<line x1="215.77" y1="186.75" x2="215.77" y2="186.36" stroke="#333" stroke-width="1"/>
<line x1="213.77" y1="186.75" x2="217.77" y2="186.75" stroke="#333" stroke-width="1"/>
<line x1="213.77" y1="186.36" x2="217.77" y2="186.36" stroke="#333" stroke-width="1"/>
<text x="206.59" y="214" text-anchor="end" font-size="9" fill="#2196F3" transform="rotate(-45,206.59,214)">Prediction</text>
<rect x="234.14" y="102.41" width="18.36" height="97.59" fill="#81C784" opacity="0.85"><title>Partner Identity: 0.001562</title></rect>
<line x1="243.32" y1="106.12" x2="243.32" y2="98.77" stroke="#333" stroke-width="1"/>
<line x1="241.32" y1="106.12" x2="245.32" y2="106.12" stroke="#333" stroke-width="1"/>
<line x1="241.32" y1="98.77" x2="245.32" y2="98.77" stroke="#333" stroke-width="1"/>
<rect x="252.50" y="187.21" width="18.36" height="12.79" fill="#BDBDBD" opacity="0.85"><title>Control: 0.000205</title></rect>
<line x1="261.68" y1="187.45" x2="261.68" y2="186.93" stroke="#333" stroke-width="1"/>
<line x1="259.68" y1="187.45" x2="263.68" y2="187.45" stroke="#333" stroke-width="1"/>
<line x1="259.68" y1="186.93" x2="263.68" y2="186.93" stroke="#333" stroke-width="1"/>
<text x="252.50" y="214" text-anchor="end" font-size="9" fill="#2196F3" transform="rotate(-45,252.50,214)">Cognitive</text>
<rect x="280.05" y="109.05" width="18.36" height="90.95" fill="#81C784" opacity="0.85"><title>Partner Identity: 0.001456</title></rect>
<line x1="289.23" y1="112.48" x2="289.23" y2="105.97" stroke="#333" stroke-width="1"/>
<line x1="287.23" y1="112.48" x2="291.23" y2="112.48" stroke="#333" stroke-width="1"/>
<line x1="287.23" y1="105.97" x2="291.23" y2="105.97" stroke="#333" stroke-width="1"/>
<rect x="298.41" y="187.17" width="18.36" height="12.83" fill="#BDBDBD" opacity="0.85"><title>Control: 0.000205</title></rect>
<line x1="307.59" y1="187.37" x2="307.59" y2="186.94" stroke="#333" stroke-width="1"/>
<line x1="305.59" y1="187.37" x2="309.59" y2="187.37" stroke="#333" stroke-width="1"/>
<line x1="305.59" y1="186.94" x2="309.59" y2="186.94" stroke="#333" stroke-width="1"/>
<text x="298.41" y="214" text-anchor="end" font-size="9" fill="#2196F3" transform="rotate(-45,298.41,214)">Social</text>
<rect x="325.95" y="93.36" width="18.36" height="106.64" fill="#81C784" opacity="0.85"><title>Partner Identity: 0.001707</title></rect>
<line x1="335.14" y1="96.40" x2="335.14" y2="90.49" stroke="#333" stroke-width="1"/>
<line x1="333.14" y1="96.40" x2="337.14" y2="96.40" stroke="#333" stroke-width="1"/>
<line x1="333.14" y1="90.49" x2="337.14" y2="90.49" stroke="#333" stroke-width="1"/>
<rect x="344.32" y="186.37" width="18.36" height="13.63" fill="#BDBDBD" opacity="0.85"><title>Control: 0.000218</title></rect>
<line x1="353.50" y1="186.53" x2="353.50" y2="186.21" stroke="#333" stroke-width="1"/>
<line x1="351.50" y1="186.53" x2="355.50" y2="186.53" stroke="#333" stroke-width="1"/>
<line x1="351.50" y1="186.21" x2="355.50" y2="186.21" stroke="#333" stroke-width="1"/>
<text x="344.32" y="214" text-anchor="end" font-size="9" fill="#2196F3" transform="rotate(-45,344.32,214)">Attention</text>
<rect x="371.86" y="87.18" width="18.36" height="112.82" fill="#81C784" opacity="0.85"><title>Partner Identity: 0.001806</title></rect>
<line x1="381.05" y1="91.68" x2="381.05" y2="82.50" stroke="#333" stroke-width="1"/>
<line x1="379.05" y1="91.68" x2="383.05" y2="91.68" stroke="#333" stroke-width="1"/>
<line x1="379.05" y1="82.50" x2="383.05" y2="82.50" stroke="#333" stroke-width="1"/>
<rect x="390.23" y="186.44" width="18.36" height="13.56" fill="#BDBDBD" opacity="0.85"><title>Control: 0.000217</title></rect>
<line x1="399.41" y1="186.66" x2="399.41" y2="186.24" stroke="#333" stroke-width="1"/>
<line x1="397.41" y1="186.66" x2="401.41" y2="186.66" stroke="#333" stroke-width="1"/>
<line x1="397.41" y1="186.24" x2="401.41" y2="186.24" stroke="#333" stroke-width="1"/>
<text x="390.23" y="214" text-anchor="end" font-size="9" fill="#4CAF50" transform="rotate(-45,390.23,214)">Embodiment</text>
<rect x="417.77" y="96.09" width="18.36" height="103.91" fill="#81C784" opacity="0.85"><title>Partner Identity: 0.001663</title></rect>
<line x1="426.95" y1="99.50" x2="426.95" y2="92.79" stroke="#333" stroke-width="1"/>
<line x1="424.95" y1="99.50" x2="428.95" y2="99.50" stroke="#333" stroke-width="1"/>
<line x1="424.95" y1="92.79" x2="428.95" y2="92.79" stroke="#333" stroke-width="1"/>
<rect x="436.14" y="187.16" width="18.36" height="12.84" fill="#BDBDBD" opacity="0.85"><title>Control: 0.000206</title></rect>
<line x1="445.32" y1="187.39" x2="445.32" y2="186.93" stroke="#333" stroke-width="1"/>
<line x1="443.32" y1="187.39" x2="447.32" y2="187.39" stroke="#333" stroke-width="1"/>
<line x1="443.32" y1="186.93" x2="447.32" y2="186.93" stroke="#333" stroke-width="1"/>
<text x="436.14" y="214" text-anchor="end" font-size="9" fill="#4CAF50" transform="rotate(-45,436.14,214)">Roles</text>
<rect x="463.68" y="88.66" width="18.36" height="111.34" fill="#81C784" opacity="0.85"><title>Partner Identity: 0.001782</title></rect>
<line x1="472.86" y1="91.08" x2="472.86" y2="86.14" stroke="#333" stroke-width="1"/>
<line x1="470.86" y1="91.08" x2="474.86" y2="91.08" stroke="#333" stroke-width="1"/>
<line x1="470.86" y1="86.14" x2="474.86" y2="86.14" stroke="#333" stroke-width="1"/>
<rect x="482.05" y="186.57" width="18.36" height="13.43" fill="#BDBDBD" opacity="0.85"><title>Control: 0.000215</title></rect>
<line x1="491.23" y1="186.78" x2="491.23" y2="186.37" stroke="#333" stroke-width="1"/>
<line x1="489.23" y1="186.78" x2="493.23" y2="186.78" stroke="#333" stroke-width="1"/>
<line x1="489.23" y1="186.37" x2="493.23" y2="186.37" stroke="#333" stroke-width="1"/>
<text x="482.05" y="214" text-anchor="end" font-size="9" fill="#4CAF50" transform="rotate(-45,482.05,214)">Animacy</text>
<rect x="509.59" y="100.72" width="18.36" height="99.28" fill="#81C784" opacity="0.85"><title>Partner Identity: 0.001589</title></rect>
<line x1="518.77" y1="104.48" x2="518.77" y2="97.45" stroke="#333" stroke-width="1"/>
<line x1="516.77" y1="104.48" x2="520.77" y2="104.48" stroke="#333" stroke-width="1"/>
<line x1="516.77" y1="97.45" x2="520.77" y2="97.45" stroke="#333" stroke-width="1"/>
<rect x="527.95" y="186.04" width="18.36" height="13.96" fill="#BDBDBD" opacity="0.85"><title>Control: 0.000223</title></rect>
<line x1="537.14" y1="186.30" x2="537.14" y2="185.80" stroke="#333" stroke-width="1"/>
<line x1="535.14" y1="186.30" x2="539.14" y2="186.30" stroke="#333" stroke-width="1"/>
<line x1="535.14" y1="185.80" x2="539.14" y2="185.80" stroke="#333" stroke-width="1"/>
<text x="527.95" y="214" text-anchor="end" font-size="9" fill="#FF9800" transform="rotate(-45,527.95,214)">Formality</text>
<rect x="555.50" y="103.57" width="18.36" height="96.43" fill="#81C784" opacity="0.85"><title>Partner Identity: 0.001543</title></rect>
<line x1="564.68" y1="106.89" x2="564.68" y2="100.36" stroke="#333" stroke-width="1"/>
<line x1="562.68" y1="106.89" x2="566.68" y2="106.89" stroke="#333" stroke-width="1"/>
<line x1="562.68" y1="100.36" x2="566.68" y2="100.36" stroke="#333" stroke-width="1"/>
<rect x="573.86" y="186.80" width="18.36" height="13.20" fill="#BDBDBD" opacity="0.85"><title>Control: 0.000211</title></rect>
<line x1="583.05" y1="187.10" x2="583.05" y2="186.50" stroke="#333" stroke-width="1"/>
<line x1="581.05" y1="187.10" x2="585.05" y2="187.10" stroke="#333" stroke-width="1"/>
<line x1="581.05" y1="186.50" x2="585.05" y2="186.50" stroke="#333" stroke-width="1"/>
<text x="573.86" y="214" text-anchor="end" font-size="9" fill="#FF9800" transform="rotate(-45,573.86,214)">Expertise</text>
<rect x="601.41" y="104.35" width="18.36" height="95.65" fill="#81C784" opacity="0.85"><title>Partner Identity: 0.001531</title></rect>
<line x1="610.59" y1="107.45" x2="610.59" y2="101.28" stroke="#333" stroke-width="1"/>
<line x1="608.59" y1="107.45" x2="612.59" y2="107.45" stroke="#333" stroke-width="1"/>
<line x1="608.59" y1="101.28" x2="612.59" y2="101.28" stroke="#333" stroke-width="1"/>
<rect x="619.77" y="186.46" width="18.36" height="13.54" fill="#BDBDBD" opacity="0.85"><title>Control: 0.000217</title></rect>
<line x1="628.95" y1="186.65" x2="628.95" y2="186.24" stroke="#333" stroke-width="1"/>
<line x1="626.95" y1="186.65" x2="630.95" y2="186.65" stroke="#333" stroke-width="1"/>
<line x1="626.95" y1="186.24" x2="630.95" y2="186.24" stroke="#333" stroke-width="1"/>
<text x="619.77" y="214" text-anchor="end" font-size="9" fill="#FF9800" transform="rotate(-45,619.77,214)">Helpfulness</text>
<rect x="647.32" y="82.54" width="18.36" height="117.46" fill="#81C784" opacity="0.85"><title>Partner Identity: 0.001880</title></rect>
<line x1="656.50" y1="87.73" x2="656.50" y2="77.97" stroke="#333" stroke-width="1"/>
<line x1="654.50" y1="87.73" x2="658.50" y2="87.73" stroke="#333" stroke-width="1"/>
<line x1="654.50" y1="77.97" x2="658.50" y2="77.97" stroke="#333" stroke-width="1"/>
<rect x="665.68" y="186.68" width="18.36" height="13.32" fill="#BDBDBD" opacity="0.85"><title>Control: 0.000213</title></rect>
<line x1="674.86" y1="186.87" x2="674.86" y2="186.48" stroke="#333" stroke-width="1"/>
<line x1="672.86" y1="186.87" x2="676.86" y2="186.87" stroke="#333" stroke-width="1"/>
<line x1="672.86" y1="186.48" x2="676.86" y2="186.48" stroke="#333" stroke-width="1"/>
<text x="665.68" y="214" text-anchor="end" font-size="9" fill="#7B1FA2" transform="rotate(-45,665.68,214)">Human (concept)</text>
<rect x="693.23" y="78.82" width="18.36" height="121.18" fill="#81C784" opacity="0.85"><title>Partner Identity: 0.001940</title></rect>
<line x1="702.41" y1="82.81" x2="702.41" y2="75.32" stroke="#333" stroke-width="1"/>
<line x1="700.41" y1="82.81" x2="704.41" y2="82.81" stroke="#333" stroke-width="1"/>
<line x1="700.41" y1="75.32" x2="704.41" y2="75.32" stroke="#333" stroke-width="1"/>
<rect x="711.59" y="186.66" width="18.36" height="13.34" fill="#BDBDBD" opacity="0.85"><title>Control: 0.000214</title></rect>
<line x1="720.77" y1="186.92" x2="720.77" y2="186.41" stroke="#333" stroke-width="1"/>
<line x1="718.77" y1="186.92" x2="722.77" y2="186.92" stroke="#333" stroke-width="1"/>
<line x1="718.77" y1="186.41" x2="722.77" y2="186.41" stroke="#333" stroke-width="1"/>
<text x="711.59" y="214" text-anchor="end" font-size="9" fill="#7B1FA2" transform="rotate(-45,711.59,214)">AI (concept)</text>
<rect x="739.14" y="93.63" width="18.36" height="106.37" fill="#81C784" opacity="0.85"><title>Partner Identity: 0.001702</title></rect>
<line x1="748.32" y1="97.04" x2="748.32" y2="89.73" stroke="#333" stroke-width="1"/>
<line x1="746.32" y1="97.04" x2="750.32" y2="97.04" stroke="#333" stroke-width="1"/>
<line x1="746.32" y1="89.73" x2="750.32" y2="89.73" stroke="#333" stroke-width="1"/>
<rect x="757.50" y="186.45" width="18.36" height="13.55" fill="#BDBDBD" opacity="0.85"><title>Control: 0.000217</title></rect>
<line x1="766.68" y1="186.66" x2="766.68" y2="186.25" stroke="#333" stroke-width="1"/>
<line x1="764.68" y1="186.66" x2="768.68" y2="186.66" stroke="#333" stroke-width="1"/>
<line x1="764.68" y1="186.25" x2="768.68" y2="186.25" stroke="#333" stroke-width="1"/>
<text x="757.50" y="214" text-anchor="end" font-size="9" fill="#9E9E9E" transform="rotate(-45,757.50,214)">Biological</text>
<rect x="785.05" y="97.01" width="18.36" height="102.99" fill="#81C784" opacity="0.85"><title>Partner Identity: 0.001648</title></rect>
<line x1="794.23" y1="98.45" x2="794.23" y2="95.70" stroke="#333" stroke-width="1"/>
<line x1="792.23" y1="98.45" x2="796.23" y2="98.45" stroke="#333" stroke-width="1"/>
<line x1="792.23" y1="95.70" x2="796.23" y2="95.70" stroke="#333" stroke-width="1"/>
<rect x="803.41" y="185.74" width="18.36" height="14.26" fill="#BDBDBD" opacity="0.85"><title>Control: 0.000228</title></rect>
<line x1="812.59" y1="185.96" x2="812.59" y2="185.55" stroke="#333" stroke-width="1"/>
<line x1="810.59" y1="185.96" x2="814.59" y2="185.96" stroke="#333" stroke-width="1"/>
<line x1="810.59" y1="185.55" x2="814.59" y2="185.55" stroke="#333" stroke-width="1"/>
<text x="803.41" y="214" text-anchor="end" font-size="9" fill="#9E9E9E" transform="rotate(-45,803.41,214)">Shapes</text>
<rect x="830.95" y="117.53" width="18.36" height="82.47" fill="#81C784" opacity="0.85"><title>Partner Identity: 0.001320</title></rect>
<line x1="840.14" y1="119.01" x2="840.14" y2="115.86" stroke="#333" stroke-width="1"/>
<line x1="838.14" y1="119.01" x2="842.14" y2="119.01" stroke="#333" stroke-width="1"/>
<line x1="838.14" y1="115.86" x2="842.14" y2="115.86" stroke="#333" stroke-width="1"/>
<rect x="849.32" y="185.85" width="18.36" height="14.15" fill="#BDBDBD" opacity="0.85"><title>Control: 0.000226</title></rect>
<line x1="858.50" y1="185.93" x2="858.50" y2="185.77" stroke="#333" stroke-width="1"/>
<line x1="856.50" y1="185.93" x2="860.50" y2="185.93" stroke="#333" stroke-width="1"/>
<line x1="856.50" y1="185.77" x2="860.50" y2="185.77" stroke="#333" stroke-width="1"/>
<text x="849.32" y="214" text-anchor="end" font-size="9" fill="#00BCD4" transform="rotate(-45,849.32,214)">SysPrompt (talkto human)</text>
<rect x="876.86" y="98.86" width="18.36" height="101.14" fill="#81C784" opacity="0.85"><title>Partner Identity: 0.001619</title></rect>
<line x1="886.05" y1="103.79" x2="886.05" y2="92.21" stroke="#333" stroke-width="1"/>
<line x1="884.05" y1="103.79" x2="888.05" y2="103.79" stroke="#333" stroke-width="1"/>
<line x1="884.05" y1="92.21" x2="888.05" y2="92.21" stroke="#333" stroke-width="1"/>
<rect x="895.23" y="186.35" width="18.36" height="13.65" fill="#BDBDBD" opacity="0.85"><title>Control: 0.000218</title></rect>
<line x1="904.41" y1="186.82" x2="904.41" y2="185.95" stroke="#333" stroke-width="1"/>
<line x1="902.41" y1="186.82" x2="906.41" y2="186.82" stroke="#333" stroke-width="1"/>
<line x1="902.41" y1="185.95" x2="906.41" y2="185.95" stroke="#333" stroke-width="1"/>
<text x="895.23" y="214" text-anchor="end" font-size="9" fill="#00BCD4" transform="rotate(-45,895.23,214)">SysPrompt (talkto AI)</text>
<rect x="922.77" y="109.19" width="18.36" height="90.81" fill="#81C784" opacity="0.85"><title>Partner Identity: 0.001453</title></rect>
<line x1="931.95" y1="110.98" x2="931.95" y2="106.95" stroke="#333" stroke-width="1"/>
<line x1="929.95" y1="110.98" x2="933.95" y2="110.98" stroke="#333" stroke-width="1"/>
<line x1="929.95" y1="106.95" x2="933.95" y2="106.95" stroke="#333" stroke-width="1"/>
<rect x="941.14" y="187.20" width="18.36" height="12.80" fill="#BDBDBD" opacity="0.85"><title>Control: 0.000205</title></rect>
<line x1="950.32" y1="187.39" x2="950.32" y2="187.05" stroke="#333" stroke-width="1"/>
<line x1="948.32" y1="187.39" x2="952.32" y2="187.39" stroke="#333" stroke-width="1"/>
<line x1="948.32" y1="187.05" x2="952.32" y2="187.05" stroke="#333" stroke-width="1"/>
<text x="941.14" y="214" text-anchor="end" font-size="9" fill="#00BCD4" transform="rotate(-45,941.14,214)">SysPrompt (bare human)</text>
<rect x="968.68" y="90.57" width="18.36" height="109.43" fill="#81C784" opacity="0.85"><title>Partner Identity: 0.001751</title></rect>
<line x1="977.86" y1="96.56" x2="977.86" y2="83.32" stroke="#333" stroke-width="1"/>
<line x1="975.86" y1="96.56" x2="979.86" y2="96.56" stroke="#333" stroke-width="1"/>
<line x1="975.86" y1="83.32" x2="979.86" y2="83.32" stroke="#333" stroke-width="1"/>
<rect x="987.05" y="187.66" width="18.36" height="12.34" fill="#BDBDBD" opacity="0.85"><title>Control: 0.000197</title></rect>
<line x1="996.23" y1="188.03" x2="996.23" y2="187.31" stroke="#333" stroke-width="1"/>
<line x1="994.23" y1="188.03" x2="998.23" y2="188.03" stroke="#333" stroke-width="1"/>
<line x1="994.23" y1="187.31" x2="998.23" y2="187.31" stroke="#333" stroke-width="1"/>
<text x="987.05" y="214" text-anchor="end" font-size="9" fill="#00BCD4" transform="rotate(-45,987.05,214)">SysPrompt (bare AI)</text>
<line x1="0" y1="200" x2="1010" y2="200" stroke="#333"/>
<line x1="0" y1="0" x2="0" y2="200" stroke="#333"/>
</g>
<rect x="70.0" y="324" width="10" height="10" fill="#81C784"/>
<text x="84.0" y="332" font-size="8" fill="#333">Partner Identity</text>
<rect x="272.0" y="324" width="10" height="10" fill="#BDBDBD"/>
<text x="286.0" y="332" font-size="8" fill="#333">Control</text>
</svg>