<svg viewBox="0 0 1100 360" xmlns="http://www.w3.org/2000/svg" style="width:100%;max-width:1100px;height:auto;font-family:Arial,sans-serif;">
<rect width="1100" height="360" fill="white"/>
<g transform="translate(70,30)">
<line x1="0" y1="200.0" x2="1010" y2="200.0" stroke="#eee" stroke-width="1"/>
<text x="-8" y="204.0" text-anchor="end" font-size="10" fill="#666">0.00</text>
<line x1="0" y1="160.0" x2="1010" y2="160.0" stroke="#eee" stroke-width="1"/>
<text x="-8" y="164.0" text-anchor="end" font-size="10" fill="#666">0.64</text>
<line x1="0" y1="120.0" x2="1010" y2="120.0" stroke="#eee" stroke-width="1"/>
<text x="-8" y="124.0" text-anchor="end" font-size="10" fill="#666">1.28</text>
<line x1="0" y1="80.0" x2="1010" y2="80.0" stroke="#eee" stroke-width="1"/>
<text x="-8" y="84.0" text-anchor="end" font-size="10" fill="#666">1.92</text>
<line x1="0" y1="40.0" x2="1010" y2="40.0" stroke="#eee" stroke-width="1"/>
<text x="-8" y="44.0" text-anchor="end" font-size="10" fill="#666">2.56</text>
<line x1="0" y1="0.0" x2="1010" y2="0.0" stroke="#eee" stroke-width="1"/>
<text x="-8" y="4.0" text-anchor="end" font-size="10" fill="#666">3.20</text>
<text x="-50" y="100.0" text-anchor="middle" font-size="11" fill="#333" transform="rotate(-90,-50,100.0)">Mean R² (×10⁻³)</text>
<rect x="4.59" y="64.99" width="18.36" height="135.01" fill="#2E7D32" opacity="0.85"><title>Partner Identity: 0.002161</title></rect>
<line x1="13.77" y1="67.46" x2="13.77" y2="62.38" stroke="#333" stroke-width="1"/>
<line x1="11.77" y1="67.46" x2="15.77" y2="67.46" stroke="#333" stroke-width="1"/>
<line x1="11.77" y1="62.38" x2="15.77" y2="62.38" stroke="#333" stroke-width="1"/>
<rect x="22.95" y="190.15" width="18.36" height="9.85" fill="#616161" opacity="0.85"><title>Control: 0.000158</title></rect>
<line x1="32.14" y1="190.33" x2="32.14" y2="189.99" stroke="#333" stroke-width="1"/>
<line x1="30.14" y1="190.33" x2="34.14" y2="190.33" stroke="#333" stroke-width="1"/>
<line x1="30.14" y1="189.99" x2="34.14" y2="189.99" stroke="#333" stroke-width="1"/>
<text x="22.95" y="214" text-anchor="end" font-size="9" fill="#2196F3" transform="rotate(-45,22.95,214)">Phenomenology</text>
<rect x="50.50" y="70.90" width="18.36" height="129.10" fill="#2E7D32" opacity="0.85"><title>Partner Identity: 0.002066</title></rect>
<line x1="59.68" y1="74.13" x2="59.68" y2="67.89" stroke="#333" stroke-width="1"/>
<line x1="57.68" y1="74.13" x2="61.68" y2="74.13" stroke="#333" stroke-width="1"/>
<line x1="57.68" y1="67.89" x2="61.68" y2="67.89" stroke="#333" stroke-width="1"/>
<rect x="68.86" y="190.38" width="18.36" height="9.62" fill="#616161" opacity="0.85"><title>Control: 0.000154</title></rect>
<line x1="78.05" y1="190.56" x2="78.05" y2="190.18" stroke="#333" stroke-width="1"/>
<line x1="76.05" y1="190.56" x2="80.05" y2="190.56" stroke="#333" stroke-width="1"/>
<line x1="76.05" y1="190.18" x2="80.05" y2="190.18" stroke="#333" stroke-width="1"/>
<text x="68.86" y="214" text-anchor="end" font-size="9" fill="#2196F3" transform="rotate(-45,68.86,214)">Emotions</text>
<rect x="96.41" y="72.66" width="18.36" height="127.34" fill="#2E7D32" opacity="0.85"><title>Partner Identity: 0.002038</title></rect>
<line x1="105.59" y1="75.84" x2="105.59" y2="69.90" stroke="#333" stroke-width="1"/>
<line x1="103.59" y1="75.84" x2="107.59" y2="75.84" stroke="#333" stroke-width="1"/>
<line x1="103.59" y1="69.90" x2="107.59" y2="69.90" stroke="#333" stroke-width="1"/>
<rect x="114.77" y="190.08" width="18.36" height="9.92" fill="#616161" opacity="0.85"><title>Control: 0.000159</title></rect>
<line x1="123.95" y1="190.25" x2="123.95" y2="189.90" stroke="#333" stroke-width="1"/>
<line x1="121.95" y1="190.25" x2="125.95" y2="190.25" stroke="#333" stroke-width="1"/>
<line x1="121.95" y1="189.90" x2="125.95" y2="189.90" stroke="#333" stroke-width="1"/>
<text x="114.77" y="214" text-anchor="end" font-size="9" fill="#2196F3" transform="rotate(-45,114.77,214)">Agency</text>
<rect x="142.32" y="77.80" width="18.36" height="122.20" fill="#2E7D32" opacity="0.85"><title>Partner Identity: 0.001956</title></rect>
<line x1="151.50" y1="80.35" x2="151.50" y2="75.58" stroke="#333" stroke-width="1"/>
<line x1="149.50" y1="80.35" x2="153.50" y2="80.35" stroke="#333" stroke-width="1"/>
<line x1="149.50" y1="75.58" x2="153.50" y2="75.58" stroke="#333" stroke-width="1"/>
<rect x="160.68" y="189.91" width="18.36" height="10.09" fill="#616161" opacity="0.85"><title>Control: 0.000162</title></rect>
<line x1="169.86" y1="190.13" x2="169.86" y2="189.69" stroke="#333" stroke-width="1"/>
<line x1="167.86" y1="190.13" x2="171.86" y2="190.13" stroke="#333" stroke-width="1"/>
<line x1="167.86" y1="189.69" x2="171.86" y2="189.69" stroke="#333" stroke-width="1"/>
<text x="160.68" y="214" text-anchor="end" font-size="9" fill="#2196F3" transform="rotate(-45,160.68,214)">Intentions</text>
<rect x="188.23" y="76.15" width="18.36" height="123.85" fill="#2E7D32" opacity="0.85"><title>Partner Identity: 0.001982</title></rect>
<line x1="197.41" y1="79.02" x2="197.41" y2="73.33" stroke="#333" stroke-width="1"/>
<line x1="195.41" y1="79.02" x2="199.41" y2="79.02" stroke="#333" stroke-width="1"/>
<line x1="195.41" y1="73.33" x2="199.41" y2="73.33" stroke="#333" stroke-width="1"/>
<rect x="206.59" y="190.46" width="18.36" height="9.54" fill="#616161" opacity="0.85"><title>Control: 0.000153</title></rect>
<line x1="215.77" y1="190.67" x2="215.77" y2="190.22" stroke="#333" stroke-width="1"/>
<line x1="213.77" y1="190.67" x2="217.77" y2="190.67" stroke="#333" stroke-width="1"/>
<line x1="213.77" y1="190.22" x2="217.77" y2="190.22" stroke="#333" stroke-width="1"/>
<text x="206.59" y="214" text-anchor="end" font-size="9" fill="#2196F3" transform="rotate(-45,206.59,214)">Prediction</text>
<rect x="234.14" y="76.19" width="18.36" height="123.81" fill="#2E7D32" opacity="0.85"><title>Partner Identity: 0.001982</title></rect>
<line x1="243.32" y1="80.39" x2="243.32" y2="72.06" stroke="#333" stroke-width="1"/>
<line x1="241.32" y1="80.39" x2="245.32" y2="80.39" stroke="#333" stroke-width="1"/>
<line x1="241.32" y1="72.06" x2="245.32" y2="72.06" stroke="#333" stroke-width="1"/>
<rect x="252.50" y="190.12" width="18.36" height="9.88" fill="#616161" opacity="0.85"><title>Control: 0.000158</title></rect>
<line x1="261.68" y1="190.36" x2="261.68" y2="189.89" stroke="#333" stroke-width="1"/>
<line x1="259.68" y1="190.36" x2="263.68" y2="190.36" stroke="#333" stroke-width="1"/>
<line x1="259.68" y1="189.89" x2="263.68" y2="189.89" stroke="#333" stroke-width="1"/>
<text x="252.50" y="214" text-anchor="end" font-size="9" fill="#2196F3" transform="rotate(-45,252.50,214)">Cognitive</text>
<rect x="280.05" y="86.36" width="18.36" height="113.64" fill="#2E7D32" opacity="0.85"><title>Partner Identity: 0.001819</title></rect>
<line x1="289.23" y1="89.37" x2="289.23" y2="83.55" stroke="#333" stroke-width="1"/>
<line x1="287.23" y1="89.37" x2="291.23" y2="89.37" stroke="#333" stroke-width="1"/>
<line x1="287.23" y1="83.55" x2="291.23" y2="83.55" stroke="#333" stroke-width="1"/>
<rect x="298.41" y="190.16" width="18.36" height="9.84" fill="#616161" opacity="0.85"><title>Control: 0.000158</title></rect>
<line x1="307.59" y1="190.39" x2="307.59" y2="189.92" stroke="#333" stroke-width="1"/>
<line x1="305.59" y1="190.39" x2="309.59" y2="190.39" stroke="#333" stroke-width="1"/>
<line x1="305.59" y1="189.92" x2="309.59" y2="189.92" stroke="#333" stroke-width="1"/>
<text x="298.41" y="214" text-anchor="end" font-size="9" fill="#2196F3" transform="rotate(-45,298.41,214)">Social</text>
<rect x="325.95" y="67.31" width="18.36" height="132.69" fill="#2E7D32" opacity="0.85"><title>Partner Identity: 0.002124</title></rect>
<line x1="335.14" y1="70.96" x2="335.14" y2="63.40" stroke="#333" stroke-width="1"/>
<line x1="333.14" y1="70.96" x2="337.14" y2="70.96" stroke="#333" stroke-width="1"/>
<line x1="333.14" y1="63.40" x2="337.14" y2="63.40" stroke="#333" stroke-width="1"/>
<rect x="344.32" y="190.02" width="18.36" height="9.98" fill="#616161" opacity="0.85"><title>Control: 0.000160</title></rect>
<line x1="353.50" y1="190.21" x2="353.50" y2="189.81" stroke="#333" stroke-width="1"/>
<line x1="351.50" y1="190.21" x2="355.50" y2="190.21" stroke="#333" stroke-width="1"/>
<line x1="351.50" y1="189.81" x2="355.50" y2="189.81" stroke="#333" stroke-width="1"/>
<text x="344.32" y="214" text-anchor="end" font-size="9" fill="#2196F3" transform="rotate(-45,344.32,214)">Attention</text>
<rect x="371.86" y="59.94" width="18.36" height="140.06" fill="#2E7D32" opacity="0.85"><title>Partner Identity: 0.002242</title></rect>
<line x1="381.05" y1="64.61" x2="381.05" y2="55.26" stroke="#333" stroke-width="1"/>
<line x1="379.05" y1="64.61" x2="383.05" y2="64.61" stroke="#333" stroke-width="1"/>
<line x1="379.05" y1="55.26" x2="383.05" y2="55.26" stroke="#333" stroke-width="1"/>
<rect x="390.23" y="189.52" width="18.36" height="10.48" fill="#616161" opacity="0.85"><title>Control: 0.000168</title></rect>
<line x1="399.41" y1="189.74" x2="399.41" y2="189.28" stroke="#333" stroke-width="1"/>
<line x1="397.41" y1="189.74" x2="401.41" y2="189.74" stroke="#333" stroke-width="1"/>
<line x1="397.41" y1="189.28" x2="401.41" y2="189.28" stroke="#333" stroke-width="1"/>
<text x="390.23" y="214" text-anchor="end" font-size="9" fill="#4CAF50" transform="rotate(-45,390.23,214)">Embodiment</text>
<rect x="417.77" y="70.86" width="18.36" height="129.14" fill="#2E7D32" opacity="0.85"><title>Partner Identity: 0.002067</title></rect>
<line x1="426.95" y1="74.20" x2="426.95" y2="67.76" stroke="#333" stroke-width="1"/>
<line x1="424.95" y1="74.20" x2="428.95" y2="74.20" stroke="#333" stroke-width="1"/>
<line x1="424.95" y1="67.76" x2="428.95" y2="67.76" stroke="#333" stroke-width="1"/>
<rect x="436.14" y="190.03" width="18.36" height="9.97" fill="#616161" opacity="0.85"><title>Control: 0.000160</title></rect>
<line x1="445.32" y1="190.20" x2="445.32" y2="189.85" stroke="#333" stroke-width="1"/>
<line x1="443.32" y1="190.20" x2="447.32" y2="190.20" stroke="#333" stroke-width="1"/>
<line x1="443.32" y1="189.85" x2="447.32" y2="189.85" stroke="#333" stroke-width="1"/>
<text x="436.14" y="214" text-anchor="end" font-size="9" fill="#4CAF50" transform="rotate(-45,436.14,214)">Roles</text>
<rect x="463.68" y="56.45" width="18.36" height="143.55" fill="#2E7D32" opacity="0.85"><title>Partner Identity: 0.002298</title></rect>
<line x1="472.86" y1="59.30" x2="472.86" y2="53.60" stroke="#333" stroke-width="1"/>
<line x1="470.86" y1="59.30" x2="474.86" y2="59.30" stroke="#333" stroke-width="1"/>
<line x1="470.86" y1="53.60" x2="474.86" y2="53.60" stroke="#333" stroke-width="1"/>
<rect x="482.05" y="189.91" width="18.36" height="10.09" fill="#616161" opacity="0.85"><title>Control: 0.000162</title></rect>
<line x1="491.23" y1="190.13" x2="491.23" y2="189.68" stroke="#333" stroke-width="1"/>
<line x1="489.23" y1="190.13" x2="493.23" y2="190.13" stroke="#333" stroke-width="1"/>
<line x1="489.23" y1="189.68" x2="493.23" y2="189.68" stroke="#333" stroke-width="1"/>
<text x="482.05" y="214" text-anchor="end" font-size="9" fill="#4CAF50" transform="rotate(-45,482.05,214)">Animacy</text>
<rect x="509.59" y="82.64" width="18.36" height="117.36" fill="#2E7D32" opacity="0.85"><title>Partner Identity: 0.001878</title></rect>
<line x1="518.77" y1="85.78" x2="518.77" y2="79.73" stroke="#333" stroke-width="1"/>
<line x1="516.77" y1="85.78" x2="520.77" y2="85.78" stroke="#333" stroke-width="1"/>
<line x1="516.77" y1="79.73" x2="520.77" y2="79.73" stroke="#333" stroke-width="1"/>
<rect x="527.95" y="190.34" width="18.36" height="9.66" fill="#616161" opacity="0.85"><title>Control: 0.000155</title></rect>
<line x1="537.14" y1="190.57" x2="537.14" y2="190.07" stroke="#333" stroke-width="1"/>
<line x1="535.14" y1="190.57" x2="539.14" y2="190.57" stroke="#333" stroke-width="1"/>
<line x1="535.14" y1="190.07" x2="539.14" y2="190.07" stroke="#333" stroke-width="1"/>
<text x="527.95" y="214" text-anchor="end" font-size="9" fill="#FF9800" transform="rotate(-45,527.95,214)">Formality</text>
<rect x="555.50" y="77.39" width="18.36" height="122.61" fill="#2E7D32" opacity="0.85"><title>Partner Identity: 0.001962</title></rect>
<line x1="564.68" y1="80.47" x2="564.68" y2="74.21" stroke="#333" stroke-width="1"/>
<line x1="562.68" y1="80.47" x2="566.68" y2="80.47" stroke="#333" stroke-width="1"/>
<line x1="562.68" y1="74.21" x2="566.68" y2="74.21" stroke="#333" stroke-width="1"/>
<rect x="573.86" y="190.31" width="18.36" height="9.69" fill="#616161" opacity="0.85"><title>Control: 0.000155</title></rect>
<line x1="583.05" y1="190.51" x2="583.05" y2="190.09" stroke="#333" stroke-width="1"/>
<line x1="581.05" y1="190.51" x2="585.05" y2="190.51" stroke="#333" stroke-width="1"/>
<line x1="581.05" y1="190.09" x2="585.05" y2="190.09" stroke="#333" stroke-width="1"/>
<text x="573.86" y="214" text-anchor="end" font-size="9" fill="#FF9800" transform="rotate(-45,573.86,214)">Expertise</text>
<rect x="601.41" y="82.90" width="18.36" height="117.10" fill="#2E7D32" opacity="0.85"><title>Partner Identity: 0.001874</title></rect>
<line x1="610.59" y1="85.56" x2="610.59" y2="80.37" stroke="#333" stroke-width="1"/>
<line x1="608.59" y1="85.56" x2="612.59" y2="85.56" stroke="#333" stroke-width="1"/>
<line x1="608.59" y1="80.37" x2="612.59" y2="80.37" stroke="#333" stroke-width="1"/>
<rect x="619.77" y="190.27" width="18.36" height="9.73" fill="#616161" opacity="0.85"><title>Control: 0.000156</title></rect>
<line x1="628.95" y1="190.49" x2="628.95" y2="190.02" stroke="#333" stroke-width="1"/>
<line x1="626.95" y1="190.49" x2="630.95" y2="190.49" stroke="#333" stroke-width="1"/>
<line x1="626.95" y1="190.02" x2="630.95" y2="190.02" stroke="#333" stroke-width="1"/>
<text x="619.77" y="214" text-anchor="end" font-size="9" fill="#FF9800" transform="rotate(-45,619.77,214)">Helpfulness</text>
<rect x="647.32" y="53.27" width="18.36" height="146.73" fill="#2E7D32" opacity="0.85"><title>Partner Identity: 0.002348</title></rect>
<line x1="656.50" y1="57.40" x2="656.50" y2="49.49" stroke="#333" stroke-width="1"/>
<line x1="654.50" y1="57.40" x2="658.50" y2="57.40" stroke="#333" stroke-width="1"/>
<line x1="654.50" y1="49.49" x2="658.50" y2="49.49" stroke="#333" stroke-width="1"/>
<rect x="665.68" y="190.77" width="18.36" height="9.23" fill="#616161" opacity="0.85"><title>Control: 0.000148</title></rect>
<line x1="674.86" y1="190.89" x2="674.86" y2="190.62" stroke="#333" stroke-width="1"/>
<line x1="672.86" y1="190.89" x2="676.86" y2="190.89" stroke="#333" stroke-width="1"/>
<line x1="672.86" y1="190.62" x2="676.86" y2="190.62" stroke="#333" stroke-width="1"/>
<text x="665.68" y="214" text-anchor="end" font-size="9" fill="#7B1FA2" transform="rotate(-45,665.68,214)">Human (concept)</text>
<rect x="693.23" y="30.09" width="18.36" height="169.91" fill="#2E7D32" opacity="0.85"><title>Partner Identity: 0.002719</title></rect>
<line x1="702.41" y1="33.63" x2="702.41" y2="26.84" stroke="#333" stroke-width="1"/>
<line x1="700.41" y1="33.63" x2="704.41" y2="33.63" stroke="#333" stroke-width="1"/>
<line x1="700.41" y1="26.84" x2="704.41" y2="26.84" stroke="#333" stroke-width="1"/>
<rect x="711.59" y="190.75" width="18.36" height="9.25" fill="#616161" opacity="0.85"><title>Control: 0.000148</title></rect>
<line x1="720.77" y1="190.87" x2="720.77" y2="190.61" stroke="#333" stroke-width="1"/>
<line x1="718.77" y1="190.87" x2="722.77" y2="190.87" stroke="#333" stroke-width="1"/>
<line x1="718.77" y1="190.61" x2="722.77" y2="190.61" stroke="#333" stroke-width="1"/>
<text x="711.59" y="214" text-anchor="end" font-size="9" fill="#7B1FA2" transform="rotate(-45,711.59,214)">AI (concept)</text>
<rect x="739.14" y="57.73" width="18.36" height="142.27" fill="#2E7D32" opacity="0.85"><title>Partner Identity: 0.002277</title></rect>
<line x1="748.32" y1="60.60" x2="748.32" y2="54.92" stroke="#333" stroke-width="1"/>
<line x1="746.32" y1="60.60" x2="750.32" y2="60.60" stroke="#333" stroke-width="1"/>
<line x1="746.32" y1="54.92" x2="750.32" y2="54.92" stroke="#333" stroke-width="1"/>
<rect x="757.50" y="189.05" width="18.36" height="10.95" fill="#616161" opacity="0.85"><title>Control: 0.000175</title></rect>
<line x1="766.68" y1="189.26" x2="766.68" y2="188.84" stroke="#333" stroke-width="1"/>
<line x1="764.68" y1="189.26" x2="768.68" y2="189.26" stroke="#333" stroke-width="1"/>
<line x1="764.68" y1="188.84" x2="768.68" y2="188.84" stroke="#333" stroke-width="1"/>
<text x="757.50" y="214" text-anchor="end" font-size="9" fill="#9E9E9E" transform="rotate(-45,757.50,214)">Biological</text>
<rect x="785.05" y="64.21" width="18.36" height="135.79" fill="#2E7D32" opacity="0.85"><title>Partner Identity: 0.002173</title></rect>
<line x1="794.23" y1="66.72" x2="794.23" y2="62.19" stroke="#333" stroke-width="1"/>
<line x1="792.23" y1="66.72" x2="796.23" y2="66.72" stroke="#333" stroke-width="1"/>
<line x1="792.23" y1="62.19" x2="796.23" y2="62.19" stroke="#333" stroke-width="1"/>
<rect x="803.41" y="189.81" width="18.36" height="10.19" fill="#616161" opacity="0.85"><title>Control: 0.000163</title></rect>
<line x1="812.59" y1="189.96" x2="812.59" y2="189.65" stroke="#333" stroke-width="1"/>
<line x1="810.59" y1="189.96" x2="814.59" y2="189.96" stroke="#333" stroke-width="1"/>
<line x1="810.59" y1="189.65" x2="814.59" y2="189.65" stroke="#333" stroke-width="1"/>
<text x="803.41" y="214" text-anchor="end" font-size="9" fill="#9E9E9E" transform="rotate(-45,803.41,214)">Shapes</text>
<rect x="830.95" y="103.42" width="18.36" height="96.58" fill="#2E7D32" opacity="0.85"><title>Partner Identity: 0.001546</title></rect>
<line x1="840.14" y1="105.12" x2="840.14" y2="101.48" stroke="#333" stroke-width="1"/>
<line x1="838.14" y1="105.12" x2="842.14" y2="105.12" stroke="#333" stroke-width="1"/>
<line x1="838.14" y1="101.48" x2="842.14" y2="101.48" stroke="#333" stroke-width="1"/>
<rect x="849.32" y="189.79" width="18.36" height="10.21" fill="#616161" opacity="0.85"><title>Control: 0.000163</title></rect>
<line x1="858.50" y1="189.94" x2="858.50" y2="189.64" stroke="#333" stroke-width="1"/>
<line x1="856.50" y1="189.94" x2="860.50" y2="189.94" stroke="#333" stroke-width="1"/>
<line x1="856.50" y1="189.64" x2="860.50" y2="189.64" stroke="#333" stroke-width="1"/>
<text x="849.32" y="214" text-anchor="end" font-size="9" fill="#00BCD4" transform="rotate(-45,849.32,214)">SysPrompt (talkto human)</text>
<rect x="876.86" y="64.43" width="18.36" height="135.57" fill="#2E7D32" opacity="0.85"><title>Partner Identity: 0.002170</title></rect>
<line x1="886.05" y1="75.67" x2="886.05" y2="49.52" stroke="#333" stroke-width="1"/>
<line x1="884.05" y1="75.67" x2="888.05" y2="75.67" stroke="#333" stroke-width="1"/>
<line x1="884.05" y1="49.52" x2="888.05" y2="49.52" stroke="#333" stroke-width="1"/>
<rect x="895.23" y="190.36" width="18.36" height="9.64" fill="#616161" opacity="0.85"><title>Control: 0.000154</title></rect>
<line x1="904.41" y1="190.58" x2="904.41" y2="190.11" stroke="#333" stroke-width="1"/>
<line x1="902.41" y1="190.58" x2="906.41" y2="190.58" stroke="#333" stroke-width="1"/>
<line x1="902.41" y1="190.11" x2="906.41" y2="190.11" stroke="#333" stroke-width="1"/>
<text x="895.23" y="214" text-anchor="end" font-size="9" fill="#00BCD4" transform="rotate(-45,895.23,214)">SysPrompt (talkto AI)</text>
<rect x="922.77" y="97.94" width="18.36" height="102.06" fill="#2E7D32" opacity="0.85"><title>Partner Identity: 0.001633</title></rect>
<line x1="931.95" y1="100.26" x2="931.95" y2="95.32" stroke="#333" stroke-width="1"/>
<line x1="929.95" y1="100.26" x2="933.95" y2="100.26" stroke="#333" stroke-width="1"/>
<line x1="929.95" y1="95.32" x2="933.95" y2="95.32" stroke="#333" stroke-width="1"/>
<rect x="941.14" y="187.83" width="18.36" height="12.17" fill="#616161" opacity="0.85"><title>Control: 0.000195</title></rect>
<line x1="950.32" y1="188.01" x2="950.32" y2="187.68" stroke="#333" stroke-width="1"/>
<line x1="948.32" y1="188.01" x2="952.32" y2="188.01" stroke="#333" stroke-width="1"/>
<line x1="948.32" y1="187.68" x2="952.32" y2="187.68" stroke="#333" stroke-width="1"/>
<text x="941.14" y="214" text-anchor="end" font-size="9" fill="#00BCD4" transform="rotate(-45,941.14,214)">SysPrompt (bare human)</text>
<rect x="968.68" y="53.56" width="18.36" height="146.44" fill="#2E7D32" opacity="0.85"><title>Partner Identity: 0.002344</title></rect>
<line x1="977.86" y1="66.74" x2="977.86" y2="36.54" stroke="#333" stroke-width="1"/>
<line x1="975.86" y1="66.74" x2="979.86" y2="66.74" stroke="#333" stroke-width="1"/>
<line x1="975.86" y1="36.54" x2="979.86" y2="36.54" stroke="#333" stroke-width="1"/>
<rect x="987.05" y="188.97" width="18.36" height="11.03" fill="#616161" opacity="0.85"><title>Control: 0.000177</title></rect>
<line x1="996.23" y1="189.40" x2="996.23" y2="188.50" stroke="#333" stroke-width="1"/>
<line x1="994.23" y1="189.40" x2="998.23" y2="189.40" stroke="#333" stroke-width="1"/>
<line x1="994.23" y1="188.50" x2="998.23" y2="188.50" stroke="#333" stroke-width="1"/>
<text x="987.05" y="214" text-anchor="end" font-size="9" fill="#00BCD4" transform="rotate(-45,987.05,214)">SysPrompt (bare AI)</text>
<line x1="0" y1="200" x2="1010" y2="200" stroke="#333"/>
<line x1="0" y1="0" x2="0" y2="200" stroke="#333"/>
</g>
<rect x="70.0" y="324" width="10" height="10" fill="#2E7D32"/>
<text x="84.0" y="332" font-size="8" fill="#333">Partner Identity</text>
<rect x="272.0" y="324" width="10" height="10" fill="#616161"/>
<text x="286.0" y="332" font-size="8" fill="#333">Control</text>
</svg>