<svg viewBox="0 0 1100 360" xmlns="http://www.w3.org/2000/svg" style="width:100%;max-width:1100px;height:auto;font-family:Arial,sans-serif;">
<rect width="1100" height="360" fill="white"/>
<g transform="translate(70,30)">
<line x1="0" y1="200.0" x2="1010" y2="200.0" stroke="#eee" stroke-width="1"/>
<text x="-8" y="204.0" text-anchor="end" font-size="10" fill="#666">0.00</text>
<line x1="0" y1="160.0" x2="1010" y2="160.0" stroke="#eee" stroke-width="1"/>
<text x="-8" y="164.0" text-anchor="end" font-size="10" fill="#666">1.35</text>
<line x1="0" y1="120.0" x2="1010" y2="120.0" stroke="#eee" stroke-width="1"/>
<text x="-8" y="124.0" text-anchor="end" font-size="10" fill="#666">2.71</text>
<line x1="0" y1="80.0" x2="1010" y2="80.0" stroke="#eee" stroke-width="1"/>
<text x="-8" y="84.0" text-anchor="end" font-size="10" fill="#666">4.06</text>
<line x1="0" y1="40.0" x2="1010" y2="40.0" stroke="#eee" stroke-width="1"/>
<text x="-8" y="44.0" text-anchor="end" font-size="10" fill="#666">5.41</text>
<line x1="0" y1="0.0" x2="1010" y2="0.0" stroke="#eee" stroke-width="1"/>
<text x="-8" y="4.0" text-anchor="end" font-size="10" fill="#666">6.76</text>
<text x="-50" y="100.0" text-anchor="middle" font-size="11" fill="#333" transform="rotate(-90,-50,100.0)">Mean R² (×10⁻³)</text>
<rect x="5.61" y="193.80" width="22.44" height="6.20" fill="#81C784" opacity="0.85"><title>Partner Identity: 0.000210</title></rect>
<line x1="16.83" y1="195.21" x2="16.83" y2="191.48" stroke="#333" stroke-width="1"/>
<line x1="14.83" y1="195.21" x2="18.83" y2="195.21" stroke="#333" stroke-width="1"/>
<line x1="14.83" y1="191.48" x2="18.83" y2="191.48" stroke="#333" stroke-width="1"/>
<rect x="28.06" y="190.05" width="22.44" height="9.95" fill="#BDBDBD" opacity="0.85"><title>Control: 0.000337</title></rect>
<line x1="39.28" y1="193.43" x2="39.28" y2="188.16" stroke="#333" stroke-width="1"/>
<line x1="37.28" y1="193.43" x2="41.28" y2="193.43" stroke="#333" stroke-width="1"/>
<line x1="37.28" y1="188.16" x2="41.28" y2="188.16" stroke="#333" stroke-width="1"/>
<text x="28.06" y="214" text-anchor="end" font-size="9" fill="#2196F3" transform="rotate(-45,28.06,214)">Phenomenology</text>
<rect x="61.72" y="190.53" width="22.44" height="9.47" fill="#81C784" opacity="0.85"><title>Partner Identity: 0.000320</title></rect>
<line x1="72.94" y1="192.75" x2="72.94" y2="188.90" stroke="#333" stroke-width="1"/>
<line x1="70.94" y1="192.75" x2="74.94" y2="192.75" stroke="#333" stroke-width="1"/>
<line x1="70.94" y1="188.90" x2="74.94" y2="188.90" stroke="#333" stroke-width="1"/>
<rect x="84.17" y="184.12" width="22.44" height="15.88" fill="#BDBDBD" opacity="0.85"><title>Control: 0.000537</title></rect>
<line x1="95.39" y1="189.40" x2="95.39" y2="181.98" stroke="#333" stroke-width="1"/>
<line x1="93.39" y1="189.40" x2="97.39" y2="189.40" stroke="#333" stroke-width="1"/>
<line x1="93.39" y1="181.98" x2="97.39" y2="181.98" stroke="#333" stroke-width="1"/>
<text x="84.17" y="214" text-anchor="end" font-size="9" fill="#2196F3" transform="rotate(-45,84.17,214)">Emotions</text>
<rect x="117.83" y="191.37" width="22.44" height="8.63" fill="#81C784" opacity="0.85"><title>Partner Identity: 0.000292</title></rect>
<line x1="129.06" y1="193.71" x2="129.06" y2="189.21" stroke="#333" stroke-width="1"/>
<line x1="127.06" y1="193.71" x2="131.06" y2="193.71" stroke="#333" stroke-width="1"/>
<line x1="127.06" y1="189.21" x2="131.06" y2="189.21" stroke="#333" stroke-width="1"/>
<rect x="140.28" y="186.53" width="22.44" height="13.47" fill="#BDBDBD" opacity="0.85"><title>Control: 0.000455</title></rect>
<line x1="151.50" y1="190.92" x2="151.50" y2="184.35" stroke="#333" stroke-width="1"/>
<line x1="149.50" y1="190.92" x2="153.50" y2="190.92" stroke="#333" stroke-width="1"/>
<line x1="149.50" y1="184.35" x2="153.50" y2="184.35" stroke="#333" stroke-width="1"/>
<text x="140.28" y="214" text-anchor="end" font-size="9" fill="#2196F3" transform="rotate(-45,140.28,214)">Agency</text>
<rect x="173.94" y="190.82" width="22.44" height="9.18" fill="#81C784" opacity="0.85"><title>Partner Identity: 0.000310</title></rect>
<line x1="185.17" y1="193.15" x2="185.17" y2="189.01" stroke="#333" stroke-width="1"/>
<line x1="183.17" y1="193.15" x2="187.17" y2="193.15" stroke="#333" stroke-width="1"/>
<line x1="183.17" y1="189.01" x2="187.17" y2="189.01" stroke="#333" stroke-width="1"/>
<rect x="196.39" y="183.63" width="22.44" height="16.37" fill="#BDBDBD" opacity="0.85"><title>Control: 0.000554</title></rect>
<line x1="207.61" y1="188.83" x2="207.61" y2="180.94" stroke="#333" stroke-width="1"/>
<line x1="205.61" y1="188.83" x2="209.61" y2="188.83" stroke="#333" stroke-width="1"/>
<line x1="205.61" y1="180.94" x2="209.61" y2="180.94" stroke="#333" stroke-width="1"/>
<text x="196.39" y="214" text-anchor="end" font-size="9" fill="#2196F3" transform="rotate(-45,196.39,214)">Intentions</text>
<rect x="230.06" y="188.52" width="22.44" height="11.48" fill="#81C784" opacity="0.85"><title>Partner Identity: 0.000388</title></rect>
<line x1="241.28" y1="193.31" x2="241.28" y2="184.34" stroke="#333" stroke-width="1"/>
<line x1="239.28" y1="193.31" x2="243.28" y2="193.31" stroke="#333" stroke-width="1"/>
<line x1="239.28" y1="184.34" x2="243.28" y2="184.34" stroke="#333" stroke-width="1"/>
<rect x="252.50" y="186.43" width="22.44" height="13.57" fill="#BDBDBD" opacity="0.85"><title>Control: 0.000459</title></rect>
<line x1="263.72" y1="191.77" x2="263.72" y2="182.93" stroke="#333" stroke-width="1"/>
<line x1="261.72" y1="191.77" x2="265.72" y2="191.77" stroke="#333" stroke-width="1"/>
<line x1="261.72" y1="182.93" x2="265.72" y2="182.93" stroke="#333" stroke-width="1"/>
<text x="252.50" y="214" text-anchor="end" font-size="9" fill="#2196F3" transform="rotate(-45,252.50,214)">Prediction</text>
<rect x="286.17" y="189.83" width="22.44" height="10.17" fill="#81C784" opacity="0.85"><title>Partner Identity: 0.000344</title></rect>
<line x1="297.39" y1="191.37" x2="297.39" y2="188.21" stroke="#333" stroke-width="1"/>
<line x1="295.39" y1="191.37" x2="299.39" y2="191.37" stroke="#333" stroke-width="1"/>
<line x1="295.39" y1="188.21" x2="299.39" y2="188.21" stroke="#333" stroke-width="1"/>
<rect x="308.61" y="188.15" width="22.44" height="11.85" fill="#BDBDBD" opacity="0.85"><title>Control: 0.000401</title></rect>
<line x1="319.83" y1="190.34" x2="319.83" y2="186.80" stroke="#333" stroke-width="1"/>
<line x1="317.83" y1="190.34" x2="321.83" y2="190.34" stroke="#333" stroke-width="1"/>
<line x1="317.83" y1="186.80" x2="321.83" y2="186.80" stroke="#333" stroke-width="1"/>
<text x="308.61" y="214" text-anchor="end" font-size="9" fill="#2196F3" transform="rotate(-45,308.61,214)">Cognitive</text>
<rect x="342.28" y="182.68" width="22.44" height="17.32" fill="#81C784" opacity="0.85"><title>Partner Identity: 0.000586</title></rect>
<line x1="353.50" y1="187.99" x2="353.50" y2="180.48" stroke="#333" stroke-width="1"/>
<line x1="351.50" y1="187.99" x2="355.50" y2="187.99" stroke="#333" stroke-width="1"/>
<line x1="351.50" y1="180.48" x2="355.50" y2="180.48" stroke="#333" stroke-width="1"/>
<rect x="364.72" y="180.04" width="22.44" height="19.96" fill="#BDBDBD" opacity="0.85"><title>Control: 0.000675</title></rect>
<line x1="375.94" y1="186.78" x2="375.94" y2="178.09" stroke="#333" stroke-width="1"/>
<line x1="373.94" y1="186.78" x2="377.94" y2="186.78" stroke="#333" stroke-width="1"/>
<line x1="373.94" y1="178.09" x2="377.94" y2="178.09" stroke="#333" stroke-width="1"/>
<text x="364.72" y="214" text-anchor="end" font-size="9" fill="#2196F3" transform="rotate(-45,364.72,214)">Social</text>
<rect x="398.39" y="188.10" width="22.44" height="11.90" fill="#81C784" opacity="0.85"><title>Partner Identity: 0.000403</title></rect>
<line x1="409.61" y1="190.51" x2="409.61" y2="186.04" stroke="#333" stroke-width="1"/>
<line x1="407.61" y1="190.51" x2="411.61" y2="190.51" stroke="#333" stroke-width="1"/>
<line x1="407.61" y1="186.04" x2="411.61" y2="186.04" stroke="#333" stroke-width="1"/>
<rect x="420.83" y="186.40" width="22.44" height="13.60" fill="#BDBDBD" opacity="0.85"><title>Control: 0.000460</title></rect>
<line x1="432.06" y1="189.47" x2="432.06" y2="184.86" stroke="#333" stroke-width="1"/>
<line x1="430.06" y1="189.47" x2="434.06" y2="189.47" stroke="#333" stroke-width="1"/>
<line x1="430.06" y1="184.86" x2="434.06" y2="184.86" stroke="#333" stroke-width="1"/>
<text x="420.83" y="214" text-anchor="end" font-size="9" fill="#2196F3" transform="rotate(-45,420.83,214)">Attention</text>
<rect x="454.50" y="194.20" width="22.44" height="5.80" fill="#81C784" opacity="0.85"><title>Partner Identity: 0.000196</title></rect>
<line x1="465.72" y1="195.64" x2="465.72" y2="191.92" stroke="#333" stroke-width="1"/>
<line x1="463.72" y1="195.64" x2="467.72" y2="195.64" stroke="#333" stroke-width="1"/>
<line x1="463.72" y1="191.92" x2="467.72" y2="191.92" stroke="#333" stroke-width="1"/>
<rect x="476.94" y="192.33" width="22.44" height="7.67" fill="#BDBDBD" opacity="0.85"><title>Control: 0.000259</title></rect>
<line x1="488.17" y1="194.97" x2="488.17" y2="190.42" stroke="#333" stroke-width="1"/>
<line x1="486.17" y1="194.97" x2="490.17" y2="194.97" stroke="#333" stroke-width="1"/>
<line x1="486.17" y1="190.42" x2="490.17" y2="190.42" stroke="#333" stroke-width="1"/>
<text x="476.94" y="214" text-anchor="end" font-size="9" fill="#4CAF50" transform="rotate(-45,476.94,214)">Embodiment</text>
<rect x="510.61" y="191.19" width="22.44" height="8.81" fill="#81C784" opacity="0.85"><title>Partner Identity: 0.000298</title></rect>
<line x1="521.83" y1="194.03" x2="521.83" y2="187.96" stroke="#333" stroke-width="1"/>
<line x1="519.83" y1="194.03" x2="523.83" y2="194.03" stroke="#333" stroke-width="1"/>
<line x1="519.83" y1="187.96" x2="523.83" y2="187.96" stroke="#333" stroke-width="1"/>
<rect x="533.06" y="188.36" width="22.44" height="11.64" fill="#BDBDBD" opacity="0.85"><title>Control: 0.000394</title></rect>
<line x1="544.28" y1="192.79" x2="544.28" y2="184.94" stroke="#333" stroke-width="1"/>
<line x1="542.28" y1="192.79" x2="546.28" y2="192.79" stroke="#333" stroke-width="1"/>
<line x1="542.28" y1="184.94" x2="546.28" y2="184.94" stroke="#333" stroke-width="1"/>
<text x="533.06" y="214" text-anchor="end" font-size="9" fill="#4CAF50" transform="rotate(-45,533.06,214)">Roles</text>
<rect x="566.72" y="192.87" width="22.44" height="7.13" fill="#81C784" opacity="0.85"><title>Partner Identity: 0.000241</title></rect>
<line x1="577.94" y1="194.32" x2="577.94" y2="189.96" stroke="#333" stroke-width="1"/>
<line x1="575.94" y1="194.32" x2="579.94" y2="194.32" stroke="#333" stroke-width="1"/>
<line x1="575.94" y1="189.96" x2="579.94" y2="189.96" stroke="#333" stroke-width="1"/>
<rect x="589.17" y="189.77" width="22.44" height="10.23" fill="#BDBDBD" opacity="0.85"><title>Control: 0.000346</title></rect>
<line x1="600.39" y1="193.11" x2="600.39" y2="186.89" stroke="#333" stroke-width="1"/>
<line x1="598.39" y1="193.11" x2="602.39" y2="193.11" stroke="#333" stroke-width="1"/>
<line x1="598.39" y1="186.89" x2="602.39" y2="186.89" stroke="#333" stroke-width="1"/>
<text x="589.17" y="214" text-anchor="end" font-size="9" fill="#4CAF50" transform="rotate(-45,589.17,214)">Animacy</text>
<rect x="622.83" y="190.15" width="22.44" height="9.85" fill="#81C784" opacity="0.85"><title>Partner Identity: 0.000333</title></rect>
<line x1="634.06" y1="193.34" x2="634.06" y2="187.73" stroke="#333" stroke-width="1"/>
<line x1="632.06" y1="193.34" x2="636.06" y2="193.34" stroke="#333" stroke-width="1"/>
<line x1="632.06" y1="187.73" x2="636.06" y2="187.73" stroke="#333" stroke-width="1"/>
<rect x="645.28" y="191.29" width="22.44" height="8.71" fill="#BDBDBD" opacity="0.85"><title>Control: 0.000295</title></rect>
<line x1="656.50" y1="194.61" x2="656.50" y2="187.86" stroke="#333" stroke-width="1"/>
<line x1="654.50" y1="194.61" x2="658.50" y2="194.61" stroke="#333" stroke-width="1"/>
<line x1="654.50" y1="187.86" x2="658.50" y2="187.86" stroke="#333" stroke-width="1"/>
<text x="645.28" y="214" text-anchor="end" font-size="9" fill="#FF9800" transform="rotate(-45,645.28,214)">Formality</text>
<rect x="678.94" y="189.18" width="22.44" height="10.82" fill="#81C784" opacity="0.85"><title>Partner Identity: 0.000366</title></rect>
<line x1="690.17" y1="191.20" x2="690.17" y2="187.11" stroke="#333" stroke-width="1"/>
<line x1="688.17" y1="191.20" x2="692.17" y2="191.20" stroke="#333" stroke-width="1"/>
<line x1="688.17" y1="187.11" x2="692.17" y2="187.11" stroke="#333" stroke-width="1"/>
<rect x="701.39" y="185.10" width="22.44" height="14.90" fill="#BDBDBD" opacity="0.85"><title>Control: 0.000504</title></rect>
<line x1="712.61" y1="187.90" x2="712.61" y2="182.90" stroke="#333" stroke-width="1"/>
<line x1="710.61" y1="187.90" x2="714.61" y2="187.90" stroke="#333" stroke-width="1"/>
<line x1="710.61" y1="182.90" x2="714.61" y2="182.90" stroke="#333" stroke-width="1"/>
<text x="701.39" y="214" text-anchor="end" font-size="9" fill="#FF9800" transform="rotate(-45,701.39,214)">Expertise</text>
<rect x="735.06" y="189.18" width="22.44" height="10.82" fill="#81C784" opacity="0.85"><title>Partner Identity: 0.000366</title></rect>
<line x1="746.28" y1="193.26" x2="746.28" y2="186.67" stroke="#333" stroke-width="1"/>
<line x1="744.28" y1="193.26" x2="748.28" y2="193.26" stroke="#333" stroke-width="1"/>
<line x1="744.28" y1="186.67" x2="748.28" y2="186.67" stroke="#333" stroke-width="1"/>
<rect x="757.50" y="186.86" width="22.44" height="13.14" fill="#BDBDBD" opacity="0.85"><title>Control: 0.000444</title></rect>
<line x1="768.72" y1="192.83" x2="768.72" y2="183.88" stroke="#333" stroke-width="1"/>
<line x1="766.72" y1="192.83" x2="770.72" y2="192.83" stroke="#333" stroke-width="1"/>
<line x1="766.72" y1="183.88" x2="770.72" y2="183.88" stroke="#333" stroke-width="1"/>
<text x="757.50" y="214" text-anchor="end" font-size="9" fill="#FF9800" transform="rotate(-45,757.50,214)">Helpfulness</text>
<rect x="791.17" y="193.29" width="22.44" height="6.71" fill="#81C784" opacity="0.85"><title>Partner Identity: 0.000227</title></rect>
<line x1="802.39" y1="194.86" x2="802.39" y2="187.67" stroke="#333" stroke-width="1"/>
<line x1="800.39" y1="194.86" x2="804.39" y2="194.86" stroke="#333" stroke-width="1"/>
<line x1="800.39" y1="187.67" x2="804.39" y2="187.67" stroke="#333" stroke-width="1"/>
<rect x="813.61" y="189.43" width="22.44" height="10.57" fill="#BDBDBD" opacity="0.85"><title>Control: 0.000357</title></rect>
<line x1="824.83" y1="195.07" x2="824.83" y2="183.12" stroke="#333" stroke-width="1"/>
<line x1="822.83" y1="195.07" x2="826.83" y2="195.07" stroke="#333" stroke-width="1"/>
<line x1="822.83" y1="183.12" x2="826.83" y2="183.12" stroke="#333" stroke-width="1"/>
<text x="813.61" y="214" text-anchor="end" font-size="9" fill="#9E9E9E" transform="rotate(-45,813.61,214)">Baseline</text>
<rect x="847.28" y="194.23" width="22.44" height="5.77" fill="#81C784" opacity="0.85"><title>Partner Identity: 0.000195</title></rect>
<line x1="858.50" y1="194.94" x2="858.50" y2="192.64" stroke="#333" stroke-width="1"/>
<line x1="856.50" y1="194.94" x2="860.50" y2="194.94" stroke="#333" stroke-width="1"/>
<line x1="856.50" y1="192.64" x2="860.50" y2="192.64" stroke="#333" stroke-width="1"/>
<rect x="869.72" y="194.84" width="22.44" height="5.16" fill="#BDBDBD" opacity="0.85"><title>Control: 0.000175</title></rect>
<line x1="880.94" y1="195.78" x2="880.94" y2="193.53" stroke="#333" stroke-width="1"/>
<line x1="878.94" y1="195.78" x2="882.94" y2="195.78" stroke="#333" stroke-width="1"/>
<line x1="878.94" y1="193.53" x2="882.94" y2="193.53" stroke="#333" stroke-width="1"/>
<text x="869.72" y="214" text-anchor="end" font-size="9" fill="#9E9E9E" transform="rotate(-45,869.72,214)">Biological</text>
<rect x="903.39" y="191.88" width="22.44" height="8.12" fill="#81C784" opacity="0.85"><title>Partner Identity: 0.000275</title></rect>
<line x1="914.61" y1="194.78" x2="914.61" y2="189.28" stroke="#333" stroke-width="1"/>
<line x1="912.61" y1="194.78" x2="916.61" y2="194.78" stroke="#333" stroke-width="1"/>
<line x1="912.61" y1="189.28" x2="916.61" y2="189.28" stroke="#333" stroke-width="1"/>
<rect x="925.83" y="185.73" width="22.44" height="14.27" fill="#BDBDBD" opacity="0.85"><title>Control: 0.000483</title></rect>
<line x1="937.06" y1="191.85" x2="937.06" y2="182.00" stroke="#333" stroke-width="1"/>
<line x1="935.06" y1="191.85" x2="939.06" y2="191.85" stroke="#333" stroke-width="1"/>
<line x1="935.06" y1="182.00" x2="939.06" y2="182.00" stroke="#333" stroke-width="1"/>
<text x="925.83" y="214" text-anchor="end" font-size="9" fill="#9E9E9E" transform="rotate(-45,925.83,214)">Shapes</text>
<rect x="959.50" y="183.57" width="22.44" height="16.43" fill="#81C784" opacity="0.85"><title>Partner Identity: 0.000555</title></rect>
<line x1="970.72" y1="186.05" x2="970.72" y2="180.36" stroke="#333" stroke-width="1"/>
<line x1="968.72" y1="186.05" x2="972.72" y2="186.05" stroke="#333" stroke-width="1"/>
<line x1="968.72" y1="180.36" x2="972.72" y2="180.36" stroke="#333" stroke-width="1"/>
<rect x="981.94" y="188.33" width="22.44" height="11.67" fill="#BDBDBD" opacity="0.85"><title>Control: 0.000394</title></rect>
<line x1="993.17" y1="189.77" x2="993.17" y2="186.45" stroke="#333" stroke-width="1"/>
<line x1="991.17" y1="189.77" x2="995.17" y2="189.77" stroke="#333" stroke-width="1"/>
<line x1="991.17" y1="186.45" x2="995.17" y2="186.45" stroke="#333" stroke-width="1"/>
<text x="981.94" y="214" text-anchor="end" font-size="9" fill="#00BCD4" transform="rotate(-45,981.94,214)">SysPrompt (labeled)</text>
<line x1="0" y1="200" x2="1010" y2="200" stroke="#333"/>
<line x1="0" y1="0" x2="0" y2="200" stroke="#333"/>
</g>
<rect x="70.0" y="324" width="10" height="10" fill="#81C784"/>
<text x="84.0" y="332" font-size="8" fill="#333">Partner Identity</text>
<rect x="272.0" y="324" width="10" height="10" fill="#BDBDBD"/>
<text x="286.0" y="332" font-size="8" fill="#333">Control</text>
</svg>