<svg viewBox="0 0 800 340" xmlns="http://www.w3.org/2000/svg" style="width:100%;max-width:800px;height:auto;font-family:Arial,sans-serif;">
<rect width="800" height="340" fill="white"/>

<g transform="translate(70,30)">
<line x1="0" y1="190.0" x2="710" y2="190.0" stroke="#eee" stroke-width="1"/>
<text x="-8" y="194.0" text-anchor="end" font-size="10" fill="#666">0.00</text>
<line x1="0" y1="152.0" x2="710" y2="152.0" stroke="#eee" stroke-width="1"/>
<text x="-8" y="156.0" text-anchor="end" font-size="10" fill="#666">1.65</text>
<line x1="0" y1="114.0" x2="710" y2="114.0" stroke="#eee" stroke-width="1"/>
<text x="-8" y="118.0" text-anchor="end" font-size="10" fill="#666">3.30</text>
<line x1="0" y1="76.0" x2="710" y2="76.0" stroke="#eee" stroke-width="1"/>
<text x="-8" y="80.0" text-anchor="end" font-size="10" fill="#666">4.95</text>
<line x1="0" y1="38.0" x2="710" y2="38.0" stroke="#eee" stroke-width="1"/>
<text x="-8" y="42.0" text-anchor="end" font-size="10" fill="#666">6.60</text>
<line x1="0" y1="0.0" x2="710" y2="0.0" stroke="#eee" stroke-width="1"/>
<text x="-8" y="4.0" text-anchor="end" font-size="10" fill="#666">8.25</text>
<text x="-50" y="95.0" text-anchor="middle" font-size="11" fill="#333" transform="rotate(-90,-50,95.0)">Mean R² (×10⁻³)</text>
<line x1="83.52941176470588" y1="0" x2="83.52941176470588" y2="190" stroke="#ddd" stroke-width="1" stroke-dasharray="4,3"/>
<rect x="6.26" y="142.58" width="14.62" height="47.42" fill="#2E7D32" opacity="0.85"><title>Partner Identity: 2.058 ×10⁻³</title></rect>
<line x1="13.57" y1="149.13" x2="13.57" y2="138.76" stroke="#333" stroke-width="1"/>
<line x1="11.57" y1="149.13" x2="15.57" y2="149.13" stroke="#333" stroke-width="1"/>
<line x1="11.57" y1="138.76" x2="15.57" y2="138.76" stroke="#333" stroke-width="1"/>
<rect x="22.88" y="95.89" width="14.62" height="94.11" fill="#616161" opacity="0.85"><title>Control: 4.084 ×10⁻³</title></rect>
<line x1="30.19" y1="108.74" x2="30.19" y2="87.75" stroke="#333" stroke-width="1"/>
<line x1="28.19" y1="108.74" x2="32.19" y2="108.74" stroke="#333" stroke-width="1"/>
<line x1="28.19" y1="87.75" x2="32.19" y2="87.75" stroke="#333" stroke-width="1"/>
<text x="22.9" y="204" text-anchor="end" font-size="9" fill="#9E9E9E" transform="rotate(-45,22.9,204)">Biological</text>
<rect x="48.03" y="178.02" width="14.62" height="11.98" fill="#2E7D32" opacity="0.85"><title>Partner Identity: 0.520 ×10⁻³</title></rect>
<line x1="55.34" y1="182.67" x2="55.34" y2="174.07" stroke="#333" stroke-width="1"/>
<line x1="53.34" y1="182.67" x2="57.34" y2="182.67" stroke="#333" stroke-width="1"/>
<line x1="53.34" y1="174.07" x2="57.34" y2="174.07" stroke="#333" stroke-width="1"/>
<rect x="64.65" y="175.24" width="14.62" height="14.76" fill="#616161" opacity="0.85"><title>Control: 0.641 ×10⁻³</title></rect>
<line x1="71.96" y1="182.45" x2="71.96" y2="165.64" stroke="#333" stroke-width="1"/>
<line x1="69.96" y1="182.45" x2="73.96" y2="182.45" stroke="#333" stroke-width="1"/>
<line x1="69.96" y1="165.64" x2="73.96" y2="165.64" stroke="#333" stroke-width="1"/>
<text x="64.6" y="204" text-anchor="end" font-size="9" fill="#9E9E9E" transform="rotate(-45,64.6,204)">Shapes</text>
<rect x="89.79" y="105.82" width="14.62" height="84.18" fill="#2E7D32" opacity="0.85"><title>Partner Identity: 3.654 ×10⁻³</title></rect>
<line x1="97.10" y1="118.83" x2="97.10" y2="100.44" stroke="#333" stroke-width="1"/>
<line x1="95.10" y1="118.83" x2="99.10" y2="118.83" stroke="#333" stroke-width="1"/>
<line x1="95.10" y1="100.44" x2="99.10" y2="100.44" stroke="#333" stroke-width="1"/>
<rect x="106.41" y="56.07" width="14.62" height="133.93" fill="#616161" opacity="0.85"><title>Control: 5.813 ×10⁻³</title></rect>
<line x1="113.72" y1="79.15" x2="113.72" y2="43.20" stroke="#333" stroke-width="1"/>
<line x1="111.72" y1="79.15" x2="115.72" y2="79.15" stroke="#333" stroke-width="1"/>
<line x1="111.72" y1="43.20" x2="115.72" y2="43.20" stroke="#333" stroke-width="1"/>
<text x="106.4" y="204" text-anchor="end" font-size="9" fill="#2196F3" transform="rotate(-45,106.4,204)">Social</text>
<rect x="131.56" y="104.88" width="14.62" height="85.12" fill="#2E7D32" opacity="0.85"><title>Partner Identity: 3.695 ×10⁻³</title></rect>
<line x1="138.87" y1="119.00" x2="138.87" y2="97.87" stroke="#333" stroke-width="1"/>
<line x1="136.87" y1="119.00" x2="140.87" y2="119.00" stroke="#333" stroke-width="1"/>
<line x1="136.87" y1="97.87" x2="140.87" y2="97.87" stroke="#333" stroke-width="1"/>
<rect x="148.18" y="72.33" width="14.62" height="117.67" fill="#616161" opacity="0.85"><title>Control: 5.107 ×10⁻³</title></rect>
<line x1="155.49" y1="92.37" x2="155.49" y2="60.13" stroke="#333" stroke-width="1"/>
<line x1="153.49" y1="92.37" x2="157.49" y2="92.37" stroke="#333" stroke-width="1"/>
<line x1="153.49" y1="60.13" x2="157.49" y2="60.13" stroke="#333" stroke-width="1"/>
<text x="148.2" y="204" text-anchor="end" font-size="9" fill="#2196F3" transform="rotate(-45,148.2,204)">Attention</text>
<rect x="173.32" y="104.91" width="14.62" height="85.09" fill="#2E7D32" opacity="0.85"><title>Partner Identity: 3.693 ×10⁻³</title></rect>
<line x1="180.63" y1="118.75" x2="180.63" y2="98.60" stroke="#333" stroke-width="1"/>
<line x1="178.63" y1="118.75" x2="182.63" y2="118.75" stroke="#333" stroke-width="1"/>
<line x1="178.63" y1="98.60" x2="182.63" y2="98.60" stroke="#333" stroke-width="1"/>
<rect x="189.94" y="60.70" width="14.62" height="129.30" fill="#616161" opacity="0.85"><title>Control: 5.612 ×10⁻³</title></rect>
<line x1="197.25" y1="82.94" x2="197.25" y2="47.31" stroke="#333" stroke-width="1"/>
<line x1="195.25" y1="82.94" x2="199.25" y2="82.94" stroke="#333" stroke-width="1"/>
<line x1="195.25" y1="47.31" x2="199.25" y2="47.31" stroke="#333" stroke-width="1"/>
<text x="189.9" y="204" text-anchor="end" font-size="9" fill="#2196F3" transform="rotate(-45,189.9,204)">Prediction</text>
<rect x="215.09" y="109.96" width="14.62" height="80.04" fill="#2E7D32" opacity="0.85"><title>Partner Identity: 3.474 ×10⁻³</title></rect>
<line x1="222.40" y1="127.62" x2="222.40" y2="100.72" stroke="#333" stroke-width="1"/>
<line x1="220.40" y1="127.62" x2="224.40" y2="127.62" stroke="#333" stroke-width="1"/>
<line x1="220.40" y1="100.72" x2="224.40" y2="100.72" stroke="#333" stroke-width="1"/>
<rect x="231.71" y="43.31" width="14.62" height="146.69" fill="#616161" opacity="0.85"><title>Control: 6.367 ×10⁻³</title></rect>
<line x1="239.01" y1="75.36" x2="239.01" y2="25.50" stroke="#333" stroke-width="1"/>
<line x1="237.01" y1="75.36" x2="241.01" y2="75.36" stroke="#333" stroke-width="1"/>
<line x1="237.01" y1="25.50" x2="241.01" y2="25.50" stroke="#333" stroke-width="1"/>
<text x="231.7" y="204" text-anchor="end" font-size="9" fill="#2196F3" transform="rotate(-45,231.7,204)">Roles</text>
<rect x="256.85" y="113.76" width="14.62" height="76.24" fill="#2E7D32" opacity="0.85"><title>Partner Identity: 3.309 ×10⁻³</title></rect>
<line x1="264.16" y1="125.17" x2="264.16" y2="109.32" stroke="#333" stroke-width="1"/>
<line x1="262.16" y1="125.17" x2="266.16" y2="125.17" stroke="#333" stroke-width="1"/>
<line x1="262.16" y1="109.32" x2="266.16" y2="109.32" stroke="#333" stroke-width="1"/>
<rect x="273.47" y="68.96" width="14.62" height="121.04" fill="#616161" opacity="0.85"><title>Control: 5.253 ×10⁻³</title></rect>
<line x1="280.78" y1="87.69" x2="280.78" y2="60.74" stroke="#333" stroke-width="1"/>
<line x1="278.78" y1="87.69" x2="282.78" y2="87.69" stroke="#333" stroke-width="1"/>
<line x1="278.78" y1="60.74" x2="282.78" y2="60.74" stroke="#333" stroke-width="1"/>
<text x="273.5" y="204" text-anchor="end" font-size="9" fill="#2196F3" transform="rotate(-45,273.5,204)">Agency</text>
<rect x="298.62" y="118.57" width="14.62" height="71.43" fill="#2E7D32" opacity="0.85"><title>Partner Identity: 3.100 ×10⁻³</title></rect>
<line x1="305.93" y1="130.77" x2="305.93" y2="109.86" stroke="#333" stroke-width="1"/>
<line x1="303.93" y1="130.77" x2="307.93" y2="130.77" stroke="#333" stroke-width="1"/>
<line x1="303.93" y1="109.86" x2="307.93" y2="109.86" stroke="#333" stroke-width="1"/>
<rect x="315.24" y="90.40" width="14.62" height="99.60" fill="#616161" opacity="0.85"><title>Control: 4.323 ×10⁻³</title></rect>
<line x1="322.54" y1="107.36" x2="322.54" y2="78.72" stroke="#333" stroke-width="1"/>
<line x1="320.54" y1="107.36" x2="324.54" y2="107.36" stroke="#333" stroke-width="1"/>
<line x1="320.54" y1="78.72" x2="324.54" y2="78.72" stroke="#333" stroke-width="1"/>
<text x="315.2" y="204" text-anchor="end" font-size="9" fill="#2196F3" transform="rotate(-45,315.2,204)">Cognitive</text>
<rect x="340.38" y="123.68" width="14.62" height="66.32" fill="#2E7D32" opacity="0.85"><title>Partner Identity: 2.878 ×10⁻³</title></rect>
<line x1="347.69" y1="136.54" x2="347.69" y2="118.12" stroke="#333" stroke-width="1"/>
<line x1="345.69" y1="136.54" x2="349.69" y2="136.54" stroke="#333" stroke-width="1"/>
<line x1="345.69" y1="118.12" x2="349.69" y2="118.12" stroke="#333" stroke-width="1"/>
<rect x="357.00" y="47.91" width="14.62" height="142.09" fill="#616161" opacity="0.85"><title>Control: 6.167 ×10⁻³</title></rect>
<line x1="364.31" y1="74.98" x2="364.31" y2="37.99" stroke="#333" stroke-width="1"/>
<line x1="362.31" y1="74.98" x2="366.31" y2="74.98" stroke="#333" stroke-width="1"/>
<line x1="362.31" y1="37.99" x2="366.31" y2="37.99" stroke="#333" stroke-width="1"/>
<text x="357.0" y="204" text-anchor="end" font-size="9" fill="#2196F3" transform="rotate(-45,357.0,204)">Animacy</text>
<rect x="382.15" y="124.43" width="14.62" height="65.57" fill="#2E7D32" opacity="0.85"><title>Partner Identity: 2.846 ×10⁻³</title></rect>
<line x1="389.46" y1="134.99" x2="389.46" y2="119.29" stroke="#333" stroke-width="1"/>
<line x1="387.46" y1="134.99" x2="391.46" y2="134.99" stroke="#333" stroke-width="1"/>
<line x1="387.46" y1="119.29" x2="391.46" y2="119.29" stroke="#333" stroke-width="1"/>
<rect x="398.76" y="82.83" width="14.62" height="107.17" fill="#616161" opacity="0.85"><title>Control: 4.652 ×10⁻³</title></rect>
<line x1="406.07" y1="102.11" x2="406.07" y2="70.42" stroke="#333" stroke-width="1"/>
<line x1="404.07" y1="102.11" x2="408.07" y2="102.11" stroke="#333" stroke-width="1"/>
<line x1="404.07" y1="70.42" x2="408.07" y2="70.42" stroke="#333" stroke-width="1"/>
<text x="398.8" y="204" text-anchor="end" font-size="9" fill="#2196F3" transform="rotate(-45,398.8,204)">Intentions</text>
<rect x="423.91" y="128.27" width="14.62" height="61.73" fill="#2E7D32" opacity="0.85"><title>Partner Identity: 2.679 ×10⁻³</title></rect>
<line x1="431.22" y1="136.01" x2="431.22" y2="125.02" stroke="#333" stroke-width="1"/>
<line x1="429.22" y1="136.01" x2="433.22" y2="136.01" stroke="#333" stroke-width="1"/>
<line x1="429.22" y1="125.02" x2="433.22" y2="125.02" stroke="#333" stroke-width="1"/>
<rect x="440.53" y="99.05" width="14.62" height="90.95" fill="#616161" opacity="0.85"><title>Control: 3.947 ×10⁻³</title></rect>
<line x1="447.84" y1="110.38" x2="447.84" y2="93.06" stroke="#333" stroke-width="1"/>
<line x1="445.84" y1="110.38" x2="449.84" y2="110.38" stroke="#333" stroke-width="1"/>
<line x1="445.84" y1="93.06" x2="449.84" y2="93.06" stroke="#333" stroke-width="1"/>
<text x="440.5" y="204" text-anchor="end" font-size="9" fill="#2196F3" transform="rotate(-45,440.5,204)">Emotions</text>
<rect x="465.68" y="131.02" width="14.62" height="58.98" fill="#2E7D32" opacity="0.85"><title>Partner Identity: 2.560 ×10⁻³</title></rect>
<line x1="472.99" y1="142.18" x2="472.99" y2="125.05" stroke="#333" stroke-width="1"/>
<line x1="470.99" y1="142.18" x2="474.99" y2="142.18" stroke="#333" stroke-width="1"/>
<line x1="470.99" y1="125.05" x2="474.99" y2="125.05" stroke="#333" stroke-width="1"/>
<rect x="482.29" y="72.68" width="14.62" height="117.32" fill="#616161" opacity="0.85"><title>Control: 5.092 ×10⁻³</title></rect>
<line x1="489.60" y1="96.05" x2="489.60" y2="59.27" stroke="#333" stroke-width="1"/>
<line x1="487.60" y1="96.05" x2="491.60" y2="96.05" stroke="#333" stroke-width="1"/>
<line x1="487.60" y1="59.27" x2="491.60" y2="59.27" stroke="#333" stroke-width="1"/>
<text x="482.3" y="204" text-anchor="end" font-size="9" fill="#2196F3" transform="rotate(-45,482.3,204)">Embodiment</text>
<rect x="507.44" y="131.17" width="14.62" height="58.83" fill="#2E7D32" opacity="0.85"><title>Partner Identity: 2.553 ×10⁻³</title></rect>
<line x1="514.75" y1="141.81" x2="514.75" y2="126.57" stroke="#333" stroke-width="1"/>
<line x1="512.75" y1="141.81" x2="516.75" y2="141.81" stroke="#333" stroke-width="1"/>
<line x1="512.75" y1="126.57" x2="516.75" y2="126.57" stroke="#333" stroke-width="1"/>
<rect x="524.06" y="85.37" width="14.62" height="104.63" fill="#616161" opacity="0.85"><title>Control: 4.541 ×10⁻³</title></rect>
<line x1="531.37" y1="104.72" x2="531.37" y2="73.60" stroke="#333" stroke-width="1"/>
<line x1="529.37" y1="104.72" x2="533.37" y2="104.72" stroke="#333" stroke-width="1"/>
<line x1="529.37" y1="73.60" x2="533.37" y2="73.60" stroke="#333" stroke-width="1"/>
<text x="524.1" y="204" text-anchor="end" font-size="9" fill="#2196F3" transform="rotate(-45,524.1,204)">Phenomenology</text>
<rect x="549.21" y="179.60" width="14.62" height="10.40" fill="#2E7D32" opacity="0.85"><title>Partner Identity: 0.452 ×10⁻³</title></rect>
<line x1="556.51" y1="184.80" x2="556.51" y2="175.36" stroke="#333" stroke-width="1"/>
<line x1="554.51" y1="184.80" x2="558.51" y2="184.80" stroke="#333" stroke-width="1"/>
<line x1="554.51" y1="175.36" x2="558.51" y2="175.36" stroke="#333" stroke-width="1"/>
<rect x="565.82" y="182.69" width="14.62" height="7.31" fill="#616161" opacity="0.85"><title>Control: 0.317 ×10⁻³</title></rect>
<line x1="573.13" y1="185.20" x2="573.13" y2="174.76" stroke="#333" stroke-width="1"/>
<line x1="571.13" y1="185.20" x2="575.13" y2="185.20" stroke="#333" stroke-width="1"/>
<line x1="571.13" y1="174.76" x2="575.13" y2="174.76" stroke="#333" stroke-width="1"/>
<text x="565.8" y="204" text-anchor="end" font-size="9" fill="#FF9800" transform="rotate(-45,565.8,204)">Helpfulness</text>
<rect x="590.97" y="182.66" width="14.62" height="7.34" fill="#2E7D32" opacity="0.85"><title>Partner Identity: 0.318 ×10⁻³</title></rect>
<line x1="598.28" y1="184.00" x2="598.28" y2="180.22" stroke="#333" stroke-width="1"/>
<line x1="596.28" y1="184.00" x2="600.28" y2="184.00" stroke="#333" stroke-width="1"/>
<line x1="596.28" y1="180.22" x2="600.28" y2="180.22" stroke="#333" stroke-width="1"/>
<rect x="607.59" y="176.90" width="14.62" height="13.10" fill="#616161" opacity="0.85"><title>Control: 0.569 ×10⁻³</title></rect>
<line x1="614.90" y1="179.57" x2="614.90" y2="173.00" stroke="#333" stroke-width="1"/>
<line x1="612.90" y1="179.57" x2="616.90" y2="179.57" stroke="#333" stroke-width="1"/>
<line x1="612.90" y1="173.00" x2="616.90" y2="173.00" stroke="#333" stroke-width="1"/>
<text x="607.6" y="204" text-anchor="end" font-size="9" fill="#FF9800" transform="rotate(-45,607.6,204)">Expertise</text>
<rect x="632.74" y="185.37" width="14.62" height="4.63" fill="#2E7D32" opacity="0.85"><title>Partner Identity: 0.201 ×10⁻³</title></rect>
<line x1="640.04" y1="186.71" x2="640.04" y2="183.11" stroke="#333" stroke-width="1"/>
<line x1="638.04" y1="186.71" x2="642.04" y2="186.71" stroke="#333" stroke-width="1"/>
<line x1="638.04" y1="183.11" x2="642.04" y2="183.11" stroke="#333" stroke-width="1"/>
<rect x="649.35" y="183.45" width="14.62" height="6.55" fill="#616161" opacity="0.85"><title>Control: 0.284 ×10⁻³</title></rect>
<line x1="656.66" y1="185.06" x2="656.66" y2="179.73" stroke="#333" stroke-width="1"/>
<line x1="654.66" y1="185.06" x2="658.66" y2="185.06" stroke="#333" stroke-width="1"/>
<line x1="654.66" y1="179.73" x2="658.66" y2="179.73" stroke="#333" stroke-width="1"/>
<text x="649.4" y="204" text-anchor="end" font-size="9" fill="#FF9800" transform="rotate(-45,649.4,204)">Formality</text>
<rect x="674.50" y="71.46" width="14.62" height="118.54" fill="#2E7D32" opacity="0.85"><title>Partner Identity: 5.145 ×10⁻³</title></rect>
<line x1="681.81" y1="88.84" x2="681.81" y2="49.50" stroke="#333" stroke-width="1"/>
<line x1="679.81" y1="88.84" x2="683.81" y2="88.84" stroke="#333" stroke-width="1"/>
<line x1="679.81" y1="49.50" x2="683.81" y2="49.50" stroke="#333" stroke-width="1"/>
<rect x="691.12" y="102.57" width="14.62" height="87.43" fill="#616161" opacity="0.85"><title>Control: 3.795 ×10⁻³</title></rect>
<line x1="698.43" y1="114.76" x2="698.43" y2="92.55" stroke="#333" stroke-width="1"/>
<line x1="696.43" y1="114.76" x2="700.43" y2="114.76" stroke="#333" stroke-width="1"/>
<line x1="696.43" y1="92.55" x2="700.43" y2="92.55" stroke="#333" stroke-width="1"/>
<text x="691.1" y="204" text-anchor="end" font-size="9" fill="#00BCD4" transform="rotate(-45,691.1,204)">SysPrompt</text>
<line x1="0" y1="190" x2="710" y2="190" stroke="#333"/>
<line x1="0" y1="0" x2="0" y2="190" stroke="#333"/>
</g>
<rect x="70" y="320" width="10" height="10" fill="#2E7D32"/>
<text x="84" y="328" font-size="9" fill="#333">Partner Identity</text>
<rect x="210" y="320" width="10" height="10" fill="#616161"/>
<text x="224" y="328" font-size="9" fill="#333">Control</text>
</svg>