<svg viewBox="0 0 800 320" xmlns="http://www.w3.org/2000/svg" style="width:100%;max-width:800px;height:auto;font-family:Arial,sans-serif;">
<rect width="800" height="320" fill="white"/>

<g transform="translate(70,30)">
<line x1="0" y1="180.0" x2="710" y2="180.0" stroke="#eee" stroke-width="1"/>
<text x="-8" y="184.0" text-anchor="end" font-size="10" fill="#666">0.00</text>
<line x1="0" y1="144.0" x2="710" y2="144.0" stroke="#eee" stroke-width="1"/>
<text x="-8" y="148.0" text-anchor="end" font-size="10" fill="#666">1.65</text>
<line x1="0" y1="108.0" x2="710" y2="108.0" stroke="#eee" stroke-width="1"/>
<text x="-8" y="112.0" text-anchor="end" font-size="10" fill="#666">3.30</text>
<line x1="0" y1="72.0" x2="710" y2="72.0" stroke="#eee" stroke-width="1"/>
<text x="-8" y="76.0" text-anchor="end" font-size="10" fill="#666">4.95</text>
<line x1="0" y1="36.0" x2="710" y2="36.0" stroke="#eee" stroke-width="1"/>
<text x="-8" y="40.0" text-anchor="end" font-size="10" fill="#666">6.60</text>
<line x1="0" y1="0.0" x2="710" y2="0.0" stroke="#eee" stroke-width="1"/>
<text x="-8" y="4.0" text-anchor="end" font-size="10" fill="#666">8.25</text>
<text x="-50" y="90.0" text-anchor="middle" font-size="11" fill="#333" transform="rotate(-90,-50,90.0)">Mean R² (×10⁻³)</text>
<rect x="8.19" y="169.25" width="19.12" height="10.75" fill="#81C784" opacity="0.85"><title>Partner Identity — Social: 0.493 ×10⁻³</title></rect>
<line x1="17.75" y1="171.67" x2="17.75" y2="167.33" stroke="#333" stroke-width="1"/>
<line x1="15.75" y1="171.67" x2="19.75" y2="171.67" stroke="#333" stroke-width="1"/>
<line x1="15.75" y1="167.33" x2="19.75" y2="167.33" stroke="#333" stroke-width="1"/>
<rect x="29.31" y="167.68" width="19.12" height="12.32" fill="#BDBDBD" opacity="0.85"><title>Control — Social: 0.564 ×10⁻³</title></rect>
<line x1="38.87" y1="170.20" x2="38.87" y2="165.37" stroke="#333" stroke-width="1"/>
<line x1="36.87" y1="170.20" x2="40.87" y2="170.20" stroke="#333" stroke-width="1"/>
<line x1="36.87" y1="165.37" x2="40.87" y2="165.37" stroke="#333" stroke-width="1"/>
<text x="29.3" y="194" text-anchor="end" font-size="10" fill="#2196F3" transform="rotate(-30,29.3,194)">Social</text>
<rect x="62.81" y="171.24" width="19.12" height="8.76" fill="#81C784" opacity="0.85"><title>Partner Identity — Attention: 0.401 ×10⁻³</title></rect>
<line x1="72.37" y1="172.77" x2="72.37" y2="170.00" stroke="#333" stroke-width="1"/>
<line x1="70.37" y1="172.77" x2="74.37" y2="172.77" stroke="#333" stroke-width="1"/>
<line x1="70.37" y1="170.00" x2="74.37" y2="170.00" stroke="#333" stroke-width="1"/>
<rect x="83.92" y="169.16" width="19.12" height="10.84" fill="#BDBDBD" opacity="0.85"><title>Control — Attention: 0.497 ×10⁻³</title></rect>
<line x1="93.48" y1="171.02" x2="93.48" y2="167.83" stroke="#333" stroke-width="1"/>
<line x1="91.48" y1="171.02" x2="95.48" y2="171.02" stroke="#333" stroke-width="1"/>
<line x1="91.48" y1="167.83" x2="95.48" y2="167.83" stroke="#333" stroke-width="1"/>
<text x="83.9" y="194" text-anchor="end" font-size="10" fill="#2196F3" transform="rotate(-30,83.9,194)">Attention</text>
<rect x="117.42" y="172.66" width="19.12" height="7.34" fill="#81C784" opacity="0.85"><title>Partner Identity — Prediction: 0.336 ×10⁻³</title></rect>
<line x1="126.98" y1="174.66" x2="126.98" y2="169.88" stroke="#333" stroke-width="1"/>
<line x1="124.98" y1="174.66" x2="128.98" y2="174.66" stroke="#333" stroke-width="1"/>
<line x1="124.98" y1="169.88" x2="128.98" y2="169.88" stroke="#333" stroke-width="1"/>
<rect x="138.54" y="169.88" width="19.12" height="10.12" fill="#BDBDBD" opacity="0.85"><title>Control — Prediction: 0.464 ×10⁻³</title></rect>
<line x1="148.10" y1="172.06" x2="148.10" y2="167.17" stroke="#333" stroke-width="1"/>
<line x1="146.10" y1="172.06" x2="150.10" y2="172.06" stroke="#333" stroke-width="1"/>
<line x1="146.10" y1="167.17" x2="150.10" y2="167.17" stroke="#333" stroke-width="1"/>
<text x="138.5" y="194" text-anchor="end" font-size="10" fill="#2196F3" transform="rotate(-30,138.5,194)">Prediction</text>
<rect x="172.04" y="173.85" width="19.12" height="6.15" fill="#81C784" opacity="0.85"><title>Partner Identity — Roles: 0.282 ×10⁻³</title></rect>
<line x1="181.60" y1="174.69" x2="181.60" y2="172.69" stroke="#333" stroke-width="1"/>
<line x1="179.60" y1="174.69" x2="183.60" y2="174.69" stroke="#333" stroke-width="1"/>
<line x1="179.60" y1="172.69" x2="183.60" y2="172.69" stroke="#333" stroke-width="1"/>
<rect x="193.15" y="169.97" width="19.12" height="10.03" fill="#BDBDBD" opacity="0.85"><title>Control — Roles: 0.459 ×10⁻³</title></rect>
<line x1="202.71" y1="171.65" x2="202.71" y2="168.35" stroke="#333" stroke-width="1"/>
<line x1="200.71" y1="171.65" x2="204.71" y2="171.65" stroke="#333" stroke-width="1"/>
<line x1="200.71" y1="168.35" x2="204.71" y2="168.35" stroke="#333" stroke-width="1"/>
<text x="193.2" y="194" text-anchor="end" font-size="10" fill="#2196F3" transform="rotate(-30,193.2,194)">Roles</text>
<rect x="226.65" y="174.09" width="19.12" height="5.91" fill="#81C784" opacity="0.85"><title>Partner Identity — Agency: 0.271 ×10⁻³</title></rect>
<line x1="236.21" y1="175.05" x2="236.21" y2="172.73" stroke="#333" stroke-width="1"/>
<line x1="234.21" y1="175.05" x2="238.21" y2="175.05" stroke="#333" stroke-width="1"/>
<line x1="234.21" y1="172.73" x2="238.21" y2="172.73" stroke="#333" stroke-width="1"/>
<rect x="247.77" y="170.30" width="19.12" height="9.70" fill="#BDBDBD" opacity="0.85"><title>Control — Agency: 0.444 ×10⁻³</title></rect>
<line x1="257.33" y1="172.06" x2="257.33" y2="168.53" stroke="#333" stroke-width="1"/>
<line x1="255.33" y1="172.06" x2="259.33" y2="172.06" stroke="#333" stroke-width="1"/>
<line x1="255.33" y1="168.53" x2="259.33" y2="168.53" stroke="#333" stroke-width="1"/>
<text x="247.8" y="194" text-anchor="end" font-size="10" fill="#2196F3" transform="rotate(-30,247.8,194)">Agency</text>
<rect x="281.27" y="171.21" width="19.12" height="8.79" fill="#81C784" opacity="0.85"><title>Partner Identity — Cognitive: 0.403 ×10⁻³</title></rect>
<line x1="290.83" y1="172.51" x2="290.83" y2="170.17" stroke="#333" stroke-width="1"/>
<line x1="288.83" y1="172.51" x2="292.83" y2="172.51" stroke="#333" stroke-width="1"/>
<line x1="288.83" y1="170.17" x2="292.83" y2="170.17" stroke="#333" stroke-width="1"/>
<rect x="302.38" y="168.55" width="19.12" height="11.45" fill="#BDBDBD" opacity="0.85"><title>Control — Cognitive: 0.525 ×10⁻³</title></rect>
<line x1="311.94" y1="170.54" x2="311.94" y2="167.37" stroke="#333" stroke-width="1"/>
<line x1="309.94" y1="170.54" x2="313.94" y2="170.54" stroke="#333" stroke-width="1"/>
<line x1="309.94" y1="167.37" x2="313.94" y2="167.37" stroke="#333" stroke-width="1"/>
<text x="302.4" y="194" text-anchor="end" font-size="10" fill="#2196F3" transform="rotate(-30,302.4,194)">Cognitive</text>
<rect x="335.88" y="173.32" width="19.12" height="6.68" fill="#81C784" opacity="0.85"><title>Partner Identity — Animacy: 0.306 ×10⁻³</title></rect>
<line x1="345.44" y1="174.39" x2="345.44" y2="172.41" stroke="#333" stroke-width="1"/>
<line x1="343.44" y1="174.39" x2="347.44" y2="174.39" stroke="#333" stroke-width="1"/>
<line x1="343.44" y1="172.41" x2="347.44" y2="172.41" stroke="#333" stroke-width="1"/>
<rect x="357.00" y="170.38" width="19.12" height="9.62" fill="#BDBDBD" opacity="0.85"><title>Control — Animacy: 0.441 ×10⁻³</title></rect>
<line x1="366.56" y1="172.07" x2="366.56" y2="169.07" stroke="#333" stroke-width="1"/>
<line x1="364.56" y1="172.07" x2="368.56" y2="172.07" stroke="#333" stroke-width="1"/>
<line x1="364.56" y1="169.07" x2="368.56" y2="169.07" stroke="#333" stroke-width="1"/>
<text x="357.0" y="194" text-anchor="end" font-size="10" fill="#2196F3" transform="rotate(-30,357.0,194)">Animacy</text>
<rect x="390.50" y="173.40" width="19.12" height="6.60" fill="#81C784" opacity="0.85"><title>Partner Identity — Intentions: 0.302 ×10⁻³</title></rect>
<line x1="400.06" y1="174.74" x2="400.06" y2="172.16" stroke="#333" stroke-width="1"/>
<line x1="398.06" y1="174.74" x2="402.06" y2="174.74" stroke="#333" stroke-width="1"/>
<line x1="398.06" y1="172.16" x2="402.06" y2="172.16" stroke="#333" stroke-width="1"/>
<rect x="411.62" y="167.78" width="19.12" height="12.22" fill="#BDBDBD" opacity="0.85"><title>Control — Intentions: 0.560 ×10⁻³</title></rect>
<line x1="421.17" y1="170.50" x2="421.17" y2="165.80" stroke="#333" stroke-width="1"/>
<line x1="419.17" y1="170.50" x2="423.17" y2="170.50" stroke="#333" stroke-width="1"/>
<line x1="419.17" y1="165.80" x2="423.17" y2="165.80" stroke="#333" stroke-width="1"/>
<text x="411.6" y="194" text-anchor="end" font-size="10" fill="#2196F3" transform="rotate(-30,411.6,194)">Intentions</text>
<rect x="445.12" y="174.60" width="19.12" height="5.40" fill="#81C784" opacity="0.85"><title>Partner Identity — Emotions: 0.247 ×10⁻³</title></rect>
<line x1="454.67" y1="175.38" x2="454.67" y2="173.67" stroke="#333" stroke-width="1"/>
<line x1="452.67" y1="175.38" x2="456.67" y2="175.38" stroke="#333" stroke-width="1"/>
<line x1="452.67" y1="173.67" x2="456.67" y2="173.67" stroke="#333" stroke-width="1"/>
<rect x="466.23" y="172.02" width="19.12" height="7.98" fill="#BDBDBD" opacity="0.85"><title>Control — Emotions: 0.366 ×10⁻³</title></rect>
<line x1="475.79" y1="173.40" x2="475.79" y2="170.62" stroke="#333" stroke-width="1"/>
<line x1="473.79" y1="173.40" x2="477.79" y2="173.40" stroke="#333" stroke-width="1"/>
<line x1="473.79" y1="170.62" x2="477.79" y2="170.62" stroke="#333" stroke-width="1"/>
<text x="466.2" y="194" text-anchor="end" font-size="10" fill="#2196F3" transform="rotate(-30,466.2,194)">Emotions</text>
<rect x="499.73" y="174.55" width="19.12" height="5.45" fill="#81C784" opacity="0.85"><title>Partner Identity — Embodiment: 0.250 ×10⁻³</title></rect>
<line x1="509.29" y1="175.35" x2="509.29" y2="173.72" stroke="#333" stroke-width="1"/>
<line x1="507.29" y1="175.35" x2="511.29" y2="175.35" stroke="#333" stroke-width="1"/>
<line x1="507.29" y1="173.72" x2="511.29" y2="173.72" stroke="#333" stroke-width="1"/>
<rect x="520.85" y="172.37" width="19.12" height="7.63" fill="#BDBDBD" opacity="0.85"><title>Control — Embodiment: 0.350 ×10⁻³</title></rect>
<line x1="530.40" y1="173.55" x2="530.40" y2="171.17" stroke="#333" stroke-width="1"/>
<line x1="528.40" y1="173.55" x2="532.40" y2="173.55" stroke="#333" stroke-width="1"/>
<line x1="528.40" y1="171.17" x2="532.40" y2="171.17" stroke="#333" stroke-width="1"/>
<text x="520.8" y="194" text-anchor="end" font-size="10" fill="#2196F3" transform="rotate(-30,520.8,194)">Embodiment</text>
<rect x="554.35" y="174.47" width="19.12" height="5.53" fill="#81C784" opacity="0.85"><title>Partner Identity — Phenomenology: 0.253 ×10⁻³</title></rect>
<line x1="563.90" y1="175.23" x2="563.90" y2="173.52" stroke="#333" stroke-width="1"/>
<line x1="561.90" y1="175.23" x2="565.90" y2="175.23" stroke="#333" stroke-width="1"/>
<line x1="561.90" y1="173.52" x2="565.90" y2="173.52" stroke="#333" stroke-width="1"/>
<rect x="575.46" y="171.80" width="19.12" height="8.20" fill="#BDBDBD" opacity="0.85"><title>Control — Phenomenology: 0.376 ×10⁻³</title></rect>
<line x1="585.02" y1="173.42" x2="585.02" y2="170.10" stroke="#333" stroke-width="1"/>
<line x1="583.02" y1="173.42" x2="587.02" y2="173.42" stroke="#333" stroke-width="1"/>
<line x1="583.02" y1="170.10" x2="587.02" y2="170.10" stroke="#333" stroke-width="1"/>
<text x="575.5" y="194" text-anchor="end" font-size="10" fill="#2196F3" transform="rotate(-30,575.5,194)">Phenomenology</text>
<line x1="600.7692307692307" y1="0" x2="600.7692307692307" y2="180" stroke="#ccc" stroke-width="1" stroke-dasharray="4,3"/>
<rect x="608.96" y="174.04" width="19.12" height="5.96" fill="#81C784" opacity="0.5"><title>Partner Identity — Biological: 0.273 ×10⁻³</title></rect>
<line x1="618.52" y1="174.75" x2="618.52" y2="173.29" stroke="#333" stroke-width="1"/>
<line x1="616.52" y1="174.75" x2="620.52" y2="174.75" stroke="#333" stroke-width="1"/>
<line x1="616.52" y1="173.29" x2="620.52" y2="173.29" stroke="#333" stroke-width="1"/>
<rect x="630.08" y="174.22" width="19.12" height="5.78" fill="#BDBDBD" opacity="0.5"><title>Control — Biological: 0.265 ×10⁻³</title></rect>
<line x1="639.63" y1="174.97" x2="639.63" y2="173.30" stroke="#333" stroke-width="1"/>
<line x1="637.63" y1="174.97" x2="641.63" y2="174.97" stroke="#333" stroke-width="1"/>
<line x1="637.63" y1="173.30" x2="641.63" y2="173.30" stroke="#333" stroke-width="1"/>
<text x="630.1" y="194" text-anchor="end" font-size="10" fill="#9E9E9E" transform="rotate(-30,630.1,194)">Biological</text>
<rect x="663.58" y="174.06" width="19.12" height="5.94" fill="#81C784" opacity="0.5"><title>Partner Identity — Shapes: 0.272 ×10⁻³</title></rect>
<line x1="673.13" y1="176.08" x2="673.13" y2="172.38" stroke="#333" stroke-width="1"/>
<line x1="671.13" y1="176.08" x2="675.13" y2="176.08" stroke="#333" stroke-width="1"/>
<line x1="671.13" y1="172.38" x2="675.13" y2="172.38" stroke="#333" stroke-width="1"/>
<rect x="684.69" y="169.64" width="19.12" height="10.36" fill="#BDBDBD" opacity="0.5"><title>Control — Shapes: 0.475 ×10⁻³</title></rect>
<line x1="694.25" y1="173.73" x2="694.25" y2="167.27" stroke="#333" stroke-width="1"/>
<line x1="692.25" y1="173.73" x2="696.25" y2="173.73" stroke="#333" stroke-width="1"/>
<line x1="692.25" y1="167.27" x2="696.25" y2="167.27" stroke="#333" stroke-width="1"/>
<text x="684.7" y="194" text-anchor="end" font-size="10" fill="#9E9E9E" transform="rotate(-30,684.7,194)">Shapes</text>
<line x1="0" y1="180" x2="710" y2="180" stroke="#333"/>
<line x1="0" y1="0" x2="0" y2="180" stroke="#333"/>
</g>
<rect x="70" y="300" width="10" height="10" fill="#81C784"/>
<text x="84" y="308" font-size="9" fill="#333">Partner Identity</text>
<rect x="210" y="300" width="10" height="10" fill="#BDBDBD"/>
<text x="224" y="308" font-size="9" fill="#333">Control</text>
</svg>