<svg viewBox="0 0 700 360" xmlns="http://www.w3.org/2000/svg" style="width:100%;max-width:700px;height:auto;font-family:Arial,sans-serif;">
<rect width="700" height="360" fill="white"/>

<g transform="translate(70,30)">
<line x1="0" y1="210.0" x2="610" y2="210.0" stroke="#eee" stroke-width="1"/>
<text x="-8" y="214.0" text-anchor="end" font-size="10" fill="#666">0.00</text>
<line x1="0" y1="168.0" x2="610" y2="168.0" stroke="#eee" stroke-width="1"/>
<text x="-8" y="172.0" text-anchor="end" font-size="10" fill="#666">2.24</text>
<line x1="0" y1="126.0" x2="610" y2="126.0" stroke="#eee" stroke-width="1"/>
<text x="-8" y="130.0" text-anchor="end" font-size="10" fill="#666">4.47</text>
<line x1="0" y1="84.0" x2="610" y2="84.0" stroke="#eee" stroke-width="1"/>
<text x="-8" y="88.0" text-anchor="end" font-size="10" fill="#666">6.71</text>
<line x1="0" y1="42.0" x2="610" y2="42.0" stroke="#eee" stroke-width="1"/>
<text x="-8" y="46.0" text-anchor="end" font-size="10" fill="#666">8.94</text>
<line x1="0" y1="0.0" x2="610" y2="0.0" stroke="#eee" stroke-width="1"/>
<text x="-8" y="4.0" text-anchor="end" font-size="10" fill="#666">11.18</text>
<text x="-50" y="105.0" text-anchor="middle" font-size="11" fill="#333" transform="rotate(-90,-50,105.0)">Mean R² (×10⁻³)</text>
<line x1="305.0" y1="0" x2="305.0" y2="210" stroke="#ccc" stroke-width="1" stroke-dasharray="4,3"/>
<rect x="15.25" y="72.81" width="35.58" height="137.19" fill="#2E7D32" opacity="0.85"><title>Partner Identity — Human vs AI (general): 7.302 ×10⁻³</title></rect>
<line x1="33.04" y1="103.93" x2="33.04" y2="63.61" stroke="#333" stroke-width="1"/>
<line x1="31.04" y1="103.93" x2="35.04" y2="103.93" stroke="#333" stroke-width="1"/>
<line x1="31.04" y1="63.61" x2="35.04" y2="63.61" stroke="#333" stroke-width="1"/>
<rect x="52.83" y="183.47" width="35.58" height="26.53" fill="#616161" opacity="0.85"><title>Control — Human vs AI (general): 1.412 ×10⁻³</title></rect>
<line x1="70.62" y1="192.54" x2="70.62" y2="175.77" stroke="#333" stroke-width="1"/>
<line x1="68.62" y1="192.54" x2="72.62" y2="192.54" stroke="#333" stroke-width="1"/>
<line x1="68.62" y1="175.77" x2="72.62" y2="175.77" stroke="#333" stroke-width="1"/>
<text x="52.8" y="224" text-anchor="end" font-size="10" fill="#9E9E9E" transform="rotate(-30,52.8,224)">Human vs AI (general)</text>
<rect x="116.92" y="144.48" width="35.58" height="65.52" fill="#2E7D32" opacity="0.85"><title>Partner Identity — Biological: 3.487 ×10⁻³</title></rect>
<line x1="134.71" y1="153.25" x2="134.71" y2="137.57" stroke="#333" stroke-width="1"/>
<line x1="132.71" y1="153.25" x2="136.71" y2="153.25" stroke="#333" stroke-width="1"/>
<line x1="132.71" y1="137.57" x2="136.71" y2="137.57" stroke="#333" stroke-width="1"/>
<rect x="154.50" y="182.68" width="35.58" height="27.32" fill="#616161" opacity="0.85"><title>Control — Biological: 1.454 ×10⁻³</title></rect>
<line x1="172.29" y1="188.77" x2="172.29" y2="177.44" stroke="#333" stroke-width="1"/>
<line x1="170.29" y1="188.77" x2="174.29" y2="188.77" stroke="#333" stroke-width="1"/>
<line x1="170.29" y1="177.44" x2="174.29" y2="177.44" stroke="#333" stroke-width="1"/>
<text x="154.5" y="224" text-anchor="end" font-size="10" fill="#9E9E9E" transform="rotate(-30,154.5,224)">Biological</text>
<rect x="218.58" y="199.39" width="35.58" height="10.61" fill="#2E7D32" opacity="0.85"><title>Partner Identity — Shapes: 0.565 ×10⁻³</title></rect>
<line x1="236.38" y1="205.00" x2="236.38" y2="189.80" stroke="#333" stroke-width="1"/>
<line x1="234.38" y1="205.00" x2="238.38" y2="205.00" stroke="#333" stroke-width="1"/>
<line x1="234.38" y1="189.80" x2="238.38" y2="189.80" stroke="#333" stroke-width="1"/>
<rect x="256.17" y="204.40" width="35.58" height="5.60" fill="#616161" opacity="0.85"><title>Control — Shapes: 0.298 ×10⁻³</title></rect>
<line x1="273.96" y1="206.72" x2="273.96" y2="199.28" stroke="#333" stroke-width="1"/>
<line x1="271.96" y1="206.72" x2="275.96" y2="206.72" stroke="#333" stroke-width="1"/>
<line x1="271.96" y1="199.28" x2="275.96" y2="199.28" stroke="#333" stroke-width="1"/>
<text x="256.2" y="224" text-anchor="end" font-size="10" fill="#9E9E9E" transform="rotate(-30,256.2,224)">Shapes</text>
<rect x="320.25" y="64.34" width="35.58" height="145.66" fill="#2E7D32" opacity="0.85"><title>Partner Identity — Mental: 7.754 ×10⁻³</title></rect>
<line x1="338.04" y1="84.62" x2="338.04" y2="55.63" stroke="#333" stroke-width="1"/>
<line x1="336.04" y1="84.62" x2="340.04" y2="84.62" stroke="#333" stroke-width="1"/>
<line x1="336.04" y1="55.63" x2="340.04" y2="55.63" stroke="#333" stroke-width="1"/>
<rect x="357.83" y="186.03" width="35.58" height="23.97" fill="#616161" opacity="0.85"><title>Control — Mental: 1.276 ×10⁻³</title></rect>
<line x1="375.62" y1="192.81" x2="375.62" y2="180.40" stroke="#333" stroke-width="1"/>
<line x1="373.62" y1="192.81" x2="377.62" y2="192.81" stroke="#333" stroke-width="1"/>
<line x1="373.62" y1="180.40" x2="377.62" y2="180.40" stroke="#333" stroke-width="1"/>
<text x="357.8" y="224" text-anchor="end" font-size="10" fill="#2196F3" transform="rotate(-30,357.8,224)">Mental</text>
<rect x="421.92" y="92.83" width="35.58" height="117.17" fill="#2E7D32" opacity="0.85"><title>Partner Identity — Physical: 6.237 ×10⁻³</title></rect>
<line x1="439.71" y1="115.17" x2="439.71" y2="81.36" stroke="#333" stroke-width="1"/>
<line x1="437.71" y1="115.17" x2="441.71" y2="115.17" stroke="#333" stroke-width="1"/>
<line x1="437.71" y1="81.36" x2="441.71" y2="81.36" stroke="#333" stroke-width="1"/>
<rect x="459.50" y="186.46" width="35.58" height="23.54" fill="#616161" opacity="0.85"><title>Control — Physical: 1.253 ×10⁻³</title></rect>
<line x1="477.29" y1="191.99" x2="477.29" y2="180.73" stroke="#333" stroke-width="1"/>
<line x1="475.29" y1="191.99" x2="479.29" y2="191.99" stroke="#333" stroke-width="1"/>
<line x1="475.29" y1="180.73" x2="479.29" y2="180.73" stroke="#333" stroke-width="1"/>
<text x="459.5" y="224" text-anchor="end" font-size="10" fill="#4CAF50" transform="rotate(-30,459.5,224)">Physical</text>
<rect x="523.58" y="168.11" width="35.58" height="41.89" fill="#2E7D32" opacity="0.85"><title>Partner Identity — Pragmatic: 2.230 ×10⁻³</title></rect>
<line x1="541.38" y1="182.49" x2="541.38" y2="156.37" stroke="#333" stroke-width="1"/>
<line x1="539.38" y1="182.49" x2="543.38" y2="182.49" stroke="#333" stroke-width="1"/>
<line x1="539.38" y1="156.37" x2="543.38" y2="156.37" stroke="#333" stroke-width="1"/>
<rect x="561.17" y="200.78" width="35.58" height="9.22" fill="#616161" opacity="0.85"><title>Control — Pragmatic: 0.491 ×10⁻³</title></rect>
<line x1="578.96" y1="205.33" x2="578.96" y2="196.84" stroke="#333" stroke-width="1"/>
<line x1="576.96" y1="205.33" x2="580.96" y2="205.33" stroke="#333" stroke-width="1"/>
<line x1="576.96" y1="196.84" x2="580.96" y2="196.84" stroke="#333" stroke-width="1"/>
<text x="561.2" y="224" text-anchor="end" font-size="10" fill="#FF9800" transform="rotate(-30,561.2,224)">Pragmatic</text>
<line x1="0" y1="210" x2="610" y2="210" stroke="#333"/>
<line x1="0" y1="0" x2="0" y2="210" stroke="#333"/>
</g>
<text x="222" y="322" text-anchor="middle" font-size="10" fill="#666" font-style="italic">Control Dimensions</text>
<text x="528" y="322" text-anchor="middle" font-size="10" fill="#666" font-style="italic">Category Averages</text>
<rect x="70" y="340" width="10" height="10" fill="#2E7D32"/>
<text x="84" y="348" font-size="9" fill="#333">Partner Identity</text>
<rect x="210" y="340" width="10" height="10" fill="#616161"/>
<text x="224" y="348" font-size="9" fill="#333">Control</text>
</svg>