<svg viewBox="0 0 1100 360" xmlns="http://www.w3.org/2000/svg" style="width:100%;max-width:1100px;height:auto;font-family:Arial,sans-serif;">
<rect width="1100" height="360" fill="white"/>
<g transform="translate(70,30)">
<line x1="0" y1="200.0" x2="1010" y2="200.0" stroke="#eee" stroke-width="1"/>
<text x="-8" y="204.0" text-anchor="end" font-size="10" fill="#666">0.00</text>
<line x1="0" y1="160.0" x2="1010" y2="160.0" stroke="#eee" stroke-width="1"/>
<text x="-8" y="164.0" text-anchor="end" font-size="10" fill="#666">2.24</text>
<line x1="0" y1="120.0" x2="1010" y2="120.0" stroke="#eee" stroke-width="1"/>
<text x="-8" y="124.0" text-anchor="end" font-size="10" fill="#666">4.47</text>
<line x1="0" y1="80.0" x2="1010" y2="80.0" stroke="#eee" stroke-width="1"/>
<text x="-8" y="84.0" text-anchor="end" font-size="10" fill="#666">6.71</text>
<line x1="0" y1="40.0" x2="1010" y2="40.0" stroke="#eee" stroke-width="1"/>
<text x="-8" y="44.0" text-anchor="end" font-size="10" fill="#666">8.94</text>
<line x1="0" y1="0.0" x2="1010" y2="0.0" stroke="#eee" stroke-width="1"/>
<text x="-8" y="4.0" text-anchor="end" font-size="10" fill="#666">11.18</text>
<text x="-50" y="100.0" text-anchor="middle" font-size="11" fill="#333" transform="rotate(-90,-50,100.0)">Mean R² (×10⁻³)</text>
<rect x="5.61" y="195.06" width="22.44" height="4.94" fill="#81C784" opacity="0.85"><title>Partner Identity: 0.000276</title></rect>
<line x1="16.83" y1="196.10" x2="16.83" y2="193.62" stroke="#333" stroke-width="1"/>
<line x1="14.83" y1="196.10" x2="18.83" y2="196.10" stroke="#333" stroke-width="1"/>
<line x1="14.83" y1="193.62" x2="18.83" y2="193.62" stroke="#333" stroke-width="1"/>
<rect x="28.06" y="188.68" width="22.44" height="11.32" fill="#BDBDBD" opacity="0.85"><title>Control: 0.000633</title></rect>
<line x1="39.28" y1="192.34" x2="39.28" y2="185.24" stroke="#333" stroke-width="1"/>
<line x1="37.28" y1="192.34" x2="41.28" y2="192.34" stroke="#333" stroke-width="1"/>
<line x1="37.28" y1="185.24" x2="41.28" y2="185.24" stroke="#333" stroke-width="1"/>
<text x="28.06" y="214" text-anchor="end" font-size="9" fill="#2196F3" transform="rotate(-45,28.06,214)">Phenomenology</text>
<rect x="61.72" y="195.40" width="22.44" height="4.60" fill="#81C784" opacity="0.85"><title>Partner Identity: 0.000257</title></rect>
<line x1="72.94" y1="196.62" x2="72.94" y2="193.44" stroke="#333" stroke-width="1"/>
<line x1="70.94" y1="196.62" x2="74.94" y2="196.62" stroke="#333" stroke-width="1"/>
<line x1="70.94" y1="193.44" x2="74.94" y2="193.44" stroke="#333" stroke-width="1"/>
<rect x="84.17" y="190.56" width="22.44" height="9.44" fill="#BDBDBD" opacity="0.85"><title>Control: 0.000528</title></rect>
<line x1="95.39" y1="192.84" x2="95.39" y2="188.55" stroke="#333" stroke-width="1"/>
<line x1="93.39" y1="192.84" x2="97.39" y2="192.84" stroke="#333" stroke-width="1"/>
<line x1="93.39" y1="188.55" x2="97.39" y2="188.55" stroke="#333" stroke-width="1"/>
<text x="84.17" y="214" text-anchor="end" font-size="9" fill="#2196F3" transform="rotate(-45,84.17,214)">Emotions</text>
<rect x="117.83" y="193.84" width="22.44" height="6.16" fill="#81C784" opacity="0.85"><title>Partner Identity: 0.000344</title></rect>
<line x1="129.06" y1="195.52" x2="129.06" y2="190.84" stroke="#333" stroke-width="1"/>
<line x1="127.06" y1="195.52" x2="131.06" y2="195.52" stroke="#333" stroke-width="1"/>
<line x1="127.06" y1="190.84" x2="131.06" y2="190.84" stroke="#333" stroke-width="1"/>
<rect x="140.28" y="189.14" width="22.44" height="10.86" fill="#BDBDBD" opacity="0.85"><title>Control: 0.000607</title></rect>
<line x1="151.50" y1="191.96" x2="151.50" y2="186.83" stroke="#333" stroke-width="1"/>
<line x1="149.50" y1="191.96" x2="153.50" y2="191.96" stroke="#333" stroke-width="1"/>
<line x1="149.50" y1="186.83" x2="153.50" y2="186.83" stroke="#333" stroke-width="1"/>
<text x="140.28" y="214" text-anchor="end" font-size="9" fill="#2196F3" transform="rotate(-45,140.28,214)">Agency</text>
<rect x="173.94" y="191.90" width="22.44" height="8.10" fill="#81C784" opacity="0.85"><title>Partner Identity: 0.000453</title></rect>
<line x1="185.17" y1="195.02" x2="185.17" y2="189.05" stroke="#333" stroke-width="1"/>
<line x1="183.17" y1="195.02" x2="187.17" y2="195.02" stroke="#333" stroke-width="1"/>
<line x1="183.17" y1="189.05" x2="187.17" y2="189.05" stroke="#333" stroke-width="1"/>
<rect x="196.39" y="185.88" width="22.44" height="14.12" fill="#BDBDBD" opacity="0.85"><title>Control: 0.000789</title></rect>
<line x1="207.61" y1="189.22" x2="207.61" y2="183.70" stroke="#333" stroke-width="1"/>
<line x1="205.61" y1="189.22" x2="209.61" y2="189.22" stroke="#333" stroke-width="1"/>
<line x1="205.61" y1="183.70" x2="209.61" y2="183.70" stroke="#333" stroke-width="1"/>
<text x="196.39" y="214" text-anchor="end" font-size="9" fill="#2196F3" transform="rotate(-45,196.39,214)">Intentions</text>
<rect x="230.06" y="193.47" width="22.44" height="6.53" fill="#81C784" opacity="0.85"><title>Partner Identity: 0.000365</title></rect>
<line x1="241.28" y1="195.81" x2="241.28" y2="188.95" stroke="#333" stroke-width="1"/>
<line x1="239.28" y1="195.81" x2="243.28" y2="195.81" stroke="#333" stroke-width="1"/>
<line x1="239.28" y1="188.95" x2="243.28" y2="188.95" stroke="#333" stroke-width="1"/>
<rect x="252.50" y="188.67" width="22.44" height="11.33" fill="#BDBDBD" opacity="0.85"><title>Control: 0.000633</title></rect>
<line x1="263.72" y1="191.82" x2="263.72" y2="185.37" stroke="#333" stroke-width="1"/>
<line x1="261.72" y1="191.82" x2="265.72" y2="191.82" stroke="#333" stroke-width="1"/>
<line x1="261.72" y1="185.37" x2="265.72" y2="185.37" stroke="#333" stroke-width="1"/>
<text x="252.50" y="214" text-anchor="end" font-size="9" fill="#2196F3" transform="rotate(-45,252.50,214)">Prediction</text>
<rect x="286.17" y="190.53" width="22.44" height="9.47" fill="#81C784" opacity="0.85"><title>Partner Identity: 0.000529</title></rect>
<line x1="297.39" y1="193.17" x2="297.39" y2="188.17" stroke="#333" stroke-width="1"/>
<line x1="295.39" y1="193.17" x2="299.39" y2="193.17" stroke="#333" stroke-width="1"/>
<line x1="295.39" y1="188.17" x2="299.39" y2="188.17" stroke="#333" stroke-width="1"/>
<rect x="308.61" y="188.70" width="22.44" height="11.30" fill="#BDBDBD" opacity="0.85"><title>Control: 0.000632</title></rect>
<line x1="319.83" y1="191.66" x2="319.83" y2="185.89" stroke="#333" stroke-width="1"/>
<line x1="317.83" y1="191.66" x2="321.83" y2="191.66" stroke="#333" stroke-width="1"/>
<line x1="317.83" y1="185.89" x2="321.83" y2="185.89" stroke="#333" stroke-width="1"/>
<text x="308.61" y="214" text-anchor="end" font-size="9" fill="#2196F3" transform="rotate(-45,308.61,214)">Cognitive</text>
<rect x="342.28" y="191.39" width="22.44" height="8.61" fill="#81C784" opacity="0.85"><title>Partner Identity: 0.000481</title></rect>
<line x1="353.50" y1="194.34" x2="353.50" y2="186.67" stroke="#333" stroke-width="1"/>
<line x1="351.50" y1="194.34" x2="355.50" y2="194.34" stroke="#333" stroke-width="1"/>
<line x1="351.50" y1="186.67" x2="355.50" y2="186.67" stroke="#333" stroke-width="1"/>
<rect x="364.72" y="188.28" width="22.44" height="11.72" fill="#BDBDBD" opacity="0.85"><title>Control: 0.000655</title></rect>
<line x1="375.94" y1="191.34" x2="375.94" y2="185.87" stroke="#333" stroke-width="1"/>
<line x1="373.94" y1="191.34" x2="377.94" y2="191.34" stroke="#333" stroke-width="1"/>
<line x1="373.94" y1="185.87" x2="377.94" y2="185.87" stroke="#333" stroke-width="1"/>
<text x="364.72" y="214" text-anchor="end" font-size="9" fill="#2196F3" transform="rotate(-45,364.72,214)">Social</text>
<rect x="398.39" y="189.44" width="22.44" height="10.56" fill="#81C784" opacity="0.85"><title>Partner Identity: 0.000590</title></rect>
<line x1="409.61" y1="192.68" x2="409.61" y2="186.94" stroke="#333" stroke-width="1"/>
<line x1="407.61" y1="192.68" x2="411.61" y2="192.68" stroke="#333" stroke-width="1"/>
<line x1="407.61" y1="186.94" x2="411.61" y2="186.94" stroke="#333" stroke-width="1"/>
<rect x="420.83" y="187.36" width="22.44" height="12.64" fill="#BDBDBD" opacity="0.85"><title>Control: 0.000707</title></rect>
<line x1="432.06" y1="190.11" x2="432.06" y2="185.36" stroke="#333" stroke-width="1"/>
<line x1="430.06" y1="190.11" x2="434.06" y2="190.11" stroke="#333" stroke-width="1"/>
<line x1="430.06" y1="185.36" x2="434.06" y2="185.36" stroke="#333" stroke-width="1"/>
<text x="420.83" y="214" text-anchor="end" font-size="9" fill="#2196F3" transform="rotate(-45,420.83,214)">Attention</text>
<rect x="454.50" y="196.58" width="22.44" height="3.42" fill="#81C784" opacity="0.85"><title>Partner Identity: 0.000191</title></rect>
<line x1="465.72" y1="197.15" x2="465.72" y2="195.73" stroke="#333" stroke-width="1"/>
<line x1="463.72" y1="197.15" x2="467.72" y2="197.15" stroke="#333" stroke-width="1"/>
<line x1="463.72" y1="195.73" x2="467.72" y2="195.73" stroke="#333" stroke-width="1"/>
<rect x="476.94" y="191.62" width="22.44" height="8.38" fill="#BDBDBD" opacity="0.85"><title>Control: 0.000469</title></rect>
<line x1="488.17" y1="193.77" x2="488.17" y2="189.51" stroke="#333" stroke-width="1"/>
<line x1="486.17" y1="193.77" x2="490.17" y2="193.77" stroke="#333" stroke-width="1"/>
<line x1="486.17" y1="189.51" x2="490.17" y2="189.51" stroke="#333" stroke-width="1"/>
<text x="476.94" y="214" text-anchor="end" font-size="9" fill="#4CAF50" transform="rotate(-45,476.94,214)">Embodiment</text>
<rect x="510.61" y="194.77" width="22.44" height="5.23" fill="#81C784" opacity="0.85"><title>Partner Identity: 0.000292</title></rect>
<line x1="521.83" y1="196.08" x2="521.83" y2="192.14" stroke="#333" stroke-width="1"/>
<line x1="519.83" y1="196.08" x2="523.83" y2="196.08" stroke="#333" stroke-width="1"/>
<line x1="519.83" y1="192.14" x2="523.83" y2="192.14" stroke="#333" stroke-width="1"/>
<rect x="533.06" y="189.75" width="22.44" height="10.25" fill="#BDBDBD" opacity="0.85"><title>Control: 0.000573</title></rect>
<line x1="544.28" y1="193.17" x2="544.28" y2="185.61" stroke="#333" stroke-width="1"/>
<line x1="542.28" y1="193.17" x2="546.28" y2="193.17" stroke="#333" stroke-width="1"/>
<line x1="542.28" y1="185.61" x2="546.28" y2="185.61" stroke="#333" stroke-width="1"/>
<text x="533.06" y="214" text-anchor="end" font-size="9" fill="#4CAF50" transform="rotate(-45,533.06,214)">Roles</text>
<rect x="566.72" y="194.45" width="22.44" height="5.55" fill="#81C784" opacity="0.85"><title>Partner Identity: 0.000310</title></rect>
<line x1="577.94" y1="195.69" x2="577.94" y2="193.12" stroke="#333" stroke-width="1"/>
<line x1="575.94" y1="195.69" x2="579.94" y2="195.69" stroke="#333" stroke-width="1"/>
<line x1="575.94" y1="193.12" x2="579.94" y2="193.12" stroke="#333" stroke-width="1"/>
<rect x="589.17" y="195.41" width="22.44" height="4.59" fill="#BDBDBD" opacity="0.85"><title>Control: 0.000256</title></rect>
<line x1="600.39" y1="196.36" x2="600.39" y2="194.03" stroke="#333" stroke-width="1"/>
<line x1="598.39" y1="196.36" x2="602.39" y2="196.36" stroke="#333" stroke-width="1"/>
<line x1="598.39" y1="194.03" x2="602.39" y2="194.03" stroke="#333" stroke-width="1"/>
<text x="589.17" y="214" text-anchor="end" font-size="9" fill="#4CAF50" transform="rotate(-45,589.17,214)">Animacy</text>
<rect x="622.83" y="191.70" width="22.44" height="8.30" fill="#81C784" opacity="0.85"><title>Partner Identity: 0.000464</title></rect>
<line x1="634.06" y1="194.60" x2="634.06" y2="190.21" stroke="#333" stroke-width="1"/>
<line x1="632.06" y1="194.60" x2="636.06" y2="194.60" stroke="#333" stroke-width="1"/>
<line x1="632.06" y1="190.21" x2="636.06" y2="190.21" stroke="#333" stroke-width="1"/>
<rect x="645.28" y="192.40" width="22.44" height="7.60" fill="#BDBDBD" opacity="0.85"><title>Control: 0.000425</title></rect>
<line x1="656.50" y1="195.24" x2="656.50" y2="189.76" stroke="#333" stroke-width="1"/>
<line x1="654.50" y1="195.24" x2="658.50" y2="195.24" stroke="#333" stroke-width="1"/>
<line x1="654.50" y1="189.76" x2="658.50" y2="189.76" stroke="#333" stroke-width="1"/>
<text x="645.28" y="214" text-anchor="end" font-size="9" fill="#FF9800" transform="rotate(-45,645.28,214)">Formality</text>
<rect x="678.94" y="189.44" width="22.44" height="10.56" fill="#81C784" opacity="0.85"><title>Partner Identity: 0.000590</title></rect>
<line x1="690.17" y1="191.83" x2="690.17" y2="186.94" stroke="#333" stroke-width="1"/>
<line x1="688.17" y1="191.83" x2="692.17" y2="191.83" stroke="#333" stroke-width="1"/>
<line x1="688.17" y1="186.94" x2="692.17" y2="186.94" stroke="#333" stroke-width="1"/>
<rect x="701.39" y="196.19" width="22.44" height="3.81" fill="#BDBDBD" opacity="0.85"><title>Control: 0.000213</title></rect>
<line x1="712.61" y1="196.70" x2="712.61" y2="195.47" stroke="#333" stroke-width="1"/>
<line x1="710.61" y1="196.70" x2="714.61" y2="196.70" stroke="#333" stroke-width="1"/>
<line x1="710.61" y1="195.47" x2="714.61" y2="195.47" stroke="#333" stroke-width="1"/>
<text x="701.39" y="214" text-anchor="end" font-size="9" fill="#FF9800" transform="rotate(-45,701.39,214)">Expertise</text>
<rect x="735.06" y="193.80" width="22.44" height="6.20" fill="#81C784" opacity="0.85"><title>Partner Identity: 0.000346</title></rect>
<line x1="746.28" y1="196.66" x2="746.28" y2="190.90" stroke="#333" stroke-width="1"/>
<line x1="744.28" y1="196.66" x2="748.28" y2="196.66" stroke="#333" stroke-width="1"/>
<line x1="744.28" y1="190.90" x2="748.28" y2="190.90" stroke="#333" stroke-width="1"/>
<rect x="757.50" y="195.55" width="22.44" height="4.45" fill="#BDBDBD" opacity="0.85"><title>Control: 0.000249</title></rect>
<line x1="768.72" y1="197.09" x2="768.72" y2="193.39" stroke="#333" stroke-width="1"/>
<line x1="766.72" y1="197.09" x2="770.72" y2="197.09" stroke="#333" stroke-width="1"/>
<line x1="766.72" y1="193.39" x2="770.72" y2="193.39" stroke="#333" stroke-width="1"/>
<text x="757.50" y="214" text-anchor="end" font-size="9" fill="#FF9800" transform="rotate(-45,757.50,214)">Helpfulness</text>
<rect x="791.17" y="190.77" width="22.44" height="9.23" fill="#81C784" opacity="0.85"><title>Partner Identity: 0.000516</title></rect>
<line x1="802.39" y1="192.75" x2="802.39" y2="189.08" stroke="#333" stroke-width="1"/>
<line x1="800.39" y1="192.75" x2="804.39" y2="192.75" stroke="#333" stroke-width="1"/>
<line x1="800.39" y1="189.08" x2="804.39" y2="189.08" stroke="#333" stroke-width="1"/>
<rect x="813.61" y="191.43" width="22.44" height="8.57" fill="#BDBDBD" opacity="0.85"><title>Control: 0.000479</title></rect>
<line x1="824.83" y1="194.24" x2="824.83" y2="189.30" stroke="#333" stroke-width="1"/>
<line x1="822.83" y1="194.24" x2="826.83" y2="194.24" stroke="#333" stroke-width="1"/>
<line x1="822.83" y1="189.30" x2="826.83" y2="189.30" stroke="#333" stroke-width="1"/>
<text x="813.61" y="214" text-anchor="end" font-size="9" fill="#9E9E9E" transform="rotate(-45,813.61,214)">Baseline</text>
<rect x="847.28" y="196.27" width="22.44" height="3.73" fill="#81C784" opacity="0.85"><title>Partner Identity: 0.000209</title></rect>
<line x1="858.50" y1="196.80" x2="858.50" y2="195.57" stroke="#333" stroke-width="1"/>
<line x1="856.50" y1="196.80" x2="860.50" y2="196.80" stroke="#333" stroke-width="1"/>
<line x1="856.50" y1="195.57" x2="860.50" y2="195.57" stroke="#333" stroke-width="1"/>
<rect x="869.72" y="192.75" width="22.44" height="7.25" fill="#BDBDBD" opacity="0.85"><title>Control: 0.000405</title></rect>
<line x1="880.94" y1="194.08" x2="880.94" y2="191.36" stroke="#333" stroke-width="1"/>
<line x1="878.94" y1="194.08" x2="882.94" y2="194.08" stroke="#333" stroke-width="1"/>
<line x1="878.94" y1="191.36" x2="882.94" y2="191.36" stroke="#333" stroke-width="1"/>
<text x="869.72" y="214" text-anchor="end" font-size="9" fill="#9E9E9E" transform="rotate(-45,869.72,214)">Biological</text>
<rect x="903.39" y="188.31" width="22.44" height="11.69" fill="#81C784" opacity="0.85"><title>Partner Identity: 0.000653</title></rect>
<line x1="914.61" y1="193.21" x2="914.61" y2="185.54" stroke="#333" stroke-width="1"/>
<line x1="912.61" y1="193.21" x2="916.61" y2="193.21" stroke="#333" stroke-width="1"/>
<line x1="912.61" y1="185.54" x2="916.61" y2="185.54" stroke="#333" stroke-width="1"/>
<rect x="925.83" y="193.77" width="22.44" height="6.23" fill="#BDBDBD" opacity="0.85"><title>Control: 0.000348</title></rect>
<line x1="937.06" y1="196.16" x2="937.06" y2="192.03" stroke="#333" stroke-width="1"/>
<line x1="935.06" y1="196.16" x2="939.06" y2="196.16" stroke="#333" stroke-width="1"/>
<line x1="935.06" y1="192.03" x2="939.06" y2="192.03" stroke="#333" stroke-width="1"/>
<text x="925.83" y="214" text-anchor="end" font-size="9" fill="#9E9E9E" transform="rotate(-45,925.83,214)">Shapes</text>
<rect x="959.50" y="182.07" width="22.44" height="17.93" fill="#81C784" opacity="0.85"><title>Partner Identity: 0.001002</title></rect>
<line x1="970.72" y1="185.13" x2="970.72" y2="178.45" stroke="#333" stroke-width="1"/>
<line x1="968.72" y1="185.13" x2="972.72" y2="185.13" stroke="#333" stroke-width="1"/>
<line x1="968.72" y1="178.45" x2="972.72" y2="178.45" stroke="#333" stroke-width="1"/>
<rect x="981.94" y="194.75" width="22.44" height="5.25" fill="#BDBDBD" opacity="0.85"><title>Control: 0.000293</title></rect>
<line x1="993.17" y1="195.63" x2="993.17" y2="193.91" stroke="#333" stroke-width="1"/>
<line x1="991.17" y1="195.63" x2="995.17" y2="195.63" stroke="#333" stroke-width="1"/>
<line x1="991.17" y1="193.91" x2="995.17" y2="193.91" stroke="#333" stroke-width="1"/>
<text x="981.94" y="214" text-anchor="end" font-size="9" fill="#00BCD4" transform="rotate(-45,981.94,214)">SysPrompt (labeled)</text>
<line x1="0" y1="200" x2="1010" y2="200" stroke="#333"/>
<line x1="0" y1="0" x2="0" y2="200" stroke="#333"/>
</g>
<rect x="70.0" y="324" width="10" height="10" fill="#81C784"/>
<text x="84.0" y="332" font-size="8" fill="#333">Partner Identity</text>
<rect x="272.0" y="324" width="10" height="10" fill="#BDBDBD"/>
<text x="286.0" y="332" font-size="8" fill="#333">Control</text>
</svg>