<svg viewBox="0 0 1100 360" xmlns="http://www.w3.org/2000/svg" style="width:100%;max-width:1100px;height:auto;font-family:Arial,sans-serif;">
<rect width="1100" height="360" fill="white"/>
<g transform="translate(70,30)">
<line x1="0" y1="200.0" x2="1010" y2="200.0" stroke="#eee" stroke-width="1"/>
<text x="-8" y="204.0" text-anchor="end" font-size="10" fill="#666">0.00</text>
<line x1="0" y1="160.0" x2="1010" y2="160.0" stroke="#eee" stroke-width="1"/>
<text x="-8" y="164.0" text-anchor="end" font-size="10" fill="#666">2.24</text>
<line x1="0" y1="120.0" x2="1010" y2="120.0" stroke="#eee" stroke-width="1"/>
<text x="-8" y="124.0" text-anchor="end" font-size="10" fill="#666">4.47</text>
<line x1="0" y1="80.0" x2="1010" y2="80.0" stroke="#eee" stroke-width="1"/>
<text x="-8" y="84.0" text-anchor="end" font-size="10" fill="#666">6.71</text>
<line x1="0" y1="40.0" x2="1010" y2="40.0" stroke="#eee" stroke-width="1"/>
<text x="-8" y="44.0" text-anchor="end" font-size="10" fill="#666">8.94</text>
<line x1="0" y1="0.0" x2="1010" y2="0.0" stroke="#eee" stroke-width="1"/>
<text x="-8" y="4.0" text-anchor="end" font-size="10" fill="#666">11.18</text>
<text x="-50" y="100.0" text-anchor="middle" font-size="11" fill="#333" transform="rotate(-90,-50,100.0)">Mean R² (×10⁻³)</text>
<rect x="5.61" y="97.31" width="22.44" height="102.69" fill="#2E7D32" opacity="0.85"><title>Partner Identity: 0.005739</title></rect>
<line x1="16.83" y1="114.81" x2="16.83" y2="90.79" stroke="#333" stroke-width="1"/>
<line x1="14.83" y1="114.81" x2="18.83" y2="114.81" stroke="#333" stroke-width="1"/>
<line x1="14.83" y1="90.79" x2="18.83" y2="90.79" stroke="#333" stroke-width="1"/>
<rect x="28.06" y="176.61" width="22.44" height="23.39" fill="#616161" opacity="0.85"><title>Control: 0.001307</title></rect>
<line x1="39.28" y1="183.48" x2="39.28" y2="171.33" stroke="#333" stroke-width="1"/>
<line x1="37.28" y1="183.48" x2="41.28" y2="183.48" stroke="#333" stroke-width="1"/>
<line x1="37.28" y1="171.33" x2="41.28" y2="171.33" stroke="#333" stroke-width="1"/>
<text x="28.06" y="214" text-anchor="end" font-size="9" fill="#2196F3" transform="rotate(-45,28.06,214)">Phenomenology</text>
<rect x="61.72" y="80.19" width="22.44" height="119.81" fill="#2E7D32" opacity="0.85"><title>Partner Identity: 0.006696</title></rect>
<line x1="72.94" y1="94.03" x2="72.94" y2="72.12" stroke="#333" stroke-width="1"/>
<line x1="70.94" y1="94.03" x2="74.94" y2="94.03" stroke="#333" stroke-width="1"/>
<line x1="70.94" y1="72.12" x2="74.94" y2="72.12" stroke="#333" stroke-width="1"/>
<rect x="84.17" y="179.04" width="22.44" height="20.96" fill="#616161" opacity="0.85"><title>Control: 0.001172</title></rect>
<line x1="95.39" y1="182.93" x2="95.39" y2="176.08" stroke="#333" stroke-width="1"/>
<line x1="93.39" y1="182.93" x2="97.39" y2="182.93" stroke="#333" stroke-width="1"/>
<line x1="93.39" y1="176.08" x2="97.39" y2="176.08" stroke="#333" stroke-width="1"/>
<text x="84.17" y="214" text-anchor="end" font-size="9" fill="#2196F3" transform="rotate(-45,84.17,214)">Emotions</text>
<rect x="117.83" y="58.55" width="22.44" height="141.45" fill="#2E7D32" opacity="0.85"><title>Partner Identity: 0.007906</title></rect>
<line x1="129.06" y1="76.21" x2="129.06" y2="52.74" stroke="#333" stroke-width="1"/>
<line x1="127.06" y1="76.21" x2="131.06" y2="76.21" stroke="#333" stroke-width="1"/>
<line x1="127.06" y1="52.74" x2="131.06" y2="52.74" stroke="#333" stroke-width="1"/>
<rect x="140.28" y="175.83" width="22.44" height="24.17" fill="#616161" opacity="0.85"><title>Control: 0.001351</title></rect>
<line x1="151.50" y1="182.49" x2="151.50" y2="170.63" stroke="#333" stroke-width="1"/>
<line x1="149.50" y1="182.49" x2="153.50" y2="182.49" stroke="#333" stroke-width="1"/>
<line x1="149.50" y1="170.63" x2="153.50" y2="170.63" stroke="#333" stroke-width="1"/>
<text x="140.28" y="214" text-anchor="end" font-size="9" fill="#2196F3" transform="rotate(-45,140.28,214)">Agency</text>
<rect x="173.94" y="65.97" width="22.44" height="134.03" fill="#2E7D32" opacity="0.85"><title>Partner Identity: 0.007491</title></rect>
<line x1="185.17" y1="86.42" x2="185.17" y2="55.42" stroke="#333" stroke-width="1"/>
<line x1="183.17" y1="86.42" x2="187.17" y2="86.42" stroke="#333" stroke-width="1"/>
<line x1="183.17" y1="55.42" x2="187.17" y2="55.42" stroke="#333" stroke-width="1"/>
<rect x="196.39" y="174.84" width="22.44" height="25.16" fill="#616161" opacity="0.85"><title>Control: 0.001406</title></rect>
<line x1="207.61" y1="182.06" x2="207.61" y2="170.05" stroke="#333" stroke-width="1"/>
<line x1="205.61" y1="182.06" x2="209.61" y2="182.06" stroke="#333" stroke-width="1"/>
<line x1="205.61" y1="170.05" x2="209.61" y2="170.05" stroke="#333" stroke-width="1"/>
<text x="196.39" y="214" text-anchor="end" font-size="9" fill="#2196F3" transform="rotate(-45,196.39,214)">Intentions</text>
<rect x="230.06" y="44.40" width="22.44" height="155.60" fill="#2E7D32" opacity="0.85"><title>Partner Identity: 0.008696</title></rect>
<line x1="241.28" y1="66.22" x2="241.28" y2="35.50" stroke="#333" stroke-width="1"/>
<line x1="239.28" y1="66.22" x2="243.28" y2="66.22" stroke="#333" stroke-width="1"/>
<line x1="239.28" y1="35.50" x2="243.28" y2="35.50" stroke="#333" stroke-width="1"/>
<rect x="252.50" y="177.81" width="22.44" height="22.19" fill="#616161" opacity="0.85"><title>Control: 0.001240</title></rect>
<line x1="263.72" y1="183.41" x2="263.72" y2="172.24" stroke="#333" stroke-width="1"/>
<line x1="261.72" y1="183.41" x2="265.72" y2="183.41" stroke="#333" stroke-width="1"/>
<line x1="261.72" y1="172.24" x2="265.72" y2="172.24" stroke="#333" stroke-width="1"/>
<text x="252.50" y="214" text-anchor="end" font-size="9" fill="#2196F3" transform="rotate(-45,252.50,214)">Prediction</text>
<rect x="286.17" y="65.80" width="22.44" height="134.20" fill="#2E7D32" opacity="0.85"><title>Partner Identity: 0.007500</title></rect>
<line x1="297.39" y1="84.60" x2="297.39" y2="56.81" stroke="#333" stroke-width="1"/>
<line x1="295.39" y1="84.60" x2="299.39" y2="84.60" stroke="#333" stroke-width="1"/>
<line x1="295.39" y1="56.81" x2="299.39" y2="56.81" stroke="#333" stroke-width="1"/>
<rect x="308.61" y="182.72" width="22.44" height="17.28" fill="#616161" opacity="0.85"><title>Control: 0.000966</title></rect>
<line x1="319.83" y1="188.46" x2="319.83" y2="176.83" stroke="#333" stroke-width="1"/>
<line x1="317.83" y1="188.46" x2="321.83" y2="188.46" stroke="#333" stroke-width="1"/>
<line x1="317.83" y1="176.83" x2="321.83" y2="176.83" stroke="#333" stroke-width="1"/>
<text x="308.61" y="214" text-anchor="end" font-size="9" fill="#2196F3" transform="rotate(-45,308.61,214)">Cognitive</text>
<rect x="342.28" y="35.70" width="22.44" height="164.30" fill="#2E7D32" opacity="0.85"><title>Partner Identity: 0.009183</title></rect>
<line x1="353.50" y1="57.98" x2="353.50" y2="26.84" stroke="#333" stroke-width="1"/>
<line x1="351.50" y1="57.98" x2="355.50" y2="57.98" stroke="#333" stroke-width="1"/>
<line x1="351.50" y1="26.84" x2="355.50" y2="26.84" stroke="#333" stroke-width="1"/>
<rect x="364.72" y="171.34" width="22.44" height="28.66" fill="#616161" opacity="0.85"><title>Control: 0.001602</title></rect>
<line x1="375.94" y1="180.75" x2="375.94" y2="163.44" stroke="#333" stroke-width="1"/>
<line x1="373.94" y1="180.75" x2="377.94" y2="180.75" stroke="#333" stroke-width="1"/>
<line x1="373.94" y1="163.44" x2="377.94" y2="163.44" stroke="#333" stroke-width="1"/>
<text x="364.72" y="214" text-anchor="end" font-size="9" fill="#2196F3" transform="rotate(-45,364.72,214)">Social</text>
<rect x="398.39" y="42.24" width="22.44" height="157.76" fill="#2E7D32" opacity="0.85"><title>Partner Identity: 0.008817</title></rect>
<line x1="409.61" y1="64.48" x2="409.61" y2="33.66" stroke="#333" stroke-width="1"/>
<line x1="407.61" y1="64.48" x2="411.61" y2="64.48" stroke="#333" stroke-width="1"/>
<line x1="407.61" y1="33.66" x2="411.61" y2="33.66" stroke="#333" stroke-width="1"/>
<rect x="420.83" y="179.19" width="22.44" height="20.81" fill="#616161" opacity="0.85"><title>Control: 0.001163</title></rect>
<line x1="432.06" y1="185.45" x2="432.06" y2="173.88" stroke="#333" stroke-width="1"/>
<line x1="430.06" y1="185.45" x2="434.06" y2="185.45" stroke="#333" stroke-width="1"/>
<line x1="430.06" y1="173.88" x2="434.06" y2="173.88" stroke="#333" stroke-width="1"/>
<text x="420.83" y="214" text-anchor="end" font-size="9" fill="#2196F3" transform="rotate(-45,420.83,214)">Attention</text>
<rect x="454.50" y="95.54" width="22.44" height="104.46" fill="#2E7D32" opacity="0.85"><title>Partner Identity: 0.005838</title></rect>
<line x1="465.72" y1="113.29" x2="465.72" y2="86.37" stroke="#333" stroke-width="1"/>
<line x1="463.72" y1="113.29" x2="467.72" y2="113.29" stroke="#333" stroke-width="1"/>
<line x1="463.72" y1="86.37" x2="467.72" y2="86.37" stroke="#333" stroke-width="1"/>
<rect x="476.94" y="174.33" width="22.44" height="25.67" fill="#616161" opacity="0.85"><title>Control: 0.001435</title></rect>
<line x1="488.17" y1="180.73" x2="488.17" y2="168.34" stroke="#333" stroke-width="1"/>
<line x1="486.17" y1="180.73" x2="490.17" y2="180.73" stroke="#333" stroke-width="1"/>
<line x1="486.17" y1="168.34" x2="490.17" y2="168.34" stroke="#333" stroke-width="1"/>
<text x="476.94" y="214" text-anchor="end" font-size="9" fill="#4CAF50" transform="rotate(-45,476.94,214)">Embodiment</text>
<rect x="510.61" y="62.72" width="22.44" height="137.28" fill="#2E7D32" opacity="0.85"><title>Partner Identity: 0.007672</title></rect>
<line x1="521.83" y1="87.99" x2="521.83" y2="50.48" stroke="#333" stroke-width="1"/>
<line x1="519.83" y1="87.99" x2="523.83" y2="87.99" stroke="#333" stroke-width="1"/>
<line x1="519.83" y1="50.48" x2="523.83" y2="50.48" stroke="#333" stroke-width="1"/>
<rect x="533.06" y="177.99" width="22.44" height="22.01" fill="#616161" opacity="0.85"><title>Control: 0.001230</title></rect>
<line x1="544.28" y1="184.01" x2="544.28" y2="171.57" stroke="#333" stroke-width="1"/>
<line x1="542.28" y1="184.01" x2="546.28" y2="184.01" stroke="#333" stroke-width="1"/>
<line x1="542.28" y1="171.57" x2="546.28" y2="171.57" stroke="#333" stroke-width="1"/>
<text x="533.06" y="214" text-anchor="end" font-size="9" fill="#4CAF50" transform="rotate(-45,533.06,214)">Roles</text>
<rect x="566.72" y="106.95" width="22.44" height="93.05" fill="#2E7D32" opacity="0.85"><title>Partner Identity: 0.005201</title></rect>
<line x1="577.94" y1="127.79" x2="577.94" y2="95.60" stroke="#333" stroke-width="1"/>
<line x1="575.94" y1="127.79" x2="579.94" y2="127.79" stroke="#333" stroke-width="1"/>
<line x1="575.94" y1="95.60" x2="579.94" y2="95.60" stroke="#333" stroke-width="1"/>
<rect x="589.17" y="180.41" width="22.44" height="19.59" fill="#616161" opacity="0.85"><title>Control: 0.001095</title></rect>
<line x1="600.39" y1="183.81" x2="600.39" y2="176.47" stroke="#333" stroke-width="1"/>
<line x1="598.39" y1="183.81" x2="602.39" y2="183.81" stroke="#333" stroke-width="1"/>
<line x1="598.39" y1="176.47" x2="602.39" y2="176.47" stroke="#333" stroke-width="1"/>
<text x="589.17" y="214" text-anchor="end" font-size="9" fill="#4CAF50" transform="rotate(-45,589.17,214)">Animacy</text>
<rect x="622.83" y="171.93" width="22.44" height="28.07" fill="#2E7D32" opacity="0.85"><title>Partner Identity: 0.001569</title></rect>
<line x1="634.06" y1="188.61" x2="634.06" y2="160.12" stroke="#333" stroke-width="1"/>
<line x1="632.06" y1="188.61" x2="636.06" y2="188.61" stroke="#333" stroke-width="1"/>
<line x1="632.06" y1="160.12" x2="636.06" y2="160.12" stroke="#333" stroke-width="1"/>
<rect x="645.28" y="189.15" width="22.44" height="10.85" fill="#616161" opacity="0.85"><title>Control: 0.000606</title></rect>
<line x1="656.50" y1="194.49" x2="656.50" y2="184.47" stroke="#333" stroke-width="1"/>
<line x1="654.50" y1="194.49" x2="658.50" y2="194.49" stroke="#333" stroke-width="1"/>
<line x1="654.50" y1="184.47" x2="658.50" y2="184.47" stroke="#333" stroke-width="1"/>
<text x="645.28" y="214" text-anchor="end" font-size="9" fill="#FF9800" transform="rotate(-45,645.28,214)">Formality</text>
<rect x="678.94" y="122.58" width="22.44" height="77.42" fill="#2E7D32" opacity="0.85"><title>Partner Identity: 0.004327</title></rect>
<line x1="690.17" y1="137.84" x2="690.17" y2="110.27" stroke="#333" stroke-width="1"/>
<line x1="688.17" y1="137.84" x2="692.17" y2="137.84" stroke="#333" stroke-width="1"/>
<line x1="688.17" y1="110.27" x2="692.17" y2="110.27" stroke="#333" stroke-width="1"/>
<rect x="701.39" y="197.78" width="22.44" height="2.22" fill="#616161" opacity="0.85"><title>Control: 0.000124</title></rect>
<line x1="712.61" y1="197.97" x2="712.61" y2="196.80" stroke="#333" stroke-width="1"/>
<line x1="710.61" y1="197.97" x2="714.61" y2="197.97" stroke="#333" stroke-width="1"/>
<line x1="710.61" y1="196.80" x2="714.61" y2="196.80" stroke="#333" stroke-width="1"/>
<text x="701.39" y="214" text-anchor="end" font-size="9" fill="#FF9800" transform="rotate(-45,701.39,214)">Expertise</text>
<rect x="735.06" y="185.79" width="22.44" height="14.21" fill="#2E7D32" opacity="0.85"><title>Partner Identity: 0.000794</title></rect>
<line x1="746.28" y1="194.95" x2="746.28" y2="176.39" stroke="#333" stroke-width="1"/>
<line x1="744.28" y1="194.95" x2="748.28" y2="194.95" stroke="#333" stroke-width="1"/>
<line x1="744.28" y1="176.39" x2="748.28" y2="176.39" stroke="#333" stroke-width="1"/>
<rect x="757.50" y="186.72" width="22.44" height="13.28" fill="#616161" opacity="0.85"><title>Control: 0.000742</title></rect>
<line x1="768.72" y1="194.20" x2="768.72" y2="181.14" stroke="#333" stroke-width="1"/>
<line x1="766.72" y1="194.20" x2="770.72" y2="194.20" stroke="#333" stroke-width="1"/>
<line x1="766.72" y1="181.14" x2="770.72" y2="181.14" stroke="#333" stroke-width="1"/>
<text x="757.50" y="214" text-anchor="end" font-size="9" fill="#FF9800" transform="rotate(-45,757.50,214)">Helpfulness</text>
<rect x="791.17" y="69.35" width="22.44" height="130.65" fill="#2E7D32" opacity="0.85"><title>Partner Identity: 0.007302</title></rect>
<line x1="802.39" y1="98.98" x2="802.39" y2="60.58" stroke="#333" stroke-width="1"/>
<line x1="800.39" y1="98.98" x2="804.39" y2="98.98" stroke="#333" stroke-width="1"/>
<line x1="800.39" y1="60.58" x2="804.39" y2="60.58" stroke="#333" stroke-width="1"/>
<rect x="813.61" y="174.73" width="22.44" height="25.27" fill="#616161" opacity="0.85"><title>Control: 0.001412</title></rect>
<line x1="824.83" y1="183.37" x2="824.83" y2="167.40" stroke="#333" stroke-width="1"/>
<line x1="822.83" y1="183.37" x2="826.83" y2="183.37" stroke="#333" stroke-width="1"/>
<line x1="822.83" y1="167.40" x2="826.83" y2="167.40" stroke="#333" stroke-width="1"/>
<text x="813.61" y="214" text-anchor="end" font-size="9" fill="#9E9E9E" transform="rotate(-45,813.61,214)">Baseline</text>
<rect x="847.28" y="137.60" width="22.44" height="62.40" fill="#2E7D32" opacity="0.85"><title>Partner Identity: 0.003487</title></rect>
<line x1="858.50" y1="145.95" x2="858.50" y2="131.02" stroke="#333" stroke-width="1"/>
<line x1="856.50" y1="145.95" x2="860.50" y2="145.95" stroke="#333" stroke-width="1"/>
<line x1="856.50" y1="131.02" x2="860.50" y2="131.02" stroke="#333" stroke-width="1"/>
<rect x="869.72" y="173.98" width="22.44" height="26.02" fill="#616161" opacity="0.85"><title>Control: 0.001454</title></rect>
<line x1="880.94" y1="179.79" x2="880.94" y2="168.99" stroke="#333" stroke-width="1"/>
<line x1="878.94" y1="179.79" x2="882.94" y2="179.79" stroke="#333" stroke-width="1"/>
<line x1="878.94" y1="168.99" x2="882.94" y2="168.99" stroke="#333" stroke-width="1"/>
<text x="869.72" y="214" text-anchor="end" font-size="9" fill="#9E9E9E" transform="rotate(-45,869.72,214)">Biological</text>
<rect x="903.39" y="189.89" width="22.44" height="10.11" fill="#2E7D32" opacity="0.85"><title>Partner Identity: 0.000565</title></rect>
<line x1="914.61" y1="195.23" x2="914.61" y2="180.76" stroke="#333" stroke-width="1"/>
<line x1="912.61" y1="195.23" x2="916.61" y2="195.23" stroke="#333" stroke-width="1"/>
<line x1="912.61" y1="180.76" x2="916.61" y2="180.76" stroke="#333" stroke-width="1"/>
<rect x="925.83" y="194.67" width="22.44" height="5.33" fill="#616161" opacity="0.85"><title>Control: 0.000298</title></rect>
<line x1="937.06" y1="196.87" x2="937.06" y2="189.79" stroke="#333" stroke-width="1"/>
<line x1="935.06" y1="196.87" x2="939.06" y2="196.87" stroke="#333" stroke-width="1"/>
<line x1="935.06" y1="189.79" x2="939.06" y2="189.79" stroke="#333" stroke-width="1"/>
<text x="925.83" y="214" text-anchor="end" font-size="9" fill="#9E9E9E" transform="rotate(-45,925.83,214)">Shapes</text>
<rect x="959.50" y="67.95" width="22.44" height="132.05" fill="#2E7D32" opacity="0.85"><title>Partner Identity: 0.007380</title></rect>
<line x1="970.72" y1="94.06" x2="970.72" y2="34.97" stroke="#333" stroke-width="1"/>
<line x1="968.72" y1="94.06" x2="972.72" y2="94.06" stroke="#333" stroke-width="1"/>
<line x1="968.72" y1="34.97" x2="972.72" y2="34.97" stroke="#333" stroke-width="1"/>
<rect x="981.94" y="192.72" width="22.44" height="7.28" fill="#616161" opacity="0.85"><title>Control: 0.000407</title></rect>
<line x1="993.17" y1="193.81" x2="993.17" y2="191.54" stroke="#333" stroke-width="1"/>
<line x1="991.17" y1="193.81" x2="995.17" y2="193.81" stroke="#333" stroke-width="1"/>
<line x1="991.17" y1="191.54" x2="995.17" y2="191.54" stroke="#333" stroke-width="1"/>
<text x="981.94" y="214" text-anchor="end" font-size="9" fill="#00BCD4" transform="rotate(-45,981.94,214)">SysPrompt (labeled)</text>
<line x1="0" y1="200" x2="1010" y2="200" stroke="#333"/>
<line x1="0" y1="0" x2="0" y2="200" stroke="#333"/>
</g>
<rect x="70.0" y="324" width="10" height="10" fill="#2E7D32"/>
<text x="84.0" y="332" font-size="8" fill="#333">Partner Identity</text>
<rect x="272.0" y="324" width="10" height="10" fill="#616161"/>
<text x="286.0" y="332" font-size="8" fill="#333">Control</text>
</svg>