<svg viewBox="0 0 1100 360" xmlns="http://www.w3.org/2000/svg" style="width:100%;max-width:1100px;height:auto;font-family:Arial,sans-serif;">
<rect width="1100" height="360" fill="white"/>
<g transform="translate(70,30)">
<line x1="0" y1="200.0" x2="1010" y2="200.0" stroke="#eee" stroke-width="1"/>
<text x="-8" y="204.0" text-anchor="end" font-size="10" fill="#666">0.00</text>
<line x1="0" y1="160.0" x2="1010" y2="160.0" stroke="#eee" stroke-width="1"/>
<text x="-8" y="164.0" text-anchor="end" font-size="10" fill="#666">0.80</text>
<line x1="0" y1="120.0" x2="1010" y2="120.0" stroke="#eee" stroke-width="1"/>
<text x="-8" y="124.0" text-anchor="end" font-size="10" fill="#666">1.61</text>
<line x1="0" y1="80.0" x2="1010" y2="80.0" stroke="#eee" stroke-width="1"/>
<text x="-8" y="84.0" text-anchor="end" font-size="10" fill="#666">2.41</text>
<line x1="0" y1="40.0" x2="1010" y2="40.0" stroke="#eee" stroke-width="1"/>
<text x="-8" y="44.0" text-anchor="end" font-size="10" fill="#666">3.21</text>
<line x1="0" y1="0.0" x2="1010" y2="0.0" stroke="#eee" stroke-width="1"/>
<text x="-8" y="4.0" text-anchor="end" font-size="10" fill="#666">4.02</text>
<text x="-50" y="100.0" text-anchor="middle" font-size="11" fill="#333" transform="rotate(-90,-50,100.0)">Mean R² (×10⁻³)</text>
<rect x="5.61" y="170.99" width="22.44" height="29.01" fill="#81C784" opacity="0.85"><title>Partner Identity: 0.000583</title></rect>
<line x1="16.83" y1="186.13" x2="16.83" y2="162.48" stroke="#333" stroke-width="1"/>
<line x1="14.83" y1="186.13" x2="18.83" y2="186.13" stroke="#333" stroke-width="1"/>
<line x1="14.83" y1="162.48" x2="18.83" y2="162.48" stroke="#333" stroke-width="1"/>
<rect x="28.06" y="189.74" width="22.44" height="10.26" fill="#BDBDBD" opacity="0.85"><title>Control: 0.000206</title></rect>
<line x1="39.28" y1="191.80" x2="39.28" y2="185.65" stroke="#333" stroke-width="1"/>
<line x1="37.28" y1="191.80" x2="41.28" y2="191.80" stroke="#333" stroke-width="1"/>
<line x1="37.28" y1="185.65" x2="41.28" y2="185.65" stroke="#333" stroke-width="1"/>
<text x="28.06" y="214" text-anchor="end" font-size="9" fill="#2196F3" transform="rotate(-45,28.06,214)">Phenomenology</text>
<rect x="61.72" y="160.63" width="22.44" height="39.37" fill="#81C784" opacity="0.85"><title>Partner Identity: 0.000791</title></rect>
<line x1="72.94" y1="178.06" x2="72.94" y2="153.66" stroke="#333" stroke-width="1"/>
<line x1="70.94" y1="178.06" x2="74.94" y2="178.06" stroke="#333" stroke-width="1"/>
<line x1="70.94" y1="153.66" x2="74.94" y2="153.66" stroke="#333" stroke-width="1"/>
<rect x="84.17" y="190.58" width="22.44" height="9.42" fill="#BDBDBD" opacity="0.85"><title>Control: 0.000189</title></rect>
<line x1="95.39" y1="191.90" x2="95.39" y2="188.62" stroke="#333" stroke-width="1"/>
<line x1="93.39" y1="191.90" x2="97.39" y2="191.90" stroke="#333" stroke-width="1"/>
<line x1="93.39" y1="188.62" x2="97.39" y2="188.62" stroke="#333" stroke-width="1"/>
<text x="84.17" y="214" text-anchor="end" font-size="9" fill="#2196F3" transform="rotate(-45,84.17,214)">Emotions</text>
<rect x="117.83" y="166.82" width="22.44" height="33.18" fill="#81C784" opacity="0.85"><title>Partner Identity: 0.000667</title></rect>
<line x1="129.06" y1="181.82" x2="129.06" y2="159.08" stroke="#333" stroke-width="1"/>
<line x1="127.06" y1="181.82" x2="131.06" y2="181.82" stroke="#333" stroke-width="1"/>
<line x1="127.06" y1="159.08" x2="131.06" y2="159.08" stroke="#333" stroke-width="1"/>
<rect x="140.28" y="189.59" width="22.44" height="10.41" fill="#BDBDBD" opacity="0.85"><title>Control: 0.000209</title></rect>
<line x1="151.50" y1="191.67" x2="151.50" y2="186.22" stroke="#333" stroke-width="1"/>
<line x1="149.50" y1="191.67" x2="153.50" y2="191.67" stroke="#333" stroke-width="1"/>
<line x1="149.50" y1="186.22" x2="153.50" y2="186.22" stroke="#333" stroke-width="1"/>
<text x="140.28" y="214" text-anchor="end" font-size="9" fill="#2196F3" transform="rotate(-45,140.28,214)">Agency</text>
<rect x="173.94" y="163.76" width="22.44" height="36.24" fill="#81C784" opacity="0.85"><title>Partner Identity: 0.000728</title></rect>
<line x1="185.17" y1="178.46" x2="185.17" y2="155.06" stroke="#333" stroke-width="1"/>
<line x1="183.17" y1="178.46" x2="187.17" y2="178.46" stroke="#333" stroke-width="1"/>
<line x1="183.17" y1="155.06" x2="187.17" y2="155.06" stroke="#333" stroke-width="1"/>
<rect x="196.39" y="186.27" width="22.44" height="13.73" fill="#BDBDBD" opacity="0.85"><title>Control: 0.000276</title></rect>
<line x1="207.61" y1="189.20" x2="207.61" y2="182.35" stroke="#333" stroke-width="1"/>
<line x1="205.61" y1="189.20" x2="209.61" y2="189.20" stroke="#333" stroke-width="1"/>
<line x1="205.61" y1="182.35" x2="209.61" y2="182.35" stroke="#333" stroke-width="1"/>
<text x="196.39" y="214" text-anchor="end" font-size="9" fill="#2196F3" transform="rotate(-45,196.39,214)">Intentions</text>
<rect x="230.06" y="168.63" width="22.44" height="31.37" fill="#81C784" opacity="0.85"><title>Partner Identity: 0.000630</title></rect>
<line x1="241.28" y1="185.83" x2="241.28" y2="154.31" stroke="#333" stroke-width="1"/>
<line x1="239.28" y1="185.83" x2="243.28" y2="185.83" stroke="#333" stroke-width="1"/>
<line x1="239.28" y1="154.31" x2="243.28" y2="154.31" stroke="#333" stroke-width="1"/>
<rect x="252.50" y="187.50" width="22.44" height="12.50" fill="#BDBDBD" opacity="0.85"><title>Control: 0.000251</title></rect>
<line x1="263.72" y1="189.80" x2="263.72" y2="184.13" stroke="#333" stroke-width="1"/>
<line x1="261.72" y1="189.80" x2="265.72" y2="189.80" stroke="#333" stroke-width="1"/>
<line x1="261.72" y1="184.13" x2="265.72" y2="184.13" stroke="#333" stroke-width="1"/>
<text x="252.50" y="214" text-anchor="end" font-size="9" fill="#2196F3" transform="rotate(-45,252.50,214)">Prediction</text>
<rect x="286.17" y="177.52" width="22.44" height="22.48" fill="#81C784" opacity="0.85"><title>Partner Identity: 0.000452</title></rect>
<line x1="297.39" y1="185.90" x2="297.39" y2="165.69" stroke="#333" stroke-width="1"/>
<line x1="295.39" y1="185.90" x2="299.39" y2="185.90" stroke="#333" stroke-width="1"/>
<line x1="295.39" y1="165.69" x2="299.39" y2="165.69" stroke="#333" stroke-width="1"/>
<rect x="308.61" y="186.61" width="22.44" height="13.39" fill="#BDBDBD" opacity="0.85"><title>Control: 0.000269</title></rect>
<line x1="319.83" y1="190.06" x2="319.83" y2="182.44" stroke="#333" stroke-width="1"/>
<line x1="317.83" y1="190.06" x2="321.83" y2="190.06" stroke="#333" stroke-width="1"/>
<line x1="317.83" y1="182.44" x2="321.83" y2="182.44" stroke="#333" stroke-width="1"/>
<text x="308.61" y="214" text-anchor="end" font-size="9" fill="#2196F3" transform="rotate(-45,308.61,214)">Cognitive</text>
<rect x="342.28" y="152.67" width="22.44" height="47.33" fill="#81C784" opacity="0.85"><title>Partner Identity: 0.000951</title></rect>
<line x1="353.50" y1="174.54" x2="353.50" y2="140.93" stroke="#333" stroke-width="1"/>
<line x1="351.50" y1="174.54" x2="355.50" y2="174.54" stroke="#333" stroke-width="1"/>
<line x1="351.50" y1="140.93" x2="355.50" y2="140.93" stroke="#333" stroke-width="1"/>
<rect x="364.72" y="185.47" width="22.44" height="14.53" fill="#BDBDBD" opacity="0.85"><title>Control: 0.000292</title></rect>
<line x1="375.94" y1="188.60" x2="375.94" y2="183.04" stroke="#333" stroke-width="1"/>
<line x1="373.94" y1="188.60" x2="377.94" y2="188.60" stroke="#333" stroke-width="1"/>
<line x1="373.94" y1="183.04" x2="377.94" y2="183.04" stroke="#333" stroke-width="1"/>
<text x="364.72" y="214" text-anchor="end" font-size="9" fill="#2196F3" transform="rotate(-45,364.72,214)">Social</text>
<rect x="398.39" y="161.12" width="22.44" height="38.88" fill="#81C784" opacity="0.85"><title>Partner Identity: 0.000781</title></rect>
<line x1="409.61" y1="175.67" x2="409.61" y2="152.79" stroke="#333" stroke-width="1"/>
<line x1="407.61" y1="175.67" x2="411.61" y2="175.67" stroke="#333" stroke-width="1"/>
<line x1="407.61" y1="152.79" x2="411.61" y2="152.79" stroke="#333" stroke-width="1"/>
<rect x="420.83" y="187.50" width="22.44" height="12.50" fill="#BDBDBD" opacity="0.85"><title>Control: 0.000251</title></rect>
<line x1="432.06" y1="189.36" x2="432.06" y2="184.60" stroke="#333" stroke-width="1"/>
<line x1="430.06" y1="189.36" x2="434.06" y2="189.36" stroke="#333" stroke-width="1"/>
<line x1="430.06" y1="184.60" x2="434.06" y2="184.60" stroke="#333" stroke-width="1"/>
<text x="420.83" y="214" text-anchor="end" font-size="9" fill="#2196F3" transform="rotate(-45,420.83,214)">Attention</text>
<rect x="454.50" y="183.28" width="22.44" height="16.72" fill="#81C784" opacity="0.85"><title>Partner Identity: 0.000336</title></rect>
<line x1="465.72" y1="189.35" x2="465.72" y2="178.09" stroke="#333" stroke-width="1"/>
<line x1="463.72" y1="189.35" x2="467.72" y2="189.35" stroke="#333" stroke-width="1"/>
<line x1="463.72" y1="178.09" x2="467.72" y2="178.09" stroke="#333" stroke-width="1"/>
<rect x="476.94" y="189.60" width="22.44" height="10.40" fill="#BDBDBD" opacity="0.85"><title>Control: 0.000209</title></rect>
<line x1="488.17" y1="191.44" x2="488.17" y2="185.47" stroke="#333" stroke-width="1"/>
<line x1="486.17" y1="191.44" x2="490.17" y2="191.44" stroke="#333" stroke-width="1"/>
<line x1="486.17" y1="185.47" x2="490.17" y2="185.47" stroke="#333" stroke-width="1"/>
<text x="476.94" y="214" text-anchor="end" font-size="9" fill="#4CAF50" transform="rotate(-45,476.94,214)">Embodiment</text>
<rect x="510.61" y="158.99" width="22.44" height="41.01" fill="#81C784" opacity="0.85"><title>Partner Identity: 0.000824</title></rect>
<line x1="521.83" y1="185.03" x2="521.83" y2="145.92" stroke="#333" stroke-width="1"/>
<line x1="519.83" y1="185.03" x2="523.83" y2="185.03" stroke="#333" stroke-width="1"/>
<line x1="519.83" y1="145.92" x2="523.83" y2="145.92" stroke="#333" stroke-width="1"/>
<rect x="533.06" y="189.97" width="22.44" height="10.03" fill="#BDBDBD" opacity="0.85"><title>Control: 0.000202</title></rect>
<line x1="544.28" y1="192.26" x2="544.28" y2="185.37" stroke="#333" stroke-width="1"/>
<line x1="542.28" y1="192.26" x2="546.28" y2="192.26" stroke="#333" stroke-width="1"/>
<line x1="542.28" y1="185.37" x2="546.28" y2="185.37" stroke="#333" stroke-width="1"/>
<text x="533.06" y="214" text-anchor="end" font-size="9" fill="#4CAF50" transform="rotate(-45,533.06,214)">Roles</text>
<rect x="566.72" y="186.22" width="22.44" height="13.78" fill="#81C784" opacity="0.85"><title>Partner Identity: 0.000277</title></rect>
<line x1="577.94" y1="192.38" x2="577.94" y2="175.99" stroke="#333" stroke-width="1"/>
<line x1="575.94" y1="192.38" x2="579.94" y2="192.38" stroke="#333" stroke-width="1"/>
<line x1="575.94" y1="175.99" x2="579.94" y2="175.99" stroke="#333" stroke-width="1"/>
<rect x="589.17" y="187.77" width="22.44" height="12.23" fill="#BDBDBD" opacity="0.85"><title>Control: 0.000246</title></rect>
<line x1="600.39" y1="192.78" x2="600.39" y2="182.97" stroke="#333" stroke-width="1"/>
<line x1="598.39" y1="192.78" x2="602.39" y2="192.78" stroke="#333" stroke-width="1"/>
<line x1="598.39" y1="182.97" x2="602.39" y2="182.97" stroke="#333" stroke-width="1"/>
<text x="589.17" y="214" text-anchor="end" font-size="9" fill="#4CAF50" transform="rotate(-45,589.17,214)">Animacy</text>
<rect x="622.83" y="173.12" width="22.44" height="26.88" fill="#81C784" opacity="0.85"><title>Partner Identity: 0.000540</title></rect>
<line x1="634.06" y1="185.08" x2="634.06" y2="165.84" stroke="#333" stroke-width="1"/>
<line x1="632.06" y1="185.08" x2="636.06" y2="185.08" stroke="#333" stroke-width="1"/>
<line x1="632.06" y1="165.84" x2="636.06" y2="165.84" stroke="#333" stroke-width="1"/>
<rect x="645.28" y="185.20" width="22.44" height="14.80" fill="#BDBDBD" opacity="0.85"><title>Control: 0.000297</title></rect>
<line x1="656.50" y1="190.11" x2="656.50" y2="179.92" stroke="#333" stroke-width="1"/>
<line x1="654.50" y1="190.11" x2="658.50" y2="190.11" stroke="#333" stroke-width="1"/>
<line x1="654.50" y1="179.92" x2="658.50" y2="179.92" stroke="#333" stroke-width="1"/>
<text x="645.28" y="214" text-anchor="end" font-size="9" fill="#FF9800" transform="rotate(-45,645.28,214)">Formality</text>
<rect x="678.94" y="170.94" width="22.44" height="29.06" fill="#81C784" opacity="0.85"><title>Partner Identity: 0.000584</title></rect>
<line x1="690.17" y1="177.33" x2="690.17" y2="164.24" stroke="#333" stroke-width="1"/>
<line x1="688.17" y1="177.33" x2="692.17" y2="177.33" stroke="#333" stroke-width="1"/>
<line x1="688.17" y1="164.24" x2="692.17" y2="164.24" stroke="#333" stroke-width="1"/>
<rect x="701.39" y="187.32" width="22.44" height="12.68" fill="#BDBDBD" opacity="0.85"><title>Control: 0.000255</title></rect>
<line x1="712.61" y1="189.77" x2="712.61" y2="184.69" stroke="#333" stroke-width="1"/>
<line x1="710.61" y1="189.77" x2="714.61" y2="189.77" stroke="#333" stroke-width="1"/>
<line x1="710.61" y1="184.69" x2="714.61" y2="184.69" stroke="#333" stroke-width="1"/>
<text x="701.39" y="214" text-anchor="end" font-size="9" fill="#FF9800" transform="rotate(-45,701.39,214)">Expertise</text>
<rect x="735.06" y="182.05" width="22.44" height="17.95" fill="#81C784" opacity="0.85"><title>Partner Identity: 0.000361</title></rect>
<line x1="746.28" y1="191.27" x2="746.28" y2="169.61" stroke="#333" stroke-width="1"/>
<line x1="744.28" y1="191.27" x2="748.28" y2="191.27" stroke="#333" stroke-width="1"/>
<line x1="744.28" y1="169.61" x2="748.28" y2="169.61" stroke="#333" stroke-width="1"/>
<rect x="757.50" y="186.93" width="22.44" height="13.07" fill="#BDBDBD" opacity="0.85"><title>Control: 0.000263</title></rect>
<line x1="768.72" y1="191.52" x2="768.72" y2="181.25" stroke="#333" stroke-width="1"/>
<line x1="766.72" y1="191.52" x2="770.72" y2="191.52" stroke="#333" stroke-width="1"/>
<line x1="766.72" y1="181.25" x2="770.72" y2="181.25" stroke="#333" stroke-width="1"/>
<text x="757.50" y="214" text-anchor="end" font-size="9" fill="#FF9800" transform="rotate(-45,757.50,214)">Helpfulness</text>
<rect x="791.17" y="186.05" width="22.44" height="13.95" fill="#81C784" opacity="0.85"><title>Partner Identity: 0.000280</title></rect>
<line x1="802.39" y1="192.96" x2="802.39" y2="169.97" stroke="#333" stroke-width="1"/>
<line x1="800.39" y1="192.96" x2="804.39" y2="192.96" stroke="#333" stroke-width="1"/>
<line x1="800.39" y1="169.97" x2="804.39" y2="169.97" stroke="#333" stroke-width="1"/>
<rect x="813.61" y="187.87" width="22.44" height="12.13" fill="#BDBDBD" opacity="0.85"><title>Control: 0.000244</title></rect>
<line x1="824.83" y1="193.45" x2="824.83" y2="179.88" stroke="#333" stroke-width="1"/>
<line x1="822.83" y1="193.45" x2="826.83" y2="193.45" stroke="#333" stroke-width="1"/>
<line x1="822.83" y1="179.88" x2="826.83" y2="179.88" stroke="#333" stroke-width="1"/>
<text x="813.61" y="214" text-anchor="end" font-size="9" fill="#9E9E9E" transform="rotate(-45,813.61,214)">Baseline</text>
<rect x="847.28" y="191.13" width="22.44" height="8.87" fill="#81C784" opacity="0.85"><title>Partner Identity: 0.000178</title></rect>
<line x1="858.50" y1="193.19" x2="858.50" y2="187.06" stroke="#333" stroke-width="1"/>
<line x1="856.50" y1="193.19" x2="860.50" y2="193.19" stroke="#333" stroke-width="1"/>
<line x1="856.50" y1="187.06" x2="860.50" y2="187.06" stroke="#333" stroke-width="1"/>
<rect x="869.72" y="187.68" width="22.44" height="12.32" fill="#BDBDBD" opacity="0.85"><title>Control: 0.000248</title></rect>
<line x1="880.94" y1="190.21" x2="880.94" y2="184.93" stroke="#333" stroke-width="1"/>
<line x1="878.94" y1="190.21" x2="882.94" y2="190.21" stroke="#333" stroke-width="1"/>
<line x1="878.94" y1="184.93" x2="882.94" y2="184.93" stroke="#333" stroke-width="1"/>
<text x="869.72" y="214" text-anchor="end" font-size="9" fill="#9E9E9E" transform="rotate(-45,869.72,214)">Biological</text>
<rect x="903.39" y="176.09" width="22.44" height="23.91" fill="#81C784" opacity="0.85"><title>Partner Identity: 0.000480</title></rect>
<line x1="914.61" y1="185.09" x2="914.61" y2="165.28" stroke="#333" stroke-width="1"/>
<line x1="912.61" y1="185.09" x2="916.61" y2="185.09" stroke="#333" stroke-width="1"/>
<line x1="912.61" y1="165.28" x2="916.61" y2="165.28" stroke="#333" stroke-width="1"/>
<rect x="925.83" y="190.45" width="22.44" height="9.55" fill="#BDBDBD" opacity="0.85"><title>Control: 0.000192</title></rect>
<line x1="937.06" y1="193.55" x2="937.06" y2="185.36" stroke="#333" stroke-width="1"/>
<line x1="935.06" y1="193.55" x2="939.06" y2="193.55" stroke="#333" stroke-width="1"/>
<line x1="935.06" y1="185.36" x2="939.06" y2="185.36" stroke="#333" stroke-width="1"/>
<text x="925.83" y="214" text-anchor="end" font-size="9" fill="#9E9E9E" transform="rotate(-45,925.83,214)">Shapes</text>
<rect x="959.50" y="169.03" width="22.44" height="30.97" fill="#81C784" opacity="0.85"><title>Partner Identity: 0.000622</title></rect>
<line x1="970.72" y1="177.73" x2="970.72" y2="155.75" stroke="#333" stroke-width="1"/>
<line x1="968.72" y1="177.73" x2="972.72" y2="177.73" stroke="#333" stroke-width="1"/>
<line x1="968.72" y1="155.75" x2="972.72" y2="155.75" stroke="#333" stroke-width="1"/>
<rect x="981.94" y="190.29" width="22.44" height="9.71" fill="#BDBDBD" opacity="0.85"><title>Control: 0.000195</title></rect>
<line x1="993.17" y1="191.56" x2="993.17" y2="188.52" stroke="#333" stroke-width="1"/>
<line x1="991.17" y1="191.56" x2="995.17" y2="191.56" stroke="#333" stroke-width="1"/>
<line x1="991.17" y1="188.52" x2="995.17" y2="188.52" stroke="#333" stroke-width="1"/>
<text x="981.94" y="214" text-anchor="end" font-size="9" fill="#00BCD4" transform="rotate(-45,981.94,214)">SysPrompt (labeled)</text>
<line x1="0" y1="200" x2="1010" y2="200" stroke="#333"/>
<line x1="0" y1="0" x2="0" y2="200" stroke="#333"/>
</g>
<rect x="70.0" y="324" width="10" height="10" fill="#81C784"/>
<text x="84.0" y="332" font-size="8" fill="#333">Partner Identity</text>
<rect x="272.0" y="324" width="10" height="10" fill="#BDBDBD"/>
<text x="286.0" y="332" font-size="8" fill="#333">Control</text>
</svg>