<svg viewBox="0 0 1100 360" xmlns="http://www.w3.org/2000/svg" style="width:100%;max-width:1100px;height:auto;font-family:Arial,sans-serif;">
<rect width="1100" height="360" fill="white"/>
<g transform="translate(70,30)">
<line x1="0" y1="200.0" x2="1010" y2="200.0" stroke="#eee" stroke-width="1"/>
<text x="-8" y="204.0" text-anchor="end" font-size="10" fill="#666">0.00</text>
<line x1="0" y1="160.0" x2="1010" y2="160.0" stroke="#eee" stroke-width="1"/>
<text x="-8" y="164.0" text-anchor="end" font-size="10" fill="#666">0.80</text>
<line x1="0" y1="120.0" x2="1010" y2="120.0" stroke="#eee" stroke-width="1"/>
<text x="-8" y="124.0" text-anchor="end" font-size="10" fill="#666">1.61</text>
<line x1="0" y1="80.0" x2="1010" y2="80.0" stroke="#eee" stroke-width="1"/>
<text x="-8" y="84.0" text-anchor="end" font-size="10" fill="#666">2.41</text>
<line x1="0" y1="40.0" x2="1010" y2="40.0" stroke="#eee" stroke-width="1"/>
<text x="-8" y="44.0" text-anchor="end" font-size="10" fill="#666">3.21</text>
<line x1="0" y1="0.0" x2="1010" y2="0.0" stroke="#eee" stroke-width="1"/>
<text x="-8" y="4.0" text-anchor="end" font-size="10" fill="#666">4.02</text>
<text x="-50" y="100.0" text-anchor="middle" font-size="11" fill="#333" transform="rotate(-90,-50,100.0)">Mean R² (×10⁻³)</text>
<rect x="5.61" y="147.78" width="22.44" height="52.22" fill="#2E7D32" opacity="0.85"><title>Partner Identity: 0.001049</title></rect>
<line x1="16.83" y1="162.92" x2="16.83" y2="120.41" stroke="#333" stroke-width="1"/>
<line x1="14.83" y1="162.92" x2="18.83" y2="162.92" stroke="#333" stroke-width="1"/>
<line x1="14.83" y1="120.41" x2="18.83" y2="120.41" stroke="#333" stroke-width="1"/>
<rect x="28.06" y="174.77" width="22.44" height="25.23" fill="#616161" opacity="0.85"><title>Control: 0.000507</title></rect>
<line x1="39.28" y1="186.61" x2="39.28" y2="153.31" stroke="#333" stroke-width="1"/>
<line x1="37.28" y1="186.61" x2="41.28" y2="186.61" stroke="#333" stroke-width="1"/>
<line x1="37.28" y1="153.31" x2="41.28" y2="153.31" stroke="#333" stroke-width="1"/>
<text x="28.06" y="214" text-anchor="end" font-size="9" fill="#2196F3" transform="rotate(-45,28.06,214)">Phenomenology</text>
<rect x="61.72" y="121.81" width="22.44" height="78.19" fill="#2E7D32" opacity="0.85"><title>Partner Identity: 0.001571</title></rect>
<line x1="72.94" y1="138.82" x2="72.94" y2="88.82" stroke="#333" stroke-width="1"/>
<line x1="70.94" y1="138.82" x2="74.94" y2="138.82" stroke="#333" stroke-width="1"/>
<line x1="70.94" y1="88.82" x2="74.94" y2="88.82" stroke="#333" stroke-width="1"/>
<rect x="84.17" y="180.93" width="22.44" height="19.07" fill="#616161" opacity="0.85"><title>Control: 0.000383</title></rect>
<line x1="95.39" y1="185.52" x2="95.39" y2="169.54" stroke="#333" stroke-width="1"/>
<line x1="93.39" y1="185.52" x2="97.39" y2="185.52" stroke="#333" stroke-width="1"/>
<line x1="93.39" y1="169.54" x2="97.39" y2="169.54" stroke="#333" stroke-width="1"/>
<text x="84.17" y="214" text-anchor="end" font-size="9" fill="#2196F3" transform="rotate(-45,84.17,214)">Emotions</text>
<rect x="117.83" y="105.01" width="22.44" height="94.99" fill="#2E7D32" opacity="0.85"><title>Partner Identity: 0.001909</title></rect>
<line x1="129.06" y1="128.72" x2="129.06" y2="68.91" stroke="#333" stroke-width="1"/>
<line x1="127.06" y1="128.72" x2="131.06" y2="128.72" stroke="#333" stroke-width="1"/>
<line x1="127.06" y1="68.91" x2="131.06" y2="68.91" stroke="#333" stroke-width="1"/>
<rect x="140.28" y="162.06" width="22.44" height="37.94" fill="#616161" opacity="0.85"><title>Control: 0.000762</title></rect>
<line x1="151.50" y1="178.19" x2="151.50" y2="131.65" stroke="#333" stroke-width="1"/>
<line x1="149.50" y1="178.19" x2="153.50" y2="178.19" stroke="#333" stroke-width="1"/>
<line x1="149.50" y1="131.65" x2="153.50" y2="131.65" stroke="#333" stroke-width="1"/>
<text x="140.28" y="214" text-anchor="end" font-size="9" fill="#2196F3" transform="rotate(-45,140.28,214)">Agency</text>
<rect x="173.94" y="106.94" width="22.44" height="93.06" fill="#2E7D32" opacity="0.85"><title>Partner Identity: 0.001870</title></rect>
<line x1="185.17" y1="128.07" x2="185.17" y2="73.13" stroke="#333" stroke-width="1"/>
<line x1="183.17" y1="128.07" x2="187.17" y2="128.07" stroke="#333" stroke-width="1"/>
<line x1="183.17" y1="73.13" x2="187.17" y2="73.13" stroke="#333" stroke-width="1"/>
<rect x="196.39" y="147.35" width="22.44" height="52.65" fill="#616161" opacity="0.85"><title>Control: 0.001058</title></rect>
<line x1="207.61" y1="167.66" x2="207.61" y2="123.88" stroke="#333" stroke-width="1"/>
<line x1="205.61" y1="167.66" x2="209.61" y2="167.66" stroke="#333" stroke-width="1"/>
<line x1="205.61" y1="123.88" x2="209.61" y2="123.88" stroke="#333" stroke-width="1"/>
<text x="196.39" y="214" text-anchor="end" font-size="9" fill="#2196F3" transform="rotate(-45,196.39,214)">Intentions</text>
<rect x="230.06" y="86.61" width="22.44" height="113.39" fill="#2E7D32" opacity="0.85"><title>Partner Identity: 0.002278</title></rect>
<line x1="241.28" y1="114.66" x2="241.28" y2="45.43" stroke="#333" stroke-width="1"/>
<line x1="239.28" y1="114.66" x2="243.28" y2="114.66" stroke="#333" stroke-width="1"/>
<line x1="239.28" y1="45.43" x2="243.28" y2="45.43" stroke="#333" stroke-width="1"/>
<rect x="252.50" y="174.43" width="22.44" height="25.57" fill="#616161" opacity="0.85"><title>Control: 0.000514</title></rect>
<line x1="263.72" y1="184.16" x2="263.72" y2="143.88" stroke="#333" stroke-width="1"/>
<line x1="261.72" y1="184.16" x2="265.72" y2="184.16" stroke="#333" stroke-width="1"/>
<line x1="261.72" y1="143.88" x2="265.72" y2="143.88" stroke="#333" stroke-width="1"/>
<text x="252.50" y="214" text-anchor="end" font-size="9" fill="#2196F3" transform="rotate(-45,252.50,214)">Prediction</text>
<rect x="286.17" y="104.03" width="22.44" height="95.97" fill="#2E7D32" opacity="0.85"><title>Partner Identity: 0.001928</title></rect>
<line x1="297.39" y1="123.63" x2="297.39" y2="65.23" stroke="#333" stroke-width="1"/>
<line x1="295.39" y1="123.63" x2="299.39" y2="123.63" stroke="#333" stroke-width="1"/>
<line x1="295.39" y1="65.23" x2="299.39" y2="65.23" stroke="#333" stroke-width="1"/>
<rect x="308.61" y="132.26" width="22.44" height="67.74" fill="#616161" opacity="0.85"><title>Control: 0.001361</title></rect>
<line x1="319.83" y1="161.12" x2="319.83" y2="112.97" stroke="#333" stroke-width="1"/>
<line x1="317.83" y1="161.12" x2="321.83" y2="161.12" stroke="#333" stroke-width="1"/>
<line x1="317.83" y1="112.97" x2="321.83" y2="112.97" stroke="#333" stroke-width="1"/>
<text x="308.61" y="214" text-anchor="end" font-size="9" fill="#2196F3" transform="rotate(-45,308.61,214)">Cognitive</text>
<rect x="342.28" y="85.04" width="22.44" height="114.96" fill="#2E7D32" opacity="0.85"><title>Partner Identity: 0.002310</title></rect>
<line x1="353.50" y1="112.76" x2="353.50" y2="36.49" stroke="#333" stroke-width="1"/>
<line x1="351.50" y1="112.76" x2="355.50" y2="112.76" stroke="#333" stroke-width="1"/>
<line x1="351.50" y1="36.49" x2="355.50" y2="36.49" stroke="#333" stroke-width="1"/>
<rect x="364.72" y="178.05" width="22.44" height="21.95" fill="#616161" opacity="0.85"><title>Control: 0.000441</title></rect>
<line x1="375.94" y1="183.75" x2="375.94" y2="157.62" stroke="#333" stroke-width="1"/>
<line x1="373.94" y1="183.75" x2="377.94" y2="183.75" stroke="#333" stroke-width="1"/>
<line x1="373.94" y1="157.62" x2="377.94" y2="157.62" stroke="#333" stroke-width="1"/>
<text x="364.72" y="214" text-anchor="end" font-size="9" fill="#2196F3" transform="rotate(-45,364.72,214)">Social</text>
<rect x="398.39" y="76.33" width="22.44" height="123.67" fill="#2E7D32" opacity="0.85"><title>Partner Identity: 0.002485</title></rect>
<line x1="409.61" y1="100.84" x2="409.61" y2="39.41" stroke="#333" stroke-width="1"/>
<line x1="407.61" y1="100.84" x2="411.61" y2="100.84" stroke="#333" stroke-width="1"/>
<line x1="407.61" y1="39.41" x2="411.61" y2="39.41" stroke="#333" stroke-width="1"/>
<rect x="420.83" y="164.05" width="22.44" height="35.95" fill="#616161" opacity="0.85"><title>Control: 0.000722</title></rect>
<line x1="432.06" y1="177.80" x2="432.06" y2="146.28" stroke="#333" stroke-width="1"/>
<line x1="430.06" y1="177.80" x2="434.06" y2="177.80" stroke="#333" stroke-width="1"/>
<line x1="430.06" y1="146.28" x2="434.06" y2="146.28" stroke="#333" stroke-width="1"/>
<text x="420.83" y="214" text-anchor="end" font-size="9" fill="#2196F3" transform="rotate(-45,420.83,214)">Attention</text>
<rect x="454.50" y="156.32" width="22.44" height="43.68" fill="#2E7D32" opacity="0.85"><title>Partner Identity: 0.000878</title></rect>
<line x1="465.72" y1="168.09" x2="465.72" y2="130.33" stroke="#333" stroke-width="1"/>
<line x1="463.72" y1="168.09" x2="467.72" y2="168.09" stroke="#333" stroke-width="1"/>
<line x1="463.72" y1="130.33" x2="467.72" y2="130.33" stroke="#333" stroke-width="1"/>
<rect x="476.94" y="165.75" width="22.44" height="34.25" fill="#616161" opacity="0.85"><title>Control: 0.000688</title></rect>
<line x1="488.17" y1="180.66" x2="488.17" y2="137.11" stroke="#333" stroke-width="1"/>
<line x1="486.17" y1="180.66" x2="490.17" y2="180.66" stroke="#333" stroke-width="1"/>
<line x1="486.17" y1="137.11" x2="490.17" y2="137.11" stroke="#333" stroke-width="1"/>
<text x="476.94" y="214" text-anchor="end" font-size="9" fill="#4CAF50" transform="rotate(-45,476.94,214)">Embodiment</text>
<rect x="510.61" y="134.42" width="22.44" height="65.58" fill="#2E7D32" opacity="0.85"><title>Partner Identity: 0.001318</title></rect>
<line x1="521.83" y1="156.48" x2="521.83" y2="91.61" stroke="#333" stroke-width="1"/>
<line x1="519.83" y1="156.48" x2="523.83" y2="156.48" stroke="#333" stroke-width="1"/>
<line x1="519.83" y1="91.61" x2="523.83" y2="91.61" stroke="#333" stroke-width="1"/>
<rect x="533.06" y="180.18" width="22.44" height="19.82" fill="#616161" opacity="0.85"><title>Control: 0.000398</title></rect>
<line x1="544.28" y1="186.32" x2="544.28" y2="160.62" stroke="#333" stroke-width="1"/>
<line x1="542.28" y1="186.32" x2="546.28" y2="186.32" stroke="#333" stroke-width="1"/>
<line x1="542.28" y1="160.62" x2="546.28" y2="160.62" stroke="#333" stroke-width="1"/>
<text x="533.06" y="214" text-anchor="end" font-size="9" fill="#4CAF50" transform="rotate(-45,533.06,214)">Roles</text>
<rect x="566.72" y="173.86" width="22.44" height="26.14" fill="#2E7D32" opacity="0.85"><title>Partner Identity: 0.000525</title></rect>
<line x1="577.94" y1="183.51" x2="577.94" y2="153.88" stroke="#333" stroke-width="1"/>
<line x1="575.94" y1="183.51" x2="579.94" y2="183.51" stroke="#333" stroke-width="1"/>
<line x1="575.94" y1="153.88" x2="579.94" y2="153.88" stroke="#333" stroke-width="1"/>
<rect x="589.17" y="184.99" width="22.44" height="15.01" fill="#616161" opacity="0.85"><title>Control: 0.000302</title></rect>
<line x1="600.39" y1="192.08" x2="600.39" y2="171.49" stroke="#333" stroke-width="1"/>
<line x1="598.39" y1="192.08" x2="602.39" y2="192.08" stroke="#333" stroke-width="1"/>
<line x1="598.39" y1="171.49" x2="602.39" y2="171.49" stroke="#333" stroke-width="1"/>
<text x="589.17" y="214" text-anchor="end" font-size="9" fill="#4CAF50" transform="rotate(-45,589.17,214)">Animacy</text>
<rect x="622.83" y="154.39" width="22.44" height="45.61" fill="#2E7D32" opacity="0.85"><title>Partner Identity: 0.000916</title></rect>
<line x1="634.06" y1="173.60" x2="634.06" y2="140.54" stroke="#333" stroke-width="1"/>
<line x1="632.06" y1="173.60" x2="636.06" y2="173.60" stroke="#333" stroke-width="1"/>
<line x1="632.06" y1="140.54" x2="636.06" y2="140.54" stroke="#333" stroke-width="1"/>
<rect x="645.28" y="167.12" width="22.44" height="32.88" fill="#616161" opacity="0.85"><title>Control: 0.000661</title></rect>
<line x1="656.50" y1="190.72" x2="656.50" y2="143.64" stroke="#333" stroke-width="1"/>
<line x1="654.50" y1="190.72" x2="658.50" y2="190.72" stroke="#333" stroke-width="1"/>
<line x1="654.50" y1="143.64" x2="658.50" y2="143.64" stroke="#333" stroke-width="1"/>
<text x="645.28" y="214" text-anchor="end" font-size="9" fill="#FF9800" transform="rotate(-45,645.28,214)">Formality</text>
<rect x="678.94" y="123.15" width="22.44" height="76.85" fill="#2E7D32" opacity="0.85"><title>Partner Identity: 0.001544</title></rect>
<line x1="690.17" y1="143.30" x2="690.17" y2="97.13" stroke="#333" stroke-width="1"/>
<line x1="688.17" y1="143.30" x2="692.17" y2="143.30" stroke="#333" stroke-width="1"/>
<line x1="688.17" y1="97.13" x2="692.17" y2="97.13" stroke="#333" stroke-width="1"/>
<rect x="701.39" y="146.81" width="22.44" height="53.19" fill="#616161" opacity="0.85"><title>Control: 0.001069</title></rect>
<line x1="712.61" y1="165.01" x2="712.61" y2="134.62" stroke="#333" stroke-width="1"/>
<line x1="710.61" y1="165.01" x2="714.61" y2="165.01" stroke="#333" stroke-width="1"/>
<line x1="710.61" y1="134.62" x2="714.61" y2="134.62" stroke="#333" stroke-width="1"/>
<text x="701.39" y="214" text-anchor="end" font-size="9" fill="#FF9800" transform="rotate(-45,701.39,214)">Expertise</text>
<rect x="735.06" y="171.18" width="22.44" height="28.82" fill="#2E7D32" opacity="0.85"><title>Partner Identity: 0.000579</title></rect>
<line x1="746.28" y1="187.86" x2="746.28" y2="152.44" stroke="#333" stroke-width="1"/>
<line x1="744.28" y1="187.86" x2="748.28" y2="187.86" stroke="#333" stroke-width="1"/>
<line x1="744.28" y1="152.44" x2="748.28" y2="152.44" stroke="#333" stroke-width="1"/>
<rect x="757.50" y="160.29" width="22.44" height="39.71" fill="#616161" opacity="0.85"><title>Control: 0.000798</title></rect>
<line x1="768.72" y1="186.02" x2="768.72" y2="129.90" stroke="#333" stroke-width="1"/>
<line x1="766.72" y1="186.02" x2="770.72" y2="186.02" stroke="#333" stroke-width="1"/>
<line x1="766.72" y1="129.90" x2="770.72" y2="129.90" stroke="#333" stroke-width="1"/>
<text x="757.50" y="214" text-anchor="end" font-size="9" fill="#FF9800" transform="rotate(-45,757.50,214)">Helpfulness</text>
<rect x="791.17" y="55.69" width="22.44" height="144.31" fill="#2E7D32" opacity="0.85"><title>Partner Identity: 0.002900</title></rect>
<line x1="802.39" y1="189.42" x2="802.39" y2="127.68" stroke="#333" stroke-width="1"/>
<line x1="800.39" y1="189.42" x2="804.39" y2="189.42" stroke="#333" stroke-width="1"/>
<line x1="800.39" y1="127.68" x2="804.39" y2="127.68" stroke="#333" stroke-width="1"/>
<rect x="813.61" y="180.12" width="22.44" height="19.88" fill="#616161" opacity="0.85"><title>Control: 0.000399</title></rect>
<line x1="824.83" y1="191.43" x2="824.83" y2="138.98" stroke="#333" stroke-width="1"/>
<line x1="822.83" y1="191.43" x2="826.83" y2="191.43" stroke="#333" stroke-width="1"/>
<line x1="822.83" y1="138.98" x2="826.83" y2="138.98" stroke="#333" stroke-width="1"/>
<text x="813.61" y="214" text-anchor="end" font-size="9" fill="#9E9E9E" transform="rotate(-45,813.61,214)">Baseline</text>
<rect x="847.28" y="175.87" width="22.44" height="24.13" fill="#2E7D32" opacity="0.85"><title>Partner Identity: 0.000485</title></rect>
<line x1="858.50" y1="180.59" x2="858.50" y2="162.03" stroke="#333" stroke-width="1"/>
<line x1="856.50" y1="180.59" x2="860.50" y2="180.59" stroke="#333" stroke-width="1"/>
<line x1="856.50" y1="162.03" x2="860.50" y2="162.03" stroke="#333" stroke-width="1"/>
<rect x="869.72" y="177.03" width="22.44" height="22.97" fill="#616161" opacity="0.85"><title>Control: 0.000461</title></rect>
<line x1="880.94" y1="184.21" x2="880.94" y2="159.63" stroke="#333" stroke-width="1"/>
<line x1="878.94" y1="184.21" x2="882.94" y2="184.21" stroke="#333" stroke-width="1"/>
<line x1="878.94" y1="159.63" x2="882.94" y2="159.63" stroke="#333" stroke-width="1"/>
<text x="869.72" y="214" text-anchor="end" font-size="9" fill="#9E9E9E" transform="rotate(-45,869.72,214)">Biological</text>
<rect x="903.39" y="175.77" width="22.44" height="24.23" fill="#2E7D32" opacity="0.85"><title>Partner Identity: 0.000487</title></rect>
<line x1="914.61" y1="186.73" x2="914.61" y2="165.38" stroke="#333" stroke-width="1"/>
<line x1="912.61" y1="186.73" x2="916.61" y2="186.73" stroke="#333" stroke-width="1"/>
<line x1="912.61" y1="165.38" x2="916.61" y2="165.38" stroke="#333" stroke-width="1"/>
<rect x="925.83" y="179.25" width="22.44" height="20.75" fill="#616161" opacity="0.85"><title>Control: 0.000417</title></rect>
<line x1="937.06" y1="191.71" x2="937.06" y2="143.08" stroke="#333" stroke-width="1"/>
<line x1="935.06" y1="191.71" x2="939.06" y2="191.71" stroke="#333" stroke-width="1"/>
<line x1="935.06" y1="143.08" x2="939.06" y2="143.08" stroke="#333" stroke-width="1"/>
<text x="925.83" y="214" text-anchor="end" font-size="9" fill="#9E9E9E" transform="rotate(-45,925.83,214)">Shapes</text>
<rect x="959.50" y="106.04" width="22.44" height="93.96" fill="#2E7D32" opacity="0.85"><title>Partner Identity: 0.001888</title></rect>
<line x1="970.72" y1="142.03" x2="970.72" y2="26.84" stroke="#333" stroke-width="1"/>
<line x1="968.72" y1="142.03" x2="972.72" y2="142.03" stroke="#333" stroke-width="1"/>
<line x1="968.72" y1="26.84" x2="972.72" y2="26.84" stroke="#333" stroke-width="1"/>
<rect x="981.94" y="181.99" width="22.44" height="18.01" fill="#616161" opacity="0.85"><title>Control: 0.000362</title></rect>
<line x1="993.17" y1="188.11" x2="993.17" y2="176.21" stroke="#333" stroke-width="1"/>
<line x1="991.17" y1="188.11" x2="995.17" y2="188.11" stroke="#333" stroke-width="1"/>
<line x1="991.17" y1="176.21" x2="995.17" y2="176.21" stroke="#333" stroke-width="1"/>
<text x="981.94" y="214" text-anchor="end" font-size="9" fill="#00BCD4" transform="rotate(-45,981.94,214)">SysPrompt (labeled)</text>
<line x1="0" y1="200" x2="1010" y2="200" stroke="#333"/>
<line x1="0" y1="0" x2="0" y2="200" stroke="#333"/>
</g>
<rect x="70.0" y="324" width="10" height="10" fill="#2E7D32"/>
<text x="84.0" y="332" font-size="8" fill="#333">Partner Identity</text>
<rect x="272.0" y="324" width="10" height="10" fill="#616161"/>
<text x="286.0" y="332" font-size="8" fill="#333">Control</text>
</svg>