<svg viewBox="0 0 800 340" xmlns="http://www.w3.org/2000/svg" style="width:100%;max-width:800px;height:auto;font-family:Arial,sans-serif;">
<rect width="800" height="340" fill="white"/>

<g transform="translate(70,30)">
<line x1="0" y1="190.0" x2="710" y2="190.0" stroke="#eee" stroke-width="1"/>
<text x="-8" y="194.0" text-anchor="end" font-size="10" fill="#666">0.00</text>
<line x1="0" y1="152.0" x2="710" y2="152.0" stroke="#eee" stroke-width="1"/>
<text x="-8" y="156.0" text-anchor="end" font-size="10" fill="#666">1.61</text>
<line x1="0" y1="114.0" x2="710" y2="114.0" stroke="#eee" stroke-width="1"/>
<text x="-8" y="118.0" text-anchor="end" font-size="10" fill="#666">3.23</text>
<line x1="0" y1="76.0" x2="710" y2="76.0" stroke="#eee" stroke-width="1"/>
<text x="-8" y="80.0" text-anchor="end" font-size="10" fill="#666">4.84</text>
<line x1="0" y1="38.0" x2="710" y2="38.0" stroke="#eee" stroke-width="1"/>
<text x="-8" y="42.0" text-anchor="end" font-size="10" fill="#666">6.46</text>
<line x1="0" y1="0.0" x2="710" y2="0.0" stroke="#eee" stroke-width="1"/>
<text x="-8" y="4.0" text-anchor="end" font-size="10" fill="#666">8.07</text>
<text x="-50" y="95.0" text-anchor="middle" font-size="11" fill="#333" transform="rotate(-90,-50,95.0)">Mean R² (×10⁻³)</text>
<line x1="88.75" y1="0" x2="88.75" y2="190" stroke="#ddd" stroke-width="1" stroke-dasharray="4,3"/>
<rect x="6.66" y="131.31" width="15.53" height="58.69" fill="#2E7D32" opacity="0.85"><title>Partner Identity: 2.494 ×10⁻³</title></rect>
<line x1="14.42" y1="139.28" x2="14.42" y2="125.81" stroke="#333" stroke-width="1"/>
<line x1="12.42" y1="139.28" x2="16.42" y2="139.28" stroke="#333" stroke-width="1"/>
<line x1="12.42" y1="125.81" x2="16.42" y2="125.81" stroke="#333" stroke-width="1"/>
<rect x="24.19" y="170.83" width="15.53" height="19.17" fill="#616161" opacity="0.85"><title>Control: 0.814 ×10⁻³</title></rect>
<line x1="31.95" y1="175.82" x2="31.95" y2="165.09" stroke="#333" stroke-width="1"/>
<line x1="29.95" y1="175.82" x2="33.95" y2="175.82" stroke="#333" stroke-width="1"/>
<line x1="29.95" y1="165.09" x2="33.95" y2="165.09" stroke="#333" stroke-width="1"/>
<text x="24.2" y="204" text-anchor="end" font-size="9" fill="#9E9E9E" transform="rotate(-45,24.2,204)">Biological</text>
<rect x="51.03" y="177.83" width="15.53" height="12.17" fill="#2E7D32" opacity="0.85"><title>Partner Identity: 0.517 ×10⁻³</title></rect>
<line x1="58.80" y1="183.75" x2="58.80" y2="172.16" stroke="#333" stroke-width="1"/>
<line x1="56.80" y1="183.75" x2="60.80" y2="183.75" stroke="#333" stroke-width="1"/>
<line x1="56.80" y1="172.16" x2="60.80" y2="172.16" stroke="#333" stroke-width="1"/>
<rect x="68.56" y="181.87" width="15.53" height="8.13" fill="#616161" opacity="0.85"><title>Control: 0.345 ×10⁻³</title></rect>
<line x1="76.33" y1="186.37" x2="76.33" y2="169.35" stroke="#333" stroke-width="1"/>
<line x1="74.33" y1="186.37" x2="78.33" y2="186.37" stroke="#333" stroke-width="1"/>
<line x1="74.33" y1="169.35" x2="78.33" y2="169.35" stroke="#333" stroke-width="1"/>
<text x="68.6" y="204" text-anchor="end" font-size="9" fill="#9E9E9E" transform="rotate(-45,68.6,204)">Shapes</text>
<rect x="95.41" y="34.89" width="15.53" height="155.11" fill="#2E7D32" opacity="0.85"><title>Partner Identity: 6.591 ×10⁻³</title></rect>
<line x1="103.17" y1="55.01" x2="103.17" y2="25.50" stroke="#333" stroke-width="1"/>
<line x1="101.17" y1="55.01" x2="105.17" y2="55.01" stroke="#333" stroke-width="1"/>
<line x1="101.17" y1="25.50" x2="105.17" y2="25.50" stroke="#333" stroke-width="1"/>
<rect x="112.94" y="172.51" width="15.53" height="17.49" fill="#616161" opacity="0.85"><title>Control: 0.743 ×10⁻³</title></rect>
<line x1="120.70" y1="177.30" x2="120.70" y2="164.68" stroke="#333" stroke-width="1"/>
<line x1="118.70" y1="177.30" x2="122.70" y2="177.30" stroke="#333" stroke-width="1"/>
<line x1="118.70" y1="164.68" x2="122.70" y2="164.68" stroke="#333" stroke-width="1"/>
<text x="112.9" y="204" text-anchor="end" font-size="9" fill="#2196F3" transform="rotate(-45,112.9,204)">Social</text>
<rect x="139.78" y="38.81" width="15.53" height="151.19" fill="#2E7D32" opacity="0.85"><title>Partner Identity: 6.424 ×10⁻³</title></rect>
<line x1="147.55" y1="60.52" x2="147.55" y2="31.10" stroke="#333" stroke-width="1"/>
<line x1="145.55" y1="60.52" x2="149.55" y2="60.52" stroke="#333" stroke-width="1"/>
<line x1="145.55" y1="31.10" x2="149.55" y2="31.10" stroke="#333" stroke-width="1"/>
<rect x="157.31" y="165.94" width="15.53" height="24.06" fill="#616161" opacity="0.85"><title>Control: 1.022 ×10⁻³</title></rect>
<line x1="165.08" y1="173.25" x2="165.08" y2="159.74" stroke="#333" stroke-width="1"/>
<line x1="163.08" y1="173.25" x2="167.08" y2="173.25" stroke="#333" stroke-width="1"/>
<line x1="163.08" y1="159.74" x2="167.08" y2="159.74" stroke="#333" stroke-width="1"/>
<text x="157.3" y="204" text-anchor="end" font-size="9" fill="#2196F3" transform="rotate(-45,157.3,204)">Attention</text>
<rect x="184.16" y="45.38" width="15.53" height="144.62" fill="#2E7D32" opacity="0.85"><title>Partner Identity: 6.145 ×10⁻³</title></rect>
<line x1="191.92" y1="65.47" x2="191.92" y2="36.85" stroke="#333" stroke-width="1"/>
<line x1="189.92" y1="65.47" x2="193.92" y2="65.47" stroke="#333" stroke-width="1"/>
<line x1="189.92" y1="36.85" x2="193.92" y2="36.85" stroke="#333" stroke-width="1"/>
<rect x="201.69" y="167.44" width="15.53" height="22.56" fill="#616161" opacity="0.85"><title>Control: 0.959 ×10⁻³</title></rect>
<line x1="209.45" y1="174.27" x2="209.45" y2="158.01" stroke="#333" stroke-width="1"/>
<line x1="207.45" y1="174.27" x2="211.45" y2="174.27" stroke="#333" stroke-width="1"/>
<line x1="207.45" y1="158.01" x2="211.45" y2="158.01" stroke="#333" stroke-width="1"/>
<text x="201.7" y="204" text-anchor="end" font-size="9" fill="#2196F3" transform="rotate(-45,201.7,204)">Prediction</text>
<rect x="228.53" y="59.86" width="15.53" height="130.14" fill="#2E7D32" opacity="0.85"><title>Partner Identity: 5.530 ×10⁻³</title></rect>
<line x1="236.30" y1="79.43" x2="236.30" y2="50.78" stroke="#333" stroke-width="1"/>
<line x1="234.30" y1="79.43" x2="238.30" y2="79.43" stroke="#333" stroke-width="1"/>
<line x1="234.30" y1="50.78" x2="238.30" y2="50.78" stroke="#333" stroke-width="1"/>
<rect x="246.06" y="154.17" width="15.53" height="35.83" fill="#616161" opacity="0.85"><title>Control: 1.522 ×10⁻³</title></rect>
<line x1="253.83" y1="164.37" x2="253.83" y2="148.94" stroke="#333" stroke-width="1"/>
<line x1="251.83" y1="164.37" x2="255.83" y2="164.37" stroke="#333" stroke-width="1"/>
<line x1="251.83" y1="148.94" x2="255.83" y2="148.94" stroke="#333" stroke-width="1"/>
<text x="246.1" y="204" text-anchor="end" font-size="9" fill="#2196F3" transform="rotate(-45,246.1,204)">Cognitive</text>
<rect x="272.91" y="61.60" width="15.53" height="128.40" fill="#2E7D32" opacity="0.85"><title>Partner Identity: 5.456 ×10⁻³</title></rect>
<line x1="280.67" y1="78.87" x2="280.67" y2="54.80" stroke="#333" stroke-width="1"/>
<line x1="278.67" y1="78.87" x2="282.67" y2="78.87" stroke="#333" stroke-width="1"/>
<line x1="278.67" y1="54.80" x2="282.67" y2="54.80" stroke="#333" stroke-width="1"/>
<rect x="290.44" y="161.87" width="15.53" height="28.13" fill="#616161" opacity="0.85"><title>Control: 1.195 ×10⁻³</title></rect>
<line x1="298.20" y1="171.30" x2="298.20" y2="150.33" stroke="#333" stroke-width="1"/>
<line x1="296.20" y1="171.30" x2="300.20" y2="171.30" stroke="#333" stroke-width="1"/>
<line x1="296.20" y1="150.33" x2="300.20" y2="150.33" stroke="#333" stroke-width="1"/>
<text x="290.4" y="204" text-anchor="end" font-size="9" fill="#2196F3" transform="rotate(-45,290.4,204)">Agency</text>
<rect x="317.28" y="67.75" width="15.53" height="122.25" fill="#2E7D32" opacity="0.85"><title>Partner Identity: 5.194 ×10⁻³</title></rect>
<line x1="325.05" y1="86.44" x2="325.05" y2="58.60" stroke="#333" stroke-width="1"/>
<line x1="323.05" y1="86.44" x2="327.05" y2="86.44" stroke="#333" stroke-width="1"/>
<line x1="323.05" y1="58.60" x2="327.05" y2="58.60" stroke="#333" stroke-width="1"/>
<rect x="334.81" y="155.64" width="15.53" height="34.36" fill="#616161" opacity="0.85"><title>Control: 1.460 ×10⁻³</title></rect>
<line x1="342.58" y1="165.48" x2="342.58" y2="148.06" stroke="#333" stroke-width="1"/>
<line x1="340.58" y1="165.48" x2="344.58" y2="165.48" stroke="#333" stroke-width="1"/>
<line x1="340.58" y1="148.06" x2="344.58" y2="148.06" stroke="#333" stroke-width="1"/>
<text x="334.8" y="204" text-anchor="end" font-size="9" fill="#2196F3" transform="rotate(-45,334.8,204)">Intentions</text>
<rect x="361.66" y="67.52" width="15.53" height="122.48" fill="#2E7D32" opacity="0.85"><title>Partner Identity: 5.204 ×10⁻³</title></rect>
<line x1="369.42" y1="89.76" x2="369.42" y2="55.32" stroke="#333" stroke-width="1"/>
<line x1="367.42" y1="89.76" x2="371.42" y2="89.76" stroke="#333" stroke-width="1"/>
<line x1="367.42" y1="55.32" x2="371.42" y2="55.32" stroke="#333" stroke-width="1"/>
<rect x="379.19" y="172.55" width="15.53" height="17.45" fill="#616161" opacity="0.85"><title>Control: 0.741 ×10⁻³</title></rect>
<line x1="386.95" y1="177.10" x2="386.95" y2="164.09" stroke="#333" stroke-width="1"/>
<line x1="384.95" y1="177.10" x2="388.95" y2="177.10" stroke="#333" stroke-width="1"/>
<line x1="384.95" y1="164.09" x2="388.95" y2="164.09" stroke="#333" stroke-width="1"/>
<text x="379.2" y="204" text-anchor="end" font-size="9" fill="#2196F3" transform="rotate(-45,379.2,204)">Roles</text>
<rect x="406.03" y="78.57" width="15.53" height="111.43" fill="#2E7D32" opacity="0.85"><title>Partner Identity: 4.735 ×10⁻³</title></rect>
<line x1="413.80" y1="91.91" x2="413.80" y2="70.62" stroke="#333" stroke-width="1"/>
<line x1="411.80" y1="91.91" x2="415.80" y2="91.91" stroke="#333" stroke-width="1"/>
<line x1="411.80" y1="70.62" x2="415.80" y2="70.62" stroke="#333" stroke-width="1"/>
<rect x="423.56" y="173.92" width="15.53" height="16.08" fill="#616161" opacity="0.85"><title>Control: 0.683 ×10⁻³</title></rect>
<line x1="431.33" y1="176.82" x2="431.33" y2="170.98" stroke="#333" stroke-width="1"/>
<line x1="429.33" y1="176.82" x2="433.33" y2="176.82" stroke="#333" stroke-width="1"/>
<line x1="429.33" y1="170.98" x2="433.33" y2="170.98" stroke="#333" stroke-width="1"/>
<text x="423.6" y="204" text-anchor="end" font-size="9" fill="#2196F3" transform="rotate(-45,423.6,204)">Emotions</text>
<rect x="450.41" y="89.44" width="15.53" height="100.56" fill="#2E7D32" opacity="0.85"><title>Partner Identity: 4.273 ×10⁻³</title></rect>
<line x1="458.17" y1="105.12" x2="458.17" y2="84.29" stroke="#333" stroke-width="1"/>
<line x1="456.17" y1="105.12" x2="460.17" y2="105.12" stroke="#333" stroke-width="1"/>
<line x1="456.17" y1="84.29" x2="460.17" y2="84.29" stroke="#333" stroke-width="1"/>
<rect x="467.94" y="166.78" width="15.53" height="23.22" fill="#616161" opacity="0.85"><title>Control: 0.986 ×10⁻³</title></rect>
<line x1="475.70" y1="174.36" x2="475.70" y2="160.54" stroke="#333" stroke-width="1"/>
<line x1="473.70" y1="174.36" x2="477.70" y2="174.36" stroke="#333" stroke-width="1"/>
<line x1="473.70" y1="160.54" x2="477.70" y2="160.54" stroke="#333" stroke-width="1"/>
<text x="467.9" y="204" text-anchor="end" font-size="9" fill="#2196F3" transform="rotate(-45,467.9,204)">Phenomenology</text>
<rect x="494.78" y="93.33" width="15.53" height="96.67" fill="#2E7D32" opacity="0.85"><title>Partner Identity: 4.108 ×10⁻³</title></rect>
<line x1="502.55" y1="107.20" x2="502.55" y2="87.11" stroke="#333" stroke-width="1"/>
<line x1="500.55" y1="107.20" x2="504.55" y2="107.20" stroke="#333" stroke-width="1"/>
<line x1="500.55" y1="87.11" x2="504.55" y2="87.11" stroke="#333" stroke-width="1"/>
<rect x="512.31" y="164.76" width="15.53" height="25.24" fill="#616161" opacity="0.85"><title>Control: 1.073 ×10⁻³</title></rect>
<line x1="520.08" y1="172.10" x2="520.08" y2="156.27" stroke="#333" stroke-width="1"/>
<line x1="518.08" y1="172.10" x2="522.08" y2="172.10" stroke="#333" stroke-width="1"/>
<line x1="518.08" y1="156.27" x2="522.08" y2="156.27" stroke="#333" stroke-width="1"/>
<text x="512.3" y="204" text-anchor="end" font-size="9" fill="#2196F3" transform="rotate(-45,512.3,204)">Embodiment</text>
<rect x="539.16" y="134.67" width="15.53" height="55.33" fill="#2E7D32" opacity="0.85"><title>Partner Identity: 2.351 ×10⁻³</title></rect>
<line x1="546.92" y1="145.43" x2="546.92" y2="126.39" stroke="#333" stroke-width="1"/>
<line x1="544.92" y1="145.43" x2="548.92" y2="145.43" stroke="#333" stroke-width="1"/>
<line x1="544.92" y1="126.39" x2="548.92" y2="126.39" stroke="#333" stroke-width="1"/>
<rect x="556.69" y="167.85" width="15.53" height="22.15" fill="#616161" opacity="0.85"><title>Control: 0.941 ×10⁻³</title></rect>
<line x1="564.45" y1="172.06" x2="564.45" y2="164.75" stroke="#333" stroke-width="1"/>
<line x1="562.45" y1="172.06" x2="566.45" y2="172.06" stroke="#333" stroke-width="1"/>
<line x1="562.45" y1="164.75" x2="566.45" y2="164.75" stroke="#333" stroke-width="1"/>
<text x="556.7" y="204" text-anchor="end" font-size="9" fill="#FF9800" transform="rotate(-45,556.7,204)">Expertise</text>
<rect x="583.53" y="159.87" width="15.53" height="30.13" fill="#2E7D32" opacity="0.85"><title>Partner Identity: 1.280 ×10⁻³</title></rect>
<line x1="591.30" y1="174.37" x2="591.30" y2="152.65" stroke="#333" stroke-width="1"/>
<line x1="589.30" y1="174.37" x2="593.30" y2="174.37" stroke="#333" stroke-width="1"/>
<line x1="589.30" y1="152.65" x2="593.30" y2="152.65" stroke="#333" stroke-width="1"/>
<rect x="601.06" y="178.06" width="15.53" height="11.94" fill="#616161" opacity="0.85"><title>Control: 0.507 ×10⁻³</title></rect>
<line x1="608.83" y1="185.96" x2="608.83" y2="169.31" stroke="#333" stroke-width="1"/>
<line x1="606.83" y1="185.96" x2="610.83" y2="185.96" stroke="#333" stroke-width="1"/>
<line x1="606.83" y1="169.31" x2="610.83" y2="169.31" stroke="#333" stroke-width="1"/>
<text x="601.1" y="204" text-anchor="end" font-size="9" fill="#FF9800" transform="rotate(-45,601.1,204)">Formality</text>
<rect x="627.91" y="176.60" width="15.53" height="13.40" fill="#2E7D32" opacity="0.85"><title>Partner Identity: 0.570 ×10⁻³</title></rect>
<line x1="635.67" y1="184.39" x2="635.67" y2="169.33" stroke="#333" stroke-width="1"/>
<line x1="633.67" y1="184.39" x2="637.67" y2="184.39" stroke="#333" stroke-width="1"/>
<line x1="633.67" y1="169.33" x2="637.67" y2="169.33" stroke="#333" stroke-width="1"/>
<rect x="645.44" y="176.29" width="15.53" height="13.71" fill="#616161" opacity="0.85"><title>Control: 0.582 ×10⁻³</title></rect>
<line x1="653.20" y1="183.53" x2="653.20" y2="165.95" stroke="#333" stroke-width="1"/>
<line x1="651.20" y1="183.53" x2="655.20" y2="183.53" stroke="#333" stroke-width="1"/>
<line x1="651.20" y1="165.95" x2="655.20" y2="165.95" stroke="#333" stroke-width="1"/>
<text x="645.4" y="204" text-anchor="end" font-size="9" fill="#FF9800" transform="rotate(-45,645.4,204)">Helpfulness</text>
<rect x="672.28" y="72.74" width="15.53" height="117.26" fill="#2E7D32" opacity="0.85"><title>Partner Identity: 4.982 ×10⁻³</title></rect>
<line x1="680.05" y1="102.31" x2="680.05" y2="30.54" stroke="#333" stroke-width="1"/>
<line x1="678.05" y1="102.31" x2="682.05" y2="102.31" stroke="#333" stroke-width="1"/>
<line x1="678.05" y1="30.54" x2="682.05" y2="30.54" stroke="#333" stroke-width="1"/>
<rect x="689.81" y="179.24" width="15.53" height="10.76" fill="#616161" opacity="0.85"><title>Control: 0.457 ×10⁻³</title></rect>
<line x1="697.58" y1="181.49" x2="697.58" y2="177.14" stroke="#333" stroke-width="1"/>
<line x1="695.58" y1="181.49" x2="699.58" y2="181.49" stroke="#333" stroke-width="1"/>
<line x1="695.58" y1="177.14" x2="699.58" y2="177.14" stroke="#333" stroke-width="1"/>
<text x="689.8" y="204" text-anchor="end" font-size="9" fill="#00BCD4" transform="rotate(-45,689.8,204)">SysPrompt</text>
<line x1="0" y1="190" x2="710" y2="190" stroke="#333"/>
<line x1="0" y1="0" x2="0" y2="190" stroke="#333"/>
</g>
<rect x="70" y="320" width="10" height="10" fill="#2E7D32"/>
<text x="84" y="328" font-size="9" fill="#333">Partner Identity</text>
<rect x="210" y="320" width="10" height="10" fill="#616161"/>
<text x="224" y="328" font-size="9" fill="#333">Control</text>
</svg>