<svg viewBox="0 0 800 320" xmlns="http://www.w3.org/2000/svg" style="width:100%;max-width:800px;height:auto;font-family:Arial,sans-serif;">
<rect width="800" height="320" fill="white"/>

<g transform="translate(70,30)">
<line x1="0" y1="180.0" x2="710" y2="180.0" stroke="#eee" stroke-width="1"/>
<text x="-8" y="184.0" text-anchor="end" font-size="10" fill="#666">0.00</text>
<line x1="0" y1="144.0" x2="710" y2="144.0" stroke="#eee" stroke-width="1"/>
<text x="-8" y="148.0" text-anchor="end" font-size="10" fill="#666">1.61</text>
<line x1="0" y1="108.0" x2="710" y2="108.0" stroke="#eee" stroke-width="1"/>
<text x="-8" y="112.0" text-anchor="end" font-size="10" fill="#666">3.23</text>
<line x1="0" y1="72.0" x2="710" y2="72.0" stroke="#eee" stroke-width="1"/>
<text x="-8" y="76.0" text-anchor="end" font-size="10" fill="#666">4.84</text>
<line x1="0" y1="36.0" x2="710" y2="36.0" stroke="#eee" stroke-width="1"/>
<text x="-8" y="40.0" text-anchor="end" font-size="10" fill="#666">6.46</text>
<line x1="0" y1="0.0" x2="710" y2="0.0" stroke="#eee" stroke-width="1"/>
<text x="-8" y="4.0" text-anchor="end" font-size="10" fill="#666">8.07</text>
<text x="-50" y="90.0" text-anchor="middle" font-size="11" fill="#333" transform="rotate(-90,-50,90.0)">Mean R² (×10⁻³)</text>
<rect x="8.88" y="33.05" width="20.71" height="146.95" fill="#2E7D32" opacity="0.85"><title>Partner Identity — Social: 6.591 ×10⁻³</title></rect>
<line x1="19.23" y1="52.11" x2="19.23" y2="24.16" stroke="#333" stroke-width="1"/>
<line x1="17.23" y1="52.11" x2="21.23" y2="52.11" stroke="#333" stroke-width="1"/>
<line x1="17.23" y1="24.16" x2="21.23" y2="24.16" stroke="#333" stroke-width="1"/>
<rect x="31.58" y="163.43" width="20.71" height="16.57" fill="#616161" opacity="0.85"><title>Control — Social: 0.743 ×10⁻³</title></rect>
<line x1="41.94" y1="167.97" x2="41.94" y2="156.01" stroke="#333" stroke-width="1"/>
<line x1="39.94" y1="167.97" x2="43.94" y2="167.97" stroke="#333" stroke-width="1"/>
<line x1="39.94" y1="156.01" x2="43.94" y2="156.01" stroke="#333" stroke-width="1"/>
<text x="31.6" y="194" text-anchor="end" font-size="10" fill="#2196F3" transform="rotate(-30,31.6,194)">Social</text>
<rect x="68.04" y="36.77" width="20.71" height="143.23" fill="#2E7D32" opacity="0.85"><title>Partner Identity — Attention: 6.424 ×10⁻³</title></rect>
<line x1="78.40" y1="57.33" x2="78.40" y2="29.47" stroke="#333" stroke-width="1"/>
<line x1="76.40" y1="57.33" x2="80.40" y2="57.33" stroke="#333" stroke-width="1"/>
<line x1="76.40" y1="29.47" x2="80.40" y2="29.47" stroke="#333" stroke-width="1"/>
<rect x="90.75" y="157.20" width="20.71" height="22.80" fill="#616161" opacity="0.85"><title>Control — Attention: 1.022 ×10⁻³</title></rect>
<line x1="101.10" y1="164.13" x2="101.10" y2="151.34" stroke="#333" stroke-width="1"/>
<line x1="99.10" y1="164.13" x2="103.10" y2="164.13" stroke="#333" stroke-width="1"/>
<line x1="99.10" y1="151.34" x2="103.10" y2="151.34" stroke="#333" stroke-width="1"/>
<text x="90.7" y="194" text-anchor="end" font-size="10" fill="#2196F3" transform="rotate(-30,90.7,194)">Attention</text>
<rect x="127.21" y="42.99" width="20.71" height="137.01" fill="#2E7D32" opacity="0.85"><title>Partner Identity — Prediction: 6.145 ×10⁻³</title></rect>
<line x1="137.56" y1="62.03" x2="137.56" y2="34.91" stroke="#333" stroke-width="1"/>
<line x1="135.56" y1="62.03" x2="139.56" y2="62.03" stroke="#333" stroke-width="1"/>
<line x1="135.56" y1="34.91" x2="139.56" y2="34.91" stroke="#333" stroke-width="1"/>
<rect x="149.92" y="158.63" width="20.71" height="21.37" fill="#616161" opacity="0.85"><title>Control — Prediction: 0.959 ×10⁻³</title></rect>
<line x1="160.27" y1="165.10" x2="160.27" y2="149.70" stroke="#333" stroke-width="1"/>
<line x1="158.27" y1="165.10" x2="162.27" y2="165.10" stroke="#333" stroke-width="1"/>
<line x1="158.27" y1="149.70" x2="162.27" y2="149.70" stroke="#333" stroke-width="1"/>
<text x="149.9" y="194" text-anchor="end" font-size="10" fill="#2196F3" transform="rotate(-30,149.9,194)">Prediction</text>
<rect x="186.38" y="56.71" width="20.71" height="123.29" fill="#2E7D32" opacity="0.85"><title>Partner Identity — Cognitive: 5.530 ×10⁻³</title></rect>
<line x1="196.73" y1="75.25" x2="196.73" y2="48.11" stroke="#333" stroke-width="1"/>
<line x1="194.73" y1="75.25" x2="198.73" y2="75.25" stroke="#333" stroke-width="1"/>
<line x1="194.73" y1="48.11" x2="198.73" y2="48.11" stroke="#333" stroke-width="1"/>
<rect x="209.08" y="146.06" width="20.71" height="33.94" fill="#616161" opacity="0.85"><title>Control — Cognitive: 1.522 ×10⁻³</title></rect>
<line x1="219.44" y1="155.72" x2="219.44" y2="141.10" stroke="#333" stroke-width="1"/>
<line x1="217.44" y1="155.72" x2="221.44" y2="155.72" stroke="#333" stroke-width="1"/>
<line x1="217.44" y1="141.10" x2="221.44" y2="141.10" stroke="#333" stroke-width="1"/>
<text x="209.1" y="194" text-anchor="end" font-size="10" fill="#2196F3" transform="rotate(-30,209.1,194)">Cognitive</text>
<rect x="245.54" y="58.36" width="20.71" height="121.64" fill="#2E7D32" opacity="0.85"><title>Partner Identity — Agency: 5.456 ×10⁻³</title></rect>
<line x1="255.90" y1="74.71" x2="255.90" y2="51.91" stroke="#333" stroke-width="1"/>
<line x1="253.90" y1="74.71" x2="257.90" y2="74.71" stroke="#333" stroke-width="1"/>
<line x1="253.90" y1="51.91" x2="257.90" y2="51.91" stroke="#333" stroke-width="1"/>
<rect x="268.25" y="153.35" width="20.71" height="26.65" fill="#616161" opacity="0.85"><title>Control — Agency: 1.195 ×10⁻³</title></rect>
<line x1="278.60" y1="162.28" x2="278.60" y2="142.42" stroke="#333" stroke-width="1"/>
<line x1="276.60" y1="162.28" x2="280.60" y2="162.28" stroke="#333" stroke-width="1"/>
<line x1="276.60" y1="142.42" x2="280.60" y2="142.42" stroke="#333" stroke-width="1"/>
<text x="268.2" y="194" text-anchor="end" font-size="10" fill="#2196F3" transform="rotate(-30,268.2,194)">Agency</text>
<rect x="304.71" y="64.19" width="20.71" height="115.81" fill="#2E7D32" opacity="0.85"><title>Partner Identity — Intentions: 5.194 ×10⁻³</title></rect>
<line x1="315.06" y1="81.89" x2="315.06" y2="55.52" stroke="#333" stroke-width="1"/>
<line x1="313.06" y1="81.89" x2="317.06" y2="81.89" stroke="#333" stroke-width="1"/>
<line x1="313.06" y1="55.52" x2="317.06" y2="55.52" stroke="#333" stroke-width="1"/>
<rect x="327.42" y="147.45" width="20.71" height="32.55" fill="#616161" opacity="0.85"><title>Control — Intentions: 1.460 ×10⁻³</title></rect>
<line x1="337.77" y1="156.77" x2="337.77" y2="140.27" stroke="#333" stroke-width="1"/>
<line x1="335.77" y1="156.77" x2="339.77" y2="156.77" stroke="#333" stroke-width="1"/>
<line x1="335.77" y1="140.27" x2="339.77" y2="140.27" stroke="#333" stroke-width="1"/>
<text x="327.4" y="194" text-anchor="end" font-size="10" fill="#2196F3" transform="rotate(-30,327.4,194)">Intentions</text>
<rect x="363.88" y="63.97" width="20.71" height="116.03" fill="#2E7D32" opacity="0.85"><title>Partner Identity — Roles: 5.204 ×10⁻³</title></rect>
<line x1="374.23" y1="85.03" x2="374.23" y2="52.41" stroke="#333" stroke-width="1"/>
<line x1="372.23" y1="85.03" x2="376.23" y2="85.03" stroke="#333" stroke-width="1"/>
<line x1="372.23" y1="52.41" x2="376.23" y2="52.41" stroke="#333" stroke-width="1"/>
<rect x="386.58" y="163.47" width="20.71" height="16.53" fill="#616161" opacity="0.85"><title>Control — Roles: 0.741 ×10⁻³</title></rect>
<line x1="396.94" y1="167.78" x2="396.94" y2="155.45" stroke="#333" stroke-width="1"/>
<line x1="394.94" y1="167.78" x2="398.94" y2="167.78" stroke="#333" stroke-width="1"/>
<line x1="394.94" y1="155.45" x2="398.94" y2="155.45" stroke="#333" stroke-width="1"/>
<text x="386.6" y="194" text-anchor="end" font-size="10" fill="#2196F3" transform="rotate(-30,386.6,194)">Roles</text>
<rect x="423.04" y="74.43" width="20.71" height="105.57" fill="#2E7D32" opacity="0.85"><title>Partner Identity — Emotions: 4.735 ×10⁻³</title></rect>
<line x1="433.40" y1="87.07" x2="433.40" y2="66.90" stroke="#333" stroke-width="1"/>
<line x1="431.40" y1="87.07" x2="435.40" y2="87.07" stroke="#333" stroke-width="1"/>
<line x1="431.40" y1="66.90" x2="435.40" y2="66.90" stroke="#333" stroke-width="1"/>
<rect x="445.75" y="164.77" width="20.71" height="15.23" fill="#616161" opacity="0.85"><title>Control — Emotions: 0.683 ×10⁻³</title></rect>
<line x1="456.10" y1="167.51" x2="456.10" y2="161.98" stroke="#333" stroke-width="1"/>
<line x1="454.10" y1="167.51" x2="458.10" y2="167.51" stroke="#333" stroke-width="1"/>
<line x1="454.10" y1="161.98" x2="458.10" y2="161.98" stroke="#333" stroke-width="1"/>
<text x="445.7" y="194" text-anchor="end" font-size="10" fill="#2196F3" transform="rotate(-30,445.7,194)">Emotions</text>
<rect x="482.21" y="84.73" width="20.71" height="95.27" fill="#2E7D32" opacity="0.85"><title>Partner Identity — Phenomenology: 4.273 ×10⁻³</title></rect>
<line x1="492.56" y1="99.59" x2="492.56" y2="79.85" stroke="#333" stroke-width="1"/>
<line x1="490.56" y1="99.59" x2="494.56" y2="99.59" stroke="#333" stroke-width="1"/>
<line x1="490.56" y1="79.85" x2="494.56" y2="79.85" stroke="#333" stroke-width="1"/>
<rect x="504.92" y="158.01" width="20.71" height="21.99" fill="#616161" opacity="0.85"><title>Control — Phenomenology: 0.986 ×10⁻³</title></rect>
<line x1="515.27" y1="165.18" x2="515.27" y2="152.09" stroke="#333" stroke-width="1"/>
<line x1="513.27" y1="165.18" x2="517.27" y2="165.18" stroke="#333" stroke-width="1"/>
<line x1="513.27" y1="152.09" x2="517.27" y2="152.09" stroke="#333" stroke-width="1"/>
<text x="504.9" y="194" text-anchor="end" font-size="10" fill="#2196F3" transform="rotate(-30,504.9,194)">Phenomenology</text>
<rect x="541.38" y="88.42" width="20.71" height="91.58" fill="#2E7D32" opacity="0.85"><title>Partner Identity — Embodiment: 4.108 ×10⁻³</title></rect>
<line x1="551.73" y1="101.56" x2="551.73" y2="82.52" stroke="#333" stroke-width="1"/>
<line x1="549.73" y1="101.56" x2="553.73" y2="101.56" stroke="#333" stroke-width="1"/>
<line x1="549.73" y1="82.52" x2="553.73" y2="82.52" stroke="#333" stroke-width="1"/>
<rect x="564.08" y="156.09" width="20.71" height="23.91" fill="#616161" opacity="0.85"><title>Control — Embodiment: 1.073 ×10⁻³</title></rect>
<line x1="574.44" y1="163.05" x2="574.44" y2="148.04" stroke="#333" stroke-width="1"/>
<line x1="572.44" y1="163.05" x2="576.44" y2="163.05" stroke="#333" stroke-width="1"/>
<line x1="572.44" y1="148.04" x2="576.44" y2="148.04" stroke="#333" stroke-width="1"/>
<text x="564.1" y="194" text-anchor="end" font-size="10" fill="#2196F3" transform="rotate(-30,564.1,194)">Embodiment</text>
<line x1="591.6666666666666" y1="0" x2="591.6666666666666" y2="180" stroke="#ccc" stroke-width="1" stroke-dasharray="4,3"/>
<rect x="600.54" y="124.40" width="20.71" height="55.60" fill="#2E7D32" opacity="0.5"><title>Partner Identity — Biological: 2.494 ×10⁻³</title></rect>
<line x1="610.90" y1="131.95" x2="610.90" y2="119.19" stroke="#333" stroke-width="1"/>
<line x1="608.90" y1="131.95" x2="612.90" y2="131.95" stroke="#333" stroke-width="1"/>
<line x1="608.90" y1="119.19" x2="612.90" y2="119.19" stroke="#333" stroke-width="1"/>
<rect x="623.25" y="161.84" width="20.71" height="18.16" fill="#616161" opacity="0.5"><title>Control — Biological: 0.814 ×10⁻³</title></rect>
<line x1="633.60" y1="166.57" x2="633.60" y2="156.40" stroke="#333" stroke-width="1"/>
<line x1="631.60" y1="166.57" x2="635.60" y2="166.57" stroke="#333" stroke-width="1"/>
<line x1="631.60" y1="156.40" x2="635.60" y2="156.40" stroke="#333" stroke-width="1"/>
<text x="623.2" y="194" text-anchor="end" font-size="10" fill="#9E9E9E" transform="rotate(-30,623.2,194)">Biological</text>
<rect x="659.71" y="168.47" width="20.71" height="11.53" fill="#2E7D32" opacity="0.5"><title>Partner Identity — Shapes: 0.517 ×10⁻³</title></rect>
<line x1="670.06" y1="174.08" x2="670.06" y2="163.10" stroke="#333" stroke-width="1"/>
<line x1="668.06" y1="174.08" x2="672.06" y2="174.08" stroke="#333" stroke-width="1"/>
<line x1="668.06" y1="163.10" x2="672.06" y2="163.10" stroke="#333" stroke-width="1"/>
<rect x="682.42" y="172.30" width="20.71" height="7.70" fill="#616161" opacity="0.5"><title>Control — Shapes: 0.345 ×10⁻³</title></rect>
<line x1="692.77" y1="176.56" x2="692.77" y2="160.44" stroke="#333" stroke-width="1"/>
<line x1="690.77" y1="176.56" x2="694.77" y2="176.56" stroke="#333" stroke-width="1"/>
<line x1="690.77" y1="160.44" x2="694.77" y2="160.44" stroke="#333" stroke-width="1"/>
<text x="682.4" y="194" text-anchor="end" font-size="10" fill="#9E9E9E" transform="rotate(-30,682.4,194)">Shapes</text>
<line x1="0" y1="180" x2="710" y2="180" stroke="#333"/>
<line x1="0" y1="0" x2="0" y2="180" stroke="#333"/>
</g>
<rect x="70" y="300" width="10" height="10" fill="#2E7D32"/>
<text x="84" y="308" font-size="9" fill="#333">Partner Identity</text>
<rect x="210" y="300" width="10" height="10" fill="#616161"/>
<text x="224" y="308" font-size="9" fill="#333">Control</text>
</svg>