<svg viewBox="0 0 700 568" xmlns="http://www.w3.org/2000/svg" style="width:100%;max-width:700px;height:auto;font-family:Arial,sans-serif;">
<rect width="700" height="568" fill="white"/>

<text x="260.0" y="90" text-anchor="start" font-size="10" fill="#333" transform="rotate(-55,260.0,90)">Partner Identity</text>
<text x="500.0" y="90" text-anchor="start" font-size="10" fill="#333" transform="rotate(-55,500.0,90)">Control</text>
<text x="132" y="118.0" text-anchor="end" font-size="10" fill="#9E9E9E">Biological</text>
<rect x="140.0" y="100.0" width="240.0" height="28" fill="rgb(225,240,226)" stroke="white" stroke-width="1"><title>Partner Identity — Biological: R²=0.000245</title></rect>
<text x="260.0" y="118.0" text-anchor="middle" font-size="8" fill="#333">0.25</text>
<rect x="380.0" y="100.0" width="240.0" height="28" fill="rgb(232,232,232)" stroke="white" stroke-width="1"><title>Control — Biological: R²=0.000293</title></rect>
<text x="500.0" y="118.0" text-anchor="middle" font-size="8" fill="#333">0.29</text>
<text x="132" y="146.0" text-anchor="end" font-size="10" fill="#9E9E9E">Shapes</text>
<rect x="140.0" y="128.0" width="240.0" height="28" fill="rgb(220,237,221)" stroke="white" stroke-width="1"><title>Partner Identity — Shapes: R²=0.000464</title></rect>
<text x="260.0" y="146.0" text-anchor="middle" font-size="8" fill="#333">0.46</text>
<rect x="380.0" y="128.0" width="240.0" height="28" fill="rgb(234,234,234)" stroke="white" stroke-width="1"><title>Control — Shapes: R²=0.000176</title></rect>
<text x="500.0" y="146.0" text-anchor="middle" font-size="8" fill="#333">0.18</text>
<line x1="140" y1="156" x2="620.0" y2="156" stroke="#999" stroke-width="1.5"/>
<text x="132" y="174.0" text-anchor="end" font-size="10" fill="#2196F3">Social</text>
<rect x="140.0" y="156.0" width="240.0" height="28" fill="rgb(219,236,220)" stroke="white" stroke-width="1"><title>Partner Identity — Social: R²=0.000503</title></rect>
<text x="260.0" y="174.0" text-anchor="middle" font-size="8" fill="#333">0.50</text>
<rect x="380.0" y="156.0" width="240.0" height="28" fill="rgb(232,232,232)" stroke="white" stroke-width="1"><title>Control — Social: R²=0.000298</title></rect>
<text x="500.0" y="174.0" text-anchor="middle" font-size="8" fill="#333">0.30</text>
<text x="132" y="202.0" text-anchor="end" font-size="10" fill="#2196F3">Attention</text>
<rect x="140.0" y="184.0" width="240.0" height="28" fill="rgb(219,236,220)" stroke="white" stroke-width="1"><title>Partner Identity — Attention: R²=0.000496</title></rect>
<text x="260.0" y="202.0" text-anchor="middle" font-size="8" fill="#333">0.50</text>
<rect x="380.0" y="184.0" width="240.0" height="28" fill="rgb(231,231,231)" stroke="white" stroke-width="1"><title>Control — Attention: R²=0.000347</title></rect>
<text x="500.0" y="202.0" text-anchor="middle" font-size="8" fill="#333">0.35</text>
<text x="132" y="230.0" text-anchor="end" font-size="10" fill="#2196F3">Prediction</text>
<rect x="140.0" y="212.0" width="240.0" height="28" fill="rgb(224,239,225)" stroke="white" stroke-width="1"><title>Partner Identity — Prediction: R²=0.000311</title></rect>
<text x="260.0" y="230.0" text-anchor="middle" font-size="8" fill="#333">0.31</text>
<rect x="380.0" y="212.0" width="240.0" height="28" fill="rgb(231,231,231)" stroke="white" stroke-width="1"><title>Control — Prediction: R²=0.000337</title></rect>
<text x="500.0" y="230.0" text-anchor="middle" font-size="8" fill="#333">0.34</text>
<text x="132" y="258.0" text-anchor="end" font-size="10" fill="#2196F3">Cognitive</text>
<rect x="140.0" y="240.0" width="240.0" height="28" fill="rgb(220,237,222)" stroke="white" stroke-width="1"><title>Partner Identity — Cognitive: R²=0.000435</title></rect>
<text x="260.0" y="258.0" text-anchor="middle" font-size="8" fill="#333">0.43</text>
<rect x="380.0" y="240.0" width="240.0" height="28" fill="rgb(231,231,231)" stroke="white" stroke-width="1"><title>Control — Cognitive: R²=0.000355</title></rect>
<text x="500.0" y="258.0" text-anchor="middle" font-size="8" fill="#333">0.35</text>
<text x="132" y="286.0" text-anchor="end" font-size="10" fill="#2196F3">Agency</text>
<rect x="140.0" y="268.0" width="240.0" height="28" fill="rgb(224,240,225)" stroke="white" stroke-width="1"><title>Partner Identity — Agency: R²=0.000294</title></rect>
<text x="260.0" y="286.0" text-anchor="middle" font-size="8" fill="#333">0.29</text>
<rect x="380.0" y="268.0" width="240.0" height="28" fill="rgb(232,232,232)" stroke="white" stroke-width="1"><title>Control — Agency: R²=0.000272</title></rect>
<text x="500.0" y="286.0" text-anchor="middle" font-size="8" fill="#333">0.27</text>
<text x="132" y="314.0" text-anchor="end" font-size="10" fill="#2196F3">Intentions</text>
<rect x="140.0" y="296.0" width="240.0" height="28" fill="rgb(220,237,222)" stroke="white" stroke-width="1"><title>Partner Identity — Intentions: R²=0.000437</title></rect>
<text x="260.0" y="314.0" text-anchor="middle" font-size="8" fill="#333">0.44</text>
<rect x="380.0" y="296.0" width="240.0" height="28" fill="rgb(230,230,230)" stroke="white" stroke-width="1"><title>Control — Intentions: R²=0.000394</title></rect>
<text x="500.0" y="314.0" text-anchor="middle" font-size="8" fill="#333">0.39</text>
<text x="132" y="342.0" text-anchor="end" font-size="10" fill="#2196F3">Roles</text>
<rect x="140.0" y="324.0" width="240.0" height="28" fill="rgb(225,240,226)" stroke="white" stroke-width="1"><title>Partner Identity — Roles: R²=0.000273</title></rect>
<text x="260.0" y="342.0" text-anchor="middle" font-size="8" fill="#333">0.27</text>
<rect x="380.0" y="324.0" width="240.0" height="28" fill="rgb(232,232,232)" stroke="white" stroke-width="1"><title>Control — Roles: R²=0.000304</title></rect>
<text x="500.0" y="342.0" text-anchor="middle" font-size="8" fill="#333">0.30</text>
<text x="132" y="370.0" text-anchor="end" font-size="10" fill="#2196F3">Emotions</text>
<rect x="140.0" y="352.0" width="240.0" height="28" fill="rgb(224,240,225)" stroke="white" stroke-width="1"><title>Partner Identity — Emotions: R²=0.000302</title></rect>
<text x="260.0" y="370.0" text-anchor="middle" font-size="8" fill="#333">0.30</text>
<rect x="380.0" y="352.0" width="240.0" height="28" fill="rgb(233,233,233)" stroke="white" stroke-width="1"><title>Control — Emotions: R²=0.000232</title></rect>
<text x="500.0" y="370.0" text-anchor="middle" font-size="8" fill="#333">0.23</text>
<text x="132" y="398.0" text-anchor="end" font-size="10" fill="#2196F3">Phenomenology</text>
<rect x="140.0" y="380.0" width="240.0" height="28" fill="rgb(225,240,226)" stroke="white" stroke-width="1"><title>Partner Identity — Phenomenology: R²=0.000246</title></rect>
<text x="260.0" y="398.0" text-anchor="middle" font-size="8" fill="#333">0.25</text>
<rect x="380.0" y="380.0" width="240.0" height="28" fill="rgb(232,232,232)" stroke="white" stroke-width="1"><title>Control — Phenomenology: R²=0.000302</title></rect>
<text x="500.0" y="398.0" text-anchor="middle" font-size="8" fill="#333">0.30</text>
<text x="132" y="426.0" text-anchor="end" font-size="10" fill="#2196F3">Embodiment</text>
<rect x="140.0" y="408.0" width="240.0" height="28" fill="rgb(224,240,226)" stroke="white" stroke-width="1"><title>Partner Identity — Embodiment: R²=0.000278</title></rect>
<text x="260.0" y="426.0" text-anchor="middle" font-size="8" fill="#333">0.28</text>
<rect x="380.0" y="408.0" width="240.0" height="28" fill="rgb(231,231,231)" stroke="white" stroke-width="1"><title>Control — Embodiment: R²=0.000317</title></rect>
<text x="500.0" y="426.0" text-anchor="middle" font-size="8" fill="#333">0.32</text>
<line x1="140" y1="436" x2="620.0" y2="436" stroke="#999" stroke-width="1.5"/>
<text x="132" y="454.0" text-anchor="end" font-size="10" fill="#FF9800">Expertise</text>
<rect x="140.0" y="436.0" width="240.0" height="28" fill="rgb(219,237,220)" stroke="white" stroke-width="1"><title>Partner Identity — Expertise: R²=0.000483</title></rect>
<text x="260.0" y="454.0" text-anchor="middle" font-size="8" fill="#333">0.48</text>
<rect x="380.0" y="436.0" width="240.0" height="28" fill="rgb(233,233,233)" stroke="white" stroke-width="1"><title>Control — Expertise: R²=0.000245</title></rect>
<text x="500.0" y="454.0" text-anchor="middle" font-size="8" fill="#333">0.25</text>
<text x="132" y="482.0" text-anchor="end" font-size="10" fill="#FF9800">Formality</text>
<rect x="140.0" y="464.0" width="240.0" height="28" fill="rgb(220,237,221)" stroke="white" stroke-width="1"><title>Partner Identity — Formality: R²=0.000457</title></rect>
<text x="260.0" y="482.0" text-anchor="middle" font-size="8" fill="#333">0.46</text>
<rect x="380.0" y="464.0" width="240.0" height="28" fill="rgb(232,232,232)" stroke="white" stroke-width="1"><title>Control — Formality: R²=0.000272</title></rect>
<text x="500.0" y="482.0" text-anchor="middle" font-size="8" fill="#333">0.27</text>
<text x="132" y="510.0" text-anchor="end" font-size="10" fill="#FF9800">Helpfulness</text>
<rect x="140.0" y="492.0" width="240.0" height="28" fill="rgb(221,238,223)" stroke="white" stroke-width="1"><title>Partner Identity — Helpfulness: R²=0.000399</title></rect>
<text x="260.0" y="510.0" text-anchor="middle" font-size="8" fill="#333">0.40</text>
<rect x="380.0" y="492.0" width="240.0" height="28" fill="rgb(233,233,233)" stroke="white" stroke-width="1"><title>Control — Helpfulness: R²=0.000237</title></rect>
<text x="500.0" y="510.0" text-anchor="middle" font-size="8" fill="#333">0.24</text>
<line x1="140" y1="520" x2="620.0" y2="520" stroke="#999" stroke-width="1.5"/>
<text x="132" y="538.0" text-anchor="end" font-size="10" fill="#00BCD4">SysPrompt</text>
<rect x="140.0" y="520.0" width="240.0" height="28" fill="rgb(216,234,217)" stroke="white" stroke-width="1"><title>Partner Identity — SysPrompt: R²=0.000629</title></rect>
<text x="260.0" y="538.0" text-anchor="middle" font-size="8" fill="#333">0.63</text>
<rect x="380.0" y="520.0" width="240.0" height="28" fill="rgb(233,233,233)" stroke="white" stroke-width="1"><title>Control — SysPrompt: R²=0.000238</title></rect>
<text x="500.0" y="538.0" text-anchor="middle" font-size="8" fill="#333">0.24</text>
<rect x="635.0" y="548.0" width="12" height="10.1" fill="rgb(232,245,233)"/>
<rect x="635.0" y="538.9" width="12" height="10.1" fill="rgb(228,242,229)"/>
<rect x="635.0" y="529.7" width="12" height="10.1" fill="rgb(224,240,225)"/>
<rect x="635.0" y="520.6" width="12" height="10.1" fill="rgb(220,237,221)"/>
<rect x="635.0" y="511.4" width="12" height="10.1" fill="rgb(216,235,218)"/>
<rect x="635.0" y="502.3" width="12" height="10.1" fill="rgb(213,232,214)"/>
<rect x="635.0" y="493.1" width="12" height="10.1" fill="rgb(209,230,210)"/>
<rect x="635.0" y="484.0" width="12" height="10.1" fill="rgb(205,227,206)"/>
<rect x="635.0" y="474.9" width="12" height="10.1" fill="rgb(201,225,203)"/>
<rect x="635.0" y="465.7" width="12" height="10.1" fill="rgb(197,222,199)"/>
<rect x="635.0" y="456.6" width="12" height="10.1" fill="rgb(194,220,195)"/>
<rect x="635.0" y="447.4" width="12" height="10.1" fill="rgb(190,218,191)"/>
<rect x="635.0" y="438.3" width="12" height="10.1" fill="rgb(186,215,188)"/>
<rect x="635.0" y="429.1" width="12" height="10.1" fill="rgb(182,213,184)"/>
<rect x="635.0" y="420.0" width="12" height="10.1" fill="rgb(178,210,180)"/>
<rect x="635.0" y="410.9" width="12" height="10.1" fill="rgb(175,208,176)"/>
<rect x="635.0" y="401.7" width="12" height="10.1" fill="rgb(171,205,173)"/>
<rect x="635.0" y="392.6" width="12" height="10.1" fill="rgb(167,203,169)"/>
<rect x="635.0" y="383.4" width="12" height="10.1" fill="rgb(163,200,165)"/>
<rect x="635.0" y="374.3" width="12" height="10.1" fill="rgb(159,198,162)"/>
<rect x="635.0" y="365.1" width="12" height="10.1" fill="rgb(156,196,158)"/>
<rect x="635.0" y="356.0" width="12" height="10.1" fill="rgb(152,193,154)"/>
<rect x="635.0" y="346.9" width="12" height="10.1" fill="rgb(148,191,150)"/>
<rect x="635.0" y="337.7" width="12" height="10.1" fill="rgb(144,188,147)"/>
<rect x="635.0" y="328.6" width="12" height="10.1" fill="rgb(140,186,143)"/>
<rect x="635.0" y="319.4" width="12" height="10.1" fill="rgb(137,183,139)"/>
<rect x="635.0" y="310.3" width="12" height="10.1" fill="rgb(133,181,135)"/>
<rect x="635.0" y="301.1" width="12" height="10.1" fill="rgb(129,178,132)"/>
<rect x="635.0" y="292.0" width="12" height="10.1" fill="rgb(125,176,128)"/>
<rect x="635.0" y="282.9" width="12" height="10.1" fill="rgb(121,173,124)"/>
<rect x="635.0" y="273.7" width="12" height="10.1" fill="rgb(118,171,120)"/>
<rect x="635.0" y="264.6" width="12" height="10.1" fill="rgb(114,169,117)"/>
<rect x="635.0" y="255.4" width="12" height="10.1" fill="rgb(110,166,113)"/>
<rect x="635.0" y="246.3" width="12" height="10.1" fill="rgb(106,164,109)"/>
<rect x="635.0" y="237.1" width="12" height="10.1" fill="rgb(102,161,106)"/>
<rect x="635.0" y="228.0" width="12" height="10.1" fill="rgb(99,159,102)"/>
<rect x="635.0" y="218.9" width="12" height="10.1" fill="rgb(95,156,98)"/>
<rect x="635.0" y="209.7" width="12" height="10.1" fill="rgb(91,154,94)"/>
<rect x="635.0" y="200.6" width="12" height="10.1" fill="rgb(87,151,91)"/>
<rect x="635.0" y="191.4" width="12" height="10.1" fill="rgb(83,149,87)"/>
<rect x="635.0" y="182.3" width="12" height="10.1" fill="rgb(80,147,83)"/>
<rect x="635.0" y="173.1" width="12" height="10.1" fill="rgb(76,144,79)"/>
<rect x="635.0" y="164.0" width="12" height="10.1" fill="rgb(72,142,76)"/>
<rect x="635.0" y="154.9" width="12" height="10.1" fill="rgb(68,139,72)"/>
<rect x="635.0" y="145.7" width="12" height="10.1" fill="rgb(64,137,68)"/>
<rect x="635.0" y="136.6" width="12" height="10.1" fill="rgb(61,134,64)"/>
<rect x="635.0" y="127.4" width="12" height="10.1" fill="rgb(57,132,61)"/>
<rect x="635.0" y="118.3" width="12" height="10.1" fill="rgb(53,129,57)"/>
<rect x="635.0" y="109.1" width="12" height="10.1" fill="rgb(49,127,53)"/>
<rect x="635.0" y="100.0" width="12" height="10.1" fill="rgb(46,125,50)"/>
<text x="641.0" y="96" text-anchor="middle" font-size="7" fill="#333">Partner Identity</text>
<text x="650.0" y="104" font-size="7" fill="#333">7.34</text>
<text x="650.0" y="552" font-size="7" fill="#333">0.00</text>
<text x="650.0" y="328.0" font-size="7" fill="#666">×10⁻³</text>
<rect x="677.0" y="548.0" width="12" height="10.1" fill="rgb(238,238,238)"/>
<rect x="677.0" y="538.9" width="12" height="10.1" fill="rgb(235,235,235)"/>
<rect x="677.0" y="529.7" width="12" height="10.1" fill="rgb(232,232,232)"/>
<rect x="677.0" y="520.6" width="12" height="10.1" fill="rgb(229,229,229)"/>
<rect x="677.0" y="511.4" width="12" height="10.1" fill="rgb(226,226,226)"/>
<rect x="677.0" y="502.3" width="12" height="10.1" fill="rgb(223,223,223)"/>
<rect x="677.0" y="493.1" width="12" height="10.1" fill="rgb(220,220,220)"/>
<rect x="677.0" y="484.0" width="12" height="10.1" fill="rgb(217,217,217)"/>
<rect x="677.0" y="474.9" width="12" height="10.1" fill="rgb(214,214,214)"/>
<rect x="677.0" y="465.7" width="12" height="10.1" fill="rgb(212,212,212)"/>
<rect x="677.0" y="456.6" width="12" height="10.1" fill="rgb(209,209,209)"/>
<rect x="677.0" y="447.4" width="12" height="10.1" fill="rgb(206,206,206)"/>
<rect x="677.0" y="438.3" width="12" height="10.1" fill="rgb(203,203,203)"/>
<rect x="677.0" y="429.1" width="12" height="10.1" fill="rgb(200,200,200)"/>
<rect x="677.0" y="420.0" width="12" height="10.1" fill="rgb(197,197,197)"/>
<rect x="677.0" y="410.9" width="12" height="10.1" fill="rgb(194,194,194)"/>
<rect x="677.0" y="401.7" width="12" height="10.1" fill="rgb(191,191,191)"/>
<rect x="677.0" y="392.6" width="12" height="10.1" fill="rgb(189,189,189)"/>
<rect x="677.0" y="383.4" width="12" height="10.1" fill="rgb(186,186,186)"/>
<rect x="677.0" y="374.3" width="12" height="10.1" fill="rgb(183,183,183)"/>
<rect x="677.0" y="365.1" width="12" height="10.1" fill="rgb(180,180,180)"/>
<rect x="677.0" y="356.0" width="12" height="10.1" fill="rgb(177,177,177)"/>
<rect x="677.0" y="346.9" width="12" height="10.1" fill="rgb(174,174,174)"/>
<rect x="677.0" y="337.7" width="12" height="10.1" fill="rgb(171,171,171)"/>
<rect x="677.0" y="328.6" width="12" height="10.1" fill="rgb(168,168,168)"/>
<rect x="677.0" y="319.4" width="12" height="10.1" fill="rgb(166,166,166)"/>
<rect x="677.0" y="310.3" width="12" height="10.1" fill="rgb(163,163,163)"/>
<rect x="677.0" y="301.1" width="12" height="10.1" fill="rgb(160,160,160)"/>
<rect x="677.0" y="292.0" width="12" height="10.1" fill="rgb(157,157,157)"/>
<rect x="677.0" y="282.9" width="12" height="10.1" fill="rgb(154,154,154)"/>
<rect x="677.0" y="273.7" width="12" height="10.1" fill="rgb(151,151,151)"/>
<rect x="677.0" y="264.6" width="12" height="10.1" fill="rgb(148,148,148)"/>
<rect x="677.0" y="255.4" width="12" height="10.1" fill="rgb(145,145,145)"/>
<rect x="677.0" y="246.3" width="12" height="10.1" fill="rgb(143,143,143)"/>
<rect x="677.0" y="237.1" width="12" height="10.1" fill="rgb(140,140,140)"/>
<rect x="677.0" y="228.0" width="12" height="10.1" fill="rgb(137,137,137)"/>
<rect x="677.0" y="218.9" width="12" height="10.1" fill="rgb(134,134,134)"/>
<rect x="677.0" y="209.7" width="12" height="10.1" fill="rgb(131,131,131)"/>
<rect x="677.0" y="200.6" width="12" height="10.1" fill="rgb(128,128,128)"/>
<rect x="677.0" y="191.4" width="12" height="10.1" fill="rgb(125,125,125)"/>
<rect x="677.0" y="182.3" width="12" height="10.1" fill="rgb(122,122,122)"/>
<rect x="677.0" y="173.1" width="12" height="10.1" fill="rgb(120,120,120)"/>
<rect x="677.0" y="164.0" width="12" height="10.1" fill="rgb(117,117,117)"/>
<rect x="677.0" y="154.9" width="12" height="10.1" fill="rgb(114,114,114)"/>
<rect x="677.0" y="145.7" width="12" height="10.1" fill="rgb(111,111,111)"/>
<rect x="677.0" y="136.6" width="12" height="10.1" fill="rgb(108,108,108)"/>
<rect x="677.0" y="127.4" width="12" height="10.1" fill="rgb(105,105,105)"/>
<rect x="677.0" y="118.3" width="12" height="10.1" fill="rgb(102,102,102)"/>
<rect x="677.0" y="109.1" width="12" height="10.1" fill="rgb(99,99,99)"/>
<rect x="677.0" y="100.0" width="12" height="10.1" fill="rgb(97,97,97)"/>
<text x="683.0" y="96" text-anchor="middle" font-size="7" fill="#333">Control</text>
</svg>