<svg viewBox="0 0 1100 360" xmlns="http://www.w3.org/2000/svg" style="width:100%;max-width:1100px;height:auto;font-family:Arial,sans-serif;">
<rect width="1100" height="360" fill="white"/>
<g transform="translate(70,30)">
<line x1="0" y1="200.0" x2="1010" y2="200.0" stroke="#eee" stroke-width="1"/>
<text x="-8" y="204.0" text-anchor="end" font-size="10" fill="#666">0.00</text>
<line x1="0" y1="160.0" x2="1010" y2="160.0" stroke="#eee" stroke-width="1"/>
<text x="-8" y="164.0" text-anchor="end" font-size="10" fill="#666">0.53</text>
<line x1="0" y1="120.0" x2="1010" y2="120.0" stroke="#eee" stroke-width="1"/>
<text x="-8" y="124.0" text-anchor="end" font-size="10" fill="#666">1.06</text>
<line x1="0" y1="80.0" x2="1010" y2="80.0" stroke="#eee" stroke-width="1"/>
<text x="-8" y="84.0" text-anchor="end" font-size="10" fill="#666">1.59</text>
<line x1="0" y1="40.0" x2="1010" y2="40.0" stroke="#eee" stroke-width="1"/>
<text x="-8" y="44.0" text-anchor="end" font-size="10" fill="#666">2.12</text>
<line x1="0" y1="0.0" x2="1010" y2="0.0" stroke="#eee" stroke-width="1"/>
<text x="-8" y="4.0" text-anchor="end" font-size="10" fill="#666">2.65</text>
<text x="-50" y="100.0" text-anchor="middle" font-size="11" fill="#333" transform="rotate(-90,-50,100.0)">Mean R² (×10⁻³)</text>
<rect x="4.21" y="175.51" width="16.83" height="24.49" fill="#81C784" opacity="0.85"><title>Partner Identity: 0.000324</title></rect>
<line x1="12.63" y1="184.11" x2="12.63" y2="164.94" stroke="#333" stroke-width="1"/>
<line x1="10.63" y1="184.11" x2="14.63" y2="184.11" stroke="#333" stroke-width="1"/>
<line x1="10.63" y1="164.94" x2="14.63" y2="164.94" stroke="#333" stroke-width="1"/>
<rect x="21.04" y="181.10" width="16.83" height="18.90" fill="#BDBDBD" opacity="0.85"><title>Control: 0.000250</title></rect>
<line x1="29.46" y1="185.64" x2="29.46" y2="177.79" stroke="#333" stroke-width="1"/>
<line x1="27.46" y1="185.64" x2="31.46" y2="185.64" stroke="#333" stroke-width="1"/>
<line x1="27.46" y1="177.79" x2="31.46" y2="177.79" stroke="#333" stroke-width="1"/>
<text x="21.04" y="214" text-anchor="end" font-size="9" fill="#2196F3" transform="rotate(-45,21.04,214)">Phenomenology</text>
<rect x="46.29" y="173.22" width="16.83" height="26.78" fill="#81C784" opacity="0.85"><title>Partner Identity: 0.000355</title></rect>
<line x1="54.71" y1="179.89" x2="54.71" y2="164.31" stroke="#333" stroke-width="1"/>
<line x1="52.71" y1="179.89" x2="56.71" y2="179.89" stroke="#333" stroke-width="1"/>
<line x1="52.71" y1="164.31" x2="56.71" y2="164.31" stroke="#333" stroke-width="1"/>
<rect x="63.13" y="186.74" width="16.83" height="13.26" fill="#BDBDBD" opacity="0.85"><title>Control: 0.000176</title></rect>
<line x1="71.54" y1="189.03" x2="71.54" y2="183.10" stroke="#333" stroke-width="1"/>
<line x1="69.54" y1="189.03" x2="73.54" y2="189.03" stroke="#333" stroke-width="1"/>
<line x1="69.54" y1="183.10" x2="73.54" y2="183.10" stroke="#333" stroke-width="1"/>
<text x="63.13" y="214" text-anchor="end" font-size="9" fill="#2196F3" transform="rotate(-45,63.13,214)">Emotions</text>
<rect x="88.38" y="163.32" width="16.83" height="36.68" fill="#81C784" opacity="0.85"><title>Partner Identity: 0.000486</title></rect>
<line x1="96.79" y1="180.16" x2="96.79" y2="147.07" stroke="#333" stroke-width="1"/>
<line x1="94.79" y1="180.16" x2="98.79" y2="180.16" stroke="#333" stroke-width="1"/>
<line x1="94.79" y1="147.07" x2="98.79" y2="147.07" stroke="#333" stroke-width="1"/>
<rect x="105.21" y="189.29" width="16.83" height="10.71" fill="#BDBDBD" opacity="0.85"><title>Control: 0.000142</title></rect>
<line x1="113.63" y1="191.75" x2="113.63" y2="184.55" stroke="#333" stroke-width="1"/>
<line x1="111.63" y1="191.75" x2="115.63" y2="191.75" stroke="#333" stroke-width="1"/>
<line x1="111.63" y1="184.55" x2="115.63" y2="184.55" stroke="#333" stroke-width="1"/>
<text x="105.21" y="214" text-anchor="end" font-size="9" fill="#2196F3" transform="rotate(-45,105.21,214)">Agency</text>
<rect x="130.46" y="159.22" width="16.83" height="40.78" fill="#81C784" opacity="0.85"><title>Partner Identity: 0.000540</title></rect>
<line x1="138.88" y1="177.58" x2="138.88" y2="143.31" stroke="#333" stroke-width="1"/>
<line x1="136.88" y1="177.58" x2="140.88" y2="177.58" stroke="#333" stroke-width="1"/>
<line x1="136.88" y1="143.31" x2="140.88" y2="143.31" stroke="#333" stroke-width="1"/>
<rect x="147.29" y="185.59" width="16.83" height="14.41" fill="#BDBDBD" opacity="0.85"><title>Control: 0.000191</title></rect>
<line x1="155.71" y1="188.58" x2="155.71" y2="182.87" stroke="#333" stroke-width="1"/>
<line x1="153.71" y1="188.58" x2="157.71" y2="188.58" stroke="#333" stroke-width="1"/>
<line x1="153.71" y1="182.87" x2="157.71" y2="182.87" stroke="#333" stroke-width="1"/>
<text x="147.29" y="214" text-anchor="end" font-size="9" fill="#2196F3" transform="rotate(-45,147.29,214)">Intentions</text>
<rect x="172.54" y="166.42" width="16.83" height="33.58" fill="#81C784" opacity="0.85"><title>Partner Identity: 0.000445</title></rect>
<line x1="180.96" y1="175.67" x2="180.96" y2="149.79" stroke="#333" stroke-width="1"/>
<line x1="178.96" y1="175.67" x2="182.96" y2="175.67" stroke="#333" stroke-width="1"/>
<line x1="178.96" y1="149.79" x2="182.96" y2="149.79" stroke="#333" stroke-width="1"/>
<rect x="189.38" y="181.29" width="16.83" height="18.71" fill="#BDBDBD" opacity="0.85"><title>Control: 0.000248</title></rect>
<line x1="197.79" y1="186.50" x2="197.79" y2="177.76" stroke="#333" stroke-width="1"/>
<line x1="195.79" y1="186.50" x2="199.79" y2="186.50" stroke="#333" stroke-width="1"/>
<line x1="195.79" y1="177.76" x2="199.79" y2="177.76" stroke="#333" stroke-width="1"/>
<text x="189.38" y="214" text-anchor="end" font-size="9" fill="#2196F3" transform="rotate(-45,189.38,214)">Prediction</text>
<rect x="214.63" y="155.49" width="16.83" height="44.51" fill="#81C784" opacity="0.85"><title>Partner Identity: 0.000589</title></rect>
<line x1="223.04" y1="170.88" x2="223.04" y2="142.14" stroke="#333" stroke-width="1"/>
<line x1="221.04" y1="170.88" x2="225.04" y2="170.88" stroke="#333" stroke-width="1"/>
<line x1="221.04" y1="142.14" x2="225.04" y2="142.14" stroke="#333" stroke-width="1"/>
<rect x="231.46" y="180.10" width="16.83" height="19.90" fill="#BDBDBD" opacity="0.85"><title>Control: 0.000263</title></rect>
<line x1="239.88" y1="184.54" x2="239.88" y2="177.56" stroke="#333" stroke-width="1"/>
<line x1="237.88" y1="184.54" x2="241.88" y2="184.54" stroke="#333" stroke-width="1"/>
<line x1="237.88" y1="177.56" x2="241.88" y2="177.56" stroke="#333" stroke-width="1"/>
<text x="231.46" y="214" text-anchor="end" font-size="9" fill="#2196F3" transform="rotate(-45,231.46,214)">Cognitive</text>
<rect x="256.71" y="149.90" width="16.83" height="50.10" fill="#81C784" opacity="0.85"><title>Partner Identity: 0.000663</title></rect>
<line x1="265.12" y1="171.92" x2="265.12" y2="121.58" stroke="#333" stroke-width="1"/>
<line x1="263.12" y1="171.92" x2="267.12" y2="171.92" stroke="#333" stroke-width="1"/>
<line x1="263.12" y1="121.58" x2="267.12" y2="121.58" stroke="#333" stroke-width="1"/>
<rect x="273.54" y="184.77" width="16.83" height="15.23" fill="#BDBDBD" opacity="0.85"><title>Control: 0.000202</title></rect>
<line x1="281.96" y1="188.63" x2="281.96" y2="179.88" stroke="#333" stroke-width="1"/>
<line x1="279.96" y1="188.63" x2="283.96" y2="188.63" stroke="#333" stroke-width="1"/>
<line x1="279.96" y1="179.88" x2="283.96" y2="179.88" stroke="#333" stroke-width="1"/>
<text x="273.54" y="214" text-anchor="end" font-size="9" fill="#2196F3" transform="rotate(-45,273.54,214)">Social</text>
<rect x="298.79" y="150.47" width="16.83" height="49.53" fill="#81C784" opacity="0.85"><title>Partner Identity: 0.000656</title></rect>
<line x1="307.21" y1="165.21" x2="307.21" y2="136.87" stroke="#333" stroke-width="1"/>
<line x1="305.21" y1="165.21" x2="309.21" y2="165.21" stroke="#333" stroke-width="1"/>
<line x1="305.21" y1="136.87" x2="309.21" y2="136.87" stroke="#333" stroke-width="1"/>
<rect x="315.62" y="179.99" width="16.83" height="20.01" fill="#BDBDBD" opacity="0.85"><title>Control: 0.000265</title></rect>
<line x1="324.04" y1="183.87" x2="324.04" y2="177.26" stroke="#333" stroke-width="1"/>
<line x1="322.04" y1="183.87" x2="326.04" y2="183.87" stroke="#333" stroke-width="1"/>
<line x1="322.04" y1="177.26" x2="326.04" y2="177.26" stroke="#333" stroke-width="1"/>
<text x="315.62" y="214" text-anchor="end" font-size="9" fill="#2196F3" transform="rotate(-45,315.62,214)">Attention</text>
<rect x="340.88" y="172.27" width="16.83" height="27.73" fill="#81C784" opacity="0.85"><title>Partner Identity: 0.000367</title></rect>
<line x1="349.29" y1="186.73" x2="349.29" y2="156.62" stroke="#333" stroke-width="1"/>
<line x1="347.29" y1="186.73" x2="351.29" y2="186.73" stroke="#333" stroke-width="1"/>
<line x1="347.29" y1="156.62" x2="351.29" y2="156.62" stroke="#333" stroke-width="1"/>
<rect x="357.71" y="177.68" width="16.83" height="22.32" fill="#BDBDBD" opacity="0.85"><title>Control: 0.000296</title></rect>
<line x1="366.12" y1="183.71" x2="366.12" y2="173.98" stroke="#333" stroke-width="1"/>
<line x1="364.12" y1="183.71" x2="368.12" y2="183.71" stroke="#333" stroke-width="1"/>
<line x1="364.12" y1="173.98" x2="368.12" y2="173.98" stroke="#333" stroke-width="1"/>
<text x="357.71" y="214" text-anchor="end" font-size="9" fill="#2196F3" transform="rotate(-45,357.71,214)">Beliefs</text>
<rect x="382.96" y="175.27" width="16.83" height="24.73" fill="#81C784" opacity="0.85"><title>Partner Identity: 0.000327</title></rect>
<line x1="391.38" y1="185.01" x2="391.38" y2="163.92" stroke="#333" stroke-width="1"/>
<line x1="389.38" y1="185.01" x2="393.38" y2="185.01" stroke="#333" stroke-width="1"/>
<line x1="389.38" y1="163.92" x2="393.38" y2="163.92" stroke="#333" stroke-width="1"/>
<rect x="399.79" y="182.78" width="16.83" height="17.22" fill="#BDBDBD" opacity="0.85"><title>Control: 0.000228</title></rect>
<line x1="408.21" y1="187.15" x2="408.21" y2="178.71" stroke="#333" stroke-width="1"/>
<line x1="406.21" y1="187.15" x2="410.21" y2="187.15" stroke="#333" stroke-width="1"/>
<line x1="406.21" y1="178.71" x2="410.21" y2="178.71" stroke="#333" stroke-width="1"/>
<text x="399.79" y="214" text-anchor="end" font-size="9" fill="#2196F3" transform="rotate(-45,399.79,214)">Desires</text>
<rect x="425.04" y="149.93" width="16.83" height="50.07" fill="#81C784" opacity="0.85"><title>Partner Identity: 0.000663</title></rect>
<line x1="433.46" y1="171.79" x2="433.46" y2="127.60" stroke="#333" stroke-width="1"/>
<line x1="431.46" y1="171.79" x2="435.46" y2="171.79" stroke="#333" stroke-width="1"/>
<line x1="431.46" y1="127.60" x2="435.46" y2="127.60" stroke="#333" stroke-width="1"/>
<rect x="441.88" y="187.54" width="16.83" height="12.46" fill="#BDBDBD" opacity="0.85"><title>Control: 0.000165</title></rect>
<line x1="450.29" y1="190.16" x2="450.29" y2="184.32" stroke="#333" stroke-width="1"/>
<line x1="448.29" y1="190.16" x2="452.29" y2="190.16" stroke="#333" stroke-width="1"/>
<line x1="448.29" y1="184.32" x2="452.29" y2="184.32" stroke="#333" stroke-width="1"/>
<text x="441.88" y="214" text-anchor="end" font-size="9" fill="#2196F3" transform="rotate(-45,441.88,214)">Goals</text>
<rect x="467.12" y="181.20" width="16.83" height="18.80" fill="#81C784" opacity="0.85"><title>Partner Identity: 0.000249</title></rect>
<line x1="475.54" y1="189.09" x2="475.54" y2="171.27" stroke="#333" stroke-width="1"/>
<line x1="473.54" y1="189.09" x2="477.54" y2="189.09" stroke="#333" stroke-width="1"/>
<line x1="473.54" y1="171.27" x2="477.54" y2="171.27" stroke="#333" stroke-width="1"/>
<rect x="483.96" y="184.66" width="16.83" height="15.34" fill="#BDBDBD" opacity="0.85"><title>Control: 0.000203</title></rect>
<line x1="492.38" y1="188.24" x2="492.38" y2="179.99" stroke="#333" stroke-width="1"/>
<line x1="490.38" y1="188.24" x2="494.38" y2="188.24" stroke="#333" stroke-width="1"/>
<line x1="490.38" y1="179.99" x2="494.38" y2="179.99" stroke="#333" stroke-width="1"/>
<text x="483.96" y="214" text-anchor="end" font-size="9" fill="#4CAF50" transform="rotate(-45,483.96,214)">Embodiment</text>
<rect x="509.21" y="171.33" width="16.83" height="28.67" fill="#81C784" opacity="0.85"><title>Partner Identity: 0.000380</title></rect>
<line x1="517.62" y1="182.58" x2="517.62" y2="145.71" stroke="#333" stroke-width="1"/>
<line x1="515.62" y1="182.58" x2="519.62" y2="182.58" stroke="#333" stroke-width="1"/>
<line x1="515.62" y1="145.71" x2="519.62" y2="145.71" stroke="#333" stroke-width="1"/>
<rect x="526.04" y="188.57" width="16.83" height="11.43" fill="#BDBDBD" opacity="0.85"><title>Control: 0.000151</title></rect>
<line x1="534.46" y1="190.74" x2="534.46" y2="182.10" stroke="#333" stroke-width="1"/>
<line x1="532.46" y1="190.74" x2="536.46" y2="190.74" stroke="#333" stroke-width="1"/>
<line x1="532.46" y1="182.10" x2="536.46" y2="182.10" stroke="#333" stroke-width="1"/>
<text x="526.04" y="214" text-anchor="end" font-size="9" fill="#4CAF50" transform="rotate(-45,526.04,214)">Roles</text>
<rect x="551.29" y="171.50" width="16.83" height="28.50" fill="#81C784" opacity="0.85"><title>Partner Identity: 0.000377</title></rect>
<line x1="559.71" y1="184.42" x2="559.71" y2="158.34" stroke="#333" stroke-width="1"/>
<line x1="557.71" y1="184.42" x2="561.71" y2="184.42" stroke="#333" stroke-width="1"/>
<line x1="557.71" y1="158.34" x2="561.71" y2="158.34" stroke="#333" stroke-width="1"/>
<rect x="568.13" y="183.42" width="16.83" height="16.58" fill="#BDBDBD" opacity="0.85"><title>Control: 0.000219</title></rect>
<line x1="576.54" y1="187.33" x2="576.54" y2="175.94" stroke="#333" stroke-width="1"/>
<line x1="574.54" y1="187.33" x2="578.54" y2="187.33" stroke="#333" stroke-width="1"/>
<line x1="574.54" y1="175.94" x2="578.54" y2="175.94" stroke="#333" stroke-width="1"/>
<text x="568.13" y="214" text-anchor="end" font-size="9" fill="#4CAF50" transform="rotate(-45,568.13,214)">Animacy</text>
<rect x="593.38" y="174.15" width="16.83" height="25.85" fill="#81C784" opacity="0.85"><title>Partner Identity: 0.000342</title></rect>
<line x1="601.79" y1="184.26" x2="601.79" y2="165.13" stroke="#333" stroke-width="1"/>
<line x1="599.79" y1="184.26" x2="603.79" y2="184.26" stroke="#333" stroke-width="1"/>
<line x1="599.79" y1="165.13" x2="603.79" y2="165.13" stroke="#333" stroke-width="1"/>
<rect x="610.21" y="181.80" width="16.83" height="18.20" fill="#BDBDBD" opacity="0.85"><title>Control: 0.000241</title></rect>
<line x1="618.63" y1="186.18" x2="618.63" y2="178.05" stroke="#333" stroke-width="1"/>
<line x1="616.63" y1="186.18" x2="620.63" y2="186.18" stroke="#333" stroke-width="1"/>
<line x1="616.63" y1="178.05" x2="620.63" y2="178.05" stroke="#333" stroke-width="1"/>
<text x="610.21" y="214" text-anchor="end" font-size="9" fill="#FF9800" transform="rotate(-45,610.21,214)">Formality</text>
<rect x="635.46" y="167.17" width="16.83" height="32.83" fill="#81C784" opacity="0.85"><title>Partner Identity: 0.000435</title></rect>
<line x1="643.88" y1="175.32" x2="643.88" y2="159.66" stroke="#333" stroke-width="1"/>
<line x1="641.88" y1="175.32" x2="645.88" y2="175.32" stroke="#333" stroke-width="1"/>
<line x1="641.88" y1="159.66" x2="645.88" y2="159.66" stroke="#333" stroke-width="1"/>
<rect x="652.29" y="178.24" width="16.83" height="21.76" fill="#BDBDBD" opacity="0.85"><title>Control: 0.000288</title></rect>
<line x1="660.71" y1="181.00" x2="660.71" y2="176.68" stroke="#333" stroke-width="1"/>
<line x1="658.71" y1="181.00" x2="662.71" y2="181.00" stroke="#333" stroke-width="1"/>
<line x1="658.71" y1="176.68" x2="662.71" y2="176.68" stroke="#333" stroke-width="1"/>
<text x="652.29" y="214" text-anchor="end" font-size="9" fill="#FF9800" transform="rotate(-45,652.29,214)">Expertise</text>
<rect x="677.54" y="177.24" width="16.83" height="22.76" fill="#81C784" opacity="0.85"><title>Partner Identity: 0.000301</title></rect>
<line x1="685.96" y1="187.18" x2="685.96" y2="165.65" stroke="#333" stroke-width="1"/>
<line x1="683.96" y1="187.18" x2="687.96" y2="187.18" stroke="#333" stroke-width="1"/>
<line x1="683.96" y1="165.65" x2="687.96" y2="165.65" stroke="#333" stroke-width="1"/>
<rect x="694.38" y="182.22" width="16.83" height="17.78" fill="#BDBDBD" opacity="0.85"><title>Control: 0.000235</title></rect>
<line x1="702.79" y1="186.90" x2="702.79" y2="178.56" stroke="#333" stroke-width="1"/>
<line x1="700.79" y1="186.90" x2="704.79" y2="186.90" stroke="#333" stroke-width="1"/>
<line x1="700.79" y1="178.56" x2="704.79" y2="178.56" stroke="#333" stroke-width="1"/>
<text x="694.38" y="214" text-anchor="end" font-size="9" fill="#FF9800" transform="rotate(-45,694.38,214)">Helpfulness</text>
<rect x="719.63" y="169.78" width="16.83" height="30.22" fill="#81C784" opacity="0.85"><title>Partner Identity: 0.000400</title></rect>
<line x1="728.04" y1="188.34" x2="728.04" y2="145.28" stroke="#333" stroke-width="1"/>
<line x1="726.04" y1="188.34" x2="730.04" y2="188.34" stroke="#333" stroke-width="1"/>
<line x1="726.04" y1="145.28" x2="730.04" y2="145.28" stroke="#333" stroke-width="1"/>
<rect x="736.46" y="187.98" width="16.83" height="12.02" fill="#BDBDBD" opacity="0.85"><title>Control: 0.000159</title></rect>
<line x1="744.88" y1="189.28" x2="744.88" y2="175.61" stroke="#333" stroke-width="1"/>
<line x1="742.88" y1="189.28" x2="746.88" y2="189.28" stroke="#333" stroke-width="1"/>
<line x1="742.88" y1="175.61" x2="746.88" y2="175.61" stroke="#333" stroke-width="1"/>
<text x="736.46" y="214" text-anchor="end" font-size="9" fill="#9E9E9E" transform="rotate(-45,736.46,214)">Baseline</text>
<rect x="761.71" y="176.40" width="16.83" height="23.60" fill="#81C784" opacity="0.85"><title>Partner Identity: 0.000313</title></rect>
<line x1="770.12" y1="183.91" x2="770.12" y2="167.63" stroke="#333" stroke-width="1"/>
<line x1="768.12" y1="183.91" x2="772.12" y2="183.91" stroke="#333" stroke-width="1"/>
<line x1="768.12" y1="167.63" x2="772.12" y2="167.63" stroke="#333" stroke-width="1"/>
<rect x="778.54" y="187.60" width="16.83" height="12.40" fill="#BDBDBD" opacity="0.85"><title>Control: 0.000164</title></rect>
<line x1="786.96" y1="189.83" x2="786.96" y2="183.75" stroke="#333" stroke-width="1"/>
<line x1="784.96" y1="189.83" x2="788.96" y2="189.83" stroke="#333" stroke-width="1"/>
<line x1="784.96" y1="183.75" x2="788.96" y2="183.75" stroke="#333" stroke-width="1"/>
<text x="778.54" y="214" text-anchor="end" font-size="9" fill="#9E9E9E" transform="rotate(-45,778.54,214)">Biological</text>
<rect x="803.79" y="175.12" width="16.83" height="24.88" fill="#81C784" opacity="0.85"><title>Partner Identity: 0.000329</title></rect>
<line x1="812.21" y1="187.13" x2="812.21" y2="163.33" stroke="#333" stroke-width="1"/>
<line x1="810.21" y1="187.13" x2="814.21" y2="187.13" stroke="#333" stroke-width="1"/>
<line x1="810.21" y1="163.33" x2="814.21" y2="163.33" stroke="#333" stroke-width="1"/>
<rect x="820.63" y="185.37" width="16.83" height="14.63" fill="#BDBDBD" opacity="0.85"><title>Control: 0.000194</title></rect>
<line x1="829.04" y1="188.68" x2="829.04" y2="181.27" stroke="#333" stroke-width="1"/>
<line x1="827.04" y1="188.68" x2="831.04" y2="188.68" stroke="#333" stroke-width="1"/>
<line x1="827.04" y1="181.27" x2="831.04" y2="181.27" stroke="#333" stroke-width="1"/>
<text x="820.63" y="214" text-anchor="end" font-size="9" fill="#9E9E9E" transform="rotate(-45,820.63,214)">Shapes</text>
<rect x="845.88" y="187.34" width="16.83" height="12.66" fill="#81C784" opacity="0.85"><title>Partner Identity: 0.000168</title></rect>
<line x1="854.29" y1="191.33" x2="854.29" y2="167.87" stroke="#333" stroke-width="1"/>
<line x1="852.29" y1="191.33" x2="856.29" y2="191.33" stroke="#333" stroke-width="1"/>
<line x1="852.29" y1="167.87" x2="856.29" y2="167.87" stroke="#333" stroke-width="1"/>
<rect x="862.71" y="185.90" width="16.83" height="14.10" fill="#BDBDBD" opacity="0.85"><title>Control: 0.000187</title></rect>
<line x1="871.13" y1="190.43" x2="871.13" y2="179.13" stroke="#333" stroke-width="1"/>
<line x1="869.13" y1="190.43" x2="873.13" y2="190.43" stroke="#333" stroke-width="1"/>
<line x1="869.13" y1="179.13" x2="873.13" y2="179.13" stroke="#333" stroke-width="1"/>
<text x="862.71" y="214" text-anchor="end" font-size="9" fill="#9E9E9E" transform="rotate(-45,862.71,214)">Granite/Sandstone</text>
<rect x="887.96" y="182.73" width="16.83" height="17.27" fill="#81C784" opacity="0.85"><title>Partner Identity: 0.000229</title></rect>
<line x1="896.38" y1="186.79" x2="896.38" y2="171.11" stroke="#333" stroke-width="1"/>
<line x1="894.38" y1="186.79" x2="898.38" y2="186.79" stroke="#333" stroke-width="1"/>
<line x1="894.38" y1="171.11" x2="898.38" y2="171.11" stroke="#333" stroke-width="1"/>
<rect x="904.79" y="183.13" width="16.83" height="16.87" fill="#BDBDBD" opacity="0.85"><title>Control: 0.000223</title></rect>
<line x1="913.21" y1="188.59" x2="913.21" y2="179.86" stroke="#333" stroke-width="1"/>
<line x1="911.21" y1="188.59" x2="915.21" y2="188.59" stroke="#333" stroke-width="1"/>
<line x1="911.21" y1="179.86" x2="915.21" y2="179.86" stroke="#333" stroke-width="1"/>
<text x="904.79" y="214" text-anchor="end" font-size="9" fill="#9E9E9E" transform="rotate(-45,904.79,214)">Squares/Triangles</text>
<rect x="930.04" y="186.21" width="16.83" height="13.79" fill="#81C784" opacity="0.85"><title>Partner Identity: 0.000183</title></rect>
<line x1="938.46" y1="191.40" x2="938.46" y2="162.46" stroke="#333" stroke-width="1"/>
<line x1="936.46" y1="191.40" x2="940.46" y2="191.40" stroke="#333" stroke-width="1"/>
<line x1="936.46" y1="162.46" x2="940.46" y2="162.46" stroke="#333" stroke-width="1"/>
<rect x="946.88" y="176.56" width="16.83" height="23.44" fill="#BDBDBD" opacity="0.85"><title>Control: 0.000310</title></rect>
<line x1="955.29" y1="188.57" x2="955.29" y2="171.87" stroke="#333" stroke-width="1"/>
<line x1="953.29" y1="188.57" x2="957.29" y2="188.57" stroke="#333" stroke-width="1"/>
<line x1="953.29" y1="171.87" x2="957.29" y2="171.87" stroke="#333" stroke-width="1"/>
<text x="946.88" y="214" text-anchor="end" font-size="9" fill="#9E9E9E" transform="rotate(-45,946.88,214)">Horizontal/Vertical</text>
<rect x="972.13" y="149.64" width="16.83" height="50.36" fill="#81C784" opacity="0.85"><title>Partner Identity: 0.000667</title></rect>
<line x1="980.54" y1="161.05" x2="980.54" y2="132.28" stroke="#333" stroke-width="1"/>
<line x1="978.54" y1="161.05" x2="982.54" y2="161.05" stroke="#333" stroke-width="1"/>
<line x1="978.54" y1="132.28" x2="982.54" y2="132.28" stroke="#333" stroke-width="1"/>
<rect x="988.96" y="185.69" width="16.83" height="14.31" fill="#BDBDBD" opacity="0.85"><title>Control: 0.000189</title></rect>
<line x1="997.38" y1="187.57" x2="997.38" y2="183.17" stroke="#333" stroke-width="1"/>
<line x1="995.38" y1="187.57" x2="999.38" y2="187.57" stroke="#333" stroke-width="1"/>
<line x1="995.38" y1="183.17" x2="999.38" y2="183.17" stroke="#333" stroke-width="1"/>
<text x="988.96" y="214" text-anchor="end" font-size="9" fill="#00BCD4" transform="rotate(-45,988.96,214)">SysPrompt (labeled)</text>
<line x1="0" y1="200" x2="1010" y2="200" stroke="#333"/>
<line x1="0" y1="0" x2="0" y2="200" stroke="#333"/>
</g>
<rect x="70.0" y="324" width="10" height="10" fill="#81C784"/>
<text x="84.0" y="332" font-size="8" fill="#333">Partner Identity</text>
<rect x="272.0" y="324" width="10" height="10" fill="#BDBDBD"/>
<text x="286.0" y="332" font-size="8" fill="#333">Control</text>
</svg>