<svg viewBox="0 0 1100 784" xmlns="http://www.w3.org/2000/svg" style="width:100%;max-width:1100px;height:auto;font-family:Arial,sans-serif;">
<rect width="1100" height="784" fill="white"/>
<text x="386.2" y="130" text-anchor="start" font-size="10" fill="#333" transform="rotate(-55,386.2,130)">Partner Identity</text>
<text x="808.8" y="130" text-anchor="start" font-size="10" fill="#333" transform="rotate(-55,808.8,130)">Control</text>
<text x="167" y="157.0" text-anchor="end" font-size="10" fill="#2196F3">Phenomenology</text>
<rect x="175.0" y="140.0" width="422.5" height="26" fill="rgb(206,228,208)" stroke="white" stroke-width="1"><title>Partner Identity — Phenomenology: R²=0.000324</title></rect>
<text x="386.2" y="157.0" text-anchor="middle" font-size="8" fill="#333">0.32</text>
<rect x="597.5" y="140.0" width="422.5" height="26" fill="rgb(223,223,223)" stroke="white" stroke-width="1"><title>Control — Phenomenology: R²=0.000250</title></rect>
<text x="808.8" y="157.0" text-anchor="middle" font-size="8" fill="#333">0.25</text>
<text x="167" y="183.0" text-anchor="end" font-size="10" fill="#2196F3">Emotions</text>
<rect x="175.0" y="166.0" width="422.5" height="26" fill="rgb(204,227,206)" stroke="white" stroke-width="1"><title>Partner Identity — Emotions: R²=0.000355</title></rect>
<text x="386.2" y="183.0" text-anchor="middle" font-size="8" fill="#333">0.35</text>
<rect x="597.5" y="166.0" width="422.5" height="26" fill="rgb(227,227,227)" stroke="white" stroke-width="1"><title>Control — Emotions: R²=0.000176</title></rect>
<text x="808.8" y="183.0" text-anchor="middle" font-size="8" fill="#333">0.18</text>
<text x="167" y="209.0" text-anchor="end" font-size="10" fill="#2196F3">Agency</text>
<rect x="175.0" y="192.0" width="422.5" height="26" fill="rgb(194,220,196)" stroke="white" stroke-width="1"><title>Partner Identity — Agency: R²=0.000486</title></rect>
<text x="386.2" y="209.0" text-anchor="middle" font-size="8" fill="#333">0.49</text>
<rect x="597.5" y="192.0" width="422.5" height="26" fill="rgb(229,229,229)" stroke="white" stroke-width="1"><title>Control — Agency: R²=0.000142</title></rect>
<text x="808.8" y="209.0" text-anchor="middle" font-size="8" fill="#333">0.14</text>
<text x="167" y="235.0" text-anchor="end" font-size="10" fill="#2196F3">Intentions</text>
<rect x="175.0" y="218.0" width="422.5" height="26" fill="rgb(190,218,191)" stroke="white" stroke-width="1"><title>Partner Identity — Intentions: R²=0.000540</title></rect>
<text x="386.2" y="235.0" text-anchor="middle" font-size="8" fill="#333">0.54</text>
<rect x="597.5" y="218.0" width="422.5" height="26" fill="rgb(226,226,226)" stroke="white" stroke-width="1"><title>Control — Intentions: R²=0.000191</title></rect>
<text x="808.8" y="235.0" text-anchor="middle" font-size="8" fill="#333">0.19</text>
<text x="167" y="261.0" text-anchor="end" font-size="10" fill="#2196F3">Prediction</text>
<rect x="175.0" y="244.0" width="422.5" height="26" fill="rgb(197,222,199)" stroke="white" stroke-width="1"><title>Partner Identity — Prediction: R²=0.000445</title></rect>
<text x="386.2" y="261.0" text-anchor="middle" font-size="8" fill="#333">0.44</text>
<rect x="597.5" y="244.0" width="422.5" height="26" fill="rgb(223,223,223)" stroke="white" stroke-width="1"><title>Control — Prediction: R²=0.000248</title></rect>
<text x="808.8" y="261.0" text-anchor="middle" font-size="8" fill="#333">0.25</text>
<text x="167" y="287.0" text-anchor="end" font-size="10" fill="#2196F3">Cognitive</text>
<rect x="175.0" y="270.0" width="422.5" height="26" fill="rgb(186,215,188)" stroke="white" stroke-width="1"><title>Partner Identity — Cognitive: R²=0.000589</title></rect>
<text x="386.2" y="287.0" text-anchor="middle" font-size="8" fill="#333">0.59</text>
<rect x="597.5" y="270.0" width="422.5" height="26" fill="rgb(222,222,222)" stroke="white" stroke-width="1"><title>Control — Cognitive: R²=0.000263</title></rect>
<text x="808.8" y="287.0" text-anchor="middle" font-size="8" fill="#333">0.26</text>
<text x="167" y="313.0" text-anchor="end" font-size="10" fill="#2196F3">Social</text>
<rect x="175.0" y="296.0" width="422.5" height="26" fill="rgb(180,211,182)" stroke="white" stroke-width="1"><title>Partner Identity — Social: R²=0.000663</title></rect>
<text x="386.2" y="313.0" text-anchor="middle" font-size="8" fill="#333">0.66</text>
<rect x="597.5" y="296.0" width="422.5" height="26" fill="rgb(226,226,226)" stroke="white" stroke-width="1"><title>Control — Social: R²=0.000202</title></rect>
<text x="808.8" y="313.0" text-anchor="middle" font-size="8" fill="#333">0.20</text>
<text x="167" y="339.0" text-anchor="end" font-size="10" fill="#2196F3">Attention</text>
<rect x="175.0" y="322.0" width="422.5" height="26" fill="rgb(181,212,183)" stroke="white" stroke-width="1"><title>Partner Identity — Attention: R²=0.000656</title></rect>
<text x="386.2" y="339.0" text-anchor="middle" font-size="8" fill="#333">0.66</text>
<rect x="597.5" y="322.0" width="422.5" height="26" fill="rgb(222,222,222)" stroke="white" stroke-width="1"><title>Control — Attention: R²=0.000265</title></rect>
<text x="808.8" y="339.0" text-anchor="middle" font-size="8" fill="#333">0.26</text>
<text x="167" y="365.0" text-anchor="end" font-size="10" fill="#2196F3">Beliefs</text>
<rect x="175.0" y="348.0" width="422.5" height="26" fill="rgb(203,226,205)" stroke="white" stroke-width="1"><title>Partner Identity — Beliefs: R²=0.000367</title></rect>
<text x="386.2" y="365.0" text-anchor="middle" font-size="8" fill="#333">0.37</text>
<rect x="597.5" y="348.0" width="422.5" height="26" fill="rgb(220,220,220)" stroke="white" stroke-width="1"><title>Control — Beliefs: R²=0.000296</title></rect>
<text x="808.8" y="365.0" text-anchor="middle" font-size="8" fill="#333">0.30</text>
<text x="167" y="391.0" text-anchor="end" font-size="10" fill="#2196F3">Desires</text>
<rect x="175.0" y="374.0" width="422.5" height="26" fill="rgb(206,228,208)" stroke="white" stroke-width="1"><title>Partner Identity — Desires: R²=0.000327</title></rect>
<text x="386.2" y="391.0" text-anchor="middle" font-size="8" fill="#333">0.33</text>
<rect x="597.5" y="374.0" width="422.5" height="26" fill="rgb(224,224,224)" stroke="white" stroke-width="1"><title>Control — Desires: R²=0.000228</title></rect>
<text x="808.8" y="391.0" text-anchor="middle" font-size="8" fill="#333">0.23</text>
<text x="167" y="417.0" text-anchor="end" font-size="10" fill="#2196F3">Goals</text>
<rect x="175.0" y="400.0" width="422.5" height="26" fill="rgb(180,211,182)" stroke="white" stroke-width="1"><title>Partner Identity — Goals: R²=0.000663</title></rect>
<text x="386.2" y="417.0" text-anchor="middle" font-size="8" fill="#333">0.66</text>
<rect x="597.5" y="400.0" width="422.5" height="26" fill="rgb(228,228,228)" stroke="white" stroke-width="1"><title>Control — Goals: R²=0.000165</title></rect>
<text x="808.8" y="417.0" text-anchor="middle" font-size="8" fill="#333">0.17</text>
<line x1="175" y1="426" x2="1020.0" y2="426" stroke="#999" stroke-width="1.5"/>
<text x="167" y="443.0" text-anchor="end" font-size="10" fill="#4CAF50">Embodiment</text>
<rect x="175.0" y="426.0" width="422.5" height="26" fill="rgb(212,232,214)" stroke="white" stroke-width="1"><title>Partner Identity — Embodiment: R²=0.000249</title></rect>
<text x="386.2" y="443.0" text-anchor="middle" font-size="8" fill="#333">0.25</text>
<rect x="597.5" y="426.0" width="422.5" height="26" fill="rgb(226,226,226)" stroke="white" stroke-width="1"><title>Control — Embodiment: R²=0.000203</title></rect>
<text x="808.8" y="443.0" text-anchor="middle" font-size="8" fill="#333">0.20</text>
<text x="167" y="469.0" text-anchor="end" font-size="10" fill="#4CAF50">Roles</text>
<rect x="175.0" y="452.0" width="422.5" height="26" fill="rgb(202,226,204)" stroke="white" stroke-width="1"><title>Partner Identity — Roles: R²=0.000380</title></rect>
<text x="386.2" y="469.0" text-anchor="middle" font-size="8" fill="#333">0.38</text>
<rect x="597.5" y="452.0" width="422.5" height="26" fill="rgb(229,229,229)" stroke="white" stroke-width="1"><title>Control — Roles: R²=0.000151</title></rect>
<text x="808.8" y="469.0" text-anchor="middle" font-size="8" fill="#333">0.15</text>
<text x="167" y="495.0" text-anchor="end" font-size="10" fill="#4CAF50">Animacy</text>
<rect x="175.0" y="478.0" width="422.5" height="26" fill="rgb(202,226,204)" stroke="white" stroke-width="1"><title>Partner Identity — Animacy: R²=0.000377</title></rect>
<text x="386.2" y="495.0" text-anchor="middle" font-size="8" fill="#333">0.38</text>
<rect x="597.5" y="478.0" width="422.5" height="26" fill="rgb(225,225,225)" stroke="white" stroke-width="1"><title>Control — Animacy: R²=0.000219</title></rect>
<text x="808.8" y="495.0" text-anchor="middle" font-size="8" fill="#333">0.22</text>
<line x1="175" y1="504" x2="1020.0" y2="504" stroke="#999" stroke-width="1.5"/>
<text x="167" y="521.0" text-anchor="end" font-size="10" fill="#FF9800">Formality</text>
<rect x="175.0" y="504.0" width="422.5" height="26" fill="rgb(205,227,206)" stroke="white" stroke-width="1"><title>Partner Identity — Formality: R²=0.000342</title></rect>
<text x="386.2" y="521.0" text-anchor="middle" font-size="8" fill="#333">0.34</text>
<rect x="597.5" y="504.0" width="422.5" height="26" fill="rgb(223,223,223)" stroke="white" stroke-width="1"><title>Control — Formality: R²=0.000241</title></rect>
<text x="808.8" y="521.0" text-anchor="middle" font-size="8" fill="#333">0.24</text>
<text x="167" y="547.0" text-anchor="end" font-size="10" fill="#FF9800">Expertise</text>
<rect x="175.0" y="530.0" width="422.5" height="26" fill="rgb(198,223,199)" stroke="white" stroke-width="1"><title>Partner Identity — Expertise: R²=0.000435</title></rect>
<text x="386.2" y="547.0" text-anchor="middle" font-size="8" fill="#333">0.43</text>
<rect x="597.5" y="530.0" width="422.5" height="26" fill="rgb(221,221,221)" stroke="white" stroke-width="1"><title>Control — Expertise: R²=0.000288</title></rect>
<text x="808.8" y="547.0" text-anchor="middle" font-size="8" fill="#333">0.29</text>
<text x="167" y="573.0" text-anchor="end" font-size="10" fill="#FF9800">Helpfulness</text>
<rect x="175.0" y="556.0" width="422.5" height="26" fill="rgb(208,229,210)" stroke="white" stroke-width="1"><title>Partner Identity — Helpfulness: R²=0.000301</title></rect>
<text x="386.2" y="573.0" text-anchor="middle" font-size="8" fill="#333">0.30</text>
<rect x="597.5" y="556.0" width="422.5" height="26" fill="rgb(224,224,224)" stroke="white" stroke-width="1"><title>Control — Helpfulness: R²=0.000235</title></rect>
<text x="808.8" y="573.0" text-anchor="middle" font-size="8" fill="#333">0.24</text>
<line x1="175" y1="582" x2="1020.0" y2="582" stroke="#999" stroke-width="1.5"/>
<text x="167" y="599.0" text-anchor="end" font-size="10" fill="#9E9E9E">Baseline</text>
<rect x="175.0" y="582.0" width="422.5" height="26" fill="rgb(201,225,202)" stroke="white" stroke-width="1"><title>Partner Identity — Baseline: R²=0.000400</title></rect>
<text x="386.2" y="599.0" text-anchor="middle" font-size="8" fill="#333">0.40</text>
<rect x="597.5" y="582.0" width="422.5" height="26" fill="rgb(228,228,228)" stroke="white" stroke-width="1"><title>Control — Baseline: R²=0.000159</title></rect>
<text x="808.8" y="599.0" text-anchor="middle" font-size="8" fill="#333">0.16</text>
<text x="167" y="625.0" text-anchor="end" font-size="10" fill="#9E9E9E">Biological</text>
<rect x="175.0" y="608.0" width="422.5" height="26" fill="rgb(207,229,209)" stroke="white" stroke-width="1"><title>Partner Identity — Biological: R²=0.000313</title></rect>
<text x="386.2" y="625.0" text-anchor="middle" font-size="8" fill="#333">0.31</text>
<rect x="597.5" y="608.0" width="422.5" height="26" fill="rgb(228,228,228)" stroke="white" stroke-width="1"><title>Control — Biological: R²=0.000164</title></rect>
<text x="808.8" y="625.0" text-anchor="middle" font-size="8" fill="#333">0.16</text>
<text x="167" y="651.0" text-anchor="end" font-size="10" fill="#9E9E9E">Shapes</text>
<rect x="175.0" y="634.0" width="422.5" height="26" fill="rgb(206,228,207)" stroke="white" stroke-width="1"><title>Partner Identity — Shapes: R²=0.000329</title></rect>
<text x="386.2" y="651.0" text-anchor="middle" font-size="8" fill="#333">0.33</text>
<rect x="597.5" y="634.0" width="422.5" height="26" fill="rgb(226,226,226)" stroke="white" stroke-width="1"><title>Control — Shapes: R²=0.000194</title></rect>
<text x="808.8" y="651.0" text-anchor="middle" font-size="8" fill="#333">0.19</text>
<text x="167" y="677.0" text-anchor="end" font-size="10" fill="#9E9E9E">Granite/Sandstone</text>
<rect x="175.0" y="660.0" width="422.5" height="26" fill="rgb(219,236,220)" stroke="white" stroke-width="1"><title>Partner Identity — Granite/Sandstone: R²=0.000168</title></rect>
<text x="386.2" y="677.0" text-anchor="middle" font-size="8" fill="#333">0.17</text>
<rect x="597.5" y="660.0" width="422.5" height="26" fill="rgb(227,227,227)" stroke="white" stroke-width="1"><title>Control — Granite/Sandstone: R²=0.000187</title></rect>
<text x="808.8" y="677.0" text-anchor="middle" font-size="8" fill="#333">0.19</text>
<text x="167" y="703.0" text-anchor="end" font-size="10" fill="#9E9E9E">Squares/Triangles</text>
<rect x="175.0" y="686.0" width="422.5" height="26" fill="rgb(214,233,215)" stroke="white" stroke-width="1"><title>Partner Identity — Squares/Triangles: R²=0.000229</title></rect>
<text x="386.2" y="703.0" text-anchor="middle" font-size="8" fill="#333">0.23</text>
<rect x="597.5" y="686.0" width="422.5" height="26" fill="rgb(224,224,224)" stroke="white" stroke-width="1"><title>Control — Squares/Triangles: R²=0.000223</title></rect>
<text x="808.8" y="703.0" text-anchor="middle" font-size="8" fill="#333">0.22</text>
<text x="167" y="729.0" text-anchor="end" font-size="10" fill="#9E9E9E">Horizontal/Vertical</text>
<rect x="175.0" y="712.0" width="422.5" height="26" fill="rgb(217,235,219)" stroke="white" stroke-width="1"><title>Partner Identity — Horizontal/Vertical: R²=0.000183</title></rect>
<text x="386.2" y="729.0" text-anchor="middle" font-size="8" fill="#333">0.18</text>
<rect x="597.5" y="712.0" width="422.5" height="26" fill="rgb(219,219,219)" stroke="white" stroke-width="1"><title>Control — Horizontal/Vertical: R²=0.000310</title></rect>
<text x="808.8" y="729.0" text-anchor="middle" font-size="8" fill="#333">0.31</text>
<line x1="175" y1="738" x2="1020.0" y2="738" stroke="#999" stroke-width="1.5"/>
<text x="167" y="755.0" text-anchor="end" font-size="10" fill="#00BCD4">SysPrompt (labeled)</text>
<rect x="175.0" y="738.0" width="422.5" height="26" fill="rgb(180,211,182)" stroke="white" stroke-width="1"><title>Partner Identity — SysPrompt (labeled): R²=0.000667</title></rect>
<text x="386.2" y="755.0" text-anchor="middle" font-size="8" fill="#333">0.67</text>
<rect x="597.5" y="738.0" width="422.5" height="26" fill="rgb(226,226,226)" stroke="white" stroke-width="1"><title>Control — SysPrompt (labeled): R²=0.000189</title></rect>
<text x="808.8" y="755.0" text-anchor="middle" font-size="8" fill="#333">0.19</text>
<rect x="1035.0" y="764.0" width="12" height="13.7" fill="rgb(232,245,233)"/>
<rect x="1035.0" y="751.3" width="12" height="13.7" fill="rgb(228,242,229)"/>
<rect x="1035.0" y="738.5" width="12" height="13.7" fill="rgb(224,240,225)"/>
<rect x="1035.0" y="725.8" width="12" height="13.7" fill="rgb(220,237,221)"/>
<rect x="1035.0" y="713.1" width="12" height="13.7" fill="rgb(216,235,218)"/>
<rect x="1035.0" y="700.3" width="12" height="13.7" fill="rgb(213,232,214)"/>
<rect x="1035.0" y="687.6" width="12" height="13.7" fill="rgb(209,230,210)"/>
<rect x="1035.0" y="674.9" width="12" height="13.7" fill="rgb(205,227,206)"/>
<rect x="1035.0" y="662.1" width="12" height="13.7" fill="rgb(201,225,203)"/>
<rect x="1035.0" y="649.4" width="12" height="13.7" fill="rgb(197,222,199)"/>
<rect x="1035.0" y="636.7" width="12" height="13.7" fill="rgb(194,220,195)"/>
<rect x="1035.0" y="623.9" width="12" height="13.7" fill="rgb(190,218,191)"/>
<rect x="1035.0" y="611.2" width="12" height="13.7" fill="rgb(186,215,188)"/>
<rect x="1035.0" y="598.4" width="12" height="13.7" fill="rgb(182,213,184)"/>
<rect x="1035.0" y="585.7" width="12" height="13.7" fill="rgb(178,210,180)"/>
<rect x="1035.0" y="573.0" width="12" height="13.7" fill="rgb(175,208,176)"/>
<rect x="1035.0" y="560.2" width="12" height="13.7" fill="rgb(171,205,173)"/>
<rect x="1035.0" y="547.5" width="12" height="13.7" fill="rgb(167,203,169)"/>
<rect x="1035.0" y="534.8" width="12" height="13.7" fill="rgb(163,200,165)"/>
<rect x="1035.0" y="522.0" width="12" height="13.7" fill="rgb(159,198,162)"/>
<rect x="1035.0" y="509.3" width="12" height="13.7" fill="rgb(156,196,158)"/>
<rect x="1035.0" y="496.6" width="12" height="13.7" fill="rgb(152,193,154)"/>
<rect x="1035.0" y="483.8" width="12" height="13.7" fill="rgb(148,191,150)"/>
<rect x="1035.0" y="471.1" width="12" height="13.7" fill="rgb(144,188,147)"/>
<rect x="1035.0" y="458.4" width="12" height="13.7" fill="rgb(140,186,143)"/>
<rect x="1035.0" y="445.6" width="12" height="13.7" fill="rgb(137,183,139)"/>
<rect x="1035.0" y="432.9" width="12" height="13.7" fill="rgb(133,181,135)"/>
<rect x="1035.0" y="420.2" width="12" height="13.7" fill="rgb(129,178,132)"/>
<rect x="1035.0" y="407.4" width="12" height="13.7" fill="rgb(125,176,128)"/>
<rect x="1035.0" y="394.7" width="12" height="13.7" fill="rgb(121,173,124)"/>
<rect x="1035.0" y="382.0" width="12" height="13.7" fill="rgb(118,171,120)"/>
<rect x="1035.0" y="369.2" width="12" height="13.7" fill="rgb(114,169,117)"/>
<rect x="1035.0" y="356.5" width="12" height="13.7" fill="rgb(110,166,113)"/>
<rect x="1035.0" y="343.8" width="12" height="13.7" fill="rgb(106,164,109)"/>
<rect x="1035.0" y="331.0" width="12" height="13.7" fill="rgb(102,161,106)"/>
<rect x="1035.0" y="318.3" width="12" height="13.7" fill="rgb(99,159,102)"/>
<rect x="1035.0" y="305.6" width="12" height="13.7" fill="rgb(95,156,98)"/>
<rect x="1035.0" y="292.8" width="12" height="13.7" fill="rgb(91,154,94)"/>
<rect x="1035.0" y="280.1" width="12" height="13.7" fill="rgb(87,151,91)"/>
<rect x="1035.0" y="267.3" width="12" height="13.7" fill="rgb(83,149,87)"/>
<rect x="1035.0" y="254.6" width="12" height="13.7" fill="rgb(80,147,83)"/>
<rect x="1035.0" y="241.9" width="12" height="13.7" fill="rgb(76,144,79)"/>
<rect x="1035.0" y="229.1" width="12" height="13.7" fill="rgb(72,142,76)"/>
<rect x="1035.0" y="216.4" width="12" height="13.7" fill="rgb(68,139,72)"/>
<rect x="1035.0" y="203.7" width="12" height="13.7" fill="rgb(64,137,68)"/>
<rect x="1035.0" y="190.9" width="12" height="13.7" fill="rgb(61,134,64)"/>
<rect x="1035.0" y="178.2" width="12" height="13.7" fill="rgb(57,132,61)"/>
<rect x="1035.0" y="165.5" width="12" height="13.7" fill="rgb(53,129,57)"/>
<rect x="1035.0" y="152.7" width="12" height="13.7" fill="rgb(49,127,53)"/>
<rect x="1035.0" y="140.0" width="12" height="13.7" fill="rgb(46,125,50)"/>
<text x="1041.0" y="136" text-anchor="middle" font-size="7" fill="#333">Partner Identity</text>
<text x="1050.0" y="144" font-size="7" fill="#333">2.41</text>
<text x="1050.0" y="768" font-size="7" fill="#333">0.00</text>
<text x="1050.0" y="456.0" font-size="7" fill="#666">×10⁻³</text>
<rect x="1077.0" y="764.0" width="12" height="13.7" fill="rgb(238,238,238)"/>
<rect x="1077.0" y="751.3" width="12" height="13.7" fill="rgb(235,235,235)"/>
<rect x="1077.0" y="738.5" width="12" height="13.7" fill="rgb(232,232,232)"/>
<rect x="1077.0" y="725.8" width="12" height="13.7" fill="rgb(229,229,229)"/>
<rect x="1077.0" y="713.1" width="12" height="13.7" fill="rgb(226,226,226)"/>
<rect x="1077.0" y="700.3" width="12" height="13.7" fill="rgb(223,223,223)"/>
<rect x="1077.0" y="687.6" width="12" height="13.7" fill="rgb(220,220,220)"/>
<rect x="1077.0" y="674.9" width="12" height="13.7" fill="rgb(217,217,217)"/>
<rect x="1077.0" y="662.1" width="12" height="13.7" fill="rgb(214,214,214)"/>
<rect x="1077.0" y="649.4" width="12" height="13.7" fill="rgb(212,212,212)"/>
<rect x="1077.0" y="636.7" width="12" height="13.7" fill="rgb(209,209,209)"/>
<rect x="1077.0" y="623.9" width="12" height="13.7" fill="rgb(206,206,206)"/>
<rect x="1077.0" y="611.2" width="12" height="13.7" fill="rgb(203,203,203)"/>
<rect x="1077.0" y="598.4" width="12" height="13.7" fill="rgb(200,200,200)"/>
<rect x="1077.0" y="585.7" width="12" height="13.7" fill="rgb(197,197,197)"/>
<rect x="1077.0" y="573.0" width="12" height="13.7" fill="rgb(194,194,194)"/>
<rect x="1077.0" y="560.2" width="12" height="13.7" fill="rgb(191,191,191)"/>
<rect x="1077.0" y="547.5" width="12" height="13.7" fill="rgb(189,189,189)"/>
<rect x="1077.0" y="534.8" width="12" height="13.7" fill="rgb(186,186,186)"/>
<rect x="1077.0" y="522.0" width="12" height="13.7" fill="rgb(183,183,183)"/>
<rect x="1077.0" y="509.3" width="12" height="13.7" fill="rgb(180,180,180)"/>
<rect x="1077.0" y="496.6" width="12" height="13.7" fill="rgb(177,177,177)"/>
<rect x="1077.0" y="483.8" width="12" height="13.7" fill="rgb(174,174,174)"/>
<rect x="1077.0" y="471.1" width="12" height="13.7" fill="rgb(171,171,171)"/>
<rect x="1077.0" y="458.4" width="12" height="13.7" fill="rgb(168,168,168)"/>
<rect x="1077.0" y="445.6" width="12" height="13.7" fill="rgb(166,166,166)"/>
<rect x="1077.0" y="432.9" width="12" height="13.7" fill="rgb(163,163,163)"/>
<rect x="1077.0" y="420.2" width="12" height="13.7" fill="rgb(160,160,160)"/>
<rect x="1077.0" y="407.4" width="12" height="13.7" fill="rgb(157,157,157)"/>
<rect x="1077.0" y="394.7" width="12" height="13.7" fill="rgb(154,154,154)"/>
<rect x="1077.0" y="382.0" width="12" height="13.7" fill="rgb(151,151,151)"/>
<rect x="1077.0" y="369.2" width="12" height="13.7" fill="rgb(148,148,148)"/>
<rect x="1077.0" y="356.5" width="12" height="13.7" fill="rgb(145,145,145)"/>
<rect x="1077.0" y="343.8" width="12" height="13.7" fill="rgb(143,143,143)"/>
<rect x="1077.0" y="331.0" width="12" height="13.7" fill="rgb(140,140,140)"/>
<rect x="1077.0" y="318.3" width="12" height="13.7" fill="rgb(137,137,137)"/>
<rect x="1077.0" y="305.6" width="12" height="13.7" fill="rgb(134,134,134)"/>
<rect x="1077.0" y="292.8" width="12" height="13.7" fill="rgb(131,131,131)"/>
<rect x="1077.0" y="280.1" width="12" height="13.7" fill="rgb(128,128,128)"/>
<rect x="1077.0" y="267.3" width="12" height="13.7" fill="rgb(125,125,125)"/>
<rect x="1077.0" y="254.6" width="12" height="13.7" fill="rgb(122,122,122)"/>
<rect x="1077.0" y="241.9" width="12" height="13.7" fill="rgb(120,120,120)"/>
<rect x="1077.0" y="229.1" width="12" height="13.7" fill="rgb(117,117,117)"/>
<rect x="1077.0" y="216.4" width="12" height="13.7" fill="rgb(114,114,114)"/>
<rect x="1077.0" y="203.7" width="12" height="13.7" fill="rgb(111,111,111)"/>
<rect x="1077.0" y="190.9" width="12" height="13.7" fill="rgb(108,108,108)"/>
<rect x="1077.0" y="178.2" width="12" height="13.7" fill="rgb(105,105,105)"/>
<rect x="1077.0" y="165.5" width="12" height="13.7" fill="rgb(102,102,102)"/>
<rect x="1077.0" y="152.7" width="12" height="13.7" fill="rgb(99,99,99)"/>
<rect x="1077.0" y="140.0" width="12" height="13.7" fill="rgb(97,97,97)"/>
<text x="1083.0" y="136" text-anchor="middle" font-size="7" fill="#333">Control</text>
</svg>