<svg viewBox="0 0 1100 360" xmlns="http://www.w3.org/2000/svg" style="width:100%;max-width:1100px;height:auto;font-family:Arial,sans-serif;">
<rect width="1100" height="360" fill="white"/>
<g transform="translate(70,30)">
<line x1="0" y1="200.0" x2="1010" y2="200.0" stroke="#eee" stroke-width="1"/>
<text x="-8" y="204.0" text-anchor="end" font-size="10" fill="#666">0.00</text>
<line x1="0" y1="160.0" x2="1010" y2="160.0" stroke="#eee" stroke-width="1"/>
<text x="-8" y="164.0" text-anchor="end" font-size="10" fill="#666">0.53</text>
<line x1="0" y1="120.0" x2="1010" y2="120.0" stroke="#eee" stroke-width="1"/>
<text x="-8" y="124.0" text-anchor="end" font-size="10" fill="#666">1.06</text>
<line x1="0" y1="80.0" x2="1010" y2="80.0" stroke="#eee" stroke-width="1"/>
<text x="-8" y="84.0" text-anchor="end" font-size="10" fill="#666">1.59</text>
<line x1="0" y1="40.0" x2="1010" y2="40.0" stroke="#eee" stroke-width="1"/>
<text x="-8" y="44.0" text-anchor="end" font-size="10" fill="#666">2.12</text>
<line x1="0" y1="0.0" x2="1010" y2="0.0" stroke="#eee" stroke-width="1"/>
<text x="-8" y="4.0" text-anchor="end" font-size="10" fill="#666">2.65</text>
<text x="-50" y="100.0" text-anchor="middle" font-size="11" fill="#333" transform="rotate(-90,-50,100.0)">Mean R² (×10⁻³)</text>
<rect x="5.61" y="175.51" width="22.44" height="24.49" fill="#81C784" opacity="0.85"><title>Partner Identity: 0.000324</title></rect>
<line x1="16.83" y1="184.11" x2="16.83" y2="164.94" stroke="#333" stroke-width="1"/>
<line x1="14.83" y1="184.11" x2="18.83" y2="184.11" stroke="#333" stroke-width="1"/>
<line x1="14.83" y1="164.94" x2="18.83" y2="164.94" stroke="#333" stroke-width="1"/>
<rect x="28.06" y="181.10" width="22.44" height="18.90" fill="#BDBDBD" opacity="0.85"><title>Control: 0.000250</title></rect>
<line x1="39.28" y1="185.64" x2="39.28" y2="177.79" stroke="#333" stroke-width="1"/>
<line x1="37.28" y1="185.64" x2="41.28" y2="185.64" stroke="#333" stroke-width="1"/>
<line x1="37.28" y1="177.79" x2="41.28" y2="177.79" stroke="#333" stroke-width="1"/>
<text x="28.06" y="214" text-anchor="end" font-size="9" fill="#2196F3" transform="rotate(-45,28.06,214)">Phenomenology</text>
<rect x="61.72" y="173.22" width="22.44" height="26.78" fill="#81C784" opacity="0.85"><title>Partner Identity: 0.000355</title></rect>
<line x1="72.94" y1="179.89" x2="72.94" y2="164.31" stroke="#333" stroke-width="1"/>
<line x1="70.94" y1="179.89" x2="74.94" y2="179.89" stroke="#333" stroke-width="1"/>
<line x1="70.94" y1="164.31" x2="74.94" y2="164.31" stroke="#333" stroke-width="1"/>
<rect x="84.17" y="186.74" width="22.44" height="13.26" fill="#BDBDBD" opacity="0.85"><title>Control: 0.000176</title></rect>
<line x1="95.39" y1="189.03" x2="95.39" y2="183.10" stroke="#333" stroke-width="1"/>
<line x1="93.39" y1="189.03" x2="97.39" y2="189.03" stroke="#333" stroke-width="1"/>
<line x1="93.39" y1="183.10" x2="97.39" y2="183.10" stroke="#333" stroke-width="1"/>
<text x="84.17" y="214" text-anchor="end" font-size="9" fill="#2196F3" transform="rotate(-45,84.17,214)">Emotions</text>
<rect x="117.83" y="163.32" width="22.44" height="36.68" fill="#81C784" opacity="0.85"><title>Partner Identity: 0.000486</title></rect>
<line x1="129.06" y1="180.16" x2="129.06" y2="147.07" stroke="#333" stroke-width="1"/>
<line x1="127.06" y1="180.16" x2="131.06" y2="180.16" stroke="#333" stroke-width="1"/>
<line x1="127.06" y1="147.07" x2="131.06" y2="147.07" stroke="#333" stroke-width="1"/>
<rect x="140.28" y="189.29" width="22.44" height="10.71" fill="#BDBDBD" opacity="0.85"><title>Control: 0.000142</title></rect>
<line x1="151.50" y1="191.75" x2="151.50" y2="184.55" stroke="#333" stroke-width="1"/>
<line x1="149.50" y1="191.75" x2="153.50" y2="191.75" stroke="#333" stroke-width="1"/>
<line x1="149.50" y1="184.55" x2="153.50" y2="184.55" stroke="#333" stroke-width="1"/>
<text x="140.28" y="214" text-anchor="end" font-size="9" fill="#2196F3" transform="rotate(-45,140.28,214)">Agency</text>
<rect x="173.94" y="159.22" width="22.44" height="40.78" fill="#81C784" opacity="0.85"><title>Partner Identity: 0.000540</title></rect>
<line x1="185.17" y1="177.58" x2="185.17" y2="143.31" stroke="#333" stroke-width="1"/>
<line x1="183.17" y1="177.58" x2="187.17" y2="177.58" stroke="#333" stroke-width="1"/>
<line x1="183.17" y1="143.31" x2="187.17" y2="143.31" stroke="#333" stroke-width="1"/>
<rect x="196.39" y="185.59" width="22.44" height="14.41" fill="#BDBDBD" opacity="0.85"><title>Control: 0.000191</title></rect>
<line x1="207.61" y1="188.58" x2="207.61" y2="182.87" stroke="#333" stroke-width="1"/>
<line x1="205.61" y1="188.58" x2="209.61" y2="188.58" stroke="#333" stroke-width="1"/>
<line x1="205.61" y1="182.87" x2="209.61" y2="182.87" stroke="#333" stroke-width="1"/>
<text x="196.39" y="214" text-anchor="end" font-size="9" fill="#2196F3" transform="rotate(-45,196.39,214)">Intentions</text>
<rect x="230.06" y="166.42" width="22.44" height="33.58" fill="#81C784" opacity="0.85"><title>Partner Identity: 0.000445</title></rect>
<line x1="241.28" y1="175.67" x2="241.28" y2="149.79" stroke="#333" stroke-width="1"/>
<line x1="239.28" y1="175.67" x2="243.28" y2="175.67" stroke="#333" stroke-width="1"/>
<line x1="239.28" y1="149.79" x2="243.28" y2="149.79" stroke="#333" stroke-width="1"/>
<rect x="252.50" y="181.29" width="22.44" height="18.71" fill="#BDBDBD" opacity="0.85"><title>Control: 0.000248</title></rect>
<line x1="263.72" y1="186.50" x2="263.72" y2="177.76" stroke="#333" stroke-width="1"/>
<line x1="261.72" y1="186.50" x2="265.72" y2="186.50" stroke="#333" stroke-width="1"/>
<line x1="261.72" y1="177.76" x2="265.72" y2="177.76" stroke="#333" stroke-width="1"/>
<text x="252.50" y="214" text-anchor="end" font-size="9" fill="#2196F3" transform="rotate(-45,252.50,214)">Prediction</text>
<rect x="286.17" y="155.49" width="22.44" height="44.51" fill="#81C784" opacity="0.85"><title>Partner Identity: 0.000589</title></rect>
<line x1="297.39" y1="170.88" x2="297.39" y2="142.14" stroke="#333" stroke-width="1"/>
<line x1="295.39" y1="170.88" x2="299.39" y2="170.88" stroke="#333" stroke-width="1"/>
<line x1="295.39" y1="142.14" x2="299.39" y2="142.14" stroke="#333" stroke-width="1"/>
<rect x="308.61" y="180.10" width="22.44" height="19.90" fill="#BDBDBD" opacity="0.85"><title>Control: 0.000263</title></rect>
<line x1="319.83" y1="184.54" x2="319.83" y2="177.56" stroke="#333" stroke-width="1"/>
<line x1="317.83" y1="184.54" x2="321.83" y2="184.54" stroke="#333" stroke-width="1"/>
<line x1="317.83" y1="177.56" x2="321.83" y2="177.56" stroke="#333" stroke-width="1"/>
<text x="308.61" y="214" text-anchor="end" font-size="9" fill="#2196F3" transform="rotate(-45,308.61,214)">Cognitive</text>
<rect x="342.28" y="149.90" width="22.44" height="50.10" fill="#81C784" opacity="0.85"><title>Partner Identity: 0.000663</title></rect>
<line x1="353.50" y1="171.92" x2="353.50" y2="121.58" stroke="#333" stroke-width="1"/>
<line x1="351.50" y1="171.92" x2="355.50" y2="171.92" stroke="#333" stroke-width="1"/>
<line x1="351.50" y1="121.58" x2="355.50" y2="121.58" stroke="#333" stroke-width="1"/>
<rect x="364.72" y="184.77" width="22.44" height="15.23" fill="#BDBDBD" opacity="0.85"><title>Control: 0.000202</title></rect>
<line x1="375.94" y1="188.63" x2="375.94" y2="179.88" stroke="#333" stroke-width="1"/>
<line x1="373.94" y1="188.63" x2="377.94" y2="188.63" stroke="#333" stroke-width="1"/>
<line x1="373.94" y1="179.88" x2="377.94" y2="179.88" stroke="#333" stroke-width="1"/>
<text x="364.72" y="214" text-anchor="end" font-size="9" fill="#2196F3" transform="rotate(-45,364.72,214)">Social</text>
<rect x="398.39" y="150.47" width="22.44" height="49.53" fill="#81C784" opacity="0.85"><title>Partner Identity: 0.000656</title></rect>
<line x1="409.61" y1="165.21" x2="409.61" y2="136.87" stroke="#333" stroke-width="1"/>
<line x1="407.61" y1="165.21" x2="411.61" y2="165.21" stroke="#333" stroke-width="1"/>
<line x1="407.61" y1="136.87" x2="411.61" y2="136.87" stroke="#333" stroke-width="1"/>
<rect x="420.83" y="179.99" width="22.44" height="20.01" fill="#BDBDBD" opacity="0.85"><title>Control: 0.000265</title></rect>
<line x1="432.06" y1="183.87" x2="432.06" y2="177.26" stroke="#333" stroke-width="1"/>
<line x1="430.06" y1="183.87" x2="434.06" y2="183.87" stroke="#333" stroke-width="1"/>
<line x1="430.06" y1="177.26" x2="434.06" y2="177.26" stroke="#333" stroke-width="1"/>
<text x="420.83" y="214" text-anchor="end" font-size="9" fill="#2196F3" transform="rotate(-45,420.83,214)">Attention</text>
<rect x="454.50" y="181.20" width="22.44" height="18.80" fill="#81C784" opacity="0.85"><title>Partner Identity: 0.000249</title></rect>
<line x1="465.72" y1="189.09" x2="465.72" y2="171.27" stroke="#333" stroke-width="1"/>
<line x1="463.72" y1="189.09" x2="467.72" y2="189.09" stroke="#333" stroke-width="1"/>
<line x1="463.72" y1="171.27" x2="467.72" y2="171.27" stroke="#333" stroke-width="1"/>
<rect x="476.94" y="184.66" width="22.44" height="15.34" fill="#BDBDBD" opacity="0.85"><title>Control: 0.000203</title></rect>
<line x1="488.17" y1="188.24" x2="488.17" y2="179.99" stroke="#333" stroke-width="1"/>
<line x1="486.17" y1="188.24" x2="490.17" y2="188.24" stroke="#333" stroke-width="1"/>
<line x1="486.17" y1="179.99" x2="490.17" y2="179.99" stroke="#333" stroke-width="1"/>
<text x="476.94" y="214" text-anchor="end" font-size="9" fill="#4CAF50" transform="rotate(-45,476.94,214)">Embodiment</text>
<rect x="510.61" y="171.33" width="22.44" height="28.67" fill="#81C784" opacity="0.85"><title>Partner Identity: 0.000380</title></rect>
<line x1="521.83" y1="182.58" x2="521.83" y2="145.71" stroke="#333" stroke-width="1"/>
<line x1="519.83" y1="182.58" x2="523.83" y2="182.58" stroke="#333" stroke-width="1"/>
<line x1="519.83" y1="145.71" x2="523.83" y2="145.71" stroke="#333" stroke-width="1"/>
<rect x="533.06" y="188.57" width="22.44" height="11.43" fill="#BDBDBD" opacity="0.85"><title>Control: 0.000151</title></rect>
<line x1="544.28" y1="190.74" x2="544.28" y2="182.10" stroke="#333" stroke-width="1"/>
<line x1="542.28" y1="190.74" x2="546.28" y2="190.74" stroke="#333" stroke-width="1"/>
<line x1="542.28" y1="182.10" x2="546.28" y2="182.10" stroke="#333" stroke-width="1"/>
<text x="533.06" y="214" text-anchor="end" font-size="9" fill="#4CAF50" transform="rotate(-45,533.06,214)">Roles</text>
<rect x="566.72" y="171.50" width="22.44" height="28.50" fill="#81C784" opacity="0.85"><title>Partner Identity: 0.000377</title></rect>
<line x1="577.94" y1="184.42" x2="577.94" y2="158.34" stroke="#333" stroke-width="1"/>
<line x1="575.94" y1="184.42" x2="579.94" y2="184.42" stroke="#333" stroke-width="1"/>
<line x1="575.94" y1="158.34" x2="579.94" y2="158.34" stroke="#333" stroke-width="1"/>
<rect x="589.17" y="183.42" width="22.44" height="16.58" fill="#BDBDBD" opacity="0.85"><title>Control: 0.000219</title></rect>
<line x1="600.39" y1="187.33" x2="600.39" y2="175.94" stroke="#333" stroke-width="1"/>
<line x1="598.39" y1="187.33" x2="602.39" y2="187.33" stroke="#333" stroke-width="1"/>
<line x1="598.39" y1="175.94" x2="602.39" y2="175.94" stroke="#333" stroke-width="1"/>
<text x="589.17" y="214" text-anchor="end" font-size="9" fill="#4CAF50" transform="rotate(-45,589.17,214)">Animacy</text>
<rect x="622.83" y="174.15" width="22.44" height="25.85" fill="#81C784" opacity="0.85"><title>Partner Identity: 0.000342</title></rect>
<line x1="634.06" y1="184.26" x2="634.06" y2="165.13" stroke="#333" stroke-width="1"/>
<line x1="632.06" y1="184.26" x2="636.06" y2="184.26" stroke="#333" stroke-width="1"/>
<line x1="632.06" y1="165.13" x2="636.06" y2="165.13" stroke="#333" stroke-width="1"/>
<rect x="645.28" y="181.80" width="22.44" height="18.20" fill="#BDBDBD" opacity="0.85"><title>Control: 0.000241</title></rect>
<line x1="656.50" y1="186.18" x2="656.50" y2="178.05" stroke="#333" stroke-width="1"/>
<line x1="654.50" y1="186.18" x2="658.50" y2="186.18" stroke="#333" stroke-width="1"/>
<line x1="654.50" y1="178.05" x2="658.50" y2="178.05" stroke="#333" stroke-width="1"/>
<text x="645.28" y="214" text-anchor="end" font-size="9" fill="#FF9800" transform="rotate(-45,645.28,214)">Formality</text>
<rect x="678.94" y="167.17" width="22.44" height="32.83" fill="#81C784" opacity="0.85"><title>Partner Identity: 0.000435</title></rect>
<line x1="690.17" y1="175.32" x2="690.17" y2="159.66" stroke="#333" stroke-width="1"/>
<line x1="688.17" y1="175.32" x2="692.17" y2="175.32" stroke="#333" stroke-width="1"/>
<line x1="688.17" y1="159.66" x2="692.17" y2="159.66" stroke="#333" stroke-width="1"/>
<rect x="701.39" y="178.24" width="22.44" height="21.76" fill="#BDBDBD" opacity="0.85"><title>Control: 0.000288</title></rect>
<line x1="712.61" y1="181.00" x2="712.61" y2="176.68" stroke="#333" stroke-width="1"/>
<line x1="710.61" y1="181.00" x2="714.61" y2="181.00" stroke="#333" stroke-width="1"/>
<line x1="710.61" y1="176.68" x2="714.61" y2="176.68" stroke="#333" stroke-width="1"/>
<text x="701.39" y="214" text-anchor="end" font-size="9" fill="#FF9800" transform="rotate(-45,701.39,214)">Expertise</text>
<rect x="735.06" y="177.24" width="22.44" height="22.76" fill="#81C784" opacity="0.85"><title>Partner Identity: 0.000301</title></rect>
<line x1="746.28" y1="187.18" x2="746.28" y2="165.65" stroke="#333" stroke-width="1"/>
<line x1="744.28" y1="187.18" x2="748.28" y2="187.18" stroke="#333" stroke-width="1"/>
<line x1="744.28" y1="165.65" x2="748.28" y2="165.65" stroke="#333" stroke-width="1"/>
<rect x="757.50" y="182.22" width="22.44" height="17.78" fill="#BDBDBD" opacity="0.85"><title>Control: 0.000235</title></rect>
<line x1="768.72" y1="186.90" x2="768.72" y2="178.56" stroke="#333" stroke-width="1"/>
<line x1="766.72" y1="186.90" x2="770.72" y2="186.90" stroke="#333" stroke-width="1"/>
<line x1="766.72" y1="178.56" x2="770.72" y2="178.56" stroke="#333" stroke-width="1"/>
<text x="757.50" y="214" text-anchor="end" font-size="9" fill="#FF9800" transform="rotate(-45,757.50,214)">Helpfulness</text>
<rect x="791.17" y="169.78" width="22.44" height="30.22" fill="#81C784" opacity="0.85"><title>Partner Identity: 0.000400</title></rect>
<line x1="802.39" y1="188.34" x2="802.39" y2="145.28" stroke="#333" stroke-width="1"/>
<line x1="800.39" y1="188.34" x2="804.39" y2="188.34" stroke="#333" stroke-width="1"/>
<line x1="800.39" y1="145.28" x2="804.39" y2="145.28" stroke="#333" stroke-width="1"/>
<rect x="813.61" y="187.98" width="22.44" height="12.02" fill="#BDBDBD" opacity="0.85"><title>Control: 0.000159</title></rect>
<line x1="824.83" y1="189.28" x2="824.83" y2="175.61" stroke="#333" stroke-width="1"/>
<line x1="822.83" y1="189.28" x2="826.83" y2="189.28" stroke="#333" stroke-width="1"/>
<line x1="822.83" y1="175.61" x2="826.83" y2="175.61" stroke="#333" stroke-width="1"/>
<text x="813.61" y="214" text-anchor="end" font-size="9" fill="#9E9E9E" transform="rotate(-45,813.61,214)">Baseline</text>
<rect x="847.28" y="176.40" width="22.44" height="23.60" fill="#81C784" opacity="0.85"><title>Partner Identity: 0.000313</title></rect>
<line x1="858.50" y1="183.91" x2="858.50" y2="167.63" stroke="#333" stroke-width="1"/>
<line x1="856.50" y1="183.91" x2="860.50" y2="183.91" stroke="#333" stroke-width="1"/>
<line x1="856.50" y1="167.63" x2="860.50" y2="167.63" stroke="#333" stroke-width="1"/>
<rect x="869.72" y="187.60" width="22.44" height="12.40" fill="#BDBDBD" opacity="0.85"><title>Control: 0.000164</title></rect>
<line x1="880.94" y1="189.83" x2="880.94" y2="183.75" stroke="#333" stroke-width="1"/>
<line x1="878.94" y1="189.83" x2="882.94" y2="189.83" stroke="#333" stroke-width="1"/>
<line x1="878.94" y1="183.75" x2="882.94" y2="183.75" stroke="#333" stroke-width="1"/>
<text x="869.72" y="214" text-anchor="end" font-size="9" fill="#9E9E9E" transform="rotate(-45,869.72,214)">Biological</text>
<rect x="903.39" y="175.12" width="22.44" height="24.88" fill="#81C784" opacity="0.85"><title>Partner Identity: 0.000329</title></rect>
<line x1="914.61" y1="187.13" x2="914.61" y2="163.33" stroke="#333" stroke-width="1"/>
<line x1="912.61" y1="187.13" x2="916.61" y2="187.13" stroke="#333" stroke-width="1"/>
<line x1="912.61" y1="163.33" x2="916.61" y2="163.33" stroke="#333" stroke-width="1"/>
<rect x="925.83" y="185.37" width="22.44" height="14.63" fill="#BDBDBD" opacity="0.85"><title>Control: 0.000194</title></rect>
<line x1="937.06" y1="188.68" x2="937.06" y2="181.27" stroke="#333" stroke-width="1"/>
<line x1="935.06" y1="188.68" x2="939.06" y2="188.68" stroke="#333" stroke-width="1"/>
<line x1="935.06" y1="181.27" x2="939.06" y2="181.27" stroke="#333" stroke-width="1"/>
<text x="925.83" y="214" text-anchor="end" font-size="9" fill="#9E9E9E" transform="rotate(-45,925.83,214)">Shapes</text>
<rect x="959.50" y="149.64" width="22.44" height="50.36" fill="#81C784" opacity="0.85"><title>Partner Identity: 0.000667</title></rect>
<line x1="970.72" y1="161.05" x2="970.72" y2="132.28" stroke="#333" stroke-width="1"/>
<line x1="968.72" y1="161.05" x2="972.72" y2="161.05" stroke="#333" stroke-width="1"/>
<line x1="968.72" y1="132.28" x2="972.72" y2="132.28" stroke="#333" stroke-width="1"/>
<rect x="981.94" y="185.69" width="22.44" height="14.31" fill="#BDBDBD" opacity="0.85"><title>Control: 0.000189</title></rect>
<line x1="993.17" y1="187.57" x2="993.17" y2="183.17" stroke="#333" stroke-width="1"/>
<line x1="991.17" y1="187.57" x2="995.17" y2="187.57" stroke="#333" stroke-width="1"/>
<line x1="991.17" y1="183.17" x2="995.17" y2="183.17" stroke="#333" stroke-width="1"/>
<text x="981.94" y="214" text-anchor="end" font-size="9" fill="#00BCD4" transform="rotate(-45,981.94,214)">SysPrompt (labeled)</text>
<line x1="0" y1="200" x2="1010" y2="200" stroke="#333"/>
<line x1="0" y1="0" x2="0" y2="200" stroke="#333"/>
</g>
<rect x="70.0" y="324" width="10" height="10" fill="#81C784"/>
<text x="84.0" y="332" font-size="8" fill="#333">Partner Identity</text>
<rect x="272.0" y="324" width="10" height="10" fill="#BDBDBD"/>
<text x="286.0" y="332" font-size="8" fill="#333">Control</text>
</svg>