<svg viewBox="0 0 1100 360" xmlns="http://www.w3.org/2000/svg" style="width:100%;max-width:1100px;height:auto;font-family:Arial,sans-serif;">
<rect width="1100" height="360" fill="white"/>
<g transform="translate(70,30)">
<line x1="0" y1="200.0" x2="1010" y2="200.0" stroke="#eee" stroke-width="1"/>
<text x="-8" y="204.0" text-anchor="end" font-size="10" fill="#666">0.00</text>
<line x1="0" y1="160.0" x2="1010" y2="160.0" stroke="#eee" stroke-width="1"/>
<text x="-8" y="164.0" text-anchor="end" font-size="10" fill="#666">0.53</text>
<line x1="0" y1="120.0" x2="1010" y2="120.0" stroke="#eee" stroke-width="1"/>
<text x="-8" y="124.0" text-anchor="end" font-size="10" fill="#666">1.06</text>
<line x1="0" y1="80.0" x2="1010" y2="80.0" stroke="#eee" stroke-width="1"/>
<text x="-8" y="84.0" text-anchor="end" font-size="10" fill="#666">1.59</text>
<line x1="0" y1="40.0" x2="1010" y2="40.0" stroke="#eee" stroke-width="1"/>
<text x="-8" y="44.0" text-anchor="end" font-size="10" fill="#666">2.12</text>
<line x1="0" y1="0.0" x2="1010" y2="0.0" stroke="#eee" stroke-width="1"/>
<text x="-8" y="4.0" text-anchor="end" font-size="10" fill="#666">2.65</text>
<text x="-50" y="100.0" text-anchor="middle" font-size="11" fill="#333" transform="rotate(-90,-50,100.0)">Mean R² (×10⁻³)</text>
<rect x="4.21" y="159.05" width="16.83" height="40.95" fill="#2E7D32" opacity="0.85"><title>Partner Identity: 0.000542</title></rect>
<line x1="12.63" y1="174.07" x2="12.63" y2="130.67" stroke="#333" stroke-width="1"/>
<line x1="10.63" y1="174.07" x2="14.63" y2="174.07" stroke="#333" stroke-width="1"/>
<line x1="10.63" y1="130.67" x2="14.63" y2="130.67" stroke="#333" stroke-width="1"/>
<rect x="21.04" y="180.81" width="16.83" height="19.19" fill="#616161" opacity="0.85"><title>Control: 0.000254</title></rect>
<line x1="29.46" y1="185.59" x2="29.46" y2="175.17" stroke="#333" stroke-width="1"/>
<line x1="27.46" y1="185.59" x2="31.46" y2="185.59" stroke="#333" stroke-width="1"/>
<line x1="27.46" y1="175.17" x2="31.46" y2="175.17" stroke="#333" stroke-width="1"/>
<text x="21.04" y="214" text-anchor="end" font-size="9" fill="#2196F3" transform="rotate(-45,21.04,214)">Phenomenology</text>
<rect x="46.29" y="159.12" width="16.83" height="40.88" fill="#2E7D32" opacity="0.85"><title>Partner Identity: 0.000541</title></rect>
<line x1="54.71" y1="171.68" x2="54.71" y2="131.44" stroke="#333" stroke-width="1"/>
<line x1="52.71" y1="171.68" x2="56.71" y2="171.68" stroke="#333" stroke-width="1"/>
<line x1="52.71" y1="131.44" x2="56.71" y2="131.44" stroke="#333" stroke-width="1"/>
<rect x="63.13" y="174.14" width="16.83" height="25.86" fill="#616161" opacity="0.85"><title>Control: 0.000342</title></rect>
<line x1="71.54" y1="179.40" x2="71.54" y2="170.23" stroke="#333" stroke-width="1"/>
<line x1="69.54" y1="179.40" x2="73.54" y2="179.40" stroke="#333" stroke-width="1"/>
<line x1="69.54" y1="170.23" x2="73.54" y2="170.23" stroke="#333" stroke-width="1"/>
<text x="63.13" y="214" text-anchor="end" font-size="9" fill="#2196F3" transform="rotate(-45,63.13,214)">Emotions</text>
<rect x="88.38" y="132.72" width="16.83" height="67.28" fill="#2E7D32" opacity="0.85"><title>Partner Identity: 0.000891</title></rect>
<line x1="96.79" y1="159.71" x2="96.79" y2="92.33" stroke="#333" stroke-width="1"/>
<line x1="94.79" y1="159.71" x2="98.79" y2="159.71" stroke="#333" stroke-width="1"/>
<line x1="94.79" y1="92.33" x2="98.79" y2="92.33" stroke="#333" stroke-width="1"/>
<rect x="105.21" y="168.75" width="16.83" height="31.25" fill="#616161" opacity="0.85"><title>Control: 0.000414</title></rect>
<line x1="113.63" y1="176.07" x2="113.63" y2="164.22" stroke="#333" stroke-width="1"/>
<line x1="111.63" y1="176.07" x2="115.63" y2="176.07" stroke="#333" stroke-width="1"/>
<line x1="111.63" y1="164.22" x2="115.63" y2="164.22" stroke="#333" stroke-width="1"/>
<text x="105.21" y="214" text-anchor="end" font-size="9" fill="#2196F3" transform="rotate(-45,105.21,214)">Agency</text>
<rect x="130.46" y="118.96" width="16.83" height="81.04" fill="#2E7D32" opacity="0.85"><title>Partner Identity: 0.001073</title></rect>
<line x1="138.88" y1="146.94" x2="138.88" y2="80.53" stroke="#333" stroke-width="1"/>
<line x1="136.88" y1="146.94" x2="140.88" y2="146.94" stroke="#333" stroke-width="1"/>
<line x1="136.88" y1="80.53" x2="140.88" y2="80.53" stroke="#333" stroke-width="1"/>
<rect x="147.29" y="172.69" width="16.83" height="27.31" fill="#616161" opacity="0.85"><title>Control: 0.000362</title></rect>
<line x1="155.71" y1="177.15" x2="155.71" y2="167.99" stroke="#333" stroke-width="1"/>
<line x1="153.71" y1="177.15" x2="157.71" y2="177.15" stroke="#333" stroke-width="1"/>
<line x1="153.71" y1="167.99" x2="157.71" y2="167.99" stroke="#333" stroke-width="1"/>
<text x="147.29" y="214" text-anchor="end" font-size="9" fill="#2196F3" transform="rotate(-45,147.29,214)">Intentions</text>
<rect x="172.54" y="129.31" width="16.83" height="70.69" fill="#2E7D32" opacity="0.85"><title>Partner Identity: 0.000936</title></rect>
<line x1="180.96" y1="153.43" x2="180.96" y2="84.61" stroke="#333" stroke-width="1"/>
<line x1="178.96" y1="153.43" x2="182.96" y2="153.43" stroke="#333" stroke-width="1"/>
<line x1="178.96" y1="84.61" x2="182.96" y2="84.61" stroke="#333" stroke-width="1"/>
<rect x="189.38" y="175.31" width="16.83" height="24.69" fill="#616161" opacity="0.85"><title>Control: 0.000327</title></rect>
<line x1="197.79" y1="181.12" x2="197.79" y2="171.22" stroke="#333" stroke-width="1"/>
<line x1="195.79" y1="181.12" x2="199.79" y2="181.12" stroke="#333" stroke-width="1"/>
<line x1="195.79" y1="171.22" x2="199.79" y2="171.22" stroke="#333" stroke-width="1"/>
<text x="189.38" y="214" text-anchor="end" font-size="9" fill="#2196F3" transform="rotate(-45,189.38,214)">Prediction</text>
<rect x="214.63" y="105.21" width="16.83" height="94.79" fill="#2E7D32" opacity="0.85"><title>Partner Identity: 0.001255</title></rect>
<line x1="223.04" y1="130.63" x2="223.04" y2="70.94" stroke="#333" stroke-width="1"/>
<line x1="221.04" y1="130.63" x2="225.04" y2="130.63" stroke="#333" stroke-width="1"/>
<line x1="221.04" y1="70.94" x2="225.04" y2="70.94" stroke="#333" stroke-width="1"/>
<rect x="231.46" y="180.76" width="16.83" height="19.24" fill="#616161" opacity="0.85"><title>Control: 0.000255</title></rect>
<line x1="239.88" y1="184.25" x2="239.88" y2="175.43" stroke="#333" stroke-width="1"/>
<line x1="237.88" y1="184.25" x2="241.88" y2="184.25" stroke="#333" stroke-width="1"/>
<line x1="237.88" y1="175.43" x2="241.88" y2="175.43" stroke="#333" stroke-width="1"/>
<text x="231.46" y="214" text-anchor="end" font-size="9" fill="#2196F3" transform="rotate(-45,231.46,214)">Cognitive</text>
<rect x="256.71" y="104.20" width="16.83" height="95.80" fill="#2E7D32" opacity="0.85"><title>Partner Identity: 0.001269</title></rect>
<line x1="265.12" y1="142.77" x2="265.12" y2="45.49" stroke="#333" stroke-width="1"/>
<line x1="263.12" y1="142.77" x2="267.12" y2="142.77" stroke="#333" stroke-width="1"/>
<line x1="263.12" y1="45.49" x2="267.12" y2="45.49" stroke="#333" stroke-width="1"/>
<rect x="273.54" y="177.91" width="16.83" height="22.09" fill="#616161" opacity="0.85"><title>Control: 0.000293</title></rect>
<line x1="281.96" y1="184.32" x2="281.96" y2="173.47" stroke="#333" stroke-width="1"/>
<line x1="279.96" y1="184.32" x2="283.96" y2="184.32" stroke="#333" stroke-width="1"/>
<line x1="279.96" y1="173.47" x2="283.96" y2="173.47" stroke="#333" stroke-width="1"/>
<text x="273.54" y="214" text-anchor="end" font-size="9" fill="#2196F3" transform="rotate(-45,273.54,214)">Social</text>
<rect x="298.79" y="92.00" width="16.83" height="108.00" fill="#2E7D32" opacity="0.85"><title>Partner Identity: 0.001430</title></rect>
<line x1="307.21" y1="123.30" x2="307.21" y2="53.05" stroke="#333" stroke-width="1"/>
<line x1="305.21" y1="123.30" x2="309.21" y2="123.30" stroke="#333" stroke-width="1"/>
<line x1="305.21" y1="53.05" x2="309.21" y2="53.05" stroke="#333" stroke-width="1"/>
<rect x="315.62" y="180.62" width="16.83" height="19.38" fill="#616161" opacity="0.85"><title>Control: 0.000257</title></rect>
<line x1="324.04" y1="183.74" x2="324.04" y2="176.58" stroke="#333" stroke-width="1"/>
<line x1="322.04" y1="183.74" x2="326.04" y2="183.74" stroke="#333" stroke-width="1"/>
<line x1="322.04" y1="176.58" x2="326.04" y2="176.58" stroke="#333" stroke-width="1"/>
<text x="315.62" y="214" text-anchor="end" font-size="9" fill="#2196F3" transform="rotate(-45,315.62,214)">Attention</text>
<rect x="340.88" y="123.02" width="16.83" height="76.98" fill="#2E7D32" opacity="0.85"><title>Partner Identity: 0.001019</title></rect>
<line x1="349.29" y1="150.02" x2="349.29" y2="83.89" stroke="#333" stroke-width="1"/>
<line x1="347.29" y1="150.02" x2="351.29" y2="150.02" stroke="#333" stroke-width="1"/>
<line x1="347.29" y1="83.89" x2="351.29" y2="83.89" stroke="#333" stroke-width="1"/>
<rect x="357.71" y="173.49" width="16.83" height="26.51" fill="#616161" opacity="0.85"><title>Control: 0.000351</title></rect>
<line x1="366.12" y1="178.89" x2="366.12" y2="166.44" stroke="#333" stroke-width="1"/>
<line x1="364.12" y1="178.89" x2="368.12" y2="178.89" stroke="#333" stroke-width="1"/>
<line x1="364.12" y1="166.44" x2="368.12" y2="166.44" stroke="#333" stroke-width="1"/>
<text x="357.71" y="214" text-anchor="end" font-size="9" fill="#2196F3" transform="rotate(-45,357.71,214)">Beliefs</text>
<rect x="382.96" y="140.70" width="16.83" height="59.30" fill="#2E7D32" opacity="0.85"><title>Partner Identity: 0.000785</title></rect>
<line x1="391.38" y1="156.30" x2="391.38" y2="108.52" stroke="#333" stroke-width="1"/>
<line x1="389.38" y1="156.30" x2="393.38" y2="156.30" stroke="#333" stroke-width="1"/>
<line x1="389.38" y1="108.52" x2="393.38" y2="108.52" stroke="#333" stroke-width="1"/>
<rect x="399.79" y="172.85" width="16.83" height="27.15" fill="#616161" opacity="0.85"><title>Control: 0.000360</title></rect>
<line x1="408.21" y1="177.12" x2="408.21" y2="167.77" stroke="#333" stroke-width="1"/>
<line x1="406.21" y1="177.12" x2="410.21" y2="177.12" stroke="#333" stroke-width="1"/>
<line x1="406.21" y1="167.77" x2="410.21" y2="167.77" stroke="#333" stroke-width="1"/>
<text x="399.79" y="214" text-anchor="end" font-size="9" fill="#2196F3" transform="rotate(-45,399.79,214)">Desires</text>
<rect x="425.04" y="112.07" width="16.83" height="87.93" fill="#2E7D32" opacity="0.85"><title>Partner Identity: 0.001164</title></rect>
<line x1="433.46" y1="143.94" x2="433.46" y2="64.12" stroke="#333" stroke-width="1"/>
<line x1="431.46" y1="143.94" x2="435.46" y2="143.94" stroke="#333" stroke-width="1"/>
<line x1="431.46" y1="64.12" x2="435.46" y2="64.12" stroke="#333" stroke-width="1"/>
<rect x="441.88" y="178.13" width="16.83" height="21.87" fill="#616161" opacity="0.85"><title>Control: 0.000290</title></rect>
<line x1="450.29" y1="183.21" x2="450.29" y2="173.73" stroke="#333" stroke-width="1"/>
<line x1="448.29" y1="183.21" x2="452.29" y2="183.21" stroke="#333" stroke-width="1"/>
<line x1="448.29" y1="173.73" x2="452.29" y2="173.73" stroke="#333" stroke-width="1"/>
<text x="441.88" y="214" text-anchor="end" font-size="9" fill="#2196F3" transform="rotate(-45,441.88,214)">Goals</text>
<rect x="467.12" y="176.35" width="16.83" height="23.65" fill="#2E7D32" opacity="0.85"><title>Partner Identity: 0.000313</title></rect>
<line x1="475.54" y1="183.64" x2="475.54" y2="155.37" stroke="#333" stroke-width="1"/>
<line x1="473.54" y1="183.64" x2="477.54" y2="183.64" stroke="#333" stroke-width="1"/>
<line x1="473.54" y1="155.37" x2="477.54" y2="155.37" stroke="#333" stroke-width="1"/>
<rect x="483.96" y="179.88" width="16.83" height="20.12" fill="#616161" opacity="0.85"><title>Control: 0.000266</title></rect>
<line x1="492.38" y1="184.21" x2="492.38" y2="173.65" stroke="#333" stroke-width="1"/>
<line x1="490.38" y1="184.21" x2="494.38" y2="184.21" stroke="#333" stroke-width="1"/>
<line x1="490.38" y1="173.65" x2="494.38" y2="173.65" stroke="#333" stroke-width="1"/>
<text x="483.96" y="214" text-anchor="end" font-size="9" fill="#4CAF50" transform="rotate(-45,483.96,214)">Embodiment</text>
<rect x="509.21" y="155.93" width="16.83" height="44.07" fill="#2E7D32" opacity="0.85"><title>Partner Identity: 0.000584</title></rect>
<line x1="517.62" y1="173.28" x2="517.62" y2="104.62" stroke="#333" stroke-width="1"/>
<line x1="515.62" y1="173.28" x2="519.62" y2="173.28" stroke="#333" stroke-width="1"/>
<line x1="515.62" y1="104.62" x2="519.62" y2="104.62" stroke="#333" stroke-width="1"/>
<rect x="526.04" y="177.32" width="16.83" height="22.68" fill="#616161" opacity="0.85"><title>Control: 0.000300</title></rect>
<line x1="534.46" y1="183.73" x2="534.46" y2="171.66" stroke="#333" stroke-width="1"/>
<line x1="532.46" y1="183.73" x2="536.46" y2="183.73" stroke="#333" stroke-width="1"/>
<line x1="532.46" y1="171.66" x2="536.46" y2="171.66" stroke="#333" stroke-width="1"/>
<text x="526.04" y="214" text-anchor="end" font-size="9" fill="#4CAF50" transform="rotate(-45,526.04,214)">Roles</text>
<rect x="551.29" y="157.24" width="16.83" height="42.76" fill="#2E7D32" opacity="0.85"><title>Partner Identity: 0.000566</title></rect>
<line x1="559.71" y1="180.55" x2="559.71" y2="149.53" stroke="#333" stroke-width="1"/>
<line x1="557.71" y1="180.55" x2="561.71" y2="180.55" stroke="#333" stroke-width="1"/>
<line x1="557.71" y1="149.53" x2="561.71" y2="149.53" stroke="#333" stroke-width="1"/>
<rect x="568.13" y="181.31" width="16.83" height="18.69" fill="#616161" opacity="0.85"><title>Control: 0.000247</title></rect>
<line x1="576.54" y1="185.71" x2="576.54" y2="177.12" stroke="#333" stroke-width="1"/>
<line x1="574.54" y1="185.71" x2="578.54" y2="185.71" stroke="#333" stroke-width="1"/>
<line x1="574.54" y1="177.12" x2="578.54" y2="177.12" stroke="#333" stroke-width="1"/>
<text x="568.13" y="214" text-anchor="end" font-size="9" fill="#4CAF50" transform="rotate(-45,568.13,214)">Animacy</text>
<rect x="593.38" y="174.25" width="16.83" height="25.75" fill="#2E7D32" opacity="0.85"><title>Partner Identity: 0.000341</title></rect>
<line x1="601.79" y1="182.84" x2="601.79" y2="162.33" stroke="#333" stroke-width="1"/>
<line x1="599.79" y1="182.84" x2="603.79" y2="182.84" stroke="#333" stroke-width="1"/>
<line x1="599.79" y1="162.33" x2="603.79" y2="162.33" stroke="#333" stroke-width="1"/>
<rect x="610.21" y="182.84" width="16.83" height="17.16" fill="#616161" opacity="0.85"><title>Control: 0.000227</title></rect>
<line x1="618.63" y1="187.19" x2="618.63" y2="178.75" stroke="#333" stroke-width="1"/>
<line x1="616.63" y1="187.19" x2="620.63" y2="187.19" stroke="#333" stroke-width="1"/>
<line x1="616.63" y1="178.75" x2="620.63" y2="178.75" stroke="#333" stroke-width="1"/>
<text x="610.21" y="214" text-anchor="end" font-size="9" fill="#FF9800" transform="rotate(-45,610.21,214)">Formality</text>
<rect x="635.46" y="141.10" width="16.83" height="58.90" fill="#2E7D32" opacity="0.85"><title>Partner Identity: 0.000780</title></rect>
<line x1="643.88" y1="164.76" x2="643.88" y2="118.90" stroke="#333" stroke-width="1"/>
<line x1="641.88" y1="164.76" x2="645.88" y2="164.76" stroke="#333" stroke-width="1"/>
<line x1="641.88" y1="118.90" x2="645.88" y2="118.90" stroke="#333" stroke-width="1"/>
<rect x="652.29" y="182.73" width="16.83" height="17.27" fill="#616161" opacity="0.85"><title>Control: 0.000229</title></rect>
<line x1="660.71" y1="185.81" x2="660.71" y2="179.23" stroke="#333" stroke-width="1"/>
<line x1="658.71" y1="185.81" x2="662.71" y2="185.81" stroke="#333" stroke-width="1"/>
<line x1="658.71" y1="179.23" x2="662.71" y2="179.23" stroke="#333" stroke-width="1"/>
<text x="652.29" y="214" text-anchor="end" font-size="9" fill="#FF9800" transform="rotate(-45,652.29,214)">Expertise</text>
<rect x="677.54" y="175.27" width="16.83" height="24.73" fill="#2E7D32" opacity="0.85"><title>Partner Identity: 0.000327</title></rect>
<line x1="685.96" y1="186.82" x2="685.96" y2="156.16" stroke="#333" stroke-width="1"/>
<line x1="683.96" y1="186.82" x2="687.96" y2="186.82" stroke="#333" stroke-width="1"/>
<line x1="683.96" y1="156.16" x2="687.96" y2="156.16" stroke="#333" stroke-width="1"/>
<rect x="694.38" y="182.47" width="16.83" height="17.53" fill="#616161" opacity="0.85"><title>Control: 0.000232</title></rect>
<line x1="702.79" y1="187.87" x2="702.79" y2="177.09" stroke="#333" stroke-width="1"/>
<line x1="700.79" y1="187.87" x2="704.79" y2="187.87" stroke="#333" stroke-width="1"/>
<line x1="700.79" y1="177.09" x2="704.79" y2="177.09" stroke="#333" stroke-width="1"/>
<text x="694.38" y="214" text-anchor="end" font-size="9" fill="#FF9800" transform="rotate(-45,694.38,214)">Helpfulness</text>
<rect x="719.63" y="83.78" width="16.83" height="116.22" fill="#2E7D32" opacity="0.85"><title>Partner Identity: 0.001539</title></rect>
<line x1="728.04" y1="189.23" x2="728.04" y2="108.18" stroke="#333" stroke-width="1"/>
<line x1="726.04" y1="189.23" x2="730.04" y2="189.23" stroke="#333" stroke-width="1"/>
<line x1="726.04" y1="108.18" x2="730.04" y2="108.18" stroke="#333" stroke-width="1"/>
<rect x="736.46" y="186.85" width="16.83" height="13.15" fill="#616161" opacity="0.85"><title>Control: 0.000174</title></rect>
<line x1="744.88" y1="189.51" x2="744.88" y2="175.20" stroke="#333" stroke-width="1"/>
<line x1="742.88" y1="189.51" x2="746.88" y2="189.51" stroke="#333" stroke-width="1"/>
<line x1="742.88" y1="175.20" x2="746.88" y2="175.20" stroke="#333" stroke-width="1"/>
<text x="736.46" y="214" text-anchor="end" font-size="9" fill="#9E9E9E" transform="rotate(-45,736.46,214)">Baseline</text>
<rect x="761.71" y="164.28" width="16.83" height="35.72" fill="#2E7D32" opacity="0.85"><title>Partner Identity: 0.000473</title></rect>
<line x1="770.12" y1="177.64" x2="770.12" y2="151.18" stroke="#333" stroke-width="1"/>
<line x1="768.12" y1="177.64" x2="772.12" y2="177.64" stroke="#333" stroke-width="1"/>
<line x1="768.12" y1="151.18" x2="772.12" y2="151.18" stroke="#333" stroke-width="1"/>
<rect x="778.54" y="182.48" width="16.83" height="17.52" fill="#616161" opacity="0.85"><title>Control: 0.000232</title></rect>
<line x1="786.96" y1="184.72" x2="786.96" y2="179.69" stroke="#333" stroke-width="1"/>
<line x1="784.96" y1="184.72" x2="788.96" y2="184.72" stroke="#333" stroke-width="1"/>
<line x1="784.96" y1="179.69" x2="788.96" y2="179.69" stroke="#333" stroke-width="1"/>
<text x="778.54" y="214" text-anchor="end" font-size="9" fill="#9E9E9E" transform="rotate(-45,778.54,214)">Biological</text>
<rect x="803.79" y="176.14" width="16.83" height="23.86" fill="#2E7D32" opacity="0.85"><title>Partner Identity: 0.000316</title></rect>
<line x1="812.21" y1="187.42" x2="812.21" y2="162.68" stroke="#333" stroke-width="1"/>
<line x1="810.21" y1="187.42" x2="814.21" y2="187.42" stroke="#333" stroke-width="1"/>
<line x1="810.21" y1="162.68" x2="814.21" y2="162.68" stroke="#333" stroke-width="1"/>
<rect x="820.63" y="184.53" width="16.83" height="15.47" fill="#616161" opacity="0.85"><title>Control: 0.000205</title></rect>
<line x1="829.04" y1="189.86" x2="829.04" y2="180.00" stroke="#333" stroke-width="1"/>
<line x1="827.04" y1="189.86" x2="831.04" y2="189.86" stroke="#333" stroke-width="1"/>
<line x1="827.04" y1="180.00" x2="831.04" y2="180.00" stroke="#333" stroke-width="1"/>
<text x="820.63" y="214" text-anchor="end" font-size="9" fill="#9E9E9E" transform="rotate(-45,820.63,214)">Shapes</text>
<rect x="845.88" y="192.92" width="16.83" height="7.08" fill="#2E7D32" opacity="0.85"><title>Partner Identity: 0.000094</title></rect>
<line x1="854.29" y1="193.19" x2="854.29" y2="166.06" stroke="#333" stroke-width="1"/>
<line x1="852.29" y1="193.19" x2="856.29" y2="193.19" stroke="#333" stroke-width="1"/>
<line x1="852.29" y1="166.06" x2="856.29" y2="166.06" stroke="#333" stroke-width="1"/>
<rect x="862.71" y="187.20" width="16.83" height="12.80" fill="#616161" opacity="0.85"><title>Control: 0.000170</title></rect>
<line x1="871.13" y1="191.95" x2="871.13" y2="180.95" stroke="#333" stroke-width="1"/>
<line x1="869.13" y1="191.95" x2="873.13" y2="191.95" stroke="#333" stroke-width="1"/>
<line x1="869.13" y1="180.95" x2="873.13" y2="180.95" stroke="#333" stroke-width="1"/>
<text x="862.71" y="214" text-anchor="end" font-size="9" fill="#9E9E9E" transform="rotate(-45,862.71,214)">Granite/Sandstone</text>
<rect x="887.96" y="180.64" width="16.83" height="19.36" fill="#2E7D32" opacity="0.85"><title>Partner Identity: 0.000256</title></rect>
<line x1="896.38" y1="188.16" x2="896.38" y2="161.93" stroke="#333" stroke-width="1"/>
<line x1="894.38" y1="188.16" x2="898.38" y2="188.16" stroke="#333" stroke-width="1"/>
<line x1="894.38" y1="161.93" x2="898.38" y2="161.93" stroke="#333" stroke-width="1"/>
<rect x="904.79" y="185.02" width="16.83" height="14.98" fill="#616161" opacity="0.85"><title>Control: 0.000198</title></rect>
<line x1="913.21" y1="189.12" x2="913.21" y2="178.51" stroke="#333" stroke-width="1"/>
<line x1="911.21" y1="189.12" x2="915.21" y2="189.12" stroke="#333" stroke-width="1"/>
<line x1="911.21" y1="178.51" x2="915.21" y2="178.51" stroke="#333" stroke-width="1"/>
<text x="904.79" y="214" text-anchor="end" font-size="9" fill="#9E9E9E" transform="rotate(-45,904.79,214)">Squares/Triangles</text>
<rect x="930.04" y="187.75" width="16.83" height="12.25" fill="#2E7D32" opacity="0.85"><title>Partner Identity: 0.000162</title></rect>
<line x1="938.46" y1="189.80" x2="938.46" y2="164.10" stroke="#333" stroke-width="1"/>
<line x1="936.46" y1="189.80" x2="940.46" y2="189.80" stroke="#333" stroke-width="1"/>
<line x1="936.46" y1="164.10" x2="940.46" y2="164.10" stroke="#333" stroke-width="1"/>
<rect x="946.88" y="179.66" width="16.83" height="20.34" fill="#616161" opacity="0.85"><title>Control: 0.000269</title></rect>
<line x1="955.29" y1="189.33" x2="955.29" y2="175.75" stroke="#333" stroke-width="1"/>
<line x1="953.29" y1="189.33" x2="957.29" y2="189.33" stroke="#333" stroke-width="1"/>
<line x1="953.29" y1="175.75" x2="957.29" y2="175.75" stroke="#333" stroke-width="1"/>
<text x="946.88" y="214" text-anchor="end" font-size="9" fill="#9E9E9E" transform="rotate(-45,946.88,214)">Horizontal/Vertical</text>
<rect x="972.13" y="100.67" width="16.83" height="99.33" fill="#2E7D32" opacity="0.85"><title>Partner Identity: 0.001315</title></rect>
<line x1="980.54" y1="138.26" x2="980.54" y2="26.84" stroke="#333" stroke-width="1"/>
<line x1="978.54" y1="138.26" x2="982.54" y2="138.26" stroke="#333" stroke-width="1"/>
<line x1="978.54" y1="26.84" x2="982.54" y2="26.84" stroke="#333" stroke-width="1"/>
<rect x="988.96" y="193.92" width="16.83" height="6.08" fill="#616161" opacity="0.85"><title>Control: 0.000080</title></rect>
<line x1="997.38" y1="194.56" x2="997.38" y2="192.56" stroke="#333" stroke-width="1"/>
<line x1="995.38" y1="194.56" x2="999.38" y2="194.56" stroke="#333" stroke-width="1"/>
<line x1="995.38" y1="192.56" x2="999.38" y2="192.56" stroke="#333" stroke-width="1"/>
<text x="988.96" y="214" text-anchor="end" font-size="9" fill="#00BCD4" transform="rotate(-45,988.96,214)">SysPrompt (labeled)</text>
<line x1="0" y1="200" x2="1010" y2="200" stroke="#333"/>
<line x1="0" y1="0" x2="0" y2="200" stroke="#333"/>
</g>
<rect x="70.0" y="324" width="10" height="10" fill="#2E7D32"/>
<text x="84.0" y="332" font-size="8" fill="#333">Partner Identity</text>
<rect x="272.0" y="324" width="10" height="10" fill="#616161"/>
<text x="286.0" y="332" font-size="8" fill="#333">Control</text>
</svg>