<svg viewBox="0 0 1100 360" xmlns="http://www.w3.org/2000/svg" style="width:100%;max-width:1100px;height:auto;font-family:Arial,sans-serif;">
<rect width="1100" height="360" fill="white"/>
<g transform="translate(70,30)">
<line x1="0" y1="200.0" x2="1010" y2="200.0" stroke="#eee" stroke-width="1"/>
<text x="-8" y="204.0" text-anchor="end" font-size="10" fill="#666">0.00</text>
<line x1="0" y1="160.0" x2="1010" y2="160.0" stroke="#eee" stroke-width="1"/>
<text x="-8" y="164.0" text-anchor="end" font-size="10" fill="#666">0.53</text>
<line x1="0" y1="120.0" x2="1010" y2="120.0" stroke="#eee" stroke-width="1"/>
<text x="-8" y="124.0" text-anchor="end" font-size="10" fill="#666">1.06</text>
<line x1="0" y1="80.0" x2="1010" y2="80.0" stroke="#eee" stroke-width="1"/>
<text x="-8" y="84.0" text-anchor="end" font-size="10" fill="#666">1.59</text>
<line x1="0" y1="40.0" x2="1010" y2="40.0" stroke="#eee" stroke-width="1"/>
<text x="-8" y="44.0" text-anchor="end" font-size="10" fill="#666">2.12</text>
<line x1="0" y1="0.0" x2="1010" y2="0.0" stroke="#eee" stroke-width="1"/>
<text x="-8" y="4.0" text-anchor="end" font-size="10" fill="#666">2.65</text>
<text x="-50" y="100.0" text-anchor="middle" font-size="11" fill="#333" transform="rotate(-90,-50,100.0)">Mean R² (×10⁻³)</text>
<rect x="5.61" y="159.05" width="22.44" height="40.95" fill="#2E7D32" opacity="0.85"><title>Partner Identity: 0.000542</title></rect>
<line x1="16.83" y1="174.07" x2="16.83" y2="130.67" stroke="#333" stroke-width="1"/>
<line x1="14.83" y1="174.07" x2="18.83" y2="174.07" stroke="#333" stroke-width="1"/>
<line x1="14.83" y1="130.67" x2="18.83" y2="130.67" stroke="#333" stroke-width="1"/>
<rect x="28.06" y="180.81" width="22.44" height="19.19" fill="#616161" opacity="0.85"><title>Control: 0.000254</title></rect>
<line x1="39.28" y1="185.59" x2="39.28" y2="175.17" stroke="#333" stroke-width="1"/>
<line x1="37.28" y1="185.59" x2="41.28" y2="185.59" stroke="#333" stroke-width="1"/>
<line x1="37.28" y1="175.17" x2="41.28" y2="175.17" stroke="#333" stroke-width="1"/>
<text x="28.06" y="214" text-anchor="end" font-size="9" fill="#2196F3" transform="rotate(-45,28.06,214)">Phenomenology</text>
<rect x="61.72" y="159.12" width="22.44" height="40.88" fill="#2E7D32" opacity="0.85"><title>Partner Identity: 0.000541</title></rect>
<line x1="72.94" y1="171.68" x2="72.94" y2="131.44" stroke="#333" stroke-width="1"/>
<line x1="70.94" y1="171.68" x2="74.94" y2="171.68" stroke="#333" stroke-width="1"/>
<line x1="70.94" y1="131.44" x2="74.94" y2="131.44" stroke="#333" stroke-width="1"/>
<rect x="84.17" y="174.14" width="22.44" height="25.86" fill="#616161" opacity="0.85"><title>Control: 0.000342</title></rect>
<line x1="95.39" y1="179.40" x2="95.39" y2="170.23" stroke="#333" stroke-width="1"/>
<line x1="93.39" y1="179.40" x2="97.39" y2="179.40" stroke="#333" stroke-width="1"/>
<line x1="93.39" y1="170.23" x2="97.39" y2="170.23" stroke="#333" stroke-width="1"/>
<text x="84.17" y="214" text-anchor="end" font-size="9" fill="#2196F3" transform="rotate(-45,84.17,214)">Emotions</text>
<rect x="117.83" y="132.72" width="22.44" height="67.28" fill="#2E7D32" opacity="0.85"><title>Partner Identity: 0.000891</title></rect>
<line x1="129.06" y1="159.71" x2="129.06" y2="92.33" stroke="#333" stroke-width="1"/>
<line x1="127.06" y1="159.71" x2="131.06" y2="159.71" stroke="#333" stroke-width="1"/>
<line x1="127.06" y1="92.33" x2="131.06" y2="92.33" stroke="#333" stroke-width="1"/>
<rect x="140.28" y="168.75" width="22.44" height="31.25" fill="#616161" opacity="0.85"><title>Control: 0.000414</title></rect>
<line x1="151.50" y1="176.07" x2="151.50" y2="164.22" stroke="#333" stroke-width="1"/>
<line x1="149.50" y1="176.07" x2="153.50" y2="176.07" stroke="#333" stroke-width="1"/>
<line x1="149.50" y1="164.22" x2="153.50" y2="164.22" stroke="#333" stroke-width="1"/>
<text x="140.28" y="214" text-anchor="end" font-size="9" fill="#2196F3" transform="rotate(-45,140.28,214)">Agency</text>
<rect x="173.94" y="118.96" width="22.44" height="81.04" fill="#2E7D32" opacity="0.85"><title>Partner Identity: 0.001073</title></rect>
<line x1="185.17" y1="146.94" x2="185.17" y2="80.53" stroke="#333" stroke-width="1"/>
<line x1="183.17" y1="146.94" x2="187.17" y2="146.94" stroke="#333" stroke-width="1"/>
<line x1="183.17" y1="80.53" x2="187.17" y2="80.53" stroke="#333" stroke-width="1"/>
<rect x="196.39" y="172.69" width="22.44" height="27.31" fill="#616161" opacity="0.85"><title>Control: 0.000362</title></rect>
<line x1="207.61" y1="177.15" x2="207.61" y2="167.99" stroke="#333" stroke-width="1"/>
<line x1="205.61" y1="177.15" x2="209.61" y2="177.15" stroke="#333" stroke-width="1"/>
<line x1="205.61" y1="167.99" x2="209.61" y2="167.99" stroke="#333" stroke-width="1"/>
<text x="196.39" y="214" text-anchor="end" font-size="9" fill="#2196F3" transform="rotate(-45,196.39,214)">Intentions</text>
<rect x="230.06" y="129.31" width="22.44" height="70.69" fill="#2E7D32" opacity="0.85"><title>Partner Identity: 0.000936</title></rect>
<line x1="241.28" y1="153.43" x2="241.28" y2="84.61" stroke="#333" stroke-width="1"/>
<line x1="239.28" y1="153.43" x2="243.28" y2="153.43" stroke="#333" stroke-width="1"/>
<line x1="239.28" y1="84.61" x2="243.28" y2="84.61" stroke="#333" stroke-width="1"/>
<rect x="252.50" y="175.31" width="22.44" height="24.69" fill="#616161" opacity="0.85"><title>Control: 0.000327</title></rect>
<line x1="263.72" y1="181.12" x2="263.72" y2="171.22" stroke="#333" stroke-width="1"/>
<line x1="261.72" y1="181.12" x2="265.72" y2="181.12" stroke="#333" stroke-width="1"/>
<line x1="261.72" y1="171.22" x2="265.72" y2="171.22" stroke="#333" stroke-width="1"/>
<text x="252.50" y="214" text-anchor="end" font-size="9" fill="#2196F3" transform="rotate(-45,252.50,214)">Prediction</text>
<rect x="286.17" y="105.21" width="22.44" height="94.79" fill="#2E7D32" opacity="0.85"><title>Partner Identity: 0.001255</title></rect>
<line x1="297.39" y1="130.63" x2="297.39" y2="70.94" stroke="#333" stroke-width="1"/>
<line x1="295.39" y1="130.63" x2="299.39" y2="130.63" stroke="#333" stroke-width="1"/>
<line x1="295.39" y1="70.94" x2="299.39" y2="70.94" stroke="#333" stroke-width="1"/>
<rect x="308.61" y="180.76" width="22.44" height="19.24" fill="#616161" opacity="0.85"><title>Control: 0.000255</title></rect>
<line x1="319.83" y1="184.25" x2="319.83" y2="175.43" stroke="#333" stroke-width="1"/>
<line x1="317.83" y1="184.25" x2="321.83" y2="184.25" stroke="#333" stroke-width="1"/>
<line x1="317.83" y1="175.43" x2="321.83" y2="175.43" stroke="#333" stroke-width="1"/>
<text x="308.61" y="214" text-anchor="end" font-size="9" fill="#2196F3" transform="rotate(-45,308.61,214)">Cognitive</text>
<rect x="342.28" y="104.20" width="22.44" height="95.80" fill="#2E7D32" opacity="0.85"><title>Partner Identity: 0.001269</title></rect>
<line x1="353.50" y1="142.77" x2="353.50" y2="45.49" stroke="#333" stroke-width="1"/>
<line x1="351.50" y1="142.77" x2="355.50" y2="142.77" stroke="#333" stroke-width="1"/>
<line x1="351.50" y1="45.49" x2="355.50" y2="45.49" stroke="#333" stroke-width="1"/>
<rect x="364.72" y="177.91" width="22.44" height="22.09" fill="#616161" opacity="0.85"><title>Control: 0.000293</title></rect>
<line x1="375.94" y1="184.32" x2="375.94" y2="173.47" stroke="#333" stroke-width="1"/>
<line x1="373.94" y1="184.32" x2="377.94" y2="184.32" stroke="#333" stroke-width="1"/>
<line x1="373.94" y1="173.47" x2="377.94" y2="173.47" stroke="#333" stroke-width="1"/>
<text x="364.72" y="214" text-anchor="end" font-size="9" fill="#2196F3" transform="rotate(-45,364.72,214)">Social</text>
<rect x="398.39" y="92.00" width="22.44" height="108.00" fill="#2E7D32" opacity="0.85"><title>Partner Identity: 0.001430</title></rect>
<line x1="409.61" y1="123.30" x2="409.61" y2="53.05" stroke="#333" stroke-width="1"/>
<line x1="407.61" y1="123.30" x2="411.61" y2="123.30" stroke="#333" stroke-width="1"/>
<line x1="407.61" y1="53.05" x2="411.61" y2="53.05" stroke="#333" stroke-width="1"/>
<rect x="420.83" y="180.62" width="22.44" height="19.38" fill="#616161" opacity="0.85"><title>Control: 0.000257</title></rect>
<line x1="432.06" y1="183.74" x2="432.06" y2="176.58" stroke="#333" stroke-width="1"/>
<line x1="430.06" y1="183.74" x2="434.06" y2="183.74" stroke="#333" stroke-width="1"/>
<line x1="430.06" y1="176.58" x2="434.06" y2="176.58" stroke="#333" stroke-width="1"/>
<text x="420.83" y="214" text-anchor="end" font-size="9" fill="#2196F3" transform="rotate(-45,420.83,214)">Attention</text>
<rect x="454.50" y="176.35" width="22.44" height="23.65" fill="#2E7D32" opacity="0.85"><title>Partner Identity: 0.000313</title></rect>
<line x1="465.72" y1="183.64" x2="465.72" y2="155.37" stroke="#333" stroke-width="1"/>
<line x1="463.72" y1="183.64" x2="467.72" y2="183.64" stroke="#333" stroke-width="1"/>
<line x1="463.72" y1="155.37" x2="467.72" y2="155.37" stroke="#333" stroke-width="1"/>
<rect x="476.94" y="179.88" width="22.44" height="20.12" fill="#616161" opacity="0.85"><title>Control: 0.000266</title></rect>
<line x1="488.17" y1="184.21" x2="488.17" y2="173.65" stroke="#333" stroke-width="1"/>
<line x1="486.17" y1="184.21" x2="490.17" y2="184.21" stroke="#333" stroke-width="1"/>
<line x1="486.17" y1="173.65" x2="490.17" y2="173.65" stroke="#333" stroke-width="1"/>
<text x="476.94" y="214" text-anchor="end" font-size="9" fill="#4CAF50" transform="rotate(-45,476.94,214)">Embodiment</text>
<rect x="510.61" y="155.93" width="22.44" height="44.07" fill="#2E7D32" opacity="0.85"><title>Partner Identity: 0.000584</title></rect>
<line x1="521.83" y1="173.28" x2="521.83" y2="104.62" stroke="#333" stroke-width="1"/>
<line x1="519.83" y1="173.28" x2="523.83" y2="173.28" stroke="#333" stroke-width="1"/>
<line x1="519.83" y1="104.62" x2="523.83" y2="104.62" stroke="#333" stroke-width="1"/>
<rect x="533.06" y="177.32" width="22.44" height="22.68" fill="#616161" opacity="0.85"><title>Control: 0.000300</title></rect>
<line x1="544.28" y1="183.73" x2="544.28" y2="171.66" stroke="#333" stroke-width="1"/>
<line x1="542.28" y1="183.73" x2="546.28" y2="183.73" stroke="#333" stroke-width="1"/>
<line x1="542.28" y1="171.66" x2="546.28" y2="171.66" stroke="#333" stroke-width="1"/>
<text x="533.06" y="214" text-anchor="end" font-size="9" fill="#4CAF50" transform="rotate(-45,533.06,214)">Roles</text>
<rect x="566.72" y="157.24" width="22.44" height="42.76" fill="#2E7D32" opacity="0.85"><title>Partner Identity: 0.000566</title></rect>
<line x1="577.94" y1="180.55" x2="577.94" y2="149.53" stroke="#333" stroke-width="1"/>
<line x1="575.94" y1="180.55" x2="579.94" y2="180.55" stroke="#333" stroke-width="1"/>
<line x1="575.94" y1="149.53" x2="579.94" y2="149.53" stroke="#333" stroke-width="1"/>
<rect x="589.17" y="181.31" width="22.44" height="18.69" fill="#616161" opacity="0.85"><title>Control: 0.000247</title></rect>
<line x1="600.39" y1="185.71" x2="600.39" y2="177.12" stroke="#333" stroke-width="1"/>
<line x1="598.39" y1="185.71" x2="602.39" y2="185.71" stroke="#333" stroke-width="1"/>
<line x1="598.39" y1="177.12" x2="602.39" y2="177.12" stroke="#333" stroke-width="1"/>
<text x="589.17" y="214" text-anchor="end" font-size="9" fill="#4CAF50" transform="rotate(-45,589.17,214)">Animacy</text>
<rect x="622.83" y="174.25" width="22.44" height="25.75" fill="#2E7D32" opacity="0.85"><title>Partner Identity: 0.000341</title></rect>
<line x1="634.06" y1="182.84" x2="634.06" y2="162.33" stroke="#333" stroke-width="1"/>
<line x1="632.06" y1="182.84" x2="636.06" y2="182.84" stroke="#333" stroke-width="1"/>
<line x1="632.06" y1="162.33" x2="636.06" y2="162.33" stroke="#333" stroke-width="1"/>
<rect x="645.28" y="182.84" width="22.44" height="17.16" fill="#616161" opacity="0.85"><title>Control: 0.000227</title></rect>
<line x1="656.50" y1="187.19" x2="656.50" y2="178.75" stroke="#333" stroke-width="1"/>
<line x1="654.50" y1="187.19" x2="658.50" y2="187.19" stroke="#333" stroke-width="1"/>
<line x1="654.50" y1="178.75" x2="658.50" y2="178.75" stroke="#333" stroke-width="1"/>
<text x="645.28" y="214" text-anchor="end" font-size="9" fill="#FF9800" transform="rotate(-45,645.28,214)">Formality</text>
<rect x="678.94" y="141.10" width="22.44" height="58.90" fill="#2E7D32" opacity="0.85"><title>Partner Identity: 0.000780</title></rect>
<line x1="690.17" y1="164.76" x2="690.17" y2="118.90" stroke="#333" stroke-width="1"/>
<line x1="688.17" y1="164.76" x2="692.17" y2="164.76" stroke="#333" stroke-width="1"/>
<line x1="688.17" y1="118.90" x2="692.17" y2="118.90" stroke="#333" stroke-width="1"/>
<rect x="701.39" y="182.73" width="22.44" height="17.27" fill="#616161" opacity="0.85"><title>Control: 0.000229</title></rect>
<line x1="712.61" y1="185.81" x2="712.61" y2="179.23" stroke="#333" stroke-width="1"/>
<line x1="710.61" y1="185.81" x2="714.61" y2="185.81" stroke="#333" stroke-width="1"/>
<line x1="710.61" y1="179.23" x2="714.61" y2="179.23" stroke="#333" stroke-width="1"/>
<text x="701.39" y="214" text-anchor="end" font-size="9" fill="#FF9800" transform="rotate(-45,701.39,214)">Expertise</text>
<rect x="735.06" y="175.27" width="22.44" height="24.73" fill="#2E7D32" opacity="0.85"><title>Partner Identity: 0.000327</title></rect>
<line x1="746.28" y1="186.82" x2="746.28" y2="156.16" stroke="#333" stroke-width="1"/>
<line x1="744.28" y1="186.82" x2="748.28" y2="186.82" stroke="#333" stroke-width="1"/>
<line x1="744.28" y1="156.16" x2="748.28" y2="156.16" stroke="#333" stroke-width="1"/>
<rect x="757.50" y="182.47" width="22.44" height="17.53" fill="#616161" opacity="0.85"><title>Control: 0.000232</title></rect>
<line x1="768.72" y1="187.87" x2="768.72" y2="177.09" stroke="#333" stroke-width="1"/>
<line x1="766.72" y1="187.87" x2="770.72" y2="187.87" stroke="#333" stroke-width="1"/>
<line x1="766.72" y1="177.09" x2="770.72" y2="177.09" stroke="#333" stroke-width="1"/>
<text x="757.50" y="214" text-anchor="end" font-size="9" fill="#FF9800" transform="rotate(-45,757.50,214)">Helpfulness</text>
<rect x="791.17" y="83.78" width="22.44" height="116.22" fill="#2E7D32" opacity="0.85"><title>Partner Identity: 0.001539</title></rect>
<line x1="802.39" y1="189.23" x2="802.39" y2="108.18" stroke="#333" stroke-width="1"/>
<line x1="800.39" y1="189.23" x2="804.39" y2="189.23" stroke="#333" stroke-width="1"/>
<line x1="800.39" y1="108.18" x2="804.39" y2="108.18" stroke="#333" stroke-width="1"/>
<rect x="813.61" y="186.85" width="22.44" height="13.15" fill="#616161" opacity="0.85"><title>Control: 0.000174</title></rect>
<line x1="824.83" y1="189.51" x2="824.83" y2="175.20" stroke="#333" stroke-width="1"/>
<line x1="822.83" y1="189.51" x2="826.83" y2="189.51" stroke="#333" stroke-width="1"/>
<line x1="822.83" y1="175.20" x2="826.83" y2="175.20" stroke="#333" stroke-width="1"/>
<text x="813.61" y="214" text-anchor="end" font-size="9" fill="#9E9E9E" transform="rotate(-45,813.61,214)">Baseline</text>
<rect x="847.28" y="164.28" width="22.44" height="35.72" fill="#2E7D32" opacity="0.85"><title>Partner Identity: 0.000473</title></rect>
<line x1="858.50" y1="177.64" x2="858.50" y2="151.18" stroke="#333" stroke-width="1"/>
<line x1="856.50" y1="177.64" x2="860.50" y2="177.64" stroke="#333" stroke-width="1"/>
<line x1="856.50" y1="151.18" x2="860.50" y2="151.18" stroke="#333" stroke-width="1"/>
<rect x="869.72" y="182.48" width="22.44" height="17.52" fill="#616161" opacity="0.85"><title>Control: 0.000232</title></rect>
<line x1="880.94" y1="184.72" x2="880.94" y2="179.69" stroke="#333" stroke-width="1"/>
<line x1="878.94" y1="184.72" x2="882.94" y2="184.72" stroke="#333" stroke-width="1"/>
<line x1="878.94" y1="179.69" x2="882.94" y2="179.69" stroke="#333" stroke-width="1"/>
<text x="869.72" y="214" text-anchor="end" font-size="9" fill="#9E9E9E" transform="rotate(-45,869.72,214)">Biological</text>
<rect x="903.39" y="176.14" width="22.44" height="23.86" fill="#2E7D32" opacity="0.85"><title>Partner Identity: 0.000316</title></rect>
<line x1="914.61" y1="187.42" x2="914.61" y2="162.68" stroke="#333" stroke-width="1"/>
<line x1="912.61" y1="187.42" x2="916.61" y2="187.42" stroke="#333" stroke-width="1"/>
<line x1="912.61" y1="162.68" x2="916.61" y2="162.68" stroke="#333" stroke-width="1"/>
<rect x="925.83" y="184.53" width="22.44" height="15.47" fill="#616161" opacity="0.85"><title>Control: 0.000205</title></rect>
<line x1="937.06" y1="189.86" x2="937.06" y2="180.00" stroke="#333" stroke-width="1"/>
<line x1="935.06" y1="189.86" x2="939.06" y2="189.86" stroke="#333" stroke-width="1"/>
<line x1="935.06" y1="180.00" x2="939.06" y2="180.00" stroke="#333" stroke-width="1"/>
<text x="925.83" y="214" text-anchor="end" font-size="9" fill="#9E9E9E" transform="rotate(-45,925.83,214)">Shapes</text>
<rect x="959.50" y="100.67" width="22.44" height="99.33" fill="#2E7D32" opacity="0.85"><title>Partner Identity: 0.001315</title></rect>
<line x1="970.72" y1="138.26" x2="970.72" y2="26.84" stroke="#333" stroke-width="1"/>
<line x1="968.72" y1="138.26" x2="972.72" y2="138.26" stroke="#333" stroke-width="1"/>
<line x1="968.72" y1="26.84" x2="972.72" y2="26.84" stroke="#333" stroke-width="1"/>
<rect x="981.94" y="193.92" width="22.44" height="6.08" fill="#616161" opacity="0.85"><title>Control: 0.000080</title></rect>
<line x1="993.17" y1="194.56" x2="993.17" y2="192.56" stroke="#333" stroke-width="1"/>
<line x1="991.17" y1="194.56" x2="995.17" y2="194.56" stroke="#333" stroke-width="1"/>
<line x1="991.17" y1="192.56" x2="995.17" y2="192.56" stroke="#333" stroke-width="1"/>
<text x="981.94" y="214" text-anchor="end" font-size="9" fill="#00BCD4" transform="rotate(-45,981.94,214)">SysPrompt (labeled)</text>
<line x1="0" y1="200" x2="1010" y2="200" stroke="#333"/>
<line x1="0" y1="0" x2="0" y2="200" stroke="#333"/>
</g>
<rect x="70.0" y="324" width="10" height="10" fill="#2E7D32"/>
<text x="84.0" y="332" font-size="8" fill="#333">Partner Identity</text>
<rect x="272.0" y="324" width="10" height="10" fill="#616161"/>
<text x="286.0" y="332" font-size="8" fill="#333">Control</text>
</svg>