<svg viewBox="0 0 800 320" xmlns="http://www.w3.org/2000/svg" style="width:100%;max-width:800px;height:auto;font-family:Arial,sans-serif;">
<rect width="800" height="320" fill="white"/>

<g transform="translate(70,30)">
<line x1="0" y1="180.0" x2="710" y2="180.0" stroke="#eee" stroke-width="1"/>
<text x="-8" y="184.0" text-anchor="end" font-size="10" fill="#666">0.00</text>
<line x1="0" y1="144.0" x2="710" y2="144.0" stroke="#eee" stroke-width="1"/>
<text x="-8" y="148.0" text-anchor="end" font-size="10" fill="#666">2.24</text>
<line x1="0" y1="108.0" x2="710" y2="108.0" stroke="#eee" stroke-width="1"/>
<text x="-8" y="112.0" text-anchor="end" font-size="10" fill="#666">4.47</text>
<line x1="0" y1="72.0" x2="710" y2="72.0" stroke="#eee" stroke-width="1"/>
<text x="-8" y="76.0" text-anchor="end" font-size="10" fill="#666">6.71</text>
<line x1="0" y1="36.0" x2="710" y2="36.0" stroke="#eee" stroke-width="1"/>
<text x="-8" y="40.0" text-anchor="end" font-size="10" fill="#666">8.94</text>
<line x1="0" y1="0.0" x2="710" y2="0.0" stroke="#eee" stroke-width="1"/>
<text x="-8" y="4.0" text-anchor="end" font-size="10" fill="#666">11.18</text>
<text x="-50" y="90.0" text-anchor="middle" font-size="11" fill="#333" transform="rotate(-90,-50,90.0)">Mean R² (×10⁻³)</text>
<rect x="8.19" y="32.13" width="19.12" height="147.87" fill="#2E7D32" opacity="0.85"><title>Partner Identity — Social: 9.183 ×10⁻³</title></rect>
<line x1="17.75" y1="52.19" x2="17.75" y2="24.16" stroke="#333" stroke-width="1"/>
<line x1="15.75" y1="52.19" x2="19.75" y2="52.19" stroke="#333" stroke-width="1"/>
<line x1="15.75" y1="24.16" x2="19.75" y2="24.16" stroke="#333" stroke-width="1"/>
<rect x="29.31" y="154.20" width="19.12" height="25.80" fill="#616161" opacity="0.85"><title>Control — Social: 1.602 ×10⁻³</title></rect>
<line x1="38.87" y1="162.67" x2="38.87" y2="147.10" stroke="#333" stroke-width="1"/>
<line x1="36.87" y1="162.67" x2="40.87" y2="162.67" stroke="#333" stroke-width="1"/>
<line x1="36.87" y1="147.10" x2="40.87" y2="147.10" stroke="#333" stroke-width="1"/>
<text x="29.3" y="194" text-anchor="end" font-size="10" fill="#2196F3" transform="rotate(-30,29.3,194)">Social</text>
<rect x="62.81" y="38.02" width="19.12" height="141.98" fill="#2E7D32" opacity="0.85"><title>Partner Identity — Attention: 8.817 ×10⁻³</title></rect>
<line x1="72.37" y1="58.03" x2="72.37" y2="30.29" stroke="#333" stroke-width="1"/>
<line x1="70.37" y1="58.03" x2="74.37" y2="58.03" stroke="#333" stroke-width="1"/>
<line x1="70.37" y1="30.29" x2="74.37" y2="30.29" stroke="#333" stroke-width="1"/>
<rect x="83.92" y="161.27" width="19.12" height="18.73" fill="#616161" opacity="0.85"><title>Control — Attention: 1.163 ×10⁻³</title></rect>
<line x1="93.48" y1="166.91" x2="93.48" y2="156.49" stroke="#333" stroke-width="1"/>
<line x1="91.48" y1="166.91" x2="95.48" y2="166.91" stroke="#333" stroke-width="1"/>
<line x1="91.48" y1="156.49" x2="95.48" y2="156.49" stroke="#333" stroke-width="1"/>
<text x="83.9" y="194" text-anchor="end" font-size="10" fill="#2196F3" transform="rotate(-30,83.9,194)">Attention</text>
<rect x="117.42" y="39.96" width="19.12" height="140.04" fill="#2E7D32" opacity="0.85"><title>Partner Identity — Prediction: 8.696 ×10⁻³</title></rect>
<line x1="126.98" y1="59.60" x2="126.98" y2="31.95" stroke="#333" stroke-width="1"/>
<line x1="124.98" y1="59.60" x2="128.98" y2="59.60" stroke="#333" stroke-width="1"/>
<line x1="124.98" y1="31.95" x2="128.98" y2="31.95" stroke="#333" stroke-width="1"/>
<rect x="138.54" y="160.03" width="19.12" height="19.97" fill="#616161" opacity="0.85"><title>Control — Prediction: 1.240 ×10⁻³</title></rect>
<line x1="148.10" y1="165.07" x2="148.10" y2="155.02" stroke="#333" stroke-width="1"/>
<line x1="146.10" y1="165.07" x2="150.10" y2="165.07" stroke="#333" stroke-width="1"/>
<line x1="146.10" y1="155.02" x2="150.10" y2="155.02" stroke="#333" stroke-width="1"/>
<text x="138.5" y="194" text-anchor="end" font-size="10" fill="#2196F3" transform="rotate(-30,138.5,194)">Prediction</text>
<rect x="172.04" y="52.70" width="19.12" height="127.30" fill="#2E7D32" opacity="0.85"><title>Partner Identity — Agency: 7.906 ×10⁻³</title></rect>
<line x1="181.60" y1="68.59" x2="181.60" y2="47.46" stroke="#333" stroke-width="1"/>
<line x1="179.60" y1="68.59" x2="183.60" y2="68.59" stroke="#333" stroke-width="1"/>
<line x1="179.60" y1="47.46" x2="183.60" y2="47.46" stroke="#333" stroke-width="1"/>
<rect x="193.15" y="158.24" width="19.12" height="21.76" fill="#616161" opacity="0.85"><title>Control — Agency: 1.351 ×10⁻³</title></rect>
<line x1="202.71" y1="164.24" x2="202.71" y2="153.57" stroke="#333" stroke-width="1"/>
<line x1="200.71" y1="164.24" x2="204.71" y2="164.24" stroke="#333" stroke-width="1"/>
<line x1="200.71" y1="153.57" x2="204.71" y2="153.57" stroke="#333" stroke-width="1"/>
<text x="193.2" y="194" text-anchor="end" font-size="10" fill="#2196F3" transform="rotate(-30,193.2,194)">Agency</text>
<rect x="226.65" y="59.22" width="19.12" height="120.78" fill="#2E7D32" opacity="0.85"><title>Partner Identity — Cognitive: 7.500 ×10⁻³</title></rect>
<line x1="236.21" y1="76.14" x2="236.21" y2="51.13" stroke="#333" stroke-width="1"/>
<line x1="234.21" y1="76.14" x2="238.21" y2="76.14" stroke="#333" stroke-width="1"/>
<line x1="234.21" y1="51.13" x2="238.21" y2="51.13" stroke="#333" stroke-width="1"/>
<rect x="247.77" y="164.45" width="19.12" height="15.55" fill="#616161" opacity="0.85"><title>Control — Cognitive: 0.966 ×10⁻³</title></rect>
<line x1="257.33" y1="169.61" x2="257.33" y2="159.15" stroke="#333" stroke-width="1"/>
<line x1="255.33" y1="169.61" x2="259.33" y2="169.61" stroke="#333" stroke-width="1"/>
<line x1="255.33" y1="159.15" x2="259.33" y2="159.15" stroke="#333" stroke-width="1"/>
<text x="247.8" y="194" text-anchor="end" font-size="10" fill="#2196F3" transform="rotate(-30,247.8,194)">Cognitive</text>
<rect x="281.27" y="56.45" width="19.12" height="123.55" fill="#2E7D32" opacity="0.85"><title>Partner Identity — Roles: 7.672 ×10⁻³</title></rect>
<line x1="290.83" y1="79.19" x2="290.83" y2="45.43" stroke="#333" stroke-width="1"/>
<line x1="288.83" y1="79.19" x2="292.83" y2="79.19" stroke="#333" stroke-width="1"/>
<line x1="288.83" y1="45.43" x2="292.83" y2="45.43" stroke="#333" stroke-width="1"/>
<rect x="302.38" y="160.19" width="19.12" height="19.81" fill="#616161" opacity="0.85"><title>Control — Roles: 1.230 ×10⁻³</title></rect>
<line x1="311.94" y1="165.61" x2="311.94" y2="154.41" stroke="#333" stroke-width="1"/>
<line x1="309.94" y1="165.61" x2="313.94" y2="165.61" stroke="#333" stroke-width="1"/>
<line x1="309.94" y1="154.41" x2="313.94" y2="154.41" stroke="#333" stroke-width="1"/>
<text x="302.4" y="194" text-anchor="end" font-size="10" fill="#2196F3" transform="rotate(-30,302.4,194)">Roles</text>
<rect x="335.88" y="59.37" width="19.12" height="120.63" fill="#2E7D32" opacity="0.85"><title>Partner Identity — Intentions: 7.491 ×10⁻³</title></rect>
<line x1="345.44" y1="77.77" x2="345.44" y2="49.87" stroke="#333" stroke-width="1"/>
<line x1="343.44" y1="77.77" x2="347.44" y2="77.77" stroke="#333" stroke-width="1"/>
<line x1="343.44" y1="49.87" x2="347.44" y2="49.87" stroke="#333" stroke-width="1"/>
<rect x="357.00" y="157.36" width="19.12" height="22.64" fill="#616161" opacity="0.85"><title>Control — Intentions: 1.406 ×10⁻³</title></rect>
<line x1="366.56" y1="163.85" x2="366.56" y2="153.04" stroke="#333" stroke-width="1"/>
<line x1="364.56" y1="163.85" x2="368.56" y2="163.85" stroke="#333" stroke-width="1"/>
<line x1="364.56" y1="153.04" x2="368.56" y2="153.04" stroke="#333" stroke-width="1"/>
<text x="357.0" y="194" text-anchor="end" font-size="10" fill="#2196F3" transform="rotate(-30,357.0,194)">Intentions</text>
<rect x="390.50" y="72.17" width="19.12" height="107.83" fill="#2E7D32" opacity="0.85"><title>Partner Identity — Emotions: 6.696 ×10⁻³</title></rect>
<line x1="400.06" y1="84.62" x2="400.06" y2="64.90" stroke="#333" stroke-width="1"/>
<line x1="398.06" y1="84.62" x2="402.06" y2="84.62" stroke="#333" stroke-width="1"/>
<line x1="398.06" y1="64.90" x2="402.06" y2="64.90" stroke="#333" stroke-width="1"/>
<rect x="411.62" y="161.13" width="19.12" height="18.87" fill="#616161" opacity="0.85"><title>Control — Emotions: 1.172 ×10⁻³</title></rect>
<line x1="421.17" y1="164.63" x2="421.17" y2="158.47" stroke="#333" stroke-width="1"/>
<line x1="419.17" y1="164.63" x2="423.17" y2="164.63" stroke="#333" stroke-width="1"/>
<line x1="419.17" y1="158.47" x2="423.17" y2="158.47" stroke="#333" stroke-width="1"/>
<text x="411.6" y="194" text-anchor="end" font-size="10" fill="#2196F3" transform="rotate(-30,411.6,194)">Emotions</text>
<rect x="445.12" y="85.99" width="19.12" height="94.01" fill="#2E7D32" opacity="0.85"><title>Partner Identity — Embodiment: 5.838 ×10⁻³</title></rect>
<line x1="454.67" y1="101.96" x2="454.67" y2="77.74" stroke="#333" stroke-width="1"/>
<line x1="452.67" y1="101.96" x2="456.67" y2="101.96" stroke="#333" stroke-width="1"/>
<line x1="452.67" y1="77.74" x2="456.67" y2="77.74" stroke="#333" stroke-width="1"/>
<rect x="466.23" y="156.90" width="19.12" height="23.10" fill="#616161" opacity="0.85"><title>Control — Embodiment: 1.435 ×10⁻³</title></rect>
<line x1="475.79" y1="162.66" x2="475.79" y2="151.51" stroke="#333" stroke-width="1"/>
<line x1="473.79" y1="162.66" x2="477.79" y2="162.66" stroke="#333" stroke-width="1"/>
<line x1="473.79" y1="151.51" x2="477.79" y2="151.51" stroke="#333" stroke-width="1"/>
<text x="466.2" y="194" text-anchor="end" font-size="10" fill="#2196F3" transform="rotate(-30,466.2,194)">Embodiment</text>
<rect x="499.73" y="87.58" width="19.12" height="92.42" fill="#2E7D32" opacity="0.85"><title>Partner Identity — Phenomenology: 5.739 ×10⁻³</title></rect>
<line x1="509.29" y1="103.33" x2="509.29" y2="81.71" stroke="#333" stroke-width="1"/>
<line x1="507.29" y1="103.33" x2="511.29" y2="103.33" stroke="#333" stroke-width="1"/>
<line x1="507.29" y1="81.71" x2="511.29" y2="81.71" stroke="#333" stroke-width="1"/>
<rect x="520.85" y="158.95" width="19.12" height="21.05" fill="#616161" opacity="0.85"><title>Control — Phenomenology: 1.307 ×10⁻³</title></rect>
<line x1="530.40" y1="165.13" x2="530.40" y2="154.19" stroke="#333" stroke-width="1"/>
<line x1="528.40" y1="165.13" x2="532.40" y2="165.13" stroke="#333" stroke-width="1"/>
<line x1="528.40" y1="154.19" x2="532.40" y2="154.19" stroke="#333" stroke-width="1"/>
<text x="520.8" y="194" text-anchor="end" font-size="10" fill="#2196F3" transform="rotate(-30,520.8,194)">Phenomenology</text>
<rect x="554.35" y="96.26" width="19.12" height="83.74" fill="#2E7D32" opacity="0.85"><title>Partner Identity — Animacy: 5.201 ×10⁻³</title></rect>
<line x1="563.90" y1="115.01" x2="563.90" y2="86.04" stroke="#333" stroke-width="1"/>
<line x1="561.90" y1="115.01" x2="565.90" y2="115.01" stroke="#333" stroke-width="1"/>
<line x1="561.90" y1="86.04" x2="565.90" y2="86.04" stroke="#333" stroke-width="1"/>
<rect x="575.46" y="162.37" width="19.12" height="17.63" fill="#616161" opacity="0.85"><title>Control — Animacy: 1.095 ×10⁻³</title></rect>
<line x1="585.02" y1="165.43" x2="585.02" y2="158.82" stroke="#333" stroke-width="1"/>
<line x1="583.02" y1="165.43" x2="587.02" y2="165.43" stroke="#333" stroke-width="1"/>
<line x1="583.02" y1="158.82" x2="587.02" y2="158.82" stroke="#333" stroke-width="1"/>
<text x="575.5" y="194" text-anchor="end" font-size="10" fill="#2196F3" transform="rotate(-30,575.5,194)">Animacy</text>
<line x1="600.7692307692307" y1="0" x2="600.7692307692307" y2="180" stroke="#ccc" stroke-width="1" stroke-dasharray="4,3"/>
<rect x="608.96" y="123.84" width="19.12" height="56.16" fill="#2E7D32" opacity="0.5"><title>Partner Identity — Biological: 3.487 ×10⁻³</title></rect>
<line x1="618.52" y1="131.35" x2="618.52" y2="117.92" stroke="#333" stroke-width="1"/>
<line x1="616.52" y1="131.35" x2="620.52" y2="131.35" stroke="#333" stroke-width="1"/>
<line x1="616.52" y1="117.92" x2="620.52" y2="117.92" stroke="#333" stroke-width="1"/>
<rect x="630.08" y="156.58" width="19.12" height="23.42" fill="#616161" opacity="0.5"><title>Control — Biological: 1.454 ×10⁻³</title></rect>
<line x1="639.63" y1="161.81" x2="639.63" y2="152.09" stroke="#333" stroke-width="1"/>
<line x1="637.63" y1="161.81" x2="641.63" y2="161.81" stroke="#333" stroke-width="1"/>
<line x1="637.63" y1="152.09" x2="641.63" y2="152.09" stroke="#333" stroke-width="1"/>
<text x="630.1" y="194" text-anchor="end" font-size="10" fill="#9E9E9E" transform="rotate(-30,630.1,194)">Biological</text>
<rect x="663.58" y="170.90" width="19.12" height="9.10" fill="#2E7D32" opacity="0.5"><title>Partner Identity — Shapes: 0.565 ×10⁻³</title></rect>
<line x1="673.13" y1="175.71" x2="673.13" y2="162.68" stroke="#333" stroke-width="1"/>
<line x1="671.13" y1="175.71" x2="675.13" y2="175.71" stroke="#333" stroke-width="1"/>
<line x1="671.13" y1="162.68" x2="675.13" y2="162.68" stroke="#333" stroke-width="1"/>
<rect x="684.69" y="175.20" width="19.12" height="4.80" fill="#616161" opacity="0.5"><title>Control — Shapes: 0.298 ×10⁻³</title></rect>
<line x1="694.25" y1="177.19" x2="694.25" y2="170.81" stroke="#333" stroke-width="1"/>
<line x1="692.25" y1="177.19" x2="696.25" y2="177.19" stroke="#333" stroke-width="1"/>
<line x1="692.25" y1="170.81" x2="696.25" y2="170.81" stroke="#333" stroke-width="1"/>
<text x="684.7" y="194" text-anchor="end" font-size="10" fill="#9E9E9E" transform="rotate(-30,684.7,194)">Shapes</text>
<line x1="0" y1="180" x2="710" y2="180" stroke="#333"/>
<line x1="0" y1="0" x2="0" y2="180" stroke="#333"/>
</g>
<rect x="70" y="300" width="10" height="10" fill="#2E7D32"/>
<text x="84" y="308" font-size="9" fill="#333">Partner Identity</text>
<rect x="210" y="300" width="10" height="10" fill="#616161"/>
<text x="224" y="308" font-size="9" fill="#333">Control</text>
</svg>