<svg viewBox="0 0 800 320" xmlns="http://www.w3.org/2000/svg" style="width:100%;max-width:800px;height:auto;font-family:Arial,sans-serif;">
<rect width="800" height="320" fill="white"/>

<g transform="translate(70,30)">
<line x1="0" y1="180.0" x2="710" y2="180.0" stroke="#eee" stroke-width="1"/>
<text x="-8" y="184.0" text-anchor="end" font-size="10" fill="#666">0.00</text>
<line x1="0" y1="144.0" x2="710" y2="144.0" stroke="#eee" stroke-width="1"/>
<text x="-8" y="148.0" text-anchor="end" font-size="10" fill="#666">1.67</text>
<line x1="0" y1="108.0" x2="710" y2="108.0" stroke="#eee" stroke-width="1"/>
<text x="-8" y="112.0" text-anchor="end" font-size="10" fill="#666">3.34</text>
<line x1="0" y1="72.0" x2="710" y2="72.0" stroke="#eee" stroke-width="1"/>
<text x="-8" y="76.0" text-anchor="end" font-size="10" fill="#666">5.01</text>
<line x1="0" y1="36.0" x2="710" y2="36.0" stroke="#eee" stroke-width="1"/>
<text x="-8" y="40.0" text-anchor="end" font-size="10" fill="#666">6.67</text>
<line x1="0" y1="0.0" x2="710" y2="0.0" stroke="#eee" stroke-width="1"/>
<text x="-8" y="4.0" text-anchor="end" font-size="10" fill="#666">8.34</text>
<text x="-50" y="90.0" text-anchor="middle" font-size="11" fill="#333" transform="rotate(-90,-50,90.0)">Mean R² (×10⁻³)</text>
<rect x="21.30" y="109.45" width="49.70" height="70.55" fill="#2E7D32" opacity="0.85"><title>Partner Identity — Embodiment: 3.270 ×10⁻³</title></rect>
<line x1="46.15" y1="120.73" x2="46.15" y2="103.57" stroke="#333" stroke-width="1"/>
<line x1="44.15" y1="120.73" x2="48.15" y2="120.73" stroke="#333" stroke-width="1"/>
<line x1="44.15" y1="103.57" x2="48.15" y2="103.57" stroke="#333" stroke-width="1"/>
<rect x="73.00" y="172.71" width="49.70" height="7.29" fill="#616161" opacity="0.85"><title>Control — Embodiment: 0.338 ×10⁻³</title></rect>
<line x1="97.85" y1="174.37" x2="97.85" y2="171.28" stroke="#333" stroke-width="1"/>
<line x1="95.85" y1="174.37" x2="99.85" y2="174.37" stroke="#333" stroke-width="1"/>
<line x1="95.85" y1="171.28" x2="99.85" y2="171.28" stroke="#333" stroke-width="1"/>
<text x="73.0" y="194" text-anchor="end" font-size="10" fill="#4CAF50" transform="rotate(-30,73.0,194)">Embodiment</text>
<rect x="163.30" y="81.77" width="49.70" height="98.23" fill="#2E7D32" opacity="0.85"><title>Partner Identity — Roles: 4.553 ×10⁻³</title></rect>
<line x1="188.15" y1="102.84" x2="188.15" y2="65.95" stroke="#333" stroke-width="1"/>
<line x1="186.15" y1="102.84" x2="190.15" y2="102.84" stroke="#333" stroke-width="1"/>
<line x1="186.15" y1="65.95" x2="190.15" y2="65.95" stroke="#333" stroke-width="1"/>
<rect x="215.00" y="174.31" width="49.70" height="5.69" fill="#616161" opacity="0.85"><title>Control — Roles: 0.264 ×10⁻³</title></rect>
<line x1="239.85" y1="175.71" x2="239.85" y2="172.24" stroke="#333" stroke-width="1"/>
<line x1="237.85" y1="175.71" x2="241.85" y2="175.71" stroke="#333" stroke-width="1"/>
<line x1="237.85" y1="172.24" x2="241.85" y2="172.24" stroke="#333" stroke-width="1"/>
<text x="215.0" y="194" text-anchor="end" font-size="10" fill="#4CAF50" transform="rotate(-30,215.0,194)">Roles</text>
<rect x="305.30" y="117.26" width="49.70" height="62.74" fill="#2E7D32" opacity="0.85"><title>Partner Identity — Animacy: 2.908 ×10⁻³</title></rect>
<line x1="330.15" y1="131.05" x2="330.15" y2="107.88" stroke="#333" stroke-width="1"/>
<line x1="328.15" y1="131.05" x2="332.15" y2="131.05" stroke="#333" stroke-width="1"/>
<line x1="328.15" y1="107.88" x2="332.15" y2="107.88" stroke="#333" stroke-width="1"/>
<rect x="357.00" y="176.25" width="49.70" height="3.75" fill="#616161" opacity="0.85"><title>Control — Animacy: 0.174 ×10⁻³</title></rect>
<line x1="381.85" y1="176.92" x2="381.85" y2="175.25" stroke="#333" stroke-width="1"/>
<line x1="379.85" y1="176.92" x2="383.85" y2="176.92" stroke="#333" stroke-width="1"/>
<line x1="379.85" y1="175.25" x2="383.85" y2="175.25" stroke="#333" stroke-width="1"/>
<text x="357.0" y="194" text-anchor="end" font-size="10" fill="#4CAF50" transform="rotate(-30,357.0,194)">Animacy</text>
<line x1="426.0" y1="0" x2="426.0" y2="180" stroke="#ccc" stroke-width="1" stroke-dasharray="4,3"/>
<rect x="447.30" y="136.12" width="49.70" height="43.88" fill="#2E7D32" opacity="0.5"><title>Partner Identity — Biological: 2.034 ×10⁻³</title></rect>
<line x1="472.15" y1="142.63" x2="472.15" y2="131.53" stroke="#333" stroke-width="1"/>
<line x1="470.15" y1="142.63" x2="474.15" y2="142.63" stroke="#333" stroke-width="1"/>
<line x1="470.15" y1="131.53" x2="474.15" y2="131.53" stroke="#333" stroke-width="1"/>
<rect x="499.00" y="174.77" width="49.70" height="5.23" fill="#616161" opacity="0.5"><title>Control — Biological: 0.242 ×10⁻³</title></rect>
<line x1="523.85" y1="175.58" x2="523.85" y2="173.85" stroke="#333" stroke-width="1"/>
<line x1="521.85" y1="175.58" x2="525.85" y2="175.58" stroke="#333" stroke-width="1"/>
<line x1="521.85" y1="173.85" x2="525.85" y2="173.85" stroke="#333" stroke-width="1"/>
<text x="499.0" y="194" text-anchor="end" font-size="10" fill="#9E9E9E" transform="rotate(-30,499.0,194)">Biological</text>
<rect x="589.30" y="167.59" width="49.70" height="12.41" fill="#2E7D32" opacity="0.5"><title>Partner Identity — Shapes: 0.575 ×10⁻³</title></rect>
<line x1="614.15" y1="174.36" x2="614.15" y2="160.71" stroke="#333" stroke-width="1"/>
<line x1="612.15" y1="174.36" x2="616.15" y2="174.36" stroke="#333" stroke-width="1"/>
<line x1="612.15" y1="160.71" x2="616.15" y2="160.71" stroke="#333" stroke-width="1"/>
<rect x="641.00" y="175.05" width="49.70" height="4.95" fill="#616161" opacity="0.5"><title>Control — Shapes: 0.229 ×10⁻³</title></rect>
<line x1="665.85" y1="176.98" x2="665.85" y2="172.91" stroke="#333" stroke-width="1"/>
<line x1="663.85" y1="176.98" x2="667.85" y2="176.98" stroke="#333" stroke-width="1"/>
<line x1="663.85" y1="172.91" x2="667.85" y2="172.91" stroke="#333" stroke-width="1"/>
<text x="641.0" y="194" text-anchor="end" font-size="10" fill="#9E9E9E" transform="rotate(-30,641.0,194)">Shapes</text>
<line x1="0" y1="180" x2="710" y2="180" stroke="#333"/>
<line x1="0" y1="0" x2="0" y2="180" stroke="#333"/>
</g>
<rect x="70" y="300" width="10" height="10" fill="#2E7D32"/>
<text x="84" y="308" font-size="9" fill="#333">Partner Identity</text>
<rect x="210" y="300" width="10" height="10" fill="#616161"/>
<text x="224" y="308" font-size="9" fill="#333">Control</text>
</svg>