<svg viewBox="0 0 800 340" xmlns="http://www.w3.org/2000/svg" style="width:100%;max-width:800px;height:auto;font-family:Arial,sans-serif;">
<rect width="800" height="340" fill="white"/>

<g transform="translate(70,30)">
<line x1="0" y1="190.0" x2="710" y2="190.0" stroke="#eee" stroke-width="1"/>
<text x="-8" y="194.0" text-anchor="end" font-size="10" fill="#666">0.00</text>
<line x1="0" y1="152.0" x2="710" y2="152.0" stroke="#eee" stroke-width="1"/>
<text x="-8" y="156.0" text-anchor="end" font-size="10" fill="#666">1.61</text>
<line x1="0" y1="114.0" x2="710" y2="114.0" stroke="#eee" stroke-width="1"/>
<text x="-8" y="118.0" text-anchor="end" font-size="10" fill="#666">3.23</text>
<line x1="0" y1="76.0" x2="710" y2="76.0" stroke="#eee" stroke-width="1"/>
<text x="-8" y="80.0" text-anchor="end" font-size="10" fill="#666">4.84</text>
<line x1="0" y1="38.0" x2="710" y2="38.0" stroke="#eee" stroke-width="1"/>
<text x="-8" y="42.0" text-anchor="end" font-size="10" fill="#666">6.46</text>
<line x1="0" y1="0.0" x2="710" y2="0.0" stroke="#eee" stroke-width="1"/>
<text x="-8" y="4.0" text-anchor="end" font-size="10" fill="#666">8.07</text>
<text x="-50" y="95.0" text-anchor="middle" font-size="11" fill="#333" transform="rotate(-90,-50,95.0)">Mean R² (×10⁻³)</text>
<line x1="118.33333333333333" y1="0" x2="118.33333333333333" y2="190" stroke="#ddd" stroke-width="1" stroke-dasharray="4,3"/>
<rect x="5.92" y="68.48" width="13.81" height="121.52" fill="#2E7D32" opacity="0.85"><title>Partner Identity: 5.164 ×10⁻³</title></rect>
<line x1="12.82" y1="93.56" x2="12.82" y2="59.43" stroke="#333" stroke-width="1"/>
<line x1="10.82" y1="93.56" x2="14.82" y2="93.56" stroke="#333" stroke-width="1"/>
<line x1="10.82" y1="59.43" x2="14.82" y2="59.43" stroke="#333" stroke-width="1"/>
<rect x="21.72" y="173.94" width="13.81" height="16.06" fill="#616161" opacity="0.85"><title>Control: 0.683 ×10⁻³</title></rect>
<line x1="28.62" y1="178.70" x2="28.62" y2="164.95" stroke="#333" stroke-width="1"/>
<line x1="26.62" y1="178.70" x2="30.62" y2="178.70" stroke="#333" stroke-width="1"/>
<line x1="26.62" y1="164.95" x2="30.62" y2="164.95" stroke="#333" stroke-width="1"/>
<text x="21.7" y="204" text-anchor="end" font-size="9" fill="#9E9E9E" transform="rotate(-45,21.7,204)">Human vs AI (general)</text>
<rect x="45.36" y="131.31" width="13.81" height="58.69" fill="#2E7D32" opacity="0.85"><title>Partner Identity: 2.494 ×10⁻³</title></rect>
<line x1="52.26" y1="139.28" x2="52.26" y2="125.81" stroke="#333" stroke-width="1"/>
<line x1="50.26" y1="139.28" x2="54.26" y2="139.28" stroke="#333" stroke-width="1"/>
<line x1="50.26" y1="125.81" x2="54.26" y2="125.81" stroke="#333" stroke-width="1"/>
<rect x="61.17" y="170.83" width="13.81" height="19.17" fill="#616161" opacity="0.85"><title>Control: 0.814 ×10⁻³</title></rect>
<line x1="68.07" y1="175.82" x2="68.07" y2="165.09" stroke="#333" stroke-width="1"/>
<line x1="66.07" y1="175.82" x2="70.07" y2="175.82" stroke="#333" stroke-width="1"/>
<line x1="66.07" y1="165.09" x2="70.07" y2="165.09" stroke="#333" stroke-width="1"/>
<text x="61.2" y="204" text-anchor="end" font-size="9" fill="#9E9E9E" transform="rotate(-45,61.2,204)">Biological</text>
<rect x="84.81" y="177.83" width="13.81" height="12.17" fill="#2E7D32" opacity="0.85"><title>Partner Identity: 0.517 ×10⁻³</title></rect>
<line x1="91.71" y1="183.75" x2="91.71" y2="172.16" stroke="#333" stroke-width="1"/>
<line x1="89.71" y1="183.75" x2="93.71" y2="183.75" stroke="#333" stroke-width="1"/>
<line x1="89.71" y1="172.16" x2="93.71" y2="172.16" stroke="#333" stroke-width="1"/>
<rect x="100.61" y="181.87" width="13.81" height="8.13" fill="#616161" opacity="0.85"><title>Control: 0.345 ×10⁻³</title></rect>
<line x1="107.51" y1="186.37" x2="107.51" y2="169.35" stroke="#333" stroke-width="1"/>
<line x1="105.51" y1="186.37" x2="109.51" y2="186.37" stroke="#333" stroke-width="1"/>
<line x1="105.51" y1="169.35" x2="109.51" y2="169.35" stroke="#333" stroke-width="1"/>
<text x="100.6" y="204" text-anchor="end" font-size="9" fill="#9E9E9E" transform="rotate(-45,100.6,204)">Shapes</text>
<rect x="124.25" y="89.44" width="13.81" height="100.56" fill="#2E7D32" opacity="0.85"><title>Partner Identity: 4.273 ×10⁻³</title></rect>
<line x1="131.15" y1="105.12" x2="131.15" y2="84.29" stroke="#333" stroke-width="1"/>
<line x1="129.15" y1="105.12" x2="133.15" y2="105.12" stroke="#333" stroke-width="1"/>
<line x1="129.15" y1="84.29" x2="133.15" y2="84.29" stroke="#333" stroke-width="1"/>
<rect x="140.06" y="166.78" width="13.81" height="23.22" fill="#616161" opacity="0.85"><title>Control: 0.986 ×10⁻³</title></rect>
<line x1="146.96" y1="174.36" x2="146.96" y2="160.54" stroke="#333" stroke-width="1"/>
<line x1="144.96" y1="174.36" x2="148.96" y2="174.36" stroke="#333" stroke-width="1"/>
<line x1="144.96" y1="160.54" x2="148.96" y2="160.54" stroke="#333" stroke-width="1"/>
<text x="140.1" y="204" text-anchor="end" font-size="9" fill="#2196F3" transform="rotate(-45,140.1,204)">Phenomenology</text>
<rect x="163.69" y="78.57" width="13.81" height="111.43" fill="#2E7D32" opacity="0.85"><title>Partner Identity: 4.735 ×10⁻³</title></rect>
<line x1="170.60" y1="91.91" x2="170.60" y2="70.62" stroke="#333" stroke-width="1"/>
<line x1="168.60" y1="91.91" x2="172.60" y2="91.91" stroke="#333" stroke-width="1"/>
<line x1="168.60" y1="70.62" x2="172.60" y2="70.62" stroke="#333" stroke-width="1"/>
<rect x="179.50" y="173.92" width="13.81" height="16.08" fill="#616161" opacity="0.85"><title>Control: 0.683 ×10⁻³</title></rect>
<line x1="186.40" y1="176.82" x2="186.40" y2="170.98" stroke="#333" stroke-width="1"/>
<line x1="184.40" y1="176.82" x2="188.40" y2="176.82" stroke="#333" stroke-width="1"/>
<line x1="184.40" y1="170.98" x2="188.40" y2="170.98" stroke="#333" stroke-width="1"/>
<text x="179.5" y="204" text-anchor="end" font-size="9" fill="#2196F3" transform="rotate(-45,179.5,204)">Emotions</text>
<rect x="203.14" y="61.60" width="13.81" height="128.40" fill="#2E7D32" opacity="0.85"><title>Partner Identity: 5.456 ×10⁻³</title></rect>
<line x1="210.04" y1="78.87" x2="210.04" y2="54.80" stroke="#333" stroke-width="1"/>
<line x1="208.04" y1="78.87" x2="212.04" y2="78.87" stroke="#333" stroke-width="1"/>
<line x1="208.04" y1="54.80" x2="212.04" y2="54.80" stroke="#333" stroke-width="1"/>
<rect x="218.94" y="161.87" width="13.81" height="28.13" fill="#616161" opacity="0.85"><title>Control: 1.195 ×10⁻³</title></rect>
<line x1="225.85" y1="171.30" x2="225.85" y2="150.33" stroke="#333" stroke-width="1"/>
<line x1="223.85" y1="171.30" x2="227.85" y2="171.30" stroke="#333" stroke-width="1"/>
<line x1="223.85" y1="150.33" x2="227.85" y2="150.33" stroke="#333" stroke-width="1"/>
<text x="218.9" y="204" text-anchor="end" font-size="9" fill="#2196F3" transform="rotate(-45,218.9,204)">Agency</text>
<rect x="242.58" y="67.75" width="13.81" height="122.25" fill="#2E7D32" opacity="0.85"><title>Partner Identity: 5.194 ×10⁻³</title></rect>
<line x1="249.49" y1="86.44" x2="249.49" y2="58.60" stroke="#333" stroke-width="1"/>
<line x1="247.49" y1="86.44" x2="251.49" y2="86.44" stroke="#333" stroke-width="1"/>
<line x1="247.49" y1="58.60" x2="251.49" y2="58.60" stroke="#333" stroke-width="1"/>
<rect x="258.39" y="155.64" width="13.81" height="34.36" fill="#616161" opacity="0.85"><title>Control: 1.460 ×10⁻³</title></rect>
<line x1="265.29" y1="165.48" x2="265.29" y2="148.06" stroke="#333" stroke-width="1"/>
<line x1="263.29" y1="165.48" x2="267.29" y2="165.48" stroke="#333" stroke-width="1"/>
<line x1="263.29" y1="148.06" x2="267.29" y2="148.06" stroke="#333" stroke-width="1"/>
<text x="258.4" y="204" text-anchor="end" font-size="9" fill="#2196F3" transform="rotate(-45,258.4,204)">Intentions</text>
<rect x="282.03" y="45.38" width="13.81" height="144.62" fill="#2E7D32" opacity="0.85"><title>Partner Identity: 6.145 ×10⁻³</title></rect>
<line x1="288.93" y1="65.47" x2="288.93" y2="36.85" stroke="#333" stroke-width="1"/>
<line x1="286.93" y1="65.47" x2="290.93" y2="65.47" stroke="#333" stroke-width="1"/>
<line x1="286.93" y1="36.85" x2="290.93" y2="36.85" stroke="#333" stroke-width="1"/>
<rect x="297.83" y="167.44" width="13.81" height="22.56" fill="#616161" opacity="0.85"><title>Control: 0.959 ×10⁻³</title></rect>
<line x1="304.74" y1="174.27" x2="304.74" y2="158.01" stroke="#333" stroke-width="1"/>
<line x1="302.74" y1="174.27" x2="306.74" y2="174.27" stroke="#333" stroke-width="1"/>
<line x1="302.74" y1="158.01" x2="306.74" y2="158.01" stroke="#333" stroke-width="1"/>
<text x="297.8" y="204" text-anchor="end" font-size="9" fill="#2196F3" transform="rotate(-45,297.8,204)">Prediction</text>
<rect x="321.47" y="59.86" width="13.81" height="130.14" fill="#2E7D32" opacity="0.85"><title>Partner Identity: 5.530 ×10⁻³</title></rect>
<line x1="328.38" y1="79.43" x2="328.38" y2="50.78" stroke="#333" stroke-width="1"/>
<line x1="326.38" y1="79.43" x2="330.38" y2="79.43" stroke="#333" stroke-width="1"/>
<line x1="326.38" y1="50.78" x2="330.38" y2="50.78" stroke="#333" stroke-width="1"/>
<rect x="337.28" y="154.17" width="13.81" height="35.83" fill="#616161" opacity="0.85"><title>Control: 1.522 ×10⁻³</title></rect>
<line x1="344.18" y1="164.37" x2="344.18" y2="148.94" stroke="#333" stroke-width="1"/>
<line x1="342.18" y1="164.37" x2="346.18" y2="164.37" stroke="#333" stroke-width="1"/>
<line x1="342.18" y1="148.94" x2="346.18" y2="148.94" stroke="#333" stroke-width="1"/>
<text x="337.3" y="204" text-anchor="end" font-size="9" fill="#2196F3" transform="rotate(-45,337.3,204)">Cognitive</text>
<rect x="360.92" y="34.89" width="13.81" height="155.11" fill="#2E7D32" opacity="0.85"><title>Partner Identity: 6.591 ×10⁻³</title></rect>
<line x1="367.82" y1="55.01" x2="367.82" y2="25.50" stroke="#333" stroke-width="1"/>
<line x1="365.82" y1="55.01" x2="369.82" y2="55.01" stroke="#333" stroke-width="1"/>
<line x1="365.82" y1="25.50" x2="369.82" y2="25.50" stroke="#333" stroke-width="1"/>
<rect x="376.72" y="172.51" width="13.81" height="17.49" fill="#616161" opacity="0.85"><title>Control: 0.743 ×10⁻³</title></rect>
<line x1="383.62" y1="177.30" x2="383.62" y2="164.68" stroke="#333" stroke-width="1"/>
<line x1="381.62" y1="177.30" x2="385.62" y2="177.30" stroke="#333" stroke-width="1"/>
<line x1="381.62" y1="164.68" x2="385.62" y2="164.68" stroke="#333" stroke-width="1"/>
<text x="376.7" y="204" text-anchor="end" font-size="9" fill="#2196F3" transform="rotate(-45,376.7,204)">Social</text>
<rect x="400.36" y="38.81" width="13.81" height="151.19" fill="#2E7D32" opacity="0.85"><title>Partner Identity: 6.424 ×10⁻³</title></rect>
<line x1="407.26" y1="60.52" x2="407.26" y2="31.10" stroke="#333" stroke-width="1"/>
<line x1="405.26" y1="60.52" x2="409.26" y2="60.52" stroke="#333" stroke-width="1"/>
<line x1="405.26" y1="31.10" x2="409.26" y2="31.10" stroke="#333" stroke-width="1"/>
<rect x="416.17" y="165.94" width="13.81" height="24.06" fill="#616161" opacity="0.85"><title>Control: 1.022 ×10⁻³</title></rect>
<line x1="423.07" y1="173.25" x2="423.07" y2="159.74" stroke="#333" stroke-width="1"/>
<line x1="421.07" y1="173.25" x2="425.07" y2="173.25" stroke="#333" stroke-width="1"/>
<line x1="421.07" y1="159.74" x2="425.07" y2="159.74" stroke="#333" stroke-width="1"/>
<text x="416.2" y="204" text-anchor="end" font-size="9" fill="#2196F3" transform="rotate(-45,416.2,204)">Attention</text>
<rect x="439.81" y="93.33" width="13.81" height="96.67" fill="#2E7D32" opacity="0.85"><title>Partner Identity: 4.108 ×10⁻³</title></rect>
<line x1="446.71" y1="107.20" x2="446.71" y2="87.11" stroke="#333" stroke-width="1"/>
<line x1="444.71" y1="107.20" x2="448.71" y2="107.20" stroke="#333" stroke-width="1"/>
<line x1="444.71" y1="87.11" x2="448.71" y2="87.11" stroke="#333" stroke-width="1"/>
<rect x="455.61" y="164.76" width="13.81" height="25.24" fill="#616161" opacity="0.85"><title>Control: 1.073 ×10⁻³</title></rect>
<line x1="462.51" y1="172.10" x2="462.51" y2="156.27" stroke="#333" stroke-width="1"/>
<line x1="460.51" y1="172.10" x2="464.51" y2="172.10" stroke="#333" stroke-width="1"/>
<line x1="460.51" y1="156.27" x2="464.51" y2="156.27" stroke="#333" stroke-width="1"/>
<text x="455.6" y="204" text-anchor="end" font-size="9" fill="#4CAF50" transform="rotate(-45,455.6,204)">Embodiment</text>
<rect x="479.25" y="67.52" width="13.81" height="122.48" fill="#2E7D32" opacity="0.85"><title>Partner Identity: 5.204 ×10⁻³</title></rect>
<line x1="486.15" y1="89.76" x2="486.15" y2="55.32" stroke="#333" stroke-width="1"/>
<line x1="484.15" y1="89.76" x2="488.15" y2="89.76" stroke="#333" stroke-width="1"/>
<line x1="484.15" y1="55.32" x2="488.15" y2="55.32" stroke="#333" stroke-width="1"/>
<rect x="495.06" y="172.55" width="13.81" height="17.45" fill="#616161" opacity="0.85"><title>Control: 0.741 ×10⁻³</title></rect>
<line x1="501.96" y1="177.10" x2="501.96" y2="164.09" stroke="#333" stroke-width="1"/>
<line x1="499.96" y1="177.10" x2="503.96" y2="177.10" stroke="#333" stroke-width="1"/>
<line x1="499.96" y1="164.09" x2="503.96" y2="164.09" stroke="#333" stroke-width="1"/>
<text x="495.1" y="204" text-anchor="end" font-size="9" fill="#4CAF50" transform="rotate(-45,495.1,204)">Roles</text>
<rect x="518.69" y="106.11" width="13.81" height="83.89" fill="#2E7D32" opacity="0.85"><title>Partner Identity: 3.565 ×10⁻³</title></rect>
<line x1="525.60" y1="123.61" x2="525.60" y2="96.03" stroke="#333" stroke-width="1"/>
<line x1="523.60" y1="123.61" x2="527.60" y2="123.61" stroke="#333" stroke-width="1"/>
<line x1="523.60" y1="96.03" x2="527.60" y2="96.03" stroke="#333" stroke-width="1"/>
<rect x="534.50" y="179.42" width="13.81" height="10.58" fill="#616161" opacity="0.85"><title>Control: 0.449 ×10⁻³</title></rect>
<line x1="541.40" y1="181.00" x2="541.40" y2="176.77" stroke="#333" stroke-width="1"/>
<line x1="539.40" y1="181.00" x2="543.40" y2="181.00" stroke="#333" stroke-width="1"/>
<line x1="539.40" y1="176.77" x2="543.40" y2="176.77" stroke="#333" stroke-width="1"/>
<text x="534.5" y="204" text-anchor="end" font-size="9" fill="#4CAF50" transform="rotate(-45,534.5,204)">Animacy</text>
<rect x="558.14" y="159.87" width="13.81" height="30.13" fill="#2E7D32" opacity="0.85"><title>Partner Identity: 1.280 ×10⁻³</title></rect>
<line x1="565.04" y1="174.37" x2="565.04" y2="152.65" stroke="#333" stroke-width="1"/>
<line x1="563.04" y1="174.37" x2="567.04" y2="174.37" stroke="#333" stroke-width="1"/>
<line x1="563.04" y1="152.65" x2="567.04" y2="152.65" stroke="#333" stroke-width="1"/>
<rect x="573.94" y="178.06" width="13.81" height="11.94" fill="#616161" opacity="0.85"><title>Control: 0.507 ×10⁻³</title></rect>
<line x1="580.85" y1="185.96" x2="580.85" y2="169.31" stroke="#333" stroke-width="1"/>
<line x1="578.85" y1="185.96" x2="582.85" y2="185.96" stroke="#333" stroke-width="1"/>
<line x1="578.85" y1="169.31" x2="582.85" y2="169.31" stroke="#333" stroke-width="1"/>
<text x="573.9" y="204" text-anchor="end" font-size="9" fill="#FF9800" transform="rotate(-45,573.9,204)">Formality</text>
<rect x="597.58" y="134.67" width="13.81" height="55.33" fill="#2E7D32" opacity="0.85"><title>Partner Identity: 2.351 ×10⁻³</title></rect>
<line x1="604.49" y1="145.43" x2="604.49" y2="126.39" stroke="#333" stroke-width="1"/>
<line x1="602.49" y1="145.43" x2="606.49" y2="145.43" stroke="#333" stroke-width="1"/>
<line x1="602.49" y1="126.39" x2="606.49" y2="126.39" stroke="#333" stroke-width="1"/>
<rect x="613.39" y="167.85" width="13.81" height="22.15" fill="#616161" opacity="0.85"><title>Control: 0.941 ×10⁻³</title></rect>
<line x1="620.29" y1="172.06" x2="620.29" y2="164.75" stroke="#333" stroke-width="1"/>
<line x1="618.29" y1="172.06" x2="622.29" y2="172.06" stroke="#333" stroke-width="1"/>
<line x1="618.29" y1="164.75" x2="622.29" y2="164.75" stroke="#333" stroke-width="1"/>
<text x="613.4" y="204" text-anchor="end" font-size="9" fill="#FF9800" transform="rotate(-45,613.4,204)">Expertise</text>
<rect x="637.03" y="176.60" width="13.81" height="13.40" fill="#2E7D32" opacity="0.85"><title>Partner Identity: 0.570 ×10⁻³</title></rect>
<line x1="643.93" y1="184.39" x2="643.93" y2="169.33" stroke="#333" stroke-width="1"/>
<line x1="641.93" y1="184.39" x2="645.93" y2="184.39" stroke="#333" stroke-width="1"/>
<line x1="641.93" y1="169.33" x2="645.93" y2="169.33" stroke="#333" stroke-width="1"/>
<rect x="652.83" y="176.29" width="13.81" height="13.71" fill="#616161" opacity="0.85"><title>Control: 0.582 ×10⁻³</title></rect>
<line x1="659.74" y1="183.53" x2="659.74" y2="165.95" stroke="#333" stroke-width="1"/>
<line x1="657.74" y1="183.53" x2="661.74" y2="183.53" stroke="#333" stroke-width="1"/>
<line x1="657.74" y1="165.95" x2="661.74" y2="165.95" stroke="#333" stroke-width="1"/>
<text x="652.8" y="204" text-anchor="end" font-size="9" fill="#FF9800" transform="rotate(-45,652.8,204)">Helpfulness</text>
<rect x="676.47" y="72.74" width="13.81" height="117.26" fill="#2E7D32" opacity="0.85"><title>Partner Identity: 4.982 ×10⁻³</title></rect>
<line x1="683.38" y1="102.31" x2="683.38" y2="30.54" stroke="#333" stroke-width="1"/>
<line x1="681.38" y1="102.31" x2="685.38" y2="102.31" stroke="#333" stroke-width="1"/>
<line x1="681.38" y1="30.54" x2="685.38" y2="30.54" stroke="#333" stroke-width="1"/>
<rect x="692.28" y="179.24" width="13.81" height="10.76" fill="#616161" opacity="0.85"><title>Control: 0.457 ×10⁻³</title></rect>
<line x1="699.18" y1="181.49" x2="699.18" y2="177.14" stroke="#333" stroke-width="1"/>
<line x1="697.18" y1="181.49" x2="701.18" y2="181.49" stroke="#333" stroke-width="1"/>
<line x1="697.18" y1="177.14" x2="701.18" y2="177.14" stroke="#333" stroke-width="1"/>
<text x="692.3" y="204" text-anchor="end" font-size="9" fill="#00BCD4" transform="rotate(-45,692.3,204)">SysPrompt</text>
<line x1="0" y1="190" x2="710" y2="190" stroke="#333"/>
<line x1="0" y1="0" x2="0" y2="190" stroke="#333"/>
</g>
<rect x="70" y="320" width="10" height="10" fill="#2E7D32"/>
<text x="84" y="328" font-size="9" fill="#333">Partner Identity</text>
<rect x="210" y="320" width="10" height="10" fill="#616161"/>
<text x="224" y="328" font-size="9" fill="#333">Control</text>
</svg>