<svg viewBox="0 0 800 320" xmlns="http://www.w3.org/2000/svg" style="width:100%;max-width:800px;height:auto;font-family:Arial,sans-serif;">
<rect width="800" height="320" fill="white"/>

<g transform="translate(70,30)">
<line x1="0" y1="180.0" x2="710" y2="180.0" stroke="#eee" stroke-width="1"/>
<text x="-8" y="184.0" text-anchor="end" font-size="10" fill="#666">0.00</text>
<line x1="0" y1="144.0" x2="710" y2="144.0" stroke="#eee" stroke-width="1"/>
<text x="-8" y="148.0" text-anchor="end" font-size="10" fill="#666">1.61</text>
<line x1="0" y1="108.0" x2="710" y2="108.0" stroke="#eee" stroke-width="1"/>
<text x="-8" y="112.0" text-anchor="end" font-size="10" fill="#666">3.23</text>
<line x1="0" y1="72.0" x2="710" y2="72.0" stroke="#eee" stroke-width="1"/>
<text x="-8" y="76.0" text-anchor="end" font-size="10" fill="#666">4.84</text>
<line x1="0" y1="36.0" x2="710" y2="36.0" stroke="#eee" stroke-width="1"/>
<text x="-8" y="40.0" text-anchor="end" font-size="10" fill="#666">6.46</text>
<line x1="0" y1="0.0" x2="710" y2="0.0" stroke="#eee" stroke-width="1"/>
<text x="-8" y="4.0" text-anchor="end" font-size="10" fill="#666">8.07</text>
<text x="-50" y="90.0" text-anchor="middle" font-size="11" fill="#333" transform="rotate(-90,-50,90.0)">Mean R² (×10⁻³)</text>
<rect x="9.68" y="174.52" width="22.59" height="5.48" fill="#81C784" opacity="0.85"><title>Partner Identity — Phenomenology: 0.246 ×10⁻³</title></rect>
<line x1="20.98" y1="175.82" x2="20.98" y2="172.34" stroke="#333" stroke-width="1"/>
<line x1="18.98" y1="175.82" x2="22.98" y2="175.82" stroke="#333" stroke-width="1"/>
<line x1="18.98" y1="172.34" x2="22.98" y2="172.34" stroke="#333" stroke-width="1"/>
<rect x="34.27" y="173.27" width="22.59" height="6.73" fill="#BDBDBD" opacity="0.85"><title>Control — Phenomenology: 0.302 ×10⁻³</title></rect>
<line x1="45.57" y1="174.62" x2="45.57" y2="171.61" stroke="#333" stroke-width="1"/>
<line x1="43.57" y1="174.62" x2="47.57" y2="174.62" stroke="#333" stroke-width="1"/>
<line x1="43.57" y1="171.61" x2="47.57" y2="171.61" stroke="#333" stroke-width="1"/>
<text x="34.3" y="194" text-anchor="end" font-size="10" fill="#2196F3" transform="rotate(-30,34.3,194)">Phenomenology</text>
<rect x="74.23" y="173.28" width="22.59" height="6.72" fill="#81C784" opacity="0.85"><title>Partner Identity — Emotions: 0.302 ×10⁻³</title></rect>
<line x1="85.52" y1="175.38" x2="85.52" y2="170.29" stroke="#333" stroke-width="1"/>
<line x1="83.52" y1="175.38" x2="87.52" y2="175.38" stroke="#333" stroke-width="1"/>
<line x1="83.52" y1="170.29" x2="87.52" y2="170.29" stroke="#333" stroke-width="1"/>
<rect x="98.82" y="174.83" width="22.59" height="5.17" fill="#BDBDBD" opacity="0.85"><title>Control — Emotions: 0.232 ×10⁻³</title></rect>
<line x1="110.11" y1="175.60" x2="110.11" y2="173.88" stroke="#333" stroke-width="1"/>
<line x1="108.11" y1="175.60" x2="112.11" y2="175.60" stroke="#333" stroke-width="1"/>
<line x1="108.11" y1="173.88" x2="112.11" y2="173.88" stroke="#333" stroke-width="1"/>
<text x="98.8" y="194" text-anchor="end" font-size="10" fill="#2196F3" transform="rotate(-30,98.8,194)">Emotions</text>
<rect x="138.77" y="173.45" width="22.59" height="6.55" fill="#81C784" opacity="0.85"><title>Partner Identity — Agency: 0.294 ×10⁻³</title></rect>
<line x1="150.07" y1="175.07" x2="150.07" y2="170.28" stroke="#333" stroke-width="1"/>
<line x1="148.07" y1="175.07" x2="152.07" y2="175.07" stroke="#333" stroke-width="1"/>
<line x1="148.07" y1="170.28" x2="152.07" y2="170.28" stroke="#333" stroke-width="1"/>
<rect x="163.36" y="173.93" width="22.59" height="6.07" fill="#BDBDBD" opacity="0.85"><title>Control — Agency: 0.272 ×10⁻³</title></rect>
<line x1="174.66" y1="175.24" x2="174.66" y2="172.40" stroke="#333" stroke-width="1"/>
<line x1="172.66" y1="175.24" x2="176.66" y2="175.24" stroke="#333" stroke-width="1"/>
<line x1="172.66" y1="172.40" x2="176.66" y2="172.40" stroke="#333" stroke-width="1"/>
<text x="163.4" y="194" text-anchor="end" font-size="10" fill="#2196F3" transform="rotate(-30,163.4,194)">Agency</text>
<rect x="203.32" y="170.25" width="22.59" height="9.75" fill="#81C784" opacity="0.85"><title>Partner Identity — Intentions: 0.437 ×10⁻³</title></rect>
<line x1="214.61" y1="174.00" x2="214.61" y2="166.28" stroke="#333" stroke-width="1"/>
<line x1="212.61" y1="174.00" x2="216.61" y2="174.00" stroke="#333" stroke-width="1"/>
<line x1="212.61" y1="166.28" x2="216.61" y2="166.28" stroke="#333" stroke-width="1"/>
<rect x="227.91" y="171.22" width="22.59" height="8.78" fill="#BDBDBD" opacity="0.85"><title>Control — Intentions: 0.394 ×10⁻³</title></rect>
<line x1="239.20" y1="172.95" x2="239.20" y2="169.82" stroke="#333" stroke-width="1"/>
<line x1="237.20" y1="172.95" x2="241.20" y2="172.95" stroke="#333" stroke-width="1"/>
<line x1="237.20" y1="169.82" x2="241.20" y2="169.82" stroke="#333" stroke-width="1"/>
<text x="227.9" y="194" text-anchor="end" font-size="10" fill="#2196F3" transform="rotate(-30,227.9,194)">Intentions</text>
<rect x="267.86" y="173.06" width="22.59" height="6.94" fill="#81C784" opacity="0.85"><title>Partner Identity — Prediction: 0.311 ×10⁻³</title></rect>
<line x1="279.16" y1="175.15" x2="279.16" y2="167.60" stroke="#333" stroke-width="1"/>
<line x1="277.16" y1="175.15" x2="281.16" y2="175.15" stroke="#333" stroke-width="1"/>
<line x1="277.16" y1="167.60" x2="281.16" y2="167.60" stroke="#333" stroke-width="1"/>
<rect x="292.45" y="172.50" width="22.59" height="7.50" fill="#BDBDBD" opacity="0.85"><title>Control — Prediction: 0.337 ×10⁻³</title></rect>
<line x1="303.75" y1="173.79" x2="303.75" y2="171.01" stroke="#333" stroke-width="1"/>
<line x1="301.75" y1="173.79" x2="305.75" y2="173.79" stroke="#333" stroke-width="1"/>
<line x1="301.75" y1="171.01" x2="305.75" y2="171.01" stroke="#333" stroke-width="1"/>
<text x="292.5" y="194" text-anchor="end" font-size="10" fill="#2196F3" transform="rotate(-30,292.5,194)">Prediction</text>
<rect x="332.41" y="170.31" width="22.59" height="9.69" fill="#81C784" opacity="0.85"><title>Partner Identity — Cognitive: 0.435 ×10⁻³</title></rect>
<line x1="343.70" y1="172.96" x2="343.70" y2="167.16" stroke="#333" stroke-width="1"/>
<line x1="341.70" y1="172.96" x2="345.70" y2="172.96" stroke="#333" stroke-width="1"/>
<line x1="341.70" y1="167.16" x2="345.70" y2="167.16" stroke="#333" stroke-width="1"/>
<rect x="357.00" y="172.09" width="22.59" height="7.91" fill="#BDBDBD" opacity="0.85"><title>Control — Cognitive: 0.355 ×10⁻³</title></rect>
<line x1="368.30" y1="173.43" x2="368.30" y2="171.25" stroke="#333" stroke-width="1"/>
<line x1="366.30" y1="173.43" x2="370.30" y2="173.43" stroke="#333" stroke-width="1"/>
<line x1="366.30" y1="171.25" x2="370.30" y2="171.25" stroke="#333" stroke-width="1"/>
<text x="357.0" y="194" text-anchor="end" font-size="10" fill="#2196F3" transform="rotate(-30,357.0,194)">Cognitive</text>
<rect x="396.95" y="168.79" width="22.59" height="11.21" fill="#81C784" opacity="0.85"><title>Partner Identity — Social: 0.503 ×10⁻³</title></rect>
<line x1="408.25" y1="172.37" x2="408.25" y2="163.12" stroke="#333" stroke-width="1"/>
<line x1="406.25" y1="172.37" x2="410.25" y2="172.37" stroke="#333" stroke-width="1"/>
<line x1="406.25" y1="163.12" x2="410.25" y2="163.12" stroke="#333" stroke-width="1"/>
<rect x="421.55" y="173.36" width="22.59" height="6.64" fill="#BDBDBD" opacity="0.85"><title>Control — Social: 0.298 ×10⁻³</title></rect>
<line x1="432.84" y1="174.46" x2="432.84" y2="172.17" stroke="#333" stroke-width="1"/>
<line x1="430.84" y1="174.46" x2="434.84" y2="174.46" stroke="#333" stroke-width="1"/>
<line x1="430.84" y1="172.17" x2="434.84" y2="172.17" stroke="#333" stroke-width="1"/>
<text x="421.5" y="194" text-anchor="end" font-size="10" fill="#2196F3" transform="rotate(-30,421.5,194)">Social</text>
<rect x="461.50" y="168.94" width="22.59" height="11.06" fill="#81C784" opacity="0.85"><title>Partner Identity — Attention: 0.496 ×10⁻³</title></rect>
<line x1="472.80" y1="172.40" x2="472.80" y2="165.50" stroke="#333" stroke-width="1"/>
<line x1="470.80" y1="172.40" x2="474.80" y2="172.40" stroke="#333" stroke-width="1"/>
<line x1="470.80" y1="165.50" x2="474.80" y2="165.50" stroke="#333" stroke-width="1"/>
<rect x="486.09" y="172.26" width="22.59" height="7.74" fill="#BDBDBD" opacity="0.85"><title>Control — Attention: 0.347 ×10⁻³</title></rect>
<line x1="497.39" y1="173.55" x2="497.39" y2="171.27" stroke="#333" stroke-width="1"/>
<line x1="495.39" y1="173.55" x2="499.39" y2="173.55" stroke="#333" stroke-width="1"/>
<line x1="495.39" y1="171.27" x2="499.39" y2="171.27" stroke="#333" stroke-width="1"/>
<text x="486.1" y="194" text-anchor="end" font-size="10" fill="#2196F3" transform="rotate(-30,486.1,194)">Attention</text>
<line x1="516.3636363636364" y1="0" x2="516.3636363636364" y2="180" stroke="#ccc" stroke-width="1" stroke-dasharray="4,3"/>
<rect x="526.05" y="166.87" width="22.59" height="13.13" fill="#81C784" opacity="0.5"><title>Partner Identity — Human vs AI (general): 0.589 ×10⁻³</title></rect>
<line x1="537.34" y1="169.95" x2="537.34" y2="164.23" stroke="#333" stroke-width="1"/>
<line x1="535.34" y1="169.95" x2="539.34" y2="169.95" stroke="#333" stroke-width="1"/>
<line x1="535.34" y1="164.23" x2="539.34" y2="164.23" stroke="#333" stroke-width="1"/>
<rect x="550.64" y="171.97" width="22.59" height="8.03" fill="#BDBDBD" opacity="0.5"><title>Control — Human vs AI (general): 0.360 ×10⁻³</title></rect>
<line x1="561.93" y1="173.83" x2="561.93" y2="170.18" stroke="#333" stroke-width="1"/>
<line x1="559.93" y1="173.83" x2="563.93" y2="173.83" stroke="#333" stroke-width="1"/>
<line x1="559.93" y1="170.18" x2="563.93" y2="170.18" stroke="#333" stroke-width="1"/>
<text x="550.6" y="194" text-anchor="end" font-size="10" fill="#9E9E9E" transform="rotate(-30,550.6,194)">Human vs AI (general)</text>
<rect x="590.59" y="174.53" width="22.59" height="5.47" fill="#81C784" opacity="0.5"><title>Partner Identity — Biological: 0.245 ×10⁻³</title></rect>
<line x1="601.89" y1="175.85" x2="601.89" y2="172.63" stroke="#333" stroke-width="1"/>
<line x1="599.89" y1="175.85" x2="603.89" y2="175.85" stroke="#333" stroke-width="1"/>
<line x1="599.89" y1="172.63" x2="603.89" y2="172.63" stroke="#333" stroke-width="1"/>
<rect x="615.18" y="173.48" width="22.59" height="6.52" fill="#BDBDBD" opacity="0.5"><title>Control — Biological: 0.293 ×10⁻³</title></rect>
<line x1="626.48" y1="174.45" x2="626.48" y2="172.46" stroke="#333" stroke-width="1"/>
<line x1="624.48" y1="174.45" x2="628.48" y2="174.45" stroke="#333" stroke-width="1"/>
<line x1="624.48" y1="172.46" x2="628.48" y2="172.46" stroke="#333" stroke-width="1"/>
<text x="615.2" y="194" text-anchor="end" font-size="10" fill="#9E9E9E" transform="rotate(-30,615.2,194)">Biological</text>
<rect x="655.14" y="169.65" width="22.59" height="10.35" fill="#81C784" opacity="0.5"><title>Partner Identity — Shapes: 0.464 ×10⁻³</title></rect>
<line x1="666.43" y1="173.59" x2="666.43" y2="165.20" stroke="#333" stroke-width="1"/>
<line x1="664.43" y1="173.59" x2="668.43" y2="173.59" stroke="#333" stroke-width="1"/>
<line x1="664.43" y1="165.20" x2="668.43" y2="165.20" stroke="#333" stroke-width="1"/>
<rect x="679.73" y="176.07" width="22.59" height="3.93" fill="#BDBDBD" opacity="0.5"><title>Control — Shapes: 0.176 ×10⁻³</title></rect>
<line x1="691.02" y1="177.17" x2="691.02" y2="173.99" stroke="#333" stroke-width="1"/>
<line x1="689.02" y1="177.17" x2="693.02" y2="177.17" stroke="#333" stroke-width="1"/>
<line x1="689.02" y1="173.99" x2="693.02" y2="173.99" stroke="#333" stroke-width="1"/>
<text x="679.7" y="194" text-anchor="end" font-size="10" fill="#9E9E9E" transform="rotate(-30,679.7,194)">Shapes</text>
<line x1="0" y1="180" x2="710" y2="180" stroke="#333"/>
<line x1="0" y1="0" x2="0" y2="180" stroke="#333"/>
</g>
<rect x="70" y="300" width="10" height="10" fill="#81C784"/>
<text x="84" y="308" font-size="9" fill="#333">Partner Identity</text>
<rect x="210" y="300" width="10" height="10" fill="#BDBDBD"/>
<text x="224" y="308" font-size="9" fill="#333">Control</text>
</svg>