<svg viewBox="0 0 800 320" xmlns="http://www.w3.org/2000/svg" style="width:100%;max-width:800px;height:auto;font-family:Arial,sans-serif;">
<rect width="800" height="320" fill="white"/>

<g transform="translate(70,30)">
<line x1="0" y1="180.0" x2="710" y2="180.0" stroke="#eee" stroke-width="1"/>
<text x="-8" y="184.0" text-anchor="end" font-size="10" fill="#666">0.00</text>
<line x1="0" y1="144.0" x2="710" y2="144.0" stroke="#eee" stroke-width="1"/>
<text x="-8" y="148.0" text-anchor="end" font-size="10" fill="#666">1.61</text>
<line x1="0" y1="108.0" x2="710" y2="108.0" stroke="#eee" stroke-width="1"/>
<text x="-8" y="112.0" text-anchor="end" font-size="10" fill="#666">3.23</text>
<line x1="0" y1="72.0" x2="710" y2="72.0" stroke="#eee" stroke-width="1"/>
<text x="-8" y="76.0" text-anchor="end" font-size="10" fill="#666">4.84</text>
<line x1="0" y1="36.0" x2="710" y2="36.0" stroke="#eee" stroke-width="1"/>
<text x="-8" y="40.0" text-anchor="end" font-size="10" fill="#666">6.46</text>
<line x1="0" y1="0.0" x2="710" y2="0.0" stroke="#eee" stroke-width="1"/>
<text x="-8" y="4.0" text-anchor="end" font-size="10" fill="#666">8.07</text>
<text x="-50" y="90.0" text-anchor="middle" font-size="11" fill="#333" transform="rotate(-90,-50,90.0)">Mean R² (×10⁻³)</text>
<rect x="9.68" y="84.73" width="22.59" height="95.27" fill="#2E7D32" opacity="0.85"><title>Partner Identity — Phenomenology: 4.273 ×10⁻³</title></rect>
<line x1="20.98" y1="99.59" x2="20.98" y2="79.85" stroke="#333" stroke-width="1"/>
<line x1="18.98" y1="99.59" x2="22.98" y2="99.59" stroke="#333" stroke-width="1"/>
<line x1="18.98" y1="79.85" x2="22.98" y2="79.85" stroke="#333" stroke-width="1"/>
<rect x="34.27" y="158.01" width="22.59" height="21.99" fill="#616161" opacity="0.85"><title>Control — Phenomenology: 0.986 ×10⁻³</title></rect>
<line x1="45.57" y1="165.18" x2="45.57" y2="152.09" stroke="#333" stroke-width="1"/>
<line x1="43.57" y1="165.18" x2="47.57" y2="165.18" stroke="#333" stroke-width="1"/>
<line x1="43.57" y1="152.09" x2="47.57" y2="152.09" stroke="#333" stroke-width="1"/>
<text x="34.3" y="194" text-anchor="end" font-size="10" fill="#2196F3" transform="rotate(-30,34.3,194)">Phenomenology</text>
<rect x="74.23" y="74.43" width="22.59" height="105.57" fill="#2E7D32" opacity="0.85"><title>Partner Identity — Emotions: 4.735 ×10⁻³</title></rect>
<line x1="85.52" y1="87.07" x2="85.52" y2="66.90" stroke="#333" stroke-width="1"/>
<line x1="83.52" y1="87.07" x2="87.52" y2="87.07" stroke="#333" stroke-width="1"/>
<line x1="83.52" y1="66.90" x2="87.52" y2="66.90" stroke="#333" stroke-width="1"/>
<rect x="98.82" y="164.77" width="22.59" height="15.23" fill="#616161" opacity="0.85"><title>Control — Emotions: 0.683 ×10⁻³</title></rect>
<line x1="110.11" y1="167.51" x2="110.11" y2="161.98" stroke="#333" stroke-width="1"/>
<line x1="108.11" y1="167.51" x2="112.11" y2="167.51" stroke="#333" stroke-width="1"/>
<line x1="108.11" y1="161.98" x2="112.11" y2="161.98" stroke="#333" stroke-width="1"/>
<text x="98.8" y="194" text-anchor="end" font-size="10" fill="#2196F3" transform="rotate(-30,98.8,194)">Emotions</text>
<rect x="138.77" y="58.36" width="22.59" height="121.64" fill="#2E7D32" opacity="0.85"><title>Partner Identity — Agency: 5.456 ×10⁻³</title></rect>
<line x1="150.07" y1="74.71" x2="150.07" y2="51.91" stroke="#333" stroke-width="1"/>
<line x1="148.07" y1="74.71" x2="152.07" y2="74.71" stroke="#333" stroke-width="1"/>
<line x1="148.07" y1="51.91" x2="152.07" y2="51.91" stroke="#333" stroke-width="1"/>
<rect x="163.36" y="153.35" width="22.59" height="26.65" fill="#616161" opacity="0.85"><title>Control — Agency: 1.195 ×10⁻³</title></rect>
<line x1="174.66" y1="162.28" x2="174.66" y2="142.42" stroke="#333" stroke-width="1"/>
<line x1="172.66" y1="162.28" x2="176.66" y2="162.28" stroke="#333" stroke-width="1"/>
<line x1="172.66" y1="142.42" x2="176.66" y2="142.42" stroke="#333" stroke-width="1"/>
<text x="163.4" y="194" text-anchor="end" font-size="10" fill="#2196F3" transform="rotate(-30,163.4,194)">Agency</text>
<rect x="203.32" y="64.19" width="22.59" height="115.81" fill="#2E7D32" opacity="0.85"><title>Partner Identity — Intentions: 5.194 ×10⁻³</title></rect>
<line x1="214.61" y1="81.89" x2="214.61" y2="55.52" stroke="#333" stroke-width="1"/>
<line x1="212.61" y1="81.89" x2="216.61" y2="81.89" stroke="#333" stroke-width="1"/>
<line x1="212.61" y1="55.52" x2="216.61" y2="55.52" stroke="#333" stroke-width="1"/>
<rect x="227.91" y="147.45" width="22.59" height="32.55" fill="#616161" opacity="0.85"><title>Control — Intentions: 1.460 ×10⁻³</title></rect>
<line x1="239.20" y1="156.77" x2="239.20" y2="140.27" stroke="#333" stroke-width="1"/>
<line x1="237.20" y1="156.77" x2="241.20" y2="156.77" stroke="#333" stroke-width="1"/>
<line x1="237.20" y1="140.27" x2="241.20" y2="140.27" stroke="#333" stroke-width="1"/>
<text x="227.9" y="194" text-anchor="end" font-size="10" fill="#2196F3" transform="rotate(-30,227.9,194)">Intentions</text>
<rect x="267.86" y="42.99" width="22.59" height="137.01" fill="#2E7D32" opacity="0.85"><title>Partner Identity — Prediction: 6.145 ×10⁻³</title></rect>
<line x1="279.16" y1="62.03" x2="279.16" y2="34.91" stroke="#333" stroke-width="1"/>
<line x1="277.16" y1="62.03" x2="281.16" y2="62.03" stroke="#333" stroke-width="1"/>
<line x1="277.16" y1="34.91" x2="281.16" y2="34.91" stroke="#333" stroke-width="1"/>
<rect x="292.45" y="158.63" width="22.59" height="21.37" fill="#616161" opacity="0.85"><title>Control — Prediction: 0.959 ×10⁻³</title></rect>
<line x1="303.75" y1="165.10" x2="303.75" y2="149.70" stroke="#333" stroke-width="1"/>
<line x1="301.75" y1="165.10" x2="305.75" y2="165.10" stroke="#333" stroke-width="1"/>
<line x1="301.75" y1="149.70" x2="305.75" y2="149.70" stroke="#333" stroke-width="1"/>
<text x="292.5" y="194" text-anchor="end" font-size="10" fill="#2196F3" transform="rotate(-30,292.5,194)">Prediction</text>
<rect x="332.41" y="56.71" width="22.59" height="123.29" fill="#2E7D32" opacity="0.85"><title>Partner Identity — Cognitive: 5.530 ×10⁻³</title></rect>
<line x1="343.70" y1="75.25" x2="343.70" y2="48.11" stroke="#333" stroke-width="1"/>
<line x1="341.70" y1="75.25" x2="345.70" y2="75.25" stroke="#333" stroke-width="1"/>
<line x1="341.70" y1="48.11" x2="345.70" y2="48.11" stroke="#333" stroke-width="1"/>
<rect x="357.00" y="146.06" width="22.59" height="33.94" fill="#616161" opacity="0.85"><title>Control — Cognitive: 1.522 ×10⁻³</title></rect>
<line x1="368.30" y1="155.72" x2="368.30" y2="141.10" stroke="#333" stroke-width="1"/>
<line x1="366.30" y1="155.72" x2="370.30" y2="155.72" stroke="#333" stroke-width="1"/>
<line x1="366.30" y1="141.10" x2="370.30" y2="141.10" stroke="#333" stroke-width="1"/>
<text x="357.0" y="194" text-anchor="end" font-size="10" fill="#2196F3" transform="rotate(-30,357.0,194)">Cognitive</text>
<rect x="396.95" y="33.05" width="22.59" height="146.95" fill="#2E7D32" opacity="0.85"><title>Partner Identity — Social: 6.591 ×10⁻³</title></rect>
<line x1="408.25" y1="52.11" x2="408.25" y2="24.16" stroke="#333" stroke-width="1"/>
<line x1="406.25" y1="52.11" x2="410.25" y2="52.11" stroke="#333" stroke-width="1"/>
<line x1="406.25" y1="24.16" x2="410.25" y2="24.16" stroke="#333" stroke-width="1"/>
<rect x="421.55" y="163.43" width="22.59" height="16.57" fill="#616161" opacity="0.85"><title>Control — Social: 0.743 ×10⁻³</title></rect>
<line x1="432.84" y1="167.97" x2="432.84" y2="156.01" stroke="#333" stroke-width="1"/>
<line x1="430.84" y1="167.97" x2="434.84" y2="167.97" stroke="#333" stroke-width="1"/>
<line x1="430.84" y1="156.01" x2="434.84" y2="156.01" stroke="#333" stroke-width="1"/>
<text x="421.5" y="194" text-anchor="end" font-size="10" fill="#2196F3" transform="rotate(-30,421.5,194)">Social</text>
<rect x="461.50" y="36.77" width="22.59" height="143.23" fill="#2E7D32" opacity="0.85"><title>Partner Identity — Attention: 6.424 ×10⁻³</title></rect>
<line x1="472.80" y1="57.33" x2="472.80" y2="29.47" stroke="#333" stroke-width="1"/>
<line x1="470.80" y1="57.33" x2="474.80" y2="57.33" stroke="#333" stroke-width="1"/>
<line x1="470.80" y1="29.47" x2="474.80" y2="29.47" stroke="#333" stroke-width="1"/>
<rect x="486.09" y="157.20" width="22.59" height="22.80" fill="#616161" opacity="0.85"><title>Control — Attention: 1.022 ×10⁻³</title></rect>
<line x1="497.39" y1="164.13" x2="497.39" y2="151.34" stroke="#333" stroke-width="1"/>
<line x1="495.39" y1="164.13" x2="499.39" y2="164.13" stroke="#333" stroke-width="1"/>
<line x1="495.39" y1="151.34" x2="499.39" y2="151.34" stroke="#333" stroke-width="1"/>
<text x="486.1" y="194" text-anchor="end" font-size="10" fill="#2196F3" transform="rotate(-30,486.1,194)">Attention</text>
<line x1="516.3636363636364" y1="0" x2="516.3636363636364" y2="180" stroke="#ccc" stroke-width="1" stroke-dasharray="4,3"/>
<rect x="526.05" y="64.87" width="22.59" height="115.13" fill="#2E7D32" opacity="0.5"><title>Partner Identity — Human vs AI (general): 5.164 ×10⁻³</title></rect>
<line x1="537.34" y1="88.64" x2="537.34" y2="56.31" stroke="#333" stroke-width="1"/>
<line x1="535.34" y1="88.64" x2="539.34" y2="88.64" stroke="#333" stroke-width="1"/>
<line x1="535.34" y1="56.31" x2="539.34" y2="56.31" stroke="#333" stroke-width="1"/>
<rect x="550.64" y="164.78" width="22.59" height="15.22" fill="#616161" opacity="0.5"><title>Control — Human vs AI (general): 0.683 ×10⁻³</title></rect>
<line x1="561.93" y1="169.30" x2="561.93" y2="156.27" stroke="#333" stroke-width="1"/>
<line x1="559.93" y1="169.30" x2="563.93" y2="169.30" stroke="#333" stroke-width="1"/>
<line x1="559.93" y1="156.27" x2="563.93" y2="156.27" stroke="#333" stroke-width="1"/>
<text x="550.6" y="194" text-anchor="end" font-size="10" fill="#9E9E9E" transform="rotate(-30,550.6,194)">Human vs AI (general)</text>
<rect x="590.59" y="124.40" width="22.59" height="55.60" fill="#2E7D32" opacity="0.5"><title>Partner Identity — Biological: 2.494 ×10⁻³</title></rect>
<line x1="601.89" y1="131.95" x2="601.89" y2="119.19" stroke="#333" stroke-width="1"/>
<line x1="599.89" y1="131.95" x2="603.89" y2="131.95" stroke="#333" stroke-width="1"/>
<line x1="599.89" y1="119.19" x2="603.89" y2="119.19" stroke="#333" stroke-width="1"/>
<rect x="615.18" y="161.84" width="22.59" height="18.16" fill="#616161" opacity="0.5"><title>Control — Biological: 0.814 ×10⁻³</title></rect>
<line x1="626.48" y1="166.57" x2="626.48" y2="156.40" stroke="#333" stroke-width="1"/>
<line x1="624.48" y1="166.57" x2="628.48" y2="166.57" stroke="#333" stroke-width="1"/>
<line x1="624.48" y1="156.40" x2="628.48" y2="156.40" stroke="#333" stroke-width="1"/>
<text x="615.2" y="194" text-anchor="end" font-size="10" fill="#9E9E9E" transform="rotate(-30,615.2,194)">Biological</text>
<rect x="655.14" y="168.47" width="22.59" height="11.53" fill="#2E7D32" opacity="0.5"><title>Partner Identity — Shapes: 0.517 ×10⁻³</title></rect>
<line x1="666.43" y1="174.08" x2="666.43" y2="163.10" stroke="#333" stroke-width="1"/>
<line x1="664.43" y1="174.08" x2="668.43" y2="174.08" stroke="#333" stroke-width="1"/>
<line x1="664.43" y1="163.10" x2="668.43" y2="163.10" stroke="#333" stroke-width="1"/>
<rect x="679.73" y="172.30" width="22.59" height="7.70" fill="#616161" opacity="0.5"><title>Control — Shapes: 0.345 ×10⁻³</title></rect>
<line x1="691.02" y1="176.56" x2="691.02" y2="160.44" stroke="#333" stroke-width="1"/>
<line x1="689.02" y1="176.56" x2="693.02" y2="176.56" stroke="#333" stroke-width="1"/>
<line x1="689.02" y1="160.44" x2="693.02" y2="160.44" stroke="#333" stroke-width="1"/>
<text x="679.7" y="194" text-anchor="end" font-size="10" fill="#9E9E9E" transform="rotate(-30,679.7,194)">Shapes</text>
<line x1="0" y1="180" x2="710" y2="180" stroke="#333"/>
<line x1="0" y1="0" x2="0" y2="180" stroke="#333"/>
</g>
<rect x="70" y="300" width="10" height="10" fill="#2E7D32"/>
<text x="84" y="308" font-size="9" fill="#333">Partner Identity</text>
<rect x="210" y="300" width="10" height="10" fill="#616161"/>
<text x="224" y="308" font-size="9" fill="#333">Control</text>
</svg>