<svg viewBox="0 0 700 624" xmlns="http://www.w3.org/2000/svg" style="width:100%;max-width:700px;height:auto;font-family:Arial,sans-serif;">
<rect width="700" height="624" fill="white"/>

<text x="260.0" y="90" text-anchor="start" font-size="10" fill="#333" transform="rotate(-55,260.0,90)">Partner Identity</text>
<text x="500.0" y="90" text-anchor="start" font-size="10" fill="#333" transform="rotate(-55,500.0,90)">Control</text>
<text x="132" y="118.0" text-anchor="end" font-size="10" fill="#9E9E9E">Human vs AI (general)</text>
<rect x="140.0" y="100.0" width="240.0" height="28" fill="rgb(101,160,104)" stroke="white" stroke-width="1"><title>Partner Identity — Human vs AI (general): R²=0.005164</title></rect>
<text x="260.0" y="118.0" text-anchor="middle" font-size="8" fill="#fff">5.16</text>
<rect x="380.0" y="100.0" width="240.0" height="28" fill="rgb(224,224,224)" stroke="white" stroke-width="1"><title>Control — Human vs AI (general): R²=0.000683</title></rect>
<text x="500.0" y="118.0" text-anchor="middle" font-size="8" fill="#333">0.68</text>
<text x="132" y="146.0" text-anchor="end" font-size="10" fill="#9E9E9E">Biological</text>
<rect x="140.0" y="128.0" width="240.0" height="28" fill="rgb(168,204,170)" stroke="white" stroke-width="1"><title>Partner Identity — Biological: R²=0.002494</title></rect>
<text x="260.0" y="146.0" text-anchor="middle" font-size="8" fill="#333">2.49</text>
<rect x="380.0" y="128.0" width="240.0" height="28" fill="rgb(222,222,222)" stroke="white" stroke-width="1"><title>Control — Biological: R²=0.000814</title></rect>
<text x="500.0" y="146.0" text-anchor="middle" font-size="8" fill="#333">0.81</text>
<text x="132" y="174.0" text-anchor="end" font-size="10" fill="#9E9E9E">Shapes</text>
<rect x="140.0" y="156.0" width="240.0" height="28" fill="rgb(218,236,220)" stroke="white" stroke-width="1"><title>Partner Identity — Shapes: R²=0.000517</title></rect>
<text x="260.0" y="174.0" text-anchor="middle" font-size="8" fill="#333">0.52</text>
<rect x="380.0" y="156.0" width="240.0" height="28" fill="rgb(231,231,231)" stroke="white" stroke-width="1"><title>Control — Shapes: R²=0.000345</title></rect>
<text x="500.0" y="174.0" text-anchor="middle" font-size="8" fill="#333">0.35</text>
<line x1="140" y1="184" x2="620.0" y2="184" stroke="#999" stroke-width="1.5"/>
<text x="132" y="202.0" text-anchor="end" font-size="10" fill="#2196F3">Phenomenology</text>
<rect x="140.0" y="184.0" width="240.0" height="28" fill="rgb(123,175,126)" stroke="white" stroke-width="1"><title>Partner Identity — Phenomenology: R²=0.004273</title></rect>
<text x="260.0" y="202.0" text-anchor="middle" font-size="8" fill="#fff">4.27</text>
<rect x="380.0" y="184.0" width="240.0" height="28" fill="rgb(219,219,219)" stroke="white" stroke-width="1"><title>Control — Phenomenology: R²=0.000986</title></rect>
<text x="500.0" y="202.0" text-anchor="middle" font-size="8" fill="#333">0.99</text>
<text x="132" y="230.0" text-anchor="end" font-size="10" fill="#2196F3">Emotions</text>
<rect x="140.0" y="212.0" width="240.0" height="28" fill="rgb(112,167,114)" stroke="white" stroke-width="1"><title>Partner Identity — Emotions: R²=0.004735</title></rect>
<text x="260.0" y="230.0" text-anchor="middle" font-size="8" fill="#fff">4.73</text>
<rect x="380.0" y="212.0" width="240.0" height="28" fill="rgb(224,224,224)" stroke="white" stroke-width="1"><title>Control — Emotions: R²=0.000683</title></rect>
<text x="500.0" y="230.0" text-anchor="middle" font-size="8" fill="#333">0.68</text>
<text x="132" y="258.0" text-anchor="end" font-size="10" fill="#2196F3">Agency</text>
<rect x="140.0" y="240.0" width="240.0" height="28" fill="rgb(93,155,96)" stroke="white" stroke-width="1"><title>Partner Identity — Agency: R²=0.005456</title></rect>
<text x="260.0" y="258.0" text-anchor="middle" font-size="8" fill="#fff">5.46</text>
<rect x="380.0" y="240.0" width="240.0" height="28" fill="rgb(215,215,215)" stroke="white" stroke-width="1"><title>Control — Agency: R²=0.001195</title></rect>
<text x="500.0" y="258.0" text-anchor="middle" font-size="8" fill="#333">1.20</text>
<text x="132" y="286.0" text-anchor="end" font-size="10" fill="#2196F3">Intentions</text>
<rect x="140.0" y="268.0" width="240.0" height="28" fill="rgb(100,160,103)" stroke="white" stroke-width="1"><title>Partner Identity — Intentions: R²=0.005194</title></rect>
<text x="260.0" y="286.0" text-anchor="middle" font-size="8" fill="#fff">5.19</text>
<rect x="380.0" y="268.0" width="240.0" height="28" fill="rgb(209,209,209)" stroke="white" stroke-width="1"><title>Control — Intentions: R²=0.001460</title></rect>
<text x="500.0" y="286.0" text-anchor="middle" font-size="8" fill="#333">1.46</text>
<text x="132" y="314.0" text-anchor="end" font-size="10" fill="#2196F3">Prediction</text>
<rect x="140.0" y="296.0" width="240.0" height="28" fill="rgb(76,144,79)" stroke="white" stroke-width="1"><title>Partner Identity — Prediction: R²=0.006145</title></rect>
<text x="260.0" y="314.0" text-anchor="middle" font-size="8" fill="#fff">6.15</text>
<rect x="380.0" y="296.0" width="240.0" height="28" fill="rgb(219,219,219)" stroke="white" stroke-width="1"><title>Control — Prediction: R²=0.000959</title></rect>
<text x="500.0" y="314.0" text-anchor="middle" font-size="8" fill="#333">0.96</text>
<text x="132" y="342.0" text-anchor="end" font-size="10" fill="#2196F3">Cognitive</text>
<rect x="140.0" y="324.0" width="240.0" height="28" fill="rgb(91,154,95)" stroke="white" stroke-width="1"><title>Partner Identity — Cognitive: R²=0.005530</title></rect>
<text x="260.0" y="342.0" text-anchor="middle" font-size="8" fill="#fff">5.53</text>
<rect x="380.0" y="324.0" width="240.0" height="28" fill="rgb(208,208,208)" stroke="white" stroke-width="1"><title>Control — Cognitive: R²=0.001522</title></rect>
<text x="500.0" y="342.0" text-anchor="middle" font-size="8" fill="#333">1.52</text>
<text x="132" y="370.0" text-anchor="end" font-size="10" fill="#2196F3">Social</text>
<rect x="140.0" y="352.0" width="240.0" height="28" fill="rgb(64,137,68)" stroke="white" stroke-width="1"><title>Partner Identity — Social: R²=0.006591</title></rect>
<text x="260.0" y="370.0" text-anchor="middle" font-size="8" fill="#fff">6.59</text>
<rect x="380.0" y="352.0" width="240.0" height="28" fill="rgb(223,223,223)" stroke="white" stroke-width="1"><title>Control — Social: R²=0.000743</title></rect>
<text x="500.0" y="370.0" text-anchor="middle" font-size="8" fill="#333">0.74</text>
<text x="132" y="398.0" text-anchor="end" font-size="10" fill="#2196F3">Attention</text>
<rect x="140.0" y="380.0" width="240.0" height="28" fill="rgb(69,139,72)" stroke="white" stroke-width="1"><title>Partner Identity — Attention: R²=0.006424</title></rect>
<text x="260.0" y="398.0" text-anchor="middle" font-size="8" fill="#fff">6.42</text>
<rect x="380.0" y="380.0" width="240.0" height="28" fill="rgb(218,218,218)" stroke="white" stroke-width="1"><title>Control — Attention: R²=0.001022</title></rect>
<text x="500.0" y="398.0" text-anchor="middle" font-size="8" fill="#333">1.02</text>
<line x1="140" y1="408" x2="620.0" y2="408" stroke="#999" stroke-width="1.5"/>
<text x="132" y="426.0" text-anchor="end" font-size="10" fill="#4CAF50">Embodiment</text>
<rect x="140.0" y="408.0" width="240.0" height="28" fill="rgb(127,177,130)" stroke="white" stroke-width="1"><title>Partner Identity — Embodiment: R²=0.004108</title></rect>
<text x="260.0" y="426.0" text-anchor="middle" font-size="8" fill="#fff">4.11</text>
<rect x="380.0" y="408.0" width="240.0" height="28" fill="rgb(217,217,217)" stroke="white" stroke-width="1"><title>Control — Embodiment: R²=0.001073</title></rect>
<text x="500.0" y="426.0" text-anchor="middle" font-size="8" fill="#333">1.07</text>
<text x="132" y="454.0" text-anchor="end" font-size="10" fill="#4CAF50">Roles</text>
<rect x="140.0" y="436.0" width="240.0" height="28" fill="rgb(100,159,103)" stroke="white" stroke-width="1"><title>Partner Identity — Roles: R²=0.005204</title></rect>
<text x="260.0" y="454.0" text-anchor="middle" font-size="8" fill="#fff">5.20</text>
<rect x="380.0" y="436.0" width="240.0" height="28" fill="rgb(223,223,223)" stroke="white" stroke-width="1"><title>Control — Roles: R²=0.000741</title></rect>
<text x="500.0" y="454.0" text-anchor="middle" font-size="8" fill="#333">0.74</text>
<text x="132" y="482.0" text-anchor="end" font-size="10" fill="#4CAF50">Animacy</text>
<rect x="140.0" y="464.0" width="240.0" height="28" fill="rgb(141,186,144)" stroke="white" stroke-width="1"><title>Partner Identity — Animacy: R²=0.003565</title></rect>
<text x="260.0" y="482.0" text-anchor="middle" font-size="8" fill="#333">3.56</text>
<rect x="380.0" y="464.0" width="240.0" height="28" fill="rgb(229,229,229)" stroke="white" stroke-width="1"><title>Control — Animacy: R²=0.000449</title></rect>
<text x="500.0" y="482.0" text-anchor="middle" font-size="8" fill="#333">0.45</text>
<line x1="140" y1="492" x2="620.0" y2="492" stroke="#999" stroke-width="1.5"/>
<text x="132" y="510.0" text-anchor="end" font-size="10" fill="#FF9800">Formality</text>
<rect x="140.0" y="492.0" width="240.0" height="28" fill="rgb(199,224,201)" stroke="white" stroke-width="1"><title>Partner Identity — Formality: R²=0.001280</title></rect>
<text x="260.0" y="510.0" text-anchor="middle" font-size="8" fill="#333">1.28</text>
<rect x="380.0" y="492.0" width="240.0" height="28" fill="rgb(228,228,228)" stroke="white" stroke-width="1"><title>Control — Formality: R²=0.000507</title></rect>
<text x="500.0" y="510.0" text-anchor="middle" font-size="8" fill="#333">0.51</text>
<text x="132" y="538.0" text-anchor="end" font-size="10" fill="#FF9800">Expertise</text>
<rect x="140.0" y="520.0" width="240.0" height="28" fill="rgb(172,206,174)" stroke="white" stroke-width="1"><title>Partner Identity — Expertise: R²=0.002351</title></rect>
<text x="260.0" y="538.0" text-anchor="middle" font-size="8" fill="#333">2.35</text>
<rect x="380.0" y="520.0" width="240.0" height="28" fill="rgb(219,219,219)" stroke="white" stroke-width="1"><title>Control — Expertise: R²=0.000941</title></rect>
<text x="500.0" y="538.0" text-anchor="middle" font-size="8" fill="#333">0.94</text>
<text x="132" y="566.0" text-anchor="end" font-size="10" fill="#FF9800">Helpfulness</text>
<rect x="140.0" y="548.0" width="240.0" height="28" fill="rgb(217,235,218)" stroke="white" stroke-width="1"><title>Partner Identity — Helpfulness: R²=0.000570</title></rect>
<text x="260.0" y="566.0" text-anchor="middle" font-size="8" fill="#333">0.57</text>
<rect x="380.0" y="548.0" width="240.0" height="28" fill="rgb(226,226,226)" stroke="white" stroke-width="1"><title>Control — Helpfulness: R²=0.000582</title></rect>
<text x="500.0" y="566.0" text-anchor="middle" font-size="8" fill="#333">0.58</text>
<line x1="140" y1="576" x2="620.0" y2="576" stroke="#999" stroke-width="1.5"/>
<text x="132" y="594.0" text-anchor="end" font-size="10" fill="#00BCD4">SysPrompt</text>
<rect x="140.0" y="576.0" width="240.0" height="28" fill="rgb(105,163,108)" stroke="white" stroke-width="1"><title>Partner Identity — SysPrompt: R²=0.004982</title></rect>
<text x="260.0" y="594.0" text-anchor="middle" font-size="8" fill="#fff">4.98</text>
<rect x="380.0" y="576.0" width="240.0" height="28" fill="rgb(229,229,229)" stroke="white" stroke-width="1"><title>Control — SysPrompt: R²=0.000457</title></rect>
<text x="500.0" y="594.0" text-anchor="middle" font-size="8" fill="#333">0.46</text>
<rect x="635.0" y="604.0" width="12" height="11.3" fill="rgb(232,245,233)"/>
<rect x="635.0" y="593.7" width="12" height="11.3" fill="rgb(228,242,229)"/>
<rect x="635.0" y="583.4" width="12" height="11.3" fill="rgb(224,240,225)"/>
<rect x="635.0" y="573.1" width="12" height="11.3" fill="rgb(220,237,221)"/>
<rect x="635.0" y="562.9" width="12" height="11.3" fill="rgb(216,235,218)"/>
<rect x="635.0" y="552.6" width="12" height="11.3" fill="rgb(213,232,214)"/>
<rect x="635.0" y="542.3" width="12" height="11.3" fill="rgb(209,230,210)"/>
<rect x="635.0" y="532.0" width="12" height="11.3" fill="rgb(205,227,206)"/>
<rect x="635.0" y="521.7" width="12" height="11.3" fill="rgb(201,225,203)"/>
<rect x="635.0" y="511.4" width="12" height="11.3" fill="rgb(197,222,199)"/>
<rect x="635.0" y="501.1" width="12" height="11.3" fill="rgb(194,220,195)"/>
<rect x="635.0" y="490.9" width="12" height="11.3" fill="rgb(190,218,191)"/>
<rect x="635.0" y="480.6" width="12" height="11.3" fill="rgb(186,215,188)"/>
<rect x="635.0" y="470.3" width="12" height="11.3" fill="rgb(182,213,184)"/>
<rect x="635.0" y="460.0" width="12" height="11.3" fill="rgb(178,210,180)"/>
<rect x="635.0" y="449.7" width="12" height="11.3" fill="rgb(175,208,176)"/>
<rect x="635.0" y="439.4" width="12" height="11.3" fill="rgb(171,205,173)"/>
<rect x="635.0" y="429.1" width="12" height="11.3" fill="rgb(167,203,169)"/>
<rect x="635.0" y="418.9" width="12" height="11.3" fill="rgb(163,200,165)"/>
<rect x="635.0" y="408.6" width="12" height="11.3" fill="rgb(159,198,162)"/>
<rect x="635.0" y="398.3" width="12" height="11.3" fill="rgb(156,196,158)"/>
<rect x="635.0" y="388.0" width="12" height="11.3" fill="rgb(152,193,154)"/>
<rect x="635.0" y="377.7" width="12" height="11.3" fill="rgb(148,191,150)"/>
<rect x="635.0" y="367.4" width="12" height="11.3" fill="rgb(144,188,147)"/>
<rect x="635.0" y="357.1" width="12" height="11.3" fill="rgb(140,186,143)"/>
<rect x="635.0" y="346.9" width="12" height="11.3" fill="rgb(137,183,139)"/>
<rect x="635.0" y="336.6" width="12" height="11.3" fill="rgb(133,181,135)"/>
<rect x="635.0" y="326.3" width="12" height="11.3" fill="rgb(129,178,132)"/>
<rect x="635.0" y="316.0" width="12" height="11.3" fill="rgb(125,176,128)"/>
<rect x="635.0" y="305.7" width="12" height="11.3" fill="rgb(121,173,124)"/>
<rect x="635.0" y="295.4" width="12" height="11.3" fill="rgb(118,171,120)"/>
<rect x="635.0" y="285.1" width="12" height="11.3" fill="rgb(114,169,117)"/>
<rect x="635.0" y="274.9" width="12" height="11.3" fill="rgb(110,166,113)"/>
<rect x="635.0" y="264.6" width="12" height="11.3" fill="rgb(106,164,109)"/>
<rect x="635.0" y="254.3" width="12" height="11.3" fill="rgb(102,161,106)"/>
<rect x="635.0" y="244.0" width="12" height="11.3" fill="rgb(99,159,102)"/>
<rect x="635.0" y="233.7" width="12" height="11.3" fill="rgb(95,156,98)"/>
<rect x="635.0" y="223.4" width="12" height="11.3" fill="rgb(91,154,94)"/>
<rect x="635.0" y="213.1" width="12" height="11.3" fill="rgb(87,151,91)"/>
<rect x="635.0" y="202.9" width="12" height="11.3" fill="rgb(83,149,87)"/>
<rect x="635.0" y="192.6" width="12" height="11.3" fill="rgb(80,147,83)"/>
<rect x="635.0" y="182.3" width="12" height="11.3" fill="rgb(76,144,79)"/>
<rect x="635.0" y="172.0" width="12" height="11.3" fill="rgb(72,142,76)"/>
<rect x="635.0" y="161.7" width="12" height="11.3" fill="rgb(68,139,72)"/>
<rect x="635.0" y="151.4" width="12" height="11.3" fill="rgb(64,137,68)"/>
<rect x="635.0" y="141.1" width="12" height="11.3" fill="rgb(61,134,64)"/>
<rect x="635.0" y="130.9" width="12" height="11.3" fill="rgb(57,132,61)"/>
<rect x="635.0" y="120.6" width="12" height="11.3" fill="rgb(53,129,57)"/>
<rect x="635.0" y="110.3" width="12" height="11.3" fill="rgb(49,127,53)"/>
<rect x="635.0" y="100.0" width="12" height="11.3" fill="rgb(46,125,50)"/>
<text x="641.0" y="96" text-anchor="middle" font-size="7" fill="#333">Partner Identity</text>
<text x="650.0" y="104" font-size="7" fill="#333">7.34</text>
<text x="650.0" y="608" font-size="7" fill="#333">0.00</text>
<text x="650.0" y="356.0" font-size="7" fill="#666">×10⁻³</text>
<rect x="677.0" y="604.0" width="12" height="11.3" fill="rgb(238,238,238)"/>
<rect x="677.0" y="593.7" width="12" height="11.3" fill="rgb(235,235,235)"/>
<rect x="677.0" y="583.4" width="12" height="11.3" fill="rgb(232,232,232)"/>
<rect x="677.0" y="573.1" width="12" height="11.3" fill="rgb(229,229,229)"/>
<rect x="677.0" y="562.9" width="12" height="11.3" fill="rgb(226,226,226)"/>
<rect x="677.0" y="552.6" width="12" height="11.3" fill="rgb(223,223,223)"/>
<rect x="677.0" y="542.3" width="12" height="11.3" fill="rgb(220,220,220)"/>
<rect x="677.0" y="532.0" width="12" height="11.3" fill="rgb(217,217,217)"/>
<rect x="677.0" y="521.7" width="12" height="11.3" fill="rgb(214,214,214)"/>
<rect x="677.0" y="511.4" width="12" height="11.3" fill="rgb(212,212,212)"/>
<rect x="677.0" y="501.1" width="12" height="11.3" fill="rgb(209,209,209)"/>
<rect x="677.0" y="490.9" width="12" height="11.3" fill="rgb(206,206,206)"/>
<rect x="677.0" y="480.6" width="12" height="11.3" fill="rgb(203,203,203)"/>
<rect x="677.0" y="470.3" width="12" height="11.3" fill="rgb(200,200,200)"/>
<rect x="677.0" y="460.0" width="12" height="11.3" fill="rgb(197,197,197)"/>
<rect x="677.0" y="449.7" width="12" height="11.3" fill="rgb(194,194,194)"/>
<rect x="677.0" y="439.4" width="12" height="11.3" fill="rgb(191,191,191)"/>
<rect x="677.0" y="429.1" width="12" height="11.3" fill="rgb(189,189,189)"/>
<rect x="677.0" y="418.9" width="12" height="11.3" fill="rgb(186,186,186)"/>
<rect x="677.0" y="408.6" width="12" height="11.3" fill="rgb(183,183,183)"/>
<rect x="677.0" y="398.3" width="12" height="11.3" fill="rgb(180,180,180)"/>
<rect x="677.0" y="388.0" width="12" height="11.3" fill="rgb(177,177,177)"/>
<rect x="677.0" y="377.7" width="12" height="11.3" fill="rgb(174,174,174)"/>
<rect x="677.0" y="367.4" width="12" height="11.3" fill="rgb(171,171,171)"/>
<rect x="677.0" y="357.1" width="12" height="11.3" fill="rgb(168,168,168)"/>
<rect x="677.0" y="346.9" width="12" height="11.3" fill="rgb(166,166,166)"/>
<rect x="677.0" y="336.6" width="12" height="11.3" fill="rgb(163,163,163)"/>
<rect x="677.0" y="326.3" width="12" height="11.3" fill="rgb(160,160,160)"/>
<rect x="677.0" y="316.0" width="12" height="11.3" fill="rgb(157,157,157)"/>
<rect x="677.0" y="305.7" width="12" height="11.3" fill="rgb(154,154,154)"/>
<rect x="677.0" y="295.4" width="12" height="11.3" fill="rgb(151,151,151)"/>
<rect x="677.0" y="285.1" width="12" height="11.3" fill="rgb(148,148,148)"/>
<rect x="677.0" y="274.9" width="12" height="11.3" fill="rgb(145,145,145)"/>
<rect x="677.0" y="264.6" width="12" height="11.3" fill="rgb(143,143,143)"/>
<rect x="677.0" y="254.3" width="12" height="11.3" fill="rgb(140,140,140)"/>
<rect x="677.0" y="244.0" width="12" height="11.3" fill="rgb(137,137,137)"/>
<rect x="677.0" y="233.7" width="12" height="11.3" fill="rgb(134,134,134)"/>
<rect x="677.0" y="223.4" width="12" height="11.3" fill="rgb(131,131,131)"/>
<rect x="677.0" y="213.1" width="12" height="11.3" fill="rgb(128,128,128)"/>
<rect x="677.0" y="202.9" width="12" height="11.3" fill="rgb(125,125,125)"/>
<rect x="677.0" y="192.6" width="12" height="11.3" fill="rgb(122,122,122)"/>
<rect x="677.0" y="182.3" width="12" height="11.3" fill="rgb(120,120,120)"/>
<rect x="677.0" y="172.0" width="12" height="11.3" fill="rgb(117,117,117)"/>
<rect x="677.0" y="161.7" width="12" height="11.3" fill="rgb(114,114,114)"/>
<rect x="677.0" y="151.4" width="12" height="11.3" fill="rgb(111,111,111)"/>
<rect x="677.0" y="141.1" width="12" height="11.3" fill="rgb(108,108,108)"/>
<rect x="677.0" y="130.9" width="12" height="11.3" fill="rgb(105,105,105)"/>
<rect x="677.0" y="120.6" width="12" height="11.3" fill="rgb(102,102,102)"/>
<rect x="677.0" y="110.3" width="12" height="11.3" fill="rgb(99,99,99)"/>
<rect x="677.0" y="100.0" width="12" height="11.3" fill="rgb(97,97,97)"/>
<text x="683.0" y="96" text-anchor="middle" font-size="7" fill="#333">Control</text>
</svg>