<svg viewBox="0 0 1100 360" xmlns="http://www.w3.org/2000/svg" style="width:100%;max-width:1100px;height:auto;font-family:Arial,sans-serif;">
<rect width="1100" height="360" fill="white"/>
<g transform="translate(70,30)">
<line x1="0" y1="200.0" x2="1010" y2="200.0" stroke="#eee" stroke-width="1"/>
<text x="-8" y="204.0" text-anchor="end" font-size="10" fill="#666">0.00</text>
<line x1="0" y1="160.0" x2="1010" y2="160.0" stroke="#eee" stroke-width="1"/>
<text x="-8" y="164.0" text-anchor="end" font-size="10" fill="#666">1.61</text>
<line x1="0" y1="120.0" x2="1010" y2="120.0" stroke="#eee" stroke-width="1"/>
<text x="-8" y="124.0" text-anchor="end" font-size="10" fill="#666">3.23</text>
<line x1="0" y1="80.0" x2="1010" y2="80.0" stroke="#eee" stroke-width="1"/>
<text x="-8" y="84.0" text-anchor="end" font-size="10" fill="#666">4.84</text>
<line x1="0" y1="40.0" x2="1010" y2="40.0" stroke="#eee" stroke-width="1"/>
<text x="-8" y="44.0" text-anchor="end" font-size="10" fill="#666">6.46</text>
<line x1="0" y1="0.0" x2="1010" y2="0.0" stroke="#eee" stroke-width="1"/>
<text x="-8" y="4.0" text-anchor="end" font-size="10" fill="#666">8.07</text>
<text x="-50" y="100.0" text-anchor="middle" font-size="11" fill="#333" transform="rotate(-90,-50,100.0)">Mean R² (×10⁻³)</text>
<rect x="5.61" y="193.91" width="22.44" height="6.09" fill="#81C784" opacity="0.85"><title>Partner Identity: 0.000246</title></rect>
<line x1="16.83" y1="195.36" x2="16.83" y2="191.49" stroke="#333" stroke-width="1"/>
<line x1="14.83" y1="195.36" x2="18.83" y2="195.36" stroke="#333" stroke-width="1"/>
<line x1="14.83" y1="191.49" x2="18.83" y2="191.49" stroke="#333" stroke-width="1"/>
<rect x="28.06" y="192.52" width="22.44" height="7.48" fill="#BDBDBD" opacity="0.85"><title>Control: 0.000302</title></rect>
<line x1="39.28" y1="194.02" x2="39.28" y2="190.68" stroke="#333" stroke-width="1"/>
<line x1="37.28" y1="194.02" x2="41.28" y2="194.02" stroke="#333" stroke-width="1"/>
<line x1="37.28" y1="190.68" x2="41.28" y2="190.68" stroke="#333" stroke-width="1"/>
<text x="28.06" y="214" text-anchor="end" font-size="9" fill="#2196F3" transform="rotate(-45,28.06,214)">Phenomenology</text>
<rect x="61.72" y="192.53" width="22.44" height="7.47" fill="#81C784" opacity="0.85"><title>Partner Identity: 0.000302</title></rect>
<line x1="72.94" y1="194.87" x2="72.94" y2="189.21" stroke="#333" stroke-width="1"/>
<line x1="70.94" y1="194.87" x2="74.94" y2="194.87" stroke="#333" stroke-width="1"/>
<line x1="70.94" y1="189.21" x2="74.94" y2="189.21" stroke="#333" stroke-width="1"/>
<rect x="84.17" y="194.25" width="22.44" height="5.75" fill="#BDBDBD" opacity="0.85"><title>Control: 0.000232</title></rect>
<line x1="95.39" y1="195.11" x2="95.39" y2="193.20" stroke="#333" stroke-width="1"/>
<line x1="93.39" y1="195.11" x2="97.39" y2="195.11" stroke="#333" stroke-width="1"/>
<line x1="93.39" y1="193.20" x2="97.39" y2="193.20" stroke="#333" stroke-width="1"/>
<text x="84.17" y="214" text-anchor="end" font-size="9" fill="#2196F3" transform="rotate(-45,84.17,214)">Emotions</text>
<rect x="117.83" y="192.72" width="22.44" height="7.28" fill="#81C784" opacity="0.85"><title>Partner Identity: 0.000294</title></rect>
<line x1="129.06" y1="194.52" x2="129.06" y2="189.20" stroke="#333" stroke-width="1"/>
<line x1="127.06" y1="194.52" x2="131.06" y2="194.52" stroke="#333" stroke-width="1"/>
<line x1="127.06" y1="189.20" x2="131.06" y2="189.20" stroke="#333" stroke-width="1"/>
<rect x="140.28" y="193.26" width="22.44" height="6.74" fill="#BDBDBD" opacity="0.85"><title>Control: 0.000272</title></rect>
<line x1="151.50" y1="194.71" x2="151.50" y2="191.55" stroke="#333" stroke-width="1"/>
<line x1="149.50" y1="194.71" x2="153.50" y2="194.71" stroke="#333" stroke-width="1"/>
<line x1="149.50" y1="191.55" x2="153.50" y2="191.55" stroke="#333" stroke-width="1"/>
<text x="140.28" y="214" text-anchor="end" font-size="9" fill="#2196F3" transform="rotate(-45,140.28,214)">Agency</text>
<rect x="173.94" y="189.17" width="22.44" height="10.83" fill="#81C784" opacity="0.85"><title>Partner Identity: 0.000437</title></rect>
<line x1="185.17" y1="193.33" x2="185.17" y2="184.75" stroke="#333" stroke-width="1"/>
<line x1="183.17" y1="193.33" x2="187.17" y2="193.33" stroke="#333" stroke-width="1"/>
<line x1="183.17" y1="184.75" x2="187.17" y2="184.75" stroke="#333" stroke-width="1"/>
<rect x="196.39" y="190.25" width="22.44" height="9.75" fill="#BDBDBD" opacity="0.85"><title>Control: 0.000394</title></rect>
<line x1="207.61" y1="192.17" x2="207.61" y2="188.69" stroke="#333" stroke-width="1"/>
<line x1="205.61" y1="192.17" x2="209.61" y2="192.17" stroke="#333" stroke-width="1"/>
<line x1="205.61" y1="188.69" x2="209.61" y2="188.69" stroke="#333" stroke-width="1"/>
<text x="196.39" y="214" text-anchor="end" font-size="9" fill="#2196F3" transform="rotate(-45,196.39,214)">Intentions</text>
<rect x="230.06" y="192.29" width="22.44" height="7.71" fill="#81C784" opacity="0.85"><title>Partner Identity: 0.000311</title></rect>
<line x1="241.28" y1="194.61" x2="241.28" y2="186.22" stroke="#333" stroke-width="1"/>
<line x1="239.28" y1="194.61" x2="243.28" y2="194.61" stroke="#333" stroke-width="1"/>
<line x1="239.28" y1="186.22" x2="243.28" y2="186.22" stroke="#333" stroke-width="1"/>
<rect x="252.50" y="191.66" width="22.44" height="8.34" fill="#BDBDBD" opacity="0.85"><title>Control: 0.000337</title></rect>
<line x1="263.72" y1="193.10" x2="263.72" y2="190.01" stroke="#333" stroke-width="1"/>
<line x1="261.72" y1="193.10" x2="265.72" y2="193.10" stroke="#333" stroke-width="1"/>
<line x1="261.72" y1="190.01" x2="265.72" y2="190.01" stroke="#333" stroke-width="1"/>
<text x="252.50" y="214" text-anchor="end" font-size="9" fill="#2196F3" transform="rotate(-45,252.50,214)">Prediction</text>
<rect x="286.17" y="189.23" width="22.44" height="10.77" fill="#81C784" opacity="0.85"><title>Partner Identity: 0.000435</title></rect>
<line x1="297.39" y1="192.18" x2="297.39" y2="185.74" stroke="#333" stroke-width="1"/>
<line x1="295.39" y1="192.18" x2="299.39" y2="192.18" stroke="#333" stroke-width="1"/>
<line x1="295.39" y1="185.74" x2="299.39" y2="185.74" stroke="#333" stroke-width="1"/>
<rect x="308.61" y="191.21" width="22.44" height="8.79" fill="#BDBDBD" opacity="0.85"><title>Control: 0.000355</title></rect>
<line x1="319.83" y1="192.70" x2="319.83" y2="190.28" stroke="#333" stroke-width="1"/>
<line x1="317.83" y1="192.70" x2="321.83" y2="192.70" stroke="#333" stroke-width="1"/>
<line x1="317.83" y1="190.28" x2="321.83" y2="190.28" stroke="#333" stroke-width="1"/>
<text x="308.61" y="214" text-anchor="end" font-size="9" fill="#2196F3" transform="rotate(-45,308.61,214)">Cognitive</text>
<rect x="342.28" y="187.54" width="22.44" height="12.46" fill="#81C784" opacity="0.85"><title>Partner Identity: 0.000503</title></rect>
<line x1="353.50" y1="191.52" x2="353.50" y2="181.24" stroke="#333" stroke-width="1"/>
<line x1="351.50" y1="191.52" x2="355.50" y2="191.52" stroke="#333" stroke-width="1"/>
<line x1="351.50" y1="181.24" x2="355.50" y2="181.24" stroke="#333" stroke-width="1"/>
<rect x="364.72" y="192.62" width="22.44" height="7.38" fill="#BDBDBD" opacity="0.85"><title>Control: 0.000298</title></rect>
<line x1="375.94" y1="193.84" x2="375.94" y2="191.30" stroke="#333" stroke-width="1"/>
<line x1="373.94" y1="193.84" x2="377.94" y2="193.84" stroke="#333" stroke-width="1"/>
<line x1="373.94" y1="191.30" x2="377.94" y2="191.30" stroke="#333" stroke-width="1"/>
<text x="364.72" y="214" text-anchor="end" font-size="9" fill="#2196F3" transform="rotate(-45,364.72,214)">Social</text>
<rect x="398.39" y="187.71" width="22.44" height="12.29" fill="#81C784" opacity="0.85"><title>Partner Identity: 0.000496</title></rect>
<line x1="409.61" y1="191.55" x2="409.61" y2="183.89" stroke="#333" stroke-width="1"/>
<line x1="407.61" y1="191.55" x2="411.61" y2="191.55" stroke="#333" stroke-width="1"/>
<line x1="407.61" y1="183.89" x2="411.61" y2="183.89" stroke="#333" stroke-width="1"/>
<rect x="420.83" y="191.40" width="22.44" height="8.60" fill="#BDBDBD" opacity="0.85"><title>Control: 0.000347</title></rect>
<line x1="432.06" y1="192.83" x2="432.06" y2="190.30" stroke="#333" stroke-width="1"/>
<line x1="430.06" y1="192.83" x2="434.06" y2="192.83" stroke="#333" stroke-width="1"/>
<line x1="430.06" y1="190.30" x2="434.06" y2="190.30" stroke="#333" stroke-width="1"/>
<text x="420.83" y="214" text-anchor="end" font-size="9" fill="#2196F3" transform="rotate(-45,420.83,214)">Attention</text>
<rect x="454.50" y="193.11" width="22.44" height="6.89" fill="#81C784" opacity="0.85"><title>Partner Identity: 0.000278</title></rect>
<line x1="465.72" y1="195.11" x2="465.72" y2="190.52" stroke="#333" stroke-width="1"/>
<line x1="463.72" y1="195.11" x2="467.72" y2="195.11" stroke="#333" stroke-width="1"/>
<line x1="463.72" y1="190.52" x2="467.72" y2="190.52" stroke="#333" stroke-width="1"/>
<rect x="476.94" y="192.15" width="22.44" height="7.85" fill="#BDBDBD" opacity="0.85"><title>Control: 0.000317</title></rect>
<line x1="488.17" y1="193.53" x2="488.17" y2="190.58" stroke="#333" stroke-width="1"/>
<line x1="486.17" y1="193.53" x2="490.17" y2="193.53" stroke="#333" stroke-width="1"/>
<line x1="486.17" y1="190.58" x2="490.17" y2="190.58" stroke="#333" stroke-width="1"/>
<text x="476.94" y="214" text-anchor="end" font-size="9" fill="#4CAF50" transform="rotate(-45,476.94,214)">Embodiment</text>
<rect x="510.61" y="193.25" width="22.44" height="6.75" fill="#81C784" opacity="0.85"><title>Partner Identity: 0.000273</title></rect>
<line x1="521.83" y1="194.89" x2="521.83" y2="190.32" stroke="#333" stroke-width="1"/>
<line x1="519.83" y1="194.89" x2="523.83" y2="194.89" stroke="#333" stroke-width="1"/>
<line x1="519.83" y1="190.32" x2="523.83" y2="190.32" stroke="#333" stroke-width="1"/>
<rect x="533.06" y="192.48" width="22.44" height="7.52" fill="#BDBDBD" opacity="0.85"><title>Control: 0.000304</title></rect>
<line x1="544.28" y1="194.26" x2="544.28" y2="189.96" stroke="#333" stroke-width="1"/>
<line x1="542.28" y1="194.26" x2="546.28" y2="194.26" stroke="#333" stroke-width="1"/>
<line x1="542.28" y1="189.96" x2="546.28" y2="189.96" stroke="#333" stroke-width="1"/>
<text x="533.06" y="214" text-anchor="end" font-size="9" fill="#4CAF50" transform="rotate(-45,533.06,214)">Roles</text>
<rect x="566.72" y="190.68" width="22.44" height="9.32" fill="#81C784" opacity="0.85"><title>Partner Identity: 0.000376</title></rect>
<line x1="577.94" y1="193.36" x2="577.94" y2="187.60" stroke="#333" stroke-width="1"/>
<line x1="575.94" y1="193.36" x2="579.94" y2="193.36" stroke="#333" stroke-width="1"/>
<line x1="575.94" y1="187.60" x2="579.94" y2="187.60" stroke="#333" stroke-width="1"/>
<rect x="589.17" y="194.68" width="22.44" height="5.32" fill="#BDBDBD" opacity="0.85"><title>Control: 0.000215</title></rect>
<line x1="600.39" y1="195.64" x2="600.39" y2="193.50" stroke="#333" stroke-width="1"/>
<line x1="598.39" y1="195.64" x2="602.39" y2="195.64" stroke="#333" stroke-width="1"/>
<line x1="598.39" y1="193.50" x2="602.39" y2="193.50" stroke="#333" stroke-width="1"/>
<text x="589.17" y="214" text-anchor="end" font-size="9" fill="#4CAF50" transform="rotate(-45,589.17,214)">Animacy</text>
<rect x="622.83" y="188.69" width="22.44" height="11.31" fill="#81C784" opacity="0.85"><title>Partner Identity: 0.000457</title></rect>
<line x1="634.06" y1="193.10" x2="634.06" y2="185.81" stroke="#333" stroke-width="1"/>
<line x1="632.06" y1="193.10" x2="636.06" y2="193.10" stroke="#333" stroke-width="1"/>
<line x1="632.06" y1="185.81" x2="636.06" y2="185.81" stroke="#333" stroke-width="1"/>
<rect x="645.28" y="193.27" width="22.44" height="6.73" fill="#BDBDBD" opacity="0.85"><title>Control: 0.000272</title></rect>
<line x1="656.50" y1="195.36" x2="656.50" y2="191.45" stroke="#333" stroke-width="1"/>
<line x1="654.50" y1="195.36" x2="658.50" y2="195.36" stroke="#333" stroke-width="1"/>
<line x1="654.50" y1="191.45" x2="658.50" y2="191.45" stroke="#333" stroke-width="1"/>
<text x="645.28" y="214" text-anchor="end" font-size="9" fill="#FF9800" transform="rotate(-45,645.28,214)">Formality</text>
<rect x="678.94" y="188.03" width="22.44" height="11.97" fill="#81C784" opacity="0.85"><title>Partner Identity: 0.000483</title></rect>
<line x1="690.17" y1="190.45" x2="690.17" y2="185.27" stroke="#333" stroke-width="1"/>
<line x1="688.17" y1="190.45" x2="692.17" y2="190.45" stroke="#333" stroke-width="1"/>
<line x1="688.17" y1="185.27" x2="692.17" y2="185.27" stroke="#333" stroke-width="1"/>
<rect x="701.39" y="193.92" width="22.44" height="6.08" fill="#BDBDBD" opacity="0.85"><title>Control: 0.000245</title></rect>
<line x1="712.61" y1="194.41" x2="712.61" y2="193.41" stroke="#333" stroke-width="1"/>
<line x1="710.61" y1="194.41" x2="714.61" y2="194.41" stroke="#333" stroke-width="1"/>
<line x1="710.61" y1="193.41" x2="714.61" y2="193.41" stroke="#333" stroke-width="1"/>
<text x="701.39" y="214" text-anchor="end" font-size="9" fill="#FF9800" transform="rotate(-45,701.39,214)">Expertise</text>
<rect x="735.06" y="190.12" width="22.44" height="9.88" fill="#81C784" opacity="0.85"><title>Partner Identity: 0.000399</title></rect>
<line x1="746.28" y1="195.50" x2="746.28" y2="184.07" stroke="#333" stroke-width="1"/>
<line x1="744.28" y1="195.50" x2="748.28" y2="195.50" stroke="#333" stroke-width="1"/>
<line x1="744.28" y1="184.07" x2="748.28" y2="184.07" stroke="#333" stroke-width="1"/>
<rect x="757.50" y="194.14" width="22.44" height="5.86" fill="#BDBDBD" opacity="0.85"><title>Control: 0.000237</title></rect>
<line x1="768.72" y1="195.94" x2="768.72" y2="192.19" stroke="#333" stroke-width="1"/>
<line x1="766.72" y1="195.94" x2="770.72" y2="195.94" stroke="#333" stroke-width="1"/>
<line x1="766.72" y1="192.19" x2="770.72" y2="192.19" stroke="#333" stroke-width="1"/>
<text x="757.50" y="214" text-anchor="end" font-size="9" fill="#FF9800" transform="rotate(-45,757.50,214)">Helpfulness</text>
<rect x="791.17" y="185.41" width="22.44" height="14.59" fill="#81C784" opacity="0.85"><title>Partner Identity: 0.000589</title></rect>
<line x1="802.39" y1="188.83" x2="802.39" y2="182.48" stroke="#333" stroke-width="1"/>
<line x1="800.39" y1="188.83" x2="804.39" y2="188.83" stroke="#333" stroke-width="1"/>
<line x1="800.39" y1="182.48" x2="804.39" y2="182.48" stroke="#333" stroke-width="1"/>
<rect x="813.61" y="191.08" width="22.44" height="8.92" fill="#BDBDBD" opacity="0.85"><title>Control: 0.000360</title></rect>
<line x1="824.83" y1="193.14" x2="824.83" y2="189.09" stroke="#333" stroke-width="1"/>
<line x1="822.83" y1="193.14" x2="826.83" y2="193.14" stroke="#333" stroke-width="1"/>
<line x1="822.83" y1="189.09" x2="826.83" y2="189.09" stroke="#333" stroke-width="1"/>
<text x="813.61" y="214" text-anchor="end" font-size="9" fill="#9E9E9E" transform="rotate(-45,813.61,214)">Baseline</text>
<rect x="847.28" y="193.92" width="22.44" height="6.08" fill="#81C784" opacity="0.85"><title>Partner Identity: 0.000245</title></rect>
<line x1="858.50" y1="195.39" x2="858.50" y2="191.81" stroke="#333" stroke-width="1"/>
<line x1="856.50" y1="195.39" x2="860.50" y2="195.39" stroke="#333" stroke-width="1"/>
<line x1="856.50" y1="191.81" x2="860.50" y2="191.81" stroke="#333" stroke-width="1"/>
<rect x="869.72" y="192.75" width="22.44" height="7.25" fill="#BDBDBD" opacity="0.85"><title>Control: 0.000293</title></rect>
<line x1="880.94" y1="193.83" x2="880.94" y2="191.62" stroke="#333" stroke-width="1"/>
<line x1="878.94" y1="193.83" x2="882.94" y2="193.83" stroke="#333" stroke-width="1"/>
<line x1="878.94" y1="191.62" x2="882.94" y2="191.62" stroke="#333" stroke-width="1"/>
<text x="869.72" y="214" text-anchor="end" font-size="9" fill="#9E9E9E" transform="rotate(-45,869.72,214)">Biological</text>
<rect x="903.39" y="188.50" width="22.44" height="11.50" fill="#81C784" opacity="0.85"><title>Partner Identity: 0.000464</title></rect>
<line x1="914.61" y1="192.88" x2="914.61" y2="183.56" stroke="#333" stroke-width="1"/>
<line x1="912.61" y1="192.88" x2="916.61" y2="192.88" stroke="#333" stroke-width="1"/>
<line x1="912.61" y1="183.56" x2="916.61" y2="183.56" stroke="#333" stroke-width="1"/>
<rect x="925.83" y="195.64" width="22.44" height="4.36" fill="#BDBDBD" opacity="0.85"><title>Control: 0.000176</title></rect>
<line x1="937.06" y1="196.86" x2="937.06" y2="193.32" stroke="#333" stroke-width="1"/>
<line x1="935.06" y1="196.86" x2="939.06" y2="196.86" stroke="#333" stroke-width="1"/>
<line x1="935.06" y1="193.32" x2="939.06" y2="193.32" stroke="#333" stroke-width="1"/>
<text x="925.83" y="214" text-anchor="end" font-size="9" fill="#9E9E9E" transform="rotate(-45,925.83,214)">Shapes</text>
<rect x="959.50" y="184.41" width="22.44" height="15.59" fill="#81C784" opacity="0.85"><title>Partner Identity: 0.000629</title></rect>
<line x1="970.72" y1="187.96" x2="970.72" y2="178.77" stroke="#333" stroke-width="1"/>
<line x1="968.72" y1="187.96" x2="972.72" y2="187.96" stroke="#333" stroke-width="1"/>
<line x1="968.72" y1="178.77" x2="972.72" y2="178.77" stroke="#333" stroke-width="1"/>
<rect x="981.94" y="194.09" width="22.44" height="5.91" fill="#BDBDBD" opacity="0.85"><title>Control: 0.000238</title></rect>
<line x1="993.17" y1="194.74" x2="993.17" y2="193.42" stroke="#333" stroke-width="1"/>
<line x1="991.17" y1="194.74" x2="995.17" y2="194.74" stroke="#333" stroke-width="1"/>
<line x1="991.17" y1="193.42" x2="995.17" y2="193.42" stroke="#333" stroke-width="1"/>
<text x="981.94" y="214" text-anchor="end" font-size="9" fill="#00BCD4" transform="rotate(-45,981.94,214)">SysPrompt (labeled)</text>
<line x1="0" y1="200" x2="1010" y2="200" stroke="#333"/>
<line x1="0" y1="0" x2="0" y2="200" stroke="#333"/>
</g>
<rect x="70.0" y="324" width="10" height="10" fill="#81C784"/>
<text x="84.0" y="332" font-size="8" fill="#333">Partner Identity</text>
<rect x="272.0" y="324" width="10" height="10" fill="#BDBDBD"/>
<text x="286.0" y="332" font-size="8" fill="#333">Control</text>
</svg>