<svg viewBox="0 0 1100 360" xmlns="http://www.w3.org/2000/svg" style="width:100%;max-width:1100px;height:auto;font-family:Arial,sans-serif;">
<rect width="1100" height="360" fill="white"/>
<g transform="translate(70,30)">
<line x1="0" y1="200.0" x2="1010" y2="200.0" stroke="#eee" stroke-width="1"/>
<text x="-8" y="204.0" text-anchor="end" font-size="10" fill="#666">0.00</text>
<line x1="0" y1="160.0" x2="1010" y2="160.0" stroke="#eee" stroke-width="1"/>
<text x="-8" y="164.0" text-anchor="end" font-size="10" fill="#666">1.61</text>
<line x1="0" y1="120.0" x2="1010" y2="120.0" stroke="#eee" stroke-width="1"/>
<text x="-8" y="124.0" text-anchor="end" font-size="10" fill="#666">3.23</text>
<line x1="0" y1="80.0" x2="1010" y2="80.0" stroke="#eee" stroke-width="1"/>
<text x="-8" y="84.0" text-anchor="end" font-size="10" fill="#666">4.84</text>
<line x1="0" y1="40.0" x2="1010" y2="40.0" stroke="#eee" stroke-width="1"/>
<text x="-8" y="44.0" text-anchor="end" font-size="10" fill="#666">6.46</text>
<line x1="0" y1="0.0" x2="1010" y2="0.0" stroke="#eee" stroke-width="1"/>
<text x="-8" y="4.0" text-anchor="end" font-size="10" fill="#666">8.07</text>
<text x="-50" y="100.0" text-anchor="middle" font-size="11" fill="#333" transform="rotate(-90,-50,100.0)">Mean R² (×10⁻³)</text>
<rect x="5.61" y="94.15" width="22.44" height="105.85" fill="#2E7D32" opacity="0.85"><title>Partner Identity: 0.004273</title></rect>
<line x1="16.83" y1="110.65" x2="16.83" y2="88.73" stroke="#333" stroke-width="1"/>
<line x1="14.83" y1="110.65" x2="18.83" y2="110.65" stroke="#333" stroke-width="1"/>
<line x1="14.83" y1="88.73" x2="18.83" y2="88.73" stroke="#333" stroke-width="1"/>
<rect x="28.06" y="175.56" width="22.44" height="24.44" fill="#616161" opacity="0.85"><title>Control: 0.000986</title></rect>
<line x1="39.28" y1="183.53" x2="39.28" y2="168.99" stroke="#333" stroke-width="1"/>
<line x1="37.28" y1="183.53" x2="41.28" y2="183.53" stroke="#333" stroke-width="1"/>
<line x1="37.28" y1="168.99" x2="41.28" y2="168.99" stroke="#333" stroke-width="1"/>
<text x="28.06" y="214" text-anchor="end" font-size="9" fill="#2196F3" transform="rotate(-45,28.06,214)">Phenomenology</text>
<rect x="61.72" y="82.70" width="22.44" height="117.30" fill="#2E7D32" opacity="0.85"><title>Partner Identity: 0.004735</title></rect>
<line x1="72.94" y1="96.74" x2="72.94" y2="74.34" stroke="#333" stroke-width="1"/>
<line x1="70.94" y1="96.74" x2="74.94" y2="96.74" stroke="#333" stroke-width="1"/>
<line x1="70.94" y1="74.34" x2="74.94" y2="74.34" stroke="#333" stroke-width="1"/>
<rect x="84.17" y="183.07" width="22.44" height="16.93" fill="#616161" opacity="0.85"><title>Control: 0.000683</title></rect>
<line x1="95.39" y1="186.12" x2="95.39" y2="179.98" stroke="#333" stroke-width="1"/>
<line x1="93.39" y1="186.12" x2="97.39" y2="186.12" stroke="#333" stroke-width="1"/>
<line x1="93.39" y1="179.98" x2="97.39" y2="179.98" stroke="#333" stroke-width="1"/>
<text x="84.17" y="214" text-anchor="end" font-size="9" fill="#2196F3" transform="rotate(-45,84.17,214)">Emotions</text>
<rect x="117.83" y="64.85" width="22.44" height="135.15" fill="#2E7D32" opacity="0.85"><title>Partner Identity: 0.005456</title></rect>
<line x1="129.06" y1="83.02" x2="129.06" y2="57.68" stroke="#333" stroke-width="1"/>
<line x1="127.06" y1="83.02" x2="131.06" y2="83.02" stroke="#333" stroke-width="1"/>
<line x1="127.06" y1="57.68" x2="131.06" y2="57.68" stroke="#333" stroke-width="1"/>
<rect x="140.28" y="170.39" width="22.44" height="29.61" fill="#616161" opacity="0.85"><title>Control: 0.001195</title></rect>
<line x1="151.50" y1="180.32" x2="151.50" y2="158.25" stroke="#333" stroke-width="1"/>
<line x1="149.50" y1="180.32" x2="153.50" y2="180.32" stroke="#333" stroke-width="1"/>
<line x1="149.50" y1="158.25" x2="153.50" y2="158.25" stroke="#333" stroke-width="1"/>
<text x="140.28" y="214" text-anchor="end" font-size="9" fill="#2196F3" transform="rotate(-45,140.28,214)">Agency</text>
<rect x="173.94" y="71.32" width="22.44" height="128.68" fill="#2E7D32" opacity="0.85"><title>Partner Identity: 0.005194</title></rect>
<line x1="185.17" y1="90.99" x2="185.17" y2="61.69" stroke="#333" stroke-width="1"/>
<line x1="183.17" y1="90.99" x2="187.17" y2="90.99" stroke="#333" stroke-width="1"/>
<line x1="183.17" y1="61.69" x2="187.17" y2="61.69" stroke="#333" stroke-width="1"/>
<rect x="196.39" y="163.83" width="22.44" height="36.17" fill="#616161" opacity="0.85"><title>Control: 0.001460</title></rect>
<line x1="207.61" y1="174.19" x2="207.61" y2="155.85" stroke="#333" stroke-width="1"/>
<line x1="205.61" y1="174.19" x2="209.61" y2="174.19" stroke="#333" stroke-width="1"/>
<line x1="205.61" y1="155.85" x2="209.61" y2="155.85" stroke="#333" stroke-width="1"/>
<text x="196.39" y="214" text-anchor="end" font-size="9" fill="#2196F3" transform="rotate(-45,196.39,214)">Intentions</text>
<rect x="230.06" y="47.76" width="22.44" height="152.24" fill="#2E7D32" opacity="0.85"><title>Partner Identity: 0.006145</title></rect>
<line x1="241.28" y1="68.92" x2="241.28" y2="38.79" stroke="#333" stroke-width="1"/>
<line x1="239.28" y1="68.92" x2="243.28" y2="68.92" stroke="#333" stroke-width="1"/>
<line x1="239.28" y1="38.79" x2="243.28" y2="38.79" stroke="#333" stroke-width="1"/>
<rect x="252.50" y="176.25" width="22.44" height="23.75" fill="#616161" opacity="0.85"><title>Control: 0.000959</title></rect>
<line x1="263.72" y1="183.44" x2="263.72" y2="166.33" stroke="#333" stroke-width="1"/>
<line x1="261.72" y1="183.44" x2="265.72" y2="183.44" stroke="#333" stroke-width="1"/>
<line x1="261.72" y1="166.33" x2="265.72" y2="166.33" stroke="#333" stroke-width="1"/>
<text x="252.50" y="214" text-anchor="end" font-size="9" fill="#2196F3" transform="rotate(-45,252.50,214)">Prediction</text>
<rect x="286.17" y="63.01" width="22.44" height="136.99" fill="#2E7D32" opacity="0.85"><title>Partner Identity: 0.005530</title></rect>
<line x1="297.39" y1="83.61" x2="297.39" y2="53.46" stroke="#333" stroke-width="1"/>
<line x1="295.39" y1="83.61" x2="299.39" y2="83.61" stroke="#333" stroke-width="1"/>
<line x1="295.39" y1="53.46" x2="299.39" y2="53.46" stroke="#333" stroke-width="1"/>
<rect x="308.61" y="162.29" width="22.44" height="37.71" fill="#616161" opacity="0.85"><title>Control: 0.001522</title></rect>
<line x1="319.83" y1="173.02" x2="319.83" y2="156.78" stroke="#333" stroke-width="1"/>
<line x1="317.83" y1="173.02" x2="321.83" y2="173.02" stroke="#333" stroke-width="1"/>
<line x1="317.83" y1="156.78" x2="321.83" y2="156.78" stroke="#333" stroke-width="1"/>
<text x="308.61" y="214" text-anchor="end" font-size="9" fill="#2196F3" transform="rotate(-45,308.61,214)">Cognitive</text>
<rect x="342.28" y="36.73" width="22.44" height="163.27" fill="#2E7D32" opacity="0.85"><title>Partner Identity: 0.006591</title></rect>
<line x1="353.50" y1="57.90" x2="353.50" y2="26.84" stroke="#333" stroke-width="1"/>
<line x1="351.50" y1="57.90" x2="355.50" y2="57.90" stroke="#333" stroke-width="1"/>
<line x1="351.50" y1="26.84" x2="355.50" y2="26.84" stroke="#333" stroke-width="1"/>
<rect x="364.72" y="181.59" width="22.44" height="18.41" fill="#616161" opacity="0.85"><title>Control: 0.000743</title></rect>
<line x1="375.94" y1="186.63" x2="375.94" y2="173.34" stroke="#333" stroke-width="1"/>
<line x1="373.94" y1="186.63" x2="377.94" y2="186.63" stroke="#333" stroke-width="1"/>
<line x1="373.94" y1="173.34" x2="377.94" y2="173.34" stroke="#333" stroke-width="1"/>
<text x="364.72" y="214" text-anchor="end" font-size="9" fill="#2196F3" transform="rotate(-45,364.72,214)">Social</text>
<rect x="398.39" y="40.85" width="22.44" height="159.15" fill="#2E7D32" opacity="0.85"><title>Partner Identity: 0.006424</title></rect>
<line x1="409.61" y1="63.70" x2="409.61" y2="32.74" stroke="#333" stroke-width="1"/>
<line x1="407.61" y1="63.70" x2="411.61" y2="63.70" stroke="#333" stroke-width="1"/>
<line x1="407.61" y1="32.74" x2="411.61" y2="32.74" stroke="#333" stroke-width="1"/>
<rect x="420.83" y="174.67" width="22.44" height="25.33" fill="#616161" opacity="0.85"><title>Control: 0.001022</title></rect>
<line x1="432.06" y1="182.37" x2="432.06" y2="168.15" stroke="#333" stroke-width="1"/>
<line x1="430.06" y1="182.37" x2="434.06" y2="182.37" stroke="#333" stroke-width="1"/>
<line x1="430.06" y1="168.15" x2="434.06" y2="168.15" stroke="#333" stroke-width="1"/>
<text x="420.83" y="214" text-anchor="end" font-size="9" fill="#2196F3" transform="rotate(-45,420.83,214)">Attention</text>
<rect x="454.50" y="98.24" width="22.44" height="101.76" fill="#2E7D32" opacity="0.85"><title>Partner Identity: 0.004108</title></rect>
<line x1="465.72" y1="112.84" x2="465.72" y2="91.69" stroke="#333" stroke-width="1"/>
<line x1="463.72" y1="112.84" x2="467.72" y2="112.84" stroke="#333" stroke-width="1"/>
<line x1="463.72" y1="91.69" x2="467.72" y2="91.69" stroke="#333" stroke-width="1"/>
<rect x="476.94" y="173.43" width="22.44" height="26.57" fill="#616161" opacity="0.85"><title>Control: 0.001073</title></rect>
<line x1="488.17" y1="181.16" x2="488.17" y2="164.49" stroke="#333" stroke-width="1"/>
<line x1="486.17" y1="181.16" x2="490.17" y2="181.16" stroke="#333" stroke-width="1"/>
<line x1="486.17" y1="164.49" x2="490.17" y2="164.49" stroke="#333" stroke-width="1"/>
<text x="476.94" y="214" text-anchor="end" font-size="9" fill="#4CAF50" transform="rotate(-45,476.94,214)">Embodiment</text>
<rect x="510.61" y="71.08" width="22.44" height="128.92" fill="#2E7D32" opacity="0.85"><title>Partner Identity: 0.005204</title></rect>
<line x1="521.83" y1="94.48" x2="521.83" y2="58.24" stroke="#333" stroke-width="1"/>
<line x1="519.83" y1="94.48" x2="523.83" y2="94.48" stroke="#333" stroke-width="1"/>
<line x1="519.83" y1="58.24" x2="523.83" y2="58.24" stroke="#333" stroke-width="1"/>
<rect x="533.06" y="181.63" width="22.44" height="18.37" fill="#616161" opacity="0.85"><title>Control: 0.000741</title></rect>
<line x1="544.28" y1="186.42" x2="544.28" y2="172.73" stroke="#333" stroke-width="1"/>
<line x1="542.28" y1="186.42" x2="546.28" y2="186.42" stroke="#333" stroke-width="1"/>
<line x1="542.28" y1="172.73" x2="546.28" y2="172.73" stroke="#333" stroke-width="1"/>
<text x="533.06" y="214" text-anchor="end" font-size="9" fill="#4CAF50" transform="rotate(-45,533.06,214)">Roles</text>
<rect x="566.72" y="111.70" width="22.44" height="88.30" fill="#2E7D32" opacity="0.85"><title>Partner Identity: 0.003565</title></rect>
<line x1="577.94" y1="130.11" x2="577.94" y2="101.08" stroke="#333" stroke-width="1"/>
<line x1="575.94" y1="130.11" x2="579.94" y2="130.11" stroke="#333" stroke-width="1"/>
<line x1="575.94" y1="101.08" x2="579.94" y2="101.08" stroke="#333" stroke-width="1"/>
<rect x="589.17" y="188.87" width="22.44" height="11.13" fill="#616161" opacity="0.85"><title>Control: 0.000449</title></rect>
<line x1="600.39" y1="190.53" x2="600.39" y2="186.07" stroke="#333" stroke-width="1"/>
<line x1="598.39" y1="190.53" x2="602.39" y2="190.53" stroke="#333" stroke-width="1"/>
<line x1="598.39" y1="186.07" x2="602.39" y2="186.07" stroke="#333" stroke-width="1"/>
<text x="589.17" y="214" text-anchor="end" font-size="9" fill="#4CAF50" transform="rotate(-45,589.17,214)">Animacy</text>
<rect x="622.83" y="168.29" width="22.44" height="31.71" fill="#2E7D32" opacity="0.85"><title>Partner Identity: 0.001280</title></rect>
<line x1="634.06" y1="183.54" x2="634.06" y2="160.69" stroke="#333" stroke-width="1"/>
<line x1="632.06" y1="183.54" x2="636.06" y2="183.54" stroke="#333" stroke-width="1"/>
<line x1="632.06" y1="160.69" x2="636.06" y2="160.69" stroke="#333" stroke-width="1"/>
<rect x="645.28" y="187.44" width="22.44" height="12.56" fill="#616161" opacity="0.85"><title>Control: 0.000507</title></rect>
<line x1="656.50" y1="195.75" x2="656.50" y2="178.22" stroke="#333" stroke-width="1"/>
<line x1="654.50" y1="195.75" x2="658.50" y2="195.75" stroke="#333" stroke-width="1"/>
<line x1="654.50" y1="178.22" x2="658.50" y2="178.22" stroke="#333" stroke-width="1"/>
<text x="645.28" y="214" text-anchor="end" font-size="9" fill="#FF9800" transform="rotate(-45,645.28,214)">Formality</text>
<rect x="678.94" y="141.76" width="22.44" height="58.24" fill="#2E7D32" opacity="0.85"><title>Partner Identity: 0.002351</title></rect>
<line x1="690.17" y1="153.08" x2="690.17" y2="133.04" stroke="#333" stroke-width="1"/>
<line x1="688.17" y1="153.08" x2="692.17" y2="153.08" stroke="#333" stroke-width="1"/>
<line x1="688.17" y1="133.04" x2="692.17" y2="133.04" stroke="#333" stroke-width="1"/>
<rect x="701.39" y="176.69" width="22.44" height="23.31" fill="#616161" opacity="0.85"><title>Control: 0.000941</title></rect>
<line x1="712.61" y1="181.12" x2="712.61" y2="173.42" stroke="#333" stroke-width="1"/>
<line x1="710.61" y1="181.12" x2="714.61" y2="181.12" stroke="#333" stroke-width="1"/>
<line x1="710.61" y1="173.42" x2="714.61" y2="173.42" stroke="#333" stroke-width="1"/>
<text x="701.39" y="214" text-anchor="end" font-size="9" fill="#FF9800" transform="rotate(-45,701.39,214)">Expertise</text>
<rect x="735.06" y="185.89" width="22.44" height="14.11" fill="#2E7D32" opacity="0.85"><title>Partner Identity: 0.000570</title></rect>
<line x1="746.28" y1="194.09" x2="746.28" y2="178.24" stroke="#333" stroke-width="1"/>
<line x1="744.28" y1="194.09" x2="748.28" y2="194.09" stroke="#333" stroke-width="1"/>
<line x1="744.28" y1="178.24" x2="748.28" y2="178.24" stroke="#333" stroke-width="1"/>
<rect x="757.50" y="185.57" width="22.44" height="14.43" fill="#616161" opacity="0.85"><title>Control: 0.000582</title></rect>
<line x1="768.72" y1="193.19" x2="768.72" y2="174.68" stroke="#333" stroke-width="1"/>
<line x1="766.72" y1="193.19" x2="770.72" y2="193.19" stroke="#333" stroke-width="1"/>
<line x1="766.72" y1="174.68" x2="770.72" y2="174.68" stroke="#333" stroke-width="1"/>
<text x="757.50" y="214" text-anchor="end" font-size="9" fill="#FF9800" transform="rotate(-45,757.50,214)">Helpfulness</text>
<rect x="791.17" y="72.08" width="22.44" height="127.92" fill="#2E7D32" opacity="0.85"><title>Partner Identity: 0.005164</title></rect>
<line x1="802.39" y1="98.49" x2="802.39" y2="62.56" stroke="#333" stroke-width="1"/>
<line x1="800.39" y1="98.49" x2="804.39" y2="98.49" stroke="#333" stroke-width="1"/>
<line x1="800.39" y1="62.56" x2="804.39" y2="62.56" stroke="#333" stroke-width="1"/>
<rect x="813.61" y="183.09" width="22.44" height="16.91" fill="#616161" opacity="0.85"><title>Control: 0.000683</title></rect>
<line x1="824.83" y1="188.11" x2="824.83" y2="173.63" stroke="#333" stroke-width="1"/>
<line x1="822.83" y1="188.11" x2="826.83" y2="188.11" stroke="#333" stroke-width="1"/>
<line x1="822.83" y1="173.63" x2="826.83" y2="173.63" stroke="#333" stroke-width="1"/>
<text x="813.61" y="214" text-anchor="end" font-size="9" fill="#9E9E9E" transform="rotate(-45,813.61,214)">Baseline</text>
<rect x="847.28" y="138.22" width="22.44" height="61.78" fill="#2E7D32" opacity="0.85"><title>Partner Identity: 0.002494</title></rect>
<line x1="858.50" y1="146.61" x2="858.50" y2="132.44" stroke="#333" stroke-width="1"/>
<line x1="856.50" y1="146.61" x2="860.50" y2="146.61" stroke="#333" stroke-width="1"/>
<line x1="856.50" y1="132.44" x2="860.50" y2="132.44" stroke="#333" stroke-width="1"/>
<rect x="869.72" y="179.82" width="22.44" height="20.18" fill="#616161" opacity="0.85"><title>Control: 0.000814</title></rect>
<line x1="880.94" y1="185.08" x2="880.94" y2="173.77" stroke="#333" stroke-width="1"/>
<line x1="878.94" y1="185.08" x2="882.94" y2="185.08" stroke="#333" stroke-width="1"/>
<line x1="878.94" y1="173.77" x2="882.94" y2="173.77" stroke="#333" stroke-width="1"/>
<text x="869.72" y="214" text-anchor="end" font-size="9" fill="#9E9E9E" transform="rotate(-45,869.72,214)">Biological</text>
<rect x="903.39" y="187.19" width="22.44" height="12.81" fill="#2E7D32" opacity="0.85"><title>Partner Identity: 0.000517</title></rect>
<line x1="914.61" y1="193.42" x2="914.61" y2="181.22" stroke="#333" stroke-width="1"/>
<line x1="912.61" y1="193.42" x2="916.61" y2="193.42" stroke="#333" stroke-width="1"/>
<line x1="912.61" y1="181.22" x2="916.61" y2="181.22" stroke="#333" stroke-width="1"/>
<rect x="925.83" y="191.44" width="22.44" height="8.56" fill="#616161" opacity="0.85"><title>Control: 0.000345</title></rect>
<line x1="937.06" y1="196.18" x2="937.06" y2="178.26" stroke="#333" stroke-width="1"/>
<line x1="935.06" y1="196.18" x2="939.06" y2="196.18" stroke="#333" stroke-width="1"/>
<line x1="935.06" y1="178.26" x2="939.06" y2="178.26" stroke="#333" stroke-width="1"/>
<text x="925.83" y="214" text-anchor="end" font-size="9" fill="#9E9E9E" transform="rotate(-45,925.83,214)">Shapes</text>
<rect x="959.50" y="76.57" width="22.44" height="123.43" fill="#2E7D32" opacity="0.85"><title>Partner Identity: 0.004982</title></rect>
<line x1="970.72" y1="107.70" x2="970.72" y2="32.15" stroke="#333" stroke-width="1"/>
<line x1="968.72" y1="107.70" x2="972.72" y2="107.70" stroke="#333" stroke-width="1"/>
<line x1="968.72" y1="32.15" x2="972.72" y2="32.15" stroke="#333" stroke-width="1"/>
<rect x="981.94" y="188.67" width="22.44" height="11.33" fill="#616161" opacity="0.85"><title>Control: 0.000457</title></rect>
<line x1="993.17" y1="191.04" x2="993.17" y2="186.46" stroke="#333" stroke-width="1"/>
<line x1="991.17" y1="191.04" x2="995.17" y2="191.04" stroke="#333" stroke-width="1"/>
<line x1="991.17" y1="186.46" x2="995.17" y2="186.46" stroke="#333" stroke-width="1"/>
<text x="981.94" y="214" text-anchor="end" font-size="9" fill="#00BCD4" transform="rotate(-45,981.94,214)">SysPrompt (labeled)</text>
<line x1="0" y1="200" x2="1010" y2="200" stroke="#333"/>
<line x1="0" y1="0" x2="0" y2="200" stroke="#333"/>
</g>
<rect x="70.0" y="324" width="10" height="10" fill="#2E7D32"/>
<text x="84.0" y="332" font-size="8" fill="#333">Partner Identity</text>
<rect x="272.0" y="324" width="10" height="10" fill="#616161"/>
<text x="286.0" y="332" font-size="8" fill="#333">Control</text>
</svg>